<svg width="24" height="24" viewBox="0 0 24 24" fill="none" xmlns="http://www.w3.org/2000/svg">
<g clip-path="url(#clip0_865_12300)">
<path d="M20.0867 0H3.91188C1.80584 0 0.0999756 1.72052 0.0999756 3.84505V20.1556C0.0999756 22.2782 1.80584 24 3.91188 24H20.0867C22.1927 24 23.8973 22.2782 23.8973 20.1556V3.84505C23.8973 1.72052 22.1927 0 20.0867 0Z" fill="#1677FF"/>
<path d="M6.5311 18.4567C2.8288 18.4567 1.73405 15.5152 3.56417 13.9068C4.17463 13.3626 5.29042 13.0976 5.88495 13.0377C8.08403 12.8184 10.12 13.6647 12.5223 14.8474C10.8337 17.0688 8.68302 18.4567 6.5311 18.4567ZM19.6943 15.0704C18.7417 14.7486 17.464 14.2567 16.0411 13.7373C16.895 12.2386 17.5781 10.5321 18.0267 8.67773H13.3361V6.97377H19.0826V6.02175H13.3361V3.18225H10.9911C10.5794 3.18225 10.5794 3.59135 10.5794 3.59135V6.02239H4.76789V6.97377H10.5794V8.67773H5.78109V9.62847H15.0872C14.7589 10.7742 14.3096 11.8818 13.7471 12.9325C10.7266 11.9276 7.50479 11.1132 5.48031 11.6141C4.1861 11.9359 3.35197 12.51 2.86258 13.1116C0.613798 15.8708 2.22662 20.0606 6.97462 20.0606C9.78161 20.0606 12.4866 18.4822 14.5825 15.8803C17.7087 17.3969 23.8988 19.9988 23.8988 19.9988V16.2901C23.8988 16.2901 23.1214 16.2276 19.6943 15.0704Z" fill="white"/>
</g>
<defs>
<clipPath id="clip0_865_12300">
<rect width="24" height="24" fill="white"/>
</clipPath>
</defs>
</svg>
