<svg width="20" height="20" viewBox="0 0 20 20" fill="none" xmlns="http://www.w3.org/2000/svg">
<g clip-path="url(#clip0_1812_100162)">
<path d="M20 18.4375C20 19.3005 19.3005 20 18.4375 20H1.5625C0.699531 20 0 19.3005 0 18.4375V1.5625C0 0.699531 0.699531 0 1.5625 0H18.4375C19.3005 0 20 0.699531 20 1.5625V18.4375Z" fill="#FFE812"/>
<path d="M10 2.8125C5.51266 2.8125 1.875 5.6807 1.875 9.21875C1.875 11.5062 3.39578 13.5133 5.68344 14.6466C5.55898 15.0759 4.88367 17.4079 4.8568 17.5911C4.8568 17.5911 4.84063 17.7287 4.92977 17.7812C5.01891 17.8337 5.12375 17.793 5.12375 17.793C5.37937 17.7573 8.08805 15.8546 8.55688 15.5242C9.02523 15.5905 9.5075 15.625 10 15.625C14.4873 15.625 18.125 12.7569 18.125 9.21875C18.125 5.6807 14.4873 2.8125 10 2.8125Z" fill="black"/>
<path d="M5.50781 11.4551C5.2493 11.4551 5.03906 11.2543 5.03906 11.0074V8.22266H4.30766C4.05398 8.22266 3.84766 8.01672 3.84766 7.76367C3.84766 7.51062 4.05406 7.30469 4.30766 7.30469H6.70797C6.96164 7.30469 7.16797 7.51062 7.16797 7.76367C7.16797 8.01672 6.96156 8.22266 6.70797 8.22266H5.97656V11.0074C5.97656 11.2543 5.76633 11.4551 5.50781 11.4551ZM9.61813 11.449C9.42266 11.449 9.27313 11.3696 9.22805 11.242L8.99594 10.6343L7.56656 10.6342L7.3343 11.2423C7.28938 11.3697 7.13992 11.449 6.94445 11.449C6.84164 11.4491 6.74 11.427 6.64648 11.3843C6.51727 11.3247 6.39305 11.1608 6.53539 10.7187L7.65664 7.76742C7.73563 7.54297 7.97555 7.31172 8.28086 7.30477C8.58703 7.31164 8.82695 7.54297 8.90609 7.76789L10.0269 10.7178C10.1695 11.1609 10.0453 11.3249 9.91609 11.3844C9.82255 11.427 9.72093 11.4491 9.61813 11.449ZM8.74945 9.80398L8.28125 8.47391L7.81305 9.80398H8.74945ZM10.7813 11.3867C10.5335 11.3867 10.332 11.1939 10.332 10.957V7.77344C10.332 7.51492 10.5467 7.30469 10.8105 7.30469C11.0744 7.30469 11.2891 7.51492 11.2891 7.77344V10.5273H12.2852C12.5329 10.5273 12.7344 10.7202 12.7344 10.957C12.7344 11.1939 12.5329 11.3867 12.2852 11.3867H10.7813ZM13.3855 11.449C13.127 11.449 12.9167 11.2387 12.9167 10.9802V7.77344C12.9167 7.51492 13.127 7.30469 13.3855 7.30469C13.644 7.30469 13.8542 7.51492 13.8542 7.77344V8.78094L15.162 7.47312C15.2293 7.40586 15.3217 7.36883 15.422 7.36883C15.5391 7.36883 15.6566 7.4193 15.7446 7.50727C15.8267 7.5893 15.8757 7.69484 15.8824 7.80445C15.8892 7.915 15.8524 8.01633 15.779 8.08984L14.7108 9.15789L15.8646 10.6865C15.9019 10.7355 15.929 10.7915 15.9445 10.8511C15.9599 10.9107 15.9634 10.9728 15.9546 11.0337C15.9463 11.0947 15.9259 11.1535 15.8947 11.2065C15.8634 11.2596 15.822 11.306 15.7727 11.3429C15.6917 11.4045 15.5926 11.4377 15.4908 11.4375C15.4182 11.4378 15.3465 11.4212 15.2814 11.3888C15.2164 11.3564 15.1599 11.3093 15.1163 11.2512L14.017 9.79461L13.8544 9.95727V10.98C13.8542 11.1043 13.8048 11.2235 13.7169 11.3114C13.629 11.3994 13.5098 11.4488 13.3855 11.449Z" fill="#FFE812"/>
</g>
<defs>
<clipPath id="clip0_1812_100162">
<rect width="20" height="20" rx="6" fill="white"/>
</clipPath>
</defs>
</svg>
