<svg width="20" height="20" viewBox="0 0 20 20" fill="none" xmlns="http://www.w3.org/2000/svg">
<path d="M0 16.749C0 14.5526 2.09529 6.35844 6.42743 0.867493C3.36944 6.64003 1.59059 10.5486 2.8881 13.5952C3.90742 15.9887 9.14564 15.2284 11.9771 14.271C6.93709 16.5519 1.76495 16.8616 0 16.749Z" fill="#C1272D"/>
<path d="M9.38372 0.625C11.2964 1.72319 17.3844 7.62486 20 14.1014C16.5021 8.58144 13.9879 5.09513 10.6861 4.68928C8.09208 4.37043 6.13505 9.26202 5.55304 12.1793C6.08683 6.69817 8.40317 2.08875 9.38372 0.625Z" fill="#C1272D"/>
<path d="M18.7766 16.7297C16.864 17.8279 8.68068 20.1205 1.73297 19.1348C8.28881 18.8823 12.5819 18.4601 14.5862 15.8192C16.1609 13.7446 12.8797 9.6133 10.6302 7.65338C15.1365 10.8537 17.9923 15.1534 18.7766 16.7297Z" fill="#C1272D"/>
</svg>
