<svg width="49" height="48" viewBox="0 0 49 48" fill="none" xmlns="http://www.w3.org/2000/svg">
<g clip-path="url(#clip0_48_60544)">
<path d="M37.7667 9.68245C37.3185 10.757 36.7447 11.7748 36.0572 12.7144C34.5564 11.2074 32.771 10.0137 30.8047 9.20278C28.8385 8.39188 26.7306 7.97995 24.6037 7.99094C22.4769 8.00193 20.3734 8.43562 18.4156 9.26679C16.4579 10.098 14.6848 11.31 13.1997 12.8325C11.7145 14.3551 10.5469 16.1576 9.76455 18.1354C8.98225 20.1132 8.60092 22.2268 8.64275 24.3533C8.68458 26.4798 9.14872 28.5768 10.0082 30.5223C10.8677 32.4678 12.1053 34.223 13.6492 35.6859L14.2422 36.2094C16.5051 38.1162 19.2515 39.3598 22.1773 39.8027C25.1031 40.2455 28.0945 39.8704 30.8203 38.7187C33.5462 37.567 35.9003 35.6837 37.6223 33.2772C39.3443 30.8706 40.367 28.0346 40.5772 25.0829C41.0147 20.9979 39.8152 15.8279 37.7672 9.68295L37.7667 9.68245ZM15.9317 35.7789C15.761 35.9899 15.5314 36.1455 15.2722 36.2261C15.013 36.3066 14.7358 36.3084 14.4755 36.2313C14.2153 36.1542 13.9837 36.0017 13.8102 35.7929C13.6367 35.5842 13.529 35.3287 13.5007 35.0588C13.4724 34.7888 13.5248 34.5165 13.6513 34.2764C13.7778 34.0362 13.9727 33.839 14.2114 33.7096C14.45 33.5803 14.7216 33.5246 14.9919 33.5497C15.2622 33.5748 15.5189 33.6794 15.7297 33.8504C16.012 34.0795 16.1919 34.4113 16.2298 34.7729C16.2676 35.1345 16.1604 35.4963 15.9317 35.7789ZM37.7007 30.9739C33.7407 36.2489 25.2857 34.4689 19.8647 34.7249C19.8647 34.7249 18.9037 34.7814 17.9362 34.9399C17.9362 34.9399 18.3012 34.7849 18.7677 34.6084C22.5747 33.2834 24.3742 33.0284 26.6867 31.8384C31.0407 29.6249 35.3477 24.7774 36.2427 19.7384C34.5862 24.5859 29.5562 28.7544 24.9777 30.4474C21.8397 31.6039 16.1707 32.7304 16.1707 32.7304L15.9422 32.6079C12.0852 30.7329 11.9662 22.3794 18.9807 19.6854C22.0522 18.5024 24.9907 19.1519 28.3077 18.3604C31.8497 17.5189 35.9477 14.8654 37.6152 11.4024C39.4802 16.9424 41.7272 25.6134 37.6982 30.9774L37.7007 30.9739Z" fill="#68BD45"/>
</g>
<defs>
<clipPath id="clip0_48_60544">
<rect width="32" height="32" fill="white" transform="translate(8.6665 8)"/>
</clipPath>
</defs>
</svg>
