<svg viewBox="0 0 256 256" fill="none" xmlns="http://www.w3.org/2000/svg">
  <path
    d="M154.667 213.441V218.65C154.667 226.023 148.697 232 141.333 232C139.044 232 136.792 231.41 134.797 230.286L54.7965 185.229C50.5982 182.865 48 178.417 48 173.594V82.4088C48 77.5858 50.5982 73.1377 54.7965 70.7732L134.797 25.7168C141.215 22.1021 149.344 24.3813 152.954 30.8074C154.077 32.8057 154.667 35.0597 154.667 37.3524V42.561L164.169 39.7068C171.222 37.5882 178.655 41.5956 180.771 48.6577C181.144 49.9022 181.333 51.1945 181.333 52.4938V57.9135L193.013 56.4517C200.32 55.5372 206.984 60.7267 207.897 68.0428C207.966 68.5921 208 69.1451 208 69.6987V186.304C208 193.677 202.03 199.654 194.667 199.654C194.114 199.654 193.561 199.619 193.013 199.551L181.333 198.089V203.509C181.333 210.882 175.364 216.859 168 216.859C166.702 216.859 165.412 216.669 164.169 216.296L154.667 213.441ZM154.667 199.504L168 203.509V52.4938L154.667 56.4988V199.504ZM181.333 71.3674V184.635L194.667 186.304V69.6987L181.333 71.3674ZM61.3333 82.4088V173.594L141.333 218.65V37.3524L61.3333 82.4088ZM74.6667 91.2886L88 84.6136V171.389L74.6667 164.714V91.2886Z"
    fill="black" />
</svg>
