<svg width="40" height="40" viewBox="0 0 40 40" fill="none" xmlns="http://www.w3.org/2000/svg">
<g clip-path="url(#clip0_9693_18475)">
<path d="M25.1347 36.431L25.1347 37.4327C25.1347 38.8506 23.9853 40 22.5674 40C22.1265 40 21.693 39.8865 21.3087 39.6703L5.90485 31.0056C5.09646 30.5509 4.59619 29.6955 4.59619 28.768L4.59619 11.2325C4.59619 10.305 5.09646 9.44957 5.90485 8.99485L21.3087 0.330161C22.5445 -0.364975 24.1099 0.0733181 24.805 1.30912C25.0212 1.6934 25.1347 2.12687 25.1347 2.56777L25.1347 3.56941L26.9643 3.02053C28.3224 2.61311 29.7536 3.38377 30.1611 4.74186C30.2329 4.98119 30.2693 5.22971 30.2693 5.47958L30.2693 6.52183L32.5182 6.24072C33.9252 6.06485 35.2083 7.06283 35.3841 8.46977C35.3973 8.5754 35.404 8.68175 35.404 8.78821L35.404 31.2123C35.404 32.6301 34.2545 33.7796 32.8366 33.7796C32.7302 33.7796 32.6238 33.7729 32.5182 33.7597L30.2693 33.4786L30.2693 34.5209C30.2693 35.9388 29.1199 37.0882 27.702 37.0882C27.4522 37.0882 27.2036 37.0517 26.9643 36.9799L25.1347 36.431ZM25.1347 33.7507L27.702 34.5209L27.702 5.47958L25.1347 6.24977L25.1347 33.7507ZM30.2693 9.10912L30.2693 30.8913L32.8366 31.2123L32.8366 8.78821L30.2693 9.10912ZM7.16351 11.2325L7.16351 28.768L22.5674 37.4327L22.5674 2.56777L7.16351 11.2325ZM9.73082 12.9401L12.2981 11.6565L12.2981 28.344L9.73082 27.0603L9.73082 12.9401Z" fill="black"/>
</g>
<defs>
<clipPath id="clip0_9693_18475">
<rect width="40" height="40" fill="white"/>
</clipPath>
</defs>
</svg>
