<svg width="128" height="30" viewBox="0 0 128 30" fill="none" xmlns="http://www.w3.org/2000/svg">
<rect x="5.18188" y="24" width="3.75" height="3.75" rx="1.875" transform="rotate(35.5802 5.18188 24)" fill="#FAABFF"/>
<path fill-rule="evenodd" clip-rule="evenodd" d="M2.5 5C3.88071 5 5 3.88071 5 2.5C5 1.11929 3.88071 0 2.5 0C1.11929 0 0 1.11929 0 2.5C0 3.88071 1.11929 5 2.5 5ZM2.5 3.75C3.19036 3.75 3.75 3.19036 3.75 2.5C3.75 1.80964 3.19036 1.25 2.5 1.25C1.80964 1.25 1.25 1.80964 1.25 2.5C1.25 3.19036 1.80964 3.75 2.5 3.75Z" fill="#FFB95A"/>
<path fill-rule="evenodd" clip-rule="evenodd" d="M89.1875 10.2187C90.223 10.2187 91.0625 9.37928 91.0625 8.34375C91.0625 7.30822 90.223 6.46875 89.1875 6.46875C88.152 6.46875 87.3125 7.30822 87.3125 8.34375C87.3125 9.37928 88.152 10.2187 89.1875 10.2187ZM89.1875 9.28125C89.7053 9.28125 90.125 8.86152 90.125 8.34375C90.125 7.82598 89.7053 7.40625 89.1875 7.40625C88.6697 7.40625 88.25 7.82598 88.25 8.34375C88.25 8.86152 88.6697 9.28125 89.1875 9.28125Z" fill="#ADAAB4"/>
<path d="M121.213 12.5728L120.573 9.99942C120.22 8.57821 121.086 7.13969 122.507 6.78639V6.78639C123.928 6.4331 124.794 4.99458 124.441 3.57337L123.801 1.00003" stroke="#AF9EFF" stroke-width="1.875" stroke-linecap="round" stroke-linejoin="round"/>
</svg>
