<svg width="20" height="20" viewBox="0 0 20 20" fill="none" xmlns="http://www.w3.org/2000/svg">
<path fill-rule="evenodd" clip-rule="evenodd" d="M19.6 10.2274C19.6 9.51831 19.5364 8.83649 19.4182 8.18195H10V12.0501H15.3818C15.15 13.3001 14.4455 14.3592 13.3864 15.0683V17.5774H16.6182C18.5091 15.8365 19.6 13.2729 19.6 10.2274Z" fill="#4285F4"/>
<path fill-rule="evenodd" clip-rule="evenodd" d="M9.99996 19.9998C12.7 19.9998 14.9636 19.1044 16.6181 17.5771L13.3863 15.068C12.4909 15.668 11.3454 16.0226 9.99996 16.0226C7.39542 16.0226 5.19087 14.2635 4.40451 11.8998H1.0636V14.4908C2.70905 17.7589 6.09087 19.9998 9.99996 19.9998Z" fill="#34A853"/>
<path fill-rule="evenodd" clip-rule="evenodd" d="M4.40455 11.8999C4.20455 11.2999 4.09091 10.659 4.09091 9.99994C4.09091 9.34085 4.20455 8.69994 4.40455 8.09994V5.50903H1.06364C0.386364 6.85903 0 8.38631 0 9.99994C0 11.6136 0.386364 13.1409 1.06364 14.4909L4.40455 11.8999Z" fill="#FBBC05"/>
<path fill-rule="evenodd" clip-rule="evenodd" d="M9.99996 3.97727C11.4681 3.97727 12.7863 4.48182 13.8227 5.47273L16.6909 2.60455C14.9591 0.990909 12.6954 0 9.99996 0C6.09087 0 2.70905 2.24091 1.0636 5.50909L4.40451 8.1C5.19087 5.73636 7.39542 3.97727 9.99996 3.97727Z" fill="#EA4335"/>
</svg>
