<svg width="20" height="20" viewBox="0 0 20 20" fill="none" xmlns="http://www.w3.org/2000/svg">
<path d="M15.4567 10.6254C15.4655 9.86 15.6684 9.10939 16.0465 8.44382C16.4245 7.77825 16.9652 7.2195 17.6181 6.8199C17.2031 6.22905 16.6568 5.74242 16.0221 5.39821C15.3874 5.05401 14.6816 4.86159 13.9601 4.83606C12.4024 4.67816 10.9207 5.753 10.1315 5.753C9.34171 5.753 8.12245 4.85925 6.8306 4.88391C5.98278 4.90749 5.15562 5.15091 4.43017 5.59032C3.70472 6.02974 3.10587 6.65008 2.69229 7.39057C0.929897 10.4508 2.24244 14.9843 3.95993 17.4673C4.80038 18.6812 5.8022 20.0485 7.11769 19.9987C8.38539 19.9489 8.86385 19.1799 10.3944 19.1799C11.9254 19.1799 12.356 19.9987 13.6952 19.974C15.0581 19.9488 15.9232 18.735 16.7569 17.5166C17.3535 16.6404 17.8197 15.6823 18.1409 14.6721C17.3474 14.3332 16.6704 13.7694 16.1934 13.0503C15.7164 12.3312 15.4603 11.4883 15.4567 10.6254ZM12.9398 3.1933C13.6947 2.308 14.0686 1.16004 13.9801 0C12.8405 0.110543 11.7864 0.652885 11.034 1.51581C10.6585 1.93385 10.3711 2.42321 10.1888 2.95471C10.0065 3.48621 9.93309 4.04897 9.97295 4.60944C10.5431 4.61731 11.1073 4.49364 11.6219 4.24804C12.1364 4.00243 12.5874 3.64151 12.9398 3.1933Z" fill="black"/>
</svg>
