<svg width="40" height="40" viewBox="0 0 40 40" fill="none" xmlns="http://www.w3.org/2000/svg">
<path d="M0 8C0 3.58172 3.58172 0 8 0H32C36.4183 0 40 3.58172 40 8V32C40 36.4183 36.4183 40 32 40H8C3.58172 40 0 36.4183 0 32V8Z" fill="#3A3B59"/>
<mask id="path-1-inside-1_274_11096" fill="white">
<path fill-rule="evenodd" clip-rule="evenodd" d="M18.7808 6C18.3219 6 17.9219 6.3123 17.8106 6.75746L17 10L20 11L23 10L22.1894 6.75746C22.0781 6.3123 21.6781 6 21.2192 6H18.7808ZM18.7808 34C18.3219 34 17.9219 33.6877 17.8106 33.2425L17 30L20 29L23 30L22.1894 33.2425C22.0781 33.6877 21.6781 34 21.2192 34H18.7808Z"/>
</mask>
<path d="M17.8106 6.75746L16.8405 6.51493H16.8405L17.8106 6.75746ZM17 10L16.0299 9.75746L15.8053 10.6558L16.6838 10.9487L17 10ZM20 11L19.6838 11.9487L20 12.0541L20.3162 11.9487L20 11ZM23 10L23.3162 10.9487L24.1947 10.6558L23.9701 9.75746L23 10ZM22.1894 6.75746L21.2192 7L21.2192 7L22.1894 6.75746ZM17.8106 33.2425L16.8405 33.4851H16.8405L17.8106 33.2425ZM17 30L16.6838 29.0513L15.8053 29.3442L16.0299 30.2425L17 30ZM20 29L20.3162 28.0513L20 27.9459L19.6838 28.0513L20 29ZM23 30L23.9701 30.2425L24.1947 29.3442L23.3162 29.0513L23 30ZM18.7808 7L18.7808 7V5C17.863 5 17.0631 5.62459 16.8405 6.51493L18.7808 7ZM17.9701 10.2425L18.7808 7L16.8405 6.51493L16.0299 9.75746L17.9701 10.2425ZM20.3162 10.0513L17.3162 9.05132L16.6838 10.9487L19.6838 11.9487L20.3162 10.0513ZM22.6838 9.05132L19.6838 10.0513L20.3162 11.9487L23.3162 10.9487L22.6838 9.05132ZM21.2192 7L22.0299 10.2425L23.9701 9.75746L23.1595 6.51493L21.2192 7ZM21.2192 7L21.2192 7L23.1595 6.51493C22.9369 5.62459 22.137 5 21.2192 5V7ZM18.7808 7H21.2192V5H18.7808V7ZM16.8405 33.4851C17.0631 34.3754 17.863 35 18.7808 35V33L16.8405 33.4851ZM16.0299 30.2425L16.8405 33.4851L18.7808 33L17.9701 29.7575L16.0299 30.2425ZM19.6838 28.0513L16.6838 29.0513L17.3162 30.9487L20.3162 29.9487L19.6838 28.0513ZM23.3162 29.0513L20.3162 28.0513L19.6838 29.9487L22.6838 30.9487L23.3162 29.0513ZM23.1595 33.4851L23.9701 30.2425L22.0299 29.7575L21.2192 33L23.1595 33.4851ZM21.2192 35C22.137 35 22.9369 34.3754 23.1595 33.4851L21.2192 33V35ZM18.7808 35H21.2192V33H18.7808V35Z" fill="#F4A6FE" mask="url(#path-1-inside-1_274_11096)"/>
<mask id="path-3-inside-2_274_11096" fill="white">
<path fill-rule="evenodd" clip-rule="evenodd" d="M9.23833 10.9626C8.91386 11.2871 8.85185 11.7908 9.08794 12.1842L10.8076 15.0503L14 14L15.0502 10.8076L12.1842 9.088C11.7907 8.85192 11.287 8.91392 10.9626 9.23839L9.23833 10.9626ZM29.0373 30.7616C28.7128 31.0861 28.2092 31.1481 27.8157 30.912L24.9497 29.1924L26 26.0001L29.1923 24.9498L30.9119 27.8158C31.148 28.2093 31.086 28.7129 30.7616 29.0374L29.0373 30.7616Z"/>
</mask>
<path d="M9.08794 12.1842L8.23045 12.6987L8.23045 12.6987L9.08794 12.1842ZM9.23833 10.9626L9.94543 11.6697L9.23833 10.9626ZM10.8076 15.0503L9.95006 15.5648L10.3611 16.2498L11.1201 16.0002L10.8076 15.0503ZM14 14L14.3125 14.9499L14.7921 14.7922L14.9499 14.3125L14 14ZM15.0502 10.8076L16.0001 11.1201L16.2498 10.3612L15.5647 9.95013L15.0502 10.8076ZM12.1842 9.088L11.6697 9.9455L11.6697 9.9455L12.1842 9.088ZM10.9626 9.23839L10.2555 8.53128L10.9626 9.23839ZM27.8157 30.912L27.3012 31.7695L27.3012 31.7695L27.8157 30.912ZM29.0373 30.7616L29.7444 31.4687L29.0373 30.7616ZM24.9497 29.1924L23.9998 28.8799L23.7501 29.6388L24.4352 30.0499L24.9497 29.1924ZM26 26.0001L25.6875 25.0502L25.2079 25.208L25.0501 25.6875L26 26.0001ZM29.1923 24.9498L30.0498 24.4353L29.6388 23.7501L28.8798 23.9998L29.1923 24.9498ZM30.9119 27.8158L31.7694 27.3013L30.9119 27.8158ZM30.7616 29.0374L30.0545 28.3303L30.7616 29.0374ZM9.94543 11.6697L9.94543 11.6697L8.53122 10.2555C7.88228 10.9045 7.75827 11.9118 8.23045 12.6987L9.94543 11.6697ZM11.665 14.5358L9.94543 11.6697L8.23045 12.6987L9.95006 15.5648L11.665 14.5358ZM13.6875 13.0501L10.4951 14.1003L11.1201 16.0002L14.3125 14.9499L13.6875 13.0501ZM14.1003 10.4951L13.0501 13.6875L14.9499 14.3125L16.0001 11.1201L14.1003 10.4951ZM11.6697 9.9455L14.5357 11.6651L15.5647 9.95013L12.6987 8.23051L11.6697 9.9455ZM11.6697 9.9455L11.6697 9.9455L12.6987 8.23051C11.9117 7.75834 10.9044 7.88235 10.2555 8.53128L11.6697 9.9455ZM9.94543 11.6697L11.6697 9.9455L10.2555 8.53128L8.53122 10.2555L9.94543 11.6697ZM27.3012 31.7695C28.0882 32.2417 29.0955 32.1177 29.7444 31.4687L28.3302 30.0545L27.3012 31.7695ZM24.4352 30.0499L27.3012 31.7695L28.3302 30.0545L25.4642 28.3349L24.4352 30.0499ZM25.0501 25.6875L23.9998 28.8799L25.8996 29.5049L26.9499 26.3126L25.0501 25.6875ZM28.8798 23.9998L25.6875 25.0502L26.3126 26.95L29.5049 25.8997L28.8798 23.9998ZM31.7694 27.3013L30.0498 24.4353L28.3348 25.4642L30.0545 28.3303L31.7694 27.3013ZM31.4687 29.7445C32.1176 29.0956 32.2416 28.0882 31.7694 27.3013L30.0545 28.3303L31.4687 29.7445ZM29.7444 31.4687L31.4687 29.7445L30.0545 28.3303L28.3302 30.0545L29.7444 31.4687Z" fill="#F4A6FE" mask="url(#path-3-inside-2_274_11096)"/>
<mask id="path-5-inside-3_274_11096" fill="white">
<path fill-rule="evenodd" clip-rule="evenodd" d="M30.7616 10.9626C31.086 11.2871 31.148 11.7907 30.9119 12.1842L29.1923 15.0502L26 14L24.9497 10.8076L27.8157 9.08797C28.2092 8.85189 28.7128 8.91389 29.0373 9.23836L30.7616 10.9626ZM10.9626 30.7616C11.287 31.0861 11.7907 31.1481 12.1842 30.912L15.0502 29.1924L14 26L10.8075 24.9497L9.08793 27.8157C8.85185 28.2092 8.91385 28.7129 9.23832 29.0373L10.9626 30.7616Z"/>
</mask>
<path d="M30.9119 12.1842L31.7694 12.6987L31.7694 12.6987L30.9119 12.1842ZM30.7616 10.9626L30.0544 11.6697L30.7616 10.9626ZM29.1923 15.0502L30.0498 15.5647L29.6388 16.2498L28.8798 16.0001L29.1923 15.0502ZM26 14L25.6875 14.9499L25.2079 14.7921L25.0501 14.3125L26 14ZM24.9497 10.8076L23.9998 11.1201L23.7501 10.3612L24.4352 9.9501L24.9497 10.8076ZM27.8157 9.08797L28.3302 9.94547L28.3302 9.94547L27.8157 9.08797ZM29.0373 9.23836L29.7444 8.53125L29.0373 9.23836ZM12.1842 30.912L12.6987 31.7695L12.6987 31.7695L12.1842 30.912ZM10.9626 30.7616L10.2555 31.4687L10.9626 30.7616ZM15.0502 29.1924L16.0001 28.8799L16.2498 29.6388L15.5647 30.0499L15.0502 29.1924ZM14 26L14.3125 25.0501L14.7921 25.2079L14.9499 25.6875L14 26ZM10.8075 24.9497L9.95006 24.4352L10.3611 23.7501L11.1201 23.9998L10.8075 24.9497ZM9.08793 27.8157L8.23044 27.3013L9.08793 27.8157ZM9.23832 29.0373L9.94543 28.3302L9.23832 29.0373ZM30.0544 11.6697L30.0544 11.6697L31.4687 10.2555C32.1176 10.9044 32.2416 11.9117 31.7694 12.6987L30.0544 11.6697ZM28.3348 14.5357L30.0544 11.6697L31.7694 12.6987L30.0498 15.5647L28.3348 14.5357ZM26.3125 13.0501L29.5048 14.1003L28.8798 16.0001L25.6875 14.9499L26.3125 13.0501ZM25.8996 10.4951L26.9499 13.6875L25.0501 14.3125L23.9998 11.1201L25.8996 10.4951ZM28.3302 9.94547L25.4642 11.6651L24.4352 9.9501L27.3012 8.23048L28.3302 9.94547ZM28.3302 9.94547L28.3302 9.94547L27.3012 8.23048C28.0882 7.75831 29.0955 7.88232 29.7444 8.53125L28.3302 9.94547ZM30.0544 11.6697L28.3302 9.94547L29.7444 8.53125L31.4687 10.2555L30.0544 11.6697ZM12.6987 31.7695C11.9117 32.2416 10.9044 32.1176 10.2555 31.4687L11.6697 30.0545L12.6987 31.7695ZM15.5647 30.0499L12.6987 31.7695L11.6697 30.0545L14.5357 28.3349L15.5647 30.0499ZM14.9499 25.6875L16.0001 28.8799L14.1003 29.5049L13.05 26.3125L14.9499 25.6875ZM11.1201 23.9998L14.3125 25.0501L13.6874 26.9499L10.495 25.8996L11.1201 23.9998ZM8.23044 27.3013L9.95006 24.4352L11.665 25.4642L9.94543 28.3302L8.23044 27.3013ZM8.53121 29.7445C7.88228 29.0955 7.75827 28.0882 8.23044 27.3013L9.94543 28.3302L8.53121 29.7445ZM10.2555 31.4687L8.53121 29.7445L9.94543 28.3302L11.6697 30.0545L10.2555 31.4687Z" fill="#F4A6FE" mask="url(#path-5-inside-3_274_11096)"/>
<mask id="path-7-inside-4_274_11096" fill="white">
<path fill-rule="evenodd" clip-rule="evenodd" d="M6 21.2192C6 21.6781 6.3123 22.0781 6.75746 22.1894L10 23L11 20L10 17L6.75746 17.8106C6.3123 17.9219 6 18.3219 6 18.7808V21.2192ZM34 21.2192C34 21.6781 33.6877 22.0781 33.2425 22.1894L30 23L29 20L30 17L33.2425 17.8106C33.6877 17.9219 34 18.3219 34 18.7808V21.2192Z"/>
</mask>
<path d="M6.75746 22.1894L6.51493 23.1595V23.1595L6.75746 22.1894ZM10 23L9.75746 23.9701L10.6558 24.1947L10.9487 23.3162L10 23ZM11 20L11.9487 20.3162L12.0541 20L11.9487 19.6838L11 20ZM10 17L10.9487 16.6838L10.6558 15.8053L9.75746 16.0299L10 17ZM6.75746 17.8106L7 18.7808L7 18.7808L6.75746 17.8106ZM33.2425 22.1894L33.4851 23.1595V23.1595L33.2425 22.1894ZM30 23L29.0513 23.3162L29.3442 24.1947L30.2425 23.9701L30 23ZM29 20L28.0513 19.6838L27.9459 20L28.0513 20.3162L29 20ZM30 17L30.2425 16.0299L29.3442 15.8053L29.0513 16.6838L30 17ZM7 21.2192L7 21.2192H5C5 22.137 5.62459 22.9369 6.51493 23.1595L7 21.2192ZM10.2425 22.0299L7 21.2192L6.51493 23.1595L9.75746 23.9701L10.2425 22.0299ZM10.0513 19.6838L9.05132 22.6838L10.9487 23.3162L11.9487 20.3162L10.0513 19.6838ZM9.05132 17.3162L10.0513 20.3162L11.9487 19.6838L10.9487 16.6838L9.05132 17.3162ZM7 18.7808L10.2425 17.9701L9.75746 16.0299L6.51493 16.8405L7 18.7808ZM7 18.7808L7 18.7808L6.51493 16.8405C5.62459 17.0631 5 17.863 5 18.7808H7ZM7 21.2192V18.7808H5V21.2192H7ZM33.4851 23.1595C34.3754 22.9369 35 22.137 35 21.2192H33L33.4851 23.1595ZM30.2425 23.9701L33.4851 23.1595L33 21.2192L29.7575 22.0299L30.2425 23.9701ZM28.0513 20.3162L29.0513 23.3162L30.9487 22.6838L29.9487 19.6838L28.0513 20.3162ZM29.0513 16.6838L28.0513 19.6838L29.9487 20.3162L30.9487 17.3162L29.0513 16.6838ZM33.4851 16.8405L30.2425 16.0299L29.7575 17.9701L33 18.7808L33.4851 16.8405ZM35 18.7808C35 17.863 34.3754 17.0631 33.4851 16.8405L33 18.7808H35ZM35 21.2192V18.7808H33V21.2192H35Z" fill="#F4A6FE" mask="url(#path-7-inside-4_274_11096)"/>
<path fill-rule="evenodd" clip-rule="evenodd" d="M20 31C26.0751 31 31 26.0751 31 20C31 13.9249 26.0751 9 20 9C13.9249 9 9 13.9249 9 20C9 26.0751 13.9249 31 20 31ZM20 27C23.866 27 27 23.866 27 20C27 16.134 23.866 13 20 13C16.134 13 13 16.134 13 20C13 23.866 16.134 27 20 27Z" fill="url(#paint0_linear_274_11096)"/>
<rect x="15" y="18" width="1" height="1" fill="#F0DAFF"/>
<rect x="14" y="18" width="1" height="1" fill="#F0DAFF"/>
<rect x="14" y="19" width="1" height="1" fill="#F0DAFF"/>
<rect x="14" y="20" width="1" height="1" fill="#F0DAFF"/>
<rect x="15" y="20" width="1" height="1" fill="#F0DAFF"/>
<rect x="16" y="20" width="1" height="1" fill="#F0DAFF"/>
<rect x="14" y="21" width="1" height="1" fill="#F0DAFF"/>
<rect x="16" y="18" width="1" height="1" fill="#F0DAFF"/>
<rect x="17" y="18" width="1" height="1" fill="#F0DAFF"/>
<rect x="19" y="18" width="1" height="1" fill="#F0DAFF"/>
<rect x="20" y="18" width="1" height="1" fill="#F0DAFF"/>
<rect x="21" y="18" width="1" height="1" fill="#F0DAFF"/>
<rect x="22" y="18" width="1" height="1" fill="#F0DAFF"/>
<rect x="22" y="19" width="1" height="1" fill="#F0DAFF"/>
<rect x="24" y="19" width="1" height="1" fill="#F0DAFF"/>
<rect x="24" y="20" width="1" height="1" fill="#F0DAFF"/>
<rect x="24" y="21" width="1" height="1" fill="#F0DAFF"/>
<rect x="24" y="18" width="1" height="1" fill="#F0DAFF"/>
<rect x="22" y="20" width="1" height="1" fill="#F0DAFF"/>
<rect x="21" y="20" width="1" height="1" fill="#F0DAFF"/>
<rect x="20" y="20" width="1" height="1" fill="#F0DAFF"/>
<rect x="19" y="21" width="1" height="1" fill="#F0DAFF"/>
<rect x="19" y="20" width="1" height="1" fill="#F0DAFF"/>
<rect x="19" y="19" width="1" height="1" fill="#F0DAFF"/>
<rect x="17" y="19" width="1" height="1" fill="#F0DAFF"/>
<rect x="17" y="20" width="1" height="1" fill="#F0DAFF"/>
<rect x="17" y="21" width="1" height="1" fill="#F0DAFF"/>
<defs>
<linearGradient id="paint0_linear_274_11096" x1="7.19286" y1="21.6042" x2="30.7074" y2="12.9219" gradientUnits="userSpaceOnUse">
<stop stop-color="#614DDD"/>
<stop offset="1" stop-color="#D47AFE"/>
</linearGradient>
</defs>
</svg>
