  <svg
    width="20"
    height="20"
    viewBox="0 0 20 20"
    fill="none"
    xmlns="http://www.w3.org/2000/svg"
    
  >
    <path
      d="M14.7578 9.41199L10.5912 5.24532C10.5119 5.16946 10.4185 5.10999 10.3162 5.07032C10.1133 4.98698 9.88572 4.98698 9.68284 5.07032C9.58054 5.10999 9.48709 5.16946 9.40784 5.24532L5.24117 9.41199C5.16347 9.48969 5.10184 9.58193 5.05979 9.68345C5.01774 9.78497 4.99609 9.89377 4.99609 10.0037C4.99609 10.2256 5.08425 10.4384 5.24117 10.5953C5.39809 10.7522 5.61092 10.8404 5.83284 10.8404C6.05475 10.8404 6.26758 10.7522 6.4245 10.5953L9.16617 7.84532V14.1703C9.16617 14.3913 9.25397 14.6033 9.41025 14.7596C9.56653 14.9159 9.77849 15.0037 9.9995 15.0037C10.2205 15.0037 10.4325 14.9159 10.5888 14.7596C10.745 14.6033 10.8328 14.3913 10.8328 14.1703V7.84532L13.5745 10.5953C13.652 10.6734 13.7441 10.7354 13.8457 10.7777C13.9472 10.82 14.0562 10.8418 14.1662 10.8418C14.2762 10.8418 14.3851 10.82 14.4867 10.7777C14.5882 10.7354 14.6804 10.6734 14.7578 10.5953C14.8359 10.5179 14.8979 10.4257 14.9402 10.3241C14.9826 10.2226 15.0043 10.1137 15.0043 10.0037C15.0043 9.89365 14.9826 9.78473 14.9402 9.68318C14.8979 9.58163 14.8359 9.48946 14.7578 9.41199Z"
      fill="currentColor"
    />
  </svg>
