  <svg
    width="20"
    height="20"
    viewBox="0 0 20 20"
    fill="none"
    xmlns="http://www.w3.org/2000/svg"
    
  >
    <path
      d="M14.7578 10.588L10.5912 14.7547C10.5119 14.8305 10.4185 14.89 10.3162 14.9297C10.1133 15.013 9.88572 15.013 9.68284 14.9297C9.58054 14.89 9.48709 14.8305 9.40784 14.7547L5.24117 10.588C5.16347 10.5103 5.10184 10.4181 5.05979 10.3166C5.01774 10.215 4.99609 10.1062 4.99609 9.99634C4.99609 9.77442 5.08425 9.5616 5.24117 9.40468C5.39809 9.24776 5.61092 9.1596 5.83284 9.1596C6.05475 9.1596 6.26758 9.24776 6.4245 9.40468L9.16617 12.1547V5.82968C9.16617 5.60866 9.25397 5.3967 9.41025 5.24042C9.56653 5.08414 9.77849 4.99634 9.9995 4.99634C10.2205 4.99634 10.4325 5.08414 10.5888 5.24042C10.745 5.3967 10.8328 5.60866 10.8328 5.82968V12.1547L13.5745 9.40468C13.652 9.32657 13.7441 9.26457 13.8457 9.22227C13.9472 9.17996 14.0562 9.15818 14.1662 9.15818C14.2762 9.15818 14.3851 9.17996 14.4867 9.22227C14.5882 9.26457 14.6804 9.32657 14.7578 9.40468C14.8359 9.48214 14.8979 9.57431 14.9402 9.67586C14.9826 9.77741 15.0043 9.88633 15.0043 9.99634C15.0043 10.1064 14.9826 10.2153 14.9402 10.3168C14.8979 10.4184 14.8359 10.5105 14.7578 10.588Z"
      fill="currentColor"
    />
  </svg>
