<svg width="578" height="649" viewBox="0 0 578 649" fill="none" xmlns="http://www.w3.org/2000/svg">
<g clip-path="url(#clip0_587_32496)">
<rect width="578" height="649" fill="#E5E1EC"/>
<g filter="url(#filter0_d_587_32496)">
<g clip-path="url(#clip1_587_32496)">
<rect x="163" y="52" width="251.693" height="545" rx="12" fill="white"/>
<path opacity="0.35" d="M389.159 65.4236C389.159 64.6205 389.81 63.9694 390.614 63.9694H401.8C402.603 63.9694 403.254 64.6205 403.254 65.4236V69.4507C403.254 70.2538 402.603 70.9049 401.8 70.9049H390.614C389.81 70.9049 389.159 70.2538 389.159 69.4507V65.4236Z" stroke="black" stroke-width="0.671182"/>
<path opacity="0.4" d="M404.261 66.0947V68.7795C404.801 68.5521 405.152 68.0231 405.152 67.4371C405.152 66.8511 404.801 66.3221 404.261 66.0947Z" fill="black"/>
<path d="M390.166 65.871C390.166 65.3767 390.567 64.9761 391.061 64.9761H401.352C401.847 64.9761 402.247 65.3767 402.247 65.871V69.0032C402.247 69.4974 401.847 69.8981 401.352 69.8981H391.061C390.567 69.8981 390.166 69.4974 390.166 69.0032V65.871Z" fill="black"/>
<path fill-rule="evenodd" clip-rule="evenodd" d="M380.32 65.1608C381.807 65.1609 383.238 65.7324 384.316 66.7571C384.397 66.8362 384.527 66.8352 384.607 66.7549L385.382 65.9718C385.423 65.9311 385.445 65.8759 385.445 65.8184C385.445 65.761 385.422 65.7061 385.381 65.6658C382.552 62.9545 378.088 62.9545 375.259 65.6658C375.218 65.706 375.195 65.7609 375.195 65.8184C375.194 65.8758 375.217 65.9311 375.257 65.9718L376.033 66.7549C376.113 66.8354 376.243 66.8364 376.324 66.7571C377.402 65.7323 378.833 65.1608 380.32 65.1608ZM380.32 67.7083C381.137 67.7083 381.925 68.012 382.531 68.5605C382.613 68.6384 382.742 68.6367 382.822 68.5567L383.597 67.7737C383.638 67.7326 383.66 67.6769 383.66 67.619C383.659 67.5611 383.635 67.5058 383.594 67.4656C381.749 65.7498 378.893 65.7498 377.048 67.4656C377.006 67.5058 376.983 67.5611 376.982 67.619C376.981 67.6769 377.004 67.7327 377.045 67.7737L377.82 68.5567C377.9 68.6367 378.029 68.6384 378.111 68.5605C378.716 68.0124 379.503 67.7087 380.32 67.7083ZM381.872 69.4226C381.874 69.4806 381.851 69.5366 381.809 69.5773L380.469 70.9302C380.43 70.9699 380.376 70.9923 380.32 70.9923C380.264 70.9923 380.211 70.9699 380.171 70.9302L378.83 69.5773C378.789 69.5366 378.766 69.4806 378.767 69.4225C378.769 69.3645 378.794 69.3095 378.837 69.2706C379.693 68.5464 380.947 68.5464 381.803 69.2706C381.846 69.3095 381.871 69.3645 381.872 69.4226Z" fill="black"/>
<path fill-rule="evenodd" clip-rule="evenodd" d="M371.149 63.8579H370.478C370.107 63.8579 369.807 64.1584 369.807 64.5291V70.346C369.807 70.7167 370.107 71.0172 370.478 71.0172H371.149C371.52 71.0172 371.82 70.7167 371.82 70.346V64.5291C371.82 64.1584 371.52 63.8579 371.149 63.8579ZM367.346 65.4241H368.017C368.388 65.4241 368.688 65.7246 368.688 66.0953V70.3461C368.688 70.7168 368.388 71.0173 368.017 71.0173H367.346C366.975 71.0173 366.675 70.7168 366.675 70.3461V66.0953C366.675 65.7246 366.975 65.4241 367.346 65.4241ZM364.885 66.99H364.214C363.843 66.99 363.542 67.2905 363.542 67.6612V70.3459C363.542 70.7166 363.843 71.0171 364.214 71.0171H364.885C365.256 71.0171 365.556 70.7166 365.556 70.3459V67.6612C365.556 67.2905 365.256 66.99 364.885 66.99ZM361.753 68.3323H361.082C360.711 68.3323 360.41 68.6328 360.41 69.0035V70.3459C360.41 70.7166 360.711 71.0171 361.082 71.0171H361.753C362.123 71.0171 362.424 70.7166 362.424 70.3459V69.0035C362.424 68.6328 362.123 68.3323 361.753 68.3323Z" fill="black"/>
<path d="M188.049 70.9651C189.853 70.9651 190.925 69.5543 190.925 67.1651C190.925 66.2655 190.753 65.5085 190.423 64.9235C189.946 64.014 189.126 63.5225 188.088 63.5225C186.545 63.5225 185.453 64.5597 185.453 66.0148C185.453 67.3814 186.437 68.3744 187.788 68.3744C188.619 68.3744 189.293 67.9861 189.627 67.3126H189.642C189.642 67.3126 189.661 67.3126 189.666 67.3126C189.676 67.3126 189.711 67.3126 189.711 67.3126C189.711 68.9349 189.096 69.9033 188.059 69.9033C187.449 69.9033 186.977 69.569 186.815 69.0332H185.552C185.763 70.1982 186.751 70.9651 188.049 70.9651ZM188.093 67.3667C187.277 67.3667 186.697 66.7866 186.697 65.9755C186.697 65.184 187.307 64.5794 188.098 64.5794C188.89 64.5794 189.499 65.1939 189.499 65.9952C189.499 66.7866 188.904 67.3667 188.093 67.3667Z" fill="black"/>
<path d="M192.999 70.8963C193.466 70.8963 193.786 70.562 193.786 70.1196C193.786 69.6722 193.466 69.3429 192.999 69.3429C192.537 69.3429 192.213 69.6722 192.213 70.1196C192.213 70.562 192.537 70.8963 192.999 70.8963ZM192.999 67.2094C193.466 67.2094 193.786 66.88 193.786 66.4376C193.786 65.9902 193.466 65.6609 192.999 65.6609C192.537 65.6609 192.213 65.9902 192.213 66.4376C192.213 66.88 192.537 67.2094 192.999 67.2094Z" fill="black"/>
<path d="M198.387 70.7931H199.602V69.4707H200.56V68.399H199.602V63.6994H197.812C196.559 65.5871 195.561 67.1651 194.922 68.34V69.4707H198.387V70.7931ZM196.097 68.3548C196.923 66.8997 197.66 65.7346 198.338 64.7318H198.407V68.4285H196.097V68.3548Z" fill="black"/>
<path d="M203.264 70.7931H204.533V63.6994H203.269L201.416 64.9972V66.2164L203.181 64.9776H203.264V70.7931Z" fill="black"/>
<path d="M232 104C230.293 104 228.602 104.336 227.025 104.99C225.448 105.643 224.015 106.6 222.808 107.808C221.6 109.015 220.643 110.448 219.99 112.025C219.336 113.602 219 115.293 219 117C219 118.707 219.336 120.398 219.99 121.975C220.643 123.552 221.6 124.985 222.808 126.192C224.015 127.4 225.448 128.357 227.025 129.01C228.602 129.664 230.293 130 232 130V123.5C231.146 123.5 230.301 123.332 229.513 123.005C228.724 122.679 228.007 122.2 227.404 121.596C226.8 120.993 226.321 120.276 225.995 119.487C225.668 118.699 225.5 117.854 225.5 117C225.5 116.146 225.668 115.301 225.995 114.513C226.321 113.724 226.8 113.007 227.404 112.404C228.007 111.8 228.724 111.321 229.513 110.995C230.301 110.668 231.146 110.5 232 110.5V104Z" fill="#5D34F2"/>
<path d="M232 121.333C234.393 121.333 236.333 119.393 236.333 117C236.333 114.607 234.393 112.667 232 112.667C229.607 112.667 227.667 114.607 227.667 117C227.667 119.393 229.607 121.333 232 121.333Z" fill="#5D34F2"/>
<path d="M219 117C219 118.707 219.336 120.398 219.99 121.975C220.643 123.552 221.6 124.985 222.808 126.192C224.015 127.4 225.448 128.357 227.025 129.01C228.602 129.664 230.293 130 232 130C233.707 130 235.398 129.664 236.975 129.01C238.552 128.357 239.985 127.4 241.192 126.192C242.4 124.985 243.357 123.552 244.01 121.975C244.664 120.398 245 118.707 245 117H238.5C238.5 117.854 238.332 118.699 238.005 119.487C237.679 120.276 237.2 120.993 236.596 121.596C235.993 122.2 235.276 122.679 234.487 123.005C233.699 123.332 232.854 123.5 232 123.5C231.146 123.5 230.301 123.332 229.513 123.005C228.724 122.679 228.007 122.2 227.404 121.596C226.8 120.993 226.321 120.276 225.995 119.487C225.668 118.699 225.5 117.854 225.5 117H219Z" fill="#AF9EFF"/>
<path d="M236.333 117C236.333 115.851 235.877 114.748 235.064 113.936C234.252 113.123 233.149 112.667 232 112.667C230.851 112.667 229.749 113.123 228.936 113.936C228.123 114.748 227.667 115.851 227.667 117H232H236.333Z" fill="#CABEFF"/>
<path d="M255.025 106.869H252.15V122.842H255.025V106.869Z" fill="#5D34F2"/>
<path d="M256.903 117.183C256.903 120.879 259.458 123.161 262.836 123.161C266.213 123.161 268.769 120.879 268.769 117.183C268.769 113.486 266.213 111.204 262.836 111.204C259.458 111.204 256.903 113.486 256.903 117.183ZM259.778 117.183C259.778 114.992 261.056 113.714 262.836 113.714C264.615 113.714 265.893 114.992 265.893 117.183C265.893 119.373 264.615 120.651 262.836 120.651C261.056 120.651 259.778 119.373 259.778 117.183Z" fill="#5D34F2"/>
<path d="M279.043 111.524V113.052H278.815C278.131 112.071 277.035 111.204 275.073 111.204C272.38 111.204 269.961 113.486 269.961 117C269.961 120.514 272.38 122.796 275.073 122.796C277.035 122.796 278.131 121.906 278.77 121.016H278.998V122.112C278.998 124.302 277.72 125.306 275.849 125.306C273.978 125.306 273.019 124.302 272.631 123.002L270.053 124.12C270.646 125.831 272.38 127.725 275.894 127.725C279.5 127.725 281.873 125.831 281.873 122.18V111.524H279.043ZM275.94 120.332C274.16 120.332 272.837 119.054 272.837 117C272.837 114.946 274.16 113.669 275.94 113.669C277.72 113.669 279.043 114.946 279.043 117C279.043 119.054 277.72 120.332 275.94 120.332Z" fill="#5D34F2"/>
<path d="M283.733 117.183C283.733 120.879 286.289 123.161 289.666 123.161C293.043 123.161 295.599 120.879 295.599 117.183C295.599 113.486 293.043 111.204 289.666 111.204C286.289 111.204 283.733 113.486 283.733 117.183ZM286.608 117.183C286.608 114.992 287.886 113.714 289.666 113.714C291.446 113.714 292.724 114.992 292.724 117.183C292.724 119.373 291.446 120.651 289.666 120.651C287.886 120.651 286.608 119.373 286.608 117.183Z" fill="#5D34F2"/>
<path d="M297.856 108.237C297.856 109.401 298.746 110.2 299.888 110.2C301.028 110.2 301.918 109.401 301.918 108.237C301.918 107.074 301.028 106.275 299.888 106.275C298.746 106.275 297.856 107.074 297.856 108.237ZM301.324 111.523H298.45V122.842H301.324V111.523Z" fill="#CABEFF"/>
<path d="M303.886 127.406H306.762V121.381H306.99C307.629 122.294 308.724 123.161 310.687 123.161C313.379 123.161 315.799 120.879 315.799 117.183C315.799 113.486 313.379 111.204 310.687 111.204C308.724 111.204 307.629 112.071 306.945 113.053H306.716V111.524H303.886V127.406ZM309.819 120.697C308.04 120.697 306.716 119.419 306.716 117.183C306.716 114.946 308.04 113.669 309.819 113.669C311.6 113.669 312.923 114.946 312.923 117.183C312.923 119.419 311.6 120.697 309.819 120.697Z" fill="#CABEFF"/>
<path d="M317.476 114.695C317.476 116.932 319.347 117.753 321.72 118.21L322.314 118.324C323.728 118.598 324.367 118.94 324.367 119.67C324.367 120.4 323.728 120.971 322.405 120.971C321.081 120.971 320.009 120.423 319.712 118.78L317.065 119.465C317.454 121.838 319.438 123.161 322.405 123.161C325.28 123.161 327.151 121.815 327.151 119.442C327.151 117.069 325.235 116.43 322.679 115.928L322.085 115.814C320.898 115.585 320.259 115.266 320.259 114.513C320.259 113.828 320.853 113.395 321.949 113.395C323.044 113.395 323.819 113.851 324.093 115.083L326.695 114.285C326.147 112.459 324.482 111.204 321.949 111.204C319.255 111.204 317.476 112.459 317.476 114.695Z" fill="#CABEFF"/>
<path d="M340.066 122.842V111.523H337.192V117.365C337.192 119.465 336.165 120.697 334.407 120.697C332.856 120.697 331.989 119.852 331.989 118.141V111.523H329.113V118.278C329.113 121.085 330.871 123.024 333.518 123.024C335.594 123.024 336.553 122.112 337.009 121.153H337.237V122.842H340.066Z" fill="#CABEFF"/>
<path d="M342.617 111.523V122.842H345.493V116.087C345.493 114.536 346.223 113.668 347.546 113.668C348.687 113.668 349.371 114.307 349.371 115.54V122.842H352.247V116.087C352.247 114.536 352.977 113.668 354.3 113.668C355.442 113.668 356.126 114.307 356.126 115.54V122.842H359.002V115.403C359.002 112.664 357.312 111.341 355.213 111.341C353.365 111.341 352.521 112.162 351.973 113.121H351.744C351.219 112.048 350.284 111.341 348.641 111.341C346.998 111.341 346.108 112.071 345.675 112.938H345.446V111.523H342.617Z" fill="#CABEFF"/>
<path d="M220.559 152.615C218.363 152.615 216.967 151.534 216.849 149.902L216.842 149.81H218.481L218.488 149.876C218.566 150.669 219.412 151.193 220.611 151.193C221.752 151.193 222.551 150.629 222.551 149.817V149.81C222.551 149.128 222.06 148.715 220.841 148.453L219.825 148.243C217.891 147.837 217.052 146.933 217.052 145.523V145.517C217.052 143.826 218.507 142.685 220.552 142.685C222.65 142.685 223.954 143.832 224.072 145.353L224.079 145.438H222.46L222.447 145.36C222.329 144.625 221.627 144.101 220.546 144.108C219.497 144.108 218.75 144.599 218.75 145.405V145.412C218.75 146.081 219.228 146.5 220.408 146.749L221.424 146.965C223.417 147.385 224.249 148.185 224.249 149.613V149.62C224.249 151.462 222.827 152.615 220.559 152.615ZM226.55 144.016C226.012 144.016 225.573 143.59 225.573 143.052C225.573 142.521 226.012 142.089 226.55 142.089C227.081 142.089 227.52 142.521 227.52 143.052C227.52 143.59 227.081 144.016 226.55 144.016ZM225.731 152.379V145.215H227.363V152.379H225.731ZM232.18 154.896C230.293 154.896 229.159 154.09 228.995 152.884L229.002 152.864H230.634L230.64 152.884C230.752 153.343 231.296 153.664 232.207 153.664C233.321 153.664 233.97 153.146 233.97 152.229V150.859H233.858C233.446 151.626 232.666 152.045 231.676 152.045C229.86 152.045 228.733 150.642 228.733 148.611V148.597C228.733 146.526 229.86 145.097 231.709 145.097C232.698 145.097 233.472 145.582 233.878 146.395H233.963V145.215H235.595V152.202C235.595 153.854 234.271 154.896 232.18 154.896ZM232.18 150.747C233.314 150.747 233.996 149.876 233.996 148.611V148.597C233.996 147.332 233.308 146.454 232.18 146.454C231.047 146.454 230.404 147.332 230.404 148.597V148.611C230.404 149.876 231.047 150.747 232.18 150.747ZM237.326 152.379V145.215H238.958V146.31H239.07C239.41 145.543 240.099 145.078 241.134 145.078C242.734 145.078 243.605 146.041 243.605 147.745V152.379H241.973V148.126C241.973 147.011 241.521 146.448 240.531 146.448C239.561 146.448 238.958 147.129 238.958 148.204V152.379H237.326ZM249.413 144.016C248.876 144.016 248.436 143.59 248.436 143.052C248.436 142.521 248.876 142.089 249.413 142.089C249.944 142.089 250.383 142.521 250.383 143.052C250.383 143.59 249.944 144.016 249.413 144.016ZM248.594 152.379V145.215H250.226V152.379H248.594ZM251.963 152.379V145.215H253.595V146.31H253.707C254.047 145.543 254.736 145.078 255.771 145.078C257.371 145.078 258.242 146.041 258.242 147.745V152.379H256.61V148.126C256.61 147.011 256.158 146.448 255.168 146.448C254.198 146.448 253.595 147.129 253.595 148.204V152.379H251.963ZM266.03 152.412C264.384 152.412 263.709 151.862 263.709 150.479V146.48H262.595V145.215H263.709V143.459H265.368V145.215H266.882V146.48H265.368V150.092C265.368 150.806 265.649 151.108 266.331 151.108C266.56 151.108 266.685 151.101 266.882 151.082V152.34C266.646 152.386 266.344 152.412 266.03 152.412ZM271.267 152.524C269.117 152.524 267.819 151.121 267.819 148.801V148.788C267.819 146.487 269.137 145.078 271.267 145.078C273.404 145.078 274.715 146.48 274.715 148.788V148.801C274.715 151.121 273.41 152.524 271.267 152.524ZM271.267 151.2C272.401 151.2 273.043 150.315 273.043 148.807V148.794C273.043 147.287 272.394 146.395 271.267 146.395C270.133 146.395 269.484 147.287 269.484 148.794V148.807C269.484 150.315 270.133 151.2 271.267 151.2ZM280.162 154.896C279.965 154.896 279.736 154.89 279.539 154.87V153.618C279.67 153.631 279.854 153.638 280.024 153.638C280.693 153.638 281.093 153.363 281.27 152.714L281.355 152.386L278.792 145.215H280.575L282.246 150.813H282.371L284.036 145.215H285.753L283.184 152.53C282.567 154.326 281.748 154.896 280.162 154.896ZM289.692 152.524C287.543 152.524 286.245 151.121 286.245 148.801V148.788C286.245 146.487 287.562 145.078 289.692 145.078C291.829 145.078 293.14 146.48 293.14 148.788V148.801C293.14 151.121 291.836 152.524 289.692 152.524ZM289.692 151.2C290.826 151.2 291.469 150.315 291.469 148.807V148.794C291.469 147.287 290.82 146.395 289.692 146.395C288.558 146.395 287.91 147.287 287.91 148.794V148.807C287.91 150.315 288.558 151.2 289.692 151.2ZM296.883 152.524C295.271 152.524 294.445 151.554 294.445 149.849V145.215H296.077V149.476C296.077 150.583 296.49 151.147 297.473 151.147C298.528 151.147 299.092 150.465 299.092 149.391V145.215H300.724V152.379H299.092V151.291H298.98C298.646 152.058 297.919 152.524 296.883 152.524ZM302.448 152.379V145.215H304.08V146.316H304.192C304.434 145.55 305.089 145.097 306.033 145.097C306.282 145.097 306.538 145.13 306.695 145.176V146.638C306.433 146.585 306.164 146.546 305.883 146.546C304.795 146.546 304.08 147.195 304.08 148.217V152.379H302.448ZM313.028 152.497C311.664 152.497 310.674 151.658 310.674 150.354V150.341C310.674 149.063 311.651 148.316 313.395 148.211L315.236 148.099V147.483C315.236 146.769 314.771 146.375 313.893 146.375C313.146 146.375 312.66 146.644 312.497 147.116L312.49 147.142H310.95L310.956 147.083C311.114 145.877 312.267 145.078 313.971 145.078C315.813 145.078 316.849 145.969 316.849 147.483V152.379H315.236V151.396H315.125C314.732 152.091 313.971 152.497 313.028 152.497ZM312.287 150.275C312.287 150.885 312.805 151.245 313.526 151.245C314.509 151.245 315.236 150.603 315.236 149.751V149.174L313.624 149.279C312.713 149.338 312.287 149.672 312.287 150.262V150.275ZM321.614 152.524C319.458 152.524 318.186 151.127 318.186 148.788V148.774C318.186 146.461 319.451 145.078 321.608 145.078C323.449 145.078 324.551 146.1 324.734 147.581V147.608H323.194L323.187 147.588C323.037 146.893 322.506 146.395 321.614 146.395C320.5 146.395 319.844 147.273 319.844 148.774V148.788C319.844 150.308 320.506 151.2 321.614 151.2C322.46 151.2 322.978 150.813 323.181 150.059L323.194 150.033L324.734 150.026L324.721 150.079C324.485 151.547 323.43 152.524 321.614 152.524ZM329.093 152.524C326.937 152.524 325.665 151.127 325.665 148.788V148.774C325.665 146.461 326.93 145.078 329.087 145.078C330.928 145.078 332.03 146.1 332.213 147.581V147.608H330.673L330.666 147.588C330.516 146.893 329.985 146.395 329.093 146.395C327.979 146.395 327.323 147.273 327.323 148.774V148.788C327.323 150.308 327.985 151.2 329.093 151.2C329.939 151.2 330.457 150.813 330.66 150.059L330.673 150.033L332.213 150.026L332.2 150.079C331.964 151.547 330.909 152.524 329.093 152.524ZM336.592 152.524C334.442 152.524 333.144 151.121 333.144 148.801V148.788C333.144 146.487 334.462 145.078 336.592 145.078C338.729 145.078 340.039 146.48 340.039 148.788V148.801C340.039 151.121 338.735 152.524 336.592 152.524ZM336.592 151.2C337.726 151.2 338.368 150.315 338.368 148.807V148.794C338.368 147.287 337.719 146.395 336.592 146.395C335.458 146.395 334.809 147.287 334.809 148.794V148.807C334.809 150.315 335.458 151.2 336.592 151.2ZM343.782 152.524C342.17 152.524 341.344 151.554 341.344 149.849V145.215H342.976V149.476C342.976 150.583 343.389 151.147 344.372 151.147C345.428 151.147 345.991 150.465 345.991 149.391V145.215H347.623V152.379H345.991V151.291H345.88C345.546 152.058 344.818 152.524 343.782 152.524ZM349.347 152.379V145.215H350.979V146.31H351.091C351.432 145.543 352.12 145.078 353.156 145.078C354.755 145.078 355.627 146.041 355.627 147.745V152.379H353.995V148.126C353.995 147.011 353.542 146.448 352.553 146.448C351.582 146.448 350.979 147.129 350.979 148.204V152.379H349.347ZM360.104 152.412C358.458 152.412 357.783 151.862 357.783 150.479V146.48H356.669V145.215H357.783V143.459H359.442V145.215H360.956V146.48H359.442V150.092C359.442 150.806 359.723 151.108 360.405 151.108C360.635 151.108 360.759 151.101 360.956 151.082V152.34C360.72 152.386 360.418 152.412 360.104 152.412Z" fill="#191C1D"/>
<path d="M176.759 181.541C176.759 178.761 179.013 176.507 181.793 176.507H395.9C398.68 176.507 400.934 178.761 400.934 181.541V200.334C400.934 203.115 398.68 205.368 395.9 205.368H181.793C179.013 205.368 176.759 203.115 176.759 200.334V181.541Z" stroke="#C4C7C7" stroke-width="0.671182"/>
<path d="M188.127 194.438V186.871H192.815V187.721H189.071V190.149H192.621V190.988H189.071V193.589H192.815V194.438H188.127ZM194.409 194.438V188.785H195.322V189.645H195.406C195.657 189.037 196.192 188.686 196.931 188.686C197.697 188.686 198.232 189.09 198.494 189.677H198.578C198.882 189.079 199.527 188.686 200.308 188.686C201.462 188.686 202.107 189.346 202.107 190.531V194.438H201.195V190.741C201.195 189.908 200.812 189.493 200.015 189.493C199.228 189.493 198.709 190.086 198.709 190.804V194.438H197.797V190.6C197.797 189.928 197.335 189.493 196.622 189.493C195.883 189.493 195.322 190.138 195.322 190.935V194.438H194.409ZM205.305 194.538C204.231 194.538 203.418 193.887 203.418 192.86V192.849C203.418 191.842 204.162 191.26 205.479 191.182L207.099 191.082V190.568C207.099 189.871 206.674 189.493 205.83 189.493C205.153 189.493 204.708 189.745 204.561 190.185L204.556 190.201H203.643L203.649 190.17C203.795 189.284 204.655 188.686 205.861 188.686C207.24 188.686 208.011 189.394 208.011 190.568V194.438H207.099V193.604H207.015C206.658 194.207 206.066 194.538 205.305 194.538ZM204.351 192.839C204.351 193.41 204.839 193.746 205.494 193.746C206.422 193.746 207.099 193.138 207.099 192.33V191.816L205.589 191.911C204.729 191.963 204.351 192.267 204.351 192.828V192.839ZM210.161 187.695C209.815 187.695 209.532 187.412 209.532 187.065C209.532 186.719 209.815 186.436 210.161 186.436C210.507 186.436 210.79 186.719 210.79 187.065C210.79 187.412 210.507 187.695 210.161 187.695ZM209.7 194.438V188.785H210.612V194.438H209.7ZM212.384 194.438V186.541H213.297V194.438H212.384Z" fill="#747778"/>
<path d="M176.759 221.812C176.759 219.032 179.013 216.778 181.793 216.778H395.9C398.68 216.778 400.934 219.032 400.934 221.812V240.605C400.934 243.386 398.68 245.639 395.9 245.639H181.793C179.013 245.639 176.759 243.386 176.759 240.605V221.812Z" stroke="#C4C7C7" stroke-width="0.671182"/>
<path d="M188.127 234.709V227.142H190.98C192.401 227.142 193.408 228.123 193.408 229.56V229.57C193.408 231.007 192.401 232.009 190.98 232.009H189.071V234.709H188.127ZM190.739 227.981H189.071V231.17H190.739C191.819 231.17 192.443 230.577 192.443 229.581V229.57C192.443 228.574 191.819 227.981 190.739 227.981ZM196.182 234.809C195.107 234.809 194.294 234.158 194.294 233.131V233.12C194.294 232.113 195.039 231.531 196.355 231.453L197.975 231.353V230.839C197.975 230.142 197.55 229.764 196.706 229.764C196.03 229.764 195.584 230.016 195.437 230.456L195.432 230.472H194.519L194.525 230.441C194.671 229.555 195.531 228.957 196.737 228.957C198.117 228.957 198.887 229.665 198.887 230.839V234.709H197.975V233.875H197.891C197.534 234.478 196.942 234.809 196.182 234.809ZM195.227 233.11C195.227 233.681 195.715 234.017 196.37 234.017C197.298 234.017 197.975 233.409 197.975 232.601V232.087L196.465 232.182C195.605 232.234 195.227 232.538 195.227 233.099V233.11ZM202.495 234.809C201.236 234.809 200.371 234.2 200.266 233.267H201.2C201.352 233.739 201.803 234.048 202.526 234.048C203.287 234.048 203.827 233.686 203.827 233.173V233.162C203.827 232.779 203.538 232.512 202.841 232.344L201.965 232.134C200.906 231.883 200.429 231.421 200.429 230.608V230.603C200.429 229.665 201.331 228.957 202.532 228.957C203.717 228.957 204.54 229.549 204.666 230.472H203.769C203.649 230.026 203.208 229.717 202.526 229.717C201.855 229.717 201.362 230.063 201.362 230.561V230.572C201.362 230.955 201.645 231.196 202.311 231.358L203.182 231.568C204.246 231.825 204.76 232.286 204.76 233.094V233.104C204.76 234.111 203.78 234.809 202.495 234.809ZM208.011 234.809C206.753 234.809 205.888 234.2 205.783 233.267H206.716C206.868 233.739 207.319 234.048 208.043 234.048C208.803 234.048 209.343 233.686 209.343 233.173V233.162C209.343 232.779 209.055 232.512 208.357 232.344L207.482 232.134C206.422 231.883 205.945 231.421 205.945 230.608V230.603C205.945 229.665 206.847 228.957 208.048 228.957C209.233 228.957 210.056 229.549 210.182 230.472H209.285C209.165 230.026 208.724 229.717 208.043 229.717C207.371 229.717 206.879 230.063 206.879 230.561V230.572C206.879 230.955 207.162 231.196 207.828 231.358L208.698 231.568C209.763 231.825 210.276 232.286 210.276 233.094V233.104C210.276 234.111 209.296 234.809 208.011 234.809ZM212.626 234.709L211.042 229.056H211.954L213.066 233.576H213.15L214.414 229.056H215.279L216.543 233.576H216.626L217.738 229.056H218.645L217.062 234.709H216.144L214.88 230.336H214.796L213.538 234.709H212.626ZM221.964 234.809C220.355 234.809 219.358 233.697 219.358 231.888V231.877C219.358 230.063 220.355 228.957 221.964 228.957C223.574 228.957 224.571 230.063 224.571 231.877V231.888C224.571 233.697 223.574 234.809 221.964 234.809ZM221.964 234.001C223.034 234.001 223.637 233.22 223.637 231.888V231.877C223.637 230.54 223.034 229.764 221.964 229.764C220.895 229.764 220.292 230.54 220.292 231.877V231.888C220.292 233.22 220.895 234.001 221.964 234.001ZM225.986 234.709V229.056H226.899V229.895H226.983C227.198 229.303 227.727 228.957 228.493 228.957C228.666 228.957 228.86 228.978 228.949 228.993V229.88C228.76 229.848 228.587 229.827 228.388 229.827C227.517 229.827 226.899 230.378 226.899 231.206V234.709H225.986ZM232.006 234.809C230.574 234.809 229.636 233.65 229.636 231.888V231.877C229.636 230.105 230.569 228.957 232.006 228.957C232.782 228.957 233.458 229.345 233.768 229.948H233.852V226.812H234.764V234.709H233.852V233.807H233.768C233.422 234.436 232.793 234.809 232.006 234.809ZM232.216 234.001C233.243 234.001 233.873 233.194 233.873 231.888V231.877C233.873 230.572 233.243 229.764 232.216 229.764C231.183 229.764 230.569 230.561 230.569 231.877V231.888C230.569 233.204 231.183 234.001 232.216 234.001Z" fill="#747778"/>
<path d="M177.412 264.029V257.409H181.546V258.294H178.44V260.391H181.285V261.258H178.44V264.029H177.412ZM184.877 264.126C183.414 264.126 182.519 263.148 182.519 261.543V261.533C182.519 259.932 183.418 258.95 184.877 258.95C186.332 258.95 187.231 259.927 187.231 261.533V261.543C187.231 263.148 186.336 264.126 184.877 264.126ZM184.877 263.295C185.731 263.295 186.217 262.644 186.217 261.543V261.533C186.217 260.428 185.731 259.781 184.877 259.781C184.019 259.781 183.538 260.428 183.538 261.533V261.543C183.538 262.648 184.019 263.295 184.877 263.295ZM188.419 264.029V259.047H189.415V259.799H189.488C189.667 259.271 190.131 258.959 190.796 258.959C190.957 258.959 191.131 258.982 191.232 259.005V259.923C191.053 259.886 190.883 259.863 190.695 259.863C189.934 259.863 189.415 260.331 189.415 261.052V264.029H188.419ZM194.159 265.787C192.893 265.787 192.113 265.231 191.994 264.401L192.003 264.392H193.008L193.012 264.401C193.095 264.745 193.499 264.988 194.173 264.988C194.994 264.988 195.481 264.603 195.481 263.924V262.942H195.407C195.104 263.483 194.554 263.786 193.87 263.786C192.59 263.786 191.801 262.8 191.801 261.396V261.387C191.801 259.964 192.595 258.959 193.889 258.959C194.586 258.959 195.127 259.303 195.416 259.863H195.476V259.047H196.467V263.928C196.467 265.062 195.572 265.787 194.159 265.787ZM194.145 262.965C194.99 262.965 195.499 262.323 195.499 261.391V261.382C195.499 260.455 194.985 259.804 194.145 259.804C193.297 259.804 192.819 260.455 192.819 261.382V261.391C192.819 262.318 193.297 262.965 194.145 262.965ZM200.009 264.126C198.545 264.126 197.651 263.148 197.651 261.543V261.533C197.651 259.932 198.55 258.95 200.009 258.95C201.464 258.95 202.363 259.927 202.363 261.533V261.543C202.363 263.148 201.468 264.126 200.009 264.126ZM200.009 263.295C200.863 263.295 201.349 262.644 201.349 261.543V261.533C201.349 260.428 200.863 259.781 200.009 259.781C199.151 259.781 198.669 260.428 198.669 261.533V261.543C198.669 262.648 199.151 263.295 200.009 263.295ZM205.432 264.061C204.336 264.061 203.886 263.676 203.886 262.717V259.831H203.106V259.047H203.886V257.789H204.9V259.047H205.969V259.831H204.9V262.478C204.9 263.015 205.102 263.236 205.593 263.236C205.744 263.236 205.831 263.231 205.969 263.217V264.011C205.809 264.038 205.625 264.061 205.432 264.061ZM210.186 265.782C210.062 265.782 209.915 265.773 209.786 265.759V264.974C209.883 264.988 210.007 264.993 210.121 264.993C210.585 264.993 210.865 264.796 211.012 264.291L211.085 264.034L209.277 259.047H210.351L211.599 263.029H211.686L212.929 259.047H213.975L212.122 264.222C211.7 265.41 211.195 265.782 210.186 265.782ZM216.903 264.126C215.439 264.126 214.544 263.148 214.544 261.543V261.533C214.544 259.932 215.444 258.95 216.903 258.95C218.357 258.95 219.256 259.927 219.256 261.533V261.543C219.256 263.148 218.362 264.126 216.903 264.126ZM216.903 263.295C217.756 263.295 218.242 262.644 218.242 261.543V261.533C218.242 260.428 217.756 259.781 216.903 259.781C216.045 259.781 215.563 260.428 215.563 261.533V261.543C215.563 262.648 216.045 263.295 216.903 263.295ZM222.106 264.126C220.982 264.126 220.399 263.451 220.399 262.272V259.047H221.395V262.038C221.395 262.864 221.697 263.272 222.427 263.272C223.225 263.272 223.652 262.772 223.652 261.969V259.047H224.643V264.029H223.652V263.277H223.574C223.335 263.814 222.831 264.126 222.106 264.126ZM226.079 264.029V259.047H227.075V259.799H227.148C227.327 259.271 227.79 258.959 228.456 258.959C228.616 258.959 228.791 258.982 228.892 259.005V259.923C228.713 259.886 228.543 259.863 228.355 259.863C227.593 259.863 227.075 260.331 227.075 261.052V264.029H226.079ZM232.411 265.69V259.047H233.406V259.831H233.48C233.769 259.285 234.315 258.959 235.012 258.959C236.269 258.959 237.077 259.964 237.077 261.533V261.543C237.077 263.121 236.279 264.112 235.012 264.112C234.329 264.112 233.746 263.777 233.48 263.24H233.406V265.69H232.411ZM234.732 263.263C235.563 263.263 236.063 262.612 236.063 261.543V261.533C236.063 260.46 235.563 259.813 234.732 259.813C233.902 259.813 233.388 260.469 233.388 261.533V261.543C233.388 262.607 233.902 263.263 234.732 263.263ZM239.642 264.112C238.692 264.112 237.99 263.534 237.99 262.63V262.621C237.99 261.731 238.66 261.212 239.848 261.139L241.197 261.061V260.62C241.197 260.074 240.853 259.771 240.178 259.771C239.628 259.771 239.265 259.973 239.146 260.327L239.142 260.345H238.183L238.187 260.313C238.306 259.496 239.091 258.95 240.224 258.95C241.477 258.95 242.183 259.574 242.183 260.62V264.029H241.197V263.323H241.119C240.825 263.827 240.302 264.112 239.642 264.112ZM238.981 262.589C238.981 263.047 239.371 263.318 239.908 263.318C240.651 263.318 241.197 262.832 241.197 262.189V261.763L239.981 261.841C239.293 261.882 238.981 262.13 238.981 262.579V262.589ZM245.4 264.126C244.198 264.126 243.436 263.561 243.34 262.726V262.722H244.335L244.34 262.726C244.464 263.102 244.826 263.355 245.418 263.355C246.033 263.355 246.46 263.075 246.46 262.667V262.657C246.46 262.345 246.226 262.134 245.648 262.001L244.854 261.818C243.913 261.602 243.477 261.175 243.477 260.446V260.441C243.477 259.574 244.285 258.95 245.414 258.95C246.551 258.95 247.281 259.519 247.368 260.331V260.336H246.418V260.327C246.322 259.978 245.969 259.716 245.409 259.716C244.863 259.716 244.468 259.987 244.468 260.386V260.395C244.468 260.707 244.698 260.9 245.258 261.033L246.047 261.212C247.006 261.437 247.464 261.845 247.464 262.566V262.575C247.464 263.497 246.584 264.126 245.4 264.126ZM250.373 264.126C249.171 264.126 248.41 263.561 248.313 262.726V262.722H249.309L249.313 262.726C249.437 263.102 249.8 263.355 250.392 263.355C251.007 263.355 251.433 263.075 251.433 262.667V262.657C251.433 262.345 251.199 262.134 250.621 262.001L249.827 261.818C248.887 261.602 248.451 261.175 248.451 260.446V260.441C248.451 259.574 249.258 258.95 250.387 258.95C251.525 258.95 252.254 259.519 252.342 260.331V260.336H251.392V260.327C251.296 259.978 250.942 259.716 250.383 259.716C249.837 259.716 249.442 259.987 249.442 260.386V260.395C249.442 260.707 249.671 260.9 250.231 261.033L251.02 261.212C251.979 261.437 252.438 261.845 252.438 262.566V262.575C252.438 263.497 251.557 264.126 250.373 264.126ZM254.448 264.029L253.071 259.047H254.071L254.966 262.891H255.04L256.067 259.047H257.012L258.04 262.891H258.118L259.008 259.047H259.995L258.623 264.029H257.6L256.567 260.313H256.489L255.462 264.029H254.448ZM262.931 264.126C261.468 264.126 260.573 263.148 260.573 261.543V261.533C260.573 259.932 261.472 258.95 262.931 258.95C264.386 258.95 265.285 259.927 265.285 261.533V261.543C265.285 263.148 264.39 264.126 262.931 264.126ZM262.931 263.295C263.785 263.295 264.271 262.644 264.271 261.543V261.533C264.271 260.428 263.785 259.781 262.931 259.781C262.073 259.781 261.591 260.428 261.591 261.533V261.543C261.591 262.648 262.073 263.295 262.931 263.295ZM266.473 264.029V259.047H267.469V259.799H267.542C267.721 259.271 268.185 258.959 268.85 258.959C269.01 258.959 269.185 258.982 269.286 259.005V259.923C269.107 259.886 268.937 259.863 268.749 259.863C267.987 259.863 267.469 260.331 267.469 261.052V264.029H266.473ZM271.924 264.112C270.671 264.112 269.859 263.107 269.859 261.543V261.533C269.859 259.955 270.658 258.959 271.924 258.959C272.608 258.959 273.19 259.299 273.456 259.836H273.534V257.092H274.525V264.029H273.534V263.245H273.456C273.167 263.791 272.621 264.112 271.924 264.112ZM272.208 263.263C273.039 263.263 273.548 262.607 273.548 261.543V261.533C273.548 260.469 273.034 259.813 272.208 259.813C271.373 259.813 270.873 260.464 270.873 261.533V261.543C270.873 262.612 271.373 263.263 272.208 263.263ZM277.09 261.974L277.086 261.607C277.063 260.96 277.343 260.547 277.971 260.171C278.526 259.836 278.724 259.57 278.724 259.102V259.092C278.724 258.579 278.315 258.198 277.687 258.198C277.053 258.198 276.645 258.579 276.608 259.184H276.599L275.654 259.189V259.18C275.695 258.143 276.407 257.354 277.737 257.354C278.948 257.354 279.765 258.074 279.765 259.051V259.06C279.765 259.767 279.407 260.267 278.802 260.629C278.21 260.978 278.04 261.221 278.04 261.694V261.974H277.09ZM277.622 264.13C277.2 264.13 276.911 263.855 276.911 263.447C276.911 263.034 277.2 262.758 277.622 262.758C278.045 262.758 278.329 263.034 278.329 263.447C278.329 263.855 278.045 264.13 277.622 264.13Z" fill="#5D34F2"/>
<path d="M176.424 284.138C176.424 281.172 178.828 278.768 181.793 278.768H395.9C398.866 278.768 401.27 281.172 401.27 284.138V303.822C401.27 306.788 398.866 309.192 395.9 309.192H181.793C178.828 309.192 176.424 306.788 176.424 303.822V284.138Z" fill="#5D34F2"/>
<path d="M274.799 297.664C273.09 297.664 271.994 296.798 271.889 295.524L271.884 295.456H273.037L273.042 295.514C273.105 296.201 273.834 296.641 274.846 296.641C275.811 296.641 276.498 296.159 276.498 295.456V295.451C276.498 294.869 276.089 294.491 275.087 294.276L274.259 294.098C272.723 293.773 272.062 293.06 272.062 291.943V291.937C272.067 290.632 273.2 289.73 274.804 289.73C276.409 289.73 277.458 290.637 277.541 291.812L277.547 291.885H276.409L276.398 291.817C276.299 291.198 275.706 290.747 274.789 290.752C273.902 290.752 273.247 291.167 273.247 291.88V291.885C273.247 292.446 273.645 292.813 274.626 293.023L275.449 293.206C277.038 293.547 277.688 294.187 277.688 295.309V295.314C277.688 296.762 276.561 297.664 274.799 297.664ZM279.697 290.768C279.303 290.768 278.983 290.448 278.983 290.06C278.983 289.667 279.303 289.347 279.697 289.347C280.085 289.347 280.41 289.667 280.41 290.06C280.41 290.448 280.085 290.768 279.697 290.768ZM279.125 297.48V291.785H280.258V297.48H279.125ZM284.321 299.488C282.874 299.488 281.983 298.854 281.846 297.905L281.857 297.894H283.005L283.011 297.905C283.105 298.298 283.566 298.576 284.337 298.576C285.276 298.576 285.832 298.135 285.832 297.359V296.237H285.748C285.402 296.856 284.772 297.202 283.991 297.202C282.528 297.202 281.626 296.075 281.626 294.47V294.46C281.626 292.834 282.533 291.686 284.012 291.686C284.809 291.686 285.428 292.079 285.758 292.719H285.826V291.785H286.959V297.365C286.959 298.66 285.936 299.488 284.321 299.488ZM284.306 296.263C285.271 296.263 285.853 295.529 285.853 294.465V294.454C285.853 293.395 285.265 292.651 284.306 292.651C283.336 292.651 282.79 293.395 282.79 294.454V294.465C282.79 295.524 283.336 296.263 284.306 296.263ZM288.595 297.48V291.785H289.733V292.651H289.817C290.095 292.042 290.64 291.675 291.468 291.675C292.743 291.675 293.445 292.436 293.445 293.794V297.48H292.313V294.061C292.313 293.117 291.919 292.651 291.086 292.651C290.252 292.651 289.733 293.222 289.733 294.14V297.48H288.595ZM298.563 290.768C298.17 290.768 297.85 290.448 297.85 290.06C297.85 289.667 298.17 289.347 298.563 289.347C298.951 289.347 299.276 289.667 299.276 290.06C299.276 290.448 298.951 290.768 298.563 290.768ZM297.992 297.48V291.785H299.124V297.48H297.992ZM300.781 297.48V291.785H301.919V292.651H302.003C302.281 292.042 302.826 291.675 303.655 291.675C304.929 291.675 305.631 292.436 305.631 293.794V297.48H304.499V294.061C304.499 293.117 304.106 292.651 303.272 292.651C302.438 292.651 301.919 293.222 301.919 294.14V297.48H300.781Z" fill="white"/>
<path d="M223.828 331.191V324.571H224.631L228.224 329.723H228.297V324.571H229.114V331.191H228.311L224.718 326.057H224.645V331.191H223.828ZM232.734 331.279C231.325 331.279 230.453 330.306 230.453 328.723V328.714C230.453 327.126 231.325 326.158 232.734 326.158C234.142 326.158 235.014 327.126 235.014 328.714V328.723C235.014 330.306 234.142 331.279 232.734 331.279ZM232.734 330.572C233.67 330.572 234.197 329.888 234.197 328.723V328.714C234.197 327.544 233.67 326.865 232.734 326.865C231.798 326.865 231.27 327.544 231.27 328.714V328.723C231.27 329.888 231.798 330.572 232.734 330.572ZM238.01 331.228C236.992 331.228 236.565 330.852 236.565 329.907V326.906H235.785V326.245H236.565V324.965H237.391V326.245H238.474V326.906H237.391V329.705C237.391 330.288 237.593 330.522 238.107 330.522C238.249 330.522 238.327 330.517 238.474 330.503V331.182C238.318 331.21 238.166 331.228 238.01 331.228ZM243.667 331.279C242.727 331.279 242.016 330.71 242.016 329.81V329.801C242.016 328.92 242.667 328.411 243.819 328.342L245.237 328.255V327.805C245.237 327.195 244.865 326.865 244.126 326.865C243.534 326.865 243.144 327.085 243.016 327.47L243.011 327.484H242.213L242.217 327.457C242.346 326.681 243.098 326.158 244.154 326.158C245.36 326.158 246.035 326.778 246.035 327.805V331.191H245.237V330.462H245.163C244.851 330.99 244.333 331.279 243.667 331.279ZM242.832 329.792C242.832 330.292 243.259 330.586 243.833 330.586C244.645 330.586 245.237 330.054 245.237 329.347V328.897L243.915 328.98C243.163 329.026 242.832 329.292 242.832 329.783V329.792ZM249.517 331.279C248.132 331.279 247.246 330.274 247.246 328.705V328.695C247.246 327.158 248.127 326.158 249.513 326.158C250.715 326.158 251.435 326.851 251.582 327.732L251.587 327.759H250.793L250.788 327.746C250.664 327.259 250.224 326.865 249.513 326.865C248.623 326.865 248.063 327.581 248.063 328.695V328.705C248.063 329.842 248.632 330.572 249.513 330.572C250.178 330.572 250.6 330.278 250.784 329.728L250.793 329.7L251.582 329.696L251.573 329.746C251.371 330.641 250.706 331.279 249.517 331.279ZM254.775 331.279C253.39 331.279 252.504 330.274 252.504 328.705V328.695C252.504 327.158 253.385 326.158 254.771 326.158C255.973 326.158 256.693 326.851 256.84 327.732L256.845 327.759H256.051L256.046 327.746C255.922 327.259 255.482 326.865 254.771 326.865C253.881 326.865 253.321 327.581 253.321 328.695V328.705C253.321 329.842 253.89 330.572 254.771 330.572C255.436 330.572 255.858 330.278 256.042 329.728L256.051 329.7L256.84 329.696L256.831 329.746C256.629 330.641 255.964 331.279 254.775 331.279ZM260.042 331.279C258.634 331.279 257.762 330.306 257.762 328.723V328.714C257.762 327.126 258.634 326.158 260.042 326.158C261.451 326.158 262.323 327.126 262.323 328.714V328.723C262.323 330.306 261.451 331.279 260.042 331.279ZM260.042 330.572C260.978 330.572 261.506 329.888 261.506 328.723V328.714C261.506 327.544 260.978 326.865 260.042 326.865C259.107 326.865 258.579 327.544 258.579 328.714V328.723C258.579 329.888 259.107 330.572 260.042 330.572ZM265.218 331.279C264.094 331.279 263.516 330.618 263.516 329.448V326.245H264.314V329.255C264.314 330.145 264.635 330.572 265.424 330.572C266.296 330.572 266.76 330.04 266.76 329.173V326.245H267.558V331.191H266.76V330.453H266.686C266.443 330.98 265.943 331.279 265.218 331.279ZM269.049 331.191V326.245H269.847V326.989H269.921C270.169 326.466 270.632 326.158 271.361 326.158C272.472 326.158 273.091 326.814 273.091 327.989V331.191H272.293V328.182C272.293 327.291 271.926 326.865 271.137 326.865C270.348 326.865 269.847 327.397 269.847 328.264V331.191H269.049ZM276.294 331.228C275.275 331.228 274.848 330.852 274.848 329.907V326.906H274.069V326.245H274.848V324.965H275.674V326.245H276.757V326.906H275.674V329.705C275.674 330.288 275.876 330.522 276.39 330.522C276.532 330.522 276.61 330.517 276.757 330.503V331.182C276.601 331.21 276.45 331.228 276.294 331.228ZM279.01 329.145V328.723C279.005 328.117 279.299 327.704 279.928 327.328C280.46 327.002 280.666 326.713 280.666 326.227V326.218C280.666 325.653 280.226 325.236 279.542 325.236C278.849 325.236 278.409 325.644 278.363 326.296L278.354 326.3L277.574 326.305V326.296C277.624 325.309 278.285 324.52 279.574 324.52C280.731 324.52 281.52 325.236 281.52 326.177V326.186C281.52 326.901 281.148 327.411 280.561 327.764C279.978 328.108 279.813 328.365 279.813 328.847V329.145H279.01ZM279.473 331.274C279.102 331.274 278.836 331.008 278.836 330.636C278.836 330.26 279.102 329.994 279.473 329.994C279.845 329.994 280.107 330.26 280.107 330.636C280.107 331.008 279.845 331.274 279.473 331.274Z" fill="#191C1D"/>
<path d="M289.072 331.352C287.232 331.352 286.085 330.021 286.085 327.888V327.879C286.085 325.741 287.228 324.41 289.067 324.41C290.527 324.41 291.646 325.332 291.82 326.649L291.816 326.672H290.797V326.658C290.605 325.846 289.939 325.319 289.067 325.319C287.879 325.319 287.136 326.305 287.136 327.879V327.888C287.136 329.457 287.879 330.444 289.072 330.444C289.948 330.444 290.605 329.976 290.793 329.228L290.802 329.209H291.82V329.237C291.628 330.508 290.549 331.352 289.072 331.352ZM293.059 331.191V326.209H294.055V326.961H294.128C294.307 326.433 294.771 326.121 295.436 326.121C295.596 326.121 295.771 326.144 295.872 326.167V327.085C295.693 327.048 295.523 327.025 295.335 327.025C294.573 327.025 294.055 327.493 294.055 328.214V331.191H293.059ZM298.785 331.288C297.326 331.288 296.445 330.292 296.445 328.714V328.709C296.445 327.154 297.345 326.112 298.735 326.112C300.125 326.112 300.978 327.117 300.978 328.613V328.962H297.445C297.464 329.916 297.987 330.471 298.808 330.471C299.446 330.471 299.827 330.154 299.946 329.898L299.964 329.861L300.923 329.856L300.914 329.898C300.749 330.554 300.061 331.288 298.785 331.288ZM298.739 326.929C298.06 326.929 297.546 327.392 297.459 328.25H299.992C299.914 327.36 299.414 326.929 298.739 326.929ZM303.529 331.274C302.58 331.274 301.878 330.696 301.878 329.792V329.783C301.878 328.893 302.547 328.374 303.736 328.301L305.085 328.223V327.782C305.085 327.236 304.741 326.934 304.066 326.934C303.516 326.934 303.153 327.135 303.034 327.489L303.029 327.507H302.07L302.075 327.475C302.194 326.658 302.979 326.112 304.112 326.112C305.365 326.112 306.071 326.736 306.071 327.782V331.191H305.085V330.485H305.007C304.713 330.99 304.19 331.274 303.529 331.274ZM302.869 329.751C302.869 330.21 303.259 330.48 303.795 330.48C304.539 330.48 305.085 329.994 305.085 329.352V328.925L303.869 329.003C303.181 329.044 302.869 329.292 302.869 329.742V329.751ZM309.356 331.224C308.26 331.224 307.81 330.838 307.81 329.879V326.993H307.03V326.209H307.81V324.952H308.824V326.209H309.893V326.993H308.824V329.641C308.824 330.177 309.026 330.398 309.517 330.398C309.668 330.398 309.755 330.393 309.893 330.379V331.173C309.733 331.201 309.549 331.224 309.356 331.224ZM313.091 331.288C311.632 331.288 310.751 330.292 310.751 328.714V328.709C310.751 327.154 311.65 326.112 313.041 326.112C314.431 326.112 315.284 327.117 315.284 328.613V328.962H311.751C311.77 329.916 312.293 330.471 313.114 330.471C313.752 330.471 314.133 330.154 314.252 329.898L314.27 329.861L315.229 329.856L315.22 329.898C315.055 330.554 314.367 331.288 313.091 331.288ZM313.045 326.929C312.366 326.929 311.852 327.392 311.765 328.25H314.298C314.22 327.36 313.72 326.929 313.045 326.929ZM320.405 331.274C319.455 331.274 318.753 330.696 318.753 329.792V329.783C318.753 328.893 319.423 328.374 320.611 328.301L321.96 328.223V327.782C321.96 327.236 321.616 326.934 320.941 326.934C320.391 326.934 320.028 327.135 319.909 327.489L319.904 327.507H318.946L318.95 327.475C319.069 326.658 319.854 326.112 320.987 326.112C322.24 326.112 322.946 326.736 322.946 327.782V331.191H321.96V330.485H321.882C321.588 330.99 321.065 331.274 320.405 331.274ZM319.744 329.751C319.744 330.21 320.134 330.48 320.671 330.48C321.414 330.48 321.96 329.994 321.96 329.352V328.925L320.744 329.003C320.056 329.044 319.744 329.292 319.744 329.742V329.751ZM326.447 331.288C324.993 331.288 324.103 330.297 324.103 328.686V328.677C324.103 327.099 324.988 326.112 326.443 326.112C327.695 326.112 328.443 326.819 328.581 327.787V327.81L327.626 327.815L327.622 327.801C327.512 327.31 327.108 326.943 326.447 326.943C325.617 326.943 325.117 327.603 325.117 328.677V328.686C325.117 329.787 325.626 330.457 326.447 330.457C327.071 330.457 327.457 330.173 327.617 329.636L327.626 329.613H328.581L328.572 329.654C328.393 330.622 327.681 331.288 326.447 331.288ZM331.806 331.288C330.352 331.288 329.462 330.297 329.462 328.686V328.677C329.462 327.099 330.347 326.112 331.802 326.112C333.054 326.112 333.802 326.819 333.94 327.787V327.81L332.985 327.815L332.981 327.801C332.871 327.31 332.467 326.943 331.806 326.943C330.976 326.943 330.476 327.603 330.476 328.677V328.686C330.476 329.787 330.985 330.457 331.806 330.457C332.43 330.457 332.816 330.173 332.976 329.636L332.985 329.613H333.94L333.931 329.654C333.752 330.622 333.04 331.288 331.806 331.288ZM337.179 331.288C335.715 331.288 334.821 330.31 334.821 328.705V328.695C334.821 327.094 335.72 326.112 337.179 326.112C338.633 326.112 339.533 327.09 339.533 328.695V328.705C339.533 330.31 338.638 331.288 337.179 331.288ZM337.179 330.457C338.032 330.457 338.519 329.806 338.519 328.705V328.695C338.519 327.59 338.032 326.943 337.179 326.943C336.321 326.943 335.839 327.59 335.839 328.695V328.705C335.839 329.81 336.321 330.457 337.179 330.457ZM342.382 331.288C341.258 331.288 340.675 330.613 340.675 329.434V326.209H341.671V329.2C341.671 330.026 341.974 330.434 342.703 330.434C343.501 330.434 343.928 329.934 343.928 329.131V326.209H344.919V331.191H343.928V330.439H343.85C343.612 330.976 343.107 331.288 342.382 331.288ZM346.355 331.191V326.209H347.351V326.966H347.424C347.667 326.433 348.145 326.112 348.87 326.112C349.984 326.112 350.599 326.778 350.599 327.966V331.191H349.608V328.2C349.608 327.374 349.264 326.966 348.535 326.966C347.805 326.966 347.351 327.466 347.351 328.269V331.191H346.355ZM353.871 331.224C352.774 331.224 352.324 330.838 352.324 329.879V326.993H351.544V326.209H352.324V324.952H353.338V326.209H354.407V326.993H353.338V329.641C353.338 330.177 353.54 330.398 354.031 330.398C354.183 330.398 354.27 330.393 354.407 330.379V331.173C354.247 331.201 354.063 331.224 353.871 331.224Z" fill="#5D34F2"/>
<rect x="176.424" y="356.541" width="96.6841" height="0.671182" fill="#191C1D" fill-opacity="0.12"/>
<path d="M286.623 359.963C285.214 359.963 284.342 358.99 284.342 357.408V357.398C284.342 355.811 285.214 354.843 286.623 354.843C288.031 354.843 288.903 355.811 288.903 357.398V357.408C288.903 358.99 288.031 359.963 286.623 359.963ZM286.623 359.257C287.559 359.257 288.086 358.573 288.086 357.408V357.398C288.086 356.228 287.559 355.549 286.623 355.549C285.687 355.549 285.159 356.228 285.159 357.398V357.408C285.159 358.573 285.687 359.257 286.623 359.257ZM290.142 359.876V354.93H290.94V355.664H291.013C291.202 355.146 291.665 354.843 292.335 354.843C292.486 354.843 292.656 354.861 292.734 354.875V355.65C292.569 355.623 292.417 355.604 292.243 355.604C291.481 355.604 290.94 356.086 290.94 356.811V359.876H290.142Z" fill="#747778"/>
<rect x="304.585" y="356.541" width="96.6841" height="0.671182" fill="#191C1D" fill-opacity="0.12"/>
<path d="M176.759 383.93C176.759 381.15 179.013 378.897 181.793 378.897H395.9C398.68 378.897 400.934 381.15 400.934 383.93V402.724C400.934 405.504 398.68 407.757 395.9 407.757H181.793C179.013 407.757 176.759 405.504 176.759 402.724V383.93Z" stroke="#C4C7C7" stroke-width="0.671182"/>
<path fill-rule="evenodd" clip-rule="evenodd" d="M201.016 393.465C201.016 393.036 200.977 392.624 200.906 392.229H195.217V394.566H198.468C198.328 395.321 197.902 395.96 197.262 396.389V397.904H199.215C200.357 396.853 201.016 395.304 201.016 393.465Z" fill="#4285F4"/>
<path fill-rule="evenodd" clip-rule="evenodd" d="M195.217 399.368C196.848 399.368 198.215 398.827 199.215 397.904L197.262 396.388C196.721 396.751 196.029 396.965 195.217 396.965C193.643 396.965 192.312 395.902 191.837 394.475H189.819V396.04C190.813 398.014 192.855 399.368 195.217 399.368Z" fill="#34A853"/>
<path fill-rule="evenodd" clip-rule="evenodd" d="M191.837 394.475C191.716 394.112 191.647 393.725 191.647 393.327C191.647 392.929 191.716 392.542 191.837 392.179V390.614H189.819C189.409 391.43 189.176 392.352 189.176 393.327C189.176 394.302 189.409 395.224 189.819 396.04L191.837 394.475Z" fill="#FBBC05"/>
<path fill-rule="evenodd" clip-rule="evenodd" d="M195.217 389.689C196.104 389.689 196.9 389.994 197.526 390.592L199.258 388.86C198.212 387.885 196.845 387.287 195.217 387.287C192.855 387.287 190.813 388.64 189.819 390.614L191.837 392.18C192.312 390.752 193.643 389.689 195.217 389.689Z" fill="#EA4335"/>
<path d="M236.159 397.456C234.056 397.456 232.745 395.936 232.745 393.498V393.487C232.745 391.044 234.051 389.523 236.153 389.523C237.821 389.523 239.1 390.577 239.3 392.082L239.294 392.108H238.13V392.092C237.91 391.164 237.15 390.561 236.153 390.561C234.795 390.561 233.946 391.689 233.946 393.487V393.498C233.946 395.291 234.795 396.418 236.159 396.418C237.16 396.418 237.91 395.883 238.125 395.029L238.135 395.008H239.3V395.039C239.079 396.492 237.847 397.456 236.159 397.456ZM243.127 397.383C241.455 397.383 240.432 396.266 240.432 394.431V394.42C240.432 392.59 241.46 391.468 243.127 391.468C244.79 391.468 245.817 392.585 245.817 394.42V394.431C245.817 396.266 244.795 397.383 243.127 397.383ZM243.127 396.434C244.103 396.434 244.659 395.689 244.659 394.431V394.42C244.659 393.157 244.103 392.417 243.127 392.417C242.147 392.417 241.596 393.157 241.596 394.42V394.431C241.596 395.695 242.147 396.434 243.127 396.434ZM247.175 397.273V391.578H248.313V392.444H248.397C248.675 391.835 249.22 391.468 250.049 391.468C251.323 391.468 252.026 392.229 252.026 393.587V397.273H250.893V393.854C250.893 392.91 250.5 392.444 249.666 392.444C248.832 392.444 248.313 393.015 248.313 393.933V397.273H247.175ZM255.765 397.31C254.511 397.31 253.997 396.869 253.997 395.773V392.475H253.106V391.578H253.997V390.142H255.156V391.578H256.378V392.475H255.156V395.501C255.156 396.114 255.387 396.366 255.948 396.366C256.121 396.366 256.221 396.361 256.378 396.345V397.252C256.194 397.283 255.985 397.31 255.765 397.31ZM258.297 390.561C257.904 390.561 257.584 390.241 257.584 389.853C257.584 389.46 257.904 389.14 258.297 389.14C258.685 389.14 259.01 389.46 259.01 389.853C259.01 390.241 258.685 390.561 258.297 390.561ZM257.726 397.273V391.578H258.858V397.273H257.726ZM260.515 397.273V391.578H261.653V392.444H261.737C262.015 391.835 262.56 391.468 263.389 391.468C264.663 391.468 265.366 392.229 265.366 393.587V397.273H264.233V393.854C264.233 392.91 263.84 392.444 263.006 392.444C262.172 392.444 261.653 393.015 261.653 393.933V397.273H260.515ZM268.853 397.383C267.568 397.383 266.902 396.612 266.902 395.265V391.578H268.04V394.997C268.04 395.941 268.386 396.408 269.22 396.408C270.132 396.408 270.62 395.836 270.62 394.919V391.578H271.752V397.273H270.62V396.413H270.531C270.258 397.026 269.681 397.383 268.853 397.383ZM275.785 397.383C274.117 397.383 273.11 396.245 273.11 394.441V394.436C273.11 392.659 274.138 391.468 275.727 391.468C277.316 391.468 278.291 392.617 278.291 394.326V394.725H274.253C274.274 395.815 274.872 396.45 275.811 396.45C276.54 396.45 276.975 396.088 277.111 395.794L277.132 395.752L278.228 395.747L278.218 395.794C278.029 396.544 277.242 397.383 275.785 397.383ZM275.732 392.402C274.956 392.402 274.369 392.931 274.269 393.912H277.164C277.075 392.895 276.503 392.402 275.732 392.402ZM283.676 397.273L282.103 391.578H283.246L284.269 395.973H284.353L285.527 391.578H286.607L287.782 395.973H287.871L288.888 391.578H290.016L288.448 397.273H287.279L286.099 393.026H286.01L284.835 397.273H283.676ZM291.772 390.561C291.379 390.561 291.059 390.241 291.059 389.853C291.059 389.46 291.379 389.14 291.772 389.14C292.16 389.14 292.486 389.46 292.486 389.853C292.486 390.241 292.16 390.561 291.772 390.561ZM291.201 397.273V391.578H292.333V397.273H291.201ZM296.14 397.31C294.887 397.31 294.373 396.869 294.373 395.773V392.475H293.482V391.578H294.373V390.142H295.532V391.578H296.754V392.475H295.532V395.501C295.532 396.114 295.763 396.366 296.324 396.366C296.497 396.366 296.597 396.361 296.754 396.345V397.252C296.57 397.283 296.361 397.31 296.14 397.31ZM298.133 397.273V389.345H299.271V392.444H299.355C299.633 391.835 300.178 391.468 301.006 391.468C302.281 391.468 302.983 392.229 302.983 393.587V397.273H301.851V393.854C301.851 392.91 301.457 392.444 300.624 392.444C299.79 392.444 299.271 393.015 299.271 393.933V397.273H298.133ZM310.828 397.456C308.683 397.456 307.33 395.925 307.33 393.492V393.482C307.33 391.08 308.699 389.523 310.817 389.523C312.537 389.523 313.759 390.498 314.032 391.961L314.042 392.014H312.867L312.852 391.961C312.579 391.065 311.855 390.561 310.817 390.561C309.417 390.561 308.531 391.694 308.531 393.477V393.487C308.531 395.296 309.422 396.418 310.843 396.418C312.081 396.418 312.925 395.637 312.936 394.473V394.305H310.99V393.356H314.094V394.295C314.094 396.214 312.81 397.456 310.828 397.456ZM317.996 397.383C316.323 397.383 315.3 396.266 315.3 394.431V394.42C315.3 392.59 316.328 391.468 317.996 391.468C319.658 391.468 320.686 392.585 320.686 394.42V394.431C320.686 396.266 319.663 397.383 317.996 397.383ZM317.996 396.434C318.971 396.434 319.527 395.689 319.527 394.431V394.42C319.527 393.157 318.971 392.417 317.996 392.417C317.015 392.417 316.465 393.157 316.465 394.42V394.431C316.465 395.695 317.015 396.434 317.996 396.434ZM324.456 397.383C322.783 397.383 321.761 396.266 321.761 394.431V394.42C321.761 392.59 322.788 391.468 324.456 391.468C326.118 391.468 327.146 392.585 327.146 394.42V394.431C327.146 396.266 326.123 397.383 324.456 397.383ZM324.456 396.434C325.431 396.434 325.987 395.689 325.987 394.431V394.42C325.987 393.157 325.431 392.417 324.456 392.417C323.475 392.417 322.925 393.157 322.925 394.42V394.431C322.925 395.695 323.475 396.434 324.456 396.434ZM330.911 399.281C329.463 399.281 328.572 398.647 328.436 397.698L328.446 397.687H329.595L329.6 397.698C329.694 398.091 330.156 398.369 330.926 398.369C331.865 398.369 332.421 397.928 332.421 397.152V396.03H332.337C331.991 396.649 331.362 396.995 330.58 396.995C329.117 396.995 328.215 395.868 328.215 394.263V394.253C328.215 392.627 329.123 391.479 330.601 391.479C331.398 391.479 332.017 391.872 332.347 392.512H332.416V391.578H333.548V397.158C333.548 398.453 332.526 399.281 330.911 399.281ZM330.895 396.056C331.86 396.056 332.442 395.322 332.442 394.258V394.247C332.442 393.188 331.855 392.444 330.895 392.444C329.925 392.444 329.38 393.188 329.38 394.247V394.258C329.38 395.317 329.925 396.056 330.895 396.056ZM335.237 397.273V389.345H336.375V397.273H335.237ZM340.459 397.383C338.792 397.383 337.785 396.245 337.785 394.441V394.436C337.785 392.659 338.813 391.468 340.402 391.468C341.99 391.468 342.966 392.617 342.966 394.326V394.725H338.928C338.949 395.815 339.547 396.45 340.486 396.45C341.214 396.45 341.65 396.088 341.786 395.794L341.807 395.752L342.903 395.747L342.892 395.794C342.704 396.544 341.917 397.383 340.459 397.383ZM340.407 392.402C339.631 392.402 339.044 392.931 338.944 393.912H341.838C341.749 392.895 341.178 392.402 340.407 392.402Z" fill="#191C1D"/>
<path d="M176.759 423.463C176.759 420.683 179.013 418.429 181.793 418.429H395.9C398.68 418.429 400.934 420.683 400.934 423.463V442.256C400.934 445.036 398.68 447.29 395.9 447.29H181.793C179.013 447.29 176.759 445.036 176.759 442.256V423.463Z" stroke="#C4C7C7" stroke-width="0.671182"/>
<path d="M201.929 432.859C201.929 429.152 198.924 426.147 195.217 426.147C191.509 426.147 188.505 429.152 188.505 432.859C188.505 436.21 190.959 438.986 194.168 439.49V434.799H192.464V432.859H194.168V431.381C194.168 429.699 195.17 428.769 196.703 428.769C197.437 428.769 198.206 428.9 198.206 428.9V430.552H197.359C196.525 430.552 196.265 431.07 196.265 431.601V432.859H198.127L197.829 434.799H196.265V439.49C199.475 438.986 201.929 436.21 201.929 432.859Z" fill="#1877F2"/>
<path d="M197.829 434.799L198.127 432.859H196.265V431.601C196.265 431.07 196.525 430.552 197.359 430.552H198.206V428.9C198.206 428.9 197.437 428.769 196.703 428.769C195.17 428.769 194.168 429.698 194.168 431.38V432.859H192.464V434.799H194.168V439.49C194.51 439.543 194.86 439.571 195.217 439.571C195.573 439.571 195.923 439.543 196.265 439.49V434.799H197.829Z" fill="white"/>
<path d="M230.02 436.989C227.918 436.989 226.607 435.468 226.607 433.03V433.019C226.607 430.576 227.912 429.055 230.015 429.055C231.682 429.055 232.962 430.109 233.161 431.614L233.156 431.64H231.992V431.624C231.772 430.696 231.011 430.093 230.015 430.093C228.657 430.093 227.807 431.221 227.807 433.019V433.03C227.807 434.823 228.657 435.95 230.02 435.95C231.022 435.95 231.772 435.416 231.987 434.561L231.997 434.54H233.161V434.571C232.941 436.024 231.709 436.989 230.02 436.989ZM236.989 436.915C235.316 436.915 234.294 435.798 234.294 433.963V433.953C234.294 432.123 235.322 431 236.989 431C238.651 431 239.679 432.117 239.679 433.953V433.963C239.679 435.798 238.656 436.915 236.989 436.915ZM236.989 435.966C237.964 435.966 238.52 435.222 238.52 433.963V433.953C238.52 432.689 237.964 431.95 236.989 431.95C236.008 431.95 235.458 432.689 235.458 433.953V433.963C235.458 435.227 236.008 435.966 236.989 435.966ZM241.037 436.805V431.111H242.175V431.976H242.259C242.537 431.368 243.082 431 243.911 431C245.185 431 245.887 431.761 245.887 433.119V436.805H244.755V433.386C244.755 432.442 244.362 431.976 243.528 431.976C242.694 431.976 242.175 432.547 242.175 433.465V436.805H241.037ZM249.626 436.842C248.373 436.842 247.859 436.401 247.859 435.306V432.007H246.968V431.111H247.859V429.674H249.018V431.111H250.24V432.007H249.018V435.033C249.018 435.646 249.249 435.898 249.81 435.898C249.983 435.898 250.082 435.893 250.24 435.877V436.784C250.056 436.816 249.846 436.842 249.626 436.842ZM252.159 430.093C251.765 430.093 251.446 429.773 251.446 429.385C251.446 428.992 251.765 428.672 252.159 428.672C252.547 428.672 252.872 428.992 252.872 429.385C252.872 429.773 252.547 430.093 252.159 430.093ZM251.587 436.805V431.111H252.72V436.805H251.587ZM254.377 436.805V431.111H255.515V431.976H255.599C255.876 431.368 256.422 431 257.25 431C258.525 431 259.227 431.761 259.227 433.119V436.805H258.095V433.386C258.095 432.442 257.701 431.976 256.868 431.976C256.034 431.976 255.515 432.547 255.515 433.465V436.805H254.377ZM262.714 436.915C261.429 436.915 260.764 436.144 260.764 434.797V431.111H261.901V434.529C261.901 435.473 262.247 435.94 263.081 435.94C263.994 435.94 264.481 435.368 264.481 434.451V431.111H265.614V436.805H264.481V435.945H264.392C264.119 436.559 263.543 436.915 262.714 436.915ZM269.646 436.915C267.979 436.915 266.972 435.777 266.972 433.974V433.968C266.972 432.191 268 431 269.589 431C271.177 431 272.153 432.149 272.153 433.858V434.257H268.115C268.136 435.347 268.734 435.982 269.672 435.982C270.401 435.982 270.837 435.62 270.973 435.326L270.994 435.285L272.09 435.279L272.079 435.326C271.89 436.076 271.104 436.915 269.646 436.915ZM269.594 431.934C268.818 431.934 268.23 432.463 268.131 433.444H271.025C270.936 432.427 270.365 431.934 269.594 431.934ZM277.538 436.805L275.965 431.111H277.108L278.13 435.505H278.214L279.389 431.111H280.469L281.644 435.505H281.733L282.75 431.111H283.877L282.31 436.805H281.14L279.96 432.558H279.871L278.697 436.805H277.538ZM285.634 430.093C285.241 430.093 284.921 429.773 284.921 429.385C284.921 428.992 285.241 428.672 285.634 428.672C286.022 428.672 286.347 428.992 286.347 429.385C286.347 429.773 286.022 430.093 285.634 430.093ZM285.062 436.805V431.111H286.195V436.805H285.062ZM290.002 436.842C288.749 436.842 288.235 436.401 288.235 435.306V432.007H287.343V431.111H288.235V429.674H289.394V431.111H290.615V432.007H289.394V435.033C289.394 435.646 289.624 435.898 290.185 435.898C290.358 435.898 290.458 435.893 290.615 435.877V436.784C290.432 436.816 290.222 436.842 290.002 436.842ZM291.994 436.805V428.877H293.132V431.976H293.216C293.494 431.368 294.039 431 294.868 431C296.142 431 296.845 431.761 296.845 433.119V436.805H295.712V433.386C295.712 432.442 295.319 431.976 294.485 431.976C293.651 431.976 293.132 432.547 293.132 433.465V436.805H291.994ZM301.501 436.805V429.239H306.226V430.251H302.676V432.647H305.927V433.638H302.676V436.805H301.501ZM308.847 436.9C307.762 436.9 306.96 436.239 306.96 435.206V435.195C306.96 434.178 307.725 433.586 309.083 433.502L310.625 433.413V432.909C310.625 432.285 310.232 431.939 309.461 431.939C308.832 431.939 308.417 432.17 308.281 432.574L308.276 432.595H307.18L307.185 432.558C307.322 431.624 308.218 431 309.513 431C310.945 431 311.752 431.714 311.752 432.909V436.805H310.625V435.998H310.536C310.2 436.574 309.603 436.9 308.847 436.9ZM308.092 435.159C308.092 435.683 308.538 435.992 309.152 435.992C310.001 435.992 310.625 435.437 310.625 434.702V434.215L309.235 434.304C308.449 434.351 308.092 434.634 308.092 435.148V435.159ZM315.753 436.915C314.091 436.915 313.074 435.783 313.074 433.942V433.932C313.074 432.128 314.086 431 315.748 431C317.18 431 318.034 431.808 318.192 432.914V432.941L317.101 432.946L317.096 432.93C316.97 432.369 316.508 431.95 315.753 431.95C314.804 431.95 314.233 432.705 314.233 433.932V433.942C314.233 435.201 314.815 435.966 315.753 435.966C316.466 435.966 316.907 435.641 317.09 435.028L317.101 435.001H318.192L318.181 435.049C317.977 436.155 317.164 436.915 315.753 436.915ZM321.873 436.915C320.205 436.915 319.198 435.777 319.198 433.974V433.968C319.198 432.191 320.226 431 321.815 431C323.404 431 324.379 432.149 324.379 433.858V434.257H320.341C320.362 435.347 320.96 435.982 321.899 435.982C322.628 435.982 323.063 435.62 323.199 435.326L323.22 435.285L324.316 435.279L324.306 435.326C324.117 436.076 323.33 436.915 321.873 436.915ZM321.82 431.934C321.044 431.934 320.457 432.463 320.357 433.444H323.252C323.163 432.427 322.591 431.934 321.82 431.934ZM328.757 436.9C327.96 436.9 327.336 436.533 327.006 435.909H326.922V436.805H325.784V428.877H326.922V432.013H327.006C327.31 431.399 327.976 431.011 328.757 431.011C330.205 431.011 331.117 432.149 331.117 433.953V433.963C331.117 435.751 330.194 436.9 328.757 436.9ZM328.438 435.929C329.387 435.929 329.958 435.185 329.958 433.963V433.953C329.958 432.731 329.387 431.986 328.438 431.986C327.488 431.986 326.901 432.736 326.901 433.953V433.963C326.901 435.18 327.488 435.929 328.438 435.929ZM334.887 436.915C333.215 436.915 332.192 435.798 332.192 433.963V433.953C332.192 432.123 333.22 431 334.887 431C336.549 431 337.577 432.117 337.577 433.953V433.963C337.577 435.798 336.555 436.915 334.887 436.915ZM334.887 435.966C335.863 435.966 336.418 435.222 336.418 433.963V433.953C336.418 432.689 335.863 431.95 334.887 431.95C333.907 431.95 333.356 432.689 333.356 433.953V433.963C333.356 435.227 333.907 435.966 334.887 435.966ZM341.347 436.915C339.675 436.915 338.652 435.798 338.652 433.963V433.953C338.652 432.123 339.68 431 341.347 431C343.01 431 344.037 432.117 344.037 433.953V433.963C344.037 435.798 343.015 436.915 341.347 436.915ZM341.347 435.966C342.323 435.966 342.878 435.222 342.878 433.963V433.953C342.878 432.689 342.323 431.95 341.347 431.95C340.367 431.95 339.816 432.689 339.816 433.953V433.963C339.816 435.227 340.367 435.966 341.347 435.966ZM345.448 436.805V428.877H346.586V433.512H346.67L348.93 431.111H350.261L347.886 433.512L350.419 436.805H349.034L347.073 434.246L346.586 434.734V436.805H345.448Z" fill="#191C1D"/>
<path d="M231.365 477.103V472.065H229.536V471.428H233.901V472.065H232.073V477.103H231.365ZM235.852 477.178C234.641 477.178 233.909 476.328 233.909 474.999V474.995C233.909 473.686 234.656 472.789 235.809 472.789C236.961 472.789 237.661 473.646 237.661 474.913V475.18H234.609C234.629 476.057 235.113 476.568 235.868 476.568C236.442 476.568 236.796 476.297 236.91 476.041L236.926 476.006H237.61L237.602 476.037C237.457 476.611 236.851 477.178 235.852 477.178ZM235.805 473.398C235.176 473.398 234.696 473.827 234.621 474.633H236.965C236.894 473.796 236.43 473.398 235.805 473.398ZM238.723 477.103V472.864H239.407V473.493H239.47C239.631 473.048 240.029 472.789 240.603 472.789C240.733 472.789 240.878 472.805 240.945 472.816V473.481C240.803 473.457 240.674 473.442 240.524 473.442C239.871 473.442 239.407 473.855 239.407 474.476V477.103H238.723ZM241.869 477.103V472.864H242.553V473.509H242.616C242.805 473.052 243.206 472.789 243.761 472.789C244.335 472.789 244.736 473.092 244.933 473.532H244.996C245.224 473.084 245.707 472.789 246.293 472.789C247.159 472.789 247.642 473.284 247.642 474.173V477.103H246.958V474.33C246.958 473.705 246.671 473.394 246.073 473.394C245.483 473.394 245.094 473.839 245.094 474.378V477.103H244.41V474.224C244.41 473.721 244.064 473.394 243.529 473.394C242.974 473.394 242.553 473.878 242.553 474.476V477.103H241.869ZM250.332 477.178C249.388 477.178 248.739 476.722 248.661 476.022H249.361C249.475 476.375 249.813 476.608 250.356 476.608C250.926 476.608 251.331 476.336 251.331 475.951V475.943C251.331 475.656 251.115 475.455 250.592 475.329L249.935 475.172C249.141 474.983 248.783 474.637 248.783 474.028V474.024C248.783 473.32 249.459 472.789 250.36 472.789C251.249 472.789 251.866 473.233 251.96 473.925H251.288C251.197 473.591 250.867 473.359 250.356 473.359C249.852 473.359 249.483 473.619 249.483 473.992V474C249.483 474.287 249.695 474.468 250.195 474.59L250.847 474.747C251.646 474.94 252.031 475.286 252.031 475.892V475.9C252.031 476.655 251.296 477.178 250.332 477.178ZM257.1 477.178C255.893 477.178 255.146 476.344 255.146 474.987V474.979C255.146 473.619 255.893 472.789 257.1 472.789C258.308 472.789 259.055 473.619 259.055 474.979V474.987C259.055 476.344 258.308 477.178 257.1 477.178ZM257.1 476.572C257.903 476.572 258.355 475.986 258.355 474.987V474.979C258.355 473.977 257.903 473.394 257.1 473.394C256.298 473.394 255.846 473.977 255.846 474.979V474.987C255.846 475.986 256.298 476.572 257.1 476.572ZM260.4 477.103V473.43H259.696V472.864H260.4V472.392C260.4 471.546 260.825 471.141 261.631 471.141C261.796 471.141 261.946 471.153 262.087 471.18V471.727C262.005 471.711 261.89 471.707 261.769 471.707C261.281 471.707 261.084 471.947 261.084 472.411V472.864H262.048V473.43H261.084V477.103H260.4ZM267.636 477.237C266.228 477.237 265.379 476.387 265.379 475.152V471.428H266.087V475.105C266.087 475.978 266.653 476.584 267.636 476.584C268.619 476.584 269.178 475.978 269.178 475.105V471.428H269.886V475.152C269.886 476.387 269.044 477.237 267.636 477.237ZM272.694 477.178C271.75 477.178 271.101 476.722 271.022 476.022H271.722C271.836 476.375 272.175 476.608 272.717 476.608C273.287 476.608 273.693 476.336 273.693 475.951V475.943C273.693 475.656 273.476 475.455 272.953 475.329L272.296 475.172C271.502 474.983 271.144 474.637 271.144 474.028V474.024C271.144 473.32 271.821 472.789 272.721 472.789C273.61 472.789 274.227 473.233 274.322 473.925H273.649C273.559 473.591 273.228 473.359 272.717 473.359C272.214 473.359 271.844 473.619 271.844 473.992V474C271.844 474.287 272.057 474.468 272.556 474.59L273.209 474.747C274.007 474.94 274.393 475.286 274.393 475.892V475.9C274.393 476.655 273.657 477.178 272.694 477.178ZM277.185 477.178C275.974 477.178 275.242 476.328 275.242 474.999V474.995C275.242 473.686 275.989 472.789 277.142 472.789C278.294 472.789 278.994 473.646 278.994 474.913V475.18H275.942C275.962 476.057 276.445 476.568 277.201 476.568C277.775 476.568 278.129 476.297 278.243 476.041L278.258 476.006H278.943L278.935 476.037C278.789 476.611 278.184 477.178 277.185 477.178ZM277.138 473.398C276.508 473.398 276.029 473.827 275.954 474.633H278.298C278.227 473.796 277.763 473.398 277.138 473.398Z" fill="#191C1D"/>
<line x1="288.182" y1="471.247" x2="288.182" y2="477.959" stroke="#191C1D" stroke-opacity="0.12" stroke-width="0.671182"/>
<path d="M296.803 477.103V471.428H298.942C300.008 471.428 300.763 472.164 300.763 473.241V473.249C300.763 474.327 300.008 475.078 298.942 475.078H297.511V477.103H296.803ZM298.761 472.057H297.511V474.448H298.761C299.572 474.448 300.039 474.004 300.039 473.257V473.249C300.039 472.502 299.572 472.057 298.761 472.057ZM301.837 477.103V472.864H302.521V473.493H302.584C302.745 473.048 303.142 472.789 303.717 472.789C303.846 472.789 303.992 472.805 304.059 472.816V473.481C303.917 473.457 303.787 473.442 303.638 473.442C302.985 473.442 302.521 473.855 302.521 474.476V477.103H301.837ZM305.266 472.046C305.007 472.046 304.794 471.833 304.794 471.574C304.794 471.314 305.007 471.102 305.266 471.102C305.526 471.102 305.738 471.314 305.738 471.574C305.738 471.833 305.526 472.046 305.266 472.046ZM304.92 477.103V472.864H305.604V477.103H304.92ZM308.094 477.103L306.525 472.864H307.248L308.408 476.356H308.471L309.631 472.864H310.355L308.786 477.103H308.094ZM312.266 477.178C311.46 477.178 310.851 476.69 310.851 475.919V475.911C310.851 475.156 311.409 474.72 312.396 474.661L313.611 474.586V474.201C313.611 473.678 313.293 473.394 312.66 473.394C312.152 473.394 311.818 473.583 311.708 473.914L311.704 473.925H311.02L311.024 473.902C311.134 473.237 311.779 472.789 312.683 472.789C313.717 472.789 314.296 473.32 314.296 474.201V477.103H313.611V476.478H313.548C313.281 476.93 312.837 477.178 312.266 477.178ZM311.551 475.904C311.551 476.332 311.916 476.584 312.408 476.584C313.104 476.584 313.611 476.128 313.611 475.522V475.137L312.479 475.207C311.834 475.247 311.551 475.475 311.551 475.896V475.904ZM317.28 477.178C316.093 477.178 315.334 476.316 315.334 474.971V474.964C315.334 473.646 316.089 472.789 317.277 472.789C318.307 472.789 318.924 473.383 319.05 474.138L319.054 474.161H318.374L318.37 474.15C318.264 473.733 317.886 473.394 317.277 473.394C316.514 473.394 316.034 474.008 316.034 474.964V474.971C316.034 475.947 316.521 476.572 317.277 476.572C317.847 476.572 318.209 476.32 318.366 475.848L318.374 475.825L319.05 475.821L319.042 475.864C318.869 476.631 318.299 477.178 317.28 477.178ZM320.415 478.59C320.324 478.59 320.206 478.582 320.112 478.566V478.004C320.195 478.019 320.301 478.023 320.395 478.023C320.785 478.023 321.02 477.846 321.174 477.359L321.253 477.107L319.683 472.864H320.415L321.579 476.352H321.642L322.802 472.864H323.522L321.866 477.363C321.516 478.314 321.166 478.59 320.415 478.59ZM326.778 477.103V471.428H328.917C329.983 471.428 330.738 472.164 330.738 473.241V473.249C330.738 474.327 329.983 475.078 328.917 475.078H327.486V477.103H326.778ZM328.736 472.057H327.486V474.448H328.736C329.547 474.448 330.015 474.004 330.015 473.257V473.249C330.015 472.502 329.547 472.057 328.736 472.057ZM333.436 477.178C332.229 477.178 331.482 476.344 331.482 474.987V474.979C331.482 473.619 332.229 472.789 333.436 472.789C334.643 472.789 335.391 473.619 335.391 474.979V474.987C335.391 476.344 334.643 477.178 333.436 477.178ZM333.436 476.572C334.238 476.572 334.691 475.986 334.691 474.987V474.979C334.691 473.977 334.238 473.394 333.436 473.394C332.634 473.394 332.182 473.977 332.182 474.979V474.987C332.182 475.986 332.634 476.572 333.436 476.572ZM336.492 477.103V471.18H337.176V477.103H336.492ZM338.851 472.046C338.592 472.046 338.379 471.833 338.379 471.574C338.379 471.314 338.592 471.102 338.851 471.102C339.111 471.102 339.323 471.314 339.323 471.574C339.323 471.833 339.111 472.046 338.851 472.046ZM338.505 477.103V472.864H339.19V477.103H338.505ZM342.214 477.178C341.026 477.178 340.267 476.316 340.267 474.971V474.964C340.267 473.646 341.022 472.789 342.21 472.789C343.24 472.789 343.858 473.383 343.984 474.138L343.988 474.161H343.307L343.303 474.15C343.197 473.733 342.82 473.394 342.21 473.394C341.447 473.394 340.967 474.008 340.967 474.964V474.971C340.967 475.947 341.455 476.572 342.21 476.572C342.78 476.572 343.142 476.32 343.299 475.848L343.307 475.825L343.984 475.821L343.976 475.864C343.803 476.631 343.232 477.178 342.214 477.178ZM345.348 478.59C345.258 478.59 345.14 478.582 345.045 478.566V478.004C345.128 478.019 345.234 478.023 345.329 478.023C345.718 478.023 345.954 477.846 346.107 477.359L346.186 477.107L344.617 472.864H345.348L346.512 476.352H346.575L347.735 472.864H348.455L346.799 477.363C346.449 478.314 346.099 478.59 345.348 478.59Z" fill="#191C1D"/>
<rect x="243.877" y="588.095" width="89.9384" height="3.35591" rx="1.67796" fill="black"/>
<path d="M250.081 566.923V561.248H252.291C253.404 561.248 254.175 561.996 254.175 563.109V563.116C254.175 564.226 253.404 564.985 252.291 564.985H250.962V566.923H250.081ZM252.071 561.992H250.962V564.245H252.071C252.834 564.245 253.278 563.832 253.278 563.12V563.113C253.278 562.405 252.834 561.992 252.071 561.992ZM256.904 567.006C255.65 567.006 254.883 566.168 254.883 564.792V564.784C254.883 563.411 255.654 562.57 256.904 562.57C258.151 562.57 258.922 563.407 258.922 564.784V564.792C258.922 566.168 258.155 567.006 256.904 567.006ZM256.904 566.294C257.636 566.294 258.053 565.736 258.053 564.792V564.784C258.053 563.836 257.636 563.282 256.904 563.282C256.169 563.282 255.756 563.836 255.756 564.784V564.792C255.756 565.74 256.169 566.294 256.904 566.294ZM260.597 566.923L259.417 562.652H260.275L261.042 565.948H261.105L261.986 562.652H262.796L263.677 565.948H263.743L264.506 562.652H265.352L264.176 566.923H263.299L262.414 563.738H262.347L261.466 566.923H260.597ZM267.853 567.006C266.603 567.006 265.847 566.153 265.847 564.8V564.796C265.847 563.463 266.618 562.57 267.81 562.57C269.001 562.57 269.733 563.431 269.733 564.713V565.012H266.705C266.72 565.83 267.169 566.306 267.873 566.306C268.419 566.306 268.746 566.035 268.848 565.814L268.864 565.783L269.686 565.779L269.678 565.814C269.536 566.377 268.946 567.006 267.853 567.006ZM267.814 563.27C267.232 563.27 266.791 563.667 266.717 564.402H268.887C268.821 563.64 268.392 563.27 267.814 563.27ZM270.748 566.923V562.652H271.601V563.297H271.664C271.817 562.845 272.214 562.578 272.785 562.578C272.922 562.578 273.072 562.597 273.158 562.617V563.404C273.005 563.372 272.859 563.352 272.698 563.352C272.045 563.352 271.601 563.754 271.601 564.371V566.923H270.748ZM275.656 567.006C274.405 567.006 273.65 566.153 273.65 564.8V564.796C273.65 563.463 274.421 562.57 275.612 562.57C276.804 562.57 277.535 563.431 277.535 564.713V565.012H274.507C274.523 565.83 274.971 566.306 275.675 566.306C276.222 566.306 276.548 566.035 276.651 565.814L276.666 565.783L277.488 565.779L277.48 565.814C277.339 566.377 276.749 567.006 275.656 567.006ZM275.616 563.27C275.034 563.27 274.594 563.667 274.519 564.402H276.69C276.623 563.64 276.194 563.27 275.616 563.27ZM280.107 566.994C279.034 566.994 278.338 566.133 278.338 564.792V564.784C278.338 563.431 279.022 562.578 280.107 562.578C280.693 562.578 281.193 562.869 281.421 563.329H281.488V560.977H282.337V566.923H281.488V566.251H281.421C281.173 566.719 280.705 566.994 280.107 566.994ZM280.351 566.267C281.063 566.267 281.5 565.704 281.5 564.792V564.784C281.5 563.872 281.059 563.309 280.351 563.309C279.636 563.309 279.207 563.868 279.207 564.784V564.792C279.207 565.708 279.636 566.267 280.351 566.267ZM288.079 566.994C287.481 566.994 287.013 566.719 286.766 566.251H286.703V566.923H285.849V560.977H286.703V563.329H286.766C286.994 562.869 287.493 562.578 288.079 562.578C289.164 562.578 289.849 563.431 289.849 564.784V564.792C289.849 566.133 289.157 566.994 288.079 566.994ZM287.839 566.267C288.551 566.267 288.98 565.708 288.98 564.792V564.784C288.98 563.868 288.551 563.309 287.839 563.309C287.127 563.309 286.687 563.872 286.687 564.784V564.792C286.687 565.704 287.127 566.267 287.839 566.267ZM291.119 568.426C291.013 568.426 290.887 568.418 290.777 568.406V567.733C290.859 567.745 290.966 567.749 291.064 567.749C291.461 567.749 291.701 567.58 291.827 567.148L291.89 566.927L290.34 562.652H291.261L292.33 566.066H292.405L293.471 562.652H294.367L292.779 567.089C292.417 568.107 291.984 568.426 291.119 568.426Z" fill="#C9C5D0"/>
<g opacity="0.8" clip-path="url(#clip2_587_32496)">
<path fill-rule="evenodd" clip-rule="evenodd" d="M297.979 561.757C297.979 561.534 297.979 561.423 298.02 561.333C298.056 561.254 298.114 561.187 298.187 561.14C298.27 561.087 298.38 561.071 298.601 561.039L301.742 560.588C302.027 560.547 302.169 560.527 302.28 560.57C302.377 560.608 302.459 560.678 302.51 560.769C302.568 560.873 302.568 561.017 302.568 561.306V567.542C302.568 567.83 302.568 567.975 302.51 568.078C302.459 568.169 302.377 568.24 302.28 568.278C302.169 568.321 302.027 568.3 301.742 568.259L298.601 567.808L298.601 567.808C298.38 567.777 298.27 567.761 298.187 567.708C298.114 567.661 298.056 567.594 298.02 567.515C297.979 567.425 297.979 567.314 297.979 567.091V561.757ZM301.146 563.869C301.146 563.803 301.146 563.769 301.159 563.743C301.17 563.72 301.188 563.7 301.21 563.687C301.235 563.673 301.268 563.67 301.335 563.663L301.632 563.636C301.71 563.629 301.749 563.626 301.779 563.639C301.806 563.65 301.828 563.67 301.842 563.696C301.857 563.725 301.857 563.764 301.857 563.842V565.005C301.857 565.084 301.857 565.123 301.842 565.152C301.828 565.177 301.806 565.197 301.779 565.209C301.749 565.222 301.71 565.218 301.632 565.211H301.632L301.335 565.184H301.335C301.268 565.178 301.235 565.175 301.21 565.16C301.188 565.147 301.17 565.128 301.159 565.105C301.146 565.078 301.146 565.045 301.146 564.978V563.869ZM303.46 561.192H303.021V567.655H303.46C303.714 567.655 303.84 567.655 303.937 567.606C304.022 567.563 304.091 567.493 304.135 567.408C304.184 567.312 304.184 567.185 304.184 566.931V561.916C304.184 561.663 304.184 561.536 304.135 561.439C304.091 561.354 304.022 561.285 303.937 561.241C303.84 561.192 303.714 561.192 303.46 561.192Z" fill="#C9C5D0"/>
</g>
<path d="M312.48 567.332C312.034 567.332 311.649 567.239 311.324 567.054C311 566.868 310.751 566.61 310.577 566.28C310.403 565.944 310.316 565.556 310.316 565.116C310.316 564.664 310.406 564.273 310.586 563.943C310.765 563.613 311.017 563.355 311.341 563.169C311.672 562.984 312.057 562.891 312.497 562.891C312.943 562.891 313.326 562.984 313.644 563.169C313.969 563.355 314.221 563.613 314.4 563.943C314.58 564.273 314.669 564.661 314.669 565.107C314.669 565.547 314.577 565.936 314.391 566.272C314.212 566.607 313.96 566.868 313.635 567.054C313.311 567.233 312.926 567.326 312.48 567.332ZM312.488 566.489C312.732 566.489 312.94 566.428 313.114 566.306C313.288 566.185 313.421 566.02 313.514 565.811C313.612 565.602 313.662 565.368 313.662 565.107C313.662 564.841 313.615 564.603 313.522 564.395C313.43 564.186 313.297 564.024 313.123 563.908C312.949 563.786 312.74 563.726 312.497 563.726C312.265 563.726 312.06 563.786 311.88 563.908C311.701 564.03 311.562 564.195 311.463 564.403C311.37 564.612 311.321 564.846 311.315 565.107C311.315 565.374 311.362 565.611 311.454 565.82C311.547 566.028 311.683 566.193 311.863 566.315C312.042 566.431 312.251 566.489 312.488 566.489Z" fill="#C9C5D0"/>
<path d="M319.159 563.05C319.159 563.025 319.139 563.004 319.114 563.004H318.222C318.197 563.004 318.177 563.025 318.177 563.05V567.497C318.177 567.792 318.067 567.976 317.847 568.138C317.632 568.3 317.391 568.353 317.05 568.359C316.812 568.353 316.589 568.332 316.392 568.268C316.208 568.214 316.005 568.134 315.795 568.029C315.772 568.017 315.744 568.027 315.733 568.05L315.412 568.733C315.403 568.753 315.409 568.776 315.427 568.788C315.525 568.855 315.639 568.914 315.77 568.967C315.915 569.025 316.063 569.071 316.213 569.106C316.37 569.146 316.531 569.18 316.67 569.197C316.815 569.215 316.952 569.217 317.039 569.217C317.479 569.217 317.855 569.148 318.168 569.009C318.487 568.87 318.73 568.673 318.898 568.418C319.072 568.163 319.159 567.859 319.159 567.505V563.05ZM318.449 565.928C318.436 565.896 318.394 565.89 318.372 565.916C318.201 566.112 318.028 566.251 317.864 566.341C317.69 566.44 317.491 566.489 317.265 566.489C317.033 566.489 316.83 566.431 316.656 566.315C316.488 566.193 316.361 566.028 316.274 565.82C316.187 565.611 316.144 565.371 316.144 565.098C316.144 564.838 316.187 564.606 316.274 564.403C316.361 564.195 316.488 564.03 316.656 563.908C316.83 563.786 317.036 563.726 317.273 563.726C317.493 563.726 317.667 563.772 317.847 563.865C318.014 563.948 318.193 564.14 318.346 564.34C318.368 564.368 318.412 564.362 318.425 564.33L318.672 563.748C318.678 563.734 318.676 563.718 318.668 563.705C318.356 563.259 317.83 562.891 317.231 562.891C316.796 562.891 316.454 562.984 316.135 563.169C315.816 563.355 315.57 563.613 315.396 563.943C315.228 564.273 315.144 564.658 315.144 565.098C315.144 565.55 315.228 565.944 315.396 566.28C315.564 566.61 315.805 566.868 316.118 567.054C316.436 567.239 316.813 567.332 317.247 567.332C317.409 567.332 317.577 567.3 317.751 567.236C317.931 567.178 318.105 567.091 318.273 566.975C318.433 566.864 318.575 566.732 318.699 566.579C318.709 566.566 318.712 566.549 318.705 566.534L318.449 565.928Z" fill="#C9C5D0"/>
<path d="M322.432 563.084C322.432 563.059 322.412 563.039 322.387 563.039H321.418C321.393 563.039 321.372 563.019 321.372 562.994V561.809C321.372 561.784 321.352 561.763 321.327 561.763H320.444C320.419 561.763 320.399 561.784 320.399 561.809V562.994C320.399 563.019 320.379 563.039 320.354 563.039H319.763C319.738 563.039 319.718 563.06 319.718 563.085L319.726 563.82C319.726 563.845 319.746 563.865 319.771 563.865H320.354C320.379 563.865 320.399 563.885 320.399 563.91V565.959C320.399 566.266 320.46 566.526 320.582 566.741C320.709 566.949 320.883 567.109 321.103 567.219C321.323 567.329 321.59 567.384 321.902 567.384C321.989 567.384 322.082 567.372 322.18 567.349C322.285 567.326 322.385 567.301 322.472 567.267C322.55 567.238 322.701 567.162 322.778 567.117C322.799 567.105 322.805 567.079 322.793 567.059L322.435 566.426C322.423 566.406 322.399 566.398 322.378 566.406C322.32 566.428 322.26 566.447 322.198 566.461C322.122 566.478 322.047 566.487 321.972 566.487C321.769 566.487 321.618 566.466 321.52 566.332C321.422 566.193 321.372 566.017 321.372 565.802V563.91C321.372 563.885 321.393 563.865 321.418 563.865H322.387C322.412 563.865 322.432 563.844 322.432 563.819V563.084Z" fill="#C9C5D0"/>
<path d="M325.069 567.332C324.623 567.332 324.238 567.239 323.914 567.054C323.589 566.868 323.34 566.61 323.166 566.28C322.992 565.944 322.906 565.556 322.906 565.116C322.906 564.664 322.995 564.273 323.175 563.943C323.355 563.613 323.607 563.355 323.931 563.169C324.261 562.984 324.646 562.891 325.087 562.891C325.533 562.891 325.915 562.984 326.234 563.169C326.558 563.355 326.81 563.613 326.99 563.943C327.169 564.273 327.259 564.661 327.259 565.107C327.259 565.547 327.166 565.936 326.981 566.272C326.801 566.607 326.549 566.868 326.225 567.054C325.9 567.233 325.515 567.326 325.069 567.332ZM325.078 566.489C325.321 566.489 325.53 566.428 325.704 566.306C325.877 566.185 326.011 566.02 326.103 565.811C326.202 565.602 326.251 565.368 326.251 565.107C326.251 564.841 326.205 564.603 326.112 564.395C326.019 564.186 325.886 564.024 325.712 563.908C325.538 563.786 325.33 563.726 325.087 563.726C324.855 563.726 324.649 563.786 324.47 563.908C324.29 564.03 324.151 564.195 324.053 564.403C323.96 564.612 323.911 564.846 323.905 565.107C323.905 565.374 323.951 565.611 324.044 565.82C324.137 566.028 324.273 566.193 324.452 566.315C324.632 566.431 324.84 566.489 325.078 566.489Z" fill="#C9C5D0"/>
<path d="M309.944 566.454C309.944 566.429 309.923 566.409 309.898 566.409H307.565C307.54 566.409 307.52 566.388 307.52 566.363V561.582C307.52 561.557 307.5 561.537 307.475 561.537H306.601C306.576 561.537 306.556 561.557 306.556 561.582V567.286C306.556 567.311 306.576 567.332 306.601 567.332H309.898C309.923 567.332 309.944 567.311 309.944 567.286V566.454Z" fill="#C9C5D0"/>
</g>
</g>
<g filter="url(#filter1_b_587_32496)">
<rect width="578" height="649" fill="url(#paint0_linear_587_32496)"/>
</g>
</g>
<defs>
<filter id="filter0_d_587_32496" x="155" y="48" width="267.693" height="561" filterUnits="userSpaceOnUse" color-interpolation-filters="sRGB">
<feFlood flood-opacity="0" result="BackgroundImageFix"/>
<feColorMatrix in="SourceAlpha" type="matrix" values="0 0 0 0 0 0 0 0 0 0 0 0 0 0 0 0 0 0 127 0" result="hardAlpha"/>
<feOffset dy="4"/>
<feGaussianBlur stdDeviation="4"/>
<feComposite in2="hardAlpha" operator="out"/>
<feColorMatrix type="matrix" values="0 0 0 0 0.258824 0 0 0 0 0.160784 0 0 0 0 0.623529 0 0 0 0.08 0"/>
<feBlend mode="normal" in2="BackgroundImageFix" result="effect1_dropShadow_587_32496"/>
<feBlend mode="normal" in="SourceGraphic" in2="effect1_dropShadow_587_32496" result="shape"/>
</filter>
<filter id="filter1_b_587_32496" x="-50" y="-50" width="678" height="749" filterUnits="userSpaceOnUse" color-interpolation-filters="sRGB">
<feFlood flood-opacity="0" result="BackgroundImageFix"/>
<feGaussianBlur in="BackgroundImageFix" stdDeviation="25"/>
<feComposite in2="SourceAlpha" operator="in" result="effect1_backgroundBlur_587_32496"/>
<feBlend mode="normal" in="SourceGraphic" in2="effect1_backgroundBlur_587_32496" result="shape"/>
</filter>
<linearGradient id="paint0_linear_587_32496" x1="289" y1="111" x2="289" y2="649" gradientUnits="userSpaceOnUse">
<stop stop-opacity="0.6"/>
<stop offset="1" stop-opacity="0.1"/>
</linearGradient>
<clipPath id="clip0_587_32496">
<rect width="578" height="649" fill="white"/>
</clipPath>
<clipPath id="clip1_587_32496">
<rect x="163" y="52" width="251.693" height="545" rx="12" fill="white"/>
</clipPath>
<clipPath id="clip2_587_32496">
<rect width="6.20468" height="7.75585" fill="white" transform="translate(297.979 560.546)"/>
</clipPath>
</defs>
</svg>
