<svg width="24" height="24" viewBox="0 0 24 24" fill="none" xmlns="http://www.w3.org/2000/svg">
<path d="M16.0722 5.45703C15.3364 4.8519 14.4748 4.41865 13.5503 4.18891C12.6258 3.95916 11.6616 3.9387 10.7282 4.12903C9.48528 4.38009 8.34496 4.99469 7.45192 5.89486C6.55888 6.79502 5.95335 7.94018 5.71217 9.18503C5.53605 10.1184 5.56805 11.0792 5.8059 11.9987C6.04375 12.9183 6.48158 13.7741 7.08817 14.505C7.65112 15.1403 7.9738 15.9526 8.00017 16.801V19.201C8.00017 19.8376 8.25303 20.448 8.70312 20.8981C9.1532 21.3482 9.76365 21.601 10.4002 21.601H13.6002C14.2367 21.601 14.8471 21.3482 15.2972 20.8981C15.7473 20.448 16.0002 19.8376 16.0002 19.201V16.953C16.027 16.0164 16.3711 15.1166 16.9762 14.401C18.0363 13.0897 18.536 11.4129 18.3667 9.73513C18.1974 8.05738 17.3729 6.51422 16.0722 5.44103V5.45703ZM14.4002 19.201C14.4002 19.4132 14.3159 19.6167 14.1659 19.7667C14.0158 19.9167 13.8123 20.001 13.6002 20.001H10.4002C10.188 20.001 9.98452 19.9167 9.83449 19.7667C9.68446 19.6167 9.60017 19.4132 9.60017 19.201V18.401H14.4002V19.201Z" fill="url(#paint0_linear_1175_2653)"/>
<path d="M16.0719 5.45703C15.3362 4.8519 14.4746 4.41865 13.5501 4.18891C12.6255 3.95916 11.6614 3.9387 10.7279 4.12903C9.48503 4.38009 8.34472 4.99469 7.45168 5.89486C6.55863 6.79502 5.95311 7.94018 5.71193 9.18503C5.53581 10.1184 5.56781 11.0792 5.80566 11.9987C6.04351 12.9183 6.48134 13.7741 7.08793 14.505C7.65088 15.1403 7.97356 15.9526 7.99993 16.801V19.201C7.99993 19.8376 8.25279 20.448 8.70287 20.8981C9.15296 21.3482 9.76341 21.601 10.3999 21.601H13.5999C14.2364 21.601 14.8469 21.3482 15.297 20.8981C15.7471 20.448 15.9999 19.8376 15.9999 19.201V16.953C16.0268 16.0164 16.3709 15.1166 16.9759 14.401C18.036 13.0897 18.5357 11.4129 18.3665 9.73513C18.1972 8.05738 17.3726 6.51422 16.0719 5.44103V5.45703ZM14.3999 19.201C14.3999 19.4132 14.3156 19.6167 14.1656 19.7667C14.0156 19.9167 13.8121 20.001 13.5999 20.001H10.3999C10.1878 20.001 9.98427 19.9167 9.83424 19.7667C9.68421 19.6167 9.59993 19.4132 9.59993 19.201V18.401H14.3999V19.201ZM15.7359 13.409C14.9315 14.3631 14.4622 15.5547 14.3999 16.801H12.7999V14.401C12.7999 14.1889 12.7156 13.9854 12.5656 13.8353C12.4156 13.6853 12.2121 13.601 11.9999 13.601C11.7878 13.601 11.5843 13.6853 11.4342 13.8353C11.2842 13.9854 11.1999 14.1889 11.1999 14.401V16.801H9.59993C9.57882 15.5755 9.12549 14.3968 8.31993 13.473C7.78844 12.8362 7.43104 12.0726 7.28258 11.2565C7.13411 10.4405 7.19965 9.59984 7.4728 8.81666C7.74595 8.03347 8.21739 7.33443 8.84115 6.78769C9.46491 6.24096 10.2197 5.86519 11.0319 5.69703C11.73 5.55331 12.4513 5.56683 13.1434 5.73661C13.8356 5.90639 14.4813 6.22817 15.0336 6.67859C15.5859 7.12902 16.0309 7.69677 16.3365 8.34065C16.642 8.98452 16.8003 9.68835 16.7999 10.401C16.8059 11.4969 16.4296 12.5606 15.7359 13.409Z" fill="#191C1D"/>
<defs>
<linearGradient id="paint0_linear_1175_2653" x1="5.60022" y1="12.8005" x2="18.3991" y2="12.8005" gradientUnits="userSpaceOnUse">
<stop stop-color="#FF930F"/>
<stop offset="1" stop-color="#FFF95B"/>
</linearGradient>
</defs>
</svg>
