<svg width="48" height="48" viewBox="0 0 48 48" fill="none" xmlns="http://www.w3.org/2000/svg">
<rect opacity="0.3" width="48" height="48" rx="16" fill="#F9CDD4"/>
<g clip-path="url(#clip0_1770_36648)">
<path d="M24 37.5C31.4558 37.5 37.5 34.1421 37.5 30C37.5 25.8579 31.4558 22.5 24 22.5C16.5442 22.5 10.5 25.8579 10.5 30C10.5 34.1421 16.5442 37.5 24 37.5Z" fill="#8899A6"/>
<path d="M24 36.1875C31.4558 36.1875 37.5 32.8296 37.5 28.6875C37.5 24.5454 31.4558 21.1875 24 21.1875C16.5442 21.1875 10.5 24.5454 10.5 28.6875C10.5 32.8296 16.5442 36.1875 24 36.1875Z" fill="#CCD6DD"/>
<path d="M35.0063 28.2637C35.0063 31.4587 30.0788 34.0477 24 34.0477C17.9213 34.0477 12.9938 31.4587 12.9938 28.2637C12.9938 25.0702 17.9213 22.4805 24 22.4805C30.078 22.4805 35.0063 25.0702 35.0063 28.2637Z" fill="#DD2E44"/>
<path d="M34.6747 27.4073C34.6747 34.7978 13.3252 34.7978 13.3252 27.4073V20.838H34.6747V27.4073Z" fill="#F4ABBA"/>
<path d="M23.988 24.1245C17.25 24.1245 13.3245 21.0255 13.3245 21.0255C13.3245 21.0255 13.3125 21.7185 13.3125 22.2893C13.3125 22.2893 13.3365 25.9628 15.2415 25.9628C17.0858 25.9628 16.9515 27.7238 18.117 27.906C19.2727 28.0868 19.401 27.2025 20.8358 27.2025C22.2705 27.2025 22.5232 28.782 23.988 28.782C25.7047 28.782 25.8457 27.2025 27.2797 27.2025C28.7137 27.2025 28.8788 28.1205 29.8193 27.8663C30.9495 27.5603 30.4298 25.9635 32.7345 25.9635C34.6395 25.9635 34.6868 22.4775 34.6868 22.4775C34.6868 21.9075 34.674 21.0263 34.674 21.0263C34.674 21.0263 30.7267 24.1245 23.988 24.1245Z" fill="#DD2E44"/>
<path d="M35.0063 20.0527C35.0063 23.247 30.0788 25.8367 24 25.8367C17.9213 25.8367 12.9938 23.247 12.9938 20.0527C12.9938 16.8585 17.9213 14.2687 24 14.2687C30.078 14.2687 35.0063 16.8585 35.0063 20.0527Z" fill="#EA596E"/>
<path d="M29.748 20.838C29.2943 20.838 28.9268 20.4705 28.9268 20.0168V14.2688C28.9268 13.815 29.2943 13.4475 29.748 13.4475C30.2018 13.4475 30.5693 13.815 30.5693 14.2688V20.0168C30.5693 20.4705 30.2018 20.838 29.748 20.838Z" fill="#FFF8E8"/>
<path d="M29.7481 15.5002C28.8766 15.5002 28.1911 15.1012 27.9143 14.433C27.6743 13.8532 27.5551 12.5955 29.4578 10.6935C29.6183 10.533 29.8778 10.533 30.0383 10.6935C31.9411 12.5962 31.8218 13.8532 31.5818 14.433C31.3051 15.1012 30.6196 15.5002 29.7481 15.5002Z" fill="#FAAA35"/>
<path d="M24 23.301C23.5462 23.301 23.1787 22.9335 23.1787 22.4798V16.7325C23.1787 16.2788 23.5462 15.9113 24 15.9113C24.4537 15.9113 24.8212 16.2788 24.8212 16.7325V22.4805C24.8212 22.9335 24.4537 23.301 24 23.301Z" fill="#FFF8E8"/>
<path d="M24 17.964C23.1285 17.964 22.443 17.565 22.1662 16.8967C21.9255 16.317 21.807 15.0592 23.7097 13.1572C23.8702 12.9967 24.1297 12.9967 24.2902 13.1572C26.193 15.06 26.0737 16.317 25.8337 16.8967C25.557 17.565 24.8715 17.964 24 17.964Z" fill="#FAAA35"/>
<path d="M18.252 20.838C17.7983 20.838 17.4308 20.4705 17.4308 20.0168V14.2688C17.4308 13.815 17.7983 13.4475 18.252 13.4475C18.7058 13.4475 19.0733 13.815 19.0733 14.2688V20.0168C19.0733 20.4705 18.7058 20.838 18.252 20.838Z" fill="#FFF8E8"/>
<path d="M18.252 15.5002C17.3805 15.5002 16.695 15.1012 16.4183 14.433C16.1775 13.8532 16.059 12.5955 17.9618 10.6935C18.1223 10.533 18.3818 10.533 18.5423 10.6935C20.445 12.5962 20.3258 13.8532 20.0858 14.433C19.809 15.1012 19.1235 15.5002 18.252 15.5002Z" fill="#FAAA35"/>
</g>
<defs>
<clipPath id="clip0_1770_36648">
<rect width="27" height="27" fill="white" transform="translate(10.5 10.5)"/>
</clipPath>
</defs>
</svg>
