<svg width="36" height="36" viewBox="0 0 36 36" fill="none" xmlns="http://www.w3.org/2000/svg">
<path d="M28.8149 4H30.8109V5H28.8149V4Z" fill="#66757F"/>
<path d="M2 9V29.8333C2 32.1344 3.791 34 6 34H30C32.209 34 34 32.1344 34 29.8333V9H2Z" fill="#C9C5D0"/>
<path d="M30 2H6C3.791 2 2 3.393 2 5.11111V9H34V5.11111C34 3.393 32.209 2 30 2Z" fill="#DD3730"/>
<path d="M11 13C11 12.4477 11.4477 12 12 12H14C14.5523 12 15 12.4477 15 13V15C15 15.5523 14.5523 16 14 16H12C11.4477 16 11 15.5523 11 15V13ZM16 13C16 12.4477 16.4477 12 17 12H19C19.5523 12 20 12.4477 20 13V15C20 15.5523 19.5523 16 19 16H17C16.4477 16 16 15.5523 16 15V13ZM21 13C21 12.4477 21.4477 12 22 12H24C24.5523 12 25 12.4477 25 13V15C25 15.5523 24.5523 16 24 16H22C21.4477 16 21 15.5523 21 15V13ZM26 13C26 12.4477 26.4477 12 27 12H29C29.5523 12 30 12.4477 30 13V15C30 15.5523 29.5523 16 29 16H27C26.4477 16 26 15.5523 26 15V13ZM6 18C6 17.4477 6.44772 17 7 17H9C9.55228 17 10 17.4477 10 18V20C10 20.5523 9.55228 21 9 21H7C6.44772 21 6 20.5523 6 20V18ZM11 18C11 17.4477 11.4477 17 12 17H14C14.5523 17 15 17.4477 15 18V20C15 20.5523 14.5523 21 14 21H12C11.4477 21 11 20.5523 11 20V18ZM16 18C16 17.4477 16.4477 17 17 17H19C19.5523 17 20 17.4477 20 18V20C20 20.5523 19.5523 21 19 21H17C16.4477 21 16 20.5523 16 20V18ZM21 18C21 17.4477 21.4477 17 22 17H24C24.5523 17 25 17.4477 25 18V20C25 20.5523 24.5523 21 24 21H22C21.4477 21 21 20.5523 21 20V18ZM26 18C26 17.4477 26.4477 17 27 17H29C29.5523 17 30 17.4477 30 18V20C30 20.5523 29.5523 21 29 21H27C26.4477 21 26 20.5523 26 20V18ZM6 23C6 22.4477 6.44772 22 7 22H9C9.55228 22 10 22.4477 10 23V25C10 25.5523 9.55228 26 9 26H7C6.44772 26 6 25.5523 6 25V23ZM11 23C11 22.4477 11.4477 22 12 22H14C14.5523 22 15 22.4477 15 23V25C15 25.5523 14.5523 26 14 26H12C11.4477 26 11 25.5523 11 25V23ZM16 23C16 22.4477 16.4477 22 17 22H19C19.5523 22 20 22.4477 20 23V25C20 25.5523 19.5523 26 19 26H17C16.4477 26 16 25.5523 16 25V23ZM21 23C21 22.4477 21.4477 22 22 22H24C24.5523 22 25 22.4477 25 23V25C25 25.5523 24.5523 26 24 26H22C21.4477 26 21 25.5523 21 25V23ZM26 23C26 22.4477 26.4477 22 27 22H29C29.5523 22 30 22.4477 30 23V25C30 25.5523 29.5523 26 29 26H27C26.4477 26 26 25.5523 26 25V23ZM6 28C6 27.4477 6.44772 27 7 27H9C9.55228 27 10 27.4477 10 28V30C10 30.5523 9.55228 31 9 31H7C6.44772 31 6 30.5523 6 30V28ZM11 28C11 27.4477 11.4477 27 12 27H14C14.5523 27 15 27.4477 15 28V30C15 30.5523 14.5523 31 14 31H12C11.4477 31 11 30.5523 11 30V28ZM16 28C16 27.4477 16.4477 27 17 27H19C19.5523 27 20 27.4477 20 28V30C20 30.5523 19.5523 31 19 31H17C16.4477 31 16 30.5523 16 30V28Z" fill="white"/>
</svg>
