<svg width="16" height="16" viewBox="0 0 16 16" fill="none" xmlns="http://www.w3.org/2000/svg">
<path d="M8.47345 9.88663L11.3001 7.05996C11.3626 6.99799 11.4122 6.92425 11.446 6.84301C11.4799 6.76177 11.4973 6.67464 11.4973 6.58663C11.4973 6.49862 11.4799 6.41148 11.446 6.33024C11.4122 6.249 11.3626 6.17527 11.3001 6.1133C11.1752 5.98913 11.0062 5.91943 10.8301 5.91943C10.654 5.91943 10.485 5.98913 10.3601 6.1133L8.00012 8.47329L5.64012 6.11329C5.51521 5.98913 5.34624 5.91943 5.17012 5.91943C4.99399 5.91943 4.82502 5.98913 4.70012 6.11329C4.63833 6.17559 4.58944 6.24947 4.55627 6.33069C4.52309 6.41192 4.50628 6.49889 4.50678 6.58663C4.50628 6.67437 4.52309 6.76134 4.55627 6.84257C4.58944 6.92379 4.63833 6.99767 4.70012 7.05996L7.52678 9.88663C7.58876 9.94911 7.66249 9.99871 7.74373 10.0326C7.82497 10.0664 7.91211 10.0838 8.00012 10.0838C8.08812 10.0838 8.17526 10.0664 8.2565 10.0326C8.33774 9.99871 8.41147 9.94911 8.47345 9.88663Z" fill="currentColor"/>
</svg>
