<svg width="48" height="48" viewBox="0 0 48 48" fill="none" xmlns="http://www.w3.org/2000/svg">
<path d="M0 8C0 3.58172 3.58172 0 8 0H40C44.4183 0 48 3.58172 48 8V40C48 44.4183 44.4183 48 40 48H8C3.58172 48 0 44.4183 0 40V8Z" fill="#3A3B59"/>
<rect x="12" y="6" width="20" height="36" rx="4" fill="url(#paint0_linear_289_11388)"/>
<circle cx="22" cy="38" r="1.5" stroke="#F5EEFF"/>
<path d="M17 6H27V8C27 8.55228 26.5523 9 26 9H18C17.4477 9 17 8.55228 17 8V6Z" fill="#5938A3"/>
<path d="M41.5 24C41.5 24.0667 41.4631 24.2311 41.3162 24.5033C41.1765 24.7621 40.9619 25.0736 40.673 25.4201C40.0959 26.1121 39.2493 26.911 38.1938 27.6685C36.0789 29.1863 33.179 30.5 30 30.5C26.821 30.5 23.9211 29.1863 21.8062 27.6685C20.7507 26.911 19.9041 26.1121 19.327 25.4201C19.0381 25.0736 18.8235 24.7621 18.6838 24.5033C18.5369 24.2311 18.5 24.0667 18.5 24C18.5 23.9333 18.5369 23.7689 18.6838 23.4967C18.8235 23.2379 19.0381 22.9264 19.327 22.5799C19.9041 21.8879 20.7507 21.089 21.8062 20.3315C23.9211 18.8137 26.821 17.5 30 17.5C33.179 17.5 36.0789 18.8137 38.1938 20.3315C39.2493 21.089 40.0959 21.8879 40.673 22.5799C40.9619 22.9264 41.1765 23.2379 41.3162 23.4967C41.4631 23.7689 41.5 23.9333 41.5 24Z" fill="#F5EEFF" stroke="#343653"/>
<circle cx="30" cy="24" r="4" fill="#191C1D"/>
<circle cx="33" cy="24" r="2" fill="#F07EFF"/>
<rect x="30" y="12" width="1" height="4" rx="0.5" fill="#F4E560"/>
<rect x="36.5605" y="13.2324" width="1" height="4" rx="0.5" transform="rotate(45 36.5605 13.2324)" fill="#7072A0"/>
<rect width="1" height="4" rx="0.5" transform="matrix(0.707107 -0.707107 -0.707107 -0.707107 26.5605 16.7681)" fill="#F4E560"/>
<defs>
<linearGradient id="paint0_linear_289_11388" x1="10.3571" y1="26.625" x2="33.6675" y2="21.8434" gradientUnits="userSpaceOnUse">
<stop stop-color="#492EF3"/>
<stop offset="1" stop-color="#CF69FF"/>
</linearGradient>
</defs>
</svg>
