<svg width="90" height="28" viewBox="0 0 90 28" fill="none" xmlns="http://www.w3.org/2000/svg">
<path fill-rule="evenodd" clip-rule="evenodd" d="M1.16669 4.3721C1.16669 3.56761 1.16669 3.16536 1.32268 2.8416C1.46015 2.55628 1.68125 2.31445 1.95962 2.14493C2.2755 1.95257 2.69546 1.89547 3.53539 1.78127L15.5143 0.152599C16.6016 0.00476458 17.1452 -0.0691527 17.5677 0.0869177C17.9386 0.223923 18.2481 0.478287 18.4438 0.806904C18.6667 1.18125 18.6667 1.70198 18.6667 2.74343V25.2566C18.6667 26.298 18.6667 26.8188 18.4438 27.1931C18.2481 27.5217 17.9386 27.7761 17.5677 27.9131C17.1452 28.0692 16.6016 27.9952 15.5143 27.8474L3.53539 26.2187H3.53537C2.69546 26.1045 2.2755 26.0474 1.95962 25.8551C1.68125 25.6856 1.46015 25.4437 1.32268 25.1584C1.16669 24.8346 1.16669 24.4324 1.16669 23.6279V4.3721ZM14 11.9629C14 11.7179 14 11.5954 14.0412 11.4986C14.0774 11.4133 14.1355 11.3421 14.2081 11.294C14.2905 11.2393 14.3994 11.2283 14.6173 11.2061L15.5931 11.1068C15.8499 11.0806 15.9782 11.0676 16.0773 11.1155C16.1644 11.1576 16.2364 11.2312 16.2817 11.3245C16.3333 11.4306 16.3334 11.575 16.3334 11.8636V16.1364C16.3334 16.425 16.3333 16.5694 16.2817 16.6755C16.2364 16.7688 16.1644 16.8424 16.0773 16.8845C15.9782 16.9324 15.8499 16.9194 15.5931 16.8932L14.6174 16.7939C14.3994 16.7717 14.2905 16.7607 14.2081 16.706C14.1355 16.6579 14.0774 16.5867 14.0412 16.5014C14 16.4046 14 16.2821 14 16.0371V11.9629ZM21.9593 2.91667H20.4167V25.6667H21.9593C22.8486 25.6667 23.2933 25.6667 23.633 25.4931C23.9318 25.3404 24.1747 25.0968 24.3269 24.7971C24.5 24.4565 24.5 24.0106 24.5 23.1187V5.46467C24.5 4.57278 24.5 4.12684 24.3269 3.78619C24.1747 3.48654 23.9318 3.24292 23.633 3.09024C23.2933 2.91667 22.8486 2.91667 21.9593 2.91667Z" fill="url(#paint0_linear_193_5093)"/>
<path d="M49.8924 21.467C48.6938 21.467 47.6586 21.2179 46.7868 20.7197C45.9151 20.2216 45.2457 19.5289 44.7787 18.6416C44.3117 17.7387 44.0782 16.6957 44.0782 15.5126C44.0782 14.2984 44.3195 13.2477 44.8021 12.3604C45.2846 11.473 45.9618 10.7803 46.8335 10.2822C47.7208 9.78404 48.756 9.53497 49.9391 9.53497C51.1378 9.53497 52.1652 9.78404 53.0213 10.2822C53.8931 10.7803 54.5702 11.473 55.0528 12.3604C55.5354 13.2477 55.7767 14.2906 55.7767 15.4893C55.7767 16.6724 55.5276 17.7153 55.0295 18.6182C54.5469 19.5211 53.8697 20.2216 52.998 20.7197C52.1263 21.2023 51.0911 21.4514 49.8924 21.467ZM49.9158 19.202C50.5696 19.202 51.13 19.0385 51.597 18.7116C52.064 18.3847 52.422 17.9411 52.6711 17.3807C52.9357 16.8203 53.068 16.1898 53.068 15.4893C53.068 14.7732 52.9435 14.135 52.6944 13.5746C52.4454 13.0142 52.0873 12.5783 51.6203 12.267C51.1533 11.94 50.5929 11.7766 49.9391 11.7766C49.3164 11.7766 48.7638 11.94 48.2812 12.267C47.7987 12.5939 47.4251 13.0375 47.1604 13.5979C46.9114 14.1583 46.779 14.7888 46.7635 15.4893C46.7635 16.2054 46.888 16.8436 47.1371 17.404C47.3862 17.9644 47.752 18.4081 48.2345 18.735C48.7171 19.0463 49.2775 19.202 49.9158 19.202Z" fill="currentColor"/>
<path d="M68.0061 9.96034C68.0061 9.89306 67.9516 9.83852 67.8843 9.83852H65.4894C65.4221 9.83852 65.3676 9.89306 65.3676 9.96034V21.9106C65.3676 22.7045 65.0718 23.1976 64.4802 23.6335C63.9043 24.0693 63.2564 24.2118 62.338 24.2274C61.6997 24.2118 61.1009 24.155 60.5717 23.9837C60.0752 23.8377 59.5319 23.6232 58.9654 23.3402C58.9037 23.3094 58.8285 23.335 58.7992 23.3974L57.9384 25.2323C57.9135 25.2853 57.9297 25.3487 57.9781 25.3816C58.2408 25.5604 58.5479 25.7201 58.8995 25.8608C59.2887 26.0164 59.6857 26.141 60.0904 26.2344C60.5107 26.3433 60.9449 26.4342 61.3185 26.4809C61.7077 26.5276 62.0752 26.534 62.3087 26.534C63.4918 26.534 64.5036 26.3472 65.3442 25.9736C66.2004 25.5999 66.8542 25.0707 67.3056 24.3857C67.7726 23.7008 68.0061 22.8835 68.0061 21.934V9.96034ZM66.0998 17.6947C66.0641 17.6102 65.9514 17.5938 65.8912 17.663C65.4328 18.19 64.9677 18.5633 64.5269 18.805C64.0599 19.0697 63.5229 19.202 62.9158 19.202C62.2931 19.202 61.7483 19.0463 61.2813 18.735C60.8298 18.4081 60.4874 17.9644 60.2539 17.404C60.0203 16.8436 59.9036 16.1976 59.9036 15.4659C59.9036 14.7654 60.0203 14.1428 60.2539 13.5979C60.4874 13.0375 60.8298 12.5939 61.2813 12.267C61.7483 11.94 62.3009 11.7766 62.9391 11.7766C63.5307 11.7766 63.9977 11.9011 64.4802 12.1502C64.9308 12.3755 65.4103 12.8899 65.8228 13.4271C65.8803 13.502 65.9979 13.488 66.0347 13.4011L66.6974 11.8377C66.7135 11.7996 66.7094 11.756 66.6858 11.722C65.8498 10.5222 64.4354 9.53497 62.8252 9.53497C61.6577 9.53497 60.7364 9.78404 59.8803 10.2822C59.0241 10.7803 58.3625 11.473 57.8955 12.3604C57.444 13.2477 57.2183 14.2829 57.2183 15.4659C57.2183 16.6801 57.444 17.7387 57.8955 18.6416C58.3469 19.5289 58.9929 20.2216 59.8335 20.7197C60.6897 21.2179 61.7016 21.467 62.8691 21.467C63.305 21.467 63.7564 21.3813 64.2234 21.2101C64.706 21.0544 65.173 20.8209 65.6244 20.5096C66.0563 20.2117 66.4384 19.8569 66.7705 19.445C66.7984 19.4105 66.8046 19.3634 66.7873 19.3226L66.0998 17.6947Z" fill="currentColor"/>
<path d="M77.0356 10.0537C77.0356 9.98646 76.9811 9.93193 76.9138 9.93193H74.3087C74.2414 9.93193 74.1869 9.87739 74.1869 9.81011V6.62518C74.1869 6.55791 74.1324 6.50337 74.0651 6.50337H71.6935C71.6262 6.50337 71.5717 6.55791 71.5717 6.62518V9.81011C71.5717 9.87739 71.5171 9.93193 71.4499 9.93193H69.8633C69.7956 9.93193 69.7408 9.98725 69.7415 10.055L69.7623 12.0297C69.763 12.0964 69.8173 12.1502 69.8841 12.1502H71.4499C71.5171 12.1502 71.5717 12.2047 71.5717 12.272V17.7776C71.5717 18.6027 71.7351 19.3032 72.062 19.8791C72.4045 20.4395 72.8715 20.8676 73.463 21.1634C74.0546 21.4592 74.7707 21.6071 75.6113 21.6071C75.8448 21.6071 76.0938 21.5759 76.3585 21.5137C76.6387 21.4514 76.9094 21.3858 77.1429 21.2924C77.3514 21.2143 77.7575 21.0105 77.9646 20.8904C78.0197 20.8585 78.0367 20.7889 78.0056 20.7334L77.042 19.0346C77.0117 18.9807 76.946 18.9582 76.8882 18.9802C76.7325 19.0396 76.5715 19.0885 76.4052 19.1269C76.2028 19.1736 76.0004 19.1969 75.7981 19.1969C75.2532 19.1969 74.8485 19.1397 74.5839 18.7817C74.3192 18.4081 74.1869 17.9333 74.1869 17.3573V12.272C74.1869 12.2047 74.2414 12.1502 74.3087 12.1502H76.9138C76.9811 12.1502 77.0356 12.0957 77.0356 12.0284V10.0537Z" fill="currentColor"/>
<path d="M83.9491 21.4611C82.7504 21.4611 81.7152 21.2121 80.8435 20.7139C79.9717 20.2158 79.3024 19.5231 78.8353 18.6358C78.3683 17.7329 78.1348 16.6899 78.1348 15.5068C78.1348 14.2926 78.3761 13.2418 78.8587 12.3545C79.3413 11.4672 80.0184 10.7745 80.8902 10.2764C81.7775 9.77822 82.8127 9.52916 83.9958 9.52916C85.1944 9.52916 86.2218 9.77822 87.078 10.2764C87.9497 10.7745 88.6269 11.4672 89.1095 12.3545C89.592 13.2418 89.8333 14.2848 89.8333 15.4835C89.8333 16.6665 89.5842 17.7095 89.0861 18.6124C88.6035 19.5153 87.9264 20.2158 87.0546 20.7139C86.1829 21.1965 85.1477 21.4456 83.9491 21.4611ZM83.9724 19.1962C84.6262 19.1962 85.1866 19.0327 85.6536 18.7058C86.1206 18.3789 86.4787 17.9352 86.7277 17.3748C86.9924 16.8144 87.1247 16.184 87.1247 15.4835C87.1247 14.7674 87.0002 14.1292 86.7511 13.5687C86.502 13.0083 86.144 12.5725 85.677 12.2611C85.21 11.9342 84.6496 11.7708 83.9958 11.7708C83.3731 11.7708 82.8205 11.9342 82.3379 12.2611C81.8553 12.588 81.4817 13.0317 81.2171 13.5921C80.968 14.1525 80.8357 14.783 80.8201 15.4835C80.8201 16.1995 80.9446 16.8378 81.1937 17.3982C81.4428 17.9586 81.8086 18.4023 82.2912 18.7292C82.7738 19.0405 83.3342 19.1962 83.9724 19.1962Z" fill="currentColor"/>
<path d="M42.9703 19.1086C42.9703 19.0413 42.9158 18.9868 42.8485 18.9868H36.547C36.4797 18.9868 36.4252 18.9322 36.4252 18.8649V6.59945C36.4252 6.53217 36.3707 6.47763 36.3034 6.47763H33.9551C33.8879 6.47763 33.8333 6.53217 33.8333 6.59945V21.3451C33.8333 21.4124 33.8879 21.467 33.9551 21.467H42.8485C42.9158 21.467 42.9703 21.4124 42.9703 21.3451V19.1086Z" fill="currentColor"/>
<defs>
<linearGradient id="paint0_linear_193_5093" x1="-6.05554" y1="19.3639" x2="22.6856" y2="7.61464" gradientUnits="userSpaceOnUse">
<stop stop-color="#4B2EFB"/>
<stop offset="1" stop-color="#E65FFC"/>
</linearGradient>
</defs>
</svg>
