<svg width="256" height="256" viewBox="0 0 256 256" fill="none" xmlns="http://www.w3.org/2000/svg">
<path fill-rule="evenodd" clip-rule="evenodd" d="M128 208C172.183 208 208 172.183 208 128C208 83.8172 172.183 48 128 48C83.8172 48 48 83.8172 48 128C48 172.183 83.8172 208 128 208ZM128 168C150.091 168 168 150.091 168 128C168 105.909 150.091 88 128 88C105.909 88 88 105.909 88 128C88 150.091 105.909 168 128 168Z" fill="#434966"/>
<path d="M71.3203 82.2193L75.0494 77.9656C77.1089 75.6163 76.8739 72.0423 74.5247 69.9828V69.9828C72.1754 67.9233 71.9405 64.3493 74 62V62C76.0595 59.6507 75.8246 56.0767 73.4753 54.0172V54.0172C71.126 51.9577 70.8911 48.3837 72.9506 46.0345L76.6797 41.7807" stroke="#81A281" stroke-width="4" stroke-linecap="round" stroke-linejoin="round"/>
<rect x="89" y="44.1564" width="16" height="16" rx="4" transform="rotate(-30.6488 89 44.1564)" fill="#B68FB9"/>
<rect x="217.074" y="72.5758" width="8" height="8" transform="rotate(35.5802 217.074 72.5758)" fill="#B6A2B8"/>
<rect x="142" y="128" width="24" height="24" fill="#B98EBC"/>
<path d="M120.586 58.0008C120.528 57.892 120.61 57.7615 120.733 57.7659L138.643 58.4036C138.766 58.4079 138.838 58.5439 138.773 58.6483L129.266 73.8397C129.2 73.9441 129.046 73.9386 128.989 73.8298L120.586 58.0008Z" fill="#68BE6C"/>
<path d="M172.277 123.132C172.23 122.979 172.366 122.833 172.522 122.868L195.213 128.073C195.369 128.109 195.428 128.3 195.319 128.417L179.466 145.466C179.357 145.583 179.162 145.538 179.115 145.385L172.277 123.132Z" fill="#85C086"/>
<path fill-rule="evenodd" clip-rule="evenodd" d="M104.663 86.3338C104.663 86.1494 104.812 86 104.997 86H111.005C111.189 86 111.338 86.1494 111.338 86.3338V96.9075L120.495 91.6207C120.655 91.5285 120.859 91.5832 120.951 91.7429L123.955 96.9459C124.048 97.1056 123.993 97.3097 123.833 97.4019L114.676 102.689L123.832 107.976C123.992 108.068 124.047 108.272 123.955 108.432L120.951 113.635C120.859 113.794 120.654 113.849 120.495 113.757L111.338 108.471V119.044C111.338 119.228 111.189 119.378 111.005 119.378H104.997C104.812 119.378 104.663 119.228 104.663 119.044V108.47L95.5054 113.757C95.3458 113.849 95.1416 113.794 95.0495 113.635L92.0455 108.432C91.9533 108.272 92.008 108.068 92.1676 107.976L101.325 102.689L92.1669 97.4019C92.0073 97.3097 91.9526 97.1056 92.0448 96.9459L95.0488 91.7429C95.1409 91.5832 95.3451 91.5285 95.5047 91.6207L104.663 96.9081V86.3338Z" fill="#7075CB"/>
<path fill-rule="evenodd" clip-rule="evenodd" d="M152.2 124.399C162.803 124.399 171.399 115.803 171.399 105.2C171.399 94.596 162.803 86 152.2 86C141.596 86 133 94.596 133 105.2C133 115.803 141.596 124.399 152.2 124.399ZM152.2 114.799C157.502 114.799 161.799 110.502 161.799 105.2C161.799 99.8978 157.502 95.5998 152.2 95.5998C146.898 95.5998 142.6 99.8978 142.6 105.2C142.6 110.502 146.898 114.799 152.2 114.799Z" fill="#EFD2AA"/>
<path fill-rule="evenodd" clip-rule="evenodd" d="M40 64C44.4183 64 48 60.4183 48 56C48 51.5817 44.4183 48 40 48C35.5817 48 32 51.5817 32 56C32 60.4183 35.5817 64 40 64ZM40 60C42.2091 60 44 58.2091 44 56C44 53.7909 42.2091 52 40 52C37.7909 52 36 53.7909 36 56C36 58.2091 37.7909 60 40 60Z" fill="#948E86"/>
<path fill-rule="evenodd" clip-rule="evenodd" d="M218 41C220.209 41 222 39.2091 222 37C222 34.7909 220.209 33 218 33C215.791 33 214 34.7909 214 37C214 39.2091 215.791 41 218 41ZM218 39C219.105 39 220 38.1046 220 37C220 35.8954 219.105 35 218 35C216.895 35 216 35.8954 216 37C216 38.1046 216.895 39 218 39Z" fill="#AEA090"/>
<path d="M126.596 48C134.408 48 141.959 49.1198 149.096 51.2075C167.283 56.5275 182.787 68.1329 193.096 83.5131M187.817 179.5C186.054 181.595 184.184 183.597 182.218 185.5C180.27 187.384 178.227 189.171 176.096 190.851C172.499 193.688 168.653 196.222 164.596 198.416C159.713 201.057 154.524 203.205 149.096 204.792C141.959 206.88 134.408 208 126.596 208C107.907 208 90.714 201.591 77.096 190.851C62.2562 179.148 51.6613 162.301 48 143M61.1356 82C58.27 86.0704 55.7745 90.42 53.6979 95C51.6743 99.463 50.0486 104.145 48.8659 109" stroke="#555D86" stroke-width="2" stroke-linecap="round"/>
<path d="M69.2328 218.378C68.9073 221.79 72.7428 224.004 75.5347 222.017L169.01 155.465C171.382 153.776 171.212 150.199 168.69 148.743L86.1124 101.066C83.5902 99.6102 80.4071 101.251 80.1305 104.151L69.2328 218.378Z" fill="url(#paint0_linear_277_11257)"/>
<mask id="mask0_277_11257" style="mask-type:alpha" maskUnits="userSpaceOnUse" x="69" y="100" width="102" height="123">
<path d="M69.233 218.378C68.9075 221.79 72.7429 224.004 75.5348 222.017L169.01 155.465C171.382 153.776 171.212 150.199 168.69 148.743L86.1125 101.066C83.5904 99.6103 80.4072 101.252 80.1306 104.151L69.233 218.378Z" fill="#AF9EFF"/>
</mask>
<g mask="url(#mask0_277_11257)">
<rect x="57.255" y="123.748" width="128" height="16" rx="1.28" fill="#E0A1E9"/>
<rect x="37.255" y="158.389" width="128" height="16" rx="1.28" fill="#E0A1E9"/>
<rect x="17.255" y="193.03" width="128" height="16" rx="1.28" fill="#E0A1E9"/>
</g>
<path d="M165.054 60.6419L169.361 56.9744C171.739 54.9489 172.026 51.3787 170 49V49C167.975 46.6214 168.261 43.0511 170.64 41.0256L174.946 37.3581" stroke="#8288A6" stroke-width="4" stroke-linecap="round" stroke-linejoin="round"/>
<path d="M169 82.4208L174.61 83.1467C177.708 83.5476 180.545 81.3609 180.946 78.2626V78.2626C181.347 75.1642 184.184 72.9775 187.282 73.3784V73.3784C190.38 73.7793 193.217 71.5926 193.618 68.4943V68.4943C194.019 65.3959 196.856 63.2092 199.954 63.6101L205.564 64.336" stroke="#B0A7D9" stroke-width="4" stroke-linecap="round" stroke-linejoin="round"/>
<path d="M122.186 33.6255L120.821 28.1358C120.067 25.1039 121.914 22.035 124.946 21.2813V21.2813C127.978 20.5276 129.825 17.4588 129.071 14.4269L127.706 8.93708" stroke="#68617E" stroke-width="4" stroke-linecap="round" stroke-linejoin="round"/>
<path d="M190.03 114.09L194.015 110.075C196.216 107.858 199.798 107.844 202.015 110.045V110.045C204.233 112.246 207.814 112.232 210.015 110.015L214 106" stroke="#958CB2" stroke-width="4" stroke-linecap="round" stroke-linejoin="round"/>
<defs>
<linearGradient id="paint0_linear_277_11257" x1="67.5" y1="223.5" x2="173.05" y2="155.153" gradientUnits="userSpaceOnUse">
<stop stop-color="#5E49DC"/>
<stop offset="1" stop-color="#D279FC"/>
</linearGradient>
</defs>
</svg>
