<svg width="256" height="256" viewBox="0 0 256 256" fill="none" xmlns="http://www.w3.org/2000/svg">
<path fill-rule="evenodd" clip-rule="evenodd" d="M128 208C172.183 208 208 172.183 208 128C208 83.8172 172.183 48 128 48C83.8172 48 48 83.8172 48 128C48 172.183 83.8172 208 128 208ZM128 168C150.091 168 168 150.091 168 128C168 105.909 150.091 88 128 88C105.909 88 88 105.909 88 128C88 150.091 105.909 168 128 168Z" fill="#5D34F2" fill-opacity="0.06"/>
<path d="M51.1293 109.731C53.4018 100.14 57.4243 91.225 62.8411 83.3413M127.082 49.006C127.411 49.002 127.741 49 128.071 49C155.15 49 179.05 62.6021 193.3 83.3413M50.3 142.319C57.0423 179.114 89.2971 207 128.071 207C151.955 207 173.367 196.418 187.864 179.69" stroke="#5D34F2" stroke-opacity="0.08" stroke-width="2"/>
<path d="M71.3203 82.2197L75.0494 77.966C77.1089 75.6167 76.8739 72.0427 74.5247 69.9832V69.9832C72.1754 67.9237 71.9405 64.3497 74 62.0004V62.0004C76.0595 59.6512 75.8246 56.0772 73.4753 54.0177V54.0177C71.126 51.9582 70.8911 48.3842 72.9506 46.0349L76.6797 41.7812" stroke="#FFD5FF" stroke-width="4" stroke-linecap="round" stroke-linejoin="round"/>
<rect x="108" y="62.1562" width="16" height="16" rx="4" transform="rotate(-30.6488 108 62.1562)" fill="#FFD5FF"/>
<rect x="217.074" y="72.5762" width="8" height="8" rx="4" transform="rotate(35.5802 217.074 72.5762)" fill="#FFD5FF"/>
<rect x="142" y="128" width="24" height="24" rx="4" fill="#FFD5FF"/>
<path fill-rule="evenodd" clip-rule="evenodd" d="M104.663 86.3338C104.663 86.1494 104.812 86 104.997 86H111.005C111.189 86 111.338 86.1494 111.338 86.3338V96.9075L120.495 91.6207C120.655 91.5285 120.859 91.5832 120.951 91.7428L123.955 96.9459C124.048 97.1055 123.993 97.3097 123.833 97.4018L114.676 102.689L123.832 107.976C123.992 108.068 124.047 108.272 123.955 108.432L120.951 113.635C120.859 113.794 120.654 113.849 120.495 113.757L111.338 108.47V119.044C111.338 119.228 111.189 119.378 111.005 119.378H104.997C104.812 119.378 104.663 119.228 104.663 119.044V108.47L95.5054 113.757C95.3458 113.849 95.1416 113.794 95.0495 113.635L92.0455 108.432C91.9533 108.272 92.008 108.068 92.1676 107.976L101.325 102.689L92.1669 97.4018C92.0073 97.3097 91.9526 97.1055 92.0448 96.9459L95.0488 91.7428C95.1409 91.5832 95.3451 91.5285 95.5047 91.6207L104.663 96.9081V86.3338Z" fill="#AF9EFF"/>
<path fill-rule="evenodd" clip-rule="evenodd" d="M152.2 124.399C162.803 124.399 171.399 115.803 171.399 105.2C171.399 94.596 162.803 86 152.2 86C141.596 86 133 94.596 133 105.2C133 115.803 141.596 124.399 152.2 124.399ZM152.2 114.799C157.502 114.799 161.799 110.502 161.799 105.2C161.799 99.8978 157.502 95.5998 152.2 95.5998C146.898 95.5998 142.6 99.8978 142.6 105.2C142.6 110.502 146.898 114.799 152.2 114.799Z" fill="#FFB95A"/>
<path fill-rule="evenodd" clip-rule="evenodd" d="M40 64C44.4183 64 48 60.4183 48 56C48 51.5817 44.4183 48 40 48C35.5817 48 32 51.5817 32 56C32 60.4183 35.5817 64 40 64ZM40 60C42.2091 60 44 58.2091 44 56C44 53.7909 42.2091 52 40 52C37.7909 52 36 53.7909 36 56C36 58.2091 37.7909 60 40 60Z" fill="#FFB95A"/>
<path fill-rule="evenodd" clip-rule="evenodd" d="M218 41C220.209 41 222 39.2091 222 37C222 34.7909 220.209 33 218 33C215.791 33 214 34.7909 214 37C214 39.2091 215.791 41 218 41ZM218 39C219.105 39 220 38.1046 220 37C220 35.8954 219.105 35 218 35C216.895 35 216 35.8954 216 37C216 38.1046 216.895 39 218 39Z" fill="#FFDDB5"/>
<path d="M69.2338 218.379C68.9083 221.79 72.7438 224.005 75.5357 222.017L169.011 155.466C171.383 153.776 171.213 150.199 168.691 148.743L86.1134 101.067C83.5912 99.6107 80.4081 101.252 80.1315 104.151L69.2338 218.379Z" fill="url(#paint0_linear_8592_115169)"/>
<mask id="mask0_8592_115169" style="mask-type:alpha" maskUnits="userSpaceOnUse" x="69" y="100" width="102" height="123">
<path d="M69.2341 218.379C68.9086 221.79 72.744 224.005 75.5359 222.017L169.011 155.466C171.384 153.776 171.213 150.199 168.691 148.743L86.1136 101.067C83.5915 99.6107 80.4083 101.252 80.1317 104.151L69.2341 218.379Z" fill="#AF9EFF"/>
</mask>
<g mask="url(#mask0_8592_115169)">
<rect x="57.2559" y="123.748" width="128" height="16" rx="1.28" fill="#EA9DF4"/>
<rect x="37.2559" y="158.39" width="128" height="16" rx="1.28" fill="#EA9DF4"/>
<rect x="17.2559" y="193.03" width="128" height="16" rx="1.28" fill="#EA9DF4"/>
</g>
<path d="M165.055 60.6416L169.362 56.9741C171.74 54.9486 172.027 51.3784 170.001 48.9997V48.9997C167.976 46.6211 168.262 43.0508 170.64 41.0253L174.947 37.3578" stroke="#C4C7C7" stroke-width="4" stroke-linecap="round" stroke-linejoin="round"/>
<path d="M169 82.4209L174.61 83.1468C177.708 83.5478 180.545 81.361 180.946 78.2627V78.2627C181.347 75.1643 184.184 72.9776 187.282 73.3785V73.3785C190.38 73.7795 193.217 71.5927 193.618 68.4944V68.4944C194.019 65.396 196.856 63.2093 199.954 63.6102L205.564 64.3362" stroke="#CABEFF" stroke-width="4" stroke-linecap="round" stroke-linejoin="round"/>
<path d="M122.186 33.626L120.821 28.1362C120.067 25.1043 121.914 22.0354 124.946 21.2817V21.2817C127.978 20.528 129.825 17.4592 129.071 14.4273L127.706 8.93751" stroke="#E6DEFF" stroke-width="4" stroke-linecap="round" stroke-linejoin="round"/>
<path d="M192.031 144.091L196.016 140.076C198.217 137.858 201.799 137.845 204.016 140.046V140.046C206.234 142.247 209.815 142.233 212.016 140.016L216.001 136.001" stroke="#E6DEFF" stroke-width="4" stroke-linecap="round" stroke-linejoin="round"/>
<defs>
<linearGradient id="paint0_linear_8592_115169" x1="67.501" y1="223.5" x2="173.051" y2="155.154" gradientUnits="userSpaceOnUse">
<stop stop-color="#492EF3"/>
<stop offset="1" stop-color="#CF69FF"/>
</linearGradient>
</defs>
</svg>
