<svg width="16" height="16" viewBox="0 0 16 16" fill="none" xmlns="http://www.w3.org/2000/svg"><path d="m8.473 10.86-.1-.08a.508.508 0 0 0-.12-.06l-.12-.053a.667.667 0 0 0-.606.18.766.766 0 0 0-.14.22.667.667 0 0 0 .867.873.974.974 0 0 0 .22-.147.667.667 0 0 0 0-.933Zm2.194-9.527H5.334a2 2 0 0 0-2 2v9.334a2 2 0 0 0 2 2h5.333a2 2 0 0 0 2-2V3.333a2 2 0 0 0-2-2Zm.667 11.334a.666.666 0 0 1-.667.666H5.334a.667.667 0 0 1-.667-.666V3.333a.667.667 0 0 1 .667-.666h5.333a.667.667 0 0 1 .667.666v9.334Z" fill="currentColor"/></svg>