<svg width="40" height="40" viewBox="0 0 40 40" fill="none" xmlns="http://www.w3.org/2000/svg">
<path d="M0 8C0 3.58172 3.58172 0 8 0H32C36.4183 0 40 3.58172 40 8V32C40 36.4183 36.4183 40 32 40H8C3.58172 40 0 36.4183 0 32V8Z" fill="#3A3B59"/>
<path fill-rule="evenodd" clip-rule="evenodd" d="M28.5496 10.0374L20.001 18.5861L11.4521 10.0372C11.6312 10.0127 11.8141 10 12 10H28C28.1865 10 28.3699 10.0128 28.5496 10.0374ZM20.001 20.9485C19.7285 20.9622 19.4514 20.865 19.2433 20.6569L9.47995 10.8935C8.57699 11.6269 8 12.7461 8 14V26C8 28.2091 9.79086 30 12 30H28C30.2091 30 32 28.2091 32 26V14C32 12.7466 31.4235 11.6278 30.5211 10.8944L20.7586 20.6569C20.5505 20.865 20.2735 20.9622 20.001 20.9485Z" fill="url(#paint0_linear_307_11896)"/>
<defs>
<linearGradient id="paint0_linear_307_11896" x1="25" y1="10" x2="6.5" y2="30" gradientUnits="userSpaceOnUse">
<stop stop-color="#E37EF4"/>
<stop offset="1" stop-color="#6847EA"/>
</linearGradient>
</defs>
</svg>
