<svg width="26" height="28" viewBox="0 0 26 28" fill="none" xmlns="http://www.w3.org/2000/svg">
<rect width="16" height="28" rx="4" fill="url(#paint0_linear_3194_16010)"/>
<circle cx="8" cy="25" r="1.5" stroke="#F5EEFF"/>
<path d="M4 0H12V1C12 2.10457 11.1046 3 10 3H6C4.89543 3 4 2.10457 4 1V0Z" fill="#2D009D"/>
<path d="M8 9C8 6.79086 9.79086 5 12 5H22C24.2091 5 26 6.79086 26 9V14C26 16.2091 24.2091 18 22 18H14.1079C13.383 18 12.6716 18.197 12.05 18.57L9.5145 20.0913C8.84797 20.4912 8 20.0111 8 19.2338V9Z" fill="#F4E560"/>
<path d="M12.0771 14.1143C13.1904 14.1143 13.8555 13.5635 13.8555 12.6992V12.6963C13.8555 12.0137 13.4453 11.6533 12.5459 11.4775L12.1094 11.3926C11.6523 11.3018 11.459 11.1699 11.459 10.9297V10.9268C11.459 10.6748 11.6875 10.502 12.0742 10.502C12.4639 10.502 12.7275 10.6777 12.7715 10.9414L12.7773 10.9766H13.7734L13.7705 10.9414C13.7061 10.1943 13.1289 9.6582 12.0684 9.6582C11.0957 9.6582 10.3926 10.1914 10.3896 11.0205V11.0234C10.3896 11.6826 10.7764 12.1045 11.6699 12.2773L12.1064 12.3623C12.6016 12.459 12.7891 12.5703 12.7891 12.8076V12.8105C12.7891 13.0801 12.5137 13.2705 12.0947 13.2705C11.6611 13.2705 11.3711 13.083 11.3418 12.8223L11.3389 12.7959H10.3135L10.3164 12.8486C10.3604 13.6338 11.0225 14.1143 12.0771 14.1143ZM14.5499 14H15.4962V11.3076H15.5548L16.5157 14H17.128L18.089 11.3076H18.1505V14H19.0939V9.77246H17.8722L16.8527 12.6406H16.797L15.7745 9.77246H14.5499V14ZM21.552 14.1143C22.6653 14.1143 23.3303 13.5635 23.3303 12.6992V12.6963C23.3303 12.0137 22.9202 11.6533 22.0207 11.4775L21.5842 11.3926C21.1272 11.3018 20.9338 11.1699 20.9338 10.9297V10.9268C20.9338 10.6748 21.1623 10.502 21.5491 10.502C21.9387 10.502 22.2024 10.6777 22.2463 10.9414L22.2522 10.9766H23.2483L23.2454 10.9414C23.1809 10.1943 22.6038 9.6582 21.5432 9.6582C20.5705 9.6582 19.8674 10.1914 19.8645 11.0205V11.0234C19.8645 11.6826 20.2512 12.1045 21.1448 12.2773L21.5813 12.3623C22.0764 12.459 22.2639 12.5703 22.2639 12.8076V12.8105C22.2639 13.0801 21.9885 13.2705 21.5696 13.2705C21.136 13.2705 20.8459 13.083 20.8166 12.8223L20.8137 12.7959H19.7883L19.7913 12.8486C19.8352 13.6338 20.4973 14.1143 21.552 14.1143Z" fill="#191C1D"/>
<defs>
<linearGradient id="paint0_linear_3194_16010" x1="-1.31429" y1="16.0417" x2="17.2905" y2="12.1163" gradientUnits="userSpaceOnUse">
<stop stop-color="#492EF3"/>
<stop offset="1" stop-color="#CF69FF"/>
</linearGradient>
</defs>
</svg>
