<svg width="16" height="16" viewBox="0 0 16 16" fill="none" xmlns="http://www.w3.org/2000/svg"><path d="M6.667 3.333a.667.667 0 1 0 0 1.334.667.667 0 0 0 0-1.334ZM4 3.333a.667.667 0 1 0 0 1.334.667.667 0 0 0 0-1.334Zm5.333 0a.667.667 0 1 0 0 1.334.667.667 0 0 0 0-1.334Zm4-2.666H2.667a2 2 0 0 0-2 2v10.666a2 2 0 0 0 2 2h10.666a2 2 0 0 0 2-2V2.667a2 2 0 0 0-2-2ZM14 13.333a.667.667 0 0 1-.667.667H2.667A.667.667 0 0 1 2 13.333v-6h12v6ZM14 6H2V2.667A.667.667 0 0 1 2.667 2h10.666a.667.667 0 0 1 .667.667V6Z" fill="currentColor"/></svg>