<svg width="40" height="40" viewBox="0 0 40 40" fill="none" xmlns="http://www.w3.org/2000/svg">
<path d="M0 8C0 3.58172 3.58172 0 8 0H32C36.4183 0 40 3.58172 40 8V32C40 36.4183 36.4183 40 32 40H8C3.58172 40 0 36.4183 0 32V8Z" fill="#3A3B59"/>
<rect x="8" y="6" width="16" height="28" rx="4" fill="url(#paint0_linear_307_11895)"/>
<circle cx="16" cy="31" r="1.5" stroke="#D6C6ED"/>
<path d="M12 6H20V7C20 8.10457 19.1046 9 18 9H14C12.8954 9 12 8.10457 12 7V6Z" fill="#5938A3"/>
<path d="M16 15C16 12.7909 17.7909 11 20 11H30C32.2091 11 34 12.7909 34 15V20C34 22.2091 32.2091 24 30 24H22.1079C21.383 24 20.6716 24.197 20.05 24.57L17.5145 26.0913C16.848 26.4912 16 26.0111 16 25.2338V15Z" fill="#F7EB81"/>
<path d="M20.0771 20.1143C21.1904 20.1143 21.8555 19.5635 21.8555 18.6992V18.6963C21.8555 18.0137 21.4453 17.6533 20.5459 17.4775L20.1094 17.3926C19.6523 17.3018 19.459 17.1699 19.459 16.9297V16.9268C19.459 16.6748 19.6875 16.502 20.0742 16.502C20.4639 16.502 20.7275 16.6777 20.7715 16.9414L20.7773 16.9766H21.7734L21.7705 16.9414C21.7061 16.1943 21.1289 15.6582 20.0684 15.6582C19.0957 15.6582 18.3926 16.1914 18.3896 17.0205V17.0234C18.3896 17.6826 18.7764 18.1045 19.6699 18.2773L20.1064 18.3623C20.6016 18.459 20.7891 18.5703 20.7891 18.8076V18.8105C20.7891 19.0801 20.5137 19.2705 20.0947 19.2705C19.6611 19.2705 19.3711 19.083 19.3418 18.8223L19.3389 18.7959H18.3135L18.3164 18.8486C18.3604 19.6338 19.0225 20.1143 20.0771 20.1143ZM22.5499 20H23.4962V17.3076H23.5548L24.5157 20H25.128L26.089 17.3076H26.1505V20H27.0939V15.7725H25.8722L24.8527 18.6406H24.797L23.7745 15.7725H22.5499V20ZM29.552 20.1143C30.6653 20.1143 31.3303 19.5635 31.3303 18.6992V18.6963C31.3303 18.0137 30.9202 17.6533 30.0207 17.4775L29.5842 17.3926C29.1272 17.3018 28.9338 17.1699 28.9338 16.9297V16.9268C28.9338 16.6748 29.1623 16.502 29.5491 16.502C29.9387 16.502 30.2024 16.6777 30.2463 16.9414L30.2522 16.9766H31.2483L31.2454 16.9414C31.1809 16.1943 30.6038 15.6582 29.5432 15.6582C28.5705 15.6582 27.8674 16.1914 27.8645 17.0205V17.0234C27.8645 17.6826 28.2512 18.1045 29.1448 18.2773L29.5813 18.3623C30.0764 18.459 30.2639 18.5703 30.2639 18.8076V18.8105C30.2639 19.0801 29.9885 19.2705 29.5696 19.2705C29.136 19.2705 28.8459 19.083 28.8166 18.8223L28.8137 18.7959H27.7883L27.7913 18.8486C27.8352 19.6338 28.4973 20.1143 29.552 20.1143Z" fill="#191C1D"/>
<defs>
<linearGradient id="paint0_linear_307_11895" x1="6.68571" y1="22.0417" x2="25.2905" y2="18.1163" gradientUnits="userSpaceOnUse">
<stop stop-color="#5239EE"/>
<stop offset="1" stop-color="#CF69FF"/>
</linearGradient>
</defs>
</svg>
