<svg width="16" height="16" viewBox="0 0 16 16" fill="none" xmlns="http://www.w3.org/2000/svg">
<path d="M9.3333 14.6667H2.66663C2.30935 14.6791 1.96295 14.5426 1.71016 14.2898C1.45737 14.037 1.32088 13.6906 1.3333 13.3333V6.66666C1.32088 6.30938 1.45737 5.96298 1.71016 5.71019C1.96295 5.4574 2.30935 5.32091 2.66663 5.33333H5.3333V2.66666C5.32088 2.30938 5.45737 1.96298 5.71016 1.71019C5.96295 1.4574 6.30935 1.32091 6.66663 1.33333H13.3333C13.6906 1.32091 14.037 1.4574 14.2898 1.71019C14.5426 1.96298 14.679 2.30938 14.6666 2.66666V9.33333C14.6788 9.69056 14.5423 10.0368 14.2896 10.2896C14.0368 10.5423 13.6905 10.6789 13.3333 10.6667H10.6666V13.3333C10.6788 13.6906 10.5423 14.0368 10.2896 14.2896C10.0368 14.5423 9.69053 14.6789 9.3333 14.6667ZM2.66663 6.66666V13.3333H9.3333V10.6667H6.66663C6.3094 10.6789 5.96312 10.5423 5.71038 10.2896C5.45763 10.0368 5.32108 9.69056 5.3333 9.33333V6.66666H2.66663ZM6.66663 2.66666V9.33333H13.3333V2.66666H6.66663Z" fill="currentColor"/>
</svg>
