<svg width="48" height="48" viewBox="0 0 48 48" fill="none" xmlns="http://www.w3.org/2000/svg">
<rect opacity="0.1" width="48" height="48" rx="16" fill="#BE1931"/>
<g clip-path="url(#clip0_1770_36728)">
<path d="M15.72 25.9777C15.771 26.457 15.3128 26.8987 14.694 26.964C14.076 27.0307 13.5338 26.6962 13.4828 26.2177C13.4318 25.7385 13.8908 25.2975 14.5088 25.2322C15.1268 25.1655 15.669 25.4992 15.72 25.9777ZM17.2853 28.0155C17.379 28.629 15.9683 29.9235 15.3533 30.0172C14.739 30.111 14.1653 29.6887 14.0723 29.0745C13.9785 28.461 14.5073 28.2195 15.1208 28.1257C15.735 28.0327 17.1915 27.402 17.2853 28.0155ZM18.6225 29.5935C18.7523 30.201 17.4015 32.5387 16.794 32.6685C16.1858 32.7982 15.5603 32.778 15.4313 32.1697C15.3015 31.5622 15.6608 30.9037 16.2683 30.774C16.8758 30.6435 18.4928 28.986 18.6225 29.5935V29.5935ZM21.5123 30.237C21.636 30.8452 20.5088 33.5025 19.8998 33.6262C19.2908 33.75 18.8205 33.9645 18.6968 33.3562C18.573 32.7472 18.8925 31.875 19.4513 31.4212C19.9343 31.029 21.3893 29.6287 21.5123 30.237V30.237Z" fill="#A0041E"/>
<path d="M13.4438 24.6518C13.899 25.188 14.3288 25.5743 13.7918 26.028C13.2548 26.4825 12.4815 26.1495 12.0263 25.6125C11.5725 25.0763 10.347 23.0475 10.8833 22.5938C11.421 22.1393 12.99 24.1155 13.4438 24.6518V24.6518ZM13.6913 28.3118C14.3603 28.533 15.084 28.9125 14.8635 29.58C14.643 30.2483 13.8675 30.3233 13.1993 30.1035C12.5325 29.8823 10.3703 28.8353 10.5908 28.1678C10.812 27.5003 13.0238 28.0913 13.6913 28.3118ZM14.6018 31.7108C15.2805 31.521 16.032 31.4985 16.221 32.175C16.41 32.8523 16.0095 33.3263 15.3315 33.5153C14.655 33.7035 12.075 34.0605 11.886 33.3833C11.6978 32.7045 13.9245 31.8983 14.6018 31.7108ZM17.8628 34.1018C17.9258 33.399 18.3458 32.85 19.0455 32.913C19.746 32.9768 19.989 33.6818 19.9253 34.383C19.8615 35.0835 20.0355 37.0545 18.639 37.395C17.955 37.5608 17.7983 34.8 17.8628 34.1018V34.1018ZM32.28 25.9778C32.229 26.457 32.6873 26.8988 33.3053 26.964C33.9233 27.0308 34.4655 26.6963 34.5165 26.2178C34.5675 25.7385 34.1085 25.2975 33.4913 25.2323C32.8733 25.1655 32.331 25.4993 32.28 25.9778ZM30.7148 28.0155C30.621 28.629 32.0325 29.9235 32.646 30.0173C33.2603 30.111 33.834 29.6888 33.9278 29.0745C34.0215 28.4603 33.4928 28.2195 32.8793 28.1258C32.265 28.0328 30.8085 27.402 30.7148 28.0155ZM29.3775 29.5935C29.2478 30.201 30.5985 32.5388 31.206 32.6685C31.8135 32.7983 32.439 32.778 32.568 32.1698C32.6985 31.5623 32.3393 30.9038 31.7318 30.774C31.1243 30.6435 29.5073 28.986 29.3775 29.5935ZM26.4878 30.237C26.3633 30.8453 27.4913 33.5025 28.0995 33.6263C28.7085 33.75 29.178 33.9645 29.3025 33.3563C29.4255 32.7473 29.106 31.875 28.5473 31.4213C28.0658 31.029 26.6108 29.6288 26.4878 30.237V30.237Z" fill="#A0041E"/>
<path d="M34.5563 24.6517C34.1011 25.188 33.6713 25.5742 34.2076 26.028C34.7446 26.4825 35.5178 26.1495 35.9731 25.6125C36.4268 25.0762 37.6523 23.0475 37.1153 22.5937C36.5791 22.1392 35.0101 24.1155 34.5563 24.6517V24.6517ZM34.3088 28.3117C33.6398 28.533 32.9161 28.9125 33.1373 29.58C33.3571 30.2482 34.1333 30.3232 34.8016 30.1035C35.4683 29.8822 37.6298 28.8352 37.4093 28.1677C37.1888 27.5002 34.9763 28.0912 34.3088 28.3117V28.3117ZM33.3976 31.7107C32.7196 31.521 31.9681 31.4985 31.7791 32.175C31.5901 32.8522 31.9905 33.3262 32.6678 33.5152C33.3443 33.7035 35.9251 34.0605 36.1133 33.3825C36.3023 32.7045 34.0756 31.8982 33.3976 31.7107ZM30.1373 34.1017C30.0743 33.399 29.6536 32.85 28.9546 32.913C28.2533 32.9767 28.0111 33.6817 28.0748 34.383C28.1378 35.0835 27.9646 37.0545 29.3611 37.395C30.0451 37.5607 30.2018 34.8 30.1373 34.1017V34.1017ZM12.8611 20.9085C12.5738 20.2665 12.8618 19.5135 13.5038 19.227C14.1458 18.9397 14.8988 19.2285 15.1861 19.8705C15.4718 20.5117 17.1743 24.0795 16.5323 24.366C15.8911 24.6525 13.1476 21.5497 12.8611 20.9085V20.9085Z" fill="#A0041E"/>
<path d="M13.4954 19.5255C14.4112 21.7425 19.7512 17.0198 20.0977 14.8148C20.4442 12.6105 19.8667 11.664 19.5772 11.4398C19.2877 11.2155 19.6852 12.516 18.6869 13.9193C17.8972 15.0308 12.8624 17.9948 13.4954 19.5255V19.5255ZM35.1389 20.9085C35.4269 20.2665 35.1382 19.5135 34.4962 19.227C33.8534 18.9398 33.1004 19.2285 32.8132 19.8705C32.5274 20.5118 30.8257 24.0795 31.4677 24.366C32.1089 24.6525 34.8524 21.5498 35.1389 20.9085Z" fill="#A0041E"/>
<path d="M34.5052 19.5255C33.5887 21.7425 28.2495 17.0198 27.9022 14.8148C27.5565 12.6105 28.134 11.664 28.4227 11.4398C28.7122 11.2155 28.3147 12.516 29.313 13.9193C30.1035 15.0308 35.1375 17.9948 34.5052 19.5255Z" fill="#A0041E"/>
<path d="M15 27C15 25.5 16.5 19.5 24 19.5C31.5 19.5 33 25.5 33 27C29.25 29.25 28.9703 32.25 24 32.25C19.0298 32.25 19.5 29.25 15 27ZM13.7423 19.6672C11.3775 20.0745 13.4738 13.5615 15.1545 12.093C16.8345 10.6245 18.6473 10.6552 18.9908 10.7805C19.3343 10.9057 18.1103 12.7267 17.6783 13.914C17.4585 14.5162 15.3743 19.386 13.7423 19.6672V19.6672ZM34.2578 19.6672C36.6218 20.0745 34.5263 13.5615 32.8463 12.093C31.1663 10.6245 29.3543 10.6552 29.01 10.7805C28.6658 10.9057 29.8905 12.7267 30.3225 13.914C30.5423 14.5162 32.6258 19.386 34.2578 19.6672V19.6672Z" fill="#BE1931"/>
<path d="M23.2741 19.602C23.5253 20.6062 23.2403 20.793 22.6373 20.9437C22.0343 21.0945 21.3421 21.1522 21.0916 20.148C20.8403 19.1437 21.1253 18.207 21.7283 18.0562C22.3306 17.9055 23.0228 18.597 23.2741 19.602ZM26.9086 20.148C26.6573 21.153 25.9651 21.0945 25.3628 20.9437C24.7598 20.793 24.4748 20.6062 24.7261 19.602C24.9773 18.597 25.6696 17.9055 26.2726 18.0562C26.8748 18.2062 27.1598 19.143 26.9086 20.148Z" fill="#A0041E"/>
<path d="M21.375 18.75C21.9963 18.75 22.5 18.2463 22.5 17.625C22.5 17.0037 21.9963 16.5 21.375 16.5C20.7537 16.5 20.25 17.0037 20.25 17.625C20.25 18.2463 20.7537 18.75 21.375 18.75Z" fill="#292F33"/>
<path d="M26.625 18.75C27.2463 18.75 27.75 18.2463 27.75 17.625C27.75 17.0037 27.2463 16.5 26.625 16.5C26.0037 16.5 25.5 17.0037 25.5 17.625C25.5 18.2463 26.0037 18.75 26.625 18.75Z" fill="#292F33"/>
<path d="M17.2898 26.6467C17.1848 26.8237 15 27.1957 15.5625 26.0985C16.125 25.0012 17.3948 26.4712 17.2898 26.6467Z" fill="#DD2E44"/>
<path d="M17.9183 25.593C17.7548 25.7618 15.5273 25.8862 16.4768 24.54C17.4255 23.1952 18.1523 25.3515 17.9183 25.593Z" fill="#DD2E44"/>
<path d="M19.2428 24.495C18.9593 24.6683 16.6396 24.1193 18.1876 23.046C19.5916 22.074 19.6171 24.2655 19.2428 24.495Z" fill="#DD2E44"/>
<path d="M21.0765 23.5702C20.3205 23.7945 18.543 22.5937 20.4157 21.9645C22.2892 21.3352 21.8325 23.346 21.0765 23.5702ZM30.642 26.6467C30.7477 26.823 32.9317 27.195 32.3692 26.0985C31.8067 25.0012 30.537 26.4712 30.642 26.6467Z" fill="#DD2E44"/>
<path d="M30.0143 25.593C30.1778 25.7618 32.4053 25.8862 31.4558 24.54C30.5063 23.1952 29.7795 25.3515 30.0143 25.593Z" fill="#DD2E44"/>
<path d="M28.6898 24.495C28.9733 24.6683 31.293 24.1193 29.7443 23.046C28.3403 22.074 28.3148 24.2655 28.6898 24.495Z" fill="#DD2E44"/>
<path d="M26.856 23.5703C27.612 23.7945 29.3895 22.5938 27.5167 21.9645C25.6425 21.3352 26.0992 23.346 26.856 23.5703Z" fill="#DD2E44"/>
<path d="M30.6368 22.6875C30.6368 22.998 28.995 21 24 21C19.0043 21 17.364 22.998 17.364 22.6875C17.364 22.377 19.4295 19.875 24 19.875C28.5705 19.875 30.6368 22.377 30.6368 22.6875Z" fill="#A0041E"/>
<path d="M18.5947 28.8248C18.5947 28.5143 19.9312 30.5123 24 30.5123C28.0687 30.5123 29.406 28.5143 29.406 28.8248C29.406 29.1353 27.723 31.6373 24 31.6373C20.277 31.6373 18.5947 29.1353 18.5947 28.8248Z" fill="#DD2E44"/>
</g>
<defs>
<clipPath id="clip0_1770_36728">
<rect width="27" height="27" fill="white" transform="translate(10.5 10.5)"/>
</clipPath>
</defs>
</svg>
