<svg width="48" height="48" viewBox="0 0 48 48" fill="none" xmlns="http://www.w3.org/2000/svg">
<g clip-path="url(#clip0_3406_128176)">
<path d="M0 8C0 3.58172 3.58172 0 8 0H40C44.4183 0 48 3.58172 48 8V40C48 44.4183 44.4183 48 40 48H8C3.58172 48 0 44.4183 0 40V8Z" fill="#F3EFFA"/>
<g opacity="0.1">
<circle cx="24" cy="24" r="19.8" stroke="#666666" stroke-width="0.4"/>
<circle cx="24" cy="24" r="15.8" stroke="#666666" stroke-width="0.4"/>
<rect x="8.2" y="4.2" width="31.6" height="39.6" rx="1.8" stroke="#666666" stroke-width="0.4"/>
<rect x="6.2" y="6.2" width="35.6" height="35.6" rx="1.8" stroke="#666666" stroke-width="0.4"/>
<rect x="4.2" y="39.8" width="31.6" height="39.6" rx="1.8" transform="rotate(-90 4.2 39.8)" stroke="#666666" stroke-width="0.4"/>
<rect y="44" width="4" height="4" fill="#FFF06A"/>
<circle cx="24" cy="24" r="7.8" stroke="#666666" stroke-width="0.4"/>
<rect x="24" width="0.2" height="48" fill="#666666"/>
<rect x="0.101562" y="24.0996" width="0.2" height="48" transform="rotate(-90 0.101562 24.0996)" fill="#666666"/>
</g>
<path d="M12.129 13.1016C11.7385 12.7111 11.7385 12.0779 12.129 11.6874C12.5195 11.2969 13.1527 11.2969 13.5432 11.6874L22.7356 20.8798L21.3214 22.294L12.129 13.1016Z" fill="#7958FF"/>
<path d="M8.5939 10.9806C7.81285 10.1996 7.81285 8.93324 8.5939 8.15219C9.37495 7.37114 10.6413 7.37114 11.4223 8.15219L14.2508 10.9806C15.0318 11.7617 15.0318 13.028 14.2508 13.809C13.4697 14.5901 12.2034 14.5901 11.4223 13.809L8.5939 10.9806Z" fill="#7958FF"/>
<path d="M21.3208 29.3657C18.9776 27.0225 18.9776 23.2236 21.3208 20.8804C23.6639 18.5373 27.4629 18.5373 29.806 20.8804L38.2913 29.3657C40.6345 31.7088 40.6345 35.5078 38.2913 37.851C35.9482 40.1941 32.1492 40.1941 29.806 37.851L21.3208 29.3657Z" fill="url(#paint0_linear_3406_128176)"/>
<rect x="22.0273" y="25.8301" width="2" height="16" rx="1" transform="rotate(-45 22.0273 25.8301)" fill="#CABEFF"/>
<rect x="24.8594" y="23.002" width="2" height="16" rx="1" transform="rotate(-45 24.8594 23.002)" fill="#CABEFF"/>
<path d="M23.2927 16.0511C24.8548 14.489 27.3874 14.489 28.9495 16.0511L30.3637 17.4653C31.9258 19.0274 31.9258 21.5601 30.3637 23.1222L14.8074 38.6785C13.2453 40.2406 10.7126 40.2406 9.15053 38.6785L7.73632 37.2643C6.17422 35.7022 6.17422 33.1695 7.73632 31.6074L23.2927 16.0511Z" fill="url(#paint1_linear_3406_128176)"/>
<rect x="21.1719" y="23.8301" width="2" height="16" rx="1" transform="rotate(45 21.1719 23.8301)" fill="#B545CA"/>
<path d="M37.7903 22.0623C34.0803 25.7723 28.0652 25.7723 24.3552 22.0623C20.6453 18.3523 20.6453 12.3372 24.3552 8.62726C26.3753 6.60716 29.0781 5.68689 31.722 5.86684C32.2149 5.90039 32.5008 6.19144 32.5993 6.56375C32.7027 6.95413 32.5994 7.45413 32.2123 7.84131L29.305 10.7486C28.3287 11.7249 28.3287 13.3078 29.305 14.2841L32.1334 17.1125C33.1097 18.0889 34.6926 18.0889 35.6689 17.1125L38.5762 14.2053C38.9634 13.8181 39.4634 13.7149 39.8538 13.8182C40.2261 13.9167 40.5171 14.2026 40.5507 14.6955C40.7306 17.3394 39.8104 20.0422 37.7903 22.0623Z" fill="#F5EEFF" stroke="black"/>
<circle cx="7" cy="19" r="1.5" stroke="#9FE79F"/>
<circle cx="42" cy="27" r="1.5" stroke="#F7F8F8"/>
<circle cx="42" cy="27" r="1.5" stroke="#78767F" stroke-opacity="0.02"/>
<circle cx="42" cy="27" r="1.5" stroke="#5D34F2" stroke-opacity="0.14"/>
<rect x="36.879" y="7" width="3" height="3" rx="0.5" transform="rotate(-45 36.879 7)" stroke="#C4C7C7"/>
<rect x="19.879" y="40" width="3" height="3" rx="0.5" transform="rotate(-45 19.879 40)" stroke="#C4C7C7"/>
</g>
<defs>
<linearGradient id="paint0_linear_3406_128176" x1="40.3502" y1="40.855" x2="21.869" y2="15.8622" gradientUnits="userSpaceOnUse">
<stop stop-color="#492EF3"/>
<stop offset="1" stop-color="#CF69FF"/>
</linearGradient>
<linearGradient id="paint1_linear_3406_128176" x1="28.7914" y1="16.207" x2="3.05556" y2="23.2678" gradientUnits="userSpaceOnUse">
<stop stop-color="#FFF06A"/>
<stop offset="0.5" stop-color="#FC85E9"/>
<stop offset="1" stop-color="#E264F7"/>
</linearGradient>
<clipPath id="clip0_3406_128176">
<path d="M0 8C0 3.58172 3.58172 0 8 0H40C44.4183 0 48 3.58172 48 8V40C48 44.4183 44.4183 48 40 48H8C3.58172 48 0 44.4183 0 40V8Z" fill="white"/>
</clipPath>
</defs>
</svg>
