<svg width="48" height="48" viewBox="0 0 48 48" fill="none" xmlns="http://www.w3.org/2000/svg">
<path d="M0 8C0 3.58172 3.58172 0 8 0H40C44.4183 0 48 3.58172 48 8V40C48 44.4183 44.4183 48 40 48H8C3.58172 48 0 44.4183 0 40V8Z" fill="#3A3B59"/>
<path d="M12.1319 13.1007C11.7414 12.7101 11.7414 12.077 12.1319 11.6864C12.5224 11.2959 13.1556 11.2959 13.5461 11.6864L22.7385 20.8788L21.3243 22.293L12.1319 13.1007Z" fill="#7958FF"/>
<path d="M8.59634 10.9793C7.81529 10.1983 7.81529 8.93196 8.59634 8.15091C9.37739 7.36986 10.6437 7.36986 11.4248 8.15091L14.2532 10.9793C15.0342 11.7604 15.0342 13.0267 14.2532 13.8078C13.4721 14.5888 12.2058 14.5888 11.4248 13.8078L8.59634 10.9793Z" fill="#7958FF"/>
<path d="M21.3242 29.3641C18.981 27.021 18.981 23.222 21.3242 20.8788C23.6673 18.5357 27.4663 18.5357 29.8095 20.8788L38.2947 29.3641C40.6379 31.7072 40.6379 35.5062 38.2947 37.8494C35.9516 40.1925 32.1526 40.1925 29.8095 37.8494L21.3242 29.3641Z" fill="url(#paint0_linear_289_11391)"/>
<rect x="22.0312" y="25.8286" width="2" height="16" rx="1" transform="rotate(-45 22.0312 25.8286)" fill="#CABEFF"/>
<rect x="24.8599" y="23.0001" width="2" height="16" rx="1" transform="rotate(-45 24.8599 23.0001)" fill="#CABEFF"/>
<path d="M23.2946 16.051C24.8567 14.4889 27.3894 14.4889 28.9515 16.051L30.3657 17.4652C31.9278 19.0273 31.9278 21.56 30.3657 23.1221L14.8093 38.6784C13.2472 40.2405 10.7146 40.2405 9.15248 38.6784L7.73827 37.2642C6.17617 35.7021 6.17617 33.1695 7.73827 31.6074L23.2946 16.051Z" fill="url(#paint1_linear_289_11391)"/>
<rect x="21.1733" y="23.8292" width="2" height="16" rx="1" transform="rotate(45 21.1733 23.8292)" fill="#B545CA"/>
<path d="M37.7903 22.0614C34.0803 25.7714 28.0652 25.7714 24.3552 22.0614C20.6453 18.3514 20.6453 12.3363 24.3552 8.62635C26.3753 6.60625 29.0781 5.68597 31.722 5.86593C32.2149 5.89948 32.5008 6.19053 32.5993 6.56284C32.7027 6.95322 32.5994 7.45322 32.2123 7.84039L29.305 10.7477C28.3287 11.724 28.3287 13.3069 29.305 14.2832L32.1334 17.1116C33.1097 18.0879 34.6926 18.0879 35.6689 17.1116L38.5762 14.2044C38.9634 13.8172 39.4634 13.714 39.8538 13.8173C40.2261 13.9158 40.5171 14.2017 40.5507 14.6946C40.7306 17.3385 39.8104 20.0413 37.7903 22.0614Z" fill="#E6DEFF" stroke="#2C2D44"/>
<circle cx="7" cy="19" r="1.5" stroke="#83B983"/>
<circle cx="42" cy="27" r="1.5" stroke="#ACA5C0"/>
<rect x="36.879" y="7" width="3" height="3" rx="0.5" transform="rotate(-45 36.879 7)" stroke="#8B87A6"/>
<rect x="19.879" y="40" width="3" height="3" rx="0.5" transform="rotate(-45 19.879 40)" stroke="#787A9B"/>
<defs>
<linearGradient id="paint0_linear_289_11391" x1="40.3536" y1="40.8534" x2="21.8724" y2="15.8606" gradientUnits="userSpaceOnUse">
<stop stop-color="#492EF3"/>
<stop offset="1" stop-color="#CF69FF"/>
</linearGradient>
<linearGradient id="paint1_linear_289_11391" x1="28.7933" y1="16.207" x2="3.05751" y2="23.2677" gradientUnits="userSpaceOnUse">
<stop stop-color="#FFF06A"/>
<stop offset="0.5" stop-color="#FC85E9"/>
<stop offset="1" stop-color="#E264F7"/>
</linearGradient>
</defs>
</svg>
