<svg width="48" height="48" viewBox="0 0 48 48" fill="none" xmlns="http://www.w3.org/2000/svg">
<rect width="48" height="48" fill="#E5E1EC"/>
<path fill-rule="evenodd" clip-rule="evenodd" d="M24 6.75C20.2721 6.75 17.25 9.77208 17.25 13.5V15C17.25 18.7279 20.2721 21.75 24 21.75C27.7279 21.75 30.75 18.7279 30.75 15V13.5C30.75 9.77208 27.7279 6.75 24 6.75ZM24 41.25C39 41.25 39 36.374 39 36.374C39 30.0495 35.861 24.1543 27.75 24C27.7156 23.9993 27.4814 24.2272 27.1419 24.5574C26.2507 25.4243 24.6339 26.9971 24 26.9971C23.3661 26.9971 21.7493 25.4243 20.8581 24.5574C20.5186 24.2272 20.2844 23.9993 20.25 24C12.139 24.1543 9 30.0495 9 36.374C9 36.374 9 41.25 24 41.25Z" fill="#ADAAB4"/>
</svg>
