<svg width="48" height="48" viewBox="0 0 48 48" fill="none" xmlns="http://www.w3.org/2000/svg">
<rect width="48" height="48" fill="#F7F8F8"/>
<rect width="48" height="48" fill="#78767F" fill-opacity="0.02"/>
<rect width="48" height="48" fill="#5D34F2" fill-opacity="0.16"/>
<path fill-rule="evenodd" clip-rule="evenodd" d="M24.1738 10C21.1483 10 18.6956 12.4527 18.6956 15.4783V16.6957C18.6956 19.7212 21.1483 22.1739 24.1738 22.1739C27.1994 22.1739 29.6521 19.7212 29.6521 16.6957V15.4783C29.6521 12.4527 27.1994 10 24.1738 10ZM24.1739 38C36.3478 38 36.3478 34.0427 36.3478 34.0427C36.3478 28.9098 33.8002 24.1252 27.2174 24C27.1895 23.9995 26.9994 24.1844 26.7238 24.4524C26.0006 25.156 24.6884 26.4324 24.1739 26.4324C23.6595 26.4324 22.3473 25.156 21.624 24.4524C21.3484 24.1844 21.1583 23.9995 21.1304 24C14.5476 24.1252 12 28.9098 12 34.0427C12 34.0427 12 38 24.1739 38Z" fill="#947DFF"/>
</svg>
