<svg width="20" height="20" viewBox="0 0 20 20" fill="none" xmlns="http://www.w3.org/2000/svg"><path d="M8.333 15a.833.833 0 0 0 .834-.833v-5a.833.833 0 1 0-1.667 0v5a.833.833 0 0 0 .833.833Zm8.334-10h-3.334v-.833a2.5 2.5 0 0 0-2.5-2.5H9.167a2.5 2.5 0 0 0-2.5 2.5V5H3.333a.833.833 0 0 0 0 1.667h.834v9.166a2.5 2.5 0 0 0 2.5 2.5h6.666a2.5 2.5 0 0 0 2.5-2.5V6.667h.834a.833.833 0 0 0 0-1.667Zm-8.334-.833a.833.833 0 0 1 .834-.834h1.666a.833.833 0 0 1 .834.834V5H8.333v-.833Zm5.834 11.666a.833.833 0 0 1-.834.834H6.667a.833.833 0 0 1-.834-.834V6.667h8.334v9.166Zm-2.5-.833a.833.833 0 0 0 .833-.833v-5a.833.833 0 1 0-1.667 0v5a.833.833 0 0 0 .834.833Z" fill="currentColor"/></svg>