<svg width="48" height="48" viewBox="0 0 48 48" fill="none" xmlns="http://www.w3.org/2000/svg">
<path d="M0 12C0 5.37258 5.37258 0 12 0H36C42.6274 0 48 5.37258 48 12V36C48 42.6274 42.6274 48 36 48H12C5.37258 48 0 42.6274 0 36V12Z" fill="#EFF1F1"/>
<path d="M35.0894 14.0219C33.0498 13.086 30.8626 12.3966 28.5759 12.0017C28.5342 11.994 28.4926 12.0131 28.4712 12.0512C28.1899 12.5515 27.8783 13.2041 27.6601 13.7171C25.2005 13.3489 22.7536 13.3489 20.3444 13.7171C20.1262 13.1927 19.8033 12.5515 19.5208 12.0512C19.4993 12.0144 19.4577 11.9953 19.4161 12.0017C17.1305 12.3953 14.9434 13.0848 12.9026 14.0219C12.8849 14.0295 12.8698 14.0422 12.8597 14.0587C8.71119 20.2565 7.57473 26.302 8.13224 32.2725C8.13476 32.3017 8.15116 32.3297 8.17386 32.3474C10.9109 34.3575 13.5623 35.5778 16.1644 36.3866C16.206 36.3993 16.2501 36.3841 16.2766 36.3498C16.8922 35.5092 17.4409 34.6229 17.9113 33.6908C17.9391 33.6363 17.9126 33.5715 17.8558 33.5499C16.9855 33.2198 16.1568 32.8172 15.3596 32.3601C15.2966 32.3233 15.2915 32.2331 15.3495 32.19C15.5173 32.0643 15.6851 31.9335 15.8453 31.8014C15.8743 31.7773 15.9146 31.7722 15.9487 31.7874C21.1857 34.1785 26.8554 34.1785 32.0306 31.7874C32.0647 31.7709 32.1051 31.776 32.1353 31.8001C32.2955 31.9322 32.4633 32.0643 32.6323 32.19C32.6903 32.2331 32.6865 32.3233 32.6235 32.3601C31.8263 32.8261 30.9976 33.2198 30.126 33.5486C30.0693 33.5702 30.044 33.6363 30.0718 33.6908C30.5523 34.6216 31.101 35.5079 31.7052 36.3485C31.7304 36.3841 31.7758 36.3993 31.8175 36.3866C34.4322 35.5778 37.0835 34.3575 39.8206 32.3474C39.8446 32.3297 39.8597 32.303 39.8622 32.2738C40.5294 25.3712 38.7447 19.3753 35.131 14.06C35.1221 14.0422 35.107 14.0295 35.0894 14.0219ZM18.6934 28.6371C17.1167 28.6371 15.8175 27.1896 15.8175 25.4119C15.8175 23.6341 17.0915 22.1866 18.6934 22.1866C20.3078 22.1866 21.5944 23.6469 21.5692 25.4119C21.5692 27.1896 20.2952 28.6371 18.6934 28.6371ZM29.3263 28.6371C27.7497 28.6371 26.4505 27.1896 26.4505 25.4119C26.4505 23.6341 27.7244 22.1866 29.3263 22.1866C30.9408 22.1866 32.2274 23.6469 32.2022 25.4119C32.2022 27.1896 30.9408 28.6371 29.3263 28.6371Z" fill="#5865F2"/>
</svg>
