<svg width="48" height="48" viewBox="0 0 48 48" fill="none" xmlns="http://www.w3.org/2000/svg">
<rect opacity="0.3" width="48" height="48" rx="16" fill="#CCE6FA"/>
<g clip-path="url(#clip0_1770_36684)">
<path d="M30.6481 16.5H24.0001V37.5C28.5001 37.5 31.5001 36.75 32.5448 32.2388C33.1253 29.7323 33.7921 22.9875 33.7921 18.858C33.7921 17.4593 32.7173 16.5 30.6481 16.5ZM17.1691 16.5H24.0001V37.5C19.5001 37.5 16.5001 36.75 15.3638 32.2388C14.7353 29.7435 14.0708 22.9875 14.0708 18.858C14.0708 17.4593 15.0991 16.5 17.1691 16.5Z" fill="#8899A6"/>
<path d="M33.789 18.375C33.789 19.9283 31.4415 21.1875 23.9962 21.1875C16.5517 21.1875 14.2035 19.9283 14.2035 18.375C14.2035 16.821 16.5517 15.5625 23.9962 15.5625C31.4415 15.5625 33.789 16.821 33.789 18.375Z" fill="#CCD6DD"/>
<path d="M24.0187 20.2477L15.387 19.5C15.387 24.75 16.215 30.2865 16.6477 31.929C17.1442 33.8108 18.75 33.7357 24 33.7485V33.75V33.7485C29.25 33.735 30.8745 33.8108 31.3702 31.929C31.8037 30.2865 32.64 24.75 32.64 19.5L24.0187 20.2477Z" fill="#CCD6DD"/>
<path d="M24 26.25V36C29.25 36 30.75 35.25 31.3928 31.929C31.5735 30.9968 31.998 28.8728 32.2733 26.25H24ZM15.7643 26.25C16.0388 28.8728 16.4505 30.9953 16.626 31.929C17.25 35.25 18.75 36 24 36V26.25H15.7643Z" fill="#55ACEE"/>
<path d="M24 33.12C20.583 33.12 17.8132 33.7912 17.8132 34.62C17.8132 34.6267 17.817 34.6335 17.8177 34.641C18.8655 35.6985 20.6835 36 24 36C27.3097 36 29.127 35.7 30.1807 34.6477C30.1815 34.6387 30.1867 34.6297 30.1867 34.62C30.1867 33.7912 27.417 33.12 24 33.12Z" fill="#3B88C3"/>
<path d="M23.9963 27.75C28.5592 27.75 32.2583 27.0784 32.2583 26.25C32.2583 25.4216 28.5592 24.75 23.9963 24.75C19.4333 24.75 15.7343 25.4216 15.7343 26.25C15.7343 27.0784 19.4333 27.75 23.9963 27.75Z" fill="#88C9F9"/>
<path d="M35.9685 11.202L30.8505 12.4747C30.2873 12.615 29.6768 12.9075 29.0205 13.404C27.7883 14.3362 27.537 15.6015 27.336 16.2997L24.255 27H26.5965L29.4975 16.923C29.6955 16.236 29.892 15.6465 30.3443 15.2362C30.7448 14.8732 31.407 14.6595 32.0273 14.499L36.51 13.3867C37.1108 13.2375 37.4798 12.6247 37.3313 12.024C37.182 11.4225 36.5693 11.0527 35.9685 11.202Z" fill="#E1E8ED"/>
<path d="M24.2549 27L22.2517 33.9578C22.0807 34.5525 22.4272 35.1788 23.0212 35.3505C23.6159 35.5215 24.2422 35.175 24.4132 34.581L26.5964 27H24.2549Z" fill="#88C9F9"/>
<path d="M24.4807 27.5078L24.0397 27.7493L23.835 28.4595L25.3845 31.2113L25.9665 29.1893L25.0207 27.5085L24.4807 27.5078Z" fill="#744EAA"/>
<path d="M31.4295 12.3307L30.5835 15.066C30.9817 14.8057 31.515 14.631 32.0287 14.4982L32.3542 14.4172L33.1305 11.9077L31.4295 12.3307Z" fill="#DD2E44"/>
<path d="M23.2838 30.3743L22.701 32.397L24.1725 35.0108C24.2805 34.8893 24.366 34.746 24.414 34.5803L24.8326 33.126L23.2838 30.3743Z" fill="#744EAA"/>
<path d="M25.536 22.551L24.9532 24.5745L25.989 26.4135L26.343 26.4923L26.8125 26.25L27.0855 25.3035L25.536 22.551ZM36.3712 11.1803C36.24 11.1645 36.1042 11.1683 35.9685 11.202L34.6965 11.5185L33.9195 14.0288L35.6197 13.6065L36.3712 11.1803ZM26.0932 20.616L27.6427 23.367L28.2247 21.345L26.676 18.5933L26.0932 20.616ZM28.9897 13.4318C28.3912 13.8945 28.026 14.4353 27.789 14.9483L28.779 19.4243L29.499 16.923C29.5485 16.7505 29.5987 16.584 29.652 16.425L28.9897 13.4318Z" fill="#DD2E44"/>
<path d="M24.4973 26.1608L24.0398 27.75C24.8603 27.7492 25.6523 27.7267 26.4 27.6855L26.8388 26.1615C26.1353 26.5238 24.6683 26.2973 24.4973 26.1608Z" fill="#55ACEE"/>
<path d="M32.7112 18.9817C32.5297 18.495 31.9957 18.2505 31.5232 18.4387C28.8187 19.5007 26.2402 19.8705 23.9962 19.8915V21.7605C26.496 21.735 29.313 21.3277 32.181 20.2005C32.6557 20.0145 32.8935 19.4685 32.7112 18.9817ZM15.2812 18.9817C15.4627 18.495 15.9967 18.2505 16.4692 18.4387C19.1737 19.5007 21.7522 19.8705 23.9962 19.8915V21.7605C21.4965 21.735 18.6795 21.3277 15.8115 20.2005C15.3375 20.0145 15.099 19.4685 15.2812 18.9817Z" fill="white"/>
</g>
<defs>
<clipPath id="clip0_1770_36684">
<rect width="27" height="27" fill="white" transform="translate(10.5 10.5)"/>
</clipPath>
</defs>
</svg>
