<svg width="256" height="256" viewBox="0 0 256 256" fill="none" xmlns="http://www.w3.org/2000/svg">
<rect x="58" y="74" width="140" height="108" rx="12.1905" fill="#C9C5D0"/>
<mask id="mask0_3312_122828" style="mask-type:alpha" maskUnits="userSpaceOnUse" x="58" y="74" width="140" height="108">
<rect x="58" y="74" width="140" height="108" rx="12.1905" fill="#CABEFF"/>
</mask>
<g mask="url(#mask0_3312_122828)">
<rect x="64.8008" y="142.2" width="128" height="0.4" transform="rotate(-90 64.8008 142.2)" fill="black"/>
<rect x="73" y="142" width="128" height="0.4" transform="rotate(-90 73 142)" fill="black"/>
<rect x="81" y="142" width="128" height="0.4" transform="rotate(-90 81 142)" fill="black"/>
<rect x="89" y="142" width="128" height="0.4" transform="rotate(-90 89 142)" fill="black"/>
<rect x="97" y="142" width="128" height="0.4" transform="rotate(-90 97 142)" fill="black"/>
<rect x="105" y="142" width="128" height="0.4" transform="rotate(-90 105 142)" fill="black"/>
<rect x="113" y="142" width="128" height="0.4" transform="rotate(-90 113 142)" fill="black"/>
<rect x="121" y="142" width="128" height="0.4" transform="rotate(-90 121 142)" fill="black"/>
<rect x="129" y="142" width="128" height="0.4" transform="rotate(-90 129 142)" fill="black"/>
<rect x="137" y="142" width="128" height="0.4" transform="rotate(-90 137 142)" fill="black"/>
<rect x="145" y="142" width="128" height="0.4" transform="rotate(-90 145 142)" fill="black"/>
<rect x="153" y="142" width="128" height="0.4" transform="rotate(-90 153 142)" fill="black"/>
<rect x="161" y="142" width="128" height="0.4" transform="rotate(-90 161 142)" fill="black"/>
<rect x="169" y="142" width="128" height="0.4" transform="rotate(-90 169 142)" fill="black"/>
<rect x="177" y="142" width="128" height="0.4" transform="rotate(-90 177 142)" fill="black"/>
<rect x="57" y="78" width="128" height="0.4" fill="black"/>
<rect x="57" y="86" width="128" height="0.4" fill="black"/>
<rect x="57" y="94" width="128" height="0.4" fill="black"/>
<rect x="57" y="102" width="128" height="0.4" fill="black"/>
<rect x="57" y="110" width="128" height="0.4" fill="black"/>
<rect x="57" y="118" width="128" height="0.4" fill="black"/>
<rect x="57" y="126" width="128" height="0.4" fill="black"/>
<rect x="57" y="134" width="128" height="0.4" fill="black"/>
</g>
<path d="M125.333 107.619C126.519 105.566 129.481 105.566 130.667 107.619L157.333 153.807C158.519 155.86 157.037 158.426 154.667 158.426H101.333C98.963 158.426 97.4815 155.86 98.6667 153.807L125.333 107.619Z" fill="#F4E560"/>
<path fill-rule="evenodd" clip-rule="evenodd" d="M128 119C125.791 119 124 120.791 124 123V135C124 137.209 125.791 139 128 139C130.209 139 132 137.209 132 135V123C132 120.791 130.209 119 128 119ZM128 143C125.791 143 124 144.791 124 147C124 149.209 125.791 151 128 151C130.209 151 132 149.209 132 147C132 144.791 130.209 143 128 143Z" fill="#444748"/>
<path d="M58 86C58 79.3726 63.3726 74 70 74H186C192.627 74 198 79.3726 198 86V94H58V86Z" fill="#78767F"/>
<circle cx="77" cy="84" r="3" fill="#E5E1EC"/>
<circle cx="87" cy="84" r="3" fill="#47464E"/>
<circle cx="97" cy="84" r="3" fill="#47464E"/>
<rect x="203.133" y="214.277" width="8" height="8" transform="rotate(-35.523 203.133 214.277)" fill="#C4C4C4"/>
<rect x="206" y="27.6482" width="8" height="8" rx="0.16" transform="rotate(-35.523 206 27.6482)" fill="#E5E1EC"/>
<g style="mix-blend-mode:multiply">
<rect x="172.453" y="171" width="16" height="16" transform="rotate(50.249 172.453 171)" fill="#C4C7C7"/>
</g>
<path fill-rule="evenodd" clip-rule="evenodd" d="M221.914 96.2086C221.914 96.0934 222.008 96 222.123 96H225.878C225.993 96 226.087 96.0934 226.087 96.2086V102.817L231.81 99.513C231.91 99.4554 232.037 99.4896 232.095 99.5894L233.972 102.841C234.03 102.941 233.996 103.069 233.896 103.126L228.172 106.431L233.896 109.735C233.995 109.793 234.03 109.92 233.972 110.02L232.094 113.272C232.037 113.372 231.909 113.406 231.81 113.348L226.087 110.044V116.653C226.087 116.768 225.993 116.861 225.878 116.861H222.123C222.008 116.861 221.914 116.768 221.914 116.653V110.044L216.191 113.348C216.091 113.406 215.963 113.372 215.906 113.272L214.028 110.02C213.971 109.92 214.005 109.793 214.105 109.735L219.828 106.431L214.104 103.126C214.005 103.069 213.97 102.941 214.028 102.841L215.906 99.5894C215.963 99.4896 216.091 99.4554 216.19 99.513L221.914 102.818V96.2086Z" fill="#E0E3E3"/>
<path fill-rule="evenodd" clip-rule="evenodd" d="M94.3314 193.209C94.3314 193.093 94.4248 193 94.54 193H97.4606C97.5758 193 97.6692 193.093 97.6692 193.209V198.454L102.212 195.831C102.311 195.774 102.439 195.808 102.496 195.908L103.957 198.437C104.014 198.537 103.98 198.664 103.88 198.722L99.3378 201.344L103.88 203.967C103.98 204.025 104.014 204.152 103.956 204.252L102.496 206.781C102.439 206.881 102.311 206.915 102.211 206.858L97.6692 204.235V209.48C97.6692 209.595 97.5758 209.689 97.4606 209.689H94.54C94.4248 209.689 94.3314 209.595 94.3314 209.48V204.235L89.7888 206.858C89.689 206.915 89.5614 206.881 89.5038 206.781L88.0435 204.252C87.9859 204.152 88.0201 204.025 88.1199 203.967L92.6622 201.344L88.1196 198.722C88.0198 198.664 87.9856 198.537 88.0432 198.437L89.5035 195.908C89.5611 195.808 89.6887 195.774 89.7885 195.831L94.3314 198.454V193.209Z" fill="#E0E3E3"/>
<path fill-rule="evenodd" clip-rule="evenodd" d="M52 62C56.4183 62 60 58.4183 60 54C60 49.5817 56.4183 46 52 46C47.5817 46 44 49.5817 44 54C44 58.4183 47.5817 62 52 62ZM52 58C54.2091 58 56 56.2091 56 54C56 51.7909 54.2091 50 52 50C49.7909 50 48 51.7909 48 54C48 56.2091 49.7909 58 52 58Z" fill="#C4C7C7"/>
<path fill-rule="evenodd" clip-rule="evenodd" d="M39 167C43.4183 167 47 163.418 47 159C47 154.582 43.4183 151 39 151C34.5817 151 31 154.582 31 159C31 163.418 34.5817 167 39 167ZM39 163C41.2091 163 43 161.209 43 159C43 156.791 41.2091 155 39 155C36.7909 155 35 156.791 35 159C35 161.209 36.7909 163 39 163Z" fill="#E0E3E3"/>
<path d="M153.212 48.3137C153.169 48.1981 153.267 48.0798 153.389 48.1006L168.611 50.7166C168.733 50.7375 168.786 50.8819 168.707 50.9766L158.83 62.8518C158.752 62.9465 158.6 62.9204 158.557 62.8048L153.212 48.3137Z" fill="#C9C5D0"/>
<path d="M117.818 59.5458L119.926 55.5412C121.091 53.3296 120.241 50.5929 118.03 49.4287V49.4287C115.818 48.2645 114.969 45.5278 116.133 43.3162V43.3162C117.298 41.1045 116.448 38.3678 114.237 37.2036V37.2036C112.025 36.0394 111.176 33.3027 112.34 31.0911L114.448 27.0865" stroke="#F7F8F8" stroke-width="3.2" stroke-linecap="round" stroke-linejoin="round"/>
<path d="M117.818 59.5458L119.926 55.5412C121.091 53.3296 120.241 50.5929 118.03 49.4287V49.4287C115.818 48.2645 114.969 45.5278 116.133 43.3162V43.3162C117.298 41.1045 116.448 38.3678 114.237 37.2036V37.2036C112.025 36.0394 111.176 33.3027 112.34 31.0911L114.448 27.0865" stroke="#78767F" stroke-opacity="0.02" stroke-width="3.2" stroke-linecap="round" stroke-linejoin="round"/>
<path d="M117.818 59.5458L119.926 55.5412C121.091 53.3296 120.241 50.5929 118.03 49.4287V49.4287C115.818 48.2645 114.969 45.5278 116.133 43.3162V43.3162C117.298 41.1045 116.448 38.3678 114.237 37.2036V37.2036C112.025 36.0394 111.176 33.3027 112.34 31.0911L114.448 27.0865" stroke="#5D34F2" stroke-opacity="0.11" stroke-width="3.2" stroke-linecap="round" stroke-linejoin="round"/>
<path d="M29.7173 172.618C29.7394 172.496 29.8844 172.445 29.9783 172.524L35.6526 177.345C35.7465 177.425 35.7188 177.577 35.6028 177.618L28.5906 180.122C28.4746 180.163 28.3573 180.063 28.3794 179.942L29.7173 172.618Z" fill="#E5E1EC"/>
<rect x="75" y="220" width="80" height="4" rx="2" fill="#747778"/>
<rect x="167" y="220" width="19" height="4" rx="2" fill="#747778"/>
</svg>
