<svg width="18" height="12" viewBox="0 0 18 12" fill="none" xmlns="http://www.w3.org/2000/svg"><path d="M11.5 6a2.5 2.5 0 1 1-5 0 2.5 2.5 0 0 1 5 0Z" fill="currentColor"/><path d="M17.246 5.627C15.447 2.03 12.253.167 9 .167 5.748.167 2.553 2.03.755 5.627a.833.833 0 0 0 0 .746C2.553 9.97 5.748 11.833 9 11.833c3.253 0 6.447-1.863 8.246-5.46a.833.833 0 0 0 0-.746ZM9 10.167C6.526 10.167 4 8.816 2.442 6 3.999 3.184 6.526 1.833 9 1.833S14.002 3.183 15.56 6C14.002 8.816 11.474 10.167 9 10.167Z" fill="currentColor"/></svg>