<svg width="20" height="20" viewBox="0 0 20 20" fill="none" xmlns="http://www.w3.org/2000/svg">
<path d="M10.0001 1.66663C8.35191 1.66663 6.74074 2.15537 5.37033 3.07105C3.99992 3.98672 2.93182 5.28821 2.30109 6.81093C1.67036 8.33365 1.50533 10.0092 1.82687 11.6257C2.14842 13.2422 2.94209 14.7271 4.10753 15.8925C5.27297 17.058 6.75782 17.8516 8.37433 18.1732C9.99084 18.4947 11.6664 18.3297 13.1891 17.699C14.7118 17.0682 16.0133 16.0001 16.929 14.6297C17.8447 13.2593 18.3334 11.6481 18.3334 9.99996C18.3334 8.90561 18.1179 7.82198 17.6991 6.81093C17.2803 5.79988 16.6665 4.88122 15.8926 4.1074C15.1188 3.33358 14.2002 2.71975 13.1891 2.30096C12.1781 1.88217 11.0944 1.66663 10.0001 1.66663ZM10.0001 16.6666C8.23198 16.6666 6.53628 15.9642 5.28604 14.714C4.0358 13.4638 3.33342 11.7681 3.33342 9.99996C3.33158 8.51941 3.8276 7.08125 4.74175 5.91663L14.0834 15.2583C12.9188 16.1724 11.4806 16.6685 10.0001 16.6666ZM15.2584 14.0833L5.91675 4.74163C7.08137 3.82747 8.51954 3.33145 10.0001 3.33329C11.7682 3.33329 13.4639 4.03567 14.7141 5.28591C15.9644 6.53616 16.6668 8.23185 16.6668 9.99996C16.6686 11.4805 16.1726 12.9187 15.2584 14.0833Z" fill="currentColor"/>
</svg>
