<svg width="48" height="48" viewBox="0 0 48 48" fill="none" xmlns="http://www.w3.org/2000/svg">
<rect opacity="0.3" width="48" height="48" rx="16" fill="#C6E5B3"/>
<g clip-path="url(#clip0_1770_36833)">
<path d="M37.5 27C37.5 32.592 31.4557 36 24 36C16.5443 36 10.5 32.592 10.5 27C10.5 21.408 16.5443 15.75 24 15.75C31.4557 15.75 37.5 21.408 37.5 27Z" fill="#C6E5B3"/>
<path d="M34.3162 20.007C35.3422 19.182 36 17.9182 36 16.5C36 14.0152 33.9848 12 31.5 12C29.3542 12 27.5625 13.503 27.1117 15.5137C26.1458 15.1515 25.0995 14.9452 24 14.9452C22.9012 14.9452 21.8542 15.1515 20.8883 15.5137C20.4375 13.503 18.6458 12 16.5 12C14.0152 12 12 14.0152 12 16.5C12 17.9182 12.6577 19.182 13.6837 20.007C11.7 22.017 10.5 24.5137 10.5 27C10.5 32.592 16.5443 27.75 24 27.75C31.4557 27.75 37.5 32.592 37.5 27C37.5 24.5137 36.3 22.017 34.3162 20.007Z" fill="#77B255"/>
<path d="M16.125 18.75C17.5747 18.75 18.75 17.5747 18.75 16.125C18.75 14.6753 17.5747 13.5 16.125 13.5C14.6753 13.5 13.5 14.6753 13.5 16.125C13.5 17.5747 14.6753 18.75 16.125 18.75Z" fill="white"/>
<path d="M16.125 17.25C16.7463 17.25 17.25 16.7463 17.25 16.125C17.25 15.5037 16.7463 15 16.125 15C15.5037 15 15 15.5037 15 16.125C15 16.7463 15.5037 17.25 16.125 17.25Z" fill="#292F33"/>
<path d="M31.875 18.75C33.3247 18.75 34.5 17.5747 34.5 16.125C34.5 14.6753 33.3247 13.5 31.875 13.5C30.4253 13.5 29.25 14.6753 29.25 16.125C29.25 17.5747 30.4253 18.75 31.875 18.75Z" fill="white"/>
<path d="M31.875 17.25C32.4963 17.25 33 16.7463 33 16.125C33 15.5037 32.4963 15 31.875 15C31.2537 15 30.75 15.5037 30.75 16.125C30.75 16.7463 31.2537 17.25 31.875 17.25Z" fill="#292F33"/>
<path d="M21 26.25C21.4142 26.25 21.75 25.9142 21.75 25.5C21.75 25.0858 21.4142 24.75 21 24.75C20.5858 24.75 20.25 25.0858 20.25 25.5C20.25 25.9142 20.5858 26.25 21 26.25Z" fill="#5C913B"/>
<path d="M27 26.25C27.4142 26.25 27.75 25.9142 27.75 25.5C27.75 25.0858 27.4142 24.75 27 24.75C26.5858 24.75 26.25 25.0858 26.25 25.5C26.25 25.9142 26.5858 26.25 27 26.25Z" fill="#5C913B"/>
</g>
<defs>
<clipPath id="clip0_1770_36833">
<rect width="27" height="27" fill="white" transform="translate(10.5 10.5)"/>
</clipPath>
</defs>
</svg>
