<svg width="48" height="48" viewBox="0 0 48 48" fill="none" xmlns="http://www.w3.org/2000/svg">
<path d="M0 8C0 3.58172 3.58172 0 8 0H40C44.4183 0 48 3.58172 48 8V40C48 44.4183 44.4183 48 40 48H8C3.58172 48 0 44.4183 0 40V8Z" fill="#3A3B59"/>
<path d="M8 11C8 8.79086 9.79086 7 12 7L32 7C34.2091 7 36 8.79086 36 11V35C36 37.2091 34.2091 39 32 39H12C9.79086 39 8 37.2091 8 35L8 11Z" fill="url(#paint0_linear_289_11390)"/>
<rect x="12" y="20" width="10" height="2" rx="1" fill="#F4E560"/>
<rect x="12" y="24" width="12" height="2" rx="1" fill="#F4E560"/>
<rect x="12" y="28" width="4" height="2" rx="1" fill="#F4E560"/>
<rect x="12.5" y="10.5" width="7" height="7" rx="1.5" stroke="#983C8F"/>
<path fill-rule="evenodd" clip-rule="evenodd" d="M29 21C29 20.4477 29.4477 20 30 20H32C32.5523 20 33 20.4477 33 21V23H29V21ZM29 41C29 41.5523 29.4477 42 30 42H32C32.5523 42 33 41.5523 33 41V39H29V41ZM21 33C20.4477 33 20 32.5523 20 32V30C20 29.4477 20.4477 29 21 29H23V33H21ZM41 33C41.5523 33 42 32.5523 42 32V30C42 29.4477 41.5523 29 41 29H39V33H41Z" fill="#AC65FC"/>
<path fill-rule="evenodd" clip-rule="evenodd" d="M22.5149 25.3431C22.1244 24.9526 22.1244 24.3195 22.5149 23.9289L23.9291 22.5147C24.3197 22.1242 24.9528 22.1242 25.3433 22.5147L26.7576 23.9289L23.9291 26.7574L22.5149 25.3431ZM36.6571 39.4853C37.0476 39.8758 37.6807 39.8758 38.0713 39.4853L39.4855 38.0711C39.876 37.6805 39.876 37.0474 39.4855 36.6569L38.0713 35.2426L35.2428 38.0711L36.6571 39.4853ZM25.3433 39.4853C24.9528 39.8758 24.3197 39.8758 23.9291 39.4853L22.5149 38.0711C22.1244 37.6805 22.1244 37.0474 22.5149 36.6569L23.9291 35.2426L26.7576 38.0711L25.3433 39.4853ZM39.4855 25.3431C39.876 24.9526 39.876 24.3195 39.4855 23.9289L38.0713 22.5147C37.6807 22.1242 37.0476 22.1242 36.6571 22.5147L35.2428 23.9289L38.0713 26.7574L39.4855 25.3431Z" fill="#AC65FC"/>
<path fill-rule="evenodd" clip-rule="evenodd" d="M31 40C35.9706 40 40 35.9706 40 31C40 26.0294 35.9706 22 31 22C26.0294 22 22 26.0294 22 31C22 35.9706 26.0294 40 31 40ZM31 34C32.6569 34 34 32.6569 34 31C34 29.3431 32.6569 28 31 28C29.3431 28 28 29.3431 28 31C28 32.6569 29.3431 34 31 34Z" fill="url(#paint1_linear_289_11390)"/>
<defs>
<linearGradient id="paint0_linear_289_11390" x1="8" y1="41.5" x2="31.504" y2="7.61547" gradientUnits="userSpaceOnUse">
<stop stop-color="#F9CB54"/>
<stop offset="1" stop-color="#E45CFA"/>
</linearGradient>
<linearGradient id="paint1_linear_289_11390" x1="20.5214" y1="32.3125" x2="39.7606" y2="25.2088" gradientUnits="userSpaceOnUse">
<stop stop-color="#492EF3"/>
<stop offset="1" stop-color="#D57CFF"/>
</linearGradient>
</defs>
</svg>
