<svg width="48" height="48" viewBox="0 0 48 48" fill="none" xmlns="http://www.w3.org/2000/svg">
<path d="M0 8C0 3.58172 3.58172 0 8 0H40C44.4183 0 48 3.58172 48 8V40C48 44.4183 44.4183 48 40 48H8C3.58172 48 0 44.4183 0 40V8Z" fill="#F3EFFA"/>
<path d="M8 11C8 8.79086 9.79086 7 12 7L32 7C34.2091 7 36 8.79086 36 11V35C36 37.2091 34.2091 39 32 39H12C9.79086 39 8 37.2091 8 35L8 11Z" fill="url(#paint0_linear_3406_128140)"/>
<rect x="12" y="20" width="10" height="2" rx="1" fill="#F4E560"/>
<rect x="12" y="24" width="12" height="2" rx="1" fill="#F4E560"/>
<rect x="12" y="28" width="4" height="2" rx="1" fill="#F4E560"/>
<rect x="12.5" y="10.5" width="7" height="7" rx="1.5" stroke="black"/>
<mask id="path-7-inside-1_3406_128140" fill="white">
<path fill-rule="evenodd" clip-rule="evenodd" d="M29 21C29 20.4477 29.4477 20 30 20H32C32.5523 20 33 20.4477 33 21V23H29V21ZM29 41C29 41.5523 29.4477 42 30 42H32C32.5523 42 33 41.5523 33 41V39H29V41ZM21 33C20.4477 33 20 32.5523 20 32V30C20 29.4477 20.4477 29 21 29H23V33H21ZM41 33C41.5523 33 42 32.5523 42 32V30C42 29.4477 41.5523 29 41 29H39V33H41Z"/>
</mask>
<path fill-rule="evenodd" clip-rule="evenodd" d="M29 21C29 20.4477 29.4477 20 30 20H32C32.5523 20 33 20.4477 33 21V23H29V21ZM29 41C29 41.5523 29.4477 42 30 42H32C32.5523 42 33 41.5523 33 41V39H29V41ZM21 33C20.4477 33 20 32.5523 20 32V30C20 29.4477 20.4477 29 21 29H23V33H21ZM41 33C41.5523 33 42 32.5523 42 32V30C42 29.4477 41.5523 29 41 29H39V33H41Z" fill="#F7F8F8"/>
<path fill-rule="evenodd" clip-rule="evenodd" d="M29 21C29 20.4477 29.4477 20 30 20H32C32.5523 20 33 20.4477 33 21V23H29V21ZM29 41C29 41.5523 29.4477 42 30 42H32C32.5523 42 33 41.5523 33 41V39H29V41ZM21 33C20.4477 33 20 32.5523 20 32V30C20 29.4477 20.4477 29 21 29H23V33H21ZM41 33C41.5523 33 42 32.5523 42 32V30C42 29.4477 41.5523 29 41 29H39V33H41Z" fill="#78767F" fill-opacity="0.02"/>
<path fill-rule="evenodd" clip-rule="evenodd" d="M29 21C29 20.4477 29.4477 20 30 20H32C32.5523 20 33 20.4477 33 21V23H29V21ZM29 41C29 41.5523 29.4477 42 30 42H32C32.5523 42 33 41.5523 33 41V39H29V41ZM21 33C20.4477 33 20 32.5523 20 32V30C20 29.4477 20.4477 29 21 29H23V33H21ZM41 33C41.5523 33 42 32.5523 42 32V30C42 29.4477 41.5523 29 41 29H39V33H41Z" fill="#5D34F2" fill-opacity="0.05"/>
<path d="M33 23V24H34V23H33ZM29 23H28V24H29V23ZM33 39H34V38H33V39ZM29 39V38H28V39H29ZM23 29H24V28H23V29ZM23 33V34H24V33H23ZM39 29V28H38V29H39ZM39 33H38V34H39V33ZM30 19C28.8954 19 28 19.8954 28 21H30V21V19ZM32 19H30V21H32V19ZM34 21C34 19.8954 33.1046 19 32 19V21H34ZM34 23V21H32V23H34ZM29 24H33V22H29V24ZM28 21V23H30V21H28ZM30 41H28C28 42.1046 28.8954 43 30 43V41ZM32 41H30V43H32V41ZM32 41V43C33.1046 43 34 42.1046 34 41H32ZM32 39V41H34V39H32ZM29 40H33V38H29V40ZM30 41V39H28V41H30ZM19 32C19 33.1046 19.8954 34 21 34V32H21H19ZM19 30V32H21V30H19ZM21 28C19.8954 28 19 28.8954 19 30H21V28ZM23 28H21V30H23V28ZM24 33V29H22V33H24ZM21 34H23V32H21V34ZM41 32V34C42.1046 34 43 33.1046 43 32H41ZM41 30V32H43V30H41ZM41 30H43C43 28.8954 42.1046 28 41 28V30ZM39 30H41V28H39V30ZM40 33V29H38V33H40ZM41 32H39V34H41V32Z" fill="black" mask="url(#path-7-inside-1_3406_128140)"/>
<mask id="path-9-inside-2_3406_128140" fill="white">
<path fill-rule="evenodd" clip-rule="evenodd" d="M22.5164 25.3431C22.1259 24.9526 22.1259 24.3195 22.5164 23.9289L23.9306 22.5147C24.3211 22.1242 24.9543 22.1242 25.3448 22.5147L26.759 23.9289L23.9306 26.7574L22.5164 25.3431ZM36.6585 39.4853C37.049 39.8758 37.6822 39.8758 38.0727 39.4853L39.4869 38.0711C39.8775 37.6805 39.8775 37.0474 39.4869 36.6569L38.0727 35.2426L35.2443 38.0711L36.6585 39.4853ZM25.3448 39.4853C24.9543 39.8758 24.3211 39.8758 23.9306 39.4853L22.5164 38.0711C22.1259 37.6805 22.1259 37.0474 22.5164 36.6569L23.9306 35.2426L26.759 38.0711L25.3448 39.4853ZM39.4869 25.3431C39.8775 24.9526 39.8775 24.3195 39.4869 23.9289L38.0727 22.5147C37.6822 22.1242 37.049 22.1242 36.6585 22.5147L35.2443 23.9289L38.0727 26.7574L39.4869 25.3431Z"/>
</mask>
<path fill-rule="evenodd" clip-rule="evenodd" d="M22.5164 25.3431C22.1259 24.9526 22.1259 24.3195 22.5164 23.9289L23.9306 22.5147C24.3211 22.1242 24.9543 22.1242 25.3448 22.5147L26.759 23.9289L23.9306 26.7574L22.5164 25.3431ZM36.6585 39.4853C37.049 39.8758 37.6822 39.8758 38.0727 39.4853L39.4869 38.0711C39.8775 37.6805 39.8775 37.0474 39.4869 36.6569L38.0727 35.2426L35.2443 38.0711L36.6585 39.4853ZM25.3448 39.4853C24.9543 39.8758 24.3211 39.8758 23.9306 39.4853L22.5164 38.0711C22.1259 37.6805 22.1259 37.0474 22.5164 36.6569L23.9306 35.2426L26.759 38.0711L25.3448 39.4853ZM39.4869 25.3431C39.8775 24.9526 39.8775 24.3195 39.4869 23.9289L38.0727 22.5147C37.6822 22.1242 37.049 22.1242 36.6585 22.5147L35.2443 23.9289L38.0727 26.7574L39.4869 25.3431Z" fill="#F7F8F8"/>
<path fill-rule="evenodd" clip-rule="evenodd" d="M22.5164 25.3431C22.1259 24.9526 22.1259 24.3195 22.5164 23.9289L23.9306 22.5147C24.3211 22.1242 24.9543 22.1242 25.3448 22.5147L26.759 23.9289L23.9306 26.7574L22.5164 25.3431ZM36.6585 39.4853C37.049 39.8758 37.6822 39.8758 38.0727 39.4853L39.4869 38.0711C39.8775 37.6805 39.8775 37.0474 39.4869 36.6569L38.0727 35.2426L35.2443 38.0711L36.6585 39.4853ZM25.3448 39.4853C24.9543 39.8758 24.3211 39.8758 23.9306 39.4853L22.5164 38.0711C22.1259 37.6805 22.1259 37.0474 22.5164 36.6569L23.9306 35.2426L26.759 38.0711L25.3448 39.4853ZM39.4869 25.3431C39.8775 24.9526 39.8775 24.3195 39.4869 23.9289L38.0727 22.5147C37.6822 22.1242 37.049 22.1242 36.6585 22.5147L35.2443 23.9289L38.0727 26.7574L39.4869 25.3431Z" fill="#78767F" fill-opacity="0.02"/>
<path fill-rule="evenodd" clip-rule="evenodd" d="M22.5164 25.3431C22.1259 24.9526 22.1259 24.3195 22.5164 23.9289L23.9306 22.5147C24.3211 22.1242 24.9543 22.1242 25.3448 22.5147L26.759 23.9289L23.9306 26.7574L22.5164 25.3431ZM36.6585 39.4853C37.049 39.8758 37.6822 39.8758 38.0727 39.4853L39.4869 38.0711C39.8775 37.6805 39.8775 37.0474 39.4869 36.6569L38.0727 35.2426L35.2443 38.0711L36.6585 39.4853ZM25.3448 39.4853C24.9543 39.8758 24.3211 39.8758 23.9306 39.4853L22.5164 38.0711C22.1259 37.6805 22.1259 37.0474 22.5164 36.6569L23.9306 35.2426L26.759 38.0711L25.3448 39.4853ZM39.4869 25.3431C39.8775 24.9526 39.8775 24.3195 39.4869 23.9289L38.0727 22.5147C37.6822 22.1242 37.049 22.1242 36.6585 22.5147L35.2443 23.9289L38.0727 26.7574L39.4869 25.3431Z" fill="#5D34F2" fill-opacity="0.05"/>
<path d="M22.5164 25.3431L21.8093 26.0503L22.5164 25.3431ZM26.759 23.9289L27.4661 24.636L28.1732 23.9289L27.4661 23.2218L26.759 23.9289ZM23.9306 26.7574L23.2235 27.4645L23.9306 28.1716L24.6377 27.4645L23.9306 26.7574ZM38.0727 35.2426L38.7798 34.5355L38.0727 33.8284L37.3656 34.5355L38.0727 35.2426ZM35.2443 38.0711L34.5372 37.364L33.8301 38.0711L34.5372 38.7782L35.2443 38.0711ZM23.9306 35.2426L24.6377 34.5355L23.9306 33.8284L23.2235 34.5355L23.9306 35.2426ZM26.759 38.0711L27.4661 38.7782L28.1732 38.0711L27.4661 37.364L26.759 38.0711ZM35.2443 23.9289L34.5372 23.2218L33.8301 23.9289L34.5372 24.636L35.2443 23.9289ZM38.0727 26.7574L37.3656 27.4645L38.0727 28.1716L38.7798 27.4645L38.0727 26.7574ZM21.8093 23.2218C21.0282 24.0029 21.0282 25.2692 21.8093 26.0503L23.2235 24.636L23.2235 24.636L21.8093 23.2218ZM23.2235 21.8076L21.8093 23.2218L23.2235 24.636L24.6377 23.2218L23.2235 21.8076ZM26.0519 21.8076C25.2709 21.0266 24.0045 21.0266 23.2235 21.8076L24.6377 23.2218L26.0519 21.8076ZM27.4661 23.2218L26.0519 21.8076L24.6377 23.2218L26.0519 24.636L27.4661 23.2218ZM24.6377 27.4645L27.4661 24.636L26.0519 23.2218L23.2235 26.0503L24.6377 27.4645ZM21.8093 26.0503L23.2235 27.4645L24.6377 26.0503L23.2235 24.636L21.8093 26.0503ZM37.3656 38.7782L35.9514 40.1924C36.7325 40.9734 37.9988 40.9734 38.7798 40.1924L37.3656 38.7782ZM38.7798 37.364L37.3656 38.7782L38.7798 40.1924L40.194 38.7782L38.7798 37.364ZM38.7798 37.364L40.194 38.7782C40.9751 37.9971 40.9751 36.7308 40.194 35.9497L38.7798 37.364ZM37.3656 35.9497L38.7798 37.364L40.194 35.9497L38.7798 34.5355L37.3656 35.9497ZM35.9514 38.7782L38.7798 35.9497L37.3656 34.5355L34.5372 37.364L35.9514 38.7782ZM37.3656 38.7782L35.9514 37.364L34.5372 38.7782L35.9514 40.1924L37.3656 38.7782ZM23.2235 40.1924C24.0045 40.9734 25.2709 40.9734 26.0519 40.1924L24.6377 38.7782L24.6377 38.7782L23.2235 40.1924ZM21.8093 38.7782L23.2235 40.1924L24.6377 38.7782L23.2235 37.364L21.8093 38.7782ZM21.8093 35.9497C21.0282 36.7308 21.0282 37.9971 21.8093 38.7782L23.2235 37.364L21.8093 35.9497ZM23.2235 34.5355L21.8093 35.9497L23.2235 37.364L24.6377 35.9497L23.2235 34.5355ZM27.4661 37.364L24.6377 34.5355L23.2235 35.9497L26.0519 38.7782L27.4661 37.364ZM26.0519 40.1924L27.4661 38.7782L26.0519 37.364L24.6377 38.7782L26.0519 40.1924ZM38.7798 24.636L40.194 26.0503C40.9751 25.2692 40.9751 24.0029 40.194 23.2218L38.7798 24.636ZM37.3656 23.2218L38.7798 24.636L40.194 23.2218L38.7798 21.8076L37.3656 23.2218ZM37.3656 23.2218L38.7798 21.8076C37.9988 21.0266 36.7325 21.0266 35.9514 21.8076L37.3656 23.2218ZM35.9514 24.636L37.3656 23.2218L35.9514 21.8076L34.5372 23.2218L35.9514 24.636ZM38.7798 26.0503L35.9514 23.2218L34.5372 24.636L37.3656 27.4645L38.7798 26.0503ZM38.7798 24.636L37.3656 26.0503L38.7798 27.4645L40.194 26.0503L38.7798 24.636Z" fill="black" mask="url(#path-9-inside-2_3406_128140)"/>
<path fill-rule="evenodd" clip-rule="evenodd" d="M31 40C35.9706 40 40 35.9706 40 31C40 26.0294 35.9706 22 31 22C26.0294 22 22 26.0294 22 31C22 35.9706 26.0294 40 31 40ZM31 34C32.6569 34 34 32.6569 34 31C34 29.3431 32.6569 28 31 28C29.3431 28 28 29.3431 28 31C28 32.6569 29.3431 34 31 34Z" fill="url(#paint1_linear_3406_128140)"/>
<defs>
<linearGradient id="paint0_linear_3406_128140" x1="8" y1="41.5" x2="31.504" y2="7.61547" gradientUnits="userSpaceOnUse">
<stop stop-color="#F9CB54"/>
<stop offset="1" stop-color="#E45CFA"/>
</linearGradient>
<linearGradient id="paint1_linear_3406_128140" x1="20.5214" y1="32.3125" x2="39.7606" y2="25.2088" gradientUnits="userSpaceOnUse">
<stop stop-color="#492EF3"/>
<stop offset="1" stop-color="#CF69FF"/>
</linearGradient>
</defs>
</svg>
