<svg width="48" height="48" viewBox="0 0 48 48" fill="none" xmlns="http://www.w3.org/2000/svg">
<rect width="48" height="48" rx="8" fill="#3A3B59"/>
<path d="M10 14C10 11.7909 11.7909 10 14 10H24L29.1849 10C30.3384 10 31.4357 10.4979 32.1952 11.366L37.0103 16.8689C37.6483 17.5981 38 18.534 38 19.5029V26V38C38 40.2091 36.2091 42 34 42H31H24H14C11.7909 42 10 40.2091 10 38L10 14Z" fill="#947DFF"/>
<path d="M14 10C14 7.79086 15.7909 6 18 6L28 6L33.1849 6C34.3384 6 35.4357 6.49792 36.1952 7.36598L41.0103 12.8689C41.6483 13.5981 42 14.534 42 15.5029V22V34C42 36.2091 40.2091 38 38 38H18C15.7909 38 14 36.2091 14 34L14 10Z" fill="url(#paint0_linear_4272_17345)"/>
<path d="M32 20C32 19.4477 32.4477 19 33 19H39C39.5523 19 40 19.4477 40 20C40 20.5523 39.5523 21 39 21H33C32.4477 21 32 20.5523 32 20Z" fill="#FAABFF"/>
<path d="M32 24C32 23.4477 32.4477 23 33 23H39C39.5523 23 40 23.4477 40 24C40 24.5523 39.5523 25 39 25H33C32.4477 25 32 24.5523 32 24Z" fill="#FAABFF"/>
<rect x="32" y="27" width="4" height="2" rx="1" fill="#FAABFF"/>
<rect x="32" y="31" width="4" height="2" rx="1" fill="#FAABFF"/>
<rect x="18" y="9" width="8" height="8" rx="2" fill="#FAABFF"/>
<path opacity="0.64" d="M4 23C4 20.7909 5.79086 19 8 19H26C28.2091 19 30 20.7909 30 23V29C30 31.2091 28.2091 33 26 33H8C5.79086 33 4 31.2091 4 29V23Z" fill="#E6DEFF"/>
<path d="M8 28.8462H10.4446C12.1954 28.8462 13.1676 27.8126 13.1676 25.9467V25.9389C13.1676 24.1637 12.1793 23.1538 10.4446 23.1538H8V28.8462ZM9.4805 27.6824V24.3176H10.1784C11.1103 24.3176 11.6589 24.9093 11.6589 25.9665V25.9744C11.6589 27.0986 11.1385 27.6824 10.1784 27.6824H9.4805Z" fill="#302F38"/>
<path d="M16.8669 29C18.6177 29 19.7351 27.8521 19.7351 26.002V25.9941C19.7351 24.1479 18.6136 23 16.8669 23C15.1161 23 13.9946 24.1479 13.9946 25.9941V26.002C13.9946 27.8521 15.108 29 16.8669 29ZM16.8669 27.8008C16.0399 27.8008 15.4993 27.0986 15.4993 26.002V25.9941C15.4993 24.9014 16.048 24.1992 16.8669 24.1992C17.6818 24.1992 18.2264 24.9014 18.2264 25.9941V26.002C18.2264 27.0986 17.6818 27.8008 16.8669 27.8008Z" fill="#302F38"/>
<path d="M23.3779 29C24.8705 29 25.9032 28.1124 26 26.8422V26.7791H24.576L24.5679 26.8225C24.4671 27.4103 24.0193 27.8008 23.3819 27.8008C22.567 27.8008 22.0708 27.1183 22.0708 25.998V25.9901C22.0708 24.8777 22.567 24.1992 23.3779 24.1992C24.0152 24.1992 24.4832 24.6174 24.5679 25.213L24.5719 25.2485H25.996V25.1775C25.9113 23.9191 24.8422 23 23.3779 23C21.6311 23 20.5621 24.14 20.5621 25.9941V26.002C20.5621 27.856 21.6351 29 23.3779 29Z" fill="#302F38"/>
<defs>
<linearGradient id="paint0_linear_4272_17345" x1="18.8125" y1="33.6667" x2="40.3144" y2="13.5399" gradientUnits="userSpaceOnUse">
<stop stop-color="#5D34F2"/>
<stop offset="1" stop-color="#FAABFF"/>
</linearGradient>
</defs>
</svg>
