<svg width="24" height="24" viewBox="0 0 24 24" fill="none" xmlns="http://www.w3.org/2000/svg">
<g clip-path="url(#clip0_331_72604)">
<path d="M20.3332 19.2223C20.3332 20.4446 19.3332 21.4446 18.1109 21.4446H5.88873C4.6665 21.4446 3.6665 20.4446 3.6665 19.2223V9.77789C3.6665 8.55566 4.6665 7.55566 5.88873 7.55566H18.1109C19.3332 7.55566 20.3332 8.55566 20.3332 9.77789V19.2223Z" fill="#FFB95A"/>
<path d="M22 8.11114C22 9.33336 21 10.3334 19.7778 10.3334H4.22222C3 10.3334 2 9.33336 2 8.11114C2 6.88892 3 5.88892 4.22222 5.88892H19.7778C21 5.88892 22 6.88892 22 8.11114Z" fill="#FFB95A"/>
<path d="M3.6665 10.3333H20.3332V11.4444H3.6665V10.3333Z" fill="#EB9918"/>
<path d="M12.5556 3.66675H11.4445C10.5239 3.66675 9.77783 4.41286 9.77783 5.33341V21.4445H14.2223V5.33341C14.2223 4.41341 13.4762 3.66675 12.5556 3.66675Z" fill="#DD3730"/>
<path d="M10.8891 5.88893C11.5002 5.88893 11.5908 5.60226 11.0897 5.25171L7.35522 2.63726C6.85411 2.28671 6.19689 2.43393 5.89356 2.96448L4.77356 4.92448C4.47022 5.45504 4.72245 5.88893 5.33356 5.88893H10.8891ZM13.1113 5.88893C12.5002 5.88893 12.4097 5.60226 12.9108 5.25171L16.6458 2.63726C17.1463 2.28671 17.8041 2.43393 18.1074 2.96448L19.2274 4.92393C19.5302 5.45504 19.278 5.88893 18.6669 5.88893H13.1113Z" fill="#DD3730"/>
</g>
<defs>
<clipPath id="clip0_331_72604">
<rect width="20" height="20" fill="white" transform="translate(2 2)"/>
</clipPath>
</defs>
</svg>
