<svg width="20" height="20" viewBox="0 0 20 20" fill="none" xmlns="http://www.w3.org/2000/svg">
<path d="M17.842 7.20043C17.842 7.20043 17.842 7.20043 17.842 7.15876C17.2548 5.55562 16.1894 4.1715 14.7899 3.19365C13.3904 2.2158 11.7243 1.69141 10.017 1.69141C8.3097 1.69141 6.6436 2.2158 5.24408 3.19365C3.84456 4.1715 2.77916 5.55562 2.19199 7.15876C2.19199 7.15876 2.19199 7.15876 2.19199 7.20043C1.53626 9.00951 1.53626 10.9913 2.19199 12.8004C2.19199 12.8004 2.19199 12.8004 2.19199 12.8421C2.77916 14.4452 3.84456 15.8294 5.24408 16.8072C6.6436 17.7851 8.3097 18.3095 10.017 18.3095C11.7243 18.3095 13.3904 17.7851 14.7899 16.8072C16.1894 15.8294 17.2548 14.4452 17.842 12.8421C17.842 12.8421 17.842 12.8421 17.842 12.8004C18.4977 10.9913 18.4977 9.00951 17.842 7.20043ZM3.55033 11.6671C3.26135 10.5748 3.26135 9.42608 3.55033 8.33376H5.10033C4.96702 9.44088 4.96702 10.56 5.10033 11.6671H3.55033ZM4.23366 13.3338H5.40033C5.59592 14.077 5.8755 14.7955 6.23366 15.4754C5.41641 14.9187 4.73324 14.1871 4.23366 13.3338ZM5.40033 6.6671H4.23366C4.72605 5.81633 5.40049 5.08498 6.20866 4.52543C5.85912 5.20647 5.58794 5.92495 5.40033 6.6671ZM9.16699 16.4171C8.14346 15.666 7.42462 14.5715 7.14199 13.3338H9.16699V16.4171ZM9.16699 11.6671H6.78366C6.62815 10.5614 6.62815 9.43943 6.78366 8.33376H9.16699V11.6671ZM9.16699 6.6671H7.14199C7.42462 5.4294 8.14346 4.33486 9.16699 3.58376V6.6671ZM15.767 6.6671H14.6003C14.4047 5.9239 14.1251 5.20538 13.767 4.52543C14.5842 5.08215 15.2674 5.81371 15.767 6.6671ZM10.8337 3.58376C11.8572 4.33486 12.576 5.4294 12.8587 6.6671H10.8337V3.58376ZM10.8337 16.4171V13.3338H12.8587C12.576 14.5715 11.8572 15.666 10.8337 16.4171ZM13.217 11.6671H10.8337V8.33376H13.217C13.3725 9.43943 13.3725 10.5614 13.217 11.6671ZM13.792 15.4754C14.1501 14.7955 14.4297 14.077 14.6253 13.3338H15.792C15.2924 14.1871 14.6092 14.9187 13.792 15.4754ZM16.4503 11.6671H14.9003C14.9681 11.1141 15.0015 10.5575 15.0003 10.0004C15.0012 9.44335 14.9678 8.88674 14.9003 8.33376H16.4503C16.7393 9.42608 16.7393 10.5748 16.4503 11.6671Z" fill="currentColor"/>
</svg>
