<svg width="48" height="48" viewBox="0 0 48 48" fill="none" xmlns="http://www.w3.org/2000/svg">
<rect opacity="0.3" width="48" height="48" rx="16" fill="#FFCC4D"/>
<g clip-path="url(#clip0_1329_27188)">
<path d="M24 37.5C31.4558 37.5 37.5 31.4558 37.5 24C37.5 16.5442 31.4558 10.5 24 10.5C16.5442 10.5 10.5 16.5442 10.5 24C10.5 31.4558 16.5442 37.5 24 37.5Z" fill="#FFCC4D"/>
<path d="M24 26.25C21.2828 26.25 19.4798 25.9335 17.25 25.5C16.7407 25.4017 15.75 25.5 15.75 27C15.75 30 19.1962 33.75 24 33.75C28.803 33.75 32.25 30 32.25 27C32.25 25.5 31.2592 25.401 30.75 25.5C28.5203 25.9335 26.7172 26.25 24 26.25Z" fill="#664500"/>
<path d="M17.25 27C17.25 27 19.5 27.75 24 27.75C28.5 27.75 30.75 27 30.75 27C30.75 27 29.25 30 24 30C18.75 30 17.25 27 17.25 27Z" fill="white"/>
<path d="M19.5 23.25C20.5355 23.25 21.375 22.0747 21.375 20.625C21.375 19.1753 20.5355 18 19.5 18C18.4645 18 17.625 19.1753 17.625 20.625C17.625 22.0747 18.4645 23.25 19.5 23.25Z" fill="#664500"/>
<path d="M28.5 23.25C29.5355 23.25 30.375 22.0747 30.375 20.625C30.375 19.1753 29.5355 18 28.5 18C27.4645 18 26.625 19.1753 26.625 20.625C26.625 22.0747 27.4645 23.25 28.5 23.25Z" fill="#664500"/>
</g>
<defs>
<clipPath id="clip0_1329_27188">
<rect width="27" height="27" fill="white" transform="translate(10.5 10.5)"/>
</clipPath>
</defs>
</svg>
