<svg width="20" height="20" viewBox="0 0 20 20" fill="none" xmlns="http://www.w3.org/2000/svg">
<path d="M12.5488 6.14861C12.5665 6.61138 12.956 6.97218 13.4188 6.95449C13.8815 6.9368 14.2423 6.54731 14.2247 6.08455C14.1713 4.68809 13.423 3.34515 12.1202 2.59297C10.1047 1.42933 7.52752 2.11989 6.36388 4.13537C5.3438 5.90221 5.74863 8.1007 7.22181 9.40018L5.07578 13.1172C4.84422 13.5183 4.98164 14.0311 5.3827 14.2627C5.78376 14.4942 6.29659 14.3568 6.52815 13.9557L9.05173 9.58477C9.28328 9.18371 9.14587 8.67088 8.74481 8.43932C7.53144 7.73879 7.11572 6.18726 7.81625 4.9739C8.51679 3.76053 10.0683 3.3448 11.2817 4.04534C12.0647 4.49743 12.5165 5.3038 12.5488 6.14861Z" fill="currentColor"/>
<path d="M11.8105 16.3542C12.0266 15.9446 12.5338 15.7877 12.9434 16.0037C13.6912 16.3982 14.6154 16.4101 15.3985 15.958C16.6118 15.2574 17.0276 13.7059 16.327 12.4925C15.6265 11.2792 14.075 10.8635 12.8616 11.564C12.4605 11.7955 11.9477 11.6581 11.7162 11.2571L9.19257 6.88609C8.96102 6.48503 9.09843 5.9722 9.49949 5.74064C9.90055 5.50909 10.4134 5.6465 10.6449 6.04757L12.791 9.76461C14.653 9.13853 16.7593 9.88719 17.7794 11.654C18.943 13.6695 18.2525 16.2467 16.237 17.4103C14.9342 18.1625 13.397 18.1391 12.161 17.4871C11.7514 17.271 11.5945 16.7638 11.8105 16.3542Z" fill="currentColor"/>
<path d="M4.79453 10.4559C5.04123 10.8479 4.92351 11.3656 4.53159 11.6123C3.81611 12.0626 3.34368 12.8571 3.34368 13.7613C3.34368 15.1624 4.47947 16.2982 5.88055 16.2982C7.28162 16.2982 8.41741 15.1624 8.41741 13.7613C8.41741 13.2982 8.79284 12.9228 9.25594 12.9228H14.3031C14.7662 12.9228 15.1416 13.2982 15.1416 13.7613C15.1416 14.2244 14.7662 14.5998 14.3031 14.5998H10.011C9.62224 16.5254 7.92071 17.9752 5.88055 17.9752C3.55326 17.9752 1.66663 16.0886 1.66663 13.7613C1.66663 12.2569 2.45552 10.9375 3.6382 10.193C4.03012 9.94629 4.54783 10.064 4.79453 10.4559Z" fill="currentColor"/>
</svg>
