<svg width="20" height="20" viewBox="0 0 20 20" fill="none" xmlns="http://www.w3.org/2000/svg"><path d="M10 1.667a8.333 8.333 0 1 0 0 16.666 8.333 8.333 0 0 0 0-16.666Z" fill="currentColor"/><path d="M9.41 9.41a.833.833 0 0 1 1.423.59v3.333a.833.833 0 1 1-1.666 0V10c0-.221.088-.433.244-.59ZM9.683 5.9a.833.833 0 0 1 .634 0c.102.04.195.1.275.175.152.16.238.37.241.592a.834.834 0 0 1-1.15.766.958.958 0 0 1-.275-.175.833.833 0 0 1-.175-.908.958.958 0 0 1 .175-.275.834.834 0 0 1 .275-.175Z" fill="#fff"/></svg>