  <svg
    width="24"
    height="24"
    viewBox="0 0 24 24"
    fill="none"
    xmlns="http://www.w3.org/2000/svg"
    
  >
    <path
      d="M12.71 15.5402L18.36 9.88023C18.4537 9.78726 18.5281 9.67666 18.5789 9.5548C18.6296 9.43294 18.6558 9.30224 18.6558 9.17023C18.6558 9.03821 18.6296 8.90751 18.5789 8.78565C18.5281 8.66379 18.4537 8.55319 18.36 8.46023C18.1726 8.27398 17.9191 8.16943 17.655 8.16943C17.3908 8.16943 17.1373 8.27398 16.95 8.46023L11.95 13.4102L6.99996 8.46023C6.8126 8.27398 6.55915 8.16943 6.29496 8.16943C6.03078 8.16943 5.77733 8.27398 5.58996 8.46023C5.49548 8.55284 5.42031 8.66329 5.36881 8.78516C5.31731 8.90704 5.29051 9.03792 5.28996 9.17023C5.29051 9.30253 5.31731 9.43342 5.36881 9.55529C5.42031 9.67717 5.49548 9.78761 5.58996 9.88023L11.24 15.5402C11.3336 15.6417 11.4473 15.7227 11.5738 15.7781C11.7003 15.8336 11.8369 15.8622 11.975 15.8622C12.1131 15.8622 12.2497 15.8336 12.3762 15.7781C12.5027 15.7227 12.6163 15.6417 12.71 15.5402Z"
      fill="currentColor"
    />
  </svg>
