<svg width="20" height="20" viewBox="0 0 20 20" fill="none" xmlns="http://www.w3.org/2000/svg">
<path d="M5.59165 7.74169C5.51418 7.66358 5.42201 7.60158 5.32046 7.55928C5.21891 7.51697 5.10999 7.49519 4.99998 7.49519C4.88997 7.49519 4.78105 7.51697 4.6795 7.55928C4.57795 7.60158 4.48578 7.66358 4.40831 7.74169C4.33245 7.82094 4.27297 7.91439 4.23331 8.01669C4.1695 8.16845 4.15206 8.33571 4.18321 8.49736C4.21435 8.65902 4.29268 8.80783 4.40831 8.92502C4.48931 8.99863 4.58233 9.05782 4.68331 9.10002C4.78221 9.14667 4.89067 9.1695 4.99998 9.16669C5.13647 9.16601 5.27069 9.13181 5.39087 9.06711C5.51105 9.00241 5.61349 8.90918 5.6892 8.79561C5.76491 8.68205 5.81157 8.55163 5.82507 8.41581C5.83858 8.27999 5.81851 8.14294 5.76665 8.01669C5.72698 7.91439 5.66751 7.82094 5.59165 7.74169ZM8.33331 9.16669C8.4698 9.16601 8.60403 9.13181 8.72421 9.06711C8.84438 9.00241 8.94683 8.90918 9.02254 8.79561C9.09825 8.68205 9.1449 8.55163 9.15841 8.41581C9.17191 8.27999 9.15185 8.14294 9.09998 8.01669C9.06032 7.91439 9.00085 7.82094 8.92498 7.74169C8.8296 7.64266 8.71121 7.56877 8.58035 7.52661C8.44949 7.48444 8.31023 7.47531 8.17498 7.50002C8.11978 7.50775 8.06627 7.52465 8.01665 7.55002L7.86665 7.62502L7.74165 7.72502C7.58542 7.8889 7.4988 8.10695 7.49998 8.33335C7.49998 8.55437 7.58778 8.76633 7.74406 8.92261C7.90034 9.07889 8.1123 9.16669 8.33331 9.16669ZM5.31665 10.9C5.11376 10.8167 4.8862 10.8167 4.68331 10.9C4.53113 10.9625 4.40086 11.0687 4.30891 11.2051C4.21697 11.3416 4.16747 11.5022 4.16665 11.6667C4.16733 11.8032 4.20152 11.9374 4.26622 12.0576C4.33092 12.1778 4.42415 12.2802 4.53772 12.3559C4.65128 12.4316 4.78171 12.4783 4.91752 12.4918C5.05334 12.5053 5.1904 12.4852 5.31665 12.4334C5.41763 12.3912 5.51064 12.332 5.59165 12.2584C5.66888 12.1805 5.72998 12.0881 5.77146 11.9866C5.81293 11.8851 5.83395 11.7764 5.83331 11.6667C5.83395 11.557 5.81293 11.4483 5.77146 11.3468C5.72998 11.2452 5.66888 11.1529 5.59165 11.075C5.51342 10.9979 5.41968 10.9382 5.31665 10.9ZM11.6666 10.8334H8.33331C8.1123 10.8334 7.90034 10.9212 7.74406 11.0774C7.58778 11.2337 7.49998 11.4457 7.49998 11.6667C7.49998 11.8877 7.58778 12.0997 7.74406 12.2559C7.90034 12.4122 8.1123 12.5 8.33331 12.5H11.6666C11.8877 12.5 12.0996 12.4122 12.2559 12.2559C12.4122 12.0997 12.5 11.8877 12.5 11.6667C12.5 11.4457 12.4122 11.2337 12.2559 11.0774C12.0996 10.9212 11.8877 10.8334 11.6666 10.8334ZM12.2583 7.74169C12.1808 7.66358 12.0887 7.60158 11.9871 7.55928C11.8856 7.51697 11.7767 7.49519 11.6666 7.49519C11.5566 7.49519 11.4477 7.51697 11.3462 7.55928C11.2446 7.60158 11.1524 7.66358 11.075 7.74169C10.9991 7.82094 10.9396 7.91439 10.9 8.01669C10.8514 8.13076 10.8289 8.25423 10.8341 8.3781C10.8393 8.50197 10.8721 8.62312 10.93 8.73271C10.988 8.84231 11.0697 8.9376 11.1691 9.01162C11.2686 9.08565 11.3833 9.13656 11.5049 9.16063C11.6265 9.1847 11.752 9.18133 11.8721 9.15076C11.9923 9.1202 12.1041 9.06321 12.1994 8.98395C12.2948 8.90469 12.3712 8.80516 12.4232 8.69261C12.4752 8.58006 12.5014 8.45732 12.5 8.33335C12.5028 8.22404 12.48 8.11559 12.4333 8.01669C12.3937 7.91439 12.3342 7.82094 12.2583 7.74169ZM15.4666 10.975C15.4202 10.9435 15.3697 10.9183 15.3166 10.9C15.1138 10.8167 14.8862 10.8167 14.6833 10.9C14.5823 10.9422 14.4893 11.0014 14.4083 11.075C14.256 11.2347 14.1697 11.446 14.1666 11.6667C14.1666 11.8877 14.2544 12.0997 14.4107 12.2559C14.567 12.4122 14.779 12.5 15 12.5C15.221 12.5 15.433 12.4122 15.5892 12.2559C15.7455 12.0997 15.8333 11.8877 15.8333 11.6667C15.8302 11.446 15.7439 11.2347 15.5916 11.075L15.4666 10.975ZM16.6666 4.16669H3.33331C2.67027 4.16669 2.03439 4.43008 1.56555 4.89892C1.09671 5.36776 0.833313 6.00365 0.833313 6.66669V13.3334C0.833313 13.9964 1.09671 14.6323 1.56555 15.1011C2.03439 15.57 2.67027 15.8334 3.33331 15.8334H16.6666C17.3297 15.8334 17.9656 15.57 18.4344 15.1011C18.9033 14.6323 19.1666 13.9964 19.1666 13.3334V6.66669C19.1666 6.00365 18.9033 5.36776 18.4344 4.89892C17.9656 4.43008 17.3297 4.16669 16.6666 4.16669ZM17.5 13.3334C17.5 13.5544 17.4122 13.7663 17.2559 13.9226C17.0996 14.0789 16.8877 14.1667 16.6666 14.1667H3.33331C3.1123 14.1667 2.90034 14.0789 2.74406 13.9226C2.58778 13.7663 2.49998 13.5544 2.49998 13.3334V6.66669C2.49998 6.44567 2.58778 6.23371 2.74406 6.07743C2.90034 5.92115 3.1123 5.83335 3.33331 5.83335H16.6666C16.8877 5.83335 17.0996 5.92115 17.2559 6.07743C17.4122 6.23371 17.5 6.44567 17.5 6.66669V13.3334ZM15.5916 7.74169C15.4751 7.62416 15.3262 7.54401 15.1639 7.51145C15.0016 7.4789 14.8333 7.49541 14.6804 7.55888C14.5275 7.62235 14.397 7.72991 14.3055 7.86784C14.214 8.00578 14.1657 8.16783 14.1666 8.33335C14.1652 8.45732 14.1914 8.58006 14.2434 8.69261C14.2954 8.80516 14.3718 8.90469 14.4672 8.98395C14.5625 9.06321 14.6743 9.1202 14.7945 9.15076C14.9146 9.18133 15.0401 9.1847 15.1617 9.16063C15.2833 9.13656 15.3981 9.08565 15.4975 9.01162C15.597 8.9376 15.6786 8.84231 15.7366 8.73271C15.7945 8.62312 15.8273 8.50197 15.8325 8.3781C15.8377 8.25423 15.8152 8.13076 15.7666 8.01669C15.727 7.91439 15.6675 7.82094 15.5916 7.74169Z" fill="currentColor"/>
</svg>
