  <svg
    width="24"
    height="24"
    viewBox="0 0 24 24"
    fill="none"
    xmlns="http://www.w3.org/2000/svg"
    
  >
    <path
      d="M11.29 8.45977L5.64004 14.1198C5.54631 14.2127 5.47191 14.3233 5.42115 14.4452C5.37038 14.5671 5.34424 14.6978 5.34424 14.8298C5.34424 14.9618 5.37038 15.0925 5.42115 15.2144C5.47191 15.3362 5.54631 15.4468 5.64004 15.5398C5.8274 15.726 6.08085 15.8306 6.34504 15.8306C6.60922 15.8306 6.86267 15.726 7.05004 15.5398L12.05 10.5898L17 15.5398C17.1874 15.726 17.4409 15.8306 17.705 15.8306C17.9692 15.8306 18.2227 15.726 18.41 15.5398C18.5045 15.4472 18.5797 15.3367 18.6312 15.2148C18.6827 15.093 18.7095 14.9621 18.71 14.8298C18.7095 14.6975 18.6827 14.5666 18.6312 14.4447C18.5797 14.3228 18.5045 14.2124 18.41 14.1198L12.76 8.45977C12.6664 8.35827 12.5527 8.27726 12.4262 8.22185C12.2997 8.16645 12.1631 8.13784 12.025 8.13784C11.8869 8.13784 11.7503 8.16645 11.6238 8.22185C11.4973 8.27726 11.3837 8.35827 11.29 8.45977Z"
      fill="currentColor"
    />
  </svg>
