<svg width="256" height="256" viewBox="0 0 256 256" fill="none" xmlns="http://www.w3.org/2000/svg">
<circle cx="128" cy="124" r="78" stroke="#5D34F2" stroke-opacity="0.06" stroke-width="60"/>
<path d="M218.66 54C218.66 52.8954 217.765 52 216.66 52V52C215.556 52 214.66 52.8954 214.66 54V230C214.66 231.105 215.556 232 216.66 232V232C217.765 232 218.66 231.105 218.66 230V54Z" fill="#AF9EFF"/>
<rect width="4" height="140" rx="2" transform="matrix(-0.5 0.866025 0.866025 0.5 131.414 33)" fill="#AF9EFF"/>
<path d="M231.037 223.732C231.037 219.314 227.455 215.732 223.037 215.732H199.037C194.619 215.732 191.037 219.314 191.037 223.732V231.732H231.037V223.732Z" fill="#D9D9D9"/>
<circle cx="8" cy="8" r="8" transform="matrix(-1 0 0 1 224.66 76)" fill="#7958FF"/>
<circle cx="4" cy="4" r="4" transform="matrix(-1 0 0 1 220.66 80)" fill="#CABEFF"/>
<circle cx="12" cy="12" r="12" transform="matrix(-0.707107 -0.707107 -0.707107 0.707107 144.082 60.5479)" fill="#FFB95A"/>
<path d="M103.778 38.6275C103.778 38.6275 113.909 48.7581 126.405 61.2549C138.902 73.7517 149.033 83.8823 149.033 83.8823C161.53 71.3855 161.53 51.1242 149.033 38.6275C136.536 26.1307 116.275 26.1307 103.778 38.6275Z" fill="#947DFF"/>
<path d="M40.0002 134C40.0002 129.582 43.582 126 48.0002 126H176C180.419 126 184 129.582 184 134V234H40.0002V134Z" fill="#7958FF"/>
<path d="M44.0002 134C44.0002 131.791 45.7911 130 48.0002 130H176C178.209 130 180 131.791 180 134V230H44.0002V134Z" fill="#CABEFF"/>
<path d="M40.0002 228H232V230C232 232.209 230.209 234 228 234H40.0002V228Z" fill="#7958FF"/>
<path d="M102 130H122V132C122 134.209 120.209 136 118 136H106C103.791 136 102 134.209 102 132V130Z" fill="#947DFF"/>
<rect x="84.0002" y="157" width="80" height="48" rx="4" fill="#E6DEFF"/>
<circle cx="89.0002" cy="160" r="1" fill="#AF9EFF"/>
<circle cx="93.0002" cy="160" r="1" fill="#F5EEFF"/>
<circle cx="97.0002" cy="160" r="1" fill="#F5EEFF"/>
<rect x="92.0002" y="167" width="20" height="4" rx="2" fill="#F5EEFF"/>
<rect x="130" y="167" width="20" height="32" rx="4" fill="#F5EEFF"/>
<rect x="92.0002" y="175" width="28" height="4" rx="2" fill="#F5EEFF"/>
<rect x="92.0002" y="189" width="8" height="4" rx="2" fill="#F5EEFF"/>
<path d="M21.0002 162H69.0002L63.6115 226.664C63.3214 230.146 63.1763 231.887 62.0282 232.944C60.88 234 59.133 234 55.6392 234H34.3613C30.8674 234 29.1205 234 27.9723 232.944C26.8242 231.887 26.6791 230.146 26.3889 226.664L21.0002 162Z" fill="#E6DEFF"/>
<path fill-rule="evenodd" clip-rule="evenodd" d="M69.0002 152H21.0002L21.1669 154H68.8336L69.0002 152Z" fill="black" fill-opacity="0.06"/>
<path fill-rule="evenodd" clip-rule="evenodd" d="M26.6808 210C24.9339 210 24.0604 210 23.4863 209.472C22.9122 208.944 22.8397 208.073 22.6946 206.332L20.3613 178.332C20.1924 176.305 20.1079 175.292 20.7021 174.646C21.2963 174 22.3134 174 24.3475 174H65.6531C67.6872 174 68.7042 174 69.2984 174.646C69.8926 175.292 69.8082 176.305 69.6393 178.332L67.3059 206.332C67.1609 208.073 67.0883 208.944 66.5142 209.472C65.9401 210 65.0667 210 63.3197 210H26.6808Z" fill="#CABEFF"/>
<path style="mix-blend-mode:soft-light" fill-rule="evenodd" clip-rule="evenodd" d="M63.0002 210L66.0002 174C67.8049 174.002 68.739 174.038 69.2984 174.646C69.8926 175.292 69.8082 176.305 69.6393 178.332L67.3059 206.332C67.1609 208.073 67.0883 208.944 66.5142 209.472C65.9761 209.967 65.1749 209.998 63.6378 210H63.0002Z" fill="black" fill-opacity="0.4"/>
<path fill-rule="evenodd" clip-rule="evenodd" d="M28.0002 184C28.0002 183.448 28.448 183 29.0002 183C29.5525 183 30.0002 183.448 30.0002 184V200C30.0002 200.552 29.5525 201 29.0002 201C28.448 201 28.0002 200.552 28.0002 200V184ZM32.0002 184C32.0002 183.448 32.448 183 33.0002 183C33.5525 183 34.0002 183.448 34.0002 184V200C34.0002 200.552 33.5525 201 33.0002 201C32.448 201 32.0002 200.552 32.0002 200V184ZM37.0002 183C36.448 183 36.0002 183.448 36.0002 184V200C36.0002 200.552 36.448 201 37.0002 201C37.5525 201 38.0002 200.552 38.0002 200V184C38.0002 183.448 37.5525 183 37.0002 183ZM40.0002 184C40.0002 183.448 40.448 183 41.0002 183C41.5525 183 42.0002 183.448 42.0002 184V200C42.0002 200.552 41.5525 201 41.0002 201C40.448 201 40.0002 200.552 40.0002 200V184ZM45.0002 183C44.448 183 44.0002 183.448 44.0002 184V200C44.0002 200.552 44.448 201 45.0002 201C45.5525 201 46.0002 200.552 46.0002 200V184C46.0002 183.448 45.5525 183 45.0002 183ZM48.0002 184C48.0002 183.448 48.448 183 49.0002 183C49.5525 183 50.0002 183.448 50.0002 184V200C50.0002 200.552 49.5525 201 49.0002 201C48.448 201 48.0002 200.552 48.0002 200V184ZM53.0002 183C52.448 183 52.0002 183.448 52.0002 184V200C52.0002 200.552 52.448 201 53.0002 201C53.5525 201 54.0002 200.552 54.0002 200V184C54.0002 183.448 53.5525 183 53.0002 183ZM56.0002 184C56.0002 183.448 56.448 183 57.0002 183C57.5525 183 58.0002 183.448 58.0002 184V200C58.0002 200.552 57.5525 201 57.0002 201C56.448 201 56.0002 200.552 56.0002 200V184ZM61.0002 183C60.448 183 60.0002 183.448 60.0002 184V200C60.0002 200.552 60.448 201 61.0002 201C61.5525 201 62.0002 200.552 62.0002 200V184C62.0002 183.448 61.5525 183 61.0002 183Z" fill="#947DFF"/>
<path d="M23.1769 147.47C24.0569 144.83 24.4969 143.51 25.5444 142.755C26.592 142 27.9834 142 30.7663 142H59.2342C62.0171 142 63.4085 142 64.456 142.755C65.5036 143.51 65.9436 144.83 66.8236 147.47L69.0002 154H21.0002L23.1769 147.47Z" fill="#F5EEFF"/>
<g opacity="0.06">
<path d="M61.0002 154H69.0002L66.8236 147.47C65.9436 144.83 65.5036 143.51 64.456 142.755C63.4085 142 62.0171 142 59.2342 142H57.0002L61.0002 154Z" fill="black" style="mix-blend-mode:soft-light"/>
</g>
<rect x="15.0002" y="154" width="60" height="8" rx="2" fill="#F5EEFF"/>
<g opacity="0.06">
<path d="M67.0002 154H71.0002C72.8859 154 73.8287 154 74.4145 154.586C75.0002 155.172 75.0002 156.114 75.0002 158V158C75.0002 159.886 75.0002 160.828 74.4145 161.414C73.8287 162 72.8859 162 71.0002 162H67.0002V154Z" fill="black" style="mix-blend-mode:soft-light"/>
</g>
<path d="M151 221H214V228H155C152.791 228 151 226.209 151 224V221Z" fill="#FFB95A"/>
<path d="M207 221H240V224C240 226.209 238.209 228 236 228H211C208.791 228 207 226.209 207 224V221Z" fill="#47464E"/>
<path fill-rule="evenodd" clip-rule="evenodd" d="M211.5 223C211.224 223 211 223.224 211 223.5C211 223.776 211.224 224 211.5 224H212.5C212.776 224 213 223.776 213 223.5C213 223.224 212.776 223 212.5 223H211.5ZM211.5 225C211.224 225 211 225.224 211 225.5C211 225.776 211.224 226 211.5 226H212.5C212.776 226 213 225.776 213 225.5C213 225.224 212.776 225 212.5 225H211.5ZM214 225.5C214 225.224 214.224 225 214.5 225H215.5C215.776 225 216 225.224 216 225.5C216 225.776 215.776 226 215.5 226H214.5C214.224 226 214 225.776 214 225.5ZM217.5 225C217.224 225 217 225.224 217 225.5C217 225.776 217.224 226 217.5 226H218.5C218.776 226 219 225.776 219 225.5C219 225.224 218.776 225 218.5 225H217.5ZM220 225.5C220 225.224 220.224 225 220.5 225H221.5C221.776 225 222 225.224 222 225.5C222 225.776 221.776 226 221.5 226H220.5C220.224 226 220 225.776 220 225.5ZM214.5 223C214.224 223 214 223.224 214 223.5C214 223.776 214.224 224 214.5 224H215.5C215.776 224 216 223.776 216 223.5C216 223.224 215.776 223 215.5 223H214.5ZM217 223.5C217 223.224 217.224 223 217.5 223H218.5C218.776 223 219 223.224 219 223.5C219 223.776 218.776 224 218.5 224H217.5C217.224 224 217 223.776 217 223.5ZM220.5 223C220.224 223 220 223.224 220 223.5C220 223.776 220.224 224 220.5 224H221.5C221.776 224 222 223.776 222 223.5C222 223.224 221.776 223 221.5 223H220.5Z" fill="#FFB95A"/>
<path fill-rule="evenodd" clip-rule="evenodd" d="M230.5 223C230.224 223 230 223.224 230 223.5C230 223.776 230.224 224 230.5 224H231.5C231.776 224 232 223.776 232 223.5C232 223.224 231.776 223 231.5 223H230.5ZM230.5 225C230.224 225 230 225.224 230 225.5C230 225.776 230.224 226 230.5 226H231.5C231.776 226 232 225.776 232 225.5C232 225.224 231.776 225 231.5 225H230.5ZM233.5 225C233.224 225 233 225.224 233 225.5C233 225.776 233.224 226 233.5 226H234.5C234.776 226 235 225.776 235 225.5C235 225.224 234.776 225 234.5 225H233.5ZM236 225.5C236 225.224 236.224 225 236.5 225H237.5C237.776 225 238 225.224 238 225.5C238 225.776 237.776 226 237.5 226H236.5C236.224 226 236 225.776 236 225.5ZM233 223.5C233 223.224 233.224 223 233.5 223H234.5C234.776 223 235 223.224 235 223.5C235 223.776 234.776 224 234.5 224H233.5C233.224 224 233 223.776 233 223.5ZM236.5 223C236.224 223 236 223.224 236 223.5C236 223.776 236.224 224 236.5 224H237.5C237.776 224 238 223.776 238 223.5C238 223.224 237.776 223 237.5 223H236.5Z" fill="#FFB95A"/>
<rect x="224" y="224" width="4" height="2" rx="1" fill="#FFB95A"/>
<rect x="71.3596" y="8.57129" width="8" height="8" rx="2" transform="rotate(-40.65 71.3596 8.57129)" fill="#FFD5FF"/>
<rect x="233.613" y="107.516" width="8" height="8" rx="2" transform="rotate(30.813 233.613 107.516)" fill="#FFD5FF"/>
<path fill-rule="evenodd" clip-rule="evenodd" d="M214.957 18.1043C214.957 18.0467 215.004 18 215.062 18H216.939C216.997 18 217.043 18.0467 217.043 18.1043V21.4086L219.905 19.7565C219.955 19.7277 220.019 19.7448 220.047 19.7947L220.986 21.4207C221.015 21.4705 220.998 21.5343 220.948 21.5631L218.086 23.2153L220.948 24.8675C220.998 24.8963 221.015 24.9601 220.986 25.01L220.048 26.636C220.019 26.6859 219.955 26.703 219.905 26.6742L217.043 25.022V28.3264C217.043 28.384 216.997 28.4307 216.939 28.4307H215.062C215.004 28.4307 214.957 28.384 214.957 28.3264V25.0219L212.095 26.6742C212.046 26.703 211.982 26.6859 211.953 26.636L211.014 25.01C210.985 24.9601 211.002 24.8963 211.052 24.8675L213.914 23.2153L211.052 21.5631C211.003 21.5343 210.986 21.4705 211.014 21.4207L211.953 19.7947C211.982 19.7448 212.046 19.7277 212.096 19.7565L214.957 21.4087V18.1043Z" fill="#FFFBFF"/>
<path d="M12.2893 104.696L13.4835 107.26C14.143 108.676 15.8256 109.29 17.2416 108.63V108.63C18.6576 107.971 20.3402 108.584 20.9997 110V110C21.6592 111.416 23.3418 112.029 24.7579 111.37V111.37C26.1739 110.71 27.8565 111.324 28.516 112.74L29.7102 115.304" stroke="#FFD5FF" stroke-width="2" stroke-linecap="round" stroke-linejoin="round"/>
</svg>
