<svg width="891" height="274" viewBox="0 0 891 274" fill="none" xmlns="http://www.w3.org/2000/svg"><path d="M375.888 195.694c2.22 0 3.33-1.11 3.33-3.331V181.26c0-2.221-1.11-3.331-3.33-3.331h-63.272V65.786c0-2.22-1.11-3.331-3.331-3.331h-17.76c-2.22 0-3.33 1.11-3.33 3.331v126.577c0 2.221 1.11 3.331 3.33 3.331h84.363ZM468.052 60.234h-28.861c-25.901 0-38.852 12.954-38.852 38.862v59.958c0 25.907 12.951 38.861 38.852 38.861h28.861c25.901 0 38.851-12.954 38.851-38.861V99.096c0-25.908-12.95-38.862-38.851-38.862Zm14.43 98.82c0 14.064-7.03 21.096-21.09 21.096h-15.541c-14.061 0-21.091-7.032-21.091-21.096V99.096c0-14.064 7.03-21.096 21.091-21.096h15.541c14.06 0 21.09 7.032 21.09 21.096v59.958ZM634.508 117.971h-44.402c-2.22 0-3.33 1.111-3.33 3.331v11.104c0 2.22 1.11 3.331 3.33 3.331h23.311v23.317c0 14.064-7.031 21.096-21.091 21.096h-13.321c-14.06 0-21.09-7.032-21.09-21.096v-57.737c0-14.065 7.03-21.097 21.09-21.097h46.622c2.22 0 3.33-1.11 3.33-3.33V65.785c0-2.22-1.11-3.331-3.33-3.331h-53.282c-25.901 0-38.851 12.954-38.851 38.862v57.737c0 25.907 12.95 38.861 38.851 38.861h26.641c25.901 0 38.852-12.954 38.852-38.861v-37.752c0-2.22-1.11-3.331-3.33-3.331ZM758.86 62.455h-97.684c-2.22 0-3.33 1.11-3.33 3.331v11.103c0 2.22 1.11 3.331 3.33 3.331h36.631v112.143c0 2.221 1.11 3.331 3.331 3.331h17.76c2.22 0 3.33-1.11 3.33-3.331V80.22h36.632c2.22 0 3.33-1.11 3.33-3.33V65.785c0-2.22-1.11-3.331-3.33-3.331ZM851.074 60.234h-28.861c-25.901 0-38.851 12.954-38.851 38.862v59.958c0 25.907 12.95 38.861 38.851 38.861h28.861c25.901 0 38.852-12.954 38.852-38.861V99.096c0-25.908-12.951-38.862-38.852-38.862Zm14.431 98.82c0 14.064-7.031 21.096-21.091 21.096h-15.541c-14.06 0-21.091-7.032-21.091-21.096V99.096c0-14.064 7.031-21.096 21.091-21.096h15.541c14.06 0 21.091 7.032 21.091 21.096v59.958Z" fill="currentColor"/><path d="M0 37.512c0-8.837 7.163-16 16-16h170.166c8.837 0 16 7.163 16 16v183.126c0 8.836-7.163 16-16 16H16c-8.837 0-16-7.164-16-16V37.512Z" fill="url(#paint0_linear_935_668)"/><path d="M231.201 273.748 34.949 235.025l283.356 3.227-87.104 35.496Z" fill="url(#paint1_linear_935_668)"/><path d="M0 35.389a16 16 0 0 1 13.737-15.84L132.286 2.61c9.639-1.377 18.263 6.103 18.263 15.84v221.253c0 9.737-8.624 17.217-18.263 15.84l-118.55-16.94A16 16 0 0 1 0 222.762V35.389Z" fill="url(#paint2_linear_935_668)"/><g filter="url(#filter0_d_935_668)"><ellipse cx="116.138" cy="129.076" rx="12.904" ry="12.908" fill="url(#paint3_linear_935_668)"/></g><g filter="url(#filter1_d_935_668)"><rect x="109.686" y="123.697" width="12.904" height="34.42" rx="6.452" fill="url(#paint4_linear_935_668)"/></g><defs><linearGradient id="paint0_linear_935_668" x1="4.839" y1="136.604" x2="205.001" y2="72.586" gradientUnits="userSpaceOnUse"><stop/><stop offset="1"/></linearGradient><linearGradient id="paint1_linear_935_668" x1="118.827" y1="241.479" x2="240.344" y2="266.206" gradientUnits="userSpaceOnUse"><stop/><stop offset="1"/></linearGradient><linearGradient id="paint2_linear_935_668" x1="-12.367" y1="147.899" x2="162.382" y2="110.271" gradientUnits="userSpaceOnUse"><stop/><stop offset="1"/></linearGradient><linearGradient id="paint3_linear_935_668" x1="116.138" y1="116.168" x2="110.759" y2="141.983" gradientUnits="userSpaceOnUse"><stop/><stop offset="1"/></linearGradient><linearGradient id="paint4_linear_935_668" x1="116.138" y1="123.697" x2="100.89" y2="151.138" gradientUnits="userSpaceOnUse"><stop/><stop offset="1"/></linearGradient><filter id="filter0_d_935_668" x="102.234" y="116.168" width="27.808" height="27.814" filterUnits="userSpaceOnUse"><feFlood result="BackgroundImageFix"/><feColorMatrix in="SourceAlpha" values="0 0 0 0 0 0 0 0 0 0 0 0 0 0 0 0 0 0 127 0" result="hardAlpha"/><feOffset dy="1"/><feGaussianBlur stdDeviation=".5"/><feComposite in2="hardAlpha" operator="out"/><feColorMatrix values="0 0 0 0 0.104304 0 0 0 0 0.0825 0 0 0 0 0.2 0 0 0 0.02 0"/><feBlend in2="BackgroundImageFix" result="effect1_dropShadow_935_668"/><feBlend in="SourceGraphic" in2="effect1_dropShadow_935_668" result="shape"/></filter><filter id="filter1_d_935_668" x="105.686" y="123.697" width="18.904" height="41.42" filterUnits="userSpaceOnUse"><feFlood result="BackgroundImageFix"/><feColorMatrix in="SourceAlpha" values="0 0 0 0 0 0 0 0 0 0 0 0 0 0 0 0 0 0 127 0" result="hardAlpha"/><feOffset dx="-1" dy="4"/><feGaussianBlur stdDeviation="1.5"/><feComposite in2="hardAlpha" operator="out"/><feColorMatrix values="0 0 0 0 0.104304 0 0 0 0 0.0825 0 0 0 0 0.2 0 0 0 0.08 0"/><feBlend in2="BackgroundImageFix" result="effect1_dropShadow_935_668"/><feBlend in="SourceGraphic" in2="effect1_dropShadow_935_668" result="shape"/></filter></defs></svg>