<svg width="48" height="48" viewBox="0 0 48 48" fill="none" xmlns="http://www.w3.org/2000/svg">
<path d="M0 8C0 3.58172 3.58172 0 8 0H40C44.4183 0 48 3.58172 48 8V40C48 44.4183 44.4183 48 40 48H8C3.58172 48 0 44.4183 0 40V8Z" fill="#F3EFFA"/>
<path d="M25.2916 19.0005C26.9525 17.5346 28 15.3899 28 13.0005C28 9.64314 25.9318 6.76881 23 5.58203M14 18.2922C12.7553 16.8819 12 15.0294 12 13.0005C12 9.64314 14.0682 6.76881 17 5.58203" stroke="black" stroke-linecap="round" stroke-linejoin="round"/>
<path d="M25 13C25 11.9869 24.6987 11.0441 24.1807 10.2564C23.287 8.89728 21.7483 8 20 8C17.2386 8 15 10.2386 15 13C15 13.431 15.0545 13.8492 15.1571 14.2482" stroke="black" stroke-linecap="round" stroke-linejoin="round"/>
<path d="M10.8083 33.4587C9.06747 32.0987 8.75881 29.5849 10.1189 27.8441C11.479 26.1032 13.9928 25.7946 15.7336 27.1547L25.1897 34.5426C26.9305 35.9027 27.2392 38.4165 25.8791 40.1573C24.519 41.8981 22.0052 42.2068 20.2644 40.8467L10.8083 33.4587Z" fill="#7958FF"/>
<path fill-rule="evenodd" clip-rule="evenodd" d="M20 12C17.7909 12 16 13.7909 16 16V26V31V33C16 38.5228 20.4772 43 26 43H30C35.5228 43 40 38.5228 40 33V27C40 24.7909 38.2091 23 36 23C36 21.3431 34.6569 20 33 20C31.3431 20 30 21.3431 30 23V22C30 20.3431 28.6569 19 27 19C25.3431 19 24 20.3431 24 22V16C24 13.7909 22.2091 12 20 12Z" fill="url(#paint0_linear_3406_128238)"/>
<circle cx="7" cy="20" r="1.5" stroke="#FAABFF"/>
<rect x="35.7071" y="8.82812" width="3" height="3" rx="0.5" transform="rotate(-45 35.7071 8.82812)" stroke="#9FE79F"/>
<defs>
<linearGradient id="paint0_linear_3406_128238" x1="19.7088" y1="10.6324" x2="22.8478" y2="43.466" gradientUnits="userSpaceOnUse">
<stop stop-color="#DD7DFF"/>
<stop offset="0.927083" stop-color="#694BF4"/>
</linearGradient>
</defs>
</svg>
