<svg width="48" height="48" viewBox="0 0 48 48" fill="none" xmlns="http://www.w3.org/2000/svg">
<path d="M0 8C0 3.58172 3.58172 0 8 0H40C44.4183 0 48 3.58172 48 8V40C48 44.4183 44.4183 48 40 48H8C3.58172 48 0 44.4183 0 40V8Z" fill="#3A3B59"/>
<path d="M25.2916 19C26.9525 17.5341 28 15.3894 28 13C28 9.64265 25.9318 6.76832 23 5.58154M14 18.2917C12.7553 16.8814 12 15.0289 12 13C12 9.64265 14.0682 6.76832 17 5.58154" stroke="#696B9E" stroke-linecap="round" stroke-linejoin="round"/>
<path d="M25 13C25 11.9869 24.6987 11.0441 24.1807 10.2564C23.287 8.89728 21.7483 8 20 8C17.2386 8 15 10.2386 15 13C15 13.431 15.0545 13.8492 15.1571 14.2482" stroke="#696B9E" stroke-linecap="round" stroke-linejoin="round"/>
<path d="M10.8093 33.4583C9.06844 32.0982 8.75979 29.5844 10.1199 27.8436C11.48 26.1027 13.9937 25.7941 15.7346 27.1542L25.1907 34.5421C26.9315 35.9022 27.2402 38.416 25.8801 40.1568C24.52 41.8976 22.0062 42.2063 20.2654 40.8462L10.8093 33.4583Z" fill="#7958FF"/>
<path fill-rule="evenodd" clip-rule="evenodd" d="M20 12C17.7909 12 16 13.7909 16 16V26V31V33C16 38.5228 20.4772 43 26 43H30C35.5228 43 40 38.5228 40 33V27C40 24.7909 38.2091 23 36 23C36 21.3431 34.6569 20 33 20C31.3431 20 30 21.3431 30 23V22C30 20.3431 28.6569 19 27 19C25.3431 19 24 20.3431 24 22V16C24 13.7909 22.2091 12 20 12Z" fill="url(#paint0_linear_289_11392)"/>
<circle cx="7" cy="20" r="1.5" stroke="#CF90D3"/>
<rect x="35.7071" y="8.82861" width="3" height="3" rx="0.5" transform="rotate(-45 35.7071 8.82861)" stroke="#83B983"/>
<defs>
<linearGradient id="paint0_linear_289_11392" x1="19.7088" y1="10.6324" x2="22.8478" y2="43.466" gradientUnits="userSpaceOnUse">
<stop stop-color="#DD7DFF"/>
<stop offset="0.927083" stop-color="#694BF4"/>
</linearGradient>
</defs>
</svg>
