<svg width="48" height="48" viewBox="0 0 48 48" fill="none" xmlns="http://www.w3.org/2000/svg">
<rect opacity="0.3" width="48" height="48" rx="16" fill="#ECD2CA"/>
<path d="M15.9878 18.75C11.6956 25.5623 16.7063 32.25 16.7063 32.25C16.7063 32.25 18.8618 31.9185 21.8626 28.35C24.8626 24.7815 15.9878 18.75 15.9878 18.75ZM31.9943 18.75C36.2866 25.5623 31.2758 32.25 31.2758 32.25C31.2758 32.25 29.1203 31.9185 26.1196 28.35C23.1188 24.7815 31.9943 18.75 31.9943 18.75Z" fill="#662113"/>
<path d="M21.9022 34.1677C21.81 33.996 21.6645 33.8797 21.504 33.7957C19.98 32.1667 21.0622 30.258 21.0622 30.258C21.0622 29.7307 22.0155 28.35 21.0622 28.35L20.1082 29.304C19.1542 30.2572 19.1542 33.1207 19.1542 33.1207H17.2462C16.719 33.1207 16.2922 33.5467 16.2922 34.0747C16.2922 34.6005 16.719 35.028 17.2462 35.028H18.3022L18.0907 35.1427C17.6272 35.3932 17.4547 35.9715 17.7052 36.4372C17.9557 36.8992 18.5347 37.0732 18.9982 36.8227L21.516 35.4607C21.9802 35.2102 22.1505 34.632 21.9022 34.1677ZM26.0992 34.1677C26.1915 33.996 26.337 33.8797 26.4967 33.7957C28.0215 32.1667 26.9385 30.258 26.9385 30.258C26.9385 29.7307 25.9852 28.35 26.9385 28.35L27.8925 29.304C28.8472 30.2572 28.8472 33.1207 28.8472 33.1207H30.7552C31.2832 33.1207 31.7085 33.5467 31.7085 34.0747C31.7085 34.6005 31.284 35.028 30.7552 35.028H29.6992L29.91 35.1427C30.375 35.3932 30.546 35.9715 30.2962 36.4372C30.0442 36.8992 29.4675 37.0732 29.0017 36.8227L26.4847 35.4607C26.0205 35.2102 25.8495 34.632 26.0992 34.1677Z" fill="#FFAC33"/>
<path d="M31.7085 18.969C33.8767 14.4 31.7085 11.0625 31.7085 11.0625C31.7085 11.0625 27.3727 11.7817 26.6505 13.2188C25.7362 15.0368 31.7085 18.969 31.7085 18.969Z" fill="#662113"/>
<path d="M32.6715 20.0535C32.6715 27.7762 30.3075 35.4998 24 35.4998C17.6933 35.4998 15.3278 27.7762 15.3278 20.0535C15.3278 12.33 19.2105 12.0623 24 12.0623C28.7903 12.0623 32.6715 12.33 32.6715 20.0535Z" fill="#662113"/>
<path d="M31.2495 23.8035C31.2495 31.5263 25.419 34.7498 24 34.7498C22.581 34.7498 16.7505 31.5263 16.7505 23.8035C16.7505 16.08 31.2495 16.08 31.2495 23.8035Z" fill="#C1694F"/>
<path d="M16.2915 18.969C14.1233 14.4 16.2915 11.0625 16.2915 11.0625C16.2915 11.0625 20.628 11.7817 21.351 13.2188C22.2645 15.0368 16.2915 18.969 16.2915 18.969Z" fill="#662113"/>
<path d="M21.6967 13.7798C18.5265 12.5918 16.2915 11.0625 16.2915 11.0625C16.2915 11.0625 14.7345 13.4782 15.5955 17.007C15.93 18.6097 17.0505 20.1532 18.5235 20.5035C20.5012 20.9738 24 20.4668 24 17.5312C24 15.51 23.1945 14.3423 21.6967 13.7798ZM26.3032 13.7798C29.4735 12.5918 31.7077 11.0625 31.7077 11.0625C31.7077 11.0625 33.2647 13.4782 32.4037 17.007C32.07 18.6097 30.9495 20.1532 29.4772 20.5035C27.4987 20.9738 24 20.4668 24 17.5312C24 15.51 24.8055 14.3423 26.3032 13.7798Z" fill="#C1694F"/>
<path d="M22.5622 16.8127C22.5622 18.4005 21.2752 19.6875 19.6875 19.6875C18.0997 19.6875 16.8127 18.4005 16.8127 16.8127C16.8127 15.225 18.1005 13.938 19.6875 13.938C21.2752 13.9373 22.5622 15.225 22.5622 16.8127ZM31.1872 16.8127C31.1872 18.4005 29.9002 19.6875 28.3125 19.6875C26.7247 19.6875 25.4377 18.4005 25.4377 16.8127C25.4377 15.225 26.7247 13.938 28.3125 13.938C29.9002 13.938 31.1872 15.225 31.1872 16.8127Z" fill="#FFD983"/>
<path d="M21.1253 16.8127C21.1253 17.607 20.4818 18.2505 19.6875 18.2505C18.8933 18.2505 18.2498 17.607 18.2498 16.8127C18.2498 16.0192 18.8933 15.375 19.6875 15.375C20.4818 15.375 21.1253 16.0185 21.1253 16.8127ZM29.7503 16.8127C29.7503 17.607 29.1068 18.2505 28.3125 18.2505C27.5183 18.2505 26.8748 17.607 26.8748 16.8127C26.8748 16.0192 27.5183 15.375 28.3125 15.375C29.1068 15.375 29.7503 16.0185 29.7503 16.8127Z" fill="#292F33"/>
<path d="M26.1562 20.0468C26.1562 21.8333 24 22.5623 24 22.5623C24 22.5623 21.8438 21.8325 21.8438 20.0468C21.8438 18.261 24 17.5312 24 17.5312C24 17.5312 26.1562 18.2603 26.1562 20.0468Z" fill="#FFCC4D"/>
<path d="M26.1562 20.0467C26.1562 21.8332 24 22.5622 24 22.5622C24 22.5622 21.8438 21.8325 21.8438 20.0467C22.7422 20.9452 24 21.1252 24 21.1252C24 21.1252 25.2578 20.9452 26.1562 20.0467Z" fill="#F4900C"/>
</svg>
