<svg width="20" height="20" viewBox="0 0 20 20" fill="none" xmlns="http://www.w3.org/2000/svg">
<path d="M6.18341 12.9506C6.0282 13.1068 5.94108 13.318 5.94108 13.5381C5.94108 13.7583 6.0282 13.9695 6.18341 14.1256C6.26088 14.2038 6.35305 14.2657 6.4546 14.3081C6.55615 14.3504 6.66507 14.3721 6.77508 14.3721C6.88509 14.3721 6.99401 14.3504 7.09556 14.3081C7.19711 14.2657 7.28928 14.2038 7.36674 14.1256C7.52195 13.9695 7.60907 13.7583 7.60907 13.5381C7.60907 13.318 7.52195 13.1068 7.36674 12.9506C7.28928 12.8725 7.19711 12.8105 7.09556 12.7682C6.99401 12.7259 6.88509 12.7041 6.77508 12.7041C6.66507 12.7041 6.55615 12.7259 6.4546 12.7682C6.35305 12.8105 6.26088 12.8725 6.18341 12.9506ZM6.18341 5.87564C6.0282 6.03178 5.94108 6.24299 5.94108 6.46314C5.94108 6.6833 6.0282 6.89451 6.18341 7.05064C6.26088 7.12875 6.35305 7.19075 6.4546 7.23305C6.55615 7.27536 6.66507 7.29714 6.77508 7.29714C6.88509 7.29714 6.99401 7.27536 7.09556 7.23305C7.19711 7.19075 7.28928 7.12875 7.36674 7.05064C7.52195 6.89451 7.60907 6.6833 7.60907 6.46314C7.60907 6.24299 7.52195 6.03178 7.36674 5.87564C7.28928 5.79754 7.19711 5.73554 7.09556 5.69323C6.99401 5.65093 6.88509 5.62915 6.77508 5.62915C6.66507 5.62915 6.55615 5.65093 6.4546 5.69323C6.35305 5.73554 6.26088 5.79754 6.18341 5.87564ZM10.3084 14.209C10.1436 14.209 9.98248 14.2579 9.84544 14.3494C9.7084 14.441 9.60158 14.5711 9.53851 14.7234C9.47544 14.8757 9.45894 15.0432 9.49109 15.2049C9.52324 15.3665 9.60261 15.515 9.71916 15.6316C9.8357 15.7481 9.98419 15.8275 10.1458 15.8596C10.3075 15.8918 10.475 15.8753 10.6273 15.8122C10.7796 15.7491 10.9097 15.6423 11.0013 15.5053C11.0929 15.3682 11.1417 15.2071 11.1417 15.0423C11.1474 14.9294 11.13 14.8166 11.0907 14.7106C11.0513 14.6046 10.9909 14.5078 10.9129 14.4259C10.8349 14.3441 10.7412 14.2789 10.6372 14.2345C10.5333 14.19 10.4214 14.1672 10.3084 14.1673V14.209ZM5.30841 9.20898C5.14359 9.20898 4.98248 9.25785 4.84544 9.34942C4.7084 9.44099 4.60158 9.57114 4.53851 9.72341C4.47544 9.87568 4.45894 10.0432 4.49109 10.2049C4.52324 10.3665 4.60261 10.515 4.71916 10.6316C4.8357 10.7481 4.98419 10.8275 5.14584 10.8596C5.30749 10.8918 5.47504 10.8753 5.62731 10.8122C5.77959 10.7491 5.90974 10.6423 6.0013 10.5053C6.09287 10.3682 6.14175 10.2071 6.14175 10.0423C6.1474 9.92942 6.13002 9.81656 6.09068 9.7106C6.05134 9.60463 5.99085 9.50778 5.9129 9.42593C5.83495 9.34408 5.74116 9.27894 5.63724 9.23448C5.53332 9.19002 5.42144 9.16717 5.30841 9.16731V9.20898ZM10.3084 4.20898C10.1436 4.20898 9.98248 4.25785 9.84544 4.34942C9.7084 4.44099 9.60158 4.57114 9.53851 4.72341C9.47544 4.87568 9.45894 5.04324 9.49109 5.20489C9.52324 5.36654 9.60261 5.51502 9.71916 5.63157C9.8357 5.74811 9.98419 5.82748 10.1458 5.85963C10.3075 5.89179 10.475 5.87528 10.6273 5.81221C10.7796 5.74914 10.9097 5.64233 11.0013 5.50529C11.0929 5.36825 11.1417 5.20713 11.1417 5.04231C11.1474 4.92942 11.13 4.81656 11.0907 4.7106C11.0513 4.60463 10.9909 4.50778 10.9129 4.42593C10.8349 4.34408 10.7412 4.27894 10.6372 4.23448C10.5333 4.19002 10.4214 4.16717 10.3084 4.16731V4.20898ZM13.2584 5.91731C13.1414 6.03366 13.0615 6.18213 13.029 6.34392C12.9964 6.5057 13.0126 6.67351 13.0755 6.82608C13.1385 6.97864 13.2453 7.10908 13.3824 7.20086C13.5196 7.29265 13.6809 7.34165 13.8459 7.34165C14.0109 7.34165 14.1723 7.29265 14.3094 7.20086C14.4466 7.10908 14.5534 6.97864 14.6163 6.82608C14.6792 6.67351 14.6954 6.5057 14.6629 6.34392C14.6303 6.18213 14.5505 6.03366 14.4334 5.91731C14.2829 5.75644 14.0747 5.66174 13.8545 5.65394C13.6343 5.64613 13.42 5.72584 13.2584 5.87564V5.91731ZM18.5084 5.91731C17.7465 4.39423 16.5754 3.11349 15.1264 2.21873C13.6774 1.32396 12.0078 0.850546 10.3047 0.851564C8.60174 0.852582 6.93268 1.32799 5.48473 2.22449C4.03678 3.12099 2.86721 4.40312 2.10714 5.92711C1.34708 7.45111 1.02659 9.1567 1.18162 10.8526C1.33664 12.5486 1.96104 14.1678 2.9848 15.5288C4.00856 16.8897 5.39121 17.9385 6.97769 18.5577C8.56418 19.1768 10.2918 19.3417 11.9667 19.034C12.3879 18.9547 12.7891 18.7923 13.1468 18.5562C13.5045 18.3201 13.8116 18.0151 14.0501 17.659C14.307 17.2718 14.4843 16.8373 14.5716 16.3809C14.6589 15.9245 14.6544 15.4553 14.5584 15.0006C14.5059 14.7259 14.478 14.447 14.4751 14.1673C14.4787 13.3598 14.717 12.5707 15.1608 11.8961C15.6046 11.2214 16.235 10.6903 16.9751 10.3673C17.3741 10.1886 17.7323 9.93008 18.0276 9.60759C18.3228 9.28511 18.5489 8.90554 18.6917 8.49231C18.8362 8.07005 18.8945 7.62307 18.863 7.17788C18.8315 6.73269 18.7109 6.29836 18.5084 5.90064V5.91731ZM17.0917 7.95064C17.0206 8.15008 16.9102 8.33322 16.7671 8.48924C16.624 8.64526 16.451 8.77098 16.2584 8.85898C15.2334 9.31781 14.3626 10.0628 13.7506 11.0044C13.1386 11.946 12.8115 13.0443 12.8084 14.1673C12.8096 14.559 12.8487 14.9498 12.9251 15.334C12.976 15.5688 12.9793 15.8115 12.935 16.0476C12.8906 16.2838 12.7994 16.5086 12.6667 16.709C12.5545 16.8843 12.4068 17.0342 12.2331 17.149C12.0595 17.2638 11.8637 17.341 11.6584 17.3756C11.2133 17.4593 10.7613 17.5011 10.3084 17.5006C9.30355 17.5011 8.30884 17.2997 7.38335 16.9083C6.45786 16.5168 5.62046 15.9434 4.92088 15.2221C4.2213 14.5008 3.67381 13.6462 3.31092 12.7091C2.94804 11.7721 2.77715 10.7717 2.80841 9.76731C2.87309 7.89464 3.63258 6.11311 4.93894 4.76978C6.24529 3.42645 8.00494 2.61755 9.87508 2.50064H10.3001C11.6965 2.50099 13.0652 2.89122 14.2518 3.62737C15.4385 4.36351 16.3961 5.41635 17.0167 6.66731C17.2078 7.06313 17.2347 7.51838 17.0917 7.93398V7.95064ZM10.3084 9.16731C10.1436 9.16731 9.98248 9.21618 9.84544 9.30775C9.7084 9.39932 9.60158 9.52947 9.53851 9.68174C9.47544 9.83401 9.45894 10.0016 9.49109 10.1632C9.52324 10.3249 9.60261 10.4734 9.71916 10.5899C9.8357 10.7064 9.98419 10.7858 10.1458 10.818C10.3075 10.8501 10.475 10.8336 10.6273 10.7705C10.7796 10.7075 10.9097 10.6007 11.0013 10.4636C11.0929 10.3266 11.1417 10.1655 11.1417 10.0006C11.1417 9.77963 11.0539 9.56767 10.8977 9.41139C10.7414 9.25511 10.5294 9.16731 10.3084 9.16731Z" fill="currentColor"/>
</svg>
