<svg width="48" height="48" viewBox="0 0 48 48" fill="none" xmlns="http://www.w3.org/2000/svg">
<g clip-path="url(#clip0_289_11393)">
<path d="M0 8C0 3.58172 3.58172 0 8 0H40C44.4183 0 48 3.58172 48 8V40C48 44.4183 44.4183 48 40 48H8C3.58172 48 0 44.4183 0 40V8Z" fill="#3A3B59"/>
<path fill-rule="evenodd" clip-rule="evenodd" d="M21 8C21 6.89543 21.8954 6 23 6H25C26.1046 6 27 6.89543 27 8V12H21V8ZM21 40C21 41.1046 21.8954 42 23 42H25C26.1046 42 27 41.1046 27 40V36H21V40ZM8 27C6.89543 27 6 26.1046 6 25V23C6 21.8954 6.89543 21 8 21H12V27H8ZM40 27C41.1046 27 42 26.1046 42 25V23C42 21.8954 41.1046 21 40 21H36V27H40Z" fill="#AF9EFF"/>
<path fill-rule="evenodd" clip-rule="evenodd" d="M10.5648 14.8076C9.78371 14.0266 9.78371 12.7602 10.5648 11.9792L11.979 10.565C12.76 9.78392 14.0264 9.78392 14.8074 10.565L17.6358 13.3934L13.3932 17.636L10.5648 14.8076ZM33.1922 37.435C33.9732 38.2161 35.2396 38.2161 36.0206 37.435L37.4348 36.0208C38.2159 35.2398 38.2159 33.9734 37.4348 33.1924L34.6064 30.364L30.3637 34.6066L33.1922 37.435ZM14.8074 37.435C14.0264 38.2161 12.76 38.2161 11.979 37.435L10.5648 36.0208C9.78371 35.2398 9.78371 33.9734 10.5648 33.1924L13.3932 30.364L17.6358 34.6066L14.8074 37.435ZM37.4348 14.8076C38.2159 14.0266 38.2159 12.7602 37.4348 11.9792L36.0206 10.565C35.2396 9.78392 33.9732 9.78392 33.1922 10.565L30.3637 13.3934L34.6064 17.636L37.4348 14.8076Z" fill="#AF9EFF"/>
<path fill-rule="evenodd" clip-rule="evenodd" d="M24 38C31.732 38 38 31.732 38 24C38 16.268 31.732 10 24 10C16.268 10 10 16.268 10 24C10 31.732 16.268 38 24 38ZM24 29.6C27.0928 29.6 29.6 27.0928 29.6 24C29.6 20.9072 27.0928 18.4 24 18.4C20.9072 18.4 18.4 20.9072 18.4 24C18.4 27.0928 20.9072 29.6 24 29.6Z" fill="url(#paint0_linear_289_11393)"/>
<path d="M16.5 36C16.5 34.067 18.067 32.5 20 32.5H38C39.933 32.5 41.5 34.067 41.5 36V38C41.5 39.933 39.933 41.5 38 41.5H20C18.067 41.5 16.5 39.933 16.5 38V36Z" fill="#E6DEFF" stroke="#9294D0"/>
<circle cx="23" cy="37" r="2" fill="#3A3B59"/>
<circle cx="29" cy="37" r="2" fill="#3A3B59"/>
<circle cx="35" cy="37" r="2" fill="#3A3B59"/>
</g>
<defs>
<linearGradient id="paint0_linear_289_11393" x1="7.7" y1="26.0417" x2="37.6276" y2="14.9915" gradientUnits="userSpaceOnUse">
<stop stop-color="#492EF3"/>
<stop offset="1" stop-color="#CF69FF"/>
</linearGradient>
<clipPath id="clip0_289_11393">
<path d="M0 8C0 3.58172 3.58172 0 8 0H40C44.4183 0 48 3.58172 48 8V40C48 44.4183 44.4183 48 40 48H8C3.58172 48 0 44.4183 0 40V8Z" fill="white"/>
</clipPath>
</defs>
</svg>
