<svg width="48" height="48" viewBox="0 0 48 48" fill="none" xmlns="http://www.w3.org/2000/svg">
<g clip-path="url(#clip0_3406_128288)">
<path d="M0 8C0 3.58172 3.58172 0 8 0H40C44.4183 0 48 3.58172 48 8V40C48 44.4183 44.4183 48 40 48H8C3.58172 48 0 44.4183 0 40V8Z" fill="#F3EFFA"/>
<path fill-rule="evenodd" clip-rule="evenodd" d="M21 8C21 6.89543 21.8954 6 23 6H25C26.1046 6 27 6.89543 27 8V12H21V8ZM21 40C21 41.1046 21.8954 42 23 42H25C26.1046 42 27 41.1046 27 40V36H21V40ZM8 27C6.89543 27 6 26.1046 6 25V23C6 21.8954 6.89543 21 8 21H12V27H8ZM40 27C41.1046 27 42 26.1046 42 25V23C42 21.8954 41.1046 21 40 21H36V27H40Z" fill="#7958FF"/>
<path fill-rule="evenodd" clip-rule="evenodd" d="M10.5638 14.8076C9.78274 14.0266 9.78274 12.7602 10.5638 11.9792L11.978 10.565C12.759 9.78392 14.0254 9.78392 14.8064 10.565L17.6349 13.3934L13.3922 17.636L10.5638 14.8076ZM33.1912 37.435C33.9722 38.2161 35.2386 38.2161 36.0196 37.435L37.4338 36.0208C38.2149 35.2398 38.2149 33.9734 37.4338 33.1924L34.6054 30.364L30.3628 34.6066L33.1912 37.435ZM14.8064 37.435C14.0254 38.2161 12.759 38.2161 11.978 37.435L10.5638 36.0208C9.78274 35.2398 9.78274 33.9734 10.5638 33.1924L13.3922 30.364L17.6349 34.6066L14.8064 37.435ZM37.4338 14.8076C38.2149 14.0266 38.2149 12.7602 37.4338 11.9792L36.0196 10.565C35.2386 9.78392 33.9722 9.78392 33.1912 10.565L30.3628 13.3934L34.6054 17.636L37.4338 14.8076Z" fill="#7958FF"/>
<path fill-rule="evenodd" clip-rule="evenodd" d="M24 38C31.732 38 38 31.732 38 24C38 16.268 31.732 10 24 10C16.268 10 10 16.268 10 24C10 31.732 16.268 38 24 38ZM24 29.6C27.0928 29.6 29.6 27.0928 29.6 24C29.6 20.9072 27.0928 18.4 24 18.4C20.9072 18.4 18.4 20.9072 18.4 24C18.4 27.0928 20.9072 29.6 24 29.6Z" fill="url(#paint0_linear_3406_128288)"/>
<path d="M16.5 36C16.5 34.067 18.067 32.5 20 32.5H38C39.933 32.5 41.5 34.067 41.5 36V38C41.5 39.933 39.933 41.5 38 41.5H20C18.067 41.5 16.5 39.933 16.5 38V36Z" fill="#F5EEFF" stroke="black"/>
<circle cx="23" cy="37" r="2" fill="#2D3132"/>
<circle cx="29" cy="37" r="2" fill="#2D3132"/>
<circle cx="35" cy="37" r="2" fill="#2D3132"/>
</g>
<defs>
<linearGradient id="paint0_linear_3406_128288" x1="7.7" y1="26.0417" x2="37.6276" y2="14.9915" gradientUnits="userSpaceOnUse">
<stop stop-color="#492EF3"/>
<stop offset="1" stop-color="#CF69FF"/>
</linearGradient>
<clipPath id="clip0_3406_128288">
<path d="M0 8C0 3.58172 3.58172 0 8 0H40C44.4183 0 48 3.58172 48 8V40C48 44.4183 44.4183 48 40 48H8C3.58172 48 0 44.4183 0 40V8Z" fill="white"/>
</clipPath>
</defs>
</svg>
