<svg width="48" height="48" viewBox="0 0 48 48" fill="none" xmlns="http://www.w3.org/2000/svg">
<rect width="48" height="48" rx="8" fill="#3A3B59"/>
<path d="M44 40C44 42.2091 42.2091 44 40 44H20C17.7909 44 16 42.2091 16 40V26C16 23.7909 17.7909 22 20 22H37.3431C38.404 22 39.4214 21.5786 40.1716 20.8284L41.8027 19.1973L42.9014 18.0986C43.3068 17.6932 44 17.9803 44 18.5537V40Z" fill="url(#paint0_linear_4272_17342)"/>
<path d="M4 8C4 5.79086 5.79086 4 8 4H31C33.2091 4 35 5.79086 35 8V14C35 16.2091 33.2091 18 31 18H10.6569C9.59599 18 8.57857 18.4214 7.82843 19.1716L6.5 20.5L5.25 21.75C4.78872 22.2113 4 21.8846 4 21.2322V8Z" fill="url(#paint1_linear_4272_17342)"/>
<path d="M11.4629 14.1904C13.3184 14.1904 14.4268 13.2725 14.4268 11.832V11.8271C14.4268 10.6895 13.7432 10.0889 12.2441 9.7959L11.5166 9.6543C10.7549 9.50293 10.4326 9.2832 10.4326 8.88281V8.87793C10.4326 8.45801 10.8135 8.16992 11.458 8.16992C12.1074 8.16992 12.5469 8.46289 12.6201 8.90234L12.6299 8.96094H14.29L14.2852 8.90234C14.1777 7.65723 13.2158 6.76367 11.4482 6.76367C9.82715 6.76367 8.65527 7.65234 8.65039 9.03418V9.03906C8.65039 10.1377 9.29492 10.8408 10.7842 11.1289L11.5117 11.2705C12.3369 11.4316 12.6494 11.6172 12.6494 12.0127V12.0176C12.6494 12.4668 12.1904 12.7842 11.4922 12.7842C10.7695 12.7842 10.2861 12.4717 10.2373 12.0371L10.2324 11.9932H8.52344L8.52832 12.0811C8.60156 13.3896 9.70508 14.1904 11.4629 14.1904Z" fill="#302F38"/>
<path d="M15.7842 14H17.3613V9.5127H17.459L19.0605 14H20.0811L21.6826 9.5127H21.7852V14H23.3574V6.9541H21.3213L19.6221 11.7344H19.5293L17.8252 6.9541H15.7842V14Z" fill="#302F38"/>
<path d="M27.6543 14.1904C29.5098 14.1904 30.6182 13.2725 30.6182 11.832V11.8271C30.6182 10.6895 29.9346 10.0889 28.4355 9.7959L27.708 9.6543C26.9463 9.50293 26.624 9.2832 26.624 8.88281V8.87793C26.624 8.45801 27.0049 8.16992 27.6494 8.16992C28.2988 8.16992 28.7383 8.46289 28.8115 8.90234L28.8213 8.96094H30.4814L30.4766 8.90234C30.3691 7.65723 29.4072 6.76367 27.6396 6.76367C26.0186 6.76367 24.8467 7.65234 24.8418 9.03418V9.03906C24.8418 10.1377 25.4863 10.8408 26.9756 11.1289L27.7031 11.2705C28.5283 11.4316 28.8408 11.6172 28.8408 12.0127V12.0176C28.8408 12.4668 28.3818 12.7842 27.6836 12.7842C26.9609 12.7842 26.4775 12.4717 26.4287 12.0371L26.4238 11.9932H24.7148L24.7197 12.0811C24.793 13.3896 25.8965 14.1904 27.6543 14.1904Z" fill="#302F38"/>
<circle cx="41" cy="7" r="1.5" stroke="#78767F"/>
<rect x="6.87898" y="38" width="3" height="3" rx="0.5" transform="rotate(-45 6.87898 38)" stroke="#78767F"/>
<path fill-rule="evenodd" clip-rule="evenodd" d="M37.3526 25.2345C36.9301 25.0827 36.4747 25 36 25H24C23.5258 25 23.0709 25.0825 22.6488 25.234L30.001 32.5861L37.3526 25.2345ZM30.001 34.9485C30.2735 34.9622 30.5505 34.865 30.7586 34.6569L39.0286 26.3869C39.6339 27.0879 40 28.0012 40 29V37C40 39.2091 38.2091 41 36 41H24C21.7909 41 20 39.2091 20 37V29C20 28.0007 20.3665 27.087 20.9723 26.3859L29.2433 34.6569C29.4514 34.865 29.7285 34.9622 30.001 34.9485Z" fill="#F5EEFF"/>
<defs>
<linearGradient id="paint0_linear_4272_17342" x1="20" y1="44" x2="40.6018" y2="19.2523" gradientUnits="userSpaceOnUse">
<stop stop-color="#5D34F2"/>
<stop offset="1" stop-color="#FAABFF"/>
</linearGradient>
<linearGradient id="paint1_linear_4272_17342" x1="29.9948" y1="6.17708" x2="20.199" y2="26.0899" gradientUnits="userSpaceOnUse">
<stop stop-color="#F07EFF"/>
<stop offset="1" stop-color="#FFF480"/>
</linearGradient>
</defs>
</svg>
