<svg width="256" height="256" viewBox="0 0 256 256" fill="none" xmlns="http://www.w3.org/2000/svg">
<path d="M250 220H15L34.0873 190.098C37.4027 184.905 43.1388 181.761 49.3006 181.761H49.9508C53.0648 181.761 56.1102 182.676 58.7083 184.393C65.8357 189.103 75.4116 187.332 80.3835 180.385L103.174 148.541C107.011 143.18 113.198 140 119.79 140C124.744 140 129.529 141.799 133.255 145.064L139.764 150.766C147.788 157.796 159.5 158.655 168.464 152.872C172.325 150.381 176.823 149.057 181.418 149.057H182.364C194.146 149.057 204.579 156.668 208.176 167.887L213.511 184.523C215.29 190.072 220.45 193.836 226.277 193.836C230.91 193.836 235.215 196.228 237.662 200.163L250 220Z" fill="#D2CCDD"/>
<g style="mix-blend-mode:multiply">
<path d="M37.1815 210.929C38.3876 209.865 39.5648 208.48 39.7533 206.818C39.8422 206.03 39.7685 205.077 39.1143 204.529C38.4995 204.011 37.6396 203.975 36.8849 204.141C35.2083 204.51 33.8486 205.723 32.1104 205.875C31.5651 205.923 31.0226 205.883 30.4974 205.765C27.8 202.195 26.216 198.001 25.5639 193.51C25.5569 193.47 25.5567 193.43 25.5509 193.392C25.9935 193.534 26.4397 193.662 26.8906 193.76C28.0591 194.015 29.2619 194.098 30.4545 194.04C31.6444 193.983 32.9089 193.788 34.0261 193.362C34.5017 193.182 34.9627 192.864 35.1587 192.376C35.3925 191.788 35.1024 191.236 34.7144 190.798C33.3004 189.208 31.187 188.678 29.1834 188.258C27.7991 187.965 26.2595 187.652 25.1157 186.795C25.1039 183.456 25.3275 180.108 25.4951 176.776C25.5097 176.504 25.5204 176.231 25.5338 175.956C25.9931 176.224 26.4446 176.505 26.8828 176.802C27.4085 177.211 27.9331 177.618 28.4588 178.027C28.5333 178.086 28.6132 178.125 28.6923 178.155C28.79 178.237 28.891 178.31 28.9888 178.392C29.3092 178.662 29.7838 178.605 30.0732 178.329C30.0922 178.311 30.1088 178.288 30.1238 178.268C30.5597 178.151 30.8929 177.727 30.671 177.203C30.0664 175.773 29.0209 174.646 27.9559 173.543C27.1047 172.663 26.219 171.764 25.6432 170.678C25.5844 166.205 25.0399 161.748 23.2356 157.608C22.9242 156.895 23.6865 156.33 24.3307 156.54C29.5396 158.256 34.5603 160.446 39.4106 162.981C40.2088 164.09 40.3273 165.652 40.4068 166.965C40.4606 167.863 40.4621 168.763 40.4061 169.66C40.3566 170.479 40.3287 171.302 40.9043 171.963C41.3838 172.515 42.0817 172.765 42.7707 172.94C43.1504 173.035 43.5311 173.094 43.8909 172.899C44.2793 172.685 44.3936 172.271 44.5095 171.876C44.9281 170.459 45.6034 168.25 45.4932 166.385C48.679 168.287 51.7864 170.318 54.8173 172.452C55.3196 174.56 54.2608 176.971 53.4798 178.923C52.5669 181.2 51.5967 184.073 52.8065 186.43C53.3475 187.482 54.3403 188.295 55.5548 188.367C56.1182 188.402 56.9336 188.317 57.2093 187.742C57.4516 187.237 57.5288 186.673 57.8041 186.168C59.0724 183.85 61.5431 182.504 63.3917 180.71C63.7475 180.363 64.0252 180.013 64.1883 179.652C65.6444 181.034 66.9652 182.537 68.0357 184.219C69.4366 186.423 70.2606 188.867 70.5739 191.377C70.45 191.533 70.3157 191.679 70.1783 191.81C69.8828 192.095 69.5238 192.363 69.1829 192.563C68.8436 192.76 68.4843 192.925 68.1726 193.163C67.3625 193.787 67.0665 194.81 67.6381 195.705C68.1721 196.543 69.2581 196.822 70.1985 196.844C70.2986 196.845 70.3832 196.833 70.4705 196.819C70.2856 197.994 69.9998 199.158 69.6127 200.296C68.692 202.995 67.2175 205.446 65.3967 207.621C62.7217 209.199 59.3286 209.253 56.4849 207.586C56.4015 207.538 56.3123 207.516 56.2206 207.511C55.4021 205.324 54.4791 203.181 53.4707 201.088C51.5578 197.099 49.3939 193.257 47.155 189.472L40.3791 178.161C38.1071 174.401 35.7399 170.667 32.897 167.311C35.6341 170.755 37.8714 174.544 40.0213 178.369L46.4357 189.879C48.55 193.723 50.5805 197.612 52.345 201.603C53.4273 204.044 54.3899 206.533 55.2015 209.065C54.7703 211.129 53.5747 212.973 51.8516 214.223C51.4874 214.486 51.0997 214.71 50.6984 214.909C48.5776 215.549 46.3154 215.674 44.0726 215.451C41.3115 214.64 38.743 213.261 36.4229 211.542C36.6894 211.347 36.9426 211.143 37.1815 210.929Z" fill="url(#paint0_linear_6485_85356)"/>
</g>
<path d="M52 132C52 127.582 55.5817 124 60 124H188C192.418 124 196 127.582 196 132V217H52V132Z" fill="url(#paint1_linear_6485_85356)"/>
<path d="M56 131C56 128.791 57.7909 127 60 127H188C190.209 127 192 128.791 192 131V213H56V131Z" fill="url(#paint2_linear_6485_85356)"/>
<path d="M27 213H220V215C220 217.209 218.209 219 216 219H32C29.2386 219 27 216.761 27 214V213Z" fill="#7958FF"/>
<path d="M114 127H134V129C134 131.209 132.209 133 130 133H118C115.791 133 114 131.209 114 129V127Z" fill="#947DFF"/>
<rect x="69" y="143" width="110" height="56" rx="5" fill="#F5EEFF"/>
<g style="mix-blend-mode:multiply" opacity="0.6">
<path d="M100.548 143H128.999V190C128.999 194.971 124.97 199 119.999 199H86.9993L100.548 143Z" fill="url(#paint3_linear_6485_85356)"/>
</g>
<rect x="207.098" y="115" width="8" height="8" rx="2" transform="rotate(30.813 207.098 115)" fill="#FFD5FF"/>
<path d="M108 86.6316C103.855 86.6316 101.891 83.0947 101.891 80C101.891 83.0947 100.145 86.6316 96 86.6316C100.145 86.6316 101.891 88.8126 101.891 94C101.891 88.8126 103.855 86.6316 108 86.6316Z" fill="#FFF06A"/>
<path d="M30 108.632C25.8545 108.632 23.8909 105.095 23.8909 102C23.8909 105.095 22.1455 108.632 18 108.632C22.1455 108.632 23.8909 110.813 23.8909 116C23.8909 110.813 25.8545 108.632 30 108.632Z" fill="#FFF06A"/>
<path fill-rule="evenodd" clip-rule="evenodd" d="M218.956 53.1043C218.956 53.0467 219.003 53 219.06 53H220.938C220.995 53 221.042 53.0467 221.042 53.1043V56.4088L223.903 54.7567C223.953 54.7279 224.017 54.745 224.046 54.7949L224.985 56.4209C225.014 56.4708 224.996 56.5346 224.947 56.5634L222.085 58.2156L224.946 59.8678C224.996 59.8966 225.013 59.9604 224.985 60.0103L224.046 61.6362C224.017 61.6861 223.953 61.7032 223.903 61.6744L221.042 60.0224V63.3264C221.042 63.384 220.995 63.4307 220.938 63.4307H219.06C219.003 63.4307 218.956 63.384 218.956 63.3264V60.0221L216.094 61.6744C216.044 61.7032 215.98 61.6861 215.951 61.6362L215.013 60.0103C214.984 59.9604 215.001 59.8966 215.051 59.8678L217.913 58.2156L215.051 56.5634C215.001 56.5346 214.984 56.4708 215.013 56.4209L215.951 54.7949C215.98 54.745 216.044 54.7279 216.094 54.7567L218.956 56.4091V53.1043Z" fill="#FFFBFF"/>
<rect x="100" y="154" width="68" height="6" rx="2" fill="#FF91DF"/>
<rect x="100" y="166" width="68" height="6" rx="2" fill="#C29DFF"/>
<rect x="100" y="178" width="68" height="6" rx="2" fill="#C29DFF"/>
<path d="M173.162 115.98L173.165 115.983L184.5 126.222V195C184.5 200.247 180.247 204.5 175 204.5H124C118.753 204.5 114.5 200.247 114.5 195V116C114.5 110.753 118.753 106.5 124 106.5H138.5H162.806L173.162 115.98Z" fill="#FFFBFF" stroke="#D0BED6"/>
<g style="mix-blend-mode:multiply" opacity="0.6">
<path d="M169.774 124H184V196C184 200.971 179.971 205 175 205H156.5L169.774 124Z" fill="url(#paint4_linear_6485_85356)"/>
</g>
<rect x="124" y="149" width="49" height="6" rx="2" fill="#E1CEE8"/>
<rect x="124" y="139" width="7" height="6" rx="2" fill="#FFC3F1"/>
<rect x="138" y="139" width="18" height="6" rx="2" fill="#E1CEE8"/>
<rect x="124" y="172" width="32" height="6" rx="2" fill="#E1CEE8"/>
<rect x="159" y="172" width="14" height="6" rx="2" fill="#E1CEE8"/>
<rect x="124" y="161" width="49" height="6" rx="2" fill="#E1CEE8"/>
<rect x="124" y="184" width="32" height="6" rx="2" fill="#E1CEE8"/>
<path d="M130.8 130.015C134.803 130.015 138.05 126.778 138.05 122.782C138.05 118.787 134.803 115.55 130.8 115.55C126.797 115.55 123.55 118.787 123.55 122.782C123.55 126.778 126.797 130.015 130.8 130.015Z" stroke="url(#paint5_linear_6485_85356)" stroke-width="0.9"/>
<ellipse cx="130.8" cy="122.783" rx="6.15238" ry="6.13648" fill="#83DA85"/>
<rect width="1.75609" height="5.26826" rx="0.878044" transform="matrix(0.708021 -0.706191 0.708021 0.706191 126.59 122.356)" fill="white"/>
<rect width="7.02435" height="1.75609" rx="0.878044" transform="matrix(0.708021 -0.706191 0.708021 0.706191 129.077 124.837)" fill="white"/>
<path d="M153 79C153 76.7909 154.791 75 157 75H182V92H157C154.791 92 153 90.2091 153 88V79Z" fill="#FFDAD4"/>
<path opacity="0.7" d="M245.5 88C245.5 90.2091 243.709 92 241.5 92H182V75H241.5C243.709 75 245.5 76.7909 245.5 79V88Z" fill="#FFA9EA"/>
<path d="M221 92.5H241C243.761 92.5 246 90.2614 246 87.5V82" stroke="#C9AAC1"/>
<path opacity="0.7" d="M101 95H34C31.7909 95 30 96.7909 30 99V106" stroke="#C9AAC1"/>
<path d="M163.5 116V107.137L183.527 125.5H173C167.753 125.5 163.5 121.247 163.5 116Z" fill="white" stroke="#D0BED6"/>
<path d="M160.5 74.5H193" stroke="#C9AAC1"/>
<rect x="131" y="101" width="14" height="6" fill="white"/>
<rect x="157" y="82" width="18" height="3" rx="1.5" fill="#635452" fill-opacity="0.5"/>
<rect x="192" y="82" width="49" height="3" rx="1.5" fill="#635452" fill-opacity="0.5"/>
<path d="M182 76V92" stroke="#B18BA1" stroke-dasharray="4 4"/>
<circle cx="83.5" cy="159.5" r="7.5" fill="#C39EFF"/>
<mask id="mask0_6485_85356" style="mask-type:alpha" maskUnits="userSpaceOnUse" x="76" y="152" width="15" height="15">
<circle cx="83.5" cy="159.5" r="7.5" fill="#FF91DF"/>
</mask>
<g mask="url(#mask0_6485_85356)">
<path d="M83.4342 154.5C83.0578 154.5 82.7324 154.762 82.6524 155.13L82.5601 155.555C82.5066 155.801 82.3182 155.994 82.0852 156.09V156.09C81.852 156.187 81.5857 156.182 81.3734 156.046L81.0104 155.812C80.6938 155.609 80.2782 155.653 80.0121 155.919L79.9194 156.012C79.6533 156.278 79.6087 156.694 79.8122 157.01L80.0456 157.373C80.1821 157.586 80.187 157.852 80.0905 158.085V158.085C79.994 158.318 79.8011 158.507 79.5546 158.56L79.1301 158.652C78.7623 158.732 78.5 159.058 78.5 159.434V159.566C78.5 159.942 78.7623 160.268 79.1301 160.348L79.5547 160.44C79.8011 160.493 79.994 160.682 80.0905 160.915V160.915C80.187 161.148 80.1821 161.414 80.0456 161.627L79.8122 161.99C79.6087 162.306 79.6533 162.722 79.9194 162.988L80.0121 163.081C80.2782 163.347 80.6938 163.391 81.0104 163.188L81.3735 162.954C81.5857 162.818 81.852 162.813 82.0852 162.91V162.91C82.3182 163.006 82.5066 163.199 82.5601 163.445L82.6524 163.87C82.7324 164.238 83.0578 164.5 83.4342 164.5H83.5658C83.9422 164.5 84.2676 164.238 84.3476 163.87L84.4399 163.445C84.4934 163.199 84.6818 163.006 84.9148 162.91V162.91C85.148 162.813 85.4143 162.818 85.6266 162.954L85.9896 163.188C86.3062 163.391 86.7218 163.347 86.9879 163.081L87.0806 162.988C87.3467 162.722 87.3913 162.306 87.1878 161.99L86.9544 161.627C86.8179 161.414 86.813 161.148 86.9095 160.915V160.915C87.006 160.682 87.1989 160.493 87.4454 160.44L87.8699 160.348C88.2377 160.268 88.5 159.942 88.5 159.566V159.434C88.5 159.058 88.2377 158.732 87.8699 158.652L87.4453 158.56C87.1989 158.507 87.006 158.318 86.9095 158.085V158.085C86.813 157.852 86.8179 157.586 86.9544 157.373L87.1878 157.01C87.3913 156.694 87.3467 156.278 87.0806 156.012L86.9879 155.919C86.7218 155.653 86.3062 155.609 85.9896 155.812L85.6265 156.046C85.4143 156.182 85.148 156.187 84.9148 156.09V156.09C84.6818 155.994 84.4934 155.801 84.4399 155.555L84.3476 155.13C84.2676 154.762 83.9422 154.5 83.5658 154.5H83.4342ZM83.5 157.357C84.6835 157.357 85.6429 158.317 85.6429 159.5C85.6429 160.684 84.6835 161.643 83.5 161.643C82.3165 161.643 81.3571 160.684 81.3571 159.5C81.3571 158.317 82.3165 157.357 83.5 157.357Z" fill="#F5EEFF"/>
</g>
<path fill-rule="evenodd" clip-rule="evenodd" d="M34 146C36.2091 146 38 144.209 38 142C38 139.791 36.2091 138 34 138C31.7909 138 30 139.791 30 142C30 144.209 31.7909 146 34 146ZM34 144C35.1046 144 36 143.105 36 142C36 140.895 35.1046 140 34 140C32.8954 140 32 140.895 32 142C32 143.105 32.8954 144 34 144Z" fill="#FFDDB5"/>
<defs>
<linearGradient id="paint0_linear_6485_85356" x1="57.3294" y1="213.747" x2="24.2547" y2="153.83" gradientUnits="userSpaceOnUse">
<stop stop-color="#C7BDE6"/>
<stop offset="1" stop-color="#E4DBFF" stop-opacity="0.16"/>
</linearGradient>
<linearGradient id="paint1_linear_6485_85356" x1="120.556" y1="126.099" x2="151.327" y2="228.121" gradientUnits="userSpaceOnUse">
<stop stop-color="#492EF3"/>
<stop offset="1" stop-color="#CF69FF"/>
</linearGradient>
<linearGradient id="paint2_linear_6485_85356" x1="192" y1="213.001" x2="-17" y2="80.001" gradientUnits="userSpaceOnUse">
<stop stop-color="#BC97FD"/>
<stop offset="1" stop-color="#BC97FD" stop-opacity="0"/>
</linearGradient>
<linearGradient id="paint3_linear_6485_85356" x1="130.59" y1="168.664" x2="90.951" y2="193.746" gradientUnits="userSpaceOnUse">
<stop stop-color="#ECB6FF"/>
<stop offset="1" stop-color="#BE9BFF" stop-opacity="0"/>
</linearGradient>
<linearGradient id="paint4_linear_6485_85356" x1="184.795" y1="161.121" x2="158.308" y2="166.914" gradientUnits="userSpaceOnUse">
<stop stop-color="#E1CEE8"/>
<stop offset="1" stop-color="#FFFBFF"/>
</linearGradient>
<linearGradient id="paint5_linear_6485_85356" x1="125.619" y1="117.938" x2="137.57" y2="129.596" gradientUnits="userSpaceOnUse">
<stop stop-color="#83DA85"/>
<stop offset="1" stop-color="#83DA85" stop-opacity="0"/>
</linearGradient>
</defs>
</svg>
