<svg width="55" height="10" viewBox="0 0 55 10" fill="none" xmlns="http://www.w3.org/2000/svg"><path opacity=".35" d="M35.2 3c0-.957.776-1.733 1.734-1.733h13.333C51.224 1.267 52 2.043 52 3v4.8c0 .957-.776 1.733-1.733 1.733H36.934A1.733 1.733 0 0 1 35.2 7.8V3Z" stroke="currentColor"/><path opacity=".4" d="M53.2 3.8V7a1.736 1.736 0 0 0 0-3.2Z" fill="currentColor"/><path d="M36.4 3.533c0-.589.478-1.066 1.067-1.066h12.267c.589 0 1.066.477 1.066 1.066v3.734c0 .589-.477 1.066-1.066 1.066H37.467c-.589 0-1.067-.477-1.067-1.066V3.533ZM24.665 2.686c1.772 0 3.477.682 4.762 1.903a.246.246 0 0 0 .346-.003l.925-.933a.257.257 0 0 0-.002-.365 8.718 8.718 0 0 0-12.064 0 .257.257 0 0 0-.002.365l.925.933c.095.096.25.098.346.003a6.913 6.913 0 0 1 4.764-1.903Zm0 3.037c.973 0 1.913.362 2.634 1.016.098.093.252.09.347-.005l.924-.933a.258.258 0 0 0-.004-.367 5.728 5.728 0 0 0-7.802 0 .257.257 0 0 0-.003.367l.923.933a.248.248 0 0 0 .347.005 3.926 3.926 0 0 1 2.633-1.016Zm1.85 2.043a.251.251 0 0 1-.075.185l-1.598 1.612a.25.25 0 0 1-.355 0l-1.598-1.612a.251.251 0 0 1 .008-.366 2.737 2.737 0 0 1 3.535 0 .252.252 0 0 1 .083.181ZM13.734 1.133h-.8a.8.8 0 0 0-.8.8v6.934a.8.8 0 0 0 .8.8h.8a.8.8 0 0 0 .8-.8V1.933a.8.8 0 0 0-.8-.8ZM9.2 3h.8a.8.8 0 0 1 .8.8v5.067a.8.8 0 0 1-.8.8h-.8a.8.8 0 0 1-.8-.8V3.8a.8.8 0 0 1 .8-.8ZM6.267 4.867h-.8a.8.8 0 0 0-.8.8v3.2a.8.8 0 0 0 .8.8h.8a.8.8 0 0 0 .8-.8v-3.2a.8.8 0 0 0-.8-.8Zm-3.733 1.6h-.8a.8.8 0 0 0-.8.8v1.6a.8.8 0 0 0 .8.8h.8a.8.8 0 0 0 .8-.8v-1.6a.8.8 0 0 0-.8-.8Z" fill="currentColor"/></svg>