<svg width="20" height="20" viewBox="0 0 20 20" fill="none" xmlns="http://www.w3.org/2000/svg">
<path d="M7.09178 10.4C6.92696 10.4 6.76585 10.4488 6.62881 10.5404C6.49177 10.632 6.38495 10.7621 6.32188 10.9144C6.25881 11.0667 6.24231 11.2342 6.27446 11.3959C6.30661 11.5575 6.38598 11.706 6.50253 11.8226C6.61907 11.9391 6.76756 12.0185 6.92921 12.0506C7.09086 12.0828 7.25841 12.0663 7.41068 12.0032C7.56296 11.9401 7.6931 11.8333 7.78467 11.6963C7.87624 11.5592 7.92511 11.3981 7.92511 11.2333C7.92511 11.0123 7.83732 10.8003 7.68104 10.6441C7.52476 10.4878 7.3128 10.4 7.09178 10.4ZM7.09178 6.66664C6.92696 6.66664 6.76585 6.71552 6.62881 6.80708C6.49177 6.89865 6.38495 7.0288 6.32188 7.18107C6.25881 7.33334 6.24231 7.5009 6.27446 7.66255C6.30661 7.8242 6.38598 7.97269 6.50253 8.08923C6.61907 8.20577 6.76756 8.28514 6.92921 8.3173C7.09086 8.34945 7.25841 8.33295 7.41068 8.26988C7.56296 8.2068 7.6931 8.09999 7.78467 7.96295C7.87624 7.82591 7.92511 7.66479 7.92511 7.49998C7.92511 7.27896 7.83732 7.067 7.68104 6.91072C7.52476 6.75444 7.3128 6.66664 7.09178 6.66664ZM10.0001 8.33331C9.7791 8.33331 9.56714 8.42111 9.41086 8.57739C9.25458 8.73367 9.16678 8.94563 9.16678 9.16664V9.99998C9.16678 10.221 9.25458 10.433 9.41086 10.5892C9.56714 10.7455 9.7791 10.8333 10.0001 10.8333C10.2211 10.8333 10.4331 10.7455 10.5894 10.5892C10.7457 10.433 10.8334 10.221 10.8334 9.99998V9.16664C10.8334 8.94563 10.7457 8.73367 10.5894 8.57739C10.4331 8.42111 10.2211 8.33331 10.0001 8.33331ZM17.0834 7.14164C16.796 6.97624 16.4785 6.86969 16.1494 6.8282C15.8203 6.78671 15.4863 6.81111 15.1668 6.89998C14.8342 6.98905 14.5245 7.14816 14.2584 7.36664L4.59178 1.77498C4.4651 1.70184 4.3214 1.66333 4.17511 1.66333C4.02883 1.66333 3.88513 1.70184 3.75845 1.77498C3.62973 1.84733 3.52254 1.95259 3.44786 2.07998C3.37319 2.20737 3.3337 2.35231 3.33345 2.49998V13.475C2.84166 13.6409 2.41526 13.9586 2.11572 14.3825C1.81618 14.8063 1.65898 15.3144 1.66678 15.8333C1.66655 16.485 1.92077 17.1109 2.37529 17.5779C2.82981 18.0449 3.4487 18.3159 4.10011 18.3333H4.58345C7.31406 18.3269 9.99436 17.5981 12.3522 16.2208C14.7101 14.8436 16.6615 12.867 18.0084 10.4916C18.3195 9.92331 18.3978 9.2564 18.2268 8.63147C18.0558 8.00655 17.6489 7.47241 17.0918 7.14164H17.0834ZM5.00011 3.94164L13.2418 8.69998C12.3274 10.0643 11.1051 11.1945 9.67344 11.9994C8.24178 12.8043 6.64092 13.2612 5.00011 13.3333V3.94164ZM16.5584 9.67498C15.3213 11.8547 13.5146 13.6569 11.3318 14.8885C9.14892 16.1201 6.67218 16.7347 4.16678 16.6666C3.94577 16.6666 3.73381 16.5788 3.57753 16.4226C3.42125 16.2663 3.33345 16.0543 3.33345 15.8333C3.3328 15.7217 3.35459 15.611 3.39754 15.5079C3.44048 15.4049 3.5037 15.3115 3.58345 15.2333C3.74 15.0824 3.94934 14.9987 4.16678 15H4.59178C6.73154 14.9991 8.8327 14.43 10.6805 13.351C12.5282 12.2719 14.0563 10.7215 15.1084 8.85831C15.159 8.7669 15.2282 8.68707 15.3114 8.62392C15.3946 8.56078 15.4901 8.51573 15.5918 8.49164C15.8019 8.43397 16.0263 8.46089 16.2168 8.56664C16.408 8.66941 16.5515 8.84273 16.6169 9.04972C16.6823 9.25671 16.6643 9.48104 16.5668 9.67498H16.5584Z" fill="currentColor"/>
</svg>
