<svg width="20" height="20" viewBox="0 0 20 20" fill="none" xmlns="http://www.w3.org/2000/svg">
<path d="M10.0001 1.66602C8.38385 1.66909 6.80336 2.14211 5.45115 3.02746C4.09893 3.91282 3.03337 5.1723 2.38424 6.65249C1.73511 8.13268 1.53044 9.7697 1.79514 11.3641C2.05985 12.9586 2.78252 14.4417 3.87512 15.6327C4.65547 16.4786 5.60257 17.1536 6.65674 17.6154C7.7109 18.0771 8.84927 18.3155 10.0001 18.3155C11.151 18.3155 12.2893 18.0771 13.3435 17.6154C14.3977 17.1536 15.3448 16.4786 16.1251 15.6327C17.2177 14.4417 17.9404 12.9586 18.2051 11.3641C18.4698 9.7697 18.2651 8.13268 17.616 6.65249C16.9669 5.1723 15.9013 3.91282 14.5491 3.02746C13.1969 2.14211 11.6164 1.66909 10.0001 1.66602ZM10.0001 16.666C8.27384 16.6634 6.61588 15.9912 5.37512 14.791C5.75183 13.874 6.39265 13.0896 7.21617 12.5376C8.03968 11.9856 9.00871 11.6909 10.0001 11.6909C10.9915 11.6909 11.9606 11.9856 12.7841 12.5376C13.6076 13.0896 14.2484 13.874 14.6251 14.791C13.3844 15.9912 11.7264 16.6634 10.0001 16.666ZM8.33346 8.33268C8.33346 8.00305 8.4312 7.68081 8.61434 7.40673C8.79748 7.13265 9.05777 6.91903 9.36232 6.79288C9.66686 6.66674 10.002 6.63373 10.3253 6.69804C10.6486 6.76235 10.9455 6.92108 11.1786 7.15417C11.4117 7.38726 11.5705 7.68423 11.6348 8.00753C11.6991 8.33083 11.6661 8.66594 11.5399 8.97049C11.4138 9.27503 11.2002 9.53533 10.9261 9.71846C10.652 9.9016 10.3298 9.99935 10.0001 9.99935C9.55809 9.99935 9.13417 9.82375 8.82161 9.51119C8.50905 9.19863 8.33346 8.77471 8.33346 8.33268ZM15.7585 13.3327C15.0139 12.0591 13.868 11.0685 12.5001 10.516C12.9244 10.0349 13.2009 9.44156 13.2963 8.80721C13.3918 8.17286 13.3022 7.52444 13.0382 6.93976C12.7743 6.35508 12.3473 5.85898 11.8084 5.51099C11.2695 5.16299 10.6416 4.97789 10.0001 4.97789C9.35863 4.97789 8.73076 5.16299 8.19187 5.51099C7.65297 5.85898 7.22593 6.35508 6.962 6.93976C6.69806 7.52444 6.60844 8.17286 6.7039 8.80721C6.79935 9.44156 7.07582 10.0349 7.50012 10.516C6.13229 11.0685 4.98635 12.0591 4.24179 13.3327C3.64841 12.3219 3.33489 11.1714 3.33346 9.99935C3.33346 8.23124 4.03583 6.53555 5.28608 5.2853C6.53632 4.03506 8.23201 3.33268 10.0001 3.33268C11.7682 3.33268 13.4639 4.03506 14.7142 5.2853C15.9644 6.53555 16.6668 8.23124 16.6668 9.99935C16.6654 11.1714 16.3518 12.3219 15.7585 13.3327Z" fill="currentColor"/>
</svg>
