<svg width="29" height="28" viewBox="0 0 29 28" fill="none" xmlns="http://www.w3.org/2000/svg">
<path d="M28.6664 13.9396C28.6657 13.7389 28.6611 13.5392 28.6521 13.3404V2.00999L25.5197 5.14238C22.956 2.00432 19.056 0 14.6876 0C10.1415 0 6.10283 2.16992 3.5498 5.53039L8.68419 10.7188C9.18736 9.78819 9.90216 8.98892 10.764 8.38525C11.6604 7.68574 12.9305 7.1138 14.6874 7.1138C14.8997 7.1138 15.0635 7.1386 15.1838 7.18533C17.3607 7.35714 19.2476 8.55848 20.3586 10.3021L16.7242 13.9365C21.3276 13.9184 26.528 13.9078 28.666 13.9388" fill="#1C3AA9"/>
<path d="M14.6061 0C14.4054 0.000666673 14.2057 0.00530008 14.0069 0.0143002H2.67649L5.80889 3.1467C2.67082 5.71039 0.666504 9.61042 0.666504 13.9788C0.666504 18.5248 2.83646 22.5635 6.19689 25.1166L11.3853 19.9822C10.4547 19.479 9.65542 18.7642 9.05175 17.9023C8.35228 17.006 7.78031 15.7359 7.78031 13.979C7.78031 13.7667 7.8051 13.6029 7.85183 13.4825C8.02364 11.3057 9.22498 9.41882 10.9686 8.30781L14.603 11.9422C14.5849 7.3388 14.5743 2.13842 14.6053 0.000399911" fill="#4285F4"/>
<path d="M0.666992 13.9785C0.667659 14.1793 0.672292 14.379 0.681292 14.5777V25.9082L3.81369 22.7758C6.37738 25.9138 10.2774 27.9181 14.6458 27.9181C19.1918 27.9181 23.2305 25.7482 25.7836 22.3878L20.6492 17.1994C20.146 18.13 19.4312 18.9292 18.5693 19.5329C17.673 20.2324 16.4029 20.8043 14.646 20.8043C14.4337 20.8043 14.2699 20.7795 14.1495 20.7328C11.9727 20.561 10.0858 19.3597 8.9748 17.616L12.6092 13.9817C8.0058 13.9997 2.80541 14.0103 0.667393 13.9793" fill="#ABABAB"/>
</svg>
