<svg width="20" height="20" viewBox="0 0 20 20" fill="none" xmlns="http://www.w3.org/2000/svg">
  <path
    d="M10.0003 1.66675C7.86398 1.67284 5.81157 2.49918 4.26699 3.97508V2.50008C4.26699 2.27907 4.1792 2.06711 4.02291 1.91083C3.86663 1.75455 3.65467 1.66675 3.43366 1.66675C3.21265 1.66675 3.00068 1.75455 2.8444 1.91083C2.68812 2.06711 2.60033 2.27907 2.60033 2.50008V6.25008C2.60033 6.4711 2.68812 6.68306 2.8444 6.83934C3.00068 6.99562 3.21265 7.08342 3.43366 7.08342H7.18366C7.40467 7.08342 7.61663 6.99562 7.77291 6.83934C7.92919 6.68306 8.01699 6.4711 8.01699 6.25008C8.01699 6.02907 7.92919 5.81711 7.77291 5.66083C7.61663 5.50455 7.40467 5.41675 7.18366 5.41675H5.18366C6.25514 4.29705 7.68325 3.58563 9.22244 3.40481C10.7616 3.22398 12.3157 3.58506 13.6175 4.42595C14.9193 5.26684 15.8875 6.53501 16.3556 8.01241C16.8237 9.48981 16.7624 11.0841 16.1823 12.5212C15.6023 13.9584 14.5396 15.1485 13.1771 15.887C11.8146 16.6255 10.2374 16.8663 8.71662 16.5679C7.19585 16.2695 5.82655 15.4505 4.84415 14.2519C3.86176 13.0533 3.32765 11.5498 3.33366 10.0001C3.33366 9.77907 3.24586 9.56711 3.08958 9.41083C2.9333 9.25455 2.72134 9.16675 2.50033 9.16675C2.27931 9.16675 2.06735 9.25455 1.91107 9.41083C1.75479 9.56711 1.66699 9.77907 1.66699 10.0001C1.66699 11.6483 2.15573 13.2594 3.07141 14.6298C3.98709 16.0002 5.28858 17.0683 6.8113 17.6991C8.33401 18.3298 10.0096 18.4948 11.6261 18.1733C13.2426 17.8517 14.7274 17.0581 15.8929 15.8926C17.0583 14.7272 17.852 13.2423 18.1735 11.6258C18.4951 10.0093 18.3301 8.33377 17.6993 6.81105C17.0686 5.28834 16.0005 3.98685 14.6301 3.07117C13.2597 2.15549 11.6485 1.66675 10.0003 1.66675ZM10.0003 6.66675C9.77931 6.66675 9.56735 6.75455 9.41107 6.91083C9.25479 7.06711 9.16699 7.27907 9.16699 7.50008V10.0001C9.16699 10.2211 9.25479 10.4331 9.41107 10.5893C9.56735 10.7456 9.77931 10.8334 10.0003 10.8334H11.667C11.888 10.8334 12.1 10.7456 12.2562 10.5893C12.4125 10.4331 12.5003 10.2211 12.5003 10.0001C12.5003 9.77907 12.4125 9.56711 12.2562 9.41083C12.1 9.25455 11.888 9.16675 11.667 9.16675H10.8337V7.50008C10.8337 7.27907 10.7459 7.06711 10.5896 6.91083C10.4333 6.75455 10.2213 6.66675 10.0003 6.66675Z"
    fill="currentColor" />
</svg>
