<svg width="20" height="20" viewBox="0 0 20 20" fill="none" xmlns="http://www.w3.org/2000/svg">
  <path
    d="M12.3417 10.2334C12.8692 9.66689 13.1664 8.924 13.1751 8.15002C13.1751 7.31459 12.8432 6.51337 12.2525 5.92263C11.6617 5.33189 10.8605 5.00002 10.0251 5.00002C9.18965 5.00002 8.38844 5.33189 7.7977 5.92263C7.20696 6.51337 6.87508 7.31459 6.87508 8.15002C6.88378 8.924 7.18093 9.66689 7.70842 10.2334C6.97396 10.5991 6.34193 11.1416 5.86918 11.8122C5.39642 12.4828 5.09777 13.2604 5.00008 14.075C4.97577 14.296 5.04025 14.5177 5.17934 14.6911C5.31843 14.8646 5.52073 14.9757 5.74175 15C5.96276 15.0243 6.18438 14.9599 6.35785 14.8208C6.53132 14.6817 6.64244 14.4794 6.66675 14.2584C6.76619 13.451 7.15745 12.7078 7.76682 12.1689C8.37619 11.63 9.1616 11.3325 9.97508 11.3325C10.7886 11.3325 11.574 11.63 12.1833 12.1689C12.7927 12.7078 13.184 13.451 13.2834 14.2584C13.3066 14.472 13.4114 14.6685 13.576 14.8067C13.7406 14.9449 13.9523 15.0142 14.1667 15H14.2584C14.4769 14.9749 14.6765 14.8644 14.8139 14.6927C14.9512 14.521 15.0152 14.302 14.9917 14.0834C14.9013 13.273 14.6121 12.4975 14.1498 11.8259C13.6875 11.1542 13.0664 10.6072 12.3417 10.2334ZM10.0001 9.63335C9.70671 9.63335 9.41992 9.54636 9.17599 9.38337C8.93205 9.22038 8.74193 8.98871 8.62966 8.71767C8.51739 8.44662 8.48802 8.14838 8.54525 7.86064C8.60248 7.5729 8.74376 7.30859 8.95121 7.10115C9.15865 6.8937 9.42296 6.75242 9.7107 6.69519C9.99844 6.63795 10.2967 6.66733 10.5677 6.7796C10.8388 6.89187 11.0704 7.08199 11.2334 7.32592C11.3964 7.56986 11.4834 7.85664 11.4834 8.15002C11.4834 8.54343 11.3271 8.92072 11.049 9.1989C10.7708 9.47708 10.3935 9.63335 10.0001 9.63335ZM15.8334 1.66669H4.16675C3.50371 1.66669 2.86782 1.93008 2.39898 2.39892C1.93014 2.86776 1.66675 3.50365 1.66675 4.16669V15.8334C1.66675 16.4964 1.93014 17.1323 2.39898 17.6011C2.86782 18.07 3.50371 18.3334 4.16675 18.3334H15.8334C16.4965 18.3334 17.1323 18.07 17.6012 17.6011C18.07 17.1323 18.3334 16.4964 18.3334 15.8334V4.16669C18.3334 3.50365 18.07 2.86776 17.6012 2.39892C17.1323 1.93008 16.4965 1.66669 15.8334 1.66669ZM16.6667 15.8334C16.6667 16.0544 16.579 16.2663 16.4227 16.4226C16.2664 16.5789 16.0544 16.6667 15.8334 16.6667H4.16675C3.94573 16.6667 3.73377 16.5789 3.57749 16.4226C3.42121 16.2663 3.33341 16.0544 3.33341 15.8334V4.16669C3.33341 3.94567 3.42121 3.73371 3.57749 3.57743C3.73377 3.42115 3.94573 3.33335 4.16675 3.33335H15.8334C16.0544 3.33335 16.2664 3.42115 16.4227 3.57743C16.579 3.73371 16.6667 3.94567 16.6667 4.16669V15.8334Z"
    fill="currentColor" />
</svg>
