<svg width="256" height="256" viewBox="0 0 256 256" fill="none" xmlns="http://www.w3.org/2000/svg">
<rect width="256" height="256" fill="#191C1D"/>
<rect width="256" height="256" fill="#C4C7C7" fill-opacity="0.02"/>
<rect width="256" height="256" fill="#CABEFF" fill-opacity="0.08"/>
<path d="M22 219H234.4V47.6C234.4 35.6706 224.729 26 212.8 26H43.6C31.6707 26 22 35.6706 22 47.6V219Z" fill="url(#paint0_linear_6532_88910)"/>
<path d="M104.109 159.753H62.5013C44.962 159.753 29.9754 172.393 27.0171 189.681L22 218.999H234.4L233.931 217.68C230.869 209.069 222.719 203.317 213.579 203.317H179.601C174.594 203.317 169.946 200.715 167.327 196.447L165.27 193.095C160.033 184.559 150.737 179.357 140.723 179.357H136.317C131.798 179.357 127.657 176.836 125.581 172.822C121.429 164.794 113.146 159.753 104.109 159.753Z" fill="#CABEFF" fill-opacity="0.16"/>
<path d="M82.3 193.865H34.6C22.6707 193.865 13 184.195 13 172.265V104.995" stroke="#58577B" stroke-width="0.9" stroke-dasharray="3.6 3.6"/>
<path d="M188.05 66.3952H221.8C233.729 66.3952 243.4 76.0409 243.4 87.9394V108.586" stroke="#58577B" stroke-width="0.9" stroke-dasharray="3.6 3.6"/>
<path fill-rule="evenodd" clip-rule="evenodd" d="M148.861 64.6935C148.861 64.6416 148.903 64.5996 148.955 64.5996H150.645C150.697 64.5996 150.739 64.6416 150.739 64.6935V67.6595L153.314 66.1764C153.359 66.1506 153.417 66.166 153.443 66.2108L154.287 67.6701C154.313 67.715 154.298 67.7723 154.253 67.7982L151.677 69.2814L154.253 70.7644C154.298 70.7903 154.313 70.8476 154.287 70.8925L153.442 72.3518C153.416 72.3967 153.359 72.4121 153.314 72.3862L150.739 70.9032V73.8691C150.739 73.921 150.697 73.963 150.645 73.963H148.955C148.903 73.963 148.861 73.921 148.861 73.8691V70.9031L146.286 72.3862C146.241 72.4121 146.183 72.3967 146.157 72.3518L145.313 70.8925C145.287 70.8476 145.302 70.7903 145.347 70.7644L147.922 69.2814L145.347 67.7982C145.302 67.7723 145.286 67.715 145.312 67.6701L146.157 66.2108C146.183 66.166 146.241 66.1506 146.286 66.1764L148.861 67.6597V64.6935Z" fill="#5F5D67"/>
<path d="M129.822 59.9305L129.461 57.4171C129.262 56.0286 127.973 55.0645 126.581 55.2631V55.2631C125.189 55.4616 123.9 54.4975 123.701 53.1091V53.1091C123.502 51.7207 122.212 50.7565 120.82 50.9551L118.3 51.3145" stroke="#52514B" stroke-width="1.8" stroke-linecap="round" stroke-linejoin="round"/>
<rect x="87.7" y="96.0186" width="135" height="97.8465" rx="10.8" fill="url(#paint1_linear_6532_88910)"/>
<rect x="107.5" y="146.287" width="102.6" height="8.97674" rx="3.6" fill="#AF9FDB"/>
<rect x="107.5" y="160.651" width="102.6" height="8.97674" rx="3.6" fill="#F0EBFF"/>
<rect x="107.5" y="175.014" width="38.7" height="8.97674" rx="3.6" fill="white"/>
<rect x="33.3" y="160.253" width="116" height="58.2465" rx="10.3" fill="#CABEFF" stroke="#947DFF"/>
<rect x="44.5" y="192.07" width="44.1" height="7.1814" rx="1.8" fill="#AF9EFF"/>
<rect opacity="0.7" x="44.5" y="178.605" width="8.1" height="7.1814" rx="1.8" fill="#F07EFF"/>
<rect x="60.7" y="178.605" width="20.7" height="7.1814" rx="1.8" fill="#AF9EFF"/>
<g clip-path="url(#clip0_6532_88910)">
<rect x="104.8" y="172.321" width="32.4" height="32.3163" rx="10.8" fill="#776E9E"/>
<path d="M131.613 200.939C132.485 202.601 132.922 208.656 132.922 208.656H108.401C108.401 208.656 108.838 202.601 109.711 200.939C111.02 198.446 120.662 195.24 120.662 195.24C120.662 195.24 130.303 198.446 131.613 200.939Z" fill="#F07EFF"/>
<path d="M130.836 193.864L111.498 191.533C110.545 186.485 111.676 183.304 114.891 181.991C116.377 177.134 122.162 177.529 123.801 177.925C129.381 179.273 131.726 184.586 130.836 193.864Z" fill="#47464E"/>
<path d="M117.806 196.666V189.542C114.827 189.498 115.408 184.35 118.401 185.921C118.936 186.158 120.305 185.505 119.829 183.903C123.043 186.277 127.521 182.11 127.804 184.674C128.361 189.721 127.284 193.87 124.429 193.87C124.125 193.882 123.82 193.864 123.519 193.816V196.666C122.587 197.22 121.655 197.497 120.723 197.497C119.791 197.497 118.819 197.22 117.806 196.666Z" fill="#FFB95A"/>
<path d="M123.518 193.816V194.765C122.209 194.765 120.344 193.915 119.352 192.213C120.542 193.004 121.931 193.539 123.518 193.816Z" fill="#FA8B54"/>
<path d="M120.657 197.374C121.471 197.335 123.518 196.915 123.518 196.007V195.24C123.736 195.24 124.361 195.755 124.682 196.19C125.953 197.912 124.544 199.455 123.394 199.455C121.944 199.455 120.982 198.246 120.661 197.665C120.34 198.246 119.378 199.455 117.928 199.455C116.778 199.455 115.368 197.912 116.639 196.19C116.961 195.755 117.586 195.24 117.804 195.24V196.007C117.804 196.915 119.797 197.335 120.657 197.374Z" fill="url(#paint2_linear_6532_88910)"/>
</g>
<rect x="105.25" y="172.771" width="31.5" height="31.4163" rx="10.35" stroke="#947DFF" stroke-width="0.9"/>
<path d="M59.8 106.819C59.8 100.854 64.6354 96.0186 70.6 96.0186H211.9C217.865 96.0186 222.7 100.854 222.7 106.819V110.381H59.8V106.819Z" fill="#635C8F"/>
<path d="M219.1 115.32C227.797 115.32 234.85 108.287 234.85 99.6091C234.85 90.9314 227.797 83.8986 219.1 83.8986C210.403 83.8986 203.35 90.9314 203.35 99.6091C203.35 108.287 210.403 115.32 219.1 115.32Z" stroke="url(#paint3_linear_6532_88910)" stroke-width="0.9"/>
<ellipse cx="219.101" cy="99.6098" rx="13.8429" ry="13.8071" fill="#86BF8F"/>
<rect width="3.9512" height="11.8536" rx="1.9756" transform="matrix(0.708021 -0.706191 0.708021 0.706191 209.629 98.6514)" fill="white"/>
<rect width="15.8048" height="3.9512" rx="1.9756" transform="matrix(0.708021 -0.706191 0.708021 0.706191 215.224 104.232)" fill="white"/>
<path d="M109.3 138.659L120.187 127.8C123.599 124.397 128.852 123.666 133.064 126.009L142.521 131.269C146.596 133.536 151.666 132.931 155.094 129.769L161.376 123.973C164.914 120.709 170.184 120.18 174.3 122.676L200.65 138.659" stroke="white" stroke-opacity="0.7" stroke-width="0.9" stroke-linejoin="round"/>
<rect x="45.3999" y="62.8047" width="62.1" height="91.5628" rx="14.4" fill="#C39EFF"/>
<rect width="7.19512" height="7.18628" rx="1.8" transform="matrix(0.859426 0.511261 -0.513216 0.85826 203.888 72.6787)" fill="#6E6083"/>
<path d="M40.9001 66.0643C37.1692 66.0643 35.4019 62.8894 35.4019 60.1113C35.4019 62.8894 33.831 66.0643 30.1001 66.0643C33.831 66.0643 35.4019 68.0222 35.4019 72.6788C35.4019 68.0222 37.1692 66.0643 40.9001 66.0643Z" fill="#928F9A"/>
<path d="M56.1999 90.3016C52.469 90.3016 50.7017 87.1267 50.7017 84.3486C50.7017 87.1267 49.1308 90.3016 45.3999 90.3016C49.1308 90.3016 50.7017 92.2595 50.7017 96.9161C50.7017 92.2595 52.469 90.3016 56.1999 90.3016Z" fill="white" fill-opacity="0.8"/>
<ellipse cx="166.94" cy="121.192" rx="1.83942" ry="1.83466" fill="white"/>
<ellipse cx="126.44" cy="124.784" rx="1.83942" ry="1.83466" fill="white"/>
<rect x="52.5999" y="115.77" width="48.6" height="8.97674" rx="3.6" fill="#D8C7FF"/>
<rect x="52.5999" y="129.234" width="48.6" height="8.97674" rx="3.6" fill="#EFE9FF" stroke="#815AE3" stroke-width="0.9"/>
<path fill-rule="evenodd" clip-rule="evenodd" d="M57.9998 120.257C57.9998 119.761 58.4017 119.359 58.8974 119.359H78.7021C79.1979 119.359 79.5998 119.761 79.5998 120.257C79.5998 120.753 79.1979 121.155 78.7021 121.155H58.8974C58.4017 121.155 57.9998 120.753 57.9998 120.257ZM83.1998 120.257C83.1998 119.761 83.6017 119.359 84.0974 119.359H89.5021C89.9979 119.359 90.3998 119.761 90.3998 120.257C90.3998 120.753 89.9979 121.155 89.5021 121.155H84.0974C83.6017 121.155 83.1998 120.753 83.1998 120.257ZM93.0974 119.359C92.6017 119.359 92.1998 119.761 92.1998 120.257C92.1998 120.753 92.6017 121.155 93.0974 121.155H94.9021C95.3979 121.155 95.7998 120.753 95.7998 120.257C95.7998 119.761 95.3979 119.359 94.9021 119.359H93.0974Z" fill="#9877EA"/>
<ellipse cx="62.5" cy="133.722" rx="1.8" ry="1.79535" fill="#956AFF"/>
<ellipse cx="69.6999" cy="133.722" rx="1.8" ry="1.79535" fill="#956AFF"/>
<ellipse cx="76.8999" cy="133.722" rx="1.8" ry="1.79535" fill="#956AFF"/>
<ellipse cx="84.0998" cy="133.722" rx="1.8" ry="1.79535" fill="#956AFF"/>
<ellipse cx="91.2998" cy="133.722" rx="1.8" ry="1.79535" fill="#956AFF"/>
<g clip-path="url(#clip1_6532_88910)">
<rect x="60.7" y="74.4756" width="32.4" height="32.3163" rx="10.8" fill="#D8C7FF"/>
<path d="M79.9294 97.2786V99.7192C79.9294 100.189 72.9694 100.031 72.9694 99.3534C72.9694 98.7156 72.9825 95.8253 72.9694 92.8518C71.4108 90.8367 71.4108 89.5773 72.6432 88.2757C73.8755 86.9741 82.6482 86.3232 82.6482 86.3232C82.6482 86.3232 83.3063 92.6372 83.4094 94.3499C83.4509 95.0387 83.8988 97.2786 82.1588 97.2786H79.9294Z" fill="url(#paint4_linear_6532_88910)"/>
<g style="mix-blend-mode:multiply">
<path d="M79.9279 97.0689C78.511 96.9147 77.1417 96.4686 75.9067 95.7588C75.9067 95.7588 76.7767 97.8197 79.9279 98.379V97.0689Z" fill="#FFD7B8"/>
</g>
<path d="M87.8684 104.578C88.4969 105.853 89.004 107.886 89.3896 110.677C89.4515 111.124 89.1011 111.52 88.6492 111.52H64.2502C63.7983 111.52 63.4479 111.124 63.5097 110.677C63.8955 107.885 64.4025 105.853 65.0309 104.578C65.7186 103.183 72.0997 100.499 72.0997 100.499C72.0997 100.499 72.2267 99.2717 72.5347 99.0958C72.8426 98.9198 79.9978 98.92 80.3647 99.0958C80.7315 99.2716 80.7997 100.498 80.7997 100.498C80.7997 100.498 87.182 103.186 87.8684 104.578Z" fill="#5F5D67"/>
<path d="M74.3861 89.5984C74.0403 89.3022 73.6201 89.1027 73.0261 89.4105C71.6179 90.1398 72.5525 92.9532 74.1283 92.8984C74.6721 92.8795 74.4228 93.9603 72.9702 94.6741C72.9702 93.5352 71.2302 90.715 71.0779 88.1473C69.327 87.497 69.762 84.8952 70.964 84.8952C70.7722 82.5099 74.6014 81.2779 76.0841 82.6466C77.592 80.844 81.3983 81.766 81.6281 83.3299C84.2454 81.9364 85.9658 85.942 83.5151 87.497C82.5067 88.137 80.1477 88.3805 76.7424 88.3805C75.1083 88.3805 76.048 92.1954 76.5589 93.4267C77.2114 94.9995 80.8545 95.2165 81.9964 95.0537C82.8882 94.9267 83.3558 94.5656 83.4102 94.3487C84.2258 96.5181 83.1927 97.8197 81.5614 97.8197C78.7883 97.8197 76.0152 97.0062 75.5802 94.9995C75.2339 93.4025 75.2529 90.8252 74.3861 89.5984Z" fill="#7958FF"/>
</g>
<rect x="61.15" y="74.9256" width="31.5" height="31.4163" rx="10.35" stroke="#9877EA" stroke-width="0.9"/>
<rect x="89" y="218" width="20" height="5" fill="#191C1D"/>
<rect x="89" y="218" width="20" height="5" fill="#C4C7C7" fill-opacity="0.02"/>
<rect x="89" y="218" width="20" height="5" fill="#CABEFF" fill-opacity="0.08"/>
<defs>
<linearGradient id="paint0_linear_6532_88910" x1="128.2" y1="219" x2="128.2" y2="26" gradientUnits="userSpaceOnUse">
<stop stop-color="#444353"/>
<stop offset="1" stop-color="#444353" stop-opacity="0"/>
</linearGradient>
<linearGradient id="paint1_linear_6532_88910" x1="155.2" y1="96.0186" x2="136.658" y2="198.202" gradientUnits="userSpaceOnUse">
<stop stop-color="#9B84DA"/>
<stop offset="1" stop-color="#8470BD"/>
</linearGradient>
<linearGradient id="paint2_linear_6532_88910" x1="120.661" y1="199.455" x2="120.661" y2="195.24" gradientUnits="userSpaceOnUse">
<stop stop-color="#FCF2EB"/>
<stop offset="1" stop-color="#FFF9F5"/>
</linearGradient>
<linearGradient id="paint3_linear_6532_88910" x1="219.1" y1="84.3486" x2="219.1" y2="114.87" gradientUnits="userSpaceOnUse">
<stop stop-color="#86BF8F"/>
<stop offset="1" stop-color="#86BF8F" stop-opacity="0"/>
</linearGradient>
<linearGradient id="paint4_linear_6532_88910" x1="77.6236" y1="86.3232" x2="77.6236" y2="99.9889" gradientUnits="userSpaceOnUse">
<stop stop-color="#FFD4B3"/>
<stop offset="1" stop-color="#FFDCC2"/>
</linearGradient>
<clipPath id="clip0_6532_88910">
<rect x="104.8" y="172.321" width="32.4" height="32.3163" rx="10.8" fill="white"/>
</clipPath>
<clipPath id="clip1_6532_88910">
<rect x="60.7" y="74.4756" width="32.4" height="32.3163" rx="10.8" fill="white"/>
</clipPath>
</defs>
</svg>
