<svg width="20" height="20" viewBox="0 0 20 20" fill="none" xmlns="http://www.w3.org/2000/svg">
<path d="M16.3585 3.04172C16.2617 2.9634 16.1486 2.90778 16.0274 2.87894C15.9063 2.8501 15.7802 2.84877 15.6585 2.87505C14.768 3.06167 13.8488 3.06405 12.9574 2.88204C12.0659 2.70003 11.2212 2.33748 10.4752 1.81672C10.3357 1.71995 10.1699 1.66809 10.0002 1.66809C9.83039 1.66809 9.66466 1.71995 9.52517 1.81672C8.77913 2.33748 7.9344 2.70003 7.04297 2.88204C6.15155 3.06405 5.2323 3.06167 4.34183 2.87505C4.22012 2.84877 4.09406 2.8501 3.97292 2.87894C3.85178 2.90778 3.73865 2.9634 3.64183 3.04172C3.54515 3.12015 3.46727 3.21925 3.41391 3.33173C3.36055 3.44422 3.33308 3.56722 3.3335 3.69172V9.90005C3.33276 11.0948 3.61748 12.2725 4.16395 13.335C4.71041 14.3975 5.50282 15.3141 6.47517 16.0084L9.51683 18.1751C9.65797 18.2755 9.82691 18.3295 10.0002 18.3295C10.1734 18.3295 10.3424 18.2755 10.4835 18.1751L13.5252 16.0084C14.4975 15.3141 15.2899 14.3975 15.8364 13.335C16.3829 12.2725 16.6676 11.0948 16.6668 9.90005V3.69172C16.6673 3.56722 16.6398 3.44422 16.5864 3.33173C16.5331 3.21925 16.4552 3.12015 16.3585 3.04172ZM15.0002 9.90005C15.0008 10.829 14.7796 11.7447 14.3549 12.5709C13.9302 13.3971 13.3143 14.1099 12.5585 14.6501L10.0002 16.4751L7.44183 14.6501C6.68603 14.1099 6.07015 13.3971 5.64546 12.5709C5.22076 11.7447 4.99953 10.829 5.00017 9.90005V4.65005C6.74719 4.79958 8.49687 4.39424 10.0002 3.49172C11.5035 4.39424 13.2531 4.79958 15.0002 4.65005V9.90005ZM11.2835 7.99172L9.04183 10.2417L8.30017 9.49172C8.14325 9.3348 7.93042 9.24664 7.7085 9.24664C7.48658 9.24664 7.27375 9.3348 7.11683 9.49172C6.95991 9.64864 6.87176 9.86147 6.87176 10.0834C6.87176 10.3053 6.95991 10.5181 7.11683 10.6751L8.45017 12.0084C8.52764 12.0865 8.6198 12.1485 8.72135 12.1908C8.8229 12.2331 8.93182 12.2549 9.04183 12.2549C9.15184 12.2549 9.26077 12.2331 9.36231 12.1908C9.46386 12.1485 9.55603 12.0865 9.6335 12.0084L12.5002 9.16672C12.6571 9.0098 12.7452 8.79697 12.7452 8.57505C12.7452 8.35314 12.6571 8.14031 12.5002 7.98339C12.3432 7.82647 12.1304 7.73831 11.9085 7.73831C11.6866 7.73831 11.4738 7.82647 11.3168 7.98339L11.2835 7.99172Z" fill="currentColor"/>
</svg>
