<svg width="256" height="256" viewBox="0 0 256 256" fill="none" xmlns="http://www.w3.org/2000/svg">
<rect x="24" y="136" width="128" height="96" rx="16" fill="#E5E1EC"/>
<g style="mix-blend-mode:multiply" opacity="0.24">
<rect x="24" y="136" width="128" height="96" rx="16" fill="white"/>
</g>
<path d="M24 152C24 143.163 31.1634 136 40 136H136C144.837 136 152 143.163 152 152V160H24V152Z" fill="#ADAAB4"/>
<path d="M40 179C40 177.343 41.3431 176 43 176H85C86.6569 176 88 177.343 88 179C88 180.657 86.6569 182 85 182H43C41.3431 182 40 180.657 40 179Z" fill="#C9C5D0"/>
<path d="M40 193C40 191.343 41.3431 190 43 190H117C118.657 190 120 191.343 120 193C120 194.657 118.657 196 117 196H43C41.3431 196 40 194.657 40 193Z" fill="#ADAAB4"/>
<path d="M40 207C40 205.343 41.3431 204 43 204H53C54.6569 204 56 205.343 56 207C56 208.657 54.6569 210 53 210H43C41.3431 210 40 208.657 40 207Z" fill="#ADAAB4"/>
<circle cx="44" cy="148" r="4" fill="#C9C5D0"/>
<circle cx="56" cy="148" r="4" fill="#C9C5D0"/>
<circle cx="68" cy="148" r="4" fill="#E5E1EC"/>
<rect x="83" y="52" width="90" height="180" rx="16" fill="url(#paint0_linear_3406_135138)"/>
<path d="M91 62V207C91 215.284 97.7157 222 106 222H110M165 62V94M165 172V144.5" stroke="#E6DEFF" stroke-linecap="round"/>
<path d="M105.5 52H150.5V56.5C150.5 60.6421 147.142 64 143 64H113C108.858 64 105.5 60.6421 105.5 56.5V52Z" fill="#2D009D"/>
<circle cx="128" cy="213.25" r="9.375" stroke="#FFF480" stroke-width="3.75"/>
<rect x="102.5" y="110.5" width="107" height="25" rx="7.5" fill="#5D34F2" fill-opacity="0.16"/>
<rect x="118" y="119" width="8" height="8" rx="2" fill="#E6DEFF"/>
<rect x="132" y="119" width="8" height="8" rx="2" fill="#E6DEFF"/>
<rect x="146" y="119" width="8" height="8" rx="2" fill="#E6DEFF"/>
<rect x="160" y="119" width="8" height="8" rx="2" fill="#E6DEFF"/>
<rect x="174" y="119" width="8" height="8" rx="2" fill="#7958FF"/>
<rect x="188" y="119" width="8" height="8" rx="2" fill="#7958FF"/>
<rect x="102.5" y="110.5" width="107" height="25" rx="7.5" stroke="white"/>
<path d="M192 232C194.213 232 196.385 231.82 198.5 231.475C200.205 231.196 201.874 230.809 203.5 230.322M181 153.532C184.495 152.534 188.185 152 192 152C214.091 152 232 169.909 232 192C232 197.496 230.892 202.733 228.886 207.5C227.768 210.158 226.37 212.671 224.73 215C223.598 216.608 222.351 218.129 221 219.55C220.014 220.588 218.973 221.573 217.881 222.5C216.649 223.546 215.353 224.519 214 225.412M158.923 169.5C157.945 170.936 157.057 172.439 156.269 174C153.538 179.41 152 185.526 152 192C152 201.87 155.575 210.905 161.5 217.881C163.158 219.833 165 221.624 167 223.227" stroke="black" stroke-linecap="round"/>
<circle opacity="0.2" cx="192" cy="192" r="30" fill="#E5E5E5"/>
<path fill-rule="evenodd" clip-rule="evenodd" d="M192 162V192H162C162 175.431 175.431 162 192 162Z" fill="#FF897A"/>
<path fill-rule="evenodd" clip-rule="evenodd" d="M192 222V192H222C222 208.569 208.569 222 192 222Z" fill="#947DFF"/>
<path fill-rule="evenodd" clip-rule="evenodd" d="M192 162V192H222C222 175.431 208.569 162 192 162Z" fill="#FFB95A"/>
<path fill-rule="evenodd" clip-rule="evenodd" d="M192 222V192H162C162 208.569 175.431 222 192 222Z" fill="#83DA85"/>
<rect x="116" y="76" width="24" height="24" rx="8" fill="#F4E560"/>
<circle cx="128" cy="83" r="4" fill="#F07EFF"/>
<path d="M122 92C122 89.7909 123.791 88 126 88H130C132.209 88 134 89.7909 134 92V96H122V92Z" fill="#2D009D"/>
<rect x="32.0156" y="38.7031" width="8" height="8" transform="rotate(24.4506 32.0156 38.7031)" fill="#FFD5FF"/>
<rect x="91.3594" y="24.5709" width="8" height="8" transform="rotate(-40.65 91.3594 24.5709)" fill="#C4C4C4"/>
<rect x="220.613" y="89.5156" width="8" height="8" transform="rotate(30.813 220.613 89.5156)" fill="#F4E560"/>
<path fill-rule="evenodd" clip-rule="evenodd" d="M212.957 21.1043C212.957 21.0467 213.004 21 213.062 21H214.939C214.997 21 215.043 21.0467 215.043 21.1043V24.4086L217.905 22.7565C217.955 22.7277 218.019 22.7448 218.047 22.7947L218.986 24.4207C219.015 24.4706 218.998 24.5343 218.948 24.5632L216.086 26.2154L218.948 27.8675C218.998 27.8963 219.015 27.9601 218.986 28.01L218.047 29.636C218.018 29.6859 217.955 29.703 217.905 29.6742L215.043 28.0222V31.3264C215.043 31.384 214.997 31.4307 214.939 31.4307H213.062C213.004 31.4307 212.957 31.384 212.957 31.3264V28.0219L210.095 29.6742C210.046 29.703 209.982 29.6859 209.953 29.636L209.014 28.01C208.985 27.9601 209.002 27.8963 209.052 27.8675L211.914 26.2154L209.052 24.5632C209.002 24.5343 208.985 24.4706 209.014 24.4207L209.953 22.7947C209.982 22.7448 210.045 22.7277 210.095 22.7565L212.957 24.4089V21.1043Z" fill="#E5E1EC"/>
<path d="M198.969 48.912C199.026 48.8892 199.086 48.9369 199.078 48.9979L197.784 57.8645C197.776 57.9255 197.704 57.954 197.656 57.9158L190.623 52.3626C190.575 52.3245 190.586 52.2483 190.643 52.2255L198.969 48.912Z" fill="#68BE6C"/>
<path d="M24.1641 96.3035L26.0188 98.4388C27.0432 99.6182 28.8297 99.7438 30.009 98.7194V98.7194C31.1883 97.695 32.9748 97.8207 33.9991 99V99C35.0235 100.179 36.81 100.305 37.9893 99.2806V99.2806C39.1686 98.2562 40.9551 98.3818 41.9794 99.5612L43.8342 101.697" stroke="#CABEFF" stroke-width="2" stroke-linecap="round" stroke-linejoin="round"/>
<path d="M60.7969 59.7954L61.8084 62.4368C62.367 63.8956 64.0025 64.6253 65.4612 64.0667V64.0667C66.92 63.508 68.5555 64.2378 69.1141 65.6965V65.6965C69.6728 67.1553 71.3082 67.8851 72.767 67.3264V67.3264C74.2258 66.7678 75.8612 67.4975 76.4199 68.9563L77.4314 71.5977" stroke="#AF9EFF" stroke-width="2" stroke-linecap="round" stroke-linejoin="round"/>
<path d="M217.85 71.567L220.53 72.4716C222.01 72.9712 223.615 72.1764 224.115 70.6964V70.6964C224.614 69.2164 226.219 68.4216 227.699 68.9212V68.9212C229.179 69.4208 230.784 68.626 231.284 67.1459L232.188 64.4661" stroke="#FFD5FF" stroke-width="2" stroke-linecap="round" stroke-linejoin="round"/>
<path d="M71.5964 34.3086L72.1129 31.5277C72.3982 29.9919 71.3844 28.5156 69.8486 28.2303V28.2303C68.3127 27.9451 67.2989 26.4688 67.5842 24.933V24.933C67.8694 23.3971 66.8557 21.9208 65.3198 21.6356L62.539 21.1191" stroke="#FFF06A" stroke-width="2" stroke-linecap="round" stroke-linejoin="round"/>
<defs>
<linearGradient id="paint0_linear_3406_135138" x1="57.5" y1="169" x2="182.122" y2="136.815" gradientUnits="userSpaceOnUse">
<stop stop-color="#492EF3"/>
<stop offset="1" stop-color="#CF69FF"/>
</linearGradient>
</defs>
</svg>
