<svg width="20" height="20" viewBox="0 0 20 20" fill="none" xmlns="http://www.w3.org/2000/svg"><path d="m10.492 10.833-1.917 1.909a.833.833 0 0 0 0 1.183.833.833 0 0 0 1.183 0l3.334-3.333a.832.832 0 0 0 .175-.275.833.833 0 0 0 0-.634.832.832 0 0 0-.175-.275L9.758 6.075a.837.837 0 0 0-1.183 1.183l1.917 1.909H2.5a.833.833 0 0 0 0 1.666h7.992ZM10 1.667a8.333 8.333 0 0 0-7.5 4.625.839.839 0 0 0 1.5.75 6.667 6.667 0 1 1 6 9.625 6.608 6.608 0 0 1-5.967-3.709.838.838 0 1 0-1.5.75A8.334 8.334 0 1 0 10 1.667Z" fill="currentColor"/></svg>