<svg width="256" height="256" viewBox="0 0 256 256" fill="none" xmlns="http://www.w3.org/2000/svg">
<rect x="24" y="136" width="128" height="96" rx="12" fill="#F7F8F8"/>
<rect x="24" y="136" width="128" height="96" rx="12" fill="#78767F" fill-opacity="0.02"/>
<rect x="24" y="136" width="128" height="96" rx="12" fill="#5D34F2" fill-opacity="0.08"/>
<path d="M24 148C24 141.373 29.3726 136 36 136H140C146.627 136 152 141.373 152 148V152H24V148Z" fill="#AF9EFF"/>
<path d="M40 179C40 177.343 41.3431 176 43 176H85C86.6569 176 88 177.343 88 179C88 180.657 86.6569 182 85 182H43C41.3431 182 40 180.657 40 179Z" fill="#CABEFF"/>
<path d="M40 193C40 191.343 41.3431 190 43 190H117C118.657 190 120 191.343 120 193C120 194.657 118.657 196 117 196H43C41.3431 196 40 194.657 40 193Z" fill="#CABEFF"/>
<path d="M40 207C40 205.343 41.3431 204 43 204H53C54.6569 204 56 205.343 56 207C56 208.657 54.6569 210 53 210H43C41.3431 210 40 208.657 40 207Z" fill="#CABEFF"/>
<circle cx="39" cy="144" r="3" fill="#FA9F94"/>
<circle cx="49" cy="144" r="3" fill="#FDCF90"/>
<circle cx="59" cy="144" r="3" fill="#E6DEFF"/>
<rect x="85" y="54" width="86" height="176" rx="14" fill="#CABEFF" stroke="#7958FF" stroke-width="4"/>
<path d="M91 82V207C91 215.284 97.7157 222 106 222H110M165 62V94M165 172V144.5" stroke="#CBBEF3" stroke-linecap="round"/>
<path d="M110.5 56H146.5V58C146.5 61.3137 143.814 64 140.5 64H116.5C113.186 64 110.5 61.3137 110.5 58V56Z" fill="#7958FF"/>
<circle cx="128" cy="212" r="8.125" stroke="#E6DEFF" stroke-width="3.75"/>
<rect x="118" y="119" width="8" height="8" rx="2" fill="#F5EEFF"/>
<rect x="132" y="119" width="8" height="8" rx="2" fill="#F5EEFF"/>
<rect x="146" y="119" width="8" height="8" rx="2" fill="#F5EEFF"/>
<rect x="160" y="119" width="8" height="8" rx="2" fill="#F5EEFF"/>
<rect x="174" y="119" width="8" height="8" rx="2" fill="#947DFF"/>
<rect x="188" y="119" width="8" height="8" rx="2" fill="#947DFF"/>
<rect x="102.5" y="110.5" width="107" height="25" rx="7.5" fill="#5D34F2" fill-opacity="0.16" stroke="#D4C4FF"/>
<rect x="116" y="76" width="24" height="24" rx="8" fill="#FBF9FF"/>
<circle cx="128" cy="83" r="4" fill="#FDCF90"/>
<path d="M122 92C122 89.7909 123.791 88 126 88H130C132.209 88 134 89.7909 134 92V94C134 95.1046 133.105 96 132 96H124C122.895 96 122 95.1046 122 94V92Z" fill="#7958FF"/>
<path d="M192 232C194.213 232 196.385 231.82 198.5 231.475C200.205 231.196 201.874 230.809 203.5 230.322M181 153.532C184.495 152.534 188.185 152 192 152C214.091 152 232 169.909 232 192C232 197.496 230.892 202.733 228.886 207.5C227.768 210.158 226.37 212.671 224.73 215C223.598 216.608 222.351 218.129 221 219.55C220.014 220.588 218.973 221.573 217.881 222.5C216.649 223.546 215.353 224.519 214 225.412M158.923 169.5C157.945 170.936 157.057 172.439 156.269 174C153.538 179.41 152 185.526 152 192C152 201.87 155.575 210.905 161.5 217.881C163.158 219.833 165 221.624 167 223.227" stroke="#AF9EFF" stroke-linecap="round"/>
<circle opacity="0.2" cx="192" cy="192" r="30" fill="#E5E5E5"/>
<path fill-rule="evenodd" clip-rule="evenodd" d="M192 162V192H162C162 175.431 175.431 162 192 162Z" fill="#FDCF90"/>
<path fill-rule="evenodd" clip-rule="evenodd" d="M192 222V192H222C222 208.569 208.569 222 192 222Z" fill="#947DFF"/>
<path fill-rule="evenodd" clip-rule="evenodd" d="M192 162V192H222C222 175.431 208.569 162 192 162Z" fill="#CABEFF"/>
<path fill-rule="evenodd" clip-rule="evenodd" d="M192 222V192H162C162 208.569 175.431 222 192 222Z" fill="#E6DEFF"/>
<rect x="111.359" y="17.5708" width="8" height="8" rx="2" transform="rotate(-40.65 111.359 17.5708)" fill="#E4E4E4"/>
<rect x="220.613" y="89.5156" width="8" height="8" rx="2" transform="rotate(30.813 220.613 89.5156)" fill="#E6DEFF"/>
<path fill-rule="evenodd" clip-rule="evenodd" d="M212.957 21.1043C212.957 21.0467 213.004 21 213.062 21H214.939C214.997 21 215.043 21.0467 215.043 21.1043V24.4086L217.905 22.7565C217.955 22.7277 218.019 22.7448 218.047 22.7947L218.986 24.4207C219.015 24.4705 218.998 24.5343 218.948 24.5631L216.086 26.2154L218.948 27.8675C218.998 27.8963 219.015 27.9601 218.986 28.01L218.047 29.636C218.018 29.6859 217.955 29.703 217.905 29.6742L215.043 28.0221V31.3264C215.043 31.384 214.997 31.4307 214.939 31.4307H213.062C213.004 31.4307 212.957 31.384 212.957 31.3264V28.0219L210.095 29.6742C210.045 29.703 209.982 29.6859 209.953 29.636L209.014 28.01C208.985 27.9601 209.002 27.8963 209.052 27.8675L211.914 26.2154L209.052 24.5631C209.002 24.5343 208.985 24.4705 209.014 24.4207L209.953 22.7947C209.982 22.7448 210.045 22.7277 210.095 22.7565L212.957 24.4088V21.1043Z" fill="#E5E1EC"/>
<path d="M35.7461 83.0107L36.7294 85.6627C37.2725 87.1274 38.9001 87.8745 40.3647 87.3314V87.3314C41.8294 86.7883 43.457 87.5354 44.0001 89.0001V89.0001C44.5431 90.4647 46.1707 91.2118 47.6354 90.6687V90.6687C49.1 90.1257 50.7276 90.8727 51.2707 92.3374L52.254 94.9894" stroke="#E4E1E9" stroke-width="2" stroke-linecap="round" stroke-linejoin="round"/>
<path d="M205.424 72.4583L208.253 72.4916C209.815 72.51 211.096 71.2586 211.114 69.6966V69.6966C211.132 68.1347 212.414 66.8833 213.976 66.9017V66.9017C215.538 66.9201 216.819 65.6687 216.837 64.1067L216.87 61.2785" stroke="#C1AEF6" stroke-width="2" stroke-linecap="round" stroke-linejoin="round"/>
<path d="M71.5962 34.3083L72.1127 31.5274C72.3979 29.9916 71.3841 28.5153 69.8483 28.2301V28.2301C68.3125 27.9448 67.2987 26.4685 67.5839 24.9327V24.9327C67.8692 23.3969 66.8554 21.9206 65.3196 21.6353L62.5387 21.1188" stroke="#E5DFFD" stroke-width="2" stroke-linecap="round" stroke-linejoin="round"/>
<rect x="107" y="144" width="42" height="6" rx="3" fill="#947DFF"/>
<rect x="107" y="158" width="24" height="6" rx="3" fill="#947DFF"/>
</svg>
