    <svg
      width="20"
      height="20"
      viewBox="0 0 20 20"
      fill="none"
      xmlns="http://www.w3.org/2000/svg"
      
    >
      <path
        d="M10.4917 10.8333L8.57508 12.7416C8.49697 12.8191 8.43498 12.9112 8.39267 13.0128C8.35037 13.1143 8.32858 13.2232 8.32858 13.3333C8.32858 13.4433 8.35037 13.5522 8.39267 13.6537C8.43498 13.7553 8.49697 13.8475 8.57508 13.9249C8.65255 14.003 8.74472 14.065 8.84627 14.1073C8.94782 14.1496 9.05674 14.1714 9.16675 14.1714C9.27676 14.1714 9.38568 14.1496 9.48723 14.1073C9.58878 14.065 9.68095 14.003 9.75842 13.9249L13.0917 10.5916C13.1676 10.5123 13.2271 10.4189 13.2667 10.3166C13.3501 10.1137 13.3501 9.88614 13.2667 9.68325C13.2271 9.58096 13.1676 9.48751 13.0917 9.40825L9.75842 6.07492C9.68072 5.99722 9.58847 5.93559 9.48696 5.89354C9.38544 5.85149 9.27663 5.82984 9.16675 5.82984C9.05687 5.82984 8.94806 5.85149 8.84654 5.89354C8.74502 5.93559 8.65278 5.99722 8.57508 6.07492C8.49738 6.15262 8.43575 6.24486 8.3937 6.34638C8.35165 6.4479 8.33001 6.5567 8.33001 6.66659C8.33001 6.77647 8.35165 6.88528 8.3937 6.9868C8.43575 7.08831 8.49738 7.18056 8.57508 7.25825L10.4917 9.16659H2.50008C2.27907 9.16659 2.06711 9.25439 1.91083 9.41067C1.75455 9.56695 1.66675 9.77891 1.66675 9.99992C1.66675 10.2209 1.75455 10.4329 1.91083 10.5892C2.06711 10.7455 2.27907 10.8333 2.50008 10.8333H10.4917ZM10.0001 1.66659C8.44266 1.65963 6.91445 2.08926 5.5888 2.90675C4.26316 3.72423 3.19313 4.89685 2.50008 6.29159C2.40063 6.4905 2.38426 6.72077 2.45459 6.93175C2.52491 7.14273 2.67617 7.31713 2.87508 7.41659C3.07399 7.51604 3.30427 7.53241 3.51525 7.46208C3.72622 7.39176 3.90063 7.2405 4.00008 7.04159C4.52691 5.97769 5.32828 5.07377 6.32137 4.42324C7.31447 3.77272 8.46327 3.39919 9.64904 3.34125C10.8348 3.28331 12.0146 3.54307 13.0663 4.09368C14.1181 4.64429 15.0038 5.46578 15.6318 6.47325C16.2599 7.48072 16.6075 8.63763 16.6387 9.82441C16.67 11.0112 16.3838 12.1848 15.8097 13.2239C15.2356 14.2631 14.3944 15.13 13.373 15.7353C12.3517 16.3405 11.1873 16.662 10.0001 16.6666C8.75748 16.672 7.53854 16.3269 6.48316 15.671C5.42777 15.015 4.57871 14.0748 4.03341 12.9583C3.93396 12.7593 3.75956 12.6081 3.54858 12.5378C3.3376 12.4674 3.10733 12.4838 2.90841 12.5833C2.7095 12.6827 2.55825 12.8571 2.48792 13.0681C2.41759 13.2791 2.43396 13.5093 2.53341 13.7083C3.1941 15.0378 4.19802 16.1668 5.44131 16.9783C6.6846 17.7898 8.12212 18.2544 9.60518 18.3241C11.0882 18.3937 12.563 18.0659 13.8769 17.3745C15.1908 16.6831 16.2961 15.6532 17.0785 14.3914C17.8609 13.1296 18.292 11.6817 18.3272 10.1974C18.3624 8.71314 18.0004 7.24641 17.2786 5.94895C16.5569 4.65148 15.5016 3.57039 14.222 2.81751C12.9423 2.06462 11.4848 1.66728 10.0001 1.66659Z"
        fill="currentColor"
      />
    </svg>
