<svg width="256" height="256" viewBox="0 0 256 256" fill="none" xmlns="http://www.w3.org/2000/svg">
<rect x="24" y="136" width="128" height="96" rx="16" fill="#5B5F81"/>
<rect x="24" y="136" width="128" height="96" rx="12" fill="#47464E"/>
<path d="M24 152C24 143.163 31.1634 136 40 136H136C144.837 136 152 143.163 152 152V156H24V152Z" fill="#5F5D67"/>
<path d="M40 179C40 177.343 41.3431 176 43 176H85C86.6569 176 88 177.343 88 179C88 180.657 86.6569 182 85 182H43C41.3431 182 40 180.657 40 179Z" fill="#F7F8F8" fill-opacity="0.12"/>
<path d="M40 193C40 191.343 41.3431 190 43 190H117C118.657 190 120 191.343 120 193C120 194.657 118.657 196 117 196H43C41.3431 196 40 194.657 40 193Z" fill="#F7F8F8" fill-opacity="0.12"/>
<path d="M40 207C40 205.343 41.3431 204 43 204H53C54.6569 204 56 205.343 56 207C56 208.657 54.6569 210 53 210H43C41.3431 210 40 208.657 40 207Z" fill="#F7F8F8" fill-opacity="0.12"/>
<circle cx="39" cy="146" r="3" fill="#FA9F94"/>
<circle cx="49" cy="146" r="3" fill="#FDCF90"/>
<circle cx="59" cy="146" r="3" fill="#E5E1EC"/>
<rect x="85" y="54" width="86" height="176" rx="14" fill="#C1B2EA" stroke="#7958FF" stroke-width="4"/>
<path d="M91 72V207C91 215.284 97.7157 222 106 222H110M165 69V94M165 172V144.5" stroke="#AA9BD9" stroke-linecap="round"/>
<path d="M110.5 56H146.5V58C146.5 61.3137 143.814 64 140.5 64H116.5C113.186 64 110.5 61.3137 110.5 58V56Z" fill="#7958FF"/>
<circle cx="128" cy="212" r="8.125" stroke="#F0EBFF" stroke-width="3.75"/>
<rect x="102.5" y="110.5" width="107" height="25" rx="7.5" fill="#5D34F2" fill-opacity="0.16"/>
<rect x="118" y="119" width="8" height="8" rx="2" fill="#E6DEFF"/>
<rect x="132" y="119" width="8" height="8" rx="2" fill="#E6DEFF"/>
<rect x="146" y="119" width="8" height="8" rx="2" fill="#E6DEFF"/>
<rect x="160" y="119" width="8" height="8" rx="2" fill="#E6DEFF"/>
<rect x="174" y="119" width="8" height="8" rx="2" fill="#947DFF"/>
<rect x="188" y="119" width="8" height="8" rx="2" fill="#947DFF"/>
<rect x="102.5" y="110.5" width="107" height="25" rx="7.5" stroke="#CBBBF4"/>
<path d="M192 232C194.213 232 196.385 231.82 198.5 231.475C200.205 231.196 201.874 230.809 203.5 230.322M181 153.532C184.495 152.534 188.185 152 192 152C214.091 152 232 169.909 232 192C232 197.496 230.892 202.733 228.886 207.5C227.768 210.158 226.37 212.671 224.73 215C223.598 216.608 222.351 218.129 221 219.55C220.014 220.588 218.973 221.573 217.881 222.5C216.649 223.546 215.353 224.519 214 225.412M158.923 169.5C157.945 170.936 157.057 172.439 156.269 174C153.538 179.41 152 185.526 152 192C152 201.87 155.575 210.905 161.5 217.881C163.158 219.833 165 221.624 167 223.227" stroke="#AF9EFF" stroke-linecap="round"/>
<circle opacity="0.2" cx="192" cy="192" r="30" fill="#E5E5E5"/>
<path fill-rule="evenodd" clip-rule="evenodd" d="M192 162V192H162C162 175.431 175.431 162 192 162Z" fill="#FA9F94"/>
<path fill-rule="evenodd" clip-rule="evenodd" d="M192 222V192H222C222 208.569 208.569 222 192 222Z" fill="#BE9FF3"/>
<path fill-rule="evenodd" clip-rule="evenodd" d="M192 162V192H222C222 175.431 208.569 162 192 162Z" fill="#FDCF90"/>
<path fill-rule="evenodd" clip-rule="evenodd" d="M192 222V192H162C162 208.569 175.431 222 192 222Z" fill="#FCCCF1"/>
<rect x="116" y="76" width="24" height="24" rx="8" fill="#F0EBFF"/>
<circle cx="128" cy="83" r="4" fill="#F2CE41"/>
<path d="M122 92C122 89.7909 123.791 88 126 88H130C132.209 88 134 89.7909 134 92V94C134 95.1046 133.105 96 132 96H124C122.895 96 122 95.1046 122 94V92Z" fill="#7958FF"/>
<rect x="107" y="144" width="42" height="4" rx="2" fill="#AF9FDB"/>
<rect x="107" y="152" width="24" height="4" rx="2" fill="#AF9FDB"/>
<rect x="111.359" y="17.5742" width="8" height="8" rx="2" transform="rotate(-40.65 111.359 17.5742)" fill="#928F9A"/>
<rect x="220.613" y="89.5166" width="8" height="8" rx="2" transform="rotate(30.813 220.613 89.5166)" fill="#928F9A"/>
<path fill-rule="evenodd" clip-rule="evenodd" d="M212.957 21.1053C212.957 21.0477 213.003 21.001 213.061 21.001H214.939C214.996 21.001 215.043 21.0477 215.043 21.1053V24.4096L217.904 22.7575C217.954 22.7287 218.018 22.7458 218.047 22.7956L218.986 24.4216C219.014 24.4715 218.997 24.5353 218.947 24.5641L216.086 26.2163L218.947 27.8685C218.997 27.8973 219.014 27.9611 218.986 28.011L218.047 29.637C218.018 29.6869 217.954 29.704 217.904 29.6752L215.043 28.0231V31.3274C215.043 31.385 214.996 31.4317 214.939 31.4317H213.061C213.003 31.4317 212.957 31.385 212.957 31.3274V28.0229L210.095 29.6752C210.045 29.704 209.981 29.6869 209.952 29.637L209.014 28.011C208.985 27.9611 209.002 27.8973 209.052 27.8685L211.913 26.2163L209.052 24.5641C209.002 24.5353 208.985 24.4715 209.014 24.4216L209.952 22.7956C209.981 22.7458 210.045 22.7287 210.095 22.7575L212.957 24.4098V21.1053Z" fill="#928F9A"/>
<path d="M21.7456 93.0117L22.7289 95.6637C23.272 97.1284 24.8996 97.8755 26.3643 97.3324V97.3324C27.8289 96.7893 29.4565 97.5364 29.9996 99.001V99.001C30.5427 100.466 32.1702 101.213 33.6349 100.67V100.67C35.0996 100.127 36.7271 100.874 37.2702 102.338L38.2535 104.99" stroke="#928F9A" stroke-width="2" stroke-linecap="round" stroke-linejoin="round"/>
<path d="M205.424 72.4588L208.252 72.4921C209.814 72.5105 211.095 71.2591 211.114 69.6971V69.6971C211.132 68.1351 212.413 66.8838 213.975 66.9022V66.9022C215.537 66.9206 216.818 65.6692 216.837 64.1072L216.87 61.279" stroke="#928F9A" stroke-width="2" stroke-linecap="round" stroke-linejoin="round"/>
<path d="M71.5957 34.3093L72.1122 31.5284C72.3975 29.9926 71.3837 28.5163 69.8478 28.2311V28.2311C68.312 27.9458 67.2982 26.4695 67.5835 24.9337V24.9337C67.8687 23.3979 66.8549 21.9216 65.3191 21.6363L62.5382 21.1198" stroke="#5C5F60" stroke-width="2" stroke-linecap="round" stroke-linejoin="round"/>
</svg>
