<svg width="40" height="40" viewBox="0 0 40 40" fill="none" xmlns="http://www.w3.org/2000/svg">
<rect width="40" height="40" rx="8" fill="#3A3B59"/>
<path d="M28.5 12C28.5 14.1483 28.0635 16.0686 27.3812 17.4332C26.6839 18.8278 25.8132 19.5 25 19.5C24.1868 19.5 23.3161 18.8278 22.6188 17.4332C21.9365 16.0686 21.5 14.1483 21.5 12C21.5 9.85165 21.9365 7.93141 22.6188 6.56675C23.3161 5.17219 24.1868 4.5 25 4.5C25.8132 4.5 26.6839 5.17219 27.3812 6.56675C28.0635 7.93141 28.5 9.85165 28.5 12Z" stroke="#9D85FD" stroke-miterlimit="16" stroke-linecap="round"/>
<path d="M26.75 8.96892C28.6105 10.0431 30.0553 11.3812 30.8959 12.6544C31.755 13.9556 31.9017 15.0458 31.4952 15.75C31.0886 16.4542 30.0711 16.8722 28.5147 16.7788C26.9917 16.6874 25.1105 16.1053 23.25 15.0311C21.3895 13.9569 19.9447 12.6188 19.104 11.3456C18.245 10.0444 18.0982 8.95422 18.5048 8.25001C18.9114 7.5458 19.9289 7.12778 21.4853 7.22119C23.0082 7.31261 24.8895 7.89475 26.75 8.96892Z" stroke="#9D85FD" stroke-miterlimit="16" stroke-linecap="round"/>
<path d="M23.25 8.96892C21.3895 10.0431 19.9447 11.3812 19.1041 12.6544C18.245 13.9556 18.0983 15.0458 18.5048 15.75C18.9114 16.4542 19.9289 16.8722 21.4853 16.7788C23.0083 16.6874 24.8895 16.1053 26.75 15.0311C28.6105 13.9569 30.0553 12.6188 30.896 11.3456C31.755 10.0444 31.9018 8.95422 31.4952 8.25001C31.0886 7.5458 30.0711 7.12778 28.5147 7.22119C26.9918 7.31261 25.1105 7.89475 23.25 8.96892Z" stroke="#9C85FD" stroke-miterlimit="16" stroke-linecap="round"/>
<circle cx="25" cy="12" r="1" fill="#FAABFF"/>
<path d="M4.77773 17.7408L9.68377 16.1054C9.88904 16.037 10.111 16.037 10.3162 16.1054L15.2223 17.7408C15.6745 17.8915 15.9574 18.3405 15.8983 18.8135L15.0732 25.4146C15.028 25.7758 14.7902 26.0839 14.4523 26.2191L10.3714 27.8514C10.133 27.9468 9.86702 27.9468 9.62861 27.8514L5.54772 26.2191C5.20978 26.0839 4.97198 25.7758 4.92683 25.4146L4.10168 18.8135C4.04256 18.3405 4.32551 17.8915 4.77773 17.7408Z" fill="url(#paint0_linear_1091_20314)"/>
<path d="M11.5817 25H13L10.782 19H9.21355L7 25H8.36966L8.85567 23.5447H11.0957L11.5817 25ZM9.96024 20.1476H9.99116L10.8085 22.605H9.14286L9.96024 20.1476Z" fill="#F5EEFF"/>
<path d="M18.4952 22.7704L26.5794 35.3457C26.7762 35.6519 27.2238 35.6519 27.4206 35.3457L35.5048 22.7704C35.7187 22.4376 35.4797 22 35.0842 22H29.2676C29.1004 22 28.9443 22.0836 28.8516 22.2226L27 25L25.1484 22.2226C25.0557 22.0836 24.8996 22 24.7324 22H18.9158C18.5202 22 18.2813 22.4376 18.4952 22.7704Z" fill="url(#paint1_linear_1091_20314)"/>
<mask id="mask0_1091_20314" style="mask-type:alpha" maskUnits="userSpaceOnUse" x="18" y="22" width="18" height="14">
<path opacity="0.7" d="M18.4952 22.7704L26.5794 35.3457C26.7762 35.6519 27.2238 35.6519 27.4206 35.3457L35.5048 22.7704C35.7187 22.4376 35.4797 22 35.0842 22H29.2676C29.1004 22 28.9443 22.0836 28.8516 22.2226L27 25L25.1484 22.2226C25.0557 22.0836 24.8996 22 24.7324 22H18.9158C18.5202 22 18.2813 22.4376 18.4952 22.7704Z" fill="#7958FF"/>
</mask>
<g mask="url(#mask0_1091_20314)">
<path d="M22 22L26.576 29.3216C26.7718 29.6349 27.2282 29.6349 27.424 29.3216L32 22H22Z" fill="#4300DA"/>
</g>
<defs>
<linearGradient id="paint0_linear_1091_20314" x1="1" y1="24" x2="16.9429" y2="21.125" gradientUnits="userSpaceOnUse">
<stop stop-color="#FFF06A"/>
<stop offset="1" stop-color="#EC78FF"/>
</linearGradient>
<linearGradient id="paint1_linear_1091_20314" x1="16.5214" y1="30.0208" x2="34.3627" y2="21.5511" gradientUnits="userSpaceOnUse">
<stop stop-color="#492EF3"/>
<stop offset="1" stop-color="#CF69FF"/>
</linearGradient>
</defs>
</svg>
