<svg width="40" height="40" viewBox="0 0 40 40" fill="none" xmlns="http://www.w3.org/2000/svg">
<path d="M0 8C0 3.58172 3.58172 0 8 0H32C36.4183 0 40 3.58172 40 8V32C40 36.4183 36.4183 40 32 40H8C3.58172 40 0 36.4183 0 32V8Z" fill="#F3EFFA"/>
<path d="M28.5 12C28.5 14.1483 28.0635 16.0686 27.3812 17.4332C26.6839 18.8278 25.8132 19.5 25 19.5C24.1868 19.5 23.3161 18.8278 22.6188 17.4332C21.9365 16.0686 21.5 14.1483 21.5 12C21.5 9.85165 21.9365 7.93141 22.6188 6.56675C23.3161 5.17219 24.1868 4.5 25 4.5C25.8132 4.5 26.6839 5.17219 27.3812 6.56675C28.0635 7.93141 28.5 9.85165 28.5 12Z" stroke="#7958FF" stroke-miterlimit="16" stroke-linecap="round"/>
<path d="M26.7505 8.96892C28.611 10.0431 30.0557 11.3812 30.8964 12.6544C31.7555 13.9556 31.9022 15.0458 31.4957 15.75C31.0891 16.4542 30.0716 16.8722 28.5152 16.7788C26.9922 16.6874 25.111 16.1053 23.2505 15.0311C21.3899 13.9569 19.9452 12.6188 19.1045 11.3456C18.2454 10.0444 18.0987 8.95422 18.5053 8.25001C18.9119 7.5458 19.9294 7.12778 21.4857 7.22119C23.0087 7.31261 24.8899 7.89475 26.7505 8.96892Z" stroke="#7958FF" stroke-miterlimit="16" stroke-linecap="round"/>
<path d="M23.2515 8.96892C21.391 10.0431 19.9462 11.3812 19.1055 12.6544C18.2465 13.9556 18.0997 15.0458 18.5063 15.75C18.9129 16.4542 19.9304 16.8722 21.4868 16.7788C23.0098 16.6874 24.891 16.1053 26.7515 15.0311C28.612 13.9569 30.0568 12.6188 30.8974 11.3456C31.7565 10.0444 31.9033 8.95422 31.4967 8.25001C31.0901 7.5458 30.0726 7.12778 28.5162 7.22119C26.9932 7.31261 25.112 7.89475 23.2515 8.96892Z" stroke="#7958FF" stroke-miterlimit="16" stroke-linecap="round"/>
<circle cx="25" cy="12" r="1" fill="#F07EFF"/>
<path d="M4.77773 17.7408L9.68377 16.1054C9.88904 16.037 10.111 16.037 10.3162 16.1054L15.2223 17.7408C15.6745 17.8915 15.9574 18.3405 15.8983 18.8135L15.0732 25.4146C15.028 25.7758 14.7902 26.0839 14.4523 26.2191L10.3714 27.8514C10.133 27.9468 9.86702 27.9468 9.62861 27.8514L5.54772 26.2191C5.20978 26.0839 4.97198 25.7758 4.92683 25.4146L4.10168 18.8135C4.04256 18.3405 4.32551 17.8915 4.77773 17.7408Z" fill="url(#paint0_linear_1436_37927)"/>
<path d="M11.5817 25H13L10.782 19H9.21355L7 25H8.36966L8.85567 23.5447H11.0957L11.5817 25ZM9.96024 20.1476H9.99116L10.8085 22.605H9.14286L9.96024 20.1476Z" fill="#F5EEFF"/>
<path d="M18.4952 22.7704L26.5794 35.3457C26.7762 35.6519 27.2238 35.6519 27.4206 35.3457L35.5048 22.7704C35.7187 22.4376 35.4797 22 35.0842 22H29.2676C29.1004 22 28.9443 22.0836 28.8516 22.2226L27 25L25.1484 22.2226C25.0557 22.0836 24.8996 22 24.7324 22H18.9158C18.5202 22 18.2813 22.4376 18.4952 22.7704Z" fill="url(#paint1_linear_1436_37927)"/>
<mask id="mask0_1436_37927" style="mask-type:alpha" maskUnits="userSpaceOnUse" x="18" y="22" width="18" height="14">
<path opacity="0.7" d="M18.4952 22.7704L26.5794 35.3457C26.7762 35.6519 27.2238 35.6519 27.4206 35.3457L35.5048 22.7704C35.7187 22.4376 35.4797 22 35.0842 22H29.2676C29.1004 22 28.9443 22.0836 28.8516 22.2226L27 25L25.1484 22.2226C25.0557 22.0836 24.8996 22 24.7324 22H18.9158C18.5202 22 18.2813 22.4376 18.4952 22.7704Z" fill="#7958FF"/>
</mask>
<g mask="url(#mask0_1436_37927)">
<path d="M22 22L26.576 29.3216C26.7718 29.6349 27.2282 29.6349 27.424 29.3216L32 22H22Z" fill="#4300DA"/>
</g>
<defs>
<linearGradient id="paint0_linear_1436_37927" x1="1" y1="24" x2="16.9429" y2="21.125" gradientUnits="userSpaceOnUse">
<stop stop-color="#FFF06A"/>
<stop offset="1" stop-color="#EC78FF"/>
</linearGradient>
<linearGradient id="paint1_linear_1436_37927" x1="16.5214" y1="30.0208" x2="34.3627" y2="21.5511" gradientUnits="userSpaceOnUse">
<stop stop-color="#492EF3"/>
<stop offset="1" stop-color="#CF69FF"/>
</linearGradient>
</defs>
</svg>
