<svg width="48" height="48" viewBox="0 0 48 48" fill="none" xmlns="http://www.w3.org/2000/svg">
<rect opacity="0.3" width="48" height="48" rx="16" fill="#E0E3E3"/>
<g clip-path="url(#clip0_2372_51885)">
<path fill-rule="evenodd" clip-rule="evenodd" d="M20.4243 17.6484H12.843C11.2728 17.6484 10 18.9212 10 20.4914C10 22.0616 11.2728 23.3344 12.843 23.3344H20.4243C21.9944 23.3344 23.2672 22.0616 23.2672 20.4914C23.2672 18.9212 21.9944 17.6484 20.4243 17.6484Z" fill="#36C5F0"/>
<path fill-rule="evenodd" clip-rule="evenodd" d="M30.85 20.4946V12.9133C30.85 11.3431 29.5772 10.0703 28.007 10.0703C26.4369 10.0703 25.1641 11.3431 25.1641 12.9133V20.4946C25.1641 22.0647 26.4369 23.3376 28.007 23.3376C29.5772 23.3376 30.85 22.0647 30.85 20.4946Z" fill="#2EB67D"/>
<path fill-rule="evenodd" clip-rule="evenodd" d="M28.007 30.9203H35.5883C37.1585 30.9203 38.4313 29.6475 38.4313 28.0774C38.4313 26.5072 37.1585 25.2344 35.5883 25.2344H28.007C26.4369 25.2344 25.1641 26.5072 25.1641 28.0774C25.1641 29.6475 26.4369 30.9203 28.007 30.9203Z" fill="#ECB22E"/>
<path fill-rule="evenodd" clip-rule="evenodd" d="M17.582 28.0774V35.6586C17.582 37.2288 18.8548 38.5016 20.425 38.5016C21.9952 38.5016 23.268 37.2288 23.268 35.6586V28.0774C23.268 26.507 21.9952 25.2344 20.425 25.2344C18.8548 25.2344 17.582 26.5072 17.582 28.0774Z" fill="#E01E5A"/>
<path fill-rule="evenodd" clip-rule="evenodd" d="M20.425 10.0703C18.8548 10.0703 17.582 11.3431 17.582 12.9133C17.582 14.4835 18.8548 15.7563 20.425 15.7563H23.268V12.9133C23.268 11.3431 21.9952 10.0703 20.425 10.0703Z" fill="#36C5F0"/>
<path fill-rule="evenodd" clip-rule="evenodd" d="M38.4321 20.4914C38.4321 18.9212 37.1592 17.6484 35.5891 17.6484C34.0189 17.6484 32.7461 18.9212 32.7461 20.4914V23.3344H35.5891C37.1592 23.3344 38.4321 22.0616 38.4321 20.4914Z" fill="#2EB67D"/>
<path fill-rule="evenodd" clip-rule="evenodd" d="M28.007 38.4985C29.5772 38.4985 30.85 37.2256 30.85 35.6555C30.85 34.0853 29.5772 32.8125 28.007 32.8125H25.1641V35.6555C25.1641 37.2256 26.4369 38.4985 28.007 38.4985Z" fill="#ECB22E"/>
<path fill-rule="evenodd" clip-rule="evenodd" d="M10 28.0774C10 29.6475 11.2728 30.9203 12.843 30.9203C14.4131 30.9203 15.686 29.6475 15.686 28.0774V25.2344H12.843C11.2728 25.2344 10 26.5072 10 28.0774Z" fill="#E01E5A"/>
</g>
<defs>
<clipPath id="clip0_2372_51885">
<rect width="28.5" height="28.5" fill="white" transform="translate(10 10)"/>
</clipPath>
</defs>
</svg>
