<svg width="256" height="256" viewBox="0 0 256 256" fill="none" xmlns="http://www.w3.org/2000/svg">
<path d="M103.585 156H69.0479C49.2043 156 32.3606 170.548 29.4735 190.18L24.5 224H234L233.69 222.987C230.606 212.894 221.291 206 210.738 206H181.652C175.715 206 170.267 202.713 167.498 197.463L165.836 194.31C160.709 184.586 150.62 178.5 139.627 178.5H138.207C133.216 178.5 128.694 175.561 126.667 171C122.613 161.878 113.567 156 103.585 156Z" fill="#5D34F2" fill-opacity="0.12"/>
<path d="M26.5 69.5L63.5 46.5" stroke="#E5E1EC" stroke-width="2"/>
<path d="M114.5 71.5L74.5 46.5" stroke="#E5E1EC" stroke-width="2"/>
<path d="M61 75H30C27.7909 75 26 76.7909 26 79V79C26 81.2091 27.7909 83 30 83H61" stroke="#C9C5D0" stroke-width="2"/>
<path d="M164.5 71.5L74.5 46.5" stroke="#E5E1EC" stroke-width="2"/>
<path d="M84 75C84 73.3431 85.3431 72 87 72H169.597C170.278 72 170.939 72.2318 171.471 72.6574L181.471 80.6574C183.685 82.4289 182.433 86 179.597 86H87C85.3431 86 84 84.6569 84 83V75Z" stroke="#C9C5D0" stroke-width="2"/>
<path d="M45.8184 101.813C45.9196 98.5734 48.5747 96 51.8154 96H88.1846C91.4253 96 94.0804 98.5734 94.1816 101.813L97.8066 217.813C97.9124 221.198 95.1967 224 91.8096 224H48.1904C44.8033 224 42.0876 221.198 42.1934 217.813L45.8184 101.813Z" fill="#947DFF"/>
<mask id="mask0_8614_113852" style="mask-type:alpha" maskUnits="userSpaceOnUse" x="42" y="96" width="56" height="128">
<path d="M45.8184 101.813C45.9196 98.5734 48.5747 96 51.8154 96H88.1846C91.4253 96 94.0804 98.5734 94.1816 101.813L97.8066 217.813C97.9124 221.198 95.1967 224 91.8096 224H48.1904C44.8033 224 42.0876 221.198 42.1934 217.813L45.8184 101.813Z" fill="#3F375A"/>
</mask>
<g mask="url(#mask0_8614_113852)">
<rect x="39.8223" y="130.268" width="72" height="2" transform="rotate(-30 39.8223 130.268)" fill="#AF9EFF"/>
<rect x="34" y="133" width="72" height="2" fill="#AF9EFF"/>
<rect x="34" y="172.732" width="72" height="2" fill="#AF9EFF"/>
<rect x="39.8223" y="170.268" width="72" height="2" transform="rotate(-30 39.8223 170.268)" fill="#AF9EFF"/>
<rect x="39.8223" y="210.268" width="72" height="2" transform="rotate(-30 39.8223 210.268)" fill="#AF9EFF"/>
<rect width="72" height="2" transform="matrix(0.866025 0.5 0.5 -0.866025 39.8223 97.7324)" fill="#AF9EFF"/>
<rect width="72" height="2" transform="matrix(0.866025 0.5 0.5 -0.866025 39.8223 137.732)" fill="#AF9EFF"/>
<rect width="72" height="2" transform="matrix(0.866025 0.5 0.5 -0.866025 39.8223 177.732)" fill="#AF9EFF"/>
<g style="mix-blend-mode:multiply">
<path d="M47.5 93.5H68.5L67.5 224H-1L47.5 93.5Z" fill="#E6DEFF"/>
</g>
</g>
<path d="M62.6943 46.6678C62.8671 44.5946 64.6002 43 66.6805 43H71.3195C73.3998 43 75.1329 44.5946 75.3057 46.6678L78.639 86.6678C78.8333 88.9999 76.993 91 74.6528 91H63.3472C61.007 91 59.1667 88.9999 59.361 86.6678L62.6943 46.6678Z" fill="#947DFF"/>
<rect x="70" y="67" width="24" height="24" rx="6" fill="#CABEFF"/>
<rect x="18" y="67" width="16" height="24" rx="4" fill="#AF9EFF"/>
<path d="M170.001 200.667C171.842 200.667 173.334 202.159 173.334 204C173.334 205.841 171.842 207.334 170.001 207.334H126.667V200.667H170.001Z" fill="#7958FF"/>
<path d="M184 197.333C187.314 197.333 190 200.019 190 203.333V204.666C190 207.98 187.314 210.666 184 210.666H169.333C166.02 210.666 163.333 207.98 163.333 204.666V203.333C163.333 200.019 166.02 197.333 169.333 197.333H184Z" fill="#AF9EFF"/>
<path d="M114 224C122.837 224 130 216.837 130 208V200C130 191.163 122.837 184 114 184H66C57.1634 184 50 191.163 50 200V208C50 216.837 57.1634 224 66 224H114Z" fill="url(#paint0_linear_8614_113852)"/>
<rect x="116.666" y="195" width="4" height="53.3333" rx="2" transform="rotate(90 116.666 195)" fill="#DFAEFF"/>
<rect x="116.666" y="207.333" width="4" height="53.3333" rx="2" transform="rotate(90 116.666 207.333)" fill="#DFAEFF"/>
<circle cx="214" cy="56" r="20" fill="#F5EEFF"/>
<path d="M208 46L224 56L208 66" stroke="#947DFF" stroke-width="2" stroke-linecap="round" stroke-linejoin="round"/>
<circle cx="224" cy="56" r="4" fill="#AF9EFF"/>
<circle cx="208" cy="66" r="4" fill="#AF9EFF"/>
<circle cx="208" cy="46" r="4" fill="#AF9EFF"/>
<circle cx="154" cy="124" r="20" fill="#F5EEFF"/>
<path d="M154 110.996C150.834 110.996 147.771 112.123 145.36 114.175C142.948 116.226 141.346 119.069 140.839 122.194C140.332 125.319 140.953 128.523 142.592 131.232C144.231 133.941 146.78 135.978 149.783 136.979C150.45 137.096 150.7 136.696 150.7 136.346C150.7 136.029 150.683 134.979 150.683 133.863C147.333 134.479 146.467 133.046 146.2 132.296C145.904 131.567 145.435 130.92 144.833 130.413C144.367 130.163 143.7 129.546 144.817 129.529C145.243 129.576 145.652 129.724 146.009 129.962C146.366 130.2 146.66 130.52 146.867 130.896C147.049 131.224 147.294 131.512 147.588 131.745C147.882 131.977 148.219 132.15 148.58 132.252C148.941 132.354 149.318 132.384 149.69 132.34C150.063 132.296 150.423 132.179 150.75 131.996C150.808 131.318 151.11 130.684 151.6 130.213C148.633 129.879 145.533 128.729 145.533 123.629C145.514 122.304 146.003 121.022 146.9 120.046C146.492 118.894 146.54 117.631 147.033 116.513C147.033 116.513 148.15 116.163 150.7 117.879C152.882 117.279 155.185 117.279 157.367 117.879C159.917 116.146 161.033 116.513 161.033 116.513C161.527 117.63 161.574 118.894 161.167 120.046C162.066 121.021 162.555 122.304 162.533 123.629C162.533 128.746 159.417 129.879 156.45 130.213C156.768 130.535 157.013 130.923 157.168 131.348C157.324 131.774 157.386 132.228 157.35 132.679C157.35 134.463 157.333 135.896 157.333 136.346C157.333 136.696 157.583 137.113 158.25 136.979C161.248 135.97 163.79 133.928 165.422 131.217C167.054 128.507 167.669 125.305 167.158 122.183C166.648 119.061 165.044 116.222 162.634 114.173C160.224 112.124 157.163 110.998 154 110.996Z" fill="#AF9EFF"/>
<circle cx="126" cy="24" r="16" fill="#FFEAFE"/>
<path d="M136.666 24.0007C136.666 18.109 131.891 13.334 126 13.334C120.108 13.334 115.333 18.109 115.333 24.0007C115.333 29.3257 119.233 33.7382 124.333 34.5382V27.084H121.625V24.0007H124.333V21.6507C124.333 18.9777 125.925 17.5007 128.362 17.5007C129.529 17.5007 130.75 17.709 130.75 17.709V20.334H129.404C128.079 20.334 127.666 21.1569 127.666 22.0007V24.0007H130.625L130.152 27.084H127.666V34.5382C132.766 33.7382 136.666 29.3257 136.666 24.0007Z" fill="#FAABFF"/>
<path d="M130.152 27.0843L130.625 24.001H127.666V22.001C127.666 21.1572 128.079 20.3343 129.404 20.3343H130.75V17.7093C130.75 17.7093 129.529 17.501 128.362 17.501C125.925 17.501 124.333 18.978 124.333 21.651V24.001H121.625V27.0843H124.333V34.5385C124.877 34.6239 125.433 34.6676 126 34.6676C126.566 34.6676 127.122 34.6239 127.666 34.5385V27.0843H130.152Z" fill="white"/>
<path d="M246 172C246 166.927 244.112 162.296 241 158.77C239.08 156.595 236.695 154.841 234 153.664M212.771 157C211.151 158.429 209.764 160.118 208.676 162C207.78 163.547 207.087 165.226 206.63 167C206.219 168.598 206 170.273 206 172C206 174.275 206.38 176.462 207.08 178.5C207.501 179.724 208.037 180.895 208.676 182C210.491 185.139 213.136 187.738 216.31 189.5C219.181 191.092 222.484 192 226 192C229.516 192 232.819 191.092 235.69 189.5C238.343 188.027 240.627 185.969 242.365 183.5M219 153.259C218.137 153.581 217.302 153.962 216.5 154.395" stroke="#E5E1EC" stroke-width="2" stroke-linecap="round"/>
<path fill-rule="evenodd" clip-rule="evenodd" d="M237.52 172.273C237.52 171.422 237.444 170.604 237.302 169.818H226V174.46H232.458C232.18 175.96 231.335 177.231 230.064 178.082V181.093H233.942C236.211 179.004 237.52 175.927 237.52 172.273Z" fill="#AF9EFF"/>
<path fill-rule="evenodd" clip-rule="evenodd" d="M226 184C229.24 184 231.956 182.926 233.941 181.093L230.063 178.082C228.989 178.802 227.614 179.228 226 179.228C222.874 179.228 220.229 177.117 219.285 174.28H215.276V177.389C217.25 181.311 221.309 184 226 184Z" fill="#AF9EFF"/>
<path fill-rule="evenodd" clip-rule="evenodd" d="M219.285 174.279C219.045 173.559 218.909 172.79 218.909 171.999C218.909 171.209 219.045 170.439 219.285 169.719V166.61H215.276C214.464 168.23 214 170.063 214 171.999C214 173.936 214.464 175.769 215.276 177.389L219.285 174.279Z" fill="#AF9EFF"/>
<path fill-rule="evenodd" clip-rule="evenodd" d="M226 164.773C227.761 164.773 229.343 165.378 230.587 166.567L234.029 163.125C231.95 161.189 229.234 160 226 160C221.309 160 217.25 162.689 215.276 166.611L219.285 169.72C220.229 166.884 222.874 164.773 226 164.773Z" fill="#AF9EFF"/>
<g style="mix-blend-mode:multiply">
<circle cx="153" cy="180" r="8" fill="#E5E1EC"/>
</g>
<path d="M15.6289 125L16.6404 127.641C17.199 129.1 18.8345 129.83 20.2933 129.271V129.271C21.7521 128.713 23.3875 129.442 23.9462 130.901V130.901C24.5048 132.36 26.1402 133.09 27.599 132.531V132.531C29.0578 131.972 30.6933 132.702 31.2519 134.161L32.2634 136.802" stroke="#AF9EFF" stroke-width="2" stroke-linecap="round" stroke-linejoin="round"/>
<defs>
<linearGradient id="paint0_linear_8614_113852" x1="60.8333" y1="217.125" x2="84.8017" y2="172.314" gradientUnits="userSpaceOnUse">
<stop stop-color="#5D34F2"/>
<stop offset="1" stop-color="#FAABFF"/>
</linearGradient>
</defs>
</svg>
