<svg width="256" height="256" viewBox="0 0 256 256" fill="none" xmlns="http://www.w3.org/2000/svg">
<path d="M103.585 156H69.0479C49.2043 156 32.3606 170.548 29.4735 190.18L24.5 224H234L233.69 222.987C230.606 212.894 221.291 206 210.738 206H181.652C175.715 206 170.267 202.713 167.498 197.463L165.836 194.31C160.709 184.586 150.62 178.5 139.627 178.5H138.207C133.216 178.5 128.694 175.561 126.667 171C122.613 161.878 113.567 156 103.585 156Z" fill="#41425F"/>
<path d="M61 75H30C27.7909 75 26 76.7909 26 79V79C26 81.2091 27.7909 83 30 83H61" stroke="#6669A8" stroke-width="2"/>
<path d="M26.5 69.5L63.5 46.5" stroke="#A39BD8" stroke-width="2" stroke-linecap="round"/>
<path d="M114.5 71.5L74.5 46.5" stroke="#A39BD8" stroke-width="2" stroke-linecap="round"/>
<path d="M164.5 71.5L74.5 46.5" stroke="#A39BD8" stroke-width="2" stroke-linecap="round"/>
<path d="M87 72H169.597C170.278 72 170.939 72.2318 171.471 72.6574L181.471 80.6574C183.685 82.4289 182.433 86 179.597 86H87C85.3431 86 84 84.6569 84 83V75C84 73.3431 85.3431 72 87 72Z" stroke="#6669A8" stroke-width="2"/>
<path d="M45.8184 101.813C45.9196 98.5734 48.5747 96 51.8154 96H88.1846C91.4253 96 94.0804 98.5734 94.1816 101.813L97.8066 217.813C97.9124 221.198 95.1967 224 91.8096 224H48.1904C44.8033 224 42.0876 221.198 42.1934 217.813L45.8184 101.813Z" fill="#7B7EBB"/>
<mask id="mask0_503_14464" style="mask-type:alpha" maskUnits="userSpaceOnUse" x="42" y="96" width="56" height="128">
<path d="M45.8184 101.813C45.9196 98.5734 48.5747 96 51.8154 96H88.1846C91.4253 96 94.0804 98.5734 94.1816 101.813L97.8066 217.813C97.9124 221.198 95.1967 224 91.8096 224H48.1904C44.8033 224 42.0876 221.198 42.1934 217.813L45.8184 101.813Z" fill="#3F375A"/>
</mask>
<g mask="url(#mask0_503_14464)">
<rect x="39.8223" y="130.268" width="72" height="2" transform="rotate(-30 39.8223 130.268)" fill="#6669A8"/>
<rect x="34" y="133" width="72" height="2" fill="#6669A8"/>
<rect x="34" y="172.732" width="72" height="2" fill="#6669A8"/>
<rect x="39.8223" y="170.268" width="72" height="2" transform="rotate(-30 39.8223 170.268)" fill="#6669A8"/>
<rect x="39.8223" y="210.268" width="72" height="2" transform="rotate(-30 39.8223 210.268)" fill="#6669A8"/>
<rect width="72" height="2" transform="matrix(0.866025 0.5 0.5 -0.866025 39.8223 97.7321)" fill="#6669A8"/>
<rect width="72" height="2" transform="matrix(0.866025 0.5 0.5 -0.866025 39.8223 137.732)" fill="#6669A8"/>
<rect width="72" height="2" transform="matrix(0.866025 0.5 0.5 -0.866025 39.8223 177.732)" fill="#6669A8"/>
<g style="mix-blend-mode:multiply">
<path d="M47.5 93.5H68.5L67.5 224H-1L47.5 93.5Z" fill="url(#paint0_linear_503_14464)"/>
</g>
</g>
<path d="M62.6943 46.6678C62.8671 44.5946 64.6002 43 66.6805 43H71.3195C73.3998 43 75.1329 44.5946 75.3057 46.6678L78.639 86.6678C78.8333 88.9999 76.993 91 74.6528 91H63.3472C61.007 91 59.1667 88.9999 59.361 86.6678L62.6943 46.6678Z" fill="#7B7EBB"/>
<rect x="70" y="67" width="24" height="24" rx="6" fill="url(#paint1_linear_503_14464)"/>
<rect x="18" y="67" width="16" height="24" rx="4" fill="#5F5D67"/>
<path d="M170 200.667C171.841 200.667 173.333 202.159 173.333 204V204C173.333 205.841 171.841 207.333 170 207.333H126.667V200.667H170Z" fill="#746A9A"/>
<path d="M184 197.333C187.314 197.333 190 200.02 190 203.333V204.667C190 207.98 187.314 210.667 184 210.667H169.333C166.02 210.667 163.333 207.98 163.333 204.667V203.333C163.333 200.02 166.02 197.333 169.333 197.333H184Z" fill="#B780FE"/>
<path d="M113.333 184C122.538 184 130 191.462 130 200.667V207.333C130 216.538 122.538 224 113.333 224H66.6667C57.4619 224 50 216.538 50 207.333V200.667C50 191.462 57.4619 184 66.6667 184H113.333Z" fill="url(#paint2_linear_503_14464)"/>
<rect x="116.666" y="195" width="4" height="53.3333" rx="2" transform="rotate(90 116.666 195)" fill="#DA9FFF"/>
<rect x="116.666" y="207.333" width="4" height="53.3333" rx="2" transform="rotate(90 116.666 207.333)" fill="#DA9FFF"/>
<circle cx="214" cy="56" r="20" fill="#696B97"/>
<path d="M208 46L224 56L208 66" stroke="#40456D" stroke-width="2" stroke-linecap="round" stroke-linejoin="round"/>
<circle cx="224" cy="56" r="4" fill="#B19EFF"/>
<circle cx="208" cy="66" r="4" fill="#B19EFF"/>
<circle cx="208" cy="46" r="4" fill="#B19EFF"/>
<circle cx="154" cy="124" r="20" fill="#696B97"/>
<path d="M154 110.996C150.834 110.996 147.771 112.122 145.36 114.174C142.948 116.226 141.346 119.068 140.839 122.194C140.332 125.319 140.953 128.522 142.592 131.231C144.231 133.94 146.78 135.978 149.783 136.979C150.45 137.096 150.7 136.696 150.7 136.346C150.7 136.029 150.683 134.979 150.683 133.862C147.333 134.479 146.467 133.046 146.2 132.296C145.904 131.566 145.435 130.92 144.833 130.412C144.367 130.162 143.7 129.546 144.817 129.529C145.243 129.575 145.652 129.724 146.009 129.961C146.366 130.199 146.66 130.52 146.867 130.896C147.049 131.223 147.294 131.512 147.588 131.744C147.882 131.977 148.219 132.149 148.58 132.251C148.941 132.354 149.318 132.384 149.69 132.34C150.063 132.296 150.423 132.179 150.75 131.996C150.808 131.318 151.11 130.684 151.6 130.212C148.633 129.879 145.533 128.729 145.533 123.629C145.514 122.304 146.003 121.022 146.9 120.046C146.492 118.894 146.54 117.63 147.033 116.512C147.033 116.512 148.15 116.162 150.7 117.879C152.882 117.279 155.185 117.279 157.367 117.879C159.917 116.146 161.033 116.512 161.033 116.512C161.527 117.63 161.574 118.894 161.167 120.046C162.066 121.02 162.555 122.303 162.533 123.629C162.533 128.746 159.417 129.879 156.45 130.212C156.768 130.535 157.013 130.922 157.168 131.348C157.324 131.773 157.386 132.227 157.35 132.679C157.35 134.462 157.333 135.896 157.333 136.346C157.333 136.696 157.583 137.112 158.25 136.979C161.248 135.969 163.79 133.927 165.422 131.217C167.054 128.507 167.669 125.305 167.158 122.183C166.648 119.06 165.044 116.221 162.634 114.172C160.224 112.123 157.163 110.997 154 110.996V110.996Z" fill="#BFBEF0"/>
<circle cx="126" cy="24" r="16" fill="#615984"/>
<path d="M136.666 24C136.666 18.1084 131.891 13.3333 125.999 13.3333C120.108 13.3333 115.333 18.1084 115.333 24C115.333 29.325 119.233 33.7375 124.333 34.5375V27.0833H121.624V24H124.333V21.65C124.333 18.9771 125.924 17.5 128.362 17.5C129.528 17.5 130.749 17.7083 130.749 17.7083V20.3333H129.403C128.078 20.3333 127.666 21.1563 127.666 22V24H130.624L130.151 27.0833H127.666V34.5375C132.766 33.7375 136.666 29.325 136.666 24Z" fill="#947DFF"/>
<path d="M130.151 27.0833L130.624 24H127.666V22C127.666 21.1563 128.078 20.3333 129.403 20.3333H130.749V17.7083C130.749 17.7083 129.528 17.5 128.362 17.5C125.924 17.5 124.332 18.9771 124.332 21.65V24H121.624V27.0833H124.332V34.5375C124.876 34.6229 125.432 34.6667 125.999 34.6667C126.566 34.6667 127.122 34.6229 127.666 34.5375V27.0833H130.151Z" fill="#F0EDFF"/>
<path d="M246 172C246 166.928 244.112 162.297 241 158.771C239.08 156.596 236.695 154.842 234 153.664M212.771 157C211.151 158.43 209.764 160.118 208.676 162C207.78 163.548 207.087 165.226 206.63 167C206.219 168.598 206 170.274 206 172C206 174.275 206.38 176.462 207.08 178.5C207.501 179.725 208.037 180.896 208.676 182C210.491 185.139 213.136 187.739 216.31 189.5C219.181 191.093 222.484 192 226 192C229.516 192 232.819 191.093 235.69 189.5C238.343 188.028 240.627 185.969 242.365 183.5M219 153.259C218.137 153.582 217.302 153.962 216.5 154.396" stroke="#AF9EFF" stroke-width="2" stroke-linecap="round"/>
<path fill-rule="evenodd" clip-rule="evenodd" d="M237.52 172.273C237.52 171.422 237.444 170.604 237.302 169.818H226V174.46H232.458C232.18 175.96 231.335 177.231 230.064 178.082V181.093H233.942C236.211 179.004 237.52 175.927 237.52 172.273V172.273Z" fill="#AF9EFF"/>
<path fill-rule="evenodd" clip-rule="evenodd" d="M226 184C229.24 184 231.956 182.925 233.941 181.093L230.063 178.082C228.989 178.802 227.614 179.227 226 179.227C222.874 179.227 220.229 177.116 219.285 174.28H215.276V177.389C217.25 181.311 221.309 184 226 184V184Z" fill="#AF9EFF"/>
<path fill-rule="evenodd" clip-rule="evenodd" d="M219.285 174.28C219.045 173.56 218.909 172.791 218.909 172C218.909 171.209 219.045 170.44 219.285 169.72V166.611H215.276C214.464 168.231 214 170.064 214 172C214 173.936 214.464 175.769 215.276 177.389L219.285 174.28V174.28Z" fill="#AF9EFF"/>
<path fill-rule="evenodd" clip-rule="evenodd" d="M226 164.773C227.761 164.773 229.343 165.378 230.587 166.567L234.029 163.125C231.95 161.189 229.234 160 226 160C221.309 160 217.25 162.689 215.276 166.611L219.285 169.72C220.229 166.884 222.874 164.773 226 164.773V164.773Z" fill="#AF9EFF"/>
<g style="mix-blend-mode:multiply">
<circle cx="153" cy="180" r="8" fill="#E5E1EC"/>
</g>
<g style="mix-blend-mode:multiply">
<circle cx="34" cy="34" r="7" stroke="#E0E3E3" stroke-width="2"/>
</g>
<g style="mix-blend-mode:multiply">
<circle cx="238" cy="104" r="4" fill="#9FE79F"/>
</g>
<rect x="198.311" y="125" width="8" height="8" transform="rotate(24.4506 198.311 125)" fill="#C093C0"/>
<rect x="168" y="46.2115" width="8" height="8" transform="rotate(-40.65 168 46.2115)" fill="#79709C"/>
<path d="M15.6289 125L16.6404 127.641C17.199 129.1 18.8345 129.83 20.2933 129.271V129.271C21.7521 128.713 23.3875 129.442 23.9462 130.901V130.901C24.5048 132.36 26.1402 133.09 27.599 132.531V132.531C29.0578 131.972 30.6933 132.702 31.2519 134.161L32.2634 136.802" stroke="#9F96CD" stroke-width="2" stroke-linecap="round" stroke-linejoin="round"/>
<defs>
<linearGradient id="paint0_linear_503_14464" x1="37.5" y1="224" x2="69" y2="91.5" gradientUnits="userSpaceOnUse">
<stop stop-color="#ADAAB4"/>
<stop offset="1" stop-color="#ADAAB4" stop-opacity="0"/>
</linearGradient>
<linearGradient id="paint1_linear_503_14464" x1="67.5" y1="82.5" x2="90.1251" y2="68.1232" gradientUnits="userSpaceOnUse">
<stop stop-color="#492EF3"/>
<stop offset="1" stop-color="#DA8CFF"/>
</linearGradient>
<linearGradient id="paint2_linear_503_14464" x1="24" y1="214.5" x2="132.815" y2="216.789" gradientUnits="userSpaceOnUse">
<stop stop-color="#492EF3"/>
<stop offset="1" stop-color="#D376FF"/>
</linearGradient>
</defs>
</svg>
