<svg width="256" height="256" viewBox="0 0 256 256" fill="none" xmlns="http://www.w3.org/2000/svg">
<path fill-rule="evenodd" clip-rule="evenodd" d="M42.7124 204.2C45.6222 205.936 49.3879 204.984 51.1234 202.074C52.8588 199.164 51.9069 195.398 48.9971 193.663C46.0873 191.927 42.3216 192.879 40.5862 195.789C38.8507 198.699 39.8027 202.465 42.7124 204.2ZM44.2838 201.566C45.7387 202.433 47.6215 201.957 48.4893 200.503C49.357 199.048 48.881 197.165 47.4261 196.297C45.9713 195.429 44.0884 195.905 43.2207 197.36C42.3529 198.815 42.8289 200.698 44.2838 201.566Z" fill="#DBC1FF"/>
<path d="M27.9257 70.8278C28.6614 69.971 28.5632 68.68 27.7064 67.9443L25.8284 66.3318C24.9715 65.5961 23.6806 65.6943 22.9449 66.5511L21.3324 68.4291C20.5967 69.286 20.6949 70.577 21.5517 71.3127L23.4297 72.9252C24.2866 73.6608 25.5776 73.5626 26.3132 72.7058L27.9257 70.8278Z" fill="#CABEFF"/>
<path fill-rule="evenodd" clip-rule="evenodd" d="M168.233 70.0002C168.233 62.9493 173.949 57.2334 181 57.2334H183V58.767H181C174.796 58.767 169.767 63.7963 169.767 70.0002V187C169.767 193.204 174.796 198.233 181 198.233H183V199.767H181C173.949 199.767 168.233 194.051 168.233 187V70.0002Z" fill="#A782E8"/>
<path fill-rule="evenodd" clip-rule="evenodd" d="M153.999 127.233H182.999V128.767H153.999V127.233Z" fill="#A782E8"/>
<path fill-rule="evenodd" clip-rule="evenodd" d="M72 127.233L86 127.233L86 128.767L72 128.767L72 127.233Z" fill="#A782E8"/>
<path d="M14 111.269C14 104.493 19.493 99 26.269 99H59.7308C66.5068 99 71.9999 104.493 71.9999 111.269V144.731C71.9999 151.507 66.5068 157 59.7308 157H26.269C19.493 157 14 151.507 14 144.731V111.269Z" fill="url(#paint0_linear_2731_87834)"/>
<path d="M47.695 129.398V132.691C47.695 133.325 38.3045 133.112 38.3045 132.198C38.3045 131.337 38.3221 127.437 38.3045 123.426C36.2016 120.707 36.2016 119.008 37.8643 117.251C39.527 115.495 51.3631 114.617 51.3631 114.617C51.3631 114.617 52.2511 123.136 52.3902 125.447C52.4461 126.376 53.0505 129.398 50.7028 129.398H47.695Z" fill="url(#paint1_linear_2731_87834)"/>
<g style="mix-blend-mode:multiply">
<path d="M47.6924 129.113C45.7808 128.905 43.9333 128.303 42.2671 127.346C42.2671 127.346 43.4409 130.126 47.6924 130.881V129.113Z" fill="#FFD7B8"/>
</g>
<path d="M58.4064 139.246C59.2749 141.007 59.9716 143.842 60.4963 147.749C60.5578 148.207 60.1997 148.612 59.7377 148.612H26.2626C25.8006 148.612 25.4425 148.207 25.504 147.749C26.029 143.841 26.7256 141.007 27.594 139.246C28.5218 137.364 37.1311 133.742 37.1311 133.742C37.1311 133.742 37.3025 132.086 37.718 131.849C38.1336 131.611 47.7874 131.612 48.2823 131.849C48.7772 132.086 48.8692 133.741 48.8692 133.741C48.8692 133.741 57.4803 137.368 58.4064 139.246Z" fill="#6F45E5"/>
<path d="M40.2163 119.036C39.7498 118.636 39.1828 118.367 38.3814 118.782C36.4814 119.766 37.7424 123.562 39.8686 123.488C40.6022 123.462 40.2659 124.921 38.306 125.884C38.306 124.347 35.9584 120.542 35.7529 117.078C33.3907 116.2 33.9776 112.69 35.5993 112.69C35.3405 109.472 40.5069 107.809 42.5073 109.656C44.5418 107.224 49.6772 108.468 49.9873 110.578C53.5185 108.698 55.8397 114.102 52.5332 116.2C51.1727 117.064 47.9899 117.392 43.3955 117.392C41.1908 117.392 42.4586 122.539 43.1479 124.201C44.0283 126.323 48.9436 126.615 50.4842 126.396C51.6874 126.225 52.3183 125.737 52.3917 125.445C53.4921 128.372 52.0982 130.128 49.8973 130.128C46.1558 130.128 42.4143 129.03 41.8274 126.323C41.3602 124.168 41.3859 120.691 40.2163 119.036Z" fill="#7958FF"/>
<path fill-rule="evenodd" clip-rule="evenodd" d="M98.9019 149.905C90.7821 149.312 84.377 142.466 84.377 134.107C84.377 125.54 91.1058 118.562 99.5129 118.277C101.785 108.932 110.129 102 120.075 102C129.715 102 137.85 108.511 140.41 117.42C149.278 117.706 156.377 124.876 156.377 133.679C156.377 142.203 149.721 149.195 141.248 149.89V150H98.9019V149.905Z" fill="url(#paint2_linear_2731_87834)"/>
<path fill-rule="evenodd" clip-rule="evenodd" d="M120.401 125.349C119.123 126.657 117.051 126.657 115.773 125.349C114.495 124.041 114.495 121.921 115.773 120.613C117.051 119.305 119.123 119.305 120.401 120.613C121.679 121.921 121.679 124.041 120.401 125.349ZM112.687 128.507C115.133 131.01 118.826 131.459 121.72 129.856L126.306 134.549L125.555 135.317C125.129 135.753 125.129 136.46 125.555 136.896L127.098 138.474C127.524 138.91 128.214 138.91 128.64 138.474L129.391 137.706L131.675 140.043C132.527 140.915 133.909 140.915 134.761 140.043C135.613 139.171 135.613 137.757 134.761 136.885L124.806 126.699C126.372 123.738 125.933 119.959 123.487 117.456C120.504 114.404 115.669 114.404 112.687 117.456C109.705 120.508 109.705 125.455 112.687 128.507Z" fill="#FDCF90"/>
<path fill-rule="evenodd" clip-rule="evenodd" d="M120.401 125.349C119.123 126.657 117.051 126.657 115.773 125.349C114.495 124.041 114.495 121.921 115.773 120.613C117.051 119.305 119.123 119.305 120.401 120.613C121.679 121.921 121.679 124.041 120.401 125.349ZM112.687 128.507C115.133 131.01 118.826 131.459 121.72 129.856L126.306 134.549L125.555 135.317C125.129 135.753 125.129 136.46 125.555 136.896L127.098 138.474C127.524 138.91 128.214 138.91 128.64 138.474L129.391 137.706L131.675 140.043C132.527 140.915 133.909 140.915 134.761 140.043C135.613 139.171 135.613 137.757 134.761 136.885L124.806 126.699C126.372 123.738 125.933 119.959 123.487 117.456C120.504 114.404 115.669 114.404 112.687 117.456C109.705 120.508 109.705 125.455 112.687 128.507Z" fill="url(#paint3_linear_2731_87834)"/>
<path d="M184 41.269C184 34.493 189.493 29 196.269 29H229.731C236.507 29 242 34.493 242 41.269V74.731C242 81.507 236.507 87 229.731 87H196.269C189.493 87 184 81.507 184 74.731V41.269Z" fill="#F5EEFF"/>
<path opacity="0.5" fill-rule="evenodd" clip-rule="evenodd" d="M196.269 29.75C189.907 29.75 184.75 34.9073 184.75 41.269V74.731C184.75 81.0927 189.907 86.25 196.269 86.25H230.5C236.437 86.25 241.25 81.4371 241.25 75.5V41.269C241.25 34.9073 236.093 29.75 229.731 29.75H229V28.25H229.731C236.921 28.25 242.75 34.0788 242.75 41.269V75.5C242.75 82.2655 237.265 87.75 230.5 87.75H196.269C189.079 87.75 183.25 81.9212 183.25 74.731V41.269C183.25 34.0788 189.079 28.25 196.269 28.25H222V29.75H196.269Z" fill="#A782E8"/>
<path opacity="0.8" d="M197.001 48.1157C197.001 46.7018 198.147 45.5557 199.561 45.5557H226.441C227.855 45.5557 229.001 46.7018 229.001 48.1157V67.3157C229.001 68.7296 227.855 69.8758 226.441 69.8758H199.561C198.147 69.8758 197.001 68.7296 197.001 67.3157V48.1157Z" fill="url(#paint4_linear_2731_87834)"/>
<path d="M197.001 50.7676H229.001V48.0347C229.001 46.6658 227.891 45.5561 226.522 45.5561H199.48C198.111 45.5561 197.001 46.6658 197.001 48.0347V50.7676Z" fill="#5D34F2"/>
<path d="M200.557 55.1088C200.557 54.6291 200.946 54.2402 201.425 54.2402H210.355C210.834 54.2402 211.223 54.6291 211.223 55.1088C211.223 55.5885 210.834 55.9774 210.355 55.9774H201.425C200.946 55.9774 200.557 55.5885 200.557 55.1088Z" fill="#F5EEFF"/>
<path d="M200.557 60.3217C200.557 59.842 200.946 59.4531 201.425 59.4531H221.021C221.501 59.4531 221.89 59.842 221.89 60.3217C221.89 60.8014 221.501 61.1903 221.021 61.1903H201.425C200.946 61.1903 200.557 60.8014 200.557 60.3217Z" fill="#F5EEFF"/>
<path d="M184 181.269C184 174.493 189.493 169 196.269 169H229.731C236.507 169 242 174.493 242 181.269V214.731C242 221.507 236.507 227 229.731 227H196.269C189.493 227 184 221.507 184 214.731V181.269Z" fill="#F5EEFF"/>
<path opacity="0.8" d="M197.001 188.116C197.001 186.702 198.147 185.556 199.561 185.556H226.441C227.855 185.556 229.001 186.702 229.001 188.116V207.316C229.001 208.73 227.855 209.876 226.441 209.876H199.561C198.147 209.876 197.001 208.73 197.001 207.316V188.116Z" fill="url(#paint5_linear_2731_87834)"/>
<path d="M197.001 190.768H229.001V188.035C229.001 186.666 227.891 185.556 226.522 185.556H199.48C198.111 185.556 197.001 186.666 197.001 188.035V190.768Z" fill="#5D34F2"/>
<path d="M200.557 195.109C200.557 194.629 200.946 194.24 201.425 194.24H210.355C210.834 194.24 211.223 194.629 211.223 195.109C211.223 195.589 210.834 195.977 210.355 195.977H201.425C200.946 195.977 200.557 195.589 200.557 195.109Z" fill="#F5EEFF"/>
<path d="M200.557 200.322C200.557 199.842 200.946 199.453 201.425 199.453H221.021C221.501 199.453 221.89 199.842 221.89 200.322C221.89 200.801 221.501 201.19 221.021 201.19H201.425C200.946 201.19 200.557 200.801 200.557 200.322Z" fill="#F5EEFF"/>
<path opacity="0.5" fill-rule="evenodd" clip-rule="evenodd" d="M196.269 169.75C189.907 169.75 184.75 174.907 184.75 181.269V214.731C184.75 221.093 189.907 226.25 196.269 226.25H230.5C236.437 226.25 241.25 221.437 241.25 215.5V181.269C241.25 174.907 236.093 169.75 229.731 169.75H229V168.25H229.731C236.921 168.25 242.75 174.079 242.75 181.269V215.5C242.75 222.265 237.265 227.75 230.5 227.75H196.269C189.079 227.75 183.25 221.921 183.25 214.731V181.269C183.25 174.079 189.079 168.25 196.269 168.25H222V169.75H196.269Z" fill="#A782E8"/>
<path d="M184 111.269C184 104.493 189.493 99 196.269 99H229.731C236.507 99 242 104.493 242 111.269V144.731C242 151.507 236.507 157 229.731 157H196.269C189.493 157 184 151.507 184 144.731V111.269Z" fill="#F5EEFF"/>
<path opacity="0.5" fill-rule="evenodd" clip-rule="evenodd" d="M196.269 99.75C189.907 99.75 184.75 104.907 184.75 111.269V144.731C184.75 151.093 189.907 156.25 196.269 156.25H229.731C236.093 156.25 241.25 151.093 241.25 144.731L241.25 111.269C241.25 104.907 236.093 99.75 229.731 99.75H205V98.25H229.731C236.921 98.25 242.75 104.079 242.75 111.269L242.75 144.731C242.75 151.921 236.921 157.75 229.731 157.75H196.269C189.079 157.75 183.25 151.921 183.25 144.731V111.269C183.25 104.079 189.079 98.25 196.269 98.25H197.5V99.75H196.269Z" fill="#A782E8"/>
<path d="M203 113.908C203 111.197 205.289 109 208.112 109H218.336C221.16 109 223.448 111.197 223.448 113.908V140.9C223.448 143.61 221.16 145.807 218.336 145.807H208.112C205.289 145.807 203 143.61 203 140.9V113.908Z" fill="url(#paint6_linear_2731_87834)"/>
<path d="M215.142 140.899C215.142 141.877 214.309 142.714 213.225 142.714C212.141 142.714 211.308 141.877 211.308 140.899C211.308 139.921 212.141 139.084 213.225 139.084C214.309 139.084 215.142 139.921 215.142 140.899Z" stroke="#F5EEFF" stroke-width="1.27803"/>
<path d="M208.112 110.278C208.112 109.572 208.684 109 209.39 109H217.058C217.764 109 218.337 109.572 218.337 110.278V111.454C218.337 112.131 217.764 112.681 217.058 112.681H209.39C208.684 112.681 208.112 112.131 208.112 111.454V110.278Z" fill="#4300DA"/>
<path fill-rule="evenodd" clip-rule="evenodd" d="M64.3593 40.7182C64.571 41.2896 64.2833 41.926 63.7167 42.1395C62.819 42.4778 61.9505 42.8769 61.1162 43.3319C60.5842 43.6221 59.9196 43.4223 59.6318 42.8858C59.3441 42.3492 59.5422 41.679 60.0743 41.3888C60.9966 40.8858 61.957 40.4444 62.95 40.0702C63.5166 39.8566 64.1476 40.1468 64.3593 40.7182ZM78.7583 41.1099C79.0005 40.5509 79.6461 40.2957 80.2004 40.54C83.3004 41.9059 86.043 43.9403 88.2497 46.4618C91.8277 50.55 94 55.9229 94 61.8047C94 62.4147 93.5096 62.9093 92.9048 62.9093C92.2999 62.9093 91.8095 62.4147 91.8095 61.8047C91.8095 56.4816 89.8458 51.6238 86.6074 47.9236C84.6092 45.6404 82.1267 43.7995 79.3234 42.5643C78.7691 42.32 78.5161 41.6689 78.7583 41.1099ZM57.3321 44.5058C57.7324 44.9631 57.6892 45.6611 57.2357 46.0648C55.5495 47.5657 54.1065 49.3376 52.9737 51.3124C52.0424 52.9361 51.3208 54.6969 50.846 56.5574C50.4183 58.2333 50.1905 59.9914 50.1905 61.8047C50.1905 64.1943 50.5861 66.4884 51.3139 68.6254C51.7514 69.91 52.3092 71.1384 52.9738 72.297C54.8633 75.5913 57.6158 78.32 60.9185 80.1683C63.9041 81.8391 67.3402 82.7909 71 82.7909C74.6598 82.7909 78.0959 81.8391 81.0815 80.1683C83.8422 78.6234 86.2187 76.463 88.0281 73.8711C88.3763 73.3723 89.0596 73.2526 89.5542 73.6037C90.0488 73.9549 90.1675 74.6439 89.8193 75.1427C87.8205 78.0059 85.1956 80.3924 82.1443 82.0999C78.8419 83.948 75.0411 85 71 85C66.9589 85 63.1582 83.948 59.8557 82.0999C56.2059 80.0574 53.1656 77.0432 51.0777 73.4032C50.343 72.1224 49.7262 70.764 49.2422 69.343C48.4368 66.9781 48 64.4417 48 61.8047C48 59.8041 48.2514 57.8611 48.7247 56.0067C49.2499 53.9486 50.0481 52.0012 51.0777 50.2063C52.3297 48.0236 53.9239 46.0662 55.7862 44.4086C56.2397 44.0049 56.9318 44.0484 57.3321 44.5058Z" fill="#E5E1EC"/>
<g clip-path="url(#clip0_2731_87834)">
<path d="M83.9985 62.9508L83.3485 57.1008L81.4635 58.3358C79.7085 57.2308 77.4985 56.4508 75.0285 56.0608C75.0285 56.0608 73.7935 55.8008 72.1685 55.8008C70.5435 55.8008 69.0485 55.9958 69.0485 55.9958C62.7435 56.7758 57.9985 60.3508 57.9985 64.6408C57.9985 69.0608 62.8735 72.7008 70.3485 73.3508V70.8158C65.2135 70.1008 61.9635 67.6958 61.9635 64.6408C61.9635 61.7808 64.9535 59.3758 69.0485 58.5958C69.0485 58.5958 72.2335 57.8808 75.0285 58.7258C76.3935 59.0508 77.6285 59.5058 78.6685 60.1558L76.1985 61.6508L83.9985 62.9508Z" fill="#AF9EFF" fill-opacity="0.6"/>
<path d="M70.3481 50.6004V73.3504L74.2481 71.4004V48.6504L70.3481 50.6004Z" fill="#AF9EFF"/>
</g>
<path d="M154 77C154 88.0457 145.046 97 134 97C122.954 97 114 88.0457 114 77C114 65.9543 122.954 57 134 57C145.046 57 154 65.9543 154 77Z" fill="#F5EEFF"/>
<g clip-path="url(#clip1_2731_87834)">
<path fill-rule="evenodd" clip-rule="evenodd" d="M135.498 65.1742L134.995 71.3895C134.757 71.3606 134.516 71.3451 134.269 71.3451C133.963 71.3451 133.662 71.3678 133.368 71.4132L133.081 68.3994C133.072 68.3056 133.147 68.2231 133.242 68.2241H133.757L133.508 65.1742C133.5 65.0804 133.574 65 133.668 65H135.336C135.43 65 135.503 65.0804 135.496 65.1742H135.498ZM131.287 65.4825C131.263 65.3918 131.166 65.3423 131.077 65.3743L129.509 65.9455C129.42 65.9774 129.379 66.0785 129.418 66.1641L130.693 68.9448L130.209 69.1201C130.12 69.1521 130.077 69.2542 130.118 69.3408L131.417 72.0751C131.888 71.8153 132.399 71.6204 132.938 71.4967L131.287 65.4825ZM127.437 67.2137L131.046 72.2979C130.588 72.5958 130.175 72.9546 129.816 73.364L127.658 71.2379C127.59 71.1709 127.595 71.0606 127.667 70.9997L128.062 70.6698L125.913 68.4932C125.847 68.4262 125.853 68.318 125.925 68.2571L127.202 67.1838C127.274 67.1229 127.383 67.1374 127.437 67.2137ZM124.41 70.1574C124.333 70.1048 124.227 70.1285 124.179 70.2089L123.345 71.6545C123.298 71.7359 123.331 71.84 123.415 71.8802L126.179 73.1907L125.921 73.6361C125.873 73.7186 125.906 73.8238 125.993 73.863L128.747 75.1219C128.947 74.6095 129.213 74.1321 129.539 73.7011L124.41 70.1574ZM122.374 74.0857C122.39 73.9929 122.481 73.9342 122.573 73.9579L128.604 75.5333C128.449 76.0427 128.361 76.5819 128.349 77.1397L125.329 76.8974C125.234 76.8902 125.167 76.8025 125.183 76.7087L125.274 76.2024L122.229 75.9168C122.136 75.9076 122.07 75.821 122.086 75.7282L122.375 74.0847L122.374 74.0857ZM122.146 78.1594C122.052 78.1687 121.986 78.2553 122.003 78.3481L122.292 79.9916C122.309 80.0844 122.401 80.1432 122.491 80.1195L125.45 79.3462L125.539 79.8524C125.556 79.9462 125.649 80.005 125.74 79.9792L128.659 79.1729C128.487 78.6667 128.381 78.1315 128.353 77.5748L122.146 78.1594ZM123.111 82.4786C123.064 82.3971 123.096 82.2929 123.181 82.2527L128.813 79.5823C129.027 80.0875 129.311 80.5566 129.65 80.9773L127.182 82.7332C127.104 82.7889 126.996 82.7642 126.95 82.6827L126.693 82.2362L124.177 83.9757C124.1 84.0292 123.994 84.0055 123.946 83.9241L123.111 82.4786ZM129.935 81.3073L125.554 85.7449C125.488 85.8119 125.493 85.9202 125.565 85.981L126.843 87.0534C126.916 87.1142 127.024 87.0997 127.079 87.0234L128.848 84.5282L129.242 84.8603C129.314 84.9211 129.424 84.9067 129.478 84.8283L131.196 82.3362C130.73 82.0517 130.306 81.7042 129.935 81.3073ZM129.07 88.4319C128.981 88.3999 128.94 88.2989 128.979 88.2133L131.577 82.5445C132.055 82.7889 132.571 82.9714 133.113 83.0786L132.351 86.0088C132.328 86.1007 132.23 86.1522 132.141 86.1192L131.657 85.9418L130.847 88.8917C130.822 88.9825 130.725 89.032 130.637 89L129.068 88.4298L129.07 88.4319ZM133.544 83.1477L133.041 89.364C133.034 89.4578 133.107 89.5382 133.201 89.5382H134.869C134.963 89.5382 135.037 89.4578 135.029 89.364L134.781 86.3151H135.295C135.39 86.3161 135.464 86.2347 135.456 86.1398L135.169 83.126C134.875 83.1704 134.574 83.1941 134.268 83.1941C134.023 83.1941 133.781 83.1775 133.543 83.1487L133.544 83.1477ZM139.561 66.3239C139.6 66.2383 139.558 66.1383 139.47 66.1053L137.902 65.5351C137.814 65.5032 137.716 65.5526 137.691 65.6434L136.881 68.5932L136.397 68.4159C136.309 68.3829 136.211 68.4345 136.187 68.5262L135.425 71.4565C135.967 71.5637 136.483 71.7462 136.961 71.9906L139.561 66.3228V66.3239ZM142.985 68.7943L138.604 73.2319C138.234 72.834 137.81 72.4865 137.343 72.202L139.061 69.7099C139.114 69.6326 139.225 69.6171 139.297 69.6789L139.691 70.011L141.46 67.5158C141.515 67.4395 141.623 67.4251 141.695 67.4859L142.973 68.5582C143.046 68.619 143.051 68.7283 142.985 68.7943ZM145.357 72.2865C145.443 72.2463 145.475 72.1422 145.427 72.0607L144.592 70.6151C144.545 70.5337 144.439 70.51 144.361 70.5636L141.846 72.303L141.589 71.8565C141.541 71.7741 141.433 71.7503 141.357 71.806L138.888 73.5619C139.228 73.9836 139.511 74.4517 139.726 74.9569L145.357 72.2865ZM146.246 74.5486L146.536 76.1921C146.552 76.286 146.485 76.3726 146.393 76.3808L140.186 76.9634C140.158 76.4066 140.051 75.8715 139.879 75.3653L142.798 74.56C142.889 74.5342 142.983 74.594 142.999 74.6868L143.087 75.193L146.046 74.4197C146.137 74.396 146.229 74.4548 146.245 74.5476L146.246 74.5486ZM145.966 80.5813C146.056 80.6051 146.148 80.5463 146.165 80.4535L146.453 78.81C146.47 78.7172 146.403 78.6306 146.31 78.6214L143.265 78.3358L143.356 77.8295C143.373 77.7357 143.306 77.649 143.211 77.6408L140.191 77.3985C140.178 77.9573 140.091 78.4955 139.935 79.0059L145.967 80.5803L145.966 80.5813ZM144.359 84.3313C144.312 84.4118 144.206 84.4355 144.128 84.3829L138.998 80.8391C139.324 80.4081 139.591 79.9308 139.79 79.4184L142.544 80.6783C142.63 80.7175 142.664 80.8237 142.616 80.9051L142.357 81.3505L145.121 82.661C145.206 82.7012 145.239 82.8054 145.191 82.8868L144.357 84.3323L144.359 84.3313ZM137.492 82.2414L141.101 87.3265C141.156 87.4029 141.263 87.4173 141.336 87.3565L142.614 86.2831C142.686 86.2223 142.691 86.113 142.625 86.047L140.476 83.8705L140.871 83.5405C140.943 83.4797 140.948 83.3694 140.88 83.3034L138.722 81.1773C138.364 81.5856 137.95 81.9444 137.492 82.2424V82.2414ZM137.461 89.1649C137.374 89.1969 137.276 89.1474 137.251 89.0567L135.599 83.0435C136.139 82.9198 136.649 82.7239 137.12 82.4651L138.419 85.1995C138.46 85.285 138.418 85.3882 138.329 85.4201L137.844 85.5954L139.119 88.3762C139.159 88.4618 139.116 88.5618 139.029 88.5948L137.46 89.166L137.461 89.1649Z" fill="#AF9EFF"/>
</g>
<path d="M86.0005 194.449C86.0005 191.374 88.9339 179.902 94.9989 172.215C90.7177 180.296 88.2273 185.768 90.0438 190.034C91.4709 193.385 98.8044 192.32 102.768 190.98C95.7124 194.173 88.4714 194.607 86.0005 194.449Z" fill="#AF9EFF"/>
<path d="M99.1379 171.875C101.816 173.412 110.339 181.675 114.001 190.742C109.104 183.014 105.584 178.133 100.961 177.565C97.3296 177.119 94.5897 183.967 93.7749 188.051C94.5222 180.377 97.7651 173.924 99.1379 171.875Z" fill="#AF9EFF"/>
<path d="M112.288 194.422C109.61 195.959 98.1535 199.169 88.4268 197.789C97.6049 197.435 103.615 196.844 106.421 193.147C108.626 190.243 104.032 184.459 100.883 181.715C107.192 186.195 111.19 192.215 112.288 194.422Z" fill="#AF9EFF"/>
<path fill-rule="evenodd" clip-rule="evenodd" d="M98.3368 164.738C98.3904 165.345 97.9451 165.883 97.3422 165.94C96.3871 166.029 95.4441 166.185 94.5194 166.404C93.9297 166.544 93.3412 166.176 93.2052 165.583C93.0691 164.989 93.4368 164.395 94.0266 164.255C95.0489 164.013 96.0916 163.841 97.1482 163.741C97.751 163.685 98.2832 164.131 98.3368 164.738ZM112.123 168.912C112.504 168.437 113.194 168.361 113.664 168.742C116.295 170.877 118.404 173.563 119.868 176.577C122.241 181.464 122.92 187.219 121.37 192.893C121.209 193.481 120.606 193.829 120.022 193.67C119.439 193.51 119.096 192.904 119.257 192.315C120.66 187.181 120.047 181.977 117.898 177.554C116.573 174.825 114.663 172.395 112.285 170.464C111.815 170.082 111.742 169.387 112.123 168.912ZM90.5597 166.539C90.8252 167.086 90.5996 167.748 90.0557 168.018C88.0335 169.021 86.1744 170.35 84.561 171.956C83.2346 173.277 82.0743 174.785 81.1258 176.454C80.2714 177.958 79.5881 179.594 79.1101 181.343C78.4801 183.648 78.2569 185.965 78.3956 188.219C78.479 189.573 78.6931 190.905 79.0288 192.198C79.983 195.874 81.9187 199.232 84.6173 201.885C87.0568 204.284 90.1204 206.108 93.6507 207.073C97.181 208.038 100.746 208.026 104.067 207.201C107.137 206.439 109.999 204.981 112.428 202.958C112.895 202.569 113.586 202.633 113.971 203.102C114.355 203.572 114.288 204.268 113.821 204.657C111.138 206.892 107.976 208.502 104.583 209.345C100.91 210.257 96.9665 210.269 93.0683 209.204C89.1702 208.139 85.7812 206.122 83.0829 203.469C80.1006 200.536 77.9626 196.827 76.9081 192.765C76.5371 191.336 76.3002 189.863 76.208 188.365C76.0545 185.871 76.3019 183.309 76.9971 180.766C77.5245 178.836 78.2793 177.028 79.2247 175.364C80.274 173.517 81.5573 171.849 83.0236 170.389C84.8068 168.614 86.8606 167.146 89.0941 166.038C89.638 165.768 90.2941 165.992 90.5597 166.539Z" fill="#E5E1EC"/>
<defs>
<linearGradient id="paint0_linear_2731_87834" x1="42.9999" y1="122.304" x2="19.6862" y2="157" gradientUnits="userSpaceOnUse">
<stop stop-color="#C39EFF"/>
<stop offset="1" stop-color="#906FEF"/>
</linearGradient>
<linearGradient id="paint1_linear_2731_87834" x1="44.584" y1="114.617" x2="44.584" y2="133.055" gradientUnits="userSpaceOnUse">
<stop stop-color="#FFD4B3"/>
<stop offset="1" stop-color="#FFDCC2"/>
</linearGradient>
<linearGradient id="paint2_linear_2731_87834" x1="120.377" y1="102" x2="106.437" y2="154.02" gradientUnits="userSpaceOnUse">
<stop stop-color="#C39EFF"/>
<stop offset="1" stop-color="#906FEF"/>
</linearGradient>
<linearGradient id="paint3_linear_2731_87834" x1="117.831" y1="132.612" x2="129.398" y2="121.307" gradientUnits="userSpaceOnUse">
<stop stop-color="#FFD099"/>
<stop offset="1" stop-color="#FFC37D"/>
</linearGradient>
<linearGradient id="paint4_linear_2731_87834" x1="194.372" y1="59.489" x2="225.817" y2="44.2126" gradientUnits="userSpaceOnUse">
<stop stop-color="#492EF3"/>
<stop offset="1" stop-color="#CF69FF"/>
</linearGradient>
<linearGradient id="paint5_linear_2731_87834" x1="194.372" y1="199.489" x2="225.817" y2="184.213" gradientUnits="userSpaceOnUse">
<stop stop-color="#492EF3"/>
<stop offset="1" stop-color="#CF69FF"/>
</linearGradient>
<linearGradient id="paint6_linear_2731_87834" x1="201.32" y1="130.087" x2="225.153" y2="125.199" gradientUnits="userSpaceOnUse">
<stop stop-color="#492EF3"/>
<stop offset="1" stop-color="#CF69FF"/>
</linearGradient>
<clipPath id="clip0_2731_87834">
<rect width="26" height="26" fill="white" transform="translate(58 48)"/>
</clipPath>
<clipPath id="clip1_2731_87834">
<rect width="24.5384" height="24.5382" fill="white" transform="translate(122 65)"/>
</clipPath>
</defs>
</svg>
