<svg width="21" height="20" viewBox="0 0 21 20" fill="none" xmlns="http://www.w3.org/2000/svg">
<path d="M18.5915 7.7415L15.2581 4.40816C15.1804 4.33046 15.0882 4.26883 14.9867 4.22678C14.8851 4.18473 14.7763 4.16309 14.6665 4.16309C14.4445 4.16309 14.2317 4.25124 14.0748 4.40816C13.9179 4.56508 13.8297 4.77791 13.8297 4.99983C13.8297 5.22175 13.9179 5.43458 14.0748 5.5915L15.9915 7.49983H6.33312C6.11211 7.49983 5.90015 7.58763 5.74387 7.74391C5.58759 7.90019 5.49979 8.11215 5.49979 8.33316C5.49979 8.55418 5.58759 8.76614 5.74387 8.92242C5.90015 9.0787 6.11211 9.1665 6.33312 9.1665H17.9998C18.1643 9.16567 18.3249 9.11617 18.4613 9.02423C18.5978 8.93228 18.7039 8.80201 18.7665 8.64983C18.8303 8.49807 18.8477 8.33081 18.8166 8.16915C18.7854 8.00749 18.7071 7.85868 18.5915 7.7415ZM14.6665 10.8332H2.99979C2.83527 10.834 2.67467 10.8835 2.53824 10.9754C2.40181 11.0674 2.29564 11.1976 2.23312 11.3498C2.16931 11.5016 2.15187 11.6688 2.18302 11.8305C2.21416 11.9922 2.29249 12.141 2.40812 12.2582L5.74146 15.5915C5.81893 15.6696 5.91109 15.7316 6.01264 15.7739C6.11419 15.8162 6.22311 15.838 6.33312 15.838C6.44313 15.838 6.55206 15.8162 6.6536 15.7739C6.75515 15.7316 6.84732 15.6696 6.92479 15.5915C7.0029 15.514 7.06489 15.4219 7.1072 15.3203C7.14951 15.2188 7.17129 15.1098 7.17129 14.9998C7.17129 14.8898 7.14951 14.7809 7.1072 14.6793C7.06489 14.5778 7.0029 14.4856 6.92479 14.4082L5.00812 12.4998H14.6665C14.8875 12.4998 15.0994 12.412 15.2557 12.2558C15.412 12.0995 15.4998 11.8875 15.4998 11.6665C15.4998 11.4455 15.412 11.2335 15.2557 11.0772C15.0994 10.921 14.8875 10.8332 14.6665 10.8332Z" fill="currentColor"/>
</svg>
