<svg width="256" height="256" viewBox="0 0 256 256" fill="none" xmlns="http://www.w3.org/2000/svg">
<path d="M22.5 198H103.5M116.5 198H111.5H110.5" stroke="#4E5075" stroke-width="4" stroke-linecap="round"/>
<path d="M40.8151 132.884C40.8151 131.5 41.7724 130.301 43.1214 129.994L105.344 115.853C105.776 115.755 106.225 115.755 106.657 115.853L168.879 129.994C170.228 130.301 171.186 131.5 171.186 132.884V196.302C171.186 197.685 170.228 198.884 168.879 199.191L106.657 213.332C106.225 213.43 105.776 213.43 105.344 213.332L43.1214 199.191C41.7724 198.884 40.8151 197.685 40.8151 196.302V132.884Z" fill="#47464E"/>
<path d="M40.8151 134.23C40.8151 132.329 42.5806 130.92 44.4347 131.341L105.344 145.184C105.776 145.282 106.225 145.282 106.657 145.184L167.566 131.341C169.42 130.92 171.186 132.329 171.186 134.23V196.302C171.186 197.685 170.228 198.884 168.879 199.191L106.657 213.332C106.225 213.431 105.776 213.431 105.344 213.332L43.1214 199.191C41.7724 198.884 40.8151 197.685 40.8151 196.302V134.23Z" fill="#947DFF"/>
<path d="M40.8154 134.23V196.302C40.8154 197.685 41.7727 198.884 43.1217 199.191L106.001 213.482V145.333L44.435 131.341C42.5809 130.92 40.8154 132.329 40.8154 134.23Z" fill="url(#paint0_linear_490_14139)"/>
<path d="M40.327 132.697C40.8281 131.895 41.7818 131.498 42.7039 131.708L104.819 145.825L91.673 166.859C91.1719 167.661 90.2181 168.058 89.2961 167.848L30.2299 154.424C28.7386 154.085 28.0274 152.376 28.8379 151.079L40.327 132.697Z" fill="#CABEFF" fill-opacity="0.16" stroke="url(#paint1_linear_490_14139)" stroke-width="1.48148"/>
<path d="M39.6988 128.733C40.367 129.802 41.6386 130.331 42.8681 130.052L106 115.704L92.3012 93.7856C91.6329 92.7165 90.3614 92.1873 89.1319 92.4667L30.0657 105.891C28.0773 106.343 27.1291 108.621 28.2098 110.35L39.6988 128.733Z" fill="#625881"/>
<path d="M171.673 132.697C171.172 131.895 170.218 131.498 169.296 131.708L107.181 145.825L120.327 166.859C120.828 167.661 121.782 168.058 122.704 167.848L181.77 154.424C183.261 154.085 183.973 152.376 183.162 151.079L171.673 132.697Z" fill="#CABEFF" fill-opacity="0.16" stroke="url(#paint2_linear_490_14139)" stroke-width="1.48148"/>
<path d="M172.301 128.733C171.633 129.802 170.361 130.331 169.132 130.052L106 115.704L119.699 93.7856C120.367 92.7165 121.639 92.1873 122.868 92.4667L181.934 105.891C183.923 106.343 184.871 108.621 183.79 110.35L172.301 128.733Z" fill="#625881"/>
<path d="M14.4264 132.746L15.5399 134.027C16.155 134.734 17.2269 134.809 17.9341 134.194V134.194C18.6414 133.579 19.7133 133.654 20.3283 134.361V134.361C20.9433 135.068 22.0152 135.143 22.7225 134.528L24.0031 133.414" stroke="#947DFF" stroke-width="1.2" stroke-linecap="round" stroke-linejoin="round"/>
<path d="M179.289 103.654C178.03 102.578 177.882 100.684 178.959 99.4247C180.035 98.1654 181.929 98.0175 183.188 99.0942L193.829 108.192C195.088 109.269 195.236 111.163 194.159 112.422C193.083 113.681 191.189 113.829 189.93 112.753L179.289 103.654Z" fill="#C4B4E0"/>
<path fill-rule="evenodd" clip-rule="evenodd" d="M182.759 102.674C192.808 90.9208 191.427 73.2461 179.674 63.1965C167.921 53.1468 150.246 54.5278 140.196 66.2811C130.147 78.0344 131.528 95.7091 143.281 105.759C155.034 115.808 172.709 114.427 182.759 102.674ZM178.199 98.7748C186.095 89.5401 185.01 75.6528 175.775 67.7567C166.541 59.8605 152.653 60.9456 144.757 70.1803C136.861 79.415 137.946 93.3023 147.181 101.198C156.416 109.095 170.303 108.01 178.199 98.7748Z" fill="#DDA8E0"/>
<circle opacity="0.6" cx="161.478" cy="84.4776" r="22" transform="rotate(-49.4678 161.478 84.4776)" fill="#302F38"/>
<path opacity="0.6" d="M161.458 67.9015C159.727 67.9015 158.061 68.1762 156.5 68.6845C155.448 69.0271 154.444 69.4757 153.5 70.0178M150.436 95.5C149.217 94.341 148.18 92.9919 147.374 91.5C146.152 89.2395 145.458 86.6515 145.458 83.9015C145.458 81.6254 145.933 79.4603 146.79 77.5" stroke="#FEE8FF" stroke-width="2" stroke-linecap="round" stroke-linejoin="round"/>
<rect x="184.94" y="112.433" width="12" height="28" rx="6" transform="rotate(-49.4678 184.94 112.433)" fill="#C584D0"/>
<rect x="90.9157" y="74.0159" width="2" height="4" rx="1" transform="rotate(-21.6568 90.9157 74.0159)" fill="#D7C947"/>
<ellipse cx="89.9999" cy="68.9998" rx="4" ry="6" transform="rotate(-21.6568 89.9999 68.9998)" fill="#F4E560"/>
<circle cx="87.4166" cy="62.4939" r="2" transform="rotate(-21.6568 87.4166 62.4939)" fill="#6D698D"/>
<ellipse opacity="0.6" cx="82.004" cy="73.2507" rx="6" ry="3" transform="rotate(-37.6568 82.004 73.2507)" fill="#83DA85"/>
<ellipse opacity="0.6" rx="6" ry="3" transform="matrix(0.99513 -0.0985689 -0.0985689 -0.99513 80.8969 70.4625)" fill="#83DA85"/>
<ellipse opacity="0.6" rx="6" ry="3" transform="matrix(-0.99513 0.0985689 0.0985689 0.99513 98.733 66.6081)" fill="#83DA85"/>
<ellipse opacity="0.6" cx="97.6258" cy="63.8199" rx="6" ry="3" transform="rotate(142.343 97.6258 63.8199)" fill="#83DA85"/>
<path d="M95 82.5C98.8333 84.6667 105 91.5 99 101.5C93 111.5 99.1667 118 103 120" stroke="#CABEFF" stroke-linecap="round" stroke-dasharray="4 4"/>
<path d="M141.5 209H222.5M235.5 209H230.5H229.5" stroke="#4E5075" stroke-width="4" stroke-linecap="round"/>
<rect x="219.562" y="155.275" width="8" height="2" rx="1" transform="rotate(-47.5124 219.562 155.275)" fill="#807694"/>
<rect x="215.622" y="151.748" width="8" height="2" rx="1" transform="rotate(-71.5124 215.622 151.748)" fill="#807694"/>
<rect width="8" height="2" rx="1" transform="matrix(0.916974 -0.398948 -0.398948 -0.916974 224.894 160.241)" fill="#807694"/>
<path d="M145 165C145 160.582 148.582 157 153 157H180.823C181.44 157 181.91 157.553 181.81 158.161L180.528 166L185.444 173L181.697 180.196L187.5 189L185.667 181L190.25 175L187 166L192.703 157.445C192.889 157.167 193.201 157 193.535 157H209C213.418 157 217 160.582 217 165V201C217 205.418 213.418 209 209 209H153C148.582 209 145 205.418 145 201V165Z" fill="#C4B4E0"/>
<g style="mix-blend-mode:multiply">
<path d="M141 167H210" stroke="#C9C5D0" stroke-linecap="round"/>
</g>
<rect x="154" y="171" width="12" height="12" rx="4" fill="#AC95D3"/>
<rect x="154" y="189" width="24" height="2" rx="1" fill="#AC95D3"/>
<rect x="154" y="195" width="51" height="2" rx="1" fill="#AC95D3"/>
<circle cx="151.5" cy="162.5" r="1.5" fill="#FF897A"/>
<circle cx="156.5" cy="162.5" r="1.5" fill="#FFF06A"/>
<circle cx="161.5" cy="162.5" r="1.5" fill="#83DA85"/>
<rect x="194.758" y="19.6211" width="6" height="6" rx="0.12" transform="rotate(-44.6341 194.758 19.6211)" fill="#47464E"/>
<path fill-rule="evenodd" clip-rule="evenodd" d="M234.009 76.3301C234.044 76.2704 234.121 76.2503 234.18 76.2851L236.127 77.4204C236.186 77.4552 236.206 77.5319 236.172 77.5916L234.174 81.0165L238.139 81.0344C238.208 81.0347 238.263 81.091 238.263 81.1601L238.253 83.4131C238.253 83.4822 238.196 83.538 238.127 83.5377L234.162 83.5198L236.129 86.9626C236.163 87.0226 236.142 87.099 236.082 87.1333L234.126 88.251C234.066 88.2853 233.99 88.2645 233.955 88.2044L231.989 84.7619L229.991 88.1867C229.956 88.2464 229.879 88.2666 229.819 88.2318L227.873 87.0965C227.814 87.0617 227.793 86.985 227.828 86.9253L229.826 83.5003L225.861 83.4824C225.792 83.4821 225.736 83.4258 225.736 83.3567L225.747 81.1037C225.747 81.0346 225.803 80.9788 225.872 80.9791L229.837 80.997L227.87 77.554C227.836 77.494 227.857 77.4175 227.917 77.3832L229.873 76.2655C229.933 76.2312 230.01 76.2521 230.044 76.3121L232.011 79.7553L234.009 76.3301Z" fill="#5F5D67"/>
<path d="M45.2588 25.7574L45.2879 28.02C45.3039 29.2696 46.3299 30.2695 47.5795 30.2535V30.2535C48.8291 30.2374 49.8551 31.2374 49.8711 32.487V32.487C49.8872 33.7365 50.9132 34.7365 52.1627 34.7205V34.7205C53.4123 34.7044 54.4383 35.7044 54.4544 36.9539L54.4834 39.2165" stroke="#8983A2" stroke-width="1.6" stroke-linecap="round" stroke-linejoin="round"/>
<defs>
<linearGradient id="paint0_linear_490_14139" x1="73.408" y1="130.519" x2="73.408" y2="213.482" gradientUnits="userSpaceOnUse">
<stop stop-color="#423379"/>
<stop offset="1" stop-color="#473296" stop-opacity="0.49"/>
</linearGradient>
<linearGradient id="paint1_linear_490_14139" x1="66" y1="130.519" x2="53.4074" y2="165.333" gradientUnits="userSpaceOnUse">
<stop stop-color="#2E2AF5" stop-opacity="0"/>
<stop offset="1" stop-color="#CACCFE" stop-opacity="0.32"/>
</linearGradient>
<linearGradient id="paint2_linear_490_14139" x1="146" y1="130.519" x2="158.593" y2="165.333" gradientUnits="userSpaceOnUse">
<stop stop-color="#2E2AF5" stop-opacity="0"/>
<stop offset="1" stop-color="#CBCDFF" stop-opacity="0.32"/>
</linearGradient>
</defs>
</svg>
