<svg width="257" height="256" viewBox="0 0 257 256" fill="none" xmlns="http://www.w3.org/2000/svg">
<path d="M23 198H104M117 198H112H111" stroke="#ADAAB4" stroke-width="4" stroke-linecap="round"/>
<path d="M41.3154 132.884C41.3154 131.5 42.2727 130.301 43.6217 129.994L105.844 115.853C106.276 115.755 106.725 115.755 107.157 115.853L169.38 129.994C170.729 130.301 171.686 131.5 171.686 132.884V196.301C171.686 197.685 170.729 198.884 169.38 199.191L107.157 213.332C106.725 213.43 106.276 213.43 105.844 213.332L43.6217 199.191C42.2727 198.884 41.3154 197.685 41.3154 196.301V132.884Z" fill="#47464E"/>
<path d="M41.3154 134.23C41.3154 132.329 43.0809 130.92 44.935 131.341L105.844 145.184C106.276 145.282 106.725 145.282 107.157 145.184L168.066 131.341C169.92 130.92 171.686 132.329 171.686 134.23V196.302C171.686 197.685 170.729 198.884 169.38 199.191L107.157 213.332C106.725 213.431 106.276 213.431 105.844 213.332L43.6217 199.191C42.2727 198.884 41.3154 197.685 41.3154 196.302V134.23Z" fill="#947DFF"/>
<path d="M41.3154 134.23V196.302C41.3154 197.685 42.2727 198.884 43.6217 199.191L102.881 212.659C104.735 213.08 106.501 211.671 106.501 209.77V146.132C106.501 145.665 106.178 145.26 105.722 145.156L44.935 131.341C43.0809 130.92 41.3154 132.329 41.3154 134.23Z" fill="url(#paint0_linear_5794_197247)"/>
<path d="M40.827 132.697C41.3281 131.895 42.2818 131.498 43.2039 131.708L105.319 145.825L92.173 166.859C91.6719 167.661 90.7181 168.058 89.7961 167.848L30.7299 154.424C29.2386 154.085 28.5274 152.376 29.3379 151.079L40.827 132.697Z" fill="#CABEFF" fill-opacity="0.16" stroke="url(#paint1_linear_5794_197247)" stroke-width="1.48148"/>
<path d="M40.1988 128.733C40.867 129.802 42.1386 130.331 43.3681 130.052L106.5 115.704L92.8012 93.7856C92.1329 92.7165 90.8614 92.1873 89.6319 92.4667L30.5657 105.891C28.5773 106.343 27.6291 108.621 28.7098 110.35L40.1988 128.733Z" fill="#E6DEFF"/>
<path d="M172.173 132.697C171.672 131.895 170.718 131.498 169.796 131.708L107.681 145.825L120.827 166.859C121.328 167.661 122.282 168.058 123.204 167.848L182.27 154.424C183.761 154.085 184.473 152.376 183.662 151.079L172.173 132.697Z" fill="#CABEFF" fill-opacity="0.16" stroke="url(#paint2_linear_5794_197247)" stroke-width="1.48148"/>
<path d="M172.801 128.733C172.133 129.802 170.861 130.331 169.632 130.052L106.5 115.704L120.199 93.7856C120.867 92.7165 122.139 92.1873 123.368 92.4667L182.434 105.891C184.423 106.343 185.371 108.621 184.29 110.35L172.801 128.733Z" fill="#E6DEFF"/>
<path d="M14.9268 132.746L16.0404 134.027C16.6554 134.734 17.7273 134.809 18.4345 134.194V134.194C19.1418 133.579 20.2137 133.654 20.8287 134.361V134.361C21.4437 135.068 22.5157 135.143 23.2229 134.528L24.5035 133.414" stroke="#947DFF" stroke-width="1.2" stroke-linecap="round" stroke-linejoin="round"/>
<path d="M179.789 103.655C178.53 102.578 178.382 100.684 179.458 99.425C180.535 98.1657 182.429 98.0177 183.688 99.0945L194.329 108.193C195.588 109.269 195.736 111.163 194.659 112.422C193.582 113.682 191.689 113.83 190.429 112.753L179.789 103.655Z" fill="#47464E"/>
<path fill-rule="evenodd" clip-rule="evenodd" d="M183.259 102.674C193.308 90.9211 191.927 73.2463 180.174 63.1967C168.421 53.147 150.746 54.5281 140.696 66.2813C130.647 78.0346 132.028 95.7094 143.781 105.759C155.534 115.809 173.209 114.428 183.259 102.674ZM178.699 98.7751C186.595 89.5404 185.51 75.6531 176.275 67.7569C167.041 59.8608 153.153 60.9459 145.257 70.1806C137.361 79.4153 138.446 93.3026 147.681 101.199C156.916 109.095 170.803 108.01 178.699 98.7751Z" fill="#FAABFF"/>
<circle opacity="0.6" cx="161.978" cy="84.4777" r="22" transform="rotate(-49.4678 161.978 84.4777)" fill="#302F38"/>
<path opacity="0.6" d="M161.958 67.9019C160.227 67.9019 158.561 68.1766 157 68.6849C155.948 69.0274 154.944 69.4761 154 70.0182M150.936 95.5004C149.717 94.3414 148.68 92.9922 147.874 91.5004C146.652 89.2399 145.958 86.6519 145.958 83.9019C145.958 81.6257 146.433 79.4606 147.29 77.5004" stroke="#FEE8FF" stroke-width="2" stroke-linecap="round" stroke-linejoin="round"/>
<rect x="185.439" y="112.434" width="12" height="28" rx="6" transform="rotate(-49.4678 185.439 112.434)" fill="#D361E7"/>
<rect x="91.416" y="74.0156" width="2" height="4" rx="1" transform="rotate(-21.6568 91.416 74.0156)" fill="#D7C947"/>
<ellipse cx="90.5003" cy="68.9997" rx="4" ry="6" transform="rotate(-21.6568 90.5003 68.9997)" fill="#F4E560"/>
<circle cx="87.9163" cy="62.4938" r="2" transform="rotate(-21.6568 87.9163 62.4938)" fill="#47464E"/>
<g style="mix-blend-mode:multiply" opacity="0.6">
<ellipse cx="82.5048" cy="73.2505" rx="6" ry="3" transform="rotate(-37.6568 82.5048 73.2505)" fill="#83DA85"/>
</g>
<g style="mix-blend-mode:multiply" opacity="0.6">
<ellipse rx="6" ry="3" transform="matrix(0.99513 -0.0985689 -0.0985689 -0.99513 81.3977 70.4623)" fill="#83DA85"/>
</g>
<g style="mix-blend-mode:multiply" opacity="0.6">
<ellipse rx="6" ry="3" transform="matrix(-0.99513 0.0985689 0.0985689 0.99513 99.2331 66.6081)" fill="#83DA85"/>
</g>
<g style="mix-blend-mode:multiply" opacity="0.6">
<ellipse cx="98.1261" cy="63.8198" rx="6" ry="3" transform="rotate(142.343 98.1261 63.8198)" fill="#83DA85"/>
</g>
<path d="M95.5 82.5C99.3333 84.6667 105.5 91.5 99.5 101.5C93.5 111.5 99.6667 118 103.5 120" stroke="#947DFF" stroke-linecap="round" stroke-dasharray="4 4"/>
<path d="M142 209H223M236 209H231H230" stroke="#ADAAB4" stroke-width="4" stroke-linecap="round"/>
<rect x="220.062" y="155.274" width="8" height="2" rx="1" transform="rotate(-47.5124 220.062 155.274)" fill="#C4C7C7"/>
<rect x="216.122" y="151.749" width="8" height="2" rx="1" transform="rotate(-71.5124 216.122 151.749)" fill="#C4C7C7"/>
<rect width="8" height="2" rx="1" transform="matrix(0.916974 -0.398948 -0.398948 -0.916974 225.394 160.241)" fill="#C4C7C7"/>
<path d="M145.5 165C145.5 160.582 149.082 157 153.5 157H181.323C181.94 157 182.41 157.553 182.31 158.161L181.028 166L185.944 173L182.197 180.196L188 189L186.167 181L190.75 175L187.5 166L193.203 157.445C193.389 157.167 193.701 157 194.035 157H209.5C213.918 157 217.5 160.582 217.5 165V201C217.5 205.418 213.918 209 209.5 209H153.5C149.082 209 145.5 205.418 145.5 201V165Z" fill="#E5E1EC"/>
<g style="mix-blend-mode:multiply">
<path fill-rule="evenodd" clip-rule="evenodd" d="M141 167C141 166.724 141.224 166.5 141.5 166.5H210.5C210.776 166.5 211 166.724 211 167C211 167.276 210.776 167.5 210.5 167.5H141.5C141.224 167.5 141 167.276 141 167Z" fill="#C9C5D0"/>
</g>
<path d="M154.5 175C154.5 172.791 156.291 171 158.5 171H162.5C164.709 171 166.5 172.791 166.5 175V179C166.5 181.209 164.709 183 162.5 183H158.5C156.291 183 154.5 181.209 154.5 179V175Z" fill="#ADAAB4"/>
<path d="M154.5 190C154.5 189.448 154.948 189 155.5 189H177.5C178.052 189 178.5 189.448 178.5 190C178.5 190.552 178.052 191 177.5 191H155.5C154.948 191 154.5 190.552 154.5 190Z" fill="#C9C5D0"/>
<path d="M154.5 196C154.5 195.448 154.948 195 155.5 195H204.5C205.052 195 205.5 195.448 205.5 196C205.5 196.552 205.052 197 204.5 197H155.5C154.948 197 154.5 196.552 154.5 196Z" fill="#C9C5D0"/>
<circle cx="152" cy="162.5" r="1.5" fill="#FF897A"/>
<circle cx="157" cy="162.5" r="1.5" fill="#FFF06A"/>
<circle cx="162" cy="162.5" r="1.5" fill="#83DA85"/>
<rect x="215.258" y="22.6211" width="6" height="6" rx="0.12" transform="rotate(-44.6341 215.258 22.6211)" fill="#E5E1EC"/>
<path fill-rule="evenodd" clip-rule="evenodd" d="M234.509 76.33C234.544 76.2703 234.621 76.2501 234.68 76.285L236.627 77.4203C236.686 77.4551 236.706 77.5317 236.672 77.5914L234.674 81.0163L238.639 81.0342C238.708 81.0345 238.763 81.0908 238.763 81.1599L238.753 83.4129C238.753 83.482 238.696 83.5378 238.627 83.5375L234.662 83.5196L236.629 86.9624C236.663 87.0225 236.642 87.0989 236.582 87.1332L234.626 88.2509C234.566 88.2852 234.49 88.2643 234.455 88.2043L232.489 84.7618L230.491 88.1866C230.456 88.2463 230.379 88.2665 230.319 88.2316L228.373 87.0964C228.314 87.0615 228.293 86.9849 228.328 86.9252L230.326 83.5001L226.361 83.4822C226.292 83.4819 226.236 83.4256 226.236 83.3565L226.247 81.1035C226.247 81.0344 226.303 80.9786 226.372 80.9789L230.337 80.9968L228.37 77.5539C228.336 77.4938 228.357 77.4174 228.417 77.3831L230.373 76.2654C230.433 76.2311 230.51 76.252 230.544 76.312L232.511 79.7552L234.509 76.33Z" fill="#E5E1EC"/>
<path d="M45.7578 25.7573L45.7869 28.0199C45.8029 29.2695 46.8289 30.2694 48.0785 30.2534V30.2534C49.3281 30.2373 50.3541 31.2373 50.3701 32.4868V32.4868C50.3862 33.7364 51.4122 34.7364 52.6618 34.7203V34.7203C53.9113 34.7043 54.9373 35.7042 54.9534 36.9538L54.9825 39.2164" stroke="#F7F8F8" stroke-width="1.6" stroke-linecap="round" stroke-linejoin="round"/>
<path d="M45.7578 25.7573L45.7869 28.0199C45.8029 29.2695 46.8289 30.2694 48.0785 30.2534V30.2534C49.3281 30.2373 50.3541 31.2373 50.3701 32.4868V32.4868C50.3862 33.7364 51.4122 34.7364 52.6618 34.7203V34.7203C53.9113 34.7043 54.9373 35.7042 54.9534 36.9538L54.9825 39.2164" stroke="#78767F" stroke-opacity="0.02" stroke-width="1.6" stroke-linecap="round" stroke-linejoin="round"/>
<path d="M45.7578 25.7573L45.7869 28.0199C45.8029 29.2695 46.8289 30.2694 48.0785 30.2534V30.2534C49.3281 30.2373 50.3541 31.2373 50.3701 32.4868V32.4868C50.3862 33.7364 51.4122 34.7364 52.6618 34.7203V34.7203C53.9113 34.7043 54.9373 35.7042 54.9534 36.9538L54.9825 39.2164" stroke="#5D34F2" stroke-opacity="0.11" stroke-width="1.6" stroke-linecap="round" stroke-linejoin="round"/>
<defs>
<linearGradient id="paint0_linear_5794_197247" x1="73.908" y1="130.519" x2="73.908" y2="213.482" gradientUnits="userSpaceOnUse">
<stop stop-color="#4F33B7"/>
<stop offset="1" stop-color="#5337B8" stop-opacity="0"/>
</linearGradient>
<linearGradient id="paint1_linear_5794_197247" x1="66.5" y1="130.519" x2="53.9074" y2="165.333" gradientUnits="userSpaceOnUse">
<stop stop-color="#2E2AF5" stop-opacity="0"/>
<stop offset="1" stop-color="#A1A5FF" stop-opacity="0.32"/>
</linearGradient>
<linearGradient id="paint2_linear_5794_197247" x1="146.5" y1="130.519" x2="159.093" y2="165.333" gradientUnits="userSpaceOnUse">
<stop stop-color="#2E2AF5" stop-opacity="0"/>
<stop offset="1" stop-color="#A1A5FF" stop-opacity="0.32"/>
</linearGradient>
</defs>
</svg>
