<svg width="24" height="24" viewBox="0 0 24 24" fill="none" xmlns="http://www.w3.org/2000/svg">
<g clip-path="url(#clip0_2113_14561)">
<path d="M7.75042 4.9922C7.67576 5.06686 7.61909 5.15686 7.57176 5.25553L7.56642 5.2502L0.0890901 22.0942L0.0964234 22.1015C-0.0422433 22.3702 0.189757 22.9169 0.66509 23.3929C1.14042 23.8682 1.68709 24.1002 1.95576 23.9615L1.96242 23.9682L18.8064 16.4902L18.8011 16.4842C18.8991 16.4375 18.9891 16.3809 19.0644 16.3049C20.1058 15.2635 18.4171 11.8869 15.2938 8.76286C12.1691 5.63886 8.79242 3.95086 7.75042 4.9922Z" fill="#DD2E44"/>
<path d="M8.66642 8L0.27709 21.6707L0.0890901 22.094L0.0964234 22.1013C-0.0422433 22.37 0.189757 22.9167 0.66509 23.3927C0.819757 23.5473 0.980423 23.6647 1.13776 23.764L11.3331 11.3333L8.66642 8Z" fill="#EA596E"/>
<path d="M15.3418 8.7107C18.4551 11.8254 20.1838 15.1454 19.2011 16.1267C18.2191 17.1094 14.8991 15.3814 11.7838 12.268C8.66977 9.15336 6.94177 5.83203 7.92377 4.85003C8.90643 3.86803 12.2264 5.59603 15.3418 8.7107Z" fill="#A0041E"/>
<path d="M12.3932 9.07254C12.2606 9.17987 12.0872 9.23587 11.9039 9.21587C11.3252 9.1532 10.8386 8.95187 10.4979 8.63387C10.1372 8.29721 9.95923 7.8452 10.0079 7.39254C10.0932 6.59787 10.8906 5.86854 12.2499 6.0152C12.7786 6.07187 13.0146 5.90187 13.0226 5.82054C13.0319 5.73987 12.8379 5.52321 12.3092 5.46587C11.7306 5.40321 11.2439 5.20187 10.9026 4.88387C10.5419 4.5472 10.3632 4.09521 10.4126 3.64254C10.4992 2.84787 11.2959 2.11854 12.6539 2.26587C13.0392 2.30721 13.2426 2.22787 13.3286 2.17654C13.3972 2.13454 13.4246 2.09454 13.4272 2.07121C13.4352 1.99054 13.2439 1.77387 12.7139 1.71654C12.3479 1.67654 12.0826 1.34854 12.1232 0.981872C12.1626 0.615872 12.4899 0.351205 12.8572 0.391205C14.2152 0.537205 14.8392 1.41921 14.7532 2.21454C14.6666 3.01054 13.8699 3.73854 12.5106 3.59254C12.1252 3.55054 11.9239 3.63054 11.8372 3.68187C11.7686 3.7232 11.7406 3.76387 11.7379 3.78654C11.7292 3.86787 11.9219 4.08387 12.4519 4.1412C13.8099 4.28787 14.4339 5.16921 14.3479 5.96454C14.2619 6.7592 13.4652 7.48854 12.1066 7.34121C11.7212 7.29987 11.5186 7.37987 11.4319 7.43054C11.3626 7.47321 11.3359 7.51321 11.3332 7.53587C11.3246 7.61654 11.5172 7.83321 12.0466 7.89054C12.4119 7.93054 12.6779 8.2592 12.6372 8.62521C12.6186 8.80787 12.5259 8.96587 12.3932 9.07254Z" fill="#AA8DD8"/>
<path d="M20.4411 15.2379C21.7564 14.8666 22.6638 15.4532 22.8798 16.2232C23.0958 16.9926 22.6278 17.9666 21.3131 18.3366C20.7998 18.4806 20.6458 18.7259 20.6664 18.8039C20.6891 18.8826 20.9498 19.0119 21.4618 18.8672C22.7764 18.4972 23.6838 19.0839 23.8998 19.8532C24.1171 20.6232 23.6478 21.5959 22.3324 21.9666C21.8198 22.1106 21.6651 22.3566 21.6878 22.4346C21.7098 22.5126 21.9698 22.6419 22.4824 22.4979C22.8358 22.3986 23.2051 22.6046 23.3044 22.9586C23.4031 23.3132 23.1971 23.6812 22.8424 23.7812C21.5284 24.1512 20.6204 23.5659 20.4031 22.7952C20.1871 22.0259 20.6558 21.0532 21.9718 20.6826C22.4851 20.5379 22.6391 20.2932 22.6164 20.2146C22.5951 20.1366 22.3351 20.0066 21.8231 20.1506C20.5071 20.5212 19.6004 19.9359 19.3838 19.1646C19.1671 18.3952 19.6358 17.4226 20.9511 17.0512C21.4631 16.9079 21.6171 16.6612 21.5958 16.5839C21.5731 16.5052 21.3138 16.3759 20.8011 16.5199C20.4464 16.6199 20.0791 16.4132 19.9791 16.0592C19.8798 15.7059 20.0864 15.3379 20.4411 15.2379Z" fill="#77B255"/>
<path d="M15.3342 13.4401C15.1382 13.4401 14.9449 13.3541 14.8129 13.1901C14.5829 12.9021 14.6302 12.4828 14.9169 12.2528C15.0622 12.1361 18.5289 9.41345 23.4282 10.1141C23.7929 10.1661 24.0462 10.5034 23.9942 10.8681C23.9422 11.2321 23.6075 11.4881 23.2395 11.4334C18.9109 10.8188 15.7815 13.2695 15.7509 13.2941C15.6269 13.3928 15.4802 13.4401 15.3342 13.4401Z" fill="#AA8DD8"/>
<path d="M3.83631 10.6667C3.77297 10.6667 3.70831 10.6574 3.64431 10.6387C3.29164 10.5327 3.09164 10.1614 3.19764 9.80873C3.95297 7.29339 4.63764 3.27939 3.79631 2.23273C3.70231 2.11406 3.56031 1.99739 3.23497 2.02206C2.60964 2.07006 2.66897 3.38939 2.66964 3.40273C2.69764 3.77006 2.42164 4.09006 2.05497 4.11739C1.68231 4.14006 1.36764 3.86939 1.34031 3.50206C1.27164 2.58273 1.55764 0.81206 3.13497 0.692727C3.83897 0.639394 4.42364 0.88406 4.83631 1.39739C6.41697 3.36473 4.81231 9.06806 4.47497 10.1921C4.38831 10.4807 4.12297 10.6667 3.83631 10.6667Z" fill="#77B255"/>
<path d="M17 7.3335C17.5523 7.3335 18 6.88578 18 6.3335C18 5.78121 17.5523 5.3335 17 5.3335C16.4477 5.3335 16 5.78121 16 6.3335C16 6.88578 16.4477 7.3335 17 7.3335Z" fill="#5C913B"/>
<path d="M1.33333 13.3332C2.06971 13.3332 2.66667 12.7362 2.66667 11.9998C2.66667 11.2635 2.06971 10.6665 1.33333 10.6665C0.596954 10.6665 0 11.2635 0 11.9998C0 12.7362 0.596954 13.3332 1.33333 13.3332Z" fill="#9266CC"/>
<path d="M21.667 14C22.2193 14 22.667 13.5523 22.667 13C22.667 12.4477 22.2193 12 21.667 12C21.1147 12 20.667 12.4477 20.667 13C20.667 13.5523 21.1147 14 21.667 14Z" fill="#5C913B"/>
<path d="M15.667 22C16.2193 22 16.667 21.5523 16.667 21C16.667 20.4477 16.2193 20 15.667 20C15.1147 20 14.667 20.4477 14.667 21C14.667 21.5523 15.1147 22 15.667 22Z" fill="#5C913B"/>
<path d="M18.6663 4.00016C19.4027 4.00016 19.9997 3.40321 19.9997 2.66683C19.9997 1.93045 19.4027 1.3335 18.6663 1.3335C17.93 1.3335 17.333 1.93045 17.333 2.66683C17.333 3.40321 17.93 4.00016 18.6663 4.00016Z" fill="#FFCC4D"/>
<path d="M21.667 6.6665C22.2193 6.6665 22.667 6.21879 22.667 5.6665C22.667 5.11422 22.2193 4.6665 21.667 4.6665C21.1147 4.6665 20.667 5.11422 20.667 5.6665C20.667 6.21879 21.1147 6.6665 21.667 6.6665Z" fill="#FFCC4D"/>
<path d="M19.667 9.3335C20.2193 9.3335 20.667 8.88578 20.667 8.3335C20.667 7.78121 20.2193 7.3335 19.667 7.3335C19.1147 7.3335 18.667 7.78121 18.667 8.3335C18.667 8.88578 19.1147 9.3335 19.667 9.3335Z" fill="#FFCC4D"/>
<path d="M5 16.6665C5.55228 16.6665 6 16.2188 6 15.6665C6 15.1142 5.55228 14.6665 5 14.6665C4.44772 14.6665 4 15.1142 4 15.6665C4 16.2188 4.44772 16.6665 5 16.6665Z" fill="#FFCC4D"/>
</g>
<defs>
<clipPath id="clip0_2113_14561">
<rect width="24" height="24" fill="white"/>
</clipPath>
</defs>
</svg>
