<svg width="24" height="24" viewBox="0 0 24 24" fill="none" xmlns="http://www.w3.org/2000/svg">
<g clip-path="url(#clip0_301_11656)">
<rect x="7" y="8" width="4" height="4" fill="#938BB7"/>
<rect x="21" y="14" width="2" height="2" fill="#FFB95A"/>
<rect x="16.5859" y="6.97363" width="2" height="2" transform="rotate(-43.9234 16.5859 6.97363)" fill="#DAD387"/>
<path d="M3.28309 1.40903C3.44262 1.3467 3.60484 1.49324 3.55898 1.65826L3.16167 3.08817C3.1203 3.23703 2.93673 3.29033 2.82208 3.18675L1.83709 2.29694C1.72243 2.19337 1.75686 2.00534 1.90078 1.94911L3.28309 1.40903Z" fill="#85C086"/>
<path fill-rule="evenodd" clip-rule="evenodd" d="M9 6C9.55228 6 10 5.55228 10 5C10 4.44772 9.55228 4 9 4C8.44772 4 8 4.44772 8 5C8 5.55228 8.44772 6 9 6ZM9 5.5C9.27614 5.5 9.5 5.27614 9.5 5C9.5 4.72386 9.27614 4.5 9 4.5C8.72386 4.5 8.5 4.72386 8.5 5C8.5 5.27614 8.72386 5.5 9 5.5Z" fill="#71B373"/>
<path fill-rule="evenodd" clip-rule="evenodd" d="M21 3C21.5523 3 22 2.55228 22 2C22 1.44772 21.5523 1 21 1C20.4477 1 20 1.44772 20 2C20 2.55228 20.4477 3 21 3ZM21 2.5C21.2761 2.5 21.5 2.27614 21.5 2C21.5 1.72386 21.2761 1.5 21 1.5C20.7239 1.5 20.5 1.72386 20.5 2C20.5 2.27614 20.7239 2.5 21 2.5Z" fill="#8E9192"/>
<path d="M13.0908 5.76081L12.769 4.8746C12.5913 4.38516 12.844 3.84434 13.3335 3.66664V3.66664C13.8229 3.48894 14.0756 2.94812 13.8979 2.45868V2.45868C13.7202 1.96924 13.9729 1.42842 14.4624 1.25072L15.3486 0.928965" stroke="#9288C4" stroke-width="0.666667" stroke-linecap="round" stroke-linejoin="round"/>
<path d="M20.6056 9.80445L20.3946 10.3293C20.278 10.6192 19.9486 10.7596 19.6587 10.6431V10.6431C19.3688 10.5265 19.0394 10.667 18.9228 10.9569V10.9569C18.8062 11.2467 18.4768 11.3872 18.1869 11.2706L17.6621 11.0596" stroke="#79B679" stroke-width="0.666667" stroke-linecap="round" stroke-linejoin="round"/>
<path fill-rule="evenodd" clip-rule="evenodd" d="M13 15C14.6569 15 16 13.6569 16 12C16 10.3431 14.6569 9 13 9C11.3431 9 10 10.3431 10 12C10 13.6569 11.3431 15 13 15ZM13 13.5C13.8284 13.5 14.5 12.8284 14.5 12C14.5 11.1716 13.8284 10.5 13 10.5C12.1716 10.5 11.5 11.1716 11.5 12C11.5 12.8284 12.1716 13.5 13 13.5Z" fill="#FFB95A"/>
<path fill-rule="evenodd" clip-rule="evenodd" d="M15.5829 12.0417C15.5829 12.0187 15.6015 12 15.6246 12H16.3756C16.3986 12 16.4173 12.0187 16.4173 12.0417V13.3634L17.5619 12.7026C17.5818 12.6911 17.6074 12.6979 17.6189 12.7179L17.9944 13.3682C18.0059 13.3882 17.9991 13.4137 17.9791 13.4252L16.8344 14.0861L17.9791 14.747C17.999 14.7585 18.0059 14.784 17.9943 14.804L17.6188 15.4543C17.6073 15.4743 17.5818 15.4811 17.5618 15.4696L16.4173 14.8088V16.1305C16.4173 16.1535 16.3986 16.1722 16.3756 16.1722H15.6246C15.6015 16.1722 15.5829 16.1535 15.5829 16.1305V14.8087L14.4381 15.4696C14.4182 15.4811 14.3927 15.4743 14.3811 15.4543L14.0056 14.804C13.9941 14.784 14.001 14.7585 14.0209 14.747L15.1655 14.0861L14.0209 13.4252C14.0009 13.4137 13.9941 13.3882 14.0056 13.3682L14.3811 12.7179C14.3926 12.6979 14.4181 12.6911 14.4381 12.7026L15.5829 13.3635V12.0417Z" fill="#8B79D1"/>
<path d="M2.47197 20.6848C2.29825 21.206 2.79407 21.7018 3.31524 21.5281L15.8762 17.3411C16.3464 17.1844 16.4873 16.5877 16.1368 16.2373L7.76283 7.86325C7.4124 7.51282 6.81569 7.65368 6.65897 8.12384L2.47197 20.6848Z" fill="#FF5449"/>
<mask id="mask0_301_11656" style="mask-type:alpha" maskUnits="userSpaceOnUse" x="2" y="7" width="15" height="15">
<path d="M2.47197 20.6848C2.29825 21.206 2.79407 21.7018 3.31524 21.5281L15.8762 17.3411C16.3464 17.1844 16.4873 16.5877 16.1368 16.2373L7.76283 7.86325C7.4124 7.51282 6.81569 7.65368 6.65897 8.12384L2.47197 20.6848Z" fill="#FF5449"/>
</mask>
<g mask="url(#mask0_301_11656)">
<rect x="2.35986" y="8.72061" width="16" height="2" rx="0.666667" transform="rotate(15 2.35986 8.72061)" fill="#FFB4A9"/>
<rect x="1.65283" y="12.2563" width="16" height="2" rx="0.666667" transform="rotate(15 1.65283 12.2563)" fill="#FFB4A9"/>
<rect x="0.945801" y="15.7919" width="16" height="2" rx="0.666667" transform="rotate(15 0.945801 15.7919)" fill="#FFB4A9"/>
</g>
<path d="M3.51846 14.2874C3.51533 14.2215 3.58872 14.1804 3.64328 14.2174L5.25425 15.3101C5.30347 15.3435 5.30035 15.417 5.24848 15.4461L3.72989 16.2978C3.67802 16.3269 3.61367 16.2912 3.61084 16.2318L3.51846 14.2874Z" fill="#68BE6C"/>
<path d="M19.1935 19.5618L18.7966 19.1588C18.5774 18.9361 18.2193 18.9334 17.9966 19.1526V19.1526C17.774 19.3717 17.4159 19.369 17.1967 19.1464V19.1464C16.9775 18.9237 16.6193 18.921 16.3967 19.1402L15.9936 19.537" stroke="#FF897A" stroke-width="0.666667" stroke-linecap="round" stroke-linejoin="round"/>
</g>
<defs>
<clipPath id="clip0_301_11656">
<rect width="24" height="24" fill="white"/>
</clipPath>
</defs>
</svg>
