<svg width="24" height="24" viewBox="0 0 24 24" fill="none" xmlns="http://www.w3.org/2000/svg">
<g clip-path="url(#clip0_3616_33231)">
<rect x="7" y="8" width="4" height="4" fill="#947DFF"/>
<rect x="21" y="14" width="2" height="2" fill="#FFB95A"/>
<rect x="16.5859" y="6.97266" width="2" height="2" transform="rotate(-43.9234 16.5859 6.97266)" fill="#FFF480"/>
<path d="M3.52271 1.31646C3.58411 1.29247 3.64655 1.34888 3.6289 1.41239L3.10775 3.28796C3.09183 3.34526 3.02118 3.36577 2.97705 3.32591L1.68505 2.15876C1.64092 2.1189 1.65417 2.04653 1.70957 2.02488L3.52271 1.31646Z" fill="#68BE6C"/>
<path fill-rule="evenodd" clip-rule="evenodd" d="M9 6C9.55228 6 10 5.55228 10 5C10 4.44772 9.55228 4 9 4C8.44772 4 8 4.44772 8 5C8 5.55228 8.44772 6 9 6ZM9 5.5C9.27614 5.5 9.5 5.27614 9.5 5C9.5 4.72386 9.27614 4.5 9 4.5C8.72386 4.5 8.5 4.72386 8.5 5C8.5 5.27614 8.72386 5.5 9 5.5Z" fill="#83DA85"/>
<path fill-rule="evenodd" clip-rule="evenodd" d="M21 3C21.5523 3 22 2.55228 22 2C22 1.44772 21.5523 1 21 1C20.4477 1 20 1.44772 20 2C20 2.55228 20.4477 3 21 3ZM21 2.5C21.2761 2.5 21.5 2.27614 21.5 2C21.5 1.72386 21.2761 1.5 21 1.5C20.7239 1.5 20.5 1.72386 20.5 2C20.5 2.27614 20.7239 2.5 21 2.5Z" fill="#C4C7C7"/>
<path d="M13.0947 5.76172L12.7729 4.87551C12.5952 4.38607 12.8479 3.84525 13.3374 3.66755V3.66755C13.8268 3.48985 14.0795 2.94903 13.9018 2.45959V2.45959C13.7241 1.97015 13.9769 1.42933 14.4663 1.25163L15.3525 0.929881" stroke="#AF9EFF" stroke-width="0.666667" stroke-linecap="round" stroke-linejoin="round"/>
<path d="M20.6081 9.80512L20.397 10.33C20.2805 10.6198 19.951 10.7603 19.6611 10.6437V10.6437C19.3713 10.5272 19.0418 10.6677 18.9252 10.9575V10.9575C18.8087 11.2474 18.4792 11.3879 18.1894 11.2713L17.6645 11.0603" stroke="#68BE6C" stroke-width="0.666667" stroke-linecap="round" stroke-linejoin="round"/>
<path fill-rule="evenodd" clip-rule="evenodd" d="M13 15C14.6569 15 16 13.6569 16 12C16 10.3431 14.6569 9 13 9C11.3431 9 10 10.3431 10 12C10 13.6569 11.3431 15 13 15ZM13 13.5C13.8284 13.5 14.5 12.8284 14.5 12C14.5 11.1716 13.8284 10.5 13 10.5C12.1716 10.5 11.5 11.1716 11.5 12C11.5 12.8284 12.1716 13.5 13 13.5Z" fill="#FFB95A"/>
<path fill-rule="evenodd" clip-rule="evenodd" d="M15.5829 12.0417C15.5829 12.0187 15.6015 12 15.6246 12H16.3756C16.3986 12 16.4173 12.0187 16.4173 12.0417V13.3634L17.5619 12.7026C17.5819 12.6911 17.6074 12.6979 17.6189 12.7179L17.9944 13.3682C18.0059 13.3882 17.9991 13.4137 17.9791 13.4252L16.8344 14.0861L17.9791 14.747C17.999 14.7585 18.0059 14.784 17.9943 14.804L17.6188 15.4543C17.6073 15.4743 17.5818 15.4811 17.5618 15.4696L16.4173 14.8088V16.1305C16.4173 16.1535 16.3986 16.1722 16.3756 16.1722H15.6246C15.6015 16.1722 15.5829 16.1535 15.5829 16.1305V14.8087L14.4382 15.4696C14.4182 15.4811 14.3927 15.4743 14.3812 15.4543L14.0057 14.804C13.9941 14.784 14.001 14.7585 14.0209 14.747L15.1656 14.0861L14.0209 13.4252C14.0009 13.4137 13.9941 13.3882 14.0056 13.3682L14.3811 12.7179C14.3926 12.6979 14.4181 12.6911 14.4381 12.7026L15.5829 13.3635V12.0417Z" fill="#7958FF"/>
<path d="M2.47295 20.6848C2.29922 21.206 2.79505 21.7018 3.31622 21.5281L15.8772 17.3411C16.3474 17.1844 16.4882 16.5877 16.1378 16.2373L7.76381 7.86325C7.41337 7.51282 6.81666 7.65368 6.65995 8.12384L2.47295 20.6848Z" fill="#FF5449"/>
<mask id="mask0_3616_33231" style="mask-type:alpha" maskUnits="userSpaceOnUse" x="2" y="7" width="15" height="15">
<path d="M2.47295 20.6848C2.29922 21.206 2.79505 21.7018 3.31622 21.5281L15.8772 17.3411C16.3474 17.1844 16.4882 16.5877 16.1378 16.2373L7.76381 7.86325C7.41337 7.51282 6.81666 7.65368 6.65995 8.12384L2.47295 20.6848Z" fill="#FF5449"/>
</mask>
<g mask="url(#mask0_3616_33231)">
<rect x="2.35938" y="8.71875" width="16" height="2" rx="0.666667" transform="rotate(15 2.35938 8.71875)" fill="#FFB4A9"/>
<rect x="1.65234" y="12.2559" width="16" height="2" rx="0.666667" transform="rotate(15 1.65234 12.2559)" fill="#FFB4A9"/>
<rect x="0.945312" y="15.791" width="16" height="2" rx="0.666667" transform="rotate(15 0.945312 15.791)" fill="#FFB4A9"/>
</g>
<path d="M3.51651 14.2879C3.51338 14.222 3.58677 14.1808 3.64133 14.2178L5.2523 15.3106C5.30152 15.344 5.29839 15.4175 5.24652 15.4466L3.72793 16.2983C3.67606 16.3274 3.61171 16.2917 3.60889 16.2323L3.51651 14.2879Z" fill="#68BE6C"/>
<path d="M19.193 19.5617L18.7961 19.1586C18.5769 18.936 18.2188 18.9332 17.9962 19.1524V19.1524C17.7735 19.3716 17.4154 19.3688 17.1962 19.1462V19.1462C16.977 18.9236 16.6188 18.9208 16.3962 19.14L15.9931 19.5369" stroke="#FF897A" stroke-width="0.666667" stroke-linecap="round" stroke-linejoin="round"/>
</g>
<defs>
<clipPath id="clip0_3616_33231">
<rect width="24" height="24" fill="white"/>
</clipPath>
</defs>
</svg>
