<svg width="256" height="256" viewBox="0 0 256 256" fill="none" xmlns="http://www.w3.org/2000/svg">
<g style="mix-blend-mode:multiply">
<path fill-rule="evenodd" clip-rule="evenodd" d="M25.8136 221.968C30.7048 221.275 33.0654 204.937 33.237 184.435C34.5472 183.411 35.925 182.128 37.337 180.716C41.966 176.087 44.0418 170.658 42.4923 169.108C41.1854 167.801 37.1189 169.073 33.1003 172.28C32.5427 154.889 30.3374 142.006 25.4874 142.006C18.9528 142.006 17.7276 159.911 17.7276 181.998C17.7276 184.755 17.7658 187.447 17.8429 190.047C16.0016 187.933 14.2679 186.775 12.9523 186.775C9.37094 186.775 11.1471 196.538 14.8107 206.101C17.3523 212.735 20.3142 218.208 23.0239 220.504C23.6306 221.299 24.2917 221.79 25.0082 221.941C25.0049 220.59 24.9957 217.22 24.983 212.664C21.5345 206.012 14.3331 192.547 14.3331 192.547L24.9746 209.632L24.9538 202.195L24.9538 202.194L24.9538 202.187C24.9382 196.597 24.9209 190.416 24.9042 184.399C24.8526 184.447 24.8261 184.472 24.8261 184.472V182.264C24.8499 182.243 24.874 182.222 24.8982 182.2C24.8597 168.284 24.8261 155.764 24.8261 154.238C24.8261 151.859 25.2659 160.57 25.5585 181.654C29.713 178.369 37.6646 174.596 37.6646 174.596C31.9599 178.247 27.3412 182.213 25.5869 183.78C25.7167 193.846 25.8112 206.534 25.8136 221.968Z" fill="url(#paint0_linear_8207_107673)"/>
</g>
<path d="M9.88165 224H40.1255C43.0059 224 44.8061 220.602 40.1255 218.337C35.4449 216.072 24.2835 214.373 15.6424 215.223C7.00129 216.072 6.64124 224 9.88165 224Z" fill="#C8BEE6"/>
<circle cx="99" cy="112" r="84" fill="url(#paint1_linear_8207_107673)"/>
<path fill-rule="evenodd" clip-rule="evenodd" d="M140.954 172.951C125.886 171.862 114 159.293 114 143.947C114 128.218 126.487 115.406 142.088 114.883C146.304 97.7265 161.789 85 180.246 85C198.135 85 213.232 96.9546 217.983 113.311C234.439 113.836 247.613 126.999 247.613 143.161C247.613 158.81 235.261 171.648 219.538 172.923V173.125H140.954V172.951Z" fill="url(#paint2_linear_8207_107673)"/>
<rect x="128" y="81" width="18" height="32" fill="#947DFF"/>
<rect width="24" height="6" rx="3" transform="matrix(1 0 0 -1 125 82)" fill="#7958FF"/>
<path d="M100 78L168 134H32L100 78Z" fill="url(#paint3_linear_8207_107673)"/>
<rect x="37" y="134" width="126" height="84" fill="#7958FF"/>
<rect x="37" y="134" width="126" height="84" fill="url(#paint4_linear_8207_107673)"/>
<path fill-rule="evenodd" clip-rule="evenodd" d="M73 170C73 155.088 85.0883 143 100 143C114.912 143 127 155.088 127 170L127 218H73V170Z" fill="url(#paint5_linear_8207_107673)"/>
<path d="M100 151C90.5234 151 82.6672 157.938 81.2337 167.012C80.9751 168.648 82.3431 170 84 170H116C117.657 170 119.025 168.648 118.766 167.012C117.333 157.938 109.477 151 100 151Z" fill="url(#paint6_linear_8207_107673)"/>
<g filter="url(#filter0_i_8207_107673)">
<path fill-rule="evenodd" clip-rule="evenodd" d="M98.577 107.87C99.6755 109.111 101.572 109.226 102.812 108.127C104.052 107.029 104.167 105.133 103.069 103.892C101.97 102.652 100.074 102.537 98.8339 103.635C97.5936 104.734 97.4785 106.63 98.577 107.87ZM105.464 111.122C103.09 113.224 99.6868 113.421 97.1255 111.827L92.6753 115.768L93.3207 116.497C93.6868 116.911 93.6485 117.543 93.235 117.909L91.7378 119.235C91.3243 119.601 90.6923 119.563 90.3262 119.149L89.6808 118.42L87.4644 120.383C86.6375 121.116 85.3735 121.039 84.6412 120.212C83.9088 119.385 83.9855 118.121 84.8124 117.389L94.4735 108.833C93.2007 106.098 93.8081 102.743 96.182 100.641C99.0762 98.0778 103.5 98.3462 106.063 101.24C108.626 104.135 108.358 108.559 105.464 111.122Z" fill="#FEDEAC"/>
<path fill-rule="evenodd" clip-rule="evenodd" d="M98.577 107.87C99.6755 109.111 101.572 109.226 102.812 108.127C104.052 107.029 104.167 105.133 103.069 103.892C101.97 102.652 100.074 102.537 98.8339 103.635C97.5936 104.734 97.4785 106.63 98.577 107.87ZM105.464 111.122C103.09 113.224 99.6868 113.421 97.1255 111.827L92.6753 115.768L93.3207 116.497C93.6868 116.911 93.6485 117.543 93.235 117.909L91.7378 119.235C91.3243 119.601 90.6923 119.563 90.3262 119.149L89.6808 118.42L87.4644 120.383C86.6375 121.116 85.3735 121.039 84.6412 120.212C83.9088 119.385 83.9855 118.121 84.8124 117.389L94.4735 108.833C93.2007 106.098 93.8081 102.743 96.182 100.641C99.0762 98.0778 103.5 98.3462 106.063 101.24C108.626 104.135 108.358 108.559 105.464 111.122Z" fill="url(#paint7_linear_8207_107673)"/>
</g>
<rect x="81" y="176" width="40" height="34" rx="3" fill="url(#paint8_linear_8207_107673)"/>
<rect x="113" y="183" width="4" height="9" rx="2" fill="#7958FF"/>
<path d="M33 224H171V221C171 219.343 169.657 218 168 218H36C34.3431 218 33 219.343 33 221V224Z" fill="url(#paint9_linear_8207_107673)"/>
<g style="mix-blend-mode:multiply" opacity="0.5">
<path d="M134 156H135.5C136.605 156 137.5 156.895 137.5 158V216C137.5 217.105 136.605 218 135.5 218H88L134 156Z" fill="url(#paint10_linear_8207_107673)"/>
</g>
<rect x="137" y="153" width="94" height="68" rx="5" fill="#E6DEFF"/>
<rect x="137" y="153" width="94" height="68" rx="5" stroke="#7958FF" stroke-width="6"/>
<rect x="137" y="153" width="94" height="68" rx="5" stroke="url(#paint11_linear_8207_107673)" stroke-width="6"/>
<rect x="162" y="203" width="44" height="6" rx="2" fill="#CABEFF"/>
<rect x="162" y="193" width="44" height="6" rx="2" fill="#CABEFF"/>
<rect x="172" y="165" width="24" height="24" rx="8" fill="#FBF9FF"/>
<circle cx="184" cy="172" r="4" fill="#FDCF90"/>
<path d="M178 181C178 178.791 179.791 177 182 177H186C188.209 177 190 178.791 190 181V183C190 184.105 189.105 185 188 185H180C178.895 185 178 184.105 178 183V181Z" fill="#7958FF"/>
<path fill-rule="evenodd" clip-rule="evenodd" d="M95.7671 71.8462L96.8238 70.9798C97.9297 70.0731 99.5219 70.0731 100.628 70.9798L101.684 71.846L171.5 129C172.802 130.067 172.971 131.997 171.874 133.275L170.572 134.791C169.51 136.027 167.655 136.19 166.394 135.156L100.628 81.322C99.5219 80.4153 97.9297 80.4153 96.8238 81.322L31.106 135.156C29.8453 136.19 27.9901 136.027 26.9281 134.791L25.626 133.275C24.5291 131.997 24.6978 130.067 25.9999 129L95.7671 71.8462Z" fill="url(#paint12_linear_8207_107673)"/>
<path fill-rule="evenodd" clip-rule="evenodd" d="M212.346 34.5009C212.381 34.4412 212.457 34.4211 212.517 34.4559L214.463 35.5912C214.523 35.626 214.543 35.7026 214.508 35.7624L212.51 39.1873L216.475 39.2051C216.544 39.2055 216.6 39.2617 216.6 39.3309L216.59 41.5838C216.589 41.653 216.533 41.7088 216.464 41.7084L212.499 41.6906L214.466 45.1332C214.5 45.1932 214.479 45.2697 214.419 45.304L212.463 46.4217C212.403 46.456 212.326 46.4351 212.292 46.3751L210.325 42.9326L208.327 46.3575C208.292 46.4172 208.216 46.4374 208.156 46.4026L206.21 45.2673C206.15 45.2325 206.13 45.1558 206.165 45.0961L208.163 41.671L204.198 41.6531C204.128 41.6528 204.073 41.5965 204.073 41.5274L204.083 39.2744C204.083 39.2053 204.14 39.1495 204.209 39.1498L208.174 39.1677L206.207 35.7246C206.172 35.6646 206.193 35.5881 206.253 35.5539L208.21 34.4362C208.27 34.4019 208.346 34.4227 208.38 34.4827L210.348 37.926L212.346 34.5009Z" fill="#CABEFF"/>
<path d="M237.791 81L236.596 83.564C235.937 84.98 234.254 85.5933 232.838 84.9338V84.9338C231.422 84.2743 229.74 84.8876 229.08 86.3036V86.3036C228.421 87.7197 226.738 88.333 225.322 87.6735V87.6735C223.906 87.0139 222.223 87.6272 221.564 89.0433L220.37 91.6073" stroke="#CABEFF" stroke-width="2" stroke-linecap="round" stroke-linejoin="round"/>
<rect width="6.42101" height="6.42101" rx="2" transform="matrix(-0.758703 -0.651436 -0.651436 0.758703 25.0547 55.1826)" fill="#CABEFF"/>
<defs>
<filter id="filter0_i_8207_107673" x="84.1382" y="98.8809" width="23.6846" height="24.0049" filterUnits="userSpaceOnUse" color-interpolation-filters="sRGB">
<feFlood flood-opacity="0" result="BackgroundImageFix"/>
<feBlend mode="normal" in="SourceGraphic" in2="BackgroundImageFix" result="shape"/>
<feColorMatrix in="SourceAlpha" type="matrix" values="0 0 0 0 0 0 0 0 0 0 0 0 0 0 0 0 0 0 127 0" result="hardAlpha"/>
<feOffset dy="2"/>
<feGaussianBlur stdDeviation="1"/>
<feComposite in2="hardAlpha" operator="arithmetic" k2="-1" k3="1"/>
<feColorMatrix type="matrix" values="0 0 0 0 0 0 0 0 0 0 0 0 0 0 0 0 0 0 0.04 0"/>
<feBlend mode="normal" in2="shape" result="effect1_innerShadow_8207_107673"/>
</filter>
<linearGradient id="paint0_linear_8207_107673" x1="26.8611" y1="223.869" x2="41.6494" y2="140.844" gradientUnits="userSpaceOnUse">
<stop stop-color="#C7BDE6"/>
<stop offset="1" stop-color="#E4DBFF" stop-opacity="0.16"/>
</linearGradient>
<linearGradient id="paint1_linear_8207_107673" x1="34.0421" y1="59.0394" x2="197.175" y2="112" gradientUnits="userSpaceOnUse">
<stop stop-color="#FFDDB5"/>
<stop offset="1" stop-color="#FFEEDC" stop-opacity="0.7"/>
</linearGradient>
<linearGradient id="paint2_linear_8207_107673" x1="180.807" y1="85" x2="180.807" y2="232.5" gradientUnits="userSpaceOnUse">
<stop stop-color="#FEFDFF"/>
<stop offset="1" stop-color="#FAF7FF" stop-opacity="0"/>
</linearGradient>
<linearGradient id="paint3_linear_8207_107673" x1="137" y1="94.5" x2="59" y2="134" gradientUnits="userSpaceOnUse">
<stop stop-color="#947DFF"/>
<stop offset="1" stop-color="#AF9EFF"/>
</linearGradient>
<linearGradient id="paint4_linear_8207_107673" x1="58" y1="232" x2="152" y2="134" gradientUnits="userSpaceOnUse">
<stop stop-color="#A896FF"/>
<stop offset="1" stop-color="#7958FF"/>
</linearGradient>
<linearGradient id="paint5_linear_8207_107673" x1="86" y1="145" x2="127" y2="221" gradientUnits="userSpaceOnUse">
<stop stop-color="#CABEFF"/>
<stop offset="1" stop-color="#947DFF"/>
</linearGradient>
<linearGradient id="paint6_linear_8207_107673" x1="134.5" y1="159.382" x2="81" y2="159.382" gradientUnits="userSpaceOnUse">
<stop stop-color="#FFDDB5"/>
<stop offset="1" stop-color="#FFCE94"/>
</linearGradient>
<linearGradient id="paint7_linear_8207_107673" x1="100.535" y1="114.507" x2="90.8162" y2="103.533" gradientUnits="userSpaceOnUse">
<stop stop-color="#FFDDB5"/>
<stop offset="1" stop-color="#FFCE94"/>
</linearGradient>
<linearGradient id="paint8_linear_8207_107673" x1="131" y1="191" x2="81" y2="191" gradientUnits="userSpaceOnUse">
<stop stop-color="#FFDDB5"/>
<stop offset="1" stop-color="#FFCE94"/>
</linearGradient>
<linearGradient id="paint9_linear_8207_107673" x1="32" y1="220.5" x2="139" y2="218" gradientUnits="userSpaceOnUse">
<stop stop-color="#8366FF"/>
<stop offset="1" stop-color="#7A59FF"/>
</linearGradient>
<linearGradient id="paint10_linear_8207_107673" x1="139.409" y1="184.414" x2="94.1058" y2="215.483" gradientUnits="userSpaceOnUse">
<stop stop-color="#E1CEE8"/>
<stop offset="1" stop-color="#FFFBFF"/>
</linearGradient>
<linearGradient id="paint11_linear_8207_107673" x1="203" y1="128.5" x2="141.012" y2="295.361" gradientUnits="userSpaceOnUse">
<stop stop-color="#492EF3"/>
<stop offset="1" stop-color="#CF69FF"/>
</linearGradient>
<linearGradient id="paint12_linear_8207_107673" x1="47.4035" y1="102.84" x2="148.13" y2="102.84" gradientUnits="userSpaceOnUse">
<stop stop-color="#8365FF"/>
<stop offset="1" stop-color="#6C48FF"/>
</linearGradient>
</defs>
</svg>
