<svg width="16" height="16" viewBox="0 0 16 16" fill="none" xmlns="http://www.w3.org/2000/svg"><path d="M8 7.333A.667.667 0 0 0 7.333 8v2.667a.667.667 0 1 0 1.334 0V8A.667.667 0 0 0 8 7.333Zm.253-2.613a.667.667 0 0 0-.506 0 .667.667 0 0 0-.22.14.767.767 0 0 0-.14.22.667.667 0 0 0 .14.727c.064.059.139.106.22.14a.667.667 0 0 0 .92-.614.7.7 0 0 0-.194-.473.667.667 0 0 0-.22-.14ZM8 1.333a6.667 6.667 0 1 0 0 13.334A6.667 6.667 0 0 0 8 1.333Zm0 12A5.334 5.334 0 1 1 8 2.666a5.334 5.334 0 0 1 0 10.667Z" fill="currentColor"/></svg>