<svg width="20" height="20" viewBox="0 0 20 20" fill="none" xmlns="http://www.w3.org/2000/svg">
<path d="M2.16675 10.0001C2.16675 5.69289 5.69289 2.16675 10.0001 2.16675C14.3073 2.16675 17.8334 5.69289 17.8334 10.0001C17.8334 14.3073 14.3073 17.8334 10.0001 17.8334C5.69289 17.8334 2.16675 14.3073 2.16675 10.0001ZM9.85363 12.937L13.8536 8.93697C14.3822 8.40837 14.3822 7.59179 13.8536 7.06319C13.325 6.5346 12.5085 6.5346 11.9799 7.06319L8.91675 10.1263L8.0203 9.22986C7.49171 8.70127 6.67512 8.70127 6.14653 9.22986C5.61793 9.75846 5.61793 10.575 6.14653 11.1036L7.97986 12.937C8.50846 13.4656 9.32504 13.4656 9.85363 12.937Z" fill="#32873D" stroke="#32873D"/>
</svg>
