<svg width="20" height="20" viewBox="0 0 20 20" fill="none" xmlns="http://www.w3.org/2000/svg">
<path d="M11.7325 3.16479L11.7325 3.16479L11.7339 3.16711L18.476 14.8203C18.6263 15.1231 18.7292 15.4167 18.6734 15.7512L18.6666 15.792V15.8334C18.6666 16.9015 17.7964 17.8334 16.6666 17.8334H3.24997C2.90568 17.8334 2.58189 17.7661 2.25722 17.5713L2.25728 17.5712L2.24804 17.5659C1.32611 17.0391 0.985381 15.764 1.51679 14.8326C1.517 14.8322 1.51721 14.8318 1.51742 14.8315L8.26609 3.16711L8.27371 3.15394L8.28052 3.14032C8.39304 2.91528 8.64556 2.6468 9.0026 2.43158C9.93374 1.90297 11.2063 2.24399 11.7325 3.16479ZM8.66664 14.1667C8.66664 14.5303 8.79003 14.8722 9.04225 15.1244C9.29447 15.3767 9.63635 15.5 9.99997 15.5C10.3636 15.5 10.7055 15.3767 10.9577 15.1244C11.2099 14.8722 11.3333 14.5303 11.3333 14.1667C11.3333 13.8031 11.2099 13.4612 10.9577 13.209C10.7055 12.9568 10.3636 12.8334 9.99997 12.8334C9.63635 12.8334 9.29447 12.9568 9.04225 13.209C8.79003 13.4612 8.66664 13.8031 8.66664 14.1667ZM9.99997 12.1667C10.3636 12.1667 10.7055 12.0433 10.9577 11.7911C11.2099 11.5389 11.3333 11.197 11.3333 10.8334V7.50005C11.3333 7.13643 11.2099 6.79455 10.9577 6.54233C10.7055 6.29011 10.3636 6.16672 9.99997 6.16672C9.63635 6.16672 9.29447 6.29011 9.04225 6.54233C8.79003 6.79455 8.66664 7.13643 8.66664 7.50005V10.8334C8.66664 11.197 8.79003 11.5389 9.04225 11.7911C9.29447 12.0433 9.63635 12.1667 9.99997 12.1667Z" fill="#DD3730" stroke="#DD3730"/>
</svg>
