<svg width="40" height="40" viewBox="0 0 40 40" fill="none" xmlns="http://www.w3.org/2000/svg">
<path d="M0 8C0 3.58172 3.58172 0 8 0H32C36.4183 0 40 3.58172 40 8V32C40 36.4183 36.4183 40 32 40H8C3.58172 40 0 36.4183 0 32V8Z" fill="#F3EFFA"/>
<rect x="17" y="5" width="18" height="14" rx="2" fill="url(#paint0_linear_1436_37890)"/>
<rect x="17" y="9" width="18" height="1" fill="#D361E7"/>
<rect x="27" y="7" width="6" height="1" rx="0.5" fill="#B545CA"/>
<rect x="19" y="7" width="1" height="1" rx="0.5" fill="#F4E560"/>
<rect x="21" y="7" width="1" height="1" rx="0.5" fill="#7958FF"/>
<rect x="23" y="7" width="1" height="1" rx="0.5" fill="#F4E560"/>
<rect x="27" y="12" width="6" height="1" rx="0.5" fill="#B545CA"/>
<rect x="19" y="12" width="1" height="1" rx="0.5" fill="#F4E560"/>
<rect x="21" y="12" width="1" height="1" rx="0.5" fill="#F4E560"/>
<rect x="27" y="17" width="6" height="1" rx="0.5" fill="#B545CA"/>
<rect x="19" y="17" width="1" height="1" rx="0.5" fill="#F4E560"/>
<rect x="21" y="17" width="1" height="1" rx="0.5" fill="#F4E560"/>
<rect x="23" y="17" width="1" height="1" rx="0.5" fill="#7958FF"/>
<rect x="17" y="14" width="18" height="1" fill="#D361E7"/>
<rect x="5" y="21" width="18" height="14" rx="2" fill="url(#paint1_linear_1436_37890)"/>
<path d="M5 24H23V23C23 21.8954 22.1046 21 21 21H7C5.89543 21 5 21.8954 5 23V24Z" fill="#5D34F2"/>
<rect x="7" y="26" width="6" height="1" rx="0.5" fill="#CABEFF"/>
<rect x="7" y="29" width="12" height="1" rx="0.5" fill="#CABEFF"/>
<g style="mix-blend-mode:multiply">
<path d="M20 28C24.4183 28 28 24.4183 28 20" stroke="#C4C7C7" stroke-width="2"/>
</g>
<g style="mix-blend-mode:multiply">
<path d="M12 20C12 15.5817 15.5817 12 20 12" stroke="#C4C7C7" stroke-width="2"/>
</g>
<defs>
<linearGradient id="paint0_linear_1436_37890" x1="12.5" y1="14.3333" x2="36.4143" y2="10.9792" gradientUnits="userSpaceOnUse">
<stop stop-color="#E4A3FB"/>
<stop offset="1" stop-color="#EC78FF"/>
</linearGradient>
<linearGradient id="paint1_linear_1436_37890" x1="3.52143" y1="29.0208" x2="21.3627" y2="20.5511" gradientUnits="userSpaceOnUse">
<stop stop-color="#492EF3"/>
<stop offset="1" stop-color="#CF69FF"/>
</linearGradient>
</defs>
</svg>
