<svg width="28" height="28" viewBox="0 0 28 28" fill="none" xmlns="http://www.w3.org/2000/svg">
<g clip-path="url(#clip0_104_3587)">
<path d="M14.1673 1.63036C10.8032 1.5297 7.52815 2.72095 5.01483 4.95947L5.84762 0.394049L3.68576 0L2.22196 8.01369L10.2384 9.47614L10.6324 7.31429L6.51588 6.56275C8.48793 4.83321 11.0153 3.86903 13.6382 3.84561C16.2612 3.82219 18.8053 4.74108 20.808 6.43512C22.8106 8.12916 24.1386 10.4858 24.5504 13.0763C24.9621 15.6668 24.4303 18.3191 23.0517 20.5506C21.673 22.7821 19.5392 24.4446 17.0382 25.2356C14.5373 26.0266 11.8356 25.8936 9.42443 24.8608C7.01329 23.828 5.053 21.964 3.90017 19.6079C2.74734 17.2518 2.47857 14.5601 3.14276 12.0226L1.01543 11.4647C0.321017 14.1108 0.466691 16.9073 1.43228 19.4669C2.39786 22.0266 4.13556 24.2225 6.40466 25.7507C8.67375 27.2788 11.3619 28.0635 14.0968 27.996C16.8316 27.9285 19.4778 27.0121 21.6687 25.3738C23.8597 23.7356 25.4869 21.4565 26.325 18.8524C27.1631 16.2482 27.1706 13.4479 26.3464 10.8393C25.5223 8.23069 23.9073 5.94295 21.7252 4.29299C19.543 2.64303 16.9018 1.71252 14.1673 1.63036Z" fill="#F38020"/>
<path fill-rule="evenodd" clip-rule="evenodd" d="M22.3792 11.5545L20.2546 9.57812L11.9201 17.3318L8.60551 14.2498L6.47803 16.2282L11.9245 21.2953L14.0519 19.3163L14.0439 19.3082L22.3792 11.5545Z" fill="#F38020"/>
</g>
<defs>
<clipPath id="clip0_104_3587">
<rect width="28" height="28" fill="white"/>
</clipPath>
</defs>
</svg>
