<svg width="256" height="256" viewBox="0 0 256 256" fill="none" xmlns="http://www.w3.org/2000/svg">
<path d="M251 237H5.5L25.2124 207.625C28.8297 202.234 34.8948 199 41.3866 199H42.0675C45.2902 199 48.4475 199.91 51.1761 201.625C58.7086 206.36 68.6126 204.534 73.9617 197.424L97.3797 166.299C101.548 160.759 108.078 157.5 115.011 157.5C120.173 157.5 125.172 159.31 129.137 162.614L135.769 168.141C144.274 175.229 156.353 176.102 165.789 170.311C169.85 167.819 174.522 166.5 179.287 166.5H180.184C192.623 166.5 203.676 174.438 207.649 186.226L212.721 201.271C214.68 207.085 220.132 211 226.267 211C231.092 211 235.591 213.434 238.232 217.472L251 237Z" fill="#383A48"/>
<path fill-rule="evenodd" clip-rule="evenodd" d="M47 185C47 182.791 48.7909 181 51 181H55C57.2091 181 59 182.791 59 185V193H47V185ZM47 233C47 235.209 48.7909 237 51 237H55C57.2091 237 59 235.209 59 233V225H47V233ZM29 215C26.7909 215 25 213.209 25 211V207C25 204.791 26.7909 203 29 203H37V215H29ZM77 215C79.2091 215 81 213.209 81 211V207C81 204.791 79.2091 203 77 203H69V215H77Z" fill="#635C8F"/>
<path fill-rule="evenodd" clip-rule="evenodd" d="M31.7875 196.271C30.2254 194.709 30.2254 192.177 31.7875 190.615L34.616 187.786C36.1781 186.224 38.7107 186.224 40.2728 187.786L45.9297 193.443L37.4444 201.928L31.7875 196.271ZM65.7283 230.212C67.2904 231.775 69.8231 231.775 71.3852 230.212L74.2136 227.384C75.7757 225.822 75.7757 223.289 74.2136 221.727L68.5568 216.07L60.0715 224.556L65.7283 230.212ZM40.2718 230.213C38.7097 231.775 36.177 231.775 34.6149 230.213L31.7865 227.384C30.2244 225.822 30.2244 223.29 31.7865 221.728L37.4434 216.071L45.9286 224.556L40.2718 230.213ZM74.2126 196.272C75.7747 194.71 75.7747 192.177 74.2126 190.615L71.3842 187.787C69.8221 186.224 67.2894 186.224 65.7273 187.787L60.0705 193.443L68.5557 201.929L74.2126 196.272Z" fill="#635C8F"/>
<path fill-rule="evenodd" clip-rule="evenodd" d="M53 229C64.0457 229 73 220.046 73 209C73 197.954 64.0457 189 53 189C41.9543 189 33 197.954 33 209C33 220.046 41.9543 229 53 229ZM53 217C57.4183 217 61 213.418 61 209C61 204.582 57.4183 201 53 201C48.5817 201 45 204.582 45 209C45 213.418 48.5817 217 53 217Z" fill="#8777C7"/>
<path d="M111 115.5H223V158C223 166.837 215.837 174 207 174H127C118.163 174 111 166.837 111 158V115.5Z" fill="#615A7D"/>
<rect x="123" y="124" width="44" height="8" rx="2" fill="#776E9E"/>
<rect x="123" y="136" width="44" height="8" rx="2" fill="#776E9E"/>
<rect x="123" y="148" width="44" height="8" rx="2" fill="#776E9E"/>
<rect x="183" y="124" width="24" height="44" rx="6" fill="#776D9E"/>
<path d="M111.5 115C111.5 106.44 118.44 99.5 127 99.5H207C215.56 99.5 222.5 106.44 222.5 115V115.5V158C222.5 166.56 215.56 173.5 207 173.5H127C118.44 173.5 111.5 166.56 111.5 158V115.5V115Z" stroke="#7269A8" stroke-linecap="round" stroke-linejoin="round"/>
<circle cx="123" cy="107" r="2" fill="#C48BB0"/>
<circle cx="131" cy="107" r="2" fill="#C79B93"/>
<circle cx="139" cy="107" r="2" fill="#776E9E"/>
<path d="M182.111 63.0254L197.474 82.3389C197.778 82.7207 198.313 82.8276 198.74 82.5921L208.677 77.1122C209.363 76.7339 209.367 75.7495 208.684 75.3651L190.686 65.2308C190.471 65.11 190.622 64.7836 190.853 64.8689L214.041 73.4305C214.331 73.5374 214.653 73.5046 214.916 73.3414L221.237 69.4079C222.022 68.9198 221.781 67.7202 220.87 67.5718L183.054 61.4158C182.152 61.2689 181.542 62.3099 182.111 63.0254Z" fill="#9A8FBC"/>
<path d="M215 82.6315V76.7662C215 75.9889 214.152 75.5088 213.486 75.9087L208.855 78.687C208.226 79.0647 208.204 79.9693 208.815 80.3765L213.445 83.4635C214.11 83.9066 215 83.4302 215 82.6315Z" fill="#8073BC"/>
<rect x="55" y="136" width="102" height="102" rx="16" fill="url(#paint0_linear_5321_35748)"/>
<path d="M69 155C55.5 157.667 25.9 157.6 15.5 136" stroke="#58577B" stroke-dasharray="4 4"/>
<path d="M224.304 197.008C222.858 202.338 217.811 205.608 217.342 205.481C216.874 205.353 214.172 199.981 215.618 194.651C217.064 189.321 222.111 186.051 222.579 186.178C223.048 186.305 225.75 191.678 224.304 197.008Z" fill="#74B382"/>
<g style="mix-blend-mode:lighten">
<path fill-rule="evenodd" clip-rule="evenodd" d="M216.155 204.787C216.25 205.263 221.426 208.324 226.842 207.242C227.235 207.164 227.618 207.066 227.991 206.951C227.346 206.411 227.089 205.498 227.419 204.674C227.829 203.648 228.993 203.15 230.019 203.56C230.8 203.873 231.275 204.624 231.276 205.417C234.128 203.607 235.833 201.201 235.768 200.871C235.673 200.396 230.496 197.335 225.08 198.416C219.664 199.498 216.06 204.311 216.155 204.787Z" fill="#89CBAB"/>
</g>
<path d="M220.5 84.5C225.167 86.8333 234.2 93.9 233 103.5C231.5 115.5 218.518 105.982 224.5 100C229.5 95 243.024 107.157 231.624 123.149" stroke="#58577B" stroke-linecap="round" stroke-linejoin="round"/>
<rect x="86.5" y="148.5" width="39" height="39" rx="11.5" stroke="#DFBEFF"/>
<circle cx="106" cy="161" r="6" fill="#FAABFF"/>
<path d="M115.894 179.003C116.014 180.101 115.105 181 114 181C112.176 181 109.271 181 106 181C102.729 181 99.824 181 97.9996 181C96.895 181 95.9858 180.101 96.1057 179.003C96.812 172.536 100.973 169 106 169C111.027 169 115.188 172.536 115.894 179.003Z" fill="#735EAD"/>
<rect x="76" y="196" width="60" height="10" rx="4" fill="#D8C7FF"/>
<rect x="76" y="211" width="60" height="10" rx="4" fill="#EFE9FF" stroke="#69539E"/>
<path fill-rule="evenodd" clip-rule="evenodd" d="M84 201C84 200.448 84.4477 200 85 200H107C107.552 200 108 200.448 108 201C108 201.552 107.552 202 107 202H85C84.4477 202 84 201.552 84 201ZM112 201C112 200.448 112.448 200 113 200H119C119.552 200 120 200.448 120 201C120 201.552 119.552 202 119 202H113C112.448 202 112 201.552 112 201ZM123 200C122.448 200 122 200.448 122 201C122 201.552 122.448 202 123 202H125C125.552 202 126 201.552 126 201C126 200.448 125.552 200 125 200H123Z" fill="#9877EA"/>
<circle cx="86" cy="216" r="2" fill="#956AFF"/>
<circle cx="94" cy="216" r="2" fill="#956AFF"/>
<circle cx="102" cy="216" r="2" fill="#956AFF"/>
<circle cx="110" cy="216" r="2" fill="#956AFF"/>
<rect x="114" y="213" width="1" height="6" rx="0.5" fill="#FAABFF"/>
<g style="mix-blend-mode:multiply" opacity="0.6">
<path d="M91 215L157 178V238H91V215Z" fill="url(#paint1_linear_5321_35748)"/>
</g>
<rect x="141" y="178" width="60" height="60" rx="12" fill="url(#paint2_linear_5321_35748)"/>
<path d="M171 188H174C176.761 188 179 190.239 179 193C179 195.761 176.761 198 174 198H171V188Z" fill="#FFDAD4"/>
<path fill-rule="evenodd" clip-rule="evenodd" d="M153 178C146.373 178 141 183.373 141 190V208H151V205C151 202.239 153.239 200 156 200C158.761 200 161 202.239 161 205V208H171V178H153Z" fill="#FFDAD4"/>
<path fill-rule="evenodd" clip-rule="evenodd" d="M171 208H181V211C181 213.761 183.239 216 186 216C188.761 216 191 213.761 191 211V208H201V226C201 232.627 195.627 238 189 238H171V228H168C165.239 228 163 225.761 163 223C163 220.239 165.239 218 168 218H171V208Z" fill="#A989DF"/>
<path d="M228 238H232.5H236M216.5 238H162.41C162.039 238 161.829 237.573 162.056 237.279L175.71 219.557C180.767 212.994 190.285 211.992 196.598 217.358L198.054 218.596C202.159 222.085 208.087 222.409 212.548 219.387V219.387C217.196 216.238 223.406 216.735 227.494 220.583L245.034 237.091C245.381 237.418 245.15 238 244.674 238H240.5" stroke="#947DFF" stroke-linecap="round" stroke-linejoin="round"/>
<path fill-rule="evenodd" clip-rule="evenodd" d="M242.104 168.38C244.95 170.077 248.633 169.146 250.33 166.3C252.028 163.454 251.097 159.771 248.251 158.073C245.405 156.376 241.722 157.307 240.024 160.153C238.327 162.999 239.258 166.682 242.104 168.38ZM243.641 165.803C245.064 166.652 246.905 166.186 247.754 164.763C248.603 163.34 248.137 161.499 246.714 160.65C245.291 159.801 243.45 160.267 242.601 161.69C241.752 163.113 242.218 164.954 243.641 165.803Z" fill="#6E6083"/>
<path fill-rule="evenodd" clip-rule="evenodd" d="M45.9571 119.104C45.9571 119.047 46.0038 119 46.0614 119H47.9389C47.9965 119 48.0432 119.047 48.0432 119.104V122.409L50.9048 120.756C50.9546 120.728 51.0184 120.745 51.0472 120.795L51.986 122.421C52.0148 122.471 51.9977 122.534 51.9478 122.563L49.0862 124.215L51.948 125.868C51.9979 125.896 52.015 125.96 51.9862 126.01L51.0474 127.636C51.0186 127.686 50.9548 127.703 50.9049 127.674L48.0432 126.022V129.326C48.0432 129.384 47.9965 129.431 47.9389 129.431H46.0614C46.0038 129.431 45.9571 129.384 45.9571 129.326V126.022L43.0952 127.674C43.0454 127.703 42.9816 127.686 42.9528 127.636L42.014 126.01C41.9852 125.96 42.0023 125.896 42.0522 125.868L44.9139 124.215L42.0523 122.563C42.0024 122.534 41.9853 122.471 42.0141 122.421L42.9529 120.795C42.9817 120.745 43.0455 120.728 43.0954 120.756L45.9571 122.409V119.104Z" fill="#78767F"/>
<path d="M68.3634 33.1435C69.7938 32.5741 71.3042 33.7668 71.082 35.2903L70.7488 37.5755C70.5266 39.099 68.7385 39.8107 67.5302 38.8565L65.7178 37.4253C64.5095 36.4712 64.7872 34.5668 66.2177 33.9975L68.3634 33.1435Z" fill="#83DA85"/>
<path d="M105.969 38.7044L108.751 38.1928C110.287 37.9103 111.304 36.4358 111.021 34.8995V34.8995C110.739 33.3632 111.755 31.8887 113.292 31.6062V31.6062C114.828 31.3237 115.844 29.8492 115.562 28.3129L115.05 25.5311" stroke="#4A474F" stroke-width="2" stroke-linecap="round" stroke-linejoin="round"/>
<path d="M15.8026 66.799L15.4022 63.999C15.1811 62.4527 13.7482 61.3784 12.2019 61.5995V61.5995C10.6555 61.8207 9.22264 60.7464 9.00149 59.2V59.2C8.78035 57.6536 7.3475 56.5793 5.80114 56.8005L3.0012 57.2009" stroke="#52514B" stroke-width="2" stroke-linecap="round" stroke-linejoin="round"/>
<path d="M73.9995 48.5C73.9995 54.5 73.9995 67 73.9995 69C73.9995 71.5 75.4995 72.5 73.9995 77.5C72.4995 82.5 75.9995 83.5 75.4995 85.5C74.9995 87.5 71.998 89.5 73.498 95.5" stroke="#636063" stroke-linecap="round"/>
<path d="M73.1962 49.5C73.5811 48.8333 74.5433 48.8333 74.9282 49.5L78.5622 55.7942C79.2565 56.9968 78.3886 58.5 77 58.5L75.5627 58.1407C75.1996 58.0499 74.816 58.092 74.4812 58.2594C74.1693 58.4153 73.8144 58.4629 73.4725 58.3945L72.3325 58.1665C71.7815 58.0563 71.2075 58.0418 70.6512 58.1213C69.5862 58.2734 68.788 57.1351 69.3259 56.2034L73.1962 49.5Z" fill="#B586B7"/>
<path d="M94 26.7692C94 38.2398 85.0457 52.9231 74 52.9231C62.9543 52.9231 54 38.2398 54 26.7692C54 15.2987 62.9543 6 74 6C85.0457 6 94 15.2987 94 26.7692Z" fill="#CFA4D1"/>
<path d="M80.5807 12.8061C81.0712 13.2628 81.6215 13.8381 82.1948 14.5168M87.4138 33.2832C88.9204 27.6296 87.1579 22.2395 84.8227 18.2454C84.5735 17.8191 84.3178 17.4088 84.0588 17.0157C83.9092 16.7887 83.7585 16.5674 83.6074 16.3521" stroke="#FEF2FF" stroke-linecap="round"/>
<path d="M37.4984 108.5C41.0023 103 42 101.5 39.4999 98.5C38.1801 96.9163 36.4999 95.5 37.9999 90.5C39.4999 85.5 36.5 86.5 37.9999 82C39 79.5 37.9999 74.9 37.9999 74.5" stroke="#626067" stroke-linecap="round"/>
<path d="M37.4286 70.9897C37.6825 70.5499 38.3175 70.5499 38.5714 70.9897L40.9692 75.1429C41.4274 75.9363 40.8547 76.9282 39.9385 76.9282L38.9901 76.6911C38.7505 76.6312 38.4974 76.659 38.2765 76.7695C38.0707 76.8723 37.8365 76.9037 37.6109 76.8586L36.8587 76.7081C36.4951 76.6354 36.1164 76.6259 35.7494 76.6783C35.0466 76.7787 34.5199 76.0276 34.8749 75.4128L37.4286 70.9897Z" fill="#68A973"/>
<path d="M52 55.5385C52 63.5678 45.732 73.8462 38 73.8462C30.268 73.8462 24 63.5678 24 55.5385C24 47.5091 30.268 41 38 41C45.732 41 52 47.5091 52 55.5385Z" fill="#86BF8F"/>
<path d="M43.3121 47C43.6186 47.3065 43.9645 47.7166 44.3125 48.2167M45.8121 59C46.8975 55.9609 46.5594 53.177 45.7567 51C45.6205 50.6304 45.4708 50.2784 45.3125 49.9455" stroke="#F7F4FF" stroke-linecap="round"/>
<defs>
<linearGradient id="paint0_linear_5321_35748" x1="106" y1="136" x2="65" y2="238" gradientUnits="userSpaceOnUse">
<stop stop-color="#A089E1"/>
<stop offset="1" stop-color="#816DB9"/>
</linearGradient>
<linearGradient id="paint1_linear_5321_35748" x1="159.5" y1="192" x2="98.5" y2="232" gradientUnits="userSpaceOnUse">
<stop stop-color="#9C79E0"/>
<stop offset="1" stop-color="#BE9BFF" stop-opacity="0"/>
</linearGradient>
<linearGradient id="paint2_linear_5321_35748" x1="192" y1="181" x2="144.5" y2="238" gradientUnits="userSpaceOnUse">
<stop stop-color="#FFBDE5"/>
<stop offset="1" stop-color="#FAA5FF"/>
</linearGradient>
</defs>
</svg>
