<svg width="256" height="256" viewBox="0 0 256 256" fill="none" xmlns="http://www.w3.org/2000/svg">
<g opacity="0.4">
<path fill-rule="evenodd" clip-rule="evenodd" d="M176.993 221.626H73.8088C71.4227 221.952 68.9865 222.12 66.5111 222.12C64.0357 222.12 61.5995 221.952 59.2134 221.626H55.0612V220.892C31.0097 215.649 13 194.232 13 168.609C13 141.993 32.431 119.916 57.881 115.79C66.3503 87.0491 92.9345 66.0712 124.418 66.0712C154.317 66.0712 179.797 84.9895 189.54 111.509C217.75 114.091 239.844 137.814 239.844 166.698C239.844 194.119 219.93 216.889 193.775 221.334V221.626H191.852C189.422 221.952 186.942 222.12 184.422 222.12C181.903 222.12 179.423 221.952 176.993 221.626Z" fill="url(#paint0_linear_8217_108003)"/>
<path fill-rule="evenodd" clip-rule="evenodd" d="M176.993 221.626H73.8088C71.4227 221.952 68.9865 222.12 66.5111 222.12C64.0357 222.12 61.5995 221.952 59.2134 221.626H55.0612V220.892C31.0097 215.649 13 194.232 13 168.609C13 141.993 32.431 119.916 57.881 115.79C66.3503 87.0491 92.9345 66.0712 124.418 66.0712C154.317 66.0712 179.797 84.9895 189.54 111.509C217.75 114.091 239.844 137.814 239.844 166.698C239.844 194.119 219.93 216.889 193.775 221.334V221.626H191.852C189.422 221.952 186.942 222.12 184.422 222.12C181.903 222.12 179.423 221.952 176.993 221.626Z" fill="url(#paint1_linear_8217_108003)"/>
</g>
<rect x="28.3008" y="100.613" width="83.8891" height="15.1607" rx="2.02142" fill="#CABEFF"/>
<rect x="31.333" y="115.774" width="77.8248" height="5.05356" fill="#947DFF"/>
<circle cx="39.9238" cy="108.194" r="2.52678" fill="#947DFF"/>
<rect x="47.5039" y="104.656" width="56.5999" height="7.07498" rx="1.01071" fill="url(#paint2_linear_8217_108003)"/>
<rect x="28.3008" y="120.738" width="83.8891" height="15.1607" rx="2.02142" fill="#CABEFF"/>
<rect x="31.333" y="135.898" width="77.8248" height="5.05356" fill="#947DFF"/>
<circle cx="39.9238" cy="128.319" r="2.52678" fill="#F07EFF"/>
<rect x="47.5039" y="124.781" width="56.5999" height="7.07498" rx="1.01071" fill="url(#paint3_linear_8217_108003)"/>
<rect x="28.3008" y="140.863" width="83.8891" height="15.1607" rx="2.02142" fill="#CABEFF"/>
<rect x="31.333" y="156.024" width="77.8248" height="5.05356" fill="#947DFF"/>
<circle cx="39.9238" cy="148.444" r="2.52678" fill="#947DFF"/>
<rect x="47.5039" y="144.906" width="56.5999" height="7.07498" rx="1.01071" fill="url(#paint4_linear_8217_108003)"/>
<rect x="28.3008" y="160.989" width="83.8891" height="15.1607" rx="2.02142" fill="#CABEFF"/>
<rect x="31.333" y="176.15" width="77.8248" height="5.05356" fill="#947DFF"/>
<circle cx="39.9238" cy="168.57" r="2.52678" fill="#947DFF"/>
<rect x="47.5039" y="165.032" width="56.5999" height="7.07498" rx="1.01071" fill="url(#paint5_linear_8217_108003)"/>
<rect x="28.3008" y="181.114" width="83.8891" height="15.1607" rx="2.02142" fill="#CABEFF"/>
<rect x="31.333" y="196.274" width="77.8248" height="5.05356" fill="#947DFF"/>
<circle cx="39.9238" cy="188.694" r="2.52678" fill="#947DFF"/>
<rect x="47.5039" y="185.157" width="56.5999" height="7.07498" rx="1.01071" fill="url(#paint6_linear_8217_108003)"/>
<rect x="28.3008" y="201.239" width="83.8891" height="15.1607" rx="2.02142" fill="#CABEFF"/>
<path d="M31.333 216.4H109.158V216.926C109.158 219.427 107.131 221.454 104.63 221.454H35.8605C33.3601 221.454 31.333 219.427 31.333 216.926V216.4Z" fill="#947DFF"/>
<circle cx="39.9233" cy="208.819" r="2.52678" fill="#947DFF"/>
<rect x="47.5044" y="205.282" width="56.5999" height="7.07498" rx="1.01071" fill="url(#paint7_linear_8217_108003)"/>
<path d="M31.3193 100.11C31.3193 97.6091 33.3464 95.582 35.8469 95.582H104.274C106.774 95.582 108.801 97.6091 108.801 100.11V100.613H31.3193V100.11Z" fill="#947DFF"/>
<rect x="121.511" y="48.8604" width="61" height="85" rx="16" fill="url(#paint8_linear_8217_108003)"/>
<rect x="128.511" y="94.5176" width="46.9999" height="8.82633" rx="3.55534" fill="#CABEFF"/>
<rect x="128.511" y="108.757" width="46.9999" height="8.82633" rx="3.55534" fill="#E5E1EC" stroke="#815AE3" stroke-width="0.888835"/>
<rect x="164.37" y="111.172" width="0.983558" height="4" rx="0.491779" fill="#956AFF"/>
<path fill-rule="evenodd" clip-rule="evenodd" d="M133.733 98.9305C133.733 98.443 134.129 98.0479 134.616 98.0479H153.74C154.227 98.0479 154.622 98.443 154.622 98.9305C154.622 99.4179 154.227 99.8131 153.74 99.8131H134.616C134.129 99.8131 133.733 99.4179 133.733 98.9305ZM158.104 98.9305C158.104 98.443 158.499 98.0479 158.986 98.0479H164.184C164.672 98.0479 165.067 98.443 165.067 98.9305C165.067 99.4179 164.672 99.8131 164.184 99.8131H158.986C158.499 99.8131 158.104 99.4179 158.104 98.9305ZM167.69 98.048C167.202 98.048 166.807 98.4432 166.807 98.9306C166.807 99.4181 167.202 99.8133 167.69 99.8133H169.406C169.893 99.8133 170.288 99.4181 170.288 98.9306C170.288 98.4432 169.893 98.048 169.406 98.048H167.69Z" fill="#9877EA"/>
<ellipse cx="138.084" cy="113.17" rx="1.74074" ry="1.76526" fill="#956AFF"/>
<ellipse cx="145.048" cy="113.17" rx="1.74074" ry="1.76526" fill="#956AFF"/>
<ellipse cx="152.011" cy="113.17" rx="1.74074" ry="1.76526" fill="#956AFF"/>
<ellipse cx="158.974" cy="113.17" rx="1.74074" ry="1.76526" fill="#956AFF"/>
<rect x="140.511" y="62.8604" width="23" height="23" rx="7.70059" fill="#F0EBFF"/>
<circle cx="152.01" cy="69.5697" r="3.83333" fill="#FFB95A"/>
<circle cx="152.01" cy="69.5697" r="3.83333" fill="#FDCF90"/>
<path d="M146.261 78.2106C146.261 76.0842 147.985 74.3604 150.112 74.3604H153.911C156.037 74.3604 157.761 76.0842 157.761 78.2106V80.1019C157.761 81.1651 156.899 82.027 155.836 82.027H148.186C147.123 82.027 146.261 81.1651 146.261 80.1019V78.2106Z" fill="#7958FF"/>
<path d="M106.487 144.638H213.687C216.449 144.638 218.687 146.877 218.687 149.638V217.967H101.488V149.638C101.488 146.877 103.726 144.638 106.487 144.638Z" fill="url(#paint9_linear_8217_108003)"/>
<path d="M106.487 144.638H213.687C216.449 144.638 218.687 146.877 218.687 149.638V217.967H101.488V149.638C101.488 146.877 103.726 144.638 106.487 144.638Z" fill="url(#paint10_linear_8217_108003)"/>
<path d="M106.487 144.638H213.687C216.449 144.638 218.687 146.877 218.687 149.638V217.967H101.488V149.638C101.488 146.877 103.726 144.638 106.487 144.638Z" stroke="url(#paint11_linear_8217_108003)" stroke-width="3.23724"/>
<path d="M89.6992 216.177H229.415V217.811C229.415 219.638 227.933 221.12 226.105 221.12H93.8356C91.5511 221.12 89.6992 219.268 89.6992 216.983V216.177Z" fill="#7958FF"/>
<rect x="214.934" y="65.1689" width="6.41862" height="6.41862" rx="2" transform="rotate(30.813 214.934 65.1689)" fill="#F7F8F8" fill-opacity="0.16"/>
<path fill-rule="evenodd" clip-rule="evenodd" d="M238.697 85.2487C238.697 85.1334 238.79 85.04 238.906 85.04H240.783C240.898 85.04 240.992 85.1334 240.992 85.2487V88.9615L244.06 87.1086C244.159 87.0491 244.284 87.0826 244.34 87.1834L245.285 88.8966C245.341 88.9975 245.306 89.1275 245.208 89.1871L242.139 91.0401L245.207 92.893C245.306 92.9525 245.341 93.0826 245.285 93.1834L244.339 94.8966C244.284 94.9975 244.159 95.031 244.06 94.9714L240.992 93.1187V96.8314C240.992 96.9466 240.898 97.04 240.783 97.04H238.906C238.79 97.04 238.697 96.9466 238.697 96.8314V93.1184L235.628 94.9714C235.53 95.031 235.405 94.9975 235.349 94.8966L234.403 93.1834C234.348 93.0826 234.382 92.9525 234.481 92.893L237.549 91.0401L234.481 89.1871C234.382 89.1275 234.347 88.9975 234.403 88.8966L235.349 87.1834C235.404 87.0826 235.529 87.0491 235.628 87.1086L238.697 88.9618V85.2487Z" fill="#CABEFF" fill-opacity="0.16"/>
<path d="M116.511 74.0801H76.8308C71.1754 74.0801 66.5908 78.6647 66.5908 84.3201V92.0001" stroke="#A782E8" stroke-dasharray="3.5 3.5"/>
<path d="M67.4486 93.1314C67.0602 93.7787 66.1221 93.7787 65.7337 93.1314L63.6598 89.675C63.2599 89.0085 63.74 88.1605 64.5173 88.1605L68.665 88.1605C69.4423 88.1605 69.9224 89.0085 69.5225 89.675L67.4486 93.1314Z" fill="#A782E8"/>
<rect opacity="0.9" x="134.252" y="156.023" width="72.5938" height="52.3102" rx="3.99143" fill="#E6DEFF"/>
<rect x="142.792" y="169.901" width="55.5129" height="4.27022" rx="1.59657" fill="#C29DFF"/>
<rect x="142.792" y="195.522" width="27.7564" height="4.27022" rx="1.59657" fill="#C29DFF"/>
<rect x="142.792" y="186.982" width="55.5129" height="4.27022" rx="1.59657" fill="#C29DFF"/>
<rect x="142.792" y="178.458" width="37.8021" height="4.25458" rx="1.59657" fill="#C29DFF"/>
<rect x="185.157" y="178.458" width="13.1486" height="4.25458" rx="1.59657" fill="#C29DFF"/>
<circle cx="142.212" cy="162.42" r="1.55503" fill="#FFFBFF"/>
<circle cx="148.432" cy="162.42" r="1.55503" fill="#FFFBFF"/>
<circle cx="154.652" cy="162.42" r="1.55503" fill="#FFFBFF"/>
<path d="M53.1267 64.4007L52.017 62.4788C51.4042 61.4173 50.0469 61.0536 48.9854 61.6665V61.6665C47.9239 62.2793 46.5667 61.9156 45.9538 60.8542V60.8542C45.341 59.7927 43.9837 59.429 42.9222 60.0418L41.0003 61.1515" stroke="#F7F8F8" stroke-opacity="0.16" stroke-width="2" stroke-linecap="round" stroke-linejoin="round"/>
<path d="M74.8555 167.531C74.5793 167.531 74.3555 167.755 74.3555 168.031C74.3555 168.307 74.5793 168.531 74.8555 168.531L74.8555 167.531ZM74.8555 168.531L76.4939 168.531L76.4939 167.531L74.8555 167.531L74.8555 168.531ZM79.7709 168.531L83.0478 168.531L83.0478 167.531L79.7709 167.531L79.7709 168.531ZM86.3247 168.531L89.6016 168.531L89.6016 167.531L86.3247 167.531L86.3247 168.531ZM92.8786 168.531L96.1555 168.531L96.1555 167.531L92.8786 167.531L92.8786 168.531ZM99.4324 168.531L102.709 168.531L102.709 167.531L99.4324 167.531L99.4324 168.531ZM105.986 168.531L109.263 168.531L109.263 167.531L105.986 167.531L105.986 168.531ZM112.54 168.531L115.817 168.531L115.817 167.531L112.54 167.531L112.54 168.531ZM119.094 168.531L120.732 168.531L120.732 167.531L119.094 167.531L119.094 168.531Z" fill="url(#paint12_linear_8217_108003)"/>
<path d="M125.304 167.774C125.498 167.891 125.498 168.172 125.304 168.288L121.187 170.759C120.987 170.879 120.732 170.735 120.732 170.501L120.732 165.561C120.732 165.328 120.987 165.184 121.187 165.304L125.304 167.774Z" fill="#F3EEFA"/>
<path d="M74.8555 182.607C74.5793 182.607 74.3555 182.831 74.3555 183.107C74.3555 183.384 74.5793 183.607 74.8555 183.607L74.8555 182.607ZM74.8555 183.607L76.4939 183.607L76.4939 182.607L74.8555 182.607L74.8555 183.607ZM79.7709 183.607L83.0478 183.607L83.0478 182.607L79.7709 182.607L79.7709 183.607ZM86.3247 183.607L89.6016 183.607L89.6016 182.607L86.3247 182.607L86.3247 183.607ZM92.8786 183.607L96.1555 183.607L96.1555 182.607L92.8786 182.607L92.8786 183.607ZM99.4324 183.607L102.709 183.607L102.709 182.607L99.4324 182.607L99.4324 183.607ZM105.986 183.607L109.263 183.607L109.263 182.607L105.986 182.607L105.986 183.607ZM112.54 183.607L115.817 183.607L115.817 182.607L112.54 182.607L112.54 183.607ZM119.094 183.607L120.732 183.607L120.732 182.607L119.094 182.607L119.094 183.607Z" fill="url(#paint13_linear_8217_108003)"/>
<path d="M125.304 182.85C125.498 182.967 125.498 183.248 125.304 183.365L121.187 185.835C120.987 185.955 120.732 185.811 120.732 185.578L120.732 180.637C120.732 180.404 120.987 180.26 121.187 180.38L125.304 182.85Z" fill="#F3EEFA"/>
<path d="M74.8555 198.684C74.5793 198.684 74.3555 198.907 74.3555 199.184C74.3555 199.46 74.5793 199.684 74.8555 199.684L74.8555 198.684ZM74.8555 199.684L76.4939 199.684L76.4939 198.684L74.8555 198.684L74.8555 199.684ZM79.7709 199.684L83.0478 199.684L83.0478 198.684L79.7709 198.684L79.7709 199.684ZM86.3247 199.684L89.6016 199.684L89.6016 198.684L86.3247 198.684L86.3247 199.684ZM92.8786 199.684L96.1555 199.684L96.1555 198.684L92.8786 198.684L92.8786 199.684ZM99.4324 199.684L102.709 199.684L102.709 198.684L99.4324 198.684L99.4324 199.684ZM105.986 199.684L109.263 199.684L109.263 198.684L105.986 198.684L105.986 199.684ZM112.54 199.684L115.817 199.684L115.817 198.684L112.54 198.684L112.54 199.684ZM119.094 199.684L120.732 199.684L120.732 198.684L119.094 198.684L119.094 199.684Z" fill="#F3EEFA"/>
<path d="M125.304 198.926C125.498 199.043 125.498 199.324 125.304 199.441L121.187 201.911C120.987 202.031 120.732 201.887 120.732 201.654L120.732 196.713C120.732 196.48 120.987 196.336 121.187 196.456L125.304 198.926Z" fill="#F3EEFA"/>
<g opacity="0.5">
<path d="M213.879 122.459C216.353 124.159 219.683 124.399 222.456 122.798C226.299 120.579 227.616 115.665 225.397 111.821C223.178 107.978 218.263 106.661 214.42 108.88L211.747 104.25L211.234 103.362" stroke="#78767F" stroke-width="1.28" stroke-linecap="round" stroke-linejoin="round"/>
<g filter="url(#filter0_b_8217_108003)">
<path d="M206.419 95.0136C208.81 93.6329 211.868 94.4522 213.249 96.8437C214.63 99.2352 213.81 102.293 211.419 103.674C209.028 105.055 205.97 104.235 204.589 101.844C203.208 99.4522 204.028 96.3943 206.419 95.0136Z" fill="#5F5D67"/>
<path d="M206.739 95.5678C208.824 94.3638 211.491 95.0783 212.695 97.1637C213.899 99.2491 213.184 101.916 211.099 103.12C209.014 104.324 206.347 103.609 205.143 101.524C203.939 99.4383 204.654 96.7718 206.739 95.5678Z" stroke="#78767F" stroke-width="1.28" stroke-linecap="round"/>
</g>
<g filter="url(#filter1_b_8217_108003)">
<path d="M215.976 111.511C218.367 110.13 221.425 110.949 222.806 113.341C224.186 115.732 223.367 118.79 220.976 120.171C218.584 121.552 215.526 120.732 214.146 118.341C212.765 115.949 213.584 112.891 215.976 111.511Z" fill="#5F5D67"/>
<path d="M216.296 112.065C218.381 110.861 221.048 111.575 222.252 113.661C223.455 115.746 222.741 118.413 220.656 119.617C218.57 120.821 215.904 120.106 214.7 118.021C213.496 115.935 214.21 113.269 216.296 112.065Z" stroke="#78767F" stroke-width="1.28" stroke-linecap="round"/>
</g>
<g filter="url(#filter2_b_8217_108003)">
<path d="M196.775 111.341C199.167 109.96 202.225 110.779 203.606 113.171C204.986 115.562 204.167 118.62 201.775 120.001C199.384 121.382 196.326 120.562 194.945 118.171C193.565 115.779 194.384 112.721 196.775 111.341Z" fill="#5F5D67"/>
<path d="M197.095 111.895C199.181 110.691 201.847 111.405 203.051 113.491C204.255 115.576 203.541 118.243 201.455 119.447C199.37 120.651 196.704 119.936 195.5 117.851C194.296 115.765 195.01 113.099 197.095 111.895Z" stroke="#78767F" stroke-width="1.28" stroke-linecap="round"/>
</g>
<path d="M195.798 108.538C193.089 109.83 191.216 112.594 191.216 115.796C191.216 120.233 194.814 123.831 199.252 123.831C203.69 123.831 207.287 120.233 207.287 115.796L213.643 115.796" stroke="#78767F" stroke-width="1.28" stroke-linecap="round" stroke-linejoin="round"/>
<path d="M216.751 99.9944C216.987 97.0021 215.529 93.9984 212.757 92.3976C208.914 90.1787 203.999 91.4955 201.78 95.3388C199.561 99.1821 200.878 104.096 204.721 106.315L201.609 111.707" stroke="#78767F" stroke-width="1.28" stroke-linecap="round" stroke-linejoin="round"/>
</g>
<path fill-rule="evenodd" clip-rule="evenodd" d="M17 95.04C19.2091 95.04 21 93.2492 21 91.04C21 88.8309 19.2091 87.04 17 87.04C14.7909 87.04 13 88.8309 13 91.04C13 93.2492 14.7909 95.04 17 95.04ZM17 93.04C18.1046 93.04 19 92.1446 19 91.04C19 89.9355 18.1046 89.04 17 89.04C15.8954 89.04 15 89.9355 15 91.04C15 92.1446 15.8954 93.04 17 93.04Z" fill="#F7F8F8" fill-opacity="0.16"/>
<defs>
<filter id="filter0_b_8217_108003" x="199.918" y="90.3428" width="18.002" height="18.002" filterUnits="userSpaceOnUse" color-interpolation-filters="sRGB">
<feFlood flood-opacity="0" result="BackgroundImageFix"/>
<feGaussianBlur in="BackgroundImageFix" stdDeviation="2"/>
<feComposite in2="SourceAlpha" operator="in" result="effect1_backgroundBlur_8217_108003"/>
<feBlend mode="normal" in="SourceGraphic" in2="effect1_backgroundBlur_8217_108003" result="shape"/>
</filter>
<filter id="filter1_b_8217_108003" x="209.475" y="106.84" width="18.002" height="18.002" filterUnits="userSpaceOnUse" color-interpolation-filters="sRGB">
<feFlood flood-opacity="0" result="BackgroundImageFix"/>
<feGaussianBlur in="BackgroundImageFix" stdDeviation="2"/>
<feComposite in2="SourceAlpha" operator="in" result="effect1_backgroundBlur_8217_108003"/>
<feBlend mode="normal" in="SourceGraphic" in2="effect1_backgroundBlur_8217_108003" result="shape"/>
</filter>
<filter id="filter2_b_8217_108003" x="190.274" y="106.67" width="18.002" height="18.002" filterUnits="userSpaceOnUse" color-interpolation-filters="sRGB">
<feFlood flood-opacity="0" result="BackgroundImageFix"/>
<feGaussianBlur in="BackgroundImageFix" stdDeviation="2"/>
<feComposite in2="SourceAlpha" operator="in" result="effect1_backgroundBlur_8217_108003"/>
<feBlend mode="normal" in="SourceGraphic" in2="effect1_backgroundBlur_8217_108003" result="shape"/>
</filter>
<linearGradient id="paint0_linear_8217_108003" x1="126.422" y1="66.0713" x2="126.422" y2="222.12" gradientUnits="userSpaceOnUse">
<stop stop-color="#CABEFF" stop-opacity="0.32"/>
<stop offset="1" stop-color="#CABEFF" stop-opacity="0"/>
</linearGradient>
<linearGradient id="paint1_linear_8217_108003" x1="126.422" y1="66.0713" x2="126.422" y2="344.967" gradientUnits="userSpaceOnUse">
<stop stop-color="#6E6A88"/>
<stop offset="0.0001" stop-color="#6E6A88"/>
<stop offset="1" stop-color="#6E6A88" stop-opacity="0"/>
</linearGradient>
<linearGradient id="paint2_linear_8217_108003" x1="47.5426" y1="111.293" x2="104.137" y2="104.502" gradientUnits="userSpaceOnUse">
<stop stop-color="#A793FF"/>
<stop offset="0.442708" stop-color="#B3A2FF"/>
<stop offset="1" stop-color="#AA97FF"/>
</linearGradient>
<linearGradient id="paint3_linear_8217_108003" x1="47.5426" y1="131.418" x2="104.137" y2="124.627" gradientUnits="userSpaceOnUse">
<stop stop-color="#A793FF"/>
<stop offset="0.442708" stop-color="#B3A2FF"/>
<stop offset="1" stop-color="#AA97FF"/>
</linearGradient>
<linearGradient id="paint4_linear_8217_108003" x1="47.5426" y1="151.543" x2="104.137" y2="144.752" gradientUnits="userSpaceOnUse">
<stop stop-color="#A793FF"/>
<stop offset="0.442708" stop-color="#B3A2FF"/>
<stop offset="1" stop-color="#AA97FF"/>
</linearGradient>
<linearGradient id="paint5_linear_8217_108003" x1="47.5426" y1="171.669" x2="104.137" y2="164.877" gradientUnits="userSpaceOnUse">
<stop stop-color="#A793FF"/>
<stop offset="0.442708" stop-color="#B3A2FF"/>
<stop offset="1" stop-color="#AA97FF"/>
</linearGradient>
<linearGradient id="paint6_linear_8217_108003" x1="47.5426" y1="191.794" x2="104.137" y2="185.002" gradientUnits="userSpaceOnUse">
<stop stop-color="#A793FF"/>
<stop offset="0.442708" stop-color="#B3A2FF"/>
<stop offset="1" stop-color="#AA97FF"/>
</linearGradient>
<linearGradient id="paint7_linear_8217_108003" x1="47.5431" y1="211.919" x2="104.137" y2="205.127" gradientUnits="userSpaceOnUse">
<stop stop-color="#A793FF"/>
<stop offset="0.442708" stop-color="#B3A2FF"/>
<stop offset="1" stop-color="#AA97FF"/>
</linearGradient>
<linearGradient id="paint8_linear_8217_108003" x1="152.011" y1="48.8604" x2="109.915" y2="124.016" gradientUnits="userSpaceOnUse">
<stop stop-color="#A089E1"/>
<stop offset="1" stop-color="#816DB9"/>
</linearGradient>
<linearGradient id="paint9_linear_8217_108003" x1="157.207" y1="144.748" x2="182.209" y2="228.96" gradientUnits="userSpaceOnUse">
<stop stop-color="#492EF3"/>
<stop offset="1" stop-color="#CF69FF"/>
</linearGradient>
<linearGradient id="paint10_linear_8217_108003" x1="220.306" y1="219.587" x2="34.6545" y2="102.074" gradientUnits="userSpaceOnUse">
<stop stop-color="#AC7DFF"/>
<stop offset="1" stop-color="#B084FF" stop-opacity="0"/>
</linearGradient>
<linearGradient id="paint11_linear_8217_108003" x1="157.207" y1="144.748" x2="182.209" y2="228.96" gradientUnits="userSpaceOnUse">
<stop stop-color="#492EF3"/>
<stop offset="1" stop-color="#CF69FF"/>
</linearGradient>
<linearGradient id="paint12_linear_8217_108003" x1="74.1604" y1="168.531" x2="120.037" y2="168.531" gradientUnits="userSpaceOnUse">
<stop stop-color="#7F43E9"/>
<stop offset="0.614583" stop-color="#A070F4"/>
<stop offset="0.713542" stop-color="#E6DCF9"/>
<stop offset="1" stop-color="#F2EEFA"/>
</linearGradient>
<linearGradient id="paint13_linear_8217_108003" x1="74.1604" y1="183.607" x2="120.037" y2="183.607" gradientUnits="userSpaceOnUse">
<stop stop-color="#7F43E9"/>
<stop offset="0.614583" stop-color="#A070F4"/>
<stop offset="0.713542" stop-color="#E6DCF9"/>
<stop offset="1" stop-color="#F2EEFA"/>
</linearGradient>
</defs>
</svg>
