<svg width="200" height="200" viewBox="0 0 200 200" fill="none" xmlns="http://www.w3.org/2000/svg">
<rect width="200" height="200" fill="white"/>
<path fill-rule="evenodd" clip-rule="evenodd" d="M138.276 173.146H57.6625C55.7986 173.4 53.8955 173.531 51.9618 173.531C50.0281 173.531 48.125 173.4 46.2611 173.146H43.0166V172.572C24.2263 168.476 10.1562 151.744 10.1562 131.725C10.1562 110.932 25.3368 93.6845 45.2195 90.4607C51.8362 68.0071 72.6051 51.6182 97.2018 51.6182C120.56 51.6182 140.466 66.3981 148.078 87.116C170.117 89.1339 187.378 107.667 187.378 130.232C187.378 151.655 171.82 169.444 151.387 172.917V173.146H149.883C147.985 173.4 146.048 173.531 144.08 173.531C142.112 173.531 140.175 173.4 138.276 173.146Z" fill="url(#paint0_linear_377_52050)"/>
<rect x="22.11" y="78.6035" width="65.5383" height="11.8443" rx="1.57924" fill="#E6DEFF"/>
<rect x="24.4788" y="90.448" width="60.8006" height="3.94809" fill="#947DFF"/>
<circle cx="31.1905" cy="84.5256" r="1.97405" fill="#947DFF"/>
<rect x="37.1124" y="81.7622" width="44.2186" height="5.52733" rx="0.789619" fill="url(#paint1_linear_377_52050)"/>
<rect x="22.11" y="94.3264" width="65.5383" height="11.8443" rx="1.57924" fill="#E6DEFF"/>
<rect x="24.4788" y="106.17" width="60.8006" height="3.94809" fill="#947DFF"/>
<circle cx="31.1905" cy="100.249" r="1.97405" fill="#F07EFF"/>
<rect x="37.1124" y="97.4851" width="44.2186" height="5.52733" rx="0.789619" fill="url(#paint2_linear_377_52050)"/>
<rect x="22.11" y="110.049" width="65.5383" height="11.8443" rx="1.57924" fill="#E6DEFF"/>
<rect x="24.4788" y="121.894" width="60.8006" height="3.94809" fill="#947DFF"/>
<circle cx="31.1905" cy="115.972" r="1.97405" fill="#947DFF"/>
<rect x="37.1124" y="113.208" width="44.2186" height="5.52733" rx="0.789619" fill="url(#paint3_linear_377_52050)"/>
<rect x="22.11" y="125.772" width="65.5383" height="11.8443" rx="1.57924" fill="#E6DEFF"/>
<rect x="24.4788" y="137.617" width="60.8006" height="3.94809" fill="#947DFF"/>
<circle cx="31.1905" cy="131.695" r="1.97405" fill="#947DFF"/>
<rect x="37.1124" y="128.931" width="44.2186" height="5.52733" rx="0.789619" fill="url(#paint4_linear_377_52050)"/>
<rect x="22.11" y="141.495" width="65.5383" height="11.8443" rx="1.57924" fill="#E6DEFF"/>
<rect x="24.4788" y="153.339" width="60.8006" height="3.94809" fill="#947DFF"/>
<circle cx="31.1905" cy="147.417" r="1.97405" fill="#947DFF"/>
<rect x="37.1124" y="144.654" width="44.2186" height="5.52733" rx="0.789619" fill="url(#paint5_linear_377_52050)"/>
<rect x="22.11" y="157.218" width="65.5383" height="11.8443" rx="1.57924" fill="#E6DEFF"/>
<path d="M24.4788 169.062H85.2794V169.473C85.2794 171.427 83.6958 173.011 81.7423 173.011H28.0159C26.0624 173.011 24.4788 171.427 24.4788 169.473V169.062Z" fill="#947DFF"/>
<circle cx="31.1901" cy="163.14" r="1.97405" fill="#947DFF"/>
<rect x="37.1128" y="160.377" width="44.2186" height="5.52733" rx="0.789619" fill="url(#paint6_linear_377_52050)"/>
<path d="M24.468 78.2105C24.468 76.257 26.0516 74.6733 28.0051 74.6733H81.4637C83.4172 74.6733 85.0008 76.257 85.0008 78.2105V78.604H24.468V78.2105Z" fill="#947DFF"/>
<rect x="94.9303" y="38.1721" width="47.6562" height="66.4062" rx="12.5" fill="url(#paint7_linear_377_52050)"/>
<rect x="100.399" y="73.8416" width="36.7187" height="6.89557" rx="2.77761" fill="#E6DEFF"/>
<rect x="100.399" y="84.9658" width="36.7187" height="6.89557" rx="2.77761" fill="#FBF9FF" stroke="#815AE3" stroke-width="0.694402"/>
<rect x="128.414" y="86.8525" width="0.768404" height="3.125" rx="0.384202" fill="#956AFF"/>
<path fill-rule="evenodd" clip-rule="evenodd" d="M104.479 77.2892C104.479 76.9083 104.788 76.5996 105.169 76.5996H120.109C120.49 76.5996 120.799 76.9083 120.799 77.2892C120.799 77.67 120.49 77.9787 120.109 77.9787H105.169C104.788 77.9787 104.479 77.67 104.479 77.2892ZM123.519 77.2892C123.519 76.9084 123.827 76.5997 124.208 76.5997H128.269C128.65 76.5997 128.959 76.9084 128.959 77.2892C128.959 77.6701 128.65 77.9788 128.269 77.9788H124.208C123.827 77.9788 123.519 77.6701 123.519 77.2892ZM131.008 76.5999C130.627 76.5999 130.318 76.9086 130.318 77.2894C130.318 77.6703 130.627 77.979 131.008 77.979H132.348C132.729 77.979 133.038 77.6703 133.038 77.2894C133.038 76.9086 132.729 76.5999 132.348 76.5999H131.008Z" fill="#9877EA"/>
<ellipse cx="107.878" cy="88.4133" rx="1.35995" ry="1.37911" fill="#956AFF"/>
<ellipse cx="113.319" cy="88.4133" rx="1.35995" ry="1.37911" fill="#956AFF"/>
<ellipse cx="118.758" cy="88.4133" rx="1.35995" ry="1.37911" fill="#956AFF"/>
<ellipse cx="124.198" cy="88.4133" rx="1.35995" ry="1.37911" fill="#956AFF"/>
<rect x="109.774" y="49.1096" width="17.9688" height="17.9688" rx="6.01609" fill="#FBF9FF"/>
<circle cx="118.758" cy="54.351" r="2.99479" fill="#FFB95A"/>
<path d="M114.266 61.1018C114.266 59.4405 115.613 58.0938 117.275 58.0938H120.243C121.904 58.0938 123.251 59.4405 123.251 61.1018V62.5793C123.251 63.41 122.577 64.0833 121.747 64.0833H115.771C114.94 64.0833 114.266 63.41 114.266 62.5793V61.1018Z" fill="#7958FF"/>
<path d="M79.2873 116.905C79.2873 114.748 81.036 112.999 83.1932 112.999H166.943C169.1 112.999 170.849 114.748 170.849 116.905V170.287H79.2873V116.905Z" fill="url(#paint8_linear_377_52050)"/>
<path d="M79.2873 116.905C79.2873 114.748 81.036 112.999 83.1932 112.999H166.943C169.1 112.999 170.849 114.748 170.849 116.905V170.287H79.2873V116.905Z" fill="url(#paint9_linear_377_52050)"/>
<path d="M79.2873 116.905C79.2873 114.748 81.036 112.999 83.1932 112.999H166.943C169.1 112.999 170.849 114.748 170.849 116.905V170.287H79.2873V116.905Z" stroke="url(#paint10_linear_377_52050)" stroke-width="2.5291"/>
<path d="M70.0775 168.889H179.23V170.165C179.23 171.593 178.073 172.75 176.645 172.75H73.3091C71.5243 172.75 70.0775 171.304 70.0775 169.519V168.889Z" fill="#7958FF"/>
<path d="M70.0775 168.889H179.23V170.165C179.23 171.593 178.073 172.75 176.645 172.75H73.3091C71.5243 172.75 70.0775 171.304 70.0775 169.519V168.889Z" fill="#7958FF"/>
<rect x="167.917" y="50.9136" width="5.01455" height="5.01455" rx="1.5625" transform="rotate(30.813 167.917 50.9136)" fill="#FFDDB5"/>
<path fill-rule="evenodd" clip-rule="evenodd" d="M186.482 66.6005C186.482 66.5105 186.555 66.4375 186.645 66.4375H188.112C188.202 66.4375 188.275 66.5105 188.275 66.6005V69.5012L190.672 68.0537C190.749 68.0071 190.847 68.0333 190.89 68.1121L191.629 69.4505C191.673 69.5293 191.646 69.6309 191.568 69.6775L189.171 71.1251L191.568 72.5727C191.645 72.6192 191.673 72.7208 191.629 72.7996L190.89 74.138C190.847 74.2168 190.749 74.243 190.672 74.1965L188.275 72.749V75.6495C188.275 75.7395 188.202 75.8125 188.112 75.8125H186.645C186.555 75.8125 186.482 75.7395 186.482 75.6495V72.7488L184.085 74.1965C184.008 74.243 183.91 74.2168 183.866 74.138L183.128 72.7996C183.084 72.7208 183.111 72.6192 183.188 72.5727L185.586 71.1251L183.188 69.6775C183.111 69.6309 183.084 69.5293 183.127 69.4505L183.866 68.1121C183.91 68.0333 184.007 68.0071 184.085 68.0537L186.482 69.5014V66.6005Z" fill="#E5E1EC"/>
<path d="M91.0242 57.875H60.0242C55.6059 57.875 52.0242 61.4567 52.0242 65.875V71.875" stroke="#A782E8" stroke-width="0.78125" stroke-dasharray="2.73 2.73"/>
<path d="M52.6942 72.7585C52.3908 73.2642 51.6578 73.2642 51.3544 72.7585L49.7342 70.0582C49.4218 69.5375 49.7969 68.875 50.4041 68.875L53.6445 68.875C54.2517 68.875 54.6268 69.5375 54.3144 70.0582L52.6942 72.7585Z" fill="#A782E8"/>
<rect opacity="0.9" x="104.885" y="121.893" width="56.7139" height="40.8673" rx="3.11831" fill="#E6DEFF"/>
<rect x="111.557" y="132.736" width="43.3694" height="3.33611" rx="1.24732" fill="#C29DFF"/>
<rect x="111.557" y="152.752" width="21.6847" height="3.33611" rx="1.24732" fill="#C29DFF"/>
<rect x="111.557" y="146.08" width="43.3694" height="3.33611" rx="1.24732" fill="#C29DFF"/>
<rect x="111.557" y="139.42" width="29.5329" height="3.32389" rx="1.24732" fill="#C29DFF"/>
<rect x="144.654" y="139.42" width="10.2723" height="3.32389" rx="1.24732" fill="#C29DFF"/>
<circle cx="111.104" cy="126.891" r="1.21486" fill="#FBF9FF"/>
<circle cx="115.963" cy="126.891" r="1.21486" fill="#FBF9FF"/>
<circle cx="120.822" cy="126.891" r="1.21486" fill="#FBF9FF"/>
<path d="M41.505 50.3128L40.6381 48.8112C40.1593 47.982 39.099 47.6978 38.2697 48.1766V48.1766C37.4404 48.6554 36.38 48.3713 35.9012 47.542V47.542C35.4225 46.7127 34.3621 46.4286 33.5328 46.9074L32.0313 47.7743" stroke="#FFDDB5" stroke-width="1.5625" stroke-linecap="round" stroke-linejoin="round"/>
<path d="M58.4808 130.884C58.2651 130.884 58.0902 131.059 58.0902 131.275C58.0902 131.491 58.2651 131.666 58.4808 131.666L58.4808 130.884ZM58.4808 131.666L59.7609 131.666L59.7609 130.884L58.4808 130.884L58.4808 131.666ZM62.321 131.666L64.8811 131.666L64.8811 130.884L62.321 130.884L62.321 131.666ZM67.4412 131.666L70.0013 131.666L70.0013 130.884L67.4412 130.884L67.4412 131.666ZM72.5614 131.666L75.1215 131.666L75.1215 130.884L72.5614 130.884L72.5614 131.666ZM77.6816 131.666L80.2417 131.666L80.2417 130.884L77.6816 130.884L77.6816 131.666ZM82.8018 131.666L85.3619 131.666L85.3619 130.884L82.8018 130.884L82.8018 131.666ZM87.922 131.666L90.4821 131.666L90.4821 130.884L87.922 130.884L87.922 131.666ZM93.0422 131.666L94.3222 131.666L94.3222 130.884L93.0422 130.884L93.0422 131.666Z" fill="url(#paint11_linear_377_52050)"/>
<path d="M97.8936 131.074C98.0453 131.165 98.0453 131.385 97.8936 131.476L94.6772 133.406C94.521 133.499 94.3223 133.387 94.3223 133.205L94.3223 129.345C94.3223 129.163 94.521 129.05 94.6772 129.144L97.8936 131.074Z" fill="#F3EEFA"/>
<path d="M58.4808 142.662C58.2651 142.662 58.0902 142.837 58.0902 143.053C58.0902 143.269 58.2651 143.444 58.4808 143.444L58.4808 142.662ZM58.4808 143.444L59.7609 143.444L59.7609 142.662L58.4808 142.662L58.4808 143.444ZM62.321 143.444L64.8811 143.444L64.8811 142.662L62.321 142.662L62.321 143.444ZM67.4412 143.444L70.0013 143.444L70.0013 142.662L67.4412 142.662L67.4412 143.444ZM72.5614 143.444L75.1215 143.444L75.1215 142.662L72.5614 142.662L72.5614 143.444ZM77.6816 143.444L80.2417 143.444L80.2417 142.662L77.6816 142.662L77.6816 143.444ZM82.8018 143.444L85.3619 143.444L85.3619 142.662L82.8018 142.662L82.8018 143.444ZM87.922 143.444L90.4821 143.444L90.4821 142.662L87.922 142.662L87.922 143.444ZM93.0422 143.444L94.3222 143.444L94.3222 142.662L93.0422 142.662L93.0422 143.444Z" fill="url(#paint12_linear_377_52050)"/>
<path d="M97.8936 142.852C98.0453 142.943 98.0453 143.163 97.8936 143.254L94.6772 145.184C94.521 145.277 94.3223 145.165 94.3223 144.983L94.3223 141.123C94.3223 140.941 94.521 140.828 94.6772 140.922L97.8936 142.852Z" fill="#F3EEFA"/>
<path d="M58.4808 155.222C58.2651 155.222 58.0902 155.397 58.0902 155.613C58.0902 155.828 58.2651 156.003 58.4808 156.003L58.4808 155.222ZM58.4808 156.003L59.7609 156.003L59.7609 155.222L58.4808 155.222L58.4808 156.003ZM62.321 156.003L64.8811 156.003L64.8811 155.222L62.321 155.222L62.321 156.003ZM67.4412 156.003L70.0013 156.003L70.0013 155.222L67.4412 155.222L67.4412 156.003ZM72.5614 156.003L75.1215 156.003L75.1215 155.222L72.5614 155.222L72.5614 156.003ZM77.6816 156.003L80.2417 156.003L80.2417 155.222L77.6816 155.222L77.6816 156.003ZM82.8018 156.003L85.3619 156.003L85.3619 155.222L82.8018 155.222L82.8018 156.003ZM87.922 156.003L90.4821 156.003L90.4821 155.222L87.922 155.222L87.922 156.003ZM93.0422 156.003L94.3222 156.003L94.3222 155.222L93.0422 155.222L93.0422 156.003Z" fill="#F3EEFA"/>
<path d="M97.8936 155.412C98.0453 155.503 98.0453 155.722 97.8936 155.814L94.6772 157.743C94.521 157.837 94.3223 157.725 94.3223 157.542L94.3223 153.683C94.3223 153.501 94.521 153.388 94.6772 153.482L97.8936 155.412Z" fill="#F3EEFA"/>
<g opacity="0.5">
<path d="M167.093 95.6702C169.026 96.9989 171.627 97.1859 173.793 95.9353C176.796 94.2018 177.825 90.3624 176.091 87.3599C174.358 84.3573 170.518 83.3286 167.516 85.0621L165.427 81.4448L165.027 80.7507" stroke="#AF9EFF" stroke-linecap="round" stroke-linejoin="round"/>
<g filter="url(#filter0_b_377_52050)">
<path d="M161.265 74.229C163.133 73.1504 165.522 73.7905 166.601 75.6588C167.68 77.5272 167.04 79.9162 165.171 80.9949C163.303 82.0736 160.914 81.4334 159.835 79.5651C158.757 77.6968 159.397 75.3077 161.265 74.229Z" fill="#CABEFF"/>
<path d="M161.515 74.6621C163.144 73.7215 165.227 74.2797 166.168 75.9088C167.109 77.538 166.55 79.6213 164.921 80.5619C163.292 81.5025 161.209 80.9443 160.268 79.3151C159.328 77.6859 159.886 75.6027 161.515 74.6621Z" stroke="#AF9EFF" stroke-linecap="round"/>
</g>
<g filter="url(#filter1_b_377_52050)">
<path d="M168.731 87.1172C170.599 86.0386 172.988 86.6787 174.067 88.547C175.146 90.4154 174.505 92.8044 172.637 93.8831C170.769 94.9617 168.38 94.3216 167.301 92.4533C166.222 90.5849 166.862 88.1959 168.731 87.1172Z" fill="#CABEFF"/>
<path d="M168.981 87.5502C170.61 86.6096 172.693 87.1678 173.634 88.797C174.574 90.4262 174.016 92.5094 172.387 93.45C170.758 94.3907 168.675 93.8325 167.734 92.2033C166.793 90.5741 167.352 88.4909 168.981 87.5502Z" stroke="#AF9EFF" stroke-linecap="round"/>
</g>
<g filter="url(#filter2_b_377_52050)">
<path d="M153.731 86.9844C155.599 85.9057 157.988 86.5459 159.067 88.4142C160.145 90.2825 159.505 92.6716 157.637 93.7502C155.769 94.8289 153.38 94.1888 152.301 92.3205C151.222 90.4521 151.862 88.0631 153.731 86.9844Z" fill="#CABEFF"/>
<path d="M153.981 87.4174C155.61 86.4768 157.693 87.035 158.634 88.6642C159.574 90.2934 159.016 92.3766 157.387 93.3172C155.758 94.2578 153.675 93.6996 152.734 92.0705C151.793 90.4413 152.352 88.358 153.981 87.4174Z" stroke="#AF9EFF" stroke-linecap="round"/>
</g>
<path d="M152.967 84.7957C150.851 85.8047 149.388 87.9643 149.388 90.4656C149.388 93.9326 152.198 96.7432 155.665 96.7432C159.133 96.7432 161.943 93.9326 161.943 90.4656L166.909 90.4656" stroke="#AF9EFF" stroke-linecap="round" stroke-linejoin="round"/>
<path d="M169.337 78.1201C169.521 75.7823 168.382 73.4357 166.216 72.1851C163.214 70.4515 159.374 71.4803 157.641 74.4829C155.907 77.4854 156.936 81.3247 159.939 83.0583L157.507 87.2704" stroke="#AF9EFF" stroke-linecap="round" stroke-linejoin="round"/>
</g>
<path fill-rule="evenodd" clip-rule="evenodd" d="M13.2812 74.25C15.0071 74.25 16.4062 72.8509 16.4062 71.125C16.4062 69.3991 15.0071 68 13.2812 68C11.5554 68 10.1562 69.3991 10.1562 71.125C10.1562 72.8509 11.5554 74.25 13.2812 74.25ZM13.2812 72.6875C14.1442 72.6875 14.8438 71.988 14.8438 71.125C14.8438 70.2621 14.1442 69.5625 13.2812 69.5625C12.4183 69.5625 11.7188 70.2621 11.7188 71.125C11.7188 71.988 12.4183 72.6875 13.2812 72.6875Z" fill="#FFD5FF"/>
<defs>
<filter id="filter0_b_377_52050" x="156.186" y="70.5801" width="14.0638" height="14.0637" filterUnits="userSpaceOnUse" color-interpolation-filters="sRGB">
<feFlood flood-opacity="0" result="BackgroundImageFix"/>
<feGaussianBlur in="BackgroundImageFix" stdDeviation="1.5625"/>
<feComposite in2="SourceAlpha" operator="in" result="effect1_backgroundBlur_377_52050"/>
<feBlend mode="normal" in="SourceGraphic" in2="effect1_backgroundBlur_377_52050" result="shape"/>
</filter>
<filter id="filter1_b_377_52050" x="163.652" y="83.4683" width="14.0638" height="14.0637" filterUnits="userSpaceOnUse" color-interpolation-filters="sRGB">
<feFlood flood-opacity="0" result="BackgroundImageFix"/>
<feGaussianBlur in="BackgroundImageFix" stdDeviation="1.5625"/>
<feComposite in2="SourceAlpha" operator="in" result="effect1_backgroundBlur_377_52050"/>
<feBlend mode="normal" in="SourceGraphic" in2="effect1_backgroundBlur_377_52050" result="shape"/>
</filter>
<filter id="filter2_b_377_52050" x="148.652" y="83.3354" width="14.0638" height="14.0637" filterUnits="userSpaceOnUse" color-interpolation-filters="sRGB">
<feFlood flood-opacity="0" result="BackgroundImageFix"/>
<feGaussianBlur in="BackgroundImageFix" stdDeviation="1.5625"/>
<feComposite in2="SourceAlpha" operator="in" result="effect1_backgroundBlur_377_52050"/>
<feBlend mode="normal" in="SourceGraphic" in2="effect1_backgroundBlur_377_52050" result="shape"/>
</filter>
<linearGradient id="paint0_linear_377_52050" x1="98.7674" y1="51.6182" x2="98.7674" y2="173.531" gradientUnits="userSpaceOnUse">
<stop stop-color="#F3EFFA"/>
<stop offset="1" stop-color="#F3EFFA" stop-opacity="0"/>
</linearGradient>
<linearGradient id="paint1_linear_377_52050" x1="37.1427" y1="86.947" x2="81.3567" y2="81.6413" gradientUnits="userSpaceOnUse">
<stop stop-color="#B6A6FB"/>
<stop offset="0.442708" stop-color="#C1B3FD"/>
<stop offset="1" stop-color="#CABEFF"/>
</linearGradient>
<linearGradient id="paint2_linear_377_52050" x1="37.1427" y1="102.67" x2="81.3567" y2="97.3642" gradientUnits="userSpaceOnUse">
<stop stop-color="#B6A6FB"/>
<stop offset="0.442708" stop-color="#C1B3FD"/>
<stop offset="1" stop-color="#CABEFF"/>
</linearGradient>
<linearGradient id="paint3_linear_377_52050" x1="37.1427" y1="118.393" x2="81.3567" y2="113.087" gradientUnits="userSpaceOnUse">
<stop stop-color="#B6A6FB"/>
<stop offset="0.442708" stop-color="#C1B3FD"/>
<stop offset="1" stop-color="#CABEFF"/>
</linearGradient>
<linearGradient id="paint4_linear_377_52050" x1="37.1427" y1="134.116" x2="81.3567" y2="128.81" gradientUnits="userSpaceOnUse">
<stop stop-color="#B6A6FB"/>
<stop offset="0.442708" stop-color="#C1B3FD"/>
<stop offset="1" stop-color="#CABEFF"/>
</linearGradient>
<linearGradient id="paint5_linear_377_52050" x1="37.1427" y1="149.838" x2="81.3567" y2="144.533" gradientUnits="userSpaceOnUse">
<stop stop-color="#B6A6FB"/>
<stop offset="0.442708" stop-color="#C1B3FD"/>
<stop offset="1" stop-color="#CABEFF"/>
</linearGradient>
<linearGradient id="paint6_linear_377_52050" x1="37.143" y1="165.562" x2="81.3571" y2="160.256" gradientUnits="userSpaceOnUse">
<stop stop-color="#B6A6FB"/>
<stop offset="0.442708" stop-color="#C1B3FD"/>
<stop offset="1" stop-color="#CABEFF"/>
</linearGradient>
<linearGradient id="paint7_linear_377_52050" x1="118.758" y1="38.1721" x2="85.8714" y2="96.8875" gradientUnits="userSpaceOnUse">
<stop stop-color="#C39EFF"/>
<stop offset="1" stop-color="#906FEF"/>
</linearGradient>
<linearGradient id="paint8_linear_377_52050" x1="122.818" y1="113.085" x2="142.351" y2="178.875" gradientUnits="userSpaceOnUse">
<stop stop-color="#492EF3"/>
<stop offset="1" stop-color="#CF69FF"/>
</linearGradient>
<linearGradient id="paint9_linear_377_52050" x1="172.114" y1="171.553" x2="27.0737" y2="79.7462" gradientUnits="userSpaceOnUse">
<stop stop-color="#BC97FD"/>
<stop offset="1" stop-color="#BC97FD" stop-opacity="0"/>
</linearGradient>
<linearGradient id="paint10_linear_377_52050" x1="122.818" y1="113.085" x2="142.351" y2="178.875" gradientUnits="userSpaceOnUse">
<stop stop-color="#492EF3"/>
<stop offset="1" stop-color="#CF69FF"/>
</linearGradient>
<linearGradient id="paint11_linear_377_52050" x1="57.9378" y1="131.775" x2="93.7792" y2="131.775" gradientUnits="userSpaceOnUse">
<stop stop-color="#7F43E9"/>
<stop offset="0.614583" stop-color="#A070F4"/>
<stop offset="0.713542" stop-color="#E6DCF9"/>
<stop offset="1" stop-color="#F2EEFA"/>
</linearGradient>
<linearGradient id="paint12_linear_377_52050" x1="57.9378" y1="143.553" x2="93.7792" y2="143.553" gradientUnits="userSpaceOnUse">
<stop stop-color="#7F43E9"/>
<stop offset="0.614583" stop-color="#A070F4"/>
<stop offset="0.713542" stop-color="#E6DCF9"/>
<stop offset="1" stop-color="#F2EEFA"/>
</linearGradient>
</defs>
</svg>
