<svg width="32" height="32" viewBox="0 0 32 32" fill="none" xmlns="http://www.w3.org/2000/svg">
<rect width="32" height="32" rx="6" fill="#FFEAFE"/>
<path fill-rule="evenodd" clip-rule="evenodd" d="M9.08182 16.2117C9.27487 16.6167 9.10307 17.1015 8.69811 17.2945C7.35208 17.9362 6.42468 19.3082 6.42468 20.8953C6.42468 23.0968 8.20937 24.8815 10.4109 24.8815C12.6124 24.8815 14.3971 23.0968 14.3971 20.8953C14.3971 20.4466 14.7608 20.083 15.2094 20.083H21.5949C22.0435 20.083 22.4072 20.4466 22.4072 20.8953C22.4072 21.3439 22.0435 21.7076 21.5949 21.7076H15.9634C15.5698 24.4214 13.2338 26.5061 10.4109 26.5061C7.31211 26.5061 4.80005 23.9941 4.80005 20.8953C4.80005 18.6585 6.10895 16.729 7.99901 15.828C8.40398 15.635 8.88877 15.8068 9.08182 16.2117Z" fill="black"/>
<path fill-rule="evenodd" clip-rule="evenodd" d="M9.08182 16.2117C9.27487 16.6167 9.10307 17.1015 8.69811 17.2945C7.35208 17.9362 6.42468 19.3082 6.42468 20.8953C6.42468 23.0968 8.20937 24.8815 10.4109 24.8815C12.6124 24.8815 14.3971 23.0968 14.3971 20.8953C14.3971 20.4466 14.7608 20.083 15.2094 20.083H21.5949C22.0435 20.083 22.4072 20.4466 22.4072 20.8953C22.4072 21.3439 22.0435 21.7076 21.5949 21.7076H15.9634C15.5698 24.4214 13.2338 26.5061 10.4109 26.5061C7.31211 26.5061 4.80005 23.9941 4.80005 20.8953C4.80005 18.6585 6.10895 16.729 7.99901 15.828C8.40398 15.635 8.88877 15.8068 9.08182 16.2117Z" fill="url(#paint0_linear_540_1415)"/>
<path d="M24.0001 20.8C24.0001 22.1255 22.9256 23.2 21.6001 23.2C20.2746 23.2 19.2001 22.1255 19.2001 20.8C19.2001 19.4745 20.2746 18.4 21.6001 18.4C22.9256 18.4 24.0001 19.4745 24.0001 20.8Z" fill="url(#paint1_linear_540_1415)"/>
<path fill-rule="evenodd" clip-rule="evenodd" d="M17.9899 7.75959C16.0833 6.65883 13.6454 7.31207 12.5446 9.21865C11.4438 11.1252 12.0971 13.5632 14.0036 14.6639C14.1902 14.7716 14.3264 14.9491 14.3821 15.1572C14.4379 15.3653 14.4087 15.587 14.301 15.7736L11.1082 21.3036C10.8839 21.6921 10.3871 21.8252 9.99858 21.6009C9.61005 21.3766 9.47694 20.8798 9.70125 20.4912L12.517 15.6142C10.3636 13.9164 9.72617 10.851 11.1376 8.40634C12.687 5.72272 16.1185 4.80323 18.8022 6.35262L18.396 7.05611L18.8022 6.35262C20.7393 7.47101 21.7558 9.56929 21.5911 11.6566C21.5558 12.1039 21.1646 12.4378 20.7173 12.4025C20.2701 12.3672 19.9362 11.976 19.9715 11.5288C20.0888 10.0423 19.3643 8.55311 17.9899 7.75959Z" fill="url(#paint2_linear_540_1415)"/>
<path fill-rule="evenodd" clip-rule="evenodd" d="M17.9899 7.75959C16.0833 6.65883 13.6454 7.31207 12.5446 9.21865C11.4438 11.1252 12.0971 13.5632 14.0036 14.6639C14.1902 14.7716 14.3264 14.9491 14.3821 15.1572C14.4379 15.3653 14.4087 15.587 14.301 15.7736L11.1082 21.3036C10.8839 21.6921 10.3871 21.8252 9.99858 21.6009C9.61005 21.3766 9.47694 20.8798 9.70125 20.4912L12.517 15.6142C10.3636 13.9164 9.72617 10.851 11.1376 8.40634C12.687 5.72272 16.1185 4.80323 18.8022 6.35262L18.396 7.05611L18.8022 6.35262C20.7393 7.47101 21.7558 9.56929 21.5911 11.6566C21.5558 12.1039 21.1646 12.4378 20.7173 12.4025C20.2701 12.3672 19.9362 11.976 19.9715 11.5288C20.0888 10.0423 19.3643 8.55311 17.9899 7.75959Z" fill="url(#paint3_linear_540_1415)"/>
<path d="M9.2002 22.8781C8.05249 22.2155 7.65925 20.7479 8.32189 19.6002C8.98452 18.4525 10.4521 18.0593 11.5998 18.7219C12.7475 19.3845 13.1407 20.8521 12.4781 21.9998C11.8155 23.1475 10.3479 23.5408 9.2002 22.8781Z" fill="url(#paint4_linear_540_1415)"/>
<path d="M9.2002 22.8781C8.05249 22.2155 7.65925 20.7479 8.32189 19.6002C8.98452 18.4525 10.4521 18.0593 11.5998 18.7219C12.7475 19.3845 13.1407 20.8521 12.4781 21.9998C11.8155 23.1475 10.3479 23.5408 9.2002 22.8781Z" fill="url(#paint5_linear_540_1415)"/>
<path fill-rule="evenodd" clip-rule="evenodd" d="M15.5889 10.5053C15.9774 10.281 16.4742 10.4141 16.6986 10.8027L19.5143 15.6797C22.0614 14.6636 25.0348 15.6443 26.4462 18.089C27.9956 20.7727 27.0761 24.2042 24.3925 25.7536C22.4554 26.872 20.13 26.7032 18.4047 25.5168C18.035 25.2626 17.9414 24.7569 18.1956 24.3872C18.4497 24.0176 18.9555 23.924 19.3252 24.1781C20.5539 25.023 22.2058 25.1401 23.5802 24.3466C25.4868 23.2459 26.14 20.8079 25.0392 18.9014C23.9385 16.9948 21.5005 16.3415 19.594 17.4423C19.2054 17.6666 18.7086 17.5335 18.4843 17.145L15.2916 11.615C15.0673 11.2264 15.2004 10.7296 15.5889 10.5053Z" fill="black"/>
<path fill-rule="evenodd" clip-rule="evenodd" d="M15.5889 10.5053C15.9774 10.281 16.4742 10.4141 16.6986 10.8027L19.5143 15.6797C22.0614 14.6636 25.0348 15.6443 26.4462 18.089C27.9956 20.7727 27.0761 24.2042 24.3925 25.7536C22.4554 26.872 20.13 26.7032 18.4047 25.5168C18.035 25.2626 17.9414 24.7569 18.1956 24.3872C18.4497 24.0176 18.9555 23.924 19.3252 24.1781C20.5539 25.023 22.2058 25.1401 23.5802 24.3466C25.4868 23.2459 26.14 20.8079 25.0392 18.9014C23.9385 16.9948 21.5005 16.3415 19.594 17.4423C19.2054 17.6666 18.7086 17.5335 18.4843 17.145L15.2916 11.615C15.0673 11.2264 15.2004 10.7296 15.5889 10.5053Z" fill="url(#paint6_linear_540_1415)"/>
<path d="M14.8003 9.12181C15.948 8.45918 17.4156 8.85242 18.0782 10.0001C18.7408 11.1478 18.3476 12.6154 17.1999 13.278C16.0522 13.9407 14.5846 13.5474 13.922 12.3997C13.2594 11.252 13.6526 9.78444 14.8003 9.12181Z" fill="url(#paint7_linear_540_1415)"/>
<defs>
<linearGradient id="paint0_linear_540_1415" x1="4.33263" y1="21.595" x2="18.2534" y2="13.2511" gradientUnits="userSpaceOnUse">
<stop stop-color="#492EF3"/>
<stop offset="1" stop-color="#CF69FF"/>
</linearGradient>
<linearGradient id="paint1_linear_540_1415" x1="18.8157" y1="21.0457" x2="23.9019" y2="19.3038" gradientUnits="userSpaceOnUse">
<stop stop-color="#492EF3"/>
<stop offset="1" stop-color="#CF69FF"/>
</linearGradient>
<linearGradient id="paint2_linear_540_1415" x1="18.8961" y1="14.7237" x2="11.3952" y2="9.23581" gradientUnits="userSpaceOnUse">
<stop stop-color="#FF897A"/>
<stop offset="1" stop-color="#E264F7"/>
</linearGradient>
<linearGradient id="paint3_linear_540_1415" x1="11.2001" y1="20.4" x2="22.0888" y2="9.76822" gradientUnits="userSpaceOnUse">
<stop stop-color="#FEBEA6"/>
<stop offset="0.5" stop-color="#FC85E9"/>
<stop offset="1" stop-color="#E264F7"/>
</linearGradient>
<linearGradient id="paint4_linear_540_1415" x1="9.29969" y1="22.8281" x2="12.3499" y2="19.5212" gradientUnits="userSpaceOnUse">
<stop stop-color="#FF897A"/>
<stop offset="1" stop-color="#E264F7"/>
</linearGradient>
<linearGradient id="paint5_linear_540_1415" x1="8.8" y1="22.8" x2="12.3996" y2="19.7409" gradientUnits="userSpaceOnUse">
<stop stop-color="#FEBEA6"/>
<stop offset="0.5" stop-color="#FC85E9"/>
<stop offset="1" stop-color="#E264F7"/>
</linearGradient>
<linearGradient id="paint6_linear_540_1415" x1="25.232" y1="25.8085" x2="11.0455" y2="17.9247" gradientUnits="userSpaceOnUse">
<stop stop-color="#492EF3"/>
<stop offset="1" stop-color="#CF69FF"/>
</linearGradient>
<linearGradient id="paint7_linear_540_1415" x1="17.6056" y1="13.488" x2="13.5546" y2="9.95481" gradientUnits="userSpaceOnUse">
<stop stop-color="#492EF3"/>
<stop offset="1" stop-color="#CF69FF"/>
</linearGradient>
</defs>
</svg>
