<svg width="1281" height="824" viewBox="0 0 1281 824" fill="none" xmlns="http://www.w3.org/2000/svg">
<path d="M1046.67 380.352H1280M764.444 552.352H422.619C410.02 552.352 398.399 559.148 392.222 570.129V570.129C386.045 581.111 374.425 587.907 361.825 587.907H270.218C258.071 587.907 246.796 594.219 240.444 604.574V604.574C234.093 614.929 222.818 621.24 210.67 621.24H154.34C96.3304 621.24 44.75 658.152 26.0318 713.058L10.6667 758.129" stroke="#191C1D" stroke-width="0.888889" stroke-linecap="round"/>
<path d="M1046.67 380.352H1280M764.444 552.352H422.619C410.02 552.352 398.399 559.148 392.222 570.129V570.129C386.045 581.111 374.425 587.907 361.825 587.907H270.218C258.071 587.907 246.796 594.219 240.444 604.574V604.574C234.093 614.929 222.818 621.24 210.67 621.24H154.34C96.3304 621.24 44.75 658.152 26.0318 713.058L10.6667 758.129" stroke="#C4C7C7" stroke-opacity="0.02" stroke-width="0.888889" stroke-linecap="round"/>
<path d="M1046.67 380.352H1280M764.444 552.352H422.619C410.02 552.352 398.399 559.148 392.222 570.129V570.129C386.045 581.111 374.425 587.907 361.825 587.907H270.218C258.071 587.907 246.796 594.219 240.444 604.574V604.574C234.093 614.929 222.818 621.24 210.67 621.24H154.34C96.3304 621.24 44.75 658.152 26.0318 713.058L10.6667 758.129" stroke="#CABEFF" stroke-opacity="0.16" stroke-width="0.888889" stroke-linecap="round"/>
<path d="M1181.11 415.018L1187.86 403.723C1207.25 371.309 1242.23 351.463 1280 351.463V749.241H144.889L193.751 688.756C220.752 655.332 261.416 635.907 304.383 635.907H502.622C533.512 635.907 563.562 625.844 588.222 607.241C612.883 588.637 642.932 578.574 673.822 578.574H829.683C868.562 578.574 905.099 559.993 928 528.574C950.901 497.155 987.438 478.574 1026.32 478.574H1069.06C1114.99 478.574 1157.54 454.439 1181.11 415.018Z" fill="url(#paint0_linear_6884_239335)"/>
<g filter="url(#filter0_b_6884_239335)">
<path fill-rule="evenodd" clip-rule="evenodd" d="M914.667 604.796C1012.85 604.796 1092.44 525.202 1092.44 427.018C1092.44 381.451 1075.3 339.887 1047.11 308.426C1014.56 272.098 967.283 249.24 914.667 249.24C816.483 249.24 736.889 328.834 736.889 427.018C736.889 525.202 816.483 604.796 914.667 604.796ZM914.667 515.907C963.759 515.907 1003.56 476.11 1003.56 427.018C1003.56 377.926 963.759 338.129 914.667 338.129C865.575 338.129 825.778 377.926 825.778 427.018C825.778 476.11 865.575 515.907 914.667 515.907Z" fill="url(#paint1_linear_6884_239335)" fill-opacity="0.32"/>
</g>
<rect x="461.333" y="509.685" width="320" height="240" rx="28.4444" fill="#3E3A50"/>
<path d="M610.889 545.685C610.889 544.704 611.685 543.908 612.667 543.908H630C630.982 543.908 631.778 544.704 631.778 545.685V564.352C631.778 565.334 630.982 566.13 630 566.13H612.667C611.685 566.13 610.889 565.334 610.889 564.352V545.685Z" fill="url(#paint2_linear_6884_239335)"/>
<path d="M610.889 545.449C610.889 544.564 611.539 543.814 612.415 543.689L624.415 541.975C625.486 541.822 626.444 542.653 626.444 543.735V566.302C626.444 567.384 625.486 568.215 624.415 568.062L612.415 566.348C611.539 566.222 610.889 565.472 610.889 564.588V545.449Z" fill="url(#paint3_linear_6884_239335)"/>
<g filter="url(#filter1_d_6884_239335)">
<circle cx="622.889" cy="555.018" r="1.33333" fill="url(#paint4_linear_6884_239335)"/>
</g>
<g filter="url(#filter2_d_6884_239335)">
<rect x="622.222" y="554.463" width="1.33333" height="3.55556" rx="0.666667" fill="url(#paint5_linear_6884_239335)"/>
</g>
<rect x="564.444" y="579.907" width="113.778" height="7.11111" rx="3.55556" fill="#564E63"/>
<rect x="541.778" y="605.24" width="159.111" height="20.4444" rx="3.11111" fill="#706781" stroke="#897F9B" stroke-width="0.888889"/>
<circle cx="592.889" cy="615.463" r="5.33333" fill="#AA94DA"/>
<rect x="601.778" y="612.796" width="64" height="5.33333" rx="1.77778" fill="#A292BB"/>
<rect x="541.778" y="633.685" width="159.111" height="20.4444" rx="3.11111" fill="#706781" stroke="#897F9B" stroke-width="0.888889"/>
<circle cx="592.889" cy="643.908" r="5.33333" fill="#937BC7"/>
<rect x="601.778" y="641.241" width="46.2222" height="5.33333" rx="1.77778" fill="#A292BB"/>
<rect x="541.778" y="662.13" width="159.111" height="20.4444" rx="3.11111" fill="#706781" stroke="#897F9B" stroke-width="0.888889"/>
<circle cx="592.889" cy="672.351" r="5.33333" fill="#B991CC"/>
<rect x="601.778" y="669.685" width="53.3333" height="5.33333" rx="1.77778" fill="#A292BB"/>
<path opacity="0.02" d="M461.333 538.13C461.333 522.42 474.068 509.685 489.778 509.685H656.889L541.333 749.685H489.778C474.068 749.685 461.333 736.95 461.333 721.241V538.13Z" fill="#F8F4FF"/>
<g filter="url(#filter3_b_6884_239335)">
<rect x="1025.78" y="323.018" width="213.333" height="426.667" rx="28.4444" fill="#BBB5D7"/>
</g>
<path d="M1068.44 592.899H1120V593.433H1068.44V592.899Z" fill="#928F9A"/>
<path d="M1130.26 596.765C1131.86 596.765 1132.85 595.661 1132.85 593.864V593.854C1132.85 592.051 1131.86 590.952 1130.26 590.952C1128.66 590.952 1127.67 592.051 1127.67 593.854V593.864C1127.67 595.661 1128.66 596.765 1130.26 596.765ZM1130.26 595.963C1129.2 595.963 1128.6 595.187 1128.6 593.864V593.854C1128.6 592.525 1129.2 591.755 1130.26 591.755C1131.32 591.755 1131.92 592.525 1131.92 593.854V593.864C1131.92 595.187 1131.32 595.963 1130.26 595.963ZM1134.26 596.666H1135.16V593.187C1135.16 592.364 1135.78 591.817 1136.64 591.817C1136.84 591.817 1137.01 591.838 1137.2 591.869V590.989C1137.11 590.973 1136.92 590.952 1136.75 590.952C1135.99 590.952 1135.46 591.296 1135.25 591.885H1135.16V591.051H1134.26V596.666Z" fill="#716AC0"/>
<path d="M1145.22 592.899H1196.78V593.433H1145.22V592.899Z" fill="#928F9A"/>
<circle cx="1082.83" cy="624.555" r="10.6667" fill="#948DB8"/>
<circle cx="1132.61" cy="624.555" r="10.6667" fill="#948DB8"/>
<circle cx="1182.39" cy="624.555" r="10.6667" fill="#948DB8"/>
<path d="M1082.67 517.333H1134.86M1194.67 517.333H1169.81M1145.9 517.333H1153.87" stroke="#A098C1" stroke-width="1.77778" stroke-linecap="round"/>
<circle cx="1072.89" cy="517.333" r="2.66667" stroke="#A098C1" stroke-width="1.77778" stroke-linecap="round"/>
<path d="M1157.33 395.018C1157.33 408.764 1146.19 419.907 1132.44 419.907C1118.7 419.907 1107.56 408.764 1107.56 395.018C1107.56 381.273 1118.7 370.129 1132.44 370.129C1146.19 370.129 1157.33 381.273 1157.33 395.018Z" fill="#AFA8D0"/>
<path d="M1119.39 383.352C1119.39 382.124 1120.38 381.129 1121.61 381.129H1143.28C1144.51 381.129 1145.5 382.124 1145.5 383.352V406.685C1145.5 407.912 1144.51 408.907 1143.28 408.907H1121.61C1120.38 408.907 1119.39 407.912 1119.39 406.685V383.352Z" fill="url(#paint6_linear_6884_239335)"/>
<path d="M1119.39 383.057C1119.39 381.951 1120.2 381.014 1121.3 380.857L1136.3 378.714C1137.64 378.523 1138.83 379.562 1138.83 380.914V409.123C1138.83 410.475 1137.64 411.514 1136.3 411.323L1121.3 409.18C1120.2 409.024 1119.39 408.086 1119.39 406.98V383.057Z" fill="url(#paint7_linear_6884_239335)"/>
<g filter="url(#filter4_d_6884_239335)">
<circle cx="1134.39" cy="395.019" r="1.66667" fill="url(#paint8_linear_6884_239335)"/>
</g>
<g filter="url(#filter5_d_6884_239335)">
<rect x="1133.56" y="394.324" width="1.66667" height="4.44444" rx="0.833333" fill="url(#paint9_linear_6884_239335)"/>
</g>
<path d="M1089.78 427.018H1149.97M1175.11 427.018H1161.02" stroke="#A098C1" stroke-width="1.77778" stroke-linecap="round"/>
<rect x="1052.44" y="531.907" width="160" height="32" rx="7.11111" fill="#947DFF"/>
<path d="M1114.21 552.196C1115.81 552.196 1116.99 551.305 1117.24 549.93V549.92H1116.3L1116.28 549.93C1116.05 550.795 1115.25 551.331 1114.21 551.331C1112.76 551.331 1111.85 550.149 1111.85 548.269V548.258C1111.85 546.378 1112.76 545.19 1114.2 545.19C1115.24 545.19 1116.04 545.8 1116.29 546.763L1116.3 546.774H1117.24L1117.24 546.763C1117.02 545.321 1115.78 544.326 1114.2 544.326C1112.16 544.326 1110.89 545.836 1110.89 548.258V548.269C1110.89 550.685 1112.16 552.196 1114.21 552.196ZM1121.01 552.118C1122.61 552.118 1123.6 551.013 1123.6 549.216V549.206C1123.6 547.404 1122.61 546.305 1121.01 546.305C1119.41 546.305 1118.42 547.404 1118.42 549.206V549.216C1118.42 551.013 1119.41 552.118 1121.01 552.118ZM1121.01 551.315C1119.95 551.315 1119.35 550.539 1119.35 549.216V549.206C1119.35 547.878 1119.95 547.107 1121.01 547.107C1122.07 547.107 1122.67 547.878 1122.67 549.206V549.216C1122.67 550.539 1122.07 551.315 1121.01 551.315ZM1125 552.019H1125.91V548.696C1125.91 547.711 1126.48 547.107 1127.37 547.107C1128.27 547.107 1128.69 547.591 1128.69 548.602V552.019H1129.59V548.383C1129.59 547.05 1128.89 546.305 1127.63 546.305C1126.8 546.305 1126.27 546.654 1125.99 547.248H1125.91V546.404H1125V552.019ZM1133.23 552.06C1133.4 552.06 1133.58 552.039 1133.75 552.008V551.237C1133.59 551.253 1133.5 551.258 1133.34 551.258C1132.75 551.258 1132.52 550.993 1132.52 550.331V547.154H1133.75V546.404H1132.52V544.951H1131.59V546.404H1130.7V547.154H1131.59V550.56C1131.59 551.633 1132.07 552.06 1133.23 552.06ZM1135.59 545.321C1135.93 545.321 1136.21 545.039 1136.21 544.696C1136.21 544.352 1135.93 544.071 1135.59 544.071C1135.24 544.071 1134.96 544.352 1134.96 544.696C1134.96 545.039 1135.24 545.321 1135.59 545.321ZM1135.13 552.019H1136.03V546.404H1135.13V552.019ZM1137.74 552.019H1138.65V548.696C1138.65 547.711 1139.22 547.107 1140.11 547.107C1141.01 547.107 1141.43 547.591 1141.43 548.602V552.019H1142.33V548.383C1142.33 547.05 1141.63 546.305 1140.37 546.305C1139.54 546.305 1139.01 546.654 1138.73 547.248H1138.65V546.404H1137.74V552.019ZM1145.85 552.118C1146.68 552.118 1147.24 551.779 1147.52 551.18H1147.6V552.019H1148.51V546.404H1147.6V549.727C1147.6 550.711 1147.08 551.315 1146.09 551.315C1145.19 551.315 1144.83 550.831 1144.83 549.821V546.404H1143.92V550.039C1143.92 551.368 1144.58 552.118 1145.85 552.118ZM1152.49 552.118C1153.82 552.118 1154.62 551.368 1154.81 550.607L1154.82 550.565H1153.91L1153.89 550.612C1153.74 550.951 1153.27 551.31 1152.51 551.31C1151.51 551.31 1150.87 550.633 1150.85 549.472H1154.89V549.118C1154.89 547.44 1153.96 546.305 1152.44 546.305C1150.91 546.305 1149.92 547.493 1149.92 549.227V549.232C1149.92 550.993 1150.89 552.118 1152.49 552.118ZM1152.43 547.112C1153.26 547.112 1153.87 547.638 1153.97 548.748H1150.86C1150.96 547.68 1151.6 547.112 1152.43 547.112Z" fill="white"/>
<g style="mix-blend-mode:multiply">
<path d="M1104 323.018H1160.89V330.129C1160.89 336.02 1156.11 340.796 1150.22 340.796H1114.67C1108.78 340.796 1104 336.02 1104 330.129V323.018Z" fill="#A09BBB"/>
</g>
<rect x="1052.44" y="451.907" width="160" height="32" rx="7.11111" fill="#F5EEFF"/>
<path d="M1079.03 472.019H1080.16V468.545C1080.16 467.805 1080.67 467.222 1081.35 467.222C1082.02 467.222 1082.44 467.628 1082.44 468.274V472.019H1083.57V468.44C1083.57 467.758 1084.04 467.222 1084.76 467.222C1085.5 467.222 1085.85 467.607 1085.85 468.388V472.019H1086.98V468.118C1086.98 466.94 1086.31 466.253 1085.17 466.253C1084.38 466.253 1083.73 466.654 1083.45 467.263H1083.36C1083.11 466.654 1082.56 466.253 1081.79 466.253C1081.05 466.253 1080.5 466.612 1080.25 467.232H1080.16V466.362H1079.03V472.019ZM1090.95 474.013C1092.55 474.013 1093.57 473.19 1093.57 471.904V466.362H1092.44V467.289H1092.37C1092.05 466.654 1091.43 466.263 1090.64 466.263C1089.17 466.263 1088.27 467.404 1088.27 469.019V469.029C1088.27 470.623 1089.16 471.743 1090.62 471.743C1091.39 471.743 1092.02 471.399 1092.36 470.784H1092.45V471.899C1092.45 472.67 1091.89 473.107 1090.96 473.107C1090.2 473.107 1089.74 472.831 1089.64 472.44L1089.64 472.43H1088.5L1088.49 472.44C1088.62 473.383 1089.51 474.013 1090.95 474.013ZM1090.93 470.81C1089.97 470.81 1089.43 470.076 1089.43 469.024V469.013C1089.43 467.961 1089.97 467.222 1090.93 467.222C1091.88 467.222 1092.47 467.961 1092.47 469.013V469.024C1092.47 470.081 1091.89 470.81 1090.93 470.81ZM1097.57 472.128C1099.01 472.128 1099.8 471.295 1099.98 470.55L1099.99 470.503L1098.9 470.508L1098.88 470.55C1098.75 470.841 1098.32 471.201 1097.59 471.201C1096.66 471.201 1096.07 470.571 1096.05 469.487H1100.06V469.091C1100.06 467.394 1099.09 466.253 1097.51 466.253C1095.93 466.253 1094.91 467.435 1094.91 469.201V469.206C1094.91 470.998 1095.91 472.128 1097.57 472.128ZM1097.51 467.18C1098.28 467.18 1098.85 467.67 1098.94 468.68H1096.06C1096.16 467.706 1096.74 467.18 1097.51 467.18ZM1103.8 472.128C1105.45 472.128 1106.47 471.019 1106.47 469.196V469.185C1106.47 467.362 1105.45 466.253 1103.8 466.253C1102.14 466.253 1101.12 467.368 1101.12 469.185V469.196C1101.12 471.019 1102.13 472.128 1103.8 472.128ZM1103.8 471.185C1102.82 471.185 1102.27 470.451 1102.27 469.196V469.185C1102.27 467.93 1102.82 467.196 1103.8 467.196C1104.76 467.196 1105.32 467.93 1105.32 469.185V469.196C1105.32 470.446 1104.76 471.185 1103.8 471.185ZM1107.82 472.019H1108.95V468.638C1108.95 467.821 1109.53 467.289 1110.4 467.289C1110.61 467.289 1110.81 467.315 1111.01 467.357V466.315C1110.89 466.289 1110.7 466.263 1110.51 466.263C1109.76 466.263 1109.23 466.618 1109.03 467.216H1108.95V466.362H1107.82V472.019ZM1114.33 474.013C1115.94 474.013 1116.95 473.19 1116.95 471.904V466.362H1115.83V467.289H1115.76C1115.43 466.654 1114.82 466.263 1114.02 466.263C1112.56 466.263 1111.65 467.404 1111.65 469.019V469.029C1111.65 470.623 1112.55 471.743 1114 471.743C1114.78 471.743 1115.4 471.399 1115.75 470.784H1115.83V471.899C1115.83 472.67 1115.28 473.107 1114.35 473.107C1113.58 473.107 1113.12 472.831 1113.03 472.44L1113.02 472.43H1111.88L1111.87 472.44C1112.01 473.383 1112.89 474.013 1114.33 474.013ZM1114.32 470.81C1113.35 470.81 1112.81 470.076 1112.81 469.024V469.013C1112.81 467.961 1113.35 467.222 1114.32 467.222C1115.27 467.222 1115.85 467.961 1115.85 469.013V469.024C1115.85 470.081 1115.27 470.81 1114.32 470.81ZM1120.95 472.128C1122.4 472.128 1123.18 471.295 1123.37 470.55L1123.38 470.503L1122.29 470.508L1122.27 470.55C1122.13 470.841 1121.7 471.201 1120.98 471.201C1120.05 471.201 1119.45 470.571 1119.43 469.487H1123.44V469.091C1123.44 467.394 1122.47 466.253 1120.89 466.253C1119.32 466.253 1118.3 467.435 1118.3 469.201V469.206C1118.3 470.998 1119.3 472.128 1120.95 472.128ZM1120.9 467.18C1121.66 467.18 1122.23 467.67 1122.32 468.68H1119.45C1119.55 467.706 1120.13 467.18 1120.9 467.18ZM1129.11 473.206C1129.73 473.206 1130.33 473.123 1130.77 472.977V472.253C1130.46 472.394 1129.81 472.482 1129.15 472.482C1126.93 472.482 1125.5 471.081 1125.5 468.899V468.888C1125.5 466.753 1126.94 465.237 1128.97 465.237C1131.01 465.237 1132.4 466.503 1132.4 468.383V468.394C1132.4 469.591 1132.01 470.368 1131.39 470.368C1131.04 470.368 1130.84 470.154 1130.84 469.789V466.831H1129.96V467.461H1129.87C1129.66 467.003 1129.2 466.727 1128.65 466.727C1127.59 466.727 1126.86 467.602 1126.86 468.862V468.873C1126.86 470.19 1127.59 471.076 1128.67 471.076C1129.28 471.076 1129.73 470.789 1129.95 470.258H1130.04L1130.05 470.289C1130.14 470.789 1130.61 471.112 1131.22 471.112C1132.44 471.112 1133.21 470.05 1133.21 468.368V468.357C1133.21 466.091 1131.5 464.519 1129.02 464.519C1126.45 464.519 1124.69 466.284 1124.69 468.857V468.868C1124.69 471.508 1126.41 473.206 1129.11 473.206ZM1128.84 470.263C1128.21 470.263 1127.82 469.743 1127.82 468.899V468.888C1127.82 468.034 1128.2 467.524 1128.85 467.524C1129.5 467.524 1129.91 468.055 1129.91 468.888V468.899C1129.91 469.732 1129.5 470.263 1128.84 470.263ZM1137.01 474.013C1138.61 474.013 1139.63 473.19 1139.63 471.904V466.362H1138.5V467.289H1138.44C1138.11 466.654 1137.49 466.263 1136.7 466.263C1135.23 466.263 1134.33 467.404 1134.33 469.019V469.029C1134.33 470.623 1135.23 471.743 1136.68 471.743C1137.46 471.743 1138.08 471.399 1138.43 470.784H1138.51V471.899C1138.51 472.67 1137.96 473.107 1137.02 473.107C1136.26 473.107 1135.8 472.831 1135.71 472.44L1135.7 472.43H1134.56L1134.55 472.44C1134.69 473.383 1135.57 474.013 1137.01 474.013ZM1136.99 470.81C1136.03 470.81 1135.49 470.076 1135.49 469.024V469.013C1135.49 467.961 1136.03 467.222 1136.99 467.222C1137.95 467.222 1138.53 467.961 1138.53 469.013V469.024C1138.53 470.081 1137.95 470.81 1136.99 470.81ZM1141.25 472.019H1142.38V468.545C1142.38 467.805 1142.89 467.222 1143.57 467.222C1144.24 467.222 1144.66 467.628 1144.66 468.274V472.019H1145.78V468.44C1145.78 467.758 1146.26 467.222 1146.98 467.222C1147.72 467.222 1148.07 467.607 1148.07 468.388V472.019H1149.2V468.118C1149.2 466.94 1148.53 466.253 1147.39 466.253C1146.6 466.253 1145.95 466.654 1145.67 467.263H1145.58C1145.33 466.654 1144.78 466.253 1144.01 466.253C1143.27 466.253 1142.72 466.612 1142.47 467.232H1142.38V466.362H1141.25V472.019ZM1152.33 472.112C1153.08 472.112 1153.67 471.789 1154 471.216H1154.09V472.019H1155.21V468.149C1155.21 466.961 1154.41 466.253 1152.99 466.253C1151.7 466.253 1150.81 466.873 1150.68 467.8L1150.67 467.836H1151.76L1151.76 467.815C1151.9 467.414 1152.31 467.185 1152.94 467.185C1153.7 467.185 1154.09 467.529 1154.09 468.149V468.649L1152.56 468.737C1151.21 468.821 1150.45 469.409 1150.45 470.42V470.43C1150.45 471.456 1151.25 472.112 1152.33 472.112ZM1151.58 470.383V470.373C1151.58 469.862 1151.93 469.581 1152.71 469.534L1154.09 469.446V469.93C1154.09 470.659 1153.47 471.211 1152.63 471.211C1152.02 471.211 1151.58 470.904 1151.58 470.383ZM1157.39 465.352C1157.78 465.352 1158.1 465.034 1158.1 464.649C1158.1 464.258 1157.78 463.94 1157.39 463.94C1157 463.94 1156.69 464.258 1156.69 464.649C1156.69 465.034 1157 465.352 1157.39 465.352ZM1156.83 472.019H1157.95V466.362H1156.83V472.019ZM1159.65 472.019H1160.78V464.144H1159.65V472.019ZM1163.33 472.097C1163.76 472.097 1164.09 471.763 1164.09 471.341C1164.09 470.914 1163.76 470.581 1163.33 470.581C1162.9 470.581 1162.57 470.914 1162.57 471.341C1162.57 471.763 1162.9 472.097 1163.33 472.097ZM1168 472.128C1169.4 472.128 1170.21 471.373 1170.41 470.274L1170.42 470.227H1169.34L1169.33 470.253C1169.14 470.862 1168.71 471.185 1168 471.185C1167.07 471.185 1166.49 470.425 1166.49 469.175V469.164C1166.49 467.946 1167.06 467.196 1168 467.196C1168.75 467.196 1169.21 467.612 1169.33 468.17L1169.34 468.185L1170.42 468.18V468.154C1170.26 467.055 1169.42 466.253 1167.99 466.253C1166.34 466.253 1165.34 467.373 1165.34 469.164V469.175C1165.34 471.003 1166.35 472.128 1168 472.128ZM1174.1 472.128C1175.75 472.128 1176.77 471.019 1176.77 469.196V469.185C1176.77 467.362 1175.75 466.253 1174.1 466.253C1172.44 466.253 1171.42 467.368 1171.42 469.185V469.196C1171.42 471.019 1172.44 472.128 1174.1 472.128ZM1174.1 471.185C1173.12 471.185 1172.58 470.451 1172.58 469.196V469.185C1172.58 467.93 1173.12 467.196 1174.1 467.196C1175.07 467.196 1175.62 467.93 1175.62 469.185V469.196C1175.62 470.446 1175.07 471.185 1174.1 471.185ZM1178.12 472.019H1179.25V468.545C1179.25 467.805 1179.75 467.222 1180.44 467.222C1181.1 467.222 1181.52 467.628 1181.52 468.274V472.019H1182.65V468.44C1182.65 467.758 1183.12 467.222 1183.84 467.222C1184.58 467.222 1184.94 467.607 1184.94 468.388V472.019H1186.06V468.118C1186.06 466.94 1185.39 466.253 1184.25 466.253C1183.47 466.253 1182.82 466.654 1182.53 467.263H1182.44C1182.19 466.654 1181.64 466.253 1180.87 466.253C1180.13 466.253 1179.58 466.612 1179.33 467.232H1179.25V466.362H1178.12V472.019Z" fill="#928F9A"/>
<a href="mailto:mgeorge@gmail.com">
<rect fill="black" fill-opacity="0" y="2.52431" width="108.604" height="12.7292"/>
</a>
<path d="M1135.74 735.923C1132.32 732.905 1128.99 728.981 1128.45 724.27C1128.2 722.035 1128.41 719.334 1130.26 717.781C1132.01 716.313 1134.44 716.211 1136.58 716.682C1141.33 717.728 1145.18 721.164 1150.1 721.597C1151.65 721.731 1153.18 721.618 1154.67 721.285C1162.31 711.165 1166.8 699.278 1168.65 686.548C1168.67 686.434 1168.67 686.322 1168.68 686.216C1167.43 686.618 1166.17 686.979 1164.89 687.259C1161.58 687.98 1158.17 688.217 1154.79 688.051C1151.42 687.889 1147.84 687.337 1144.68 686.131C1143.33 685.618 1142.02 684.718 1141.47 683.334C1140.81 681.669 1141.63 680.103 1142.73 678.863C1146.73 674.356 1152.72 672.854 1158.39 671.663C1162.32 670.834 1166.68 669.944 1169.92 667.517C1169.95 658.053 1169.32 648.562 1168.84 639.119C1168.8 638.348 1168.77 637.572 1168.73 636.793C1167.43 637.553 1166.15 638.35 1164.91 639.191C1163.42 640.352 1161.94 641.505 1160.45 642.665C1160.24 642.831 1160.01 642.942 1159.79 643.027C1159.51 643.258 1159.22 643.467 1158.95 643.698C1158.04 644.464 1156.69 644.301 1155.87 643.521C1155.82 643.47 1155.77 643.403 1155.73 643.348C1154.5 643.014 1153.55 641.815 1154.18 640.328C1155.89 636.275 1158.85 633.08 1161.87 629.955C1164.28 627.46 1166.79 624.912 1168.42 621.833C1168.59 609.156 1170.13 596.524 1175.24 584.788C1176.12 582.768 1173.96 581.167 1172.14 581.762C1157.39 586.624 1143.16 592.833 1129.42 600.018C1127.16 603.161 1126.83 607.588 1126.6 611.309C1126.45 613.854 1126.45 616.405 1126.6 618.95C1126.74 621.271 1126.82 623.603 1125.19 625.476C1123.83 627.041 1121.86 627.75 1119.91 628.245C1118.83 628.515 1117.75 628.681 1116.73 628.128C1115.63 627.522 1115.31 626.349 1114.98 625.23C1113.8 621.215 1111.88 614.952 1112.19 609.666C1103.17 615.057 1094.37 620.814 1085.78 626.861C1084.36 632.836 1087.36 639.672 1089.57 645.204C1092.16 651.658 1094.91 659.801 1091.48 666.483C1089.95 669.462 1087.13 671.769 1083.69 671.973C1082.1 672.071 1079.79 671.83 1079.01 670.2C1078.32 668.77 1078.1 667.17 1077.32 665.738C1073.73 659.17 1066.73 655.354 1061.49 650.268C1060.49 649.286 1059.7 648.294 1059.24 647.27C1055.11 651.189 1051.37 655.449 1048.34 660.216C1044.37 666.462 1042.04 673.389 1041.15 680.504C1041.5 680.944 1041.88 681.359 1042.27 681.731C1043.11 682.537 1044.12 683.297 1045.09 683.865C1046.05 684.422 1047.07 684.89 1047.95 685.564C1050.25 687.335 1051.09 690.233 1049.47 692.771C1047.95 695.146 1044.88 695.938 1042.21 695.999C1041.93 696.002 1041.69 695.966 1041.44 695.928C1041.97 699.258 1042.78 702.559 1043.87 705.783C1046.48 713.433 1050.66 720.38 1055.81 726.545C1063.39 731.019 1073 731.171 1081.06 726.445C1081.3 726.31 1081.55 726.247 1081.81 726.234C1084.13 720.035 1086.74 713.961 1089.6 708.027C1095.02 696.722 1101.15 685.831 1107.49 675.105L1126.68 643.044C1133.12 632.386 1139.82 621.804 1147.87 612.291C1140.12 622.054 1133.78 632.791 1127.69 643.633L1109.52 676.258C1103.54 687.152 1097.78 698.175 1092.79 709.488C1089.72 716.407 1086.99 723.461 1084.69 730.639C1085.92 736.487 1089.3 741.715 1094.18 745.258C1095.22 746.004 1096.31 746.638 1097.45 747.203C1103.46 749.017 1109.87 749.37 1116.22 748.739C1124.04 746.439 1131.32 742.532 1137.89 737.66C1137.13 737.105 1136.41 736.529 1135.74 735.923Z" fill="#7D7A9C"/>
<g style="mix-blend-mode:multiply" opacity="0.6">
<path d="M679.191 730.667C684.935 734.265 692.339 737.587 697.322 742.639C698.637 743.954 699.744 745.407 700.367 746.93L708.256 746.929C705.696 742.639 701.959 739.456 701.751 734.196C701.613 729.283 704.173 724.715 705.419 720.078C707.841 711.29 710.471 702.57 713.239 693.919C716.699 682.985 721.682 672.674 727.633 662.916C729.779 659.525 731.993 656.134 734.346 652.881C736.422 650.044 738.014 646.861 735.869 643.539C734.485 641.463 733.17 639.387 731.786 637.31C728.879 633.02 726.388 627.899 720.713 631.566C718.845 632.812 716.492 633.989 714.9 635.58C713.931 636.549 702.858 645.892 701.474 646.584C701.751 646.445 702.582 642.639 702.72 642.155C703.62 639.594 704.727 637.103 705.765 634.611C708.187 629.075 715.73 621.255 708.256 617.241C704.035 615.027 699.537 613.297 695.039 611.567L695.038 611.566C694.554 611.359 693.931 611.151 693.377 611.22C691.717 611.359 691.301 613.85 690.748 615.096C689.156 618.556 687.564 622.016 685.903 625.407C685.211 626.722 681.128 632.743 681.336 633.781C681.059 632.397 680.367 609.075 680.367 609.075L680.367 609.075C678.845 599.386 677.322 589.698 675.523 580.079C675.454 579.663 675.384 579.179 675.177 578.833C673.931 576.618 668.533 576.688 666.388 576.48C663.412 576.203 660.367 576.411 657.391 576.895C654.623 577.38 646.111 578.279 644.519 580.978C643.966 581.878 644.589 583.746 644.796 584.715C645.281 587.345 646.18 589.836 646.595 592.397C647.218 595.996 647.772 599.594 648.326 603.193C649.848 613.573 650.471 624.231 650.332 634.542C650.332 635.845 649.653 639.936 650.247 640.884C649.79 640.191 639.817 625.072 637.045 622.57C625.765 626.376 624.796 635.926 624.589 638.072C625.35 639.04 636.838 657.172 638.983 660.217C641.059 663.262 650.748 685.407 650.748 685.407C650.748 685.407 633.793 671.566 629.779 669.421C625.765 669.698 622.512 687.137 623.204 687.829C623.897 688.591 641.128 700.563 653.585 712.12C661.222 719.207 670.296 724.994 679.038 730.569L679.191 730.667Z" fill="#888098"/>
</g>
<path d="M764.444 313.777H721.778C709.996 313.777 700.444 323.329 700.444 335.111V346.444V365.777V372.777V377.777C700.444 389.559 709.996 399.111 721.778 399.111H736.444H744.778H751.611H758.444H764.444C776.227 399.111 785.778 389.559 785.778 377.777V374.513V371.847V341.777V335.111C785.778 323.329 776.227 313.777 764.444 313.777Z" stroke="#3E414B" stroke-width="0.666667" stroke-linecap="round"/>
<path fill-rule="evenodd" clip-rule="evenodd" d="M763.591 357.022C763.591 355.509 763.455 354.055 763.203 352.658H743.111V360.91H754.592C754.098 363.577 752.595 365.836 750.335 367.349V372.702H757.23C761.264 368.988 763.591 363.519 763.591 357.022Z" fill="#4285F4"/>
<path fill-rule="evenodd" clip-rule="evenodd" d="M743.111 377.87C748.871 377.87 753.7 375.96 757.23 372.701L750.335 367.349C748.425 368.629 745.981 369.385 743.111 369.385C737.555 369.385 732.852 365.632 731.174 360.59H724.047V366.117C727.557 373.089 734.772 377.87 743.111 377.87Z" fill="#34A853"/>
<path fill-rule="evenodd" clip-rule="evenodd" d="M731.174 360.59C730.747 359.31 730.505 357.942 730.505 356.536C730.505 355.13 730.747 353.763 731.174 352.483V346.956H724.047C722.602 349.836 721.778 353.094 721.778 356.536C721.778 359.979 722.602 363.237 724.047 366.117L731.174 360.59Z" fill="#FBBC05"/>
<path fill-rule="evenodd" clip-rule="evenodd" d="M743.111 343.688C746.243 343.688 749.055 344.765 751.266 346.879L757.385 340.76C753.691 337.318 748.861 335.204 743.111 335.204C734.772 335.204 727.557 339.984 724.047 346.956L731.174 352.484C732.852 347.441 737.555 343.688 743.111 343.688Z" fill="#EA4335"/>
<rect x="679.111" y="429.685" width="426.667" height="320" rx="28.4444" fill="#DFD7ED"/>
<path d="M709.544 667.796H713.148C715.019 667.796 716.143 666.861 716.143 665.323V665.311C716.143 664.169 715.353 663.33 714.168 663.203V663.099C715.031 662.954 715.706 662.133 715.706 661.222V661.21C715.706 659.867 714.715 659.028 713.069 659.028H709.544V667.796ZM712.753 660.14C713.761 660.14 714.351 660.62 714.351 661.447V661.459C714.351 662.309 713.725 662.759 712.522 662.759H710.905V660.14H712.753ZM712.795 663.798C714.077 663.798 714.752 664.284 714.752 665.226V665.238C714.752 666.18 714.102 666.684 712.874 666.684H710.905V663.798H712.795ZM717.741 667.796H719.06V663.853C719.06 662.899 719.747 662.279 720.755 662.279C721.004 662.279 721.229 662.309 721.466 662.358V661.143C721.333 661.112 721.102 661.082 720.889 661.082C720.008 661.082 719.394 661.495 719.157 662.194H719.06V661.197H717.741V667.796ZM724.486 667.906C725.361 667.906 726.054 667.529 726.443 666.861H726.546V667.796H727.852V663.282C727.852 661.896 726.917 661.07 725.258 661.07C723.757 661.07 722.718 661.793 722.56 662.875L722.554 662.917H723.824L723.83 662.893C723.988 662.425 724.468 662.157 725.197 662.157C726.09 662.157 726.546 662.559 726.546 663.282V663.865L724.76 663.968C723.186 664.065 722.299 664.752 722.299 665.931V665.943C722.299 667.14 723.228 667.906 724.486 667.906ZM723.611 665.888V665.876C723.611 665.281 724.024 664.953 724.936 664.898L726.546 664.795V665.36C726.546 666.21 725.823 666.855 724.839 666.855C724.128 666.855 723.611 666.496 723.611 665.888ZM729.712 667.796H731.03V663.926C731.03 662.862 731.632 662.2 732.598 662.2C733.564 662.2 734.02 662.741 734.02 663.835V667.796H735.333V663.525C735.333 661.951 734.518 661.07 733.042 661.07C732.082 661.07 731.45 661.495 731.128 662.2H731.03V661.197H729.712V667.796ZM739.58 667.906C740.504 667.906 741.227 667.48 741.609 666.757H741.713V667.796H743.025V658.609H741.713V662.243H741.609C741.257 661.532 740.485 661.082 739.58 661.082C737.903 661.082 736.846 662.401 736.846 664.491V664.503C736.846 666.575 737.921 667.906 739.58 667.906ZM739.957 666.782C738.851 666.782 738.188 665.919 738.188 664.503V664.491C738.188 663.075 738.851 662.212 739.957 662.212C741.05 662.212 741.731 663.081 741.731 664.491V664.503C741.731 665.913 741.056 666.782 739.957 666.782ZM745.675 660.019C746.124 660.019 746.501 659.648 746.501 659.198C746.501 658.743 746.124 658.372 745.675 658.372C745.219 658.372 744.848 658.743 744.848 659.198C744.848 659.648 745.219 660.019 745.675 660.019ZM745.012 667.796H746.325V661.197H745.012V667.796ZM748.245 667.796H749.563V663.926C749.563 662.862 750.165 662.2 751.131 662.2C752.097 662.2 752.553 662.741 752.553 663.835V667.796H753.865V663.525C753.865 661.951 753.051 661.07 751.575 661.07C750.615 661.07 749.983 661.495 749.661 662.2H749.563V661.197H748.245V667.796ZM758.496 670.124C760.367 670.124 761.552 669.164 761.552 667.663V661.197H760.24V662.279H760.161C759.778 661.538 759.061 661.082 758.137 661.082C756.424 661.082 755.372 662.413 755.372 664.296V664.309C755.372 666.168 756.418 667.474 758.113 667.474C759.018 667.474 759.747 667.073 760.148 666.356H760.246V667.657C760.246 668.556 759.602 669.066 758.514 669.066C757.621 669.066 757.086 668.744 756.977 668.289L756.971 668.276H755.64L755.628 668.289C755.786 669.388 756.819 670.124 758.496 670.124ZM758.477 666.387C757.353 666.387 756.721 665.53 756.721 664.302V664.29C756.721 663.063 757.353 662.2 758.477 662.2C759.589 662.2 760.27 663.063 760.27 664.29V664.302C760.27 665.536 759.596 666.387 758.477 666.387ZM768.662 667.906C769.537 667.906 770.229 667.529 770.618 666.861H770.721V667.796H772.028V663.282C772.028 661.896 771.092 661.07 769.433 661.07C767.932 661.07 766.893 661.793 766.735 662.875L766.729 662.917H767.999L768.005 662.893C768.163 662.425 768.643 662.157 769.372 662.157C770.266 662.157 770.721 662.559 770.721 663.282V663.865L768.935 663.968C767.361 664.065 766.474 664.752 766.474 665.931V665.943C766.474 667.14 767.404 667.906 768.662 667.906ZM767.787 665.888V665.876C767.787 665.281 768.2 664.953 769.111 664.898L770.721 664.795V665.36C770.721 666.21 769.998 666.855 769.014 666.855C768.303 666.855 767.787 666.496 767.787 665.888ZM773.887 667.796H775.206V663.853C775.206 662.899 775.892 662.279 776.901 662.279C777.15 662.279 777.375 662.309 777.612 662.358V661.143C777.478 661.112 777.247 661.082 777.035 661.082C776.154 661.082 775.54 661.495 775.303 662.194H775.206V661.197H773.887V667.796ZM781.471 667.924C783.16 667.924 784.071 666.952 784.29 666.083L784.302 666.028L783.032 666.034L783.008 666.083C782.85 666.423 782.346 666.842 781.501 666.842C780.413 666.842 779.721 666.107 779.696 664.843H784.375V664.381C784.375 662.401 783.245 661.07 781.404 661.07C779.563 661.07 778.372 662.449 778.372 664.509V664.515C778.372 666.605 779.538 667.924 781.471 667.924ZM781.41 662.151C782.303 662.151 782.965 662.723 783.069 663.901H779.714C779.83 662.765 780.51 662.151 781.41 662.151ZM787.754 667.906C788.629 667.906 789.321 667.529 789.71 666.861H789.813V667.796H791.12V663.282C791.12 661.896 790.184 661.07 788.525 661.07C787.024 661.07 785.985 661.793 785.827 662.875L785.821 662.917H787.091L787.097 662.893C787.255 662.425 787.735 662.157 788.464 662.157C789.358 662.157 789.813 662.559 789.813 663.282V663.865L788.027 663.968C786.453 664.065 785.566 664.752 785.566 665.931V665.943C785.566 667.14 786.496 667.906 787.754 667.906ZM786.879 665.888V665.876C786.879 665.281 787.292 664.953 788.203 664.898L789.813 664.795V665.36C789.813 666.21 789.09 666.855 788.106 666.855C787.395 666.855 786.879 666.496 786.879 665.888Z" fill="#191C1D"/>
<circle cx="717.333" cy="688.797" r="4.44444" fill="#5D34F2"/>
<rect x="710.222" y="681.685" width="14.2222" height="14.2222" rx="7.11111" stroke="#5D34F2" stroke-width="1.77778"/>
<path d="M733.753 692.908H734.901L735.782 690.398H739.27L740.151 692.908H741.3L738.067 684.139H736.985L733.753 692.908ZM737.477 685.555H737.575L738.948 689.468H736.104L737.477 685.555ZM742.703 695.095H743.76V691.875H743.858C744.216 692.574 745 693.023 745.899 693.023C747.564 693.023 748.646 691.692 748.646 689.639V689.626C748.646 687.585 747.558 686.242 745.899 686.242C744.988 686.242 744.259 686.673 743.858 687.403H743.76V686.357H742.703V695.095ZM745.656 692.087C744.465 692.087 743.736 691.152 743.736 689.639V689.626C743.736 688.113 744.465 687.178 745.656 687.178C746.853 687.178 747.564 688.101 747.564 689.626V689.639C747.564 691.164 746.853 692.087 745.656 692.087ZM750.299 695.095H751.356V691.875H751.453C751.812 692.574 752.596 693.023 753.495 693.023C755.16 693.023 756.241 691.692 756.241 689.639V689.626C756.241 687.585 755.154 686.242 753.495 686.242C752.583 686.242 751.854 686.673 751.453 687.403H751.356V686.357H750.299V695.095ZM753.252 692.087C752.061 692.087 751.332 691.152 751.332 689.639V689.626C751.332 688.113 752.061 687.178 753.252 687.178C754.449 687.178 755.16 688.101 755.16 689.626V689.639C755.16 691.164 754.449 692.087 753.252 692.087ZM761.528 692.908H766.851V691.923H762.622V684.139H761.528V692.908ZM770.855 693.023C772.721 693.023 773.875 691.735 773.875 689.639V689.626C773.875 687.524 772.721 686.242 770.855 686.242C768.99 686.242 767.835 687.524 767.835 689.626V689.639C767.835 691.735 768.99 693.023 770.855 693.023ZM770.855 692.087C769.615 692.087 768.917 691.182 768.917 689.639V689.626C768.917 688.077 769.615 687.178 770.855 687.178C772.095 687.178 772.793 688.077 772.793 689.626V689.639C772.793 691.182 772.095 692.087 770.855 692.087ZM778.214 695.217C780 695.217 781.13 694.281 781.13 692.817V686.357H780.073V687.439H780C779.599 686.698 778.882 686.242 777.958 686.242C776.245 686.242 775.188 687.573 775.188 689.408V689.42C775.188 691.255 776.239 692.567 777.934 692.567C778.833 692.567 779.575 692.16 779.988 691.437H780.085V692.762C780.085 693.728 779.386 694.281 778.214 694.281C777.272 694.281 776.688 693.929 776.573 693.43L776.567 693.424H775.473L775.461 693.43C775.625 694.506 776.634 695.217 778.214 695.217ZM778.165 691.632C776.95 691.632 776.269 690.72 776.269 689.42V689.408C776.269 688.107 776.95 687.178 778.165 687.178C779.374 687.178 780.109 688.107 780.109 689.408V689.42C780.109 690.72 779.38 691.632 778.165 691.632ZM785.791 693.023C787.656 693.023 788.811 691.735 788.811 689.639V689.626C788.811 687.524 787.656 686.242 785.791 686.242C783.925 686.242 782.771 687.524 782.771 689.626V689.639C782.771 691.735 783.925 693.023 785.791 693.023ZM785.791 692.087C784.551 692.087 783.852 691.182 783.852 689.639V689.626C783.852 688.077 784.551 687.178 785.791 687.178C787.03 687.178 787.729 688.077 787.729 689.626V689.639C787.729 691.182 787.03 692.087 785.791 692.087ZM795.215 692.908H796.273L797.731 687.84H797.828L799.293 692.908H800.356L802.191 686.357H801.14L799.852 691.595H799.754L798.29 686.357H797.287L795.823 691.595H795.726L794.438 686.357H793.38L795.215 692.908ZM804.148 685.093C804.549 685.093 804.877 684.765 804.877 684.364C804.877 683.963 804.549 683.635 804.148 683.635C803.747 683.635 803.418 683.963 803.418 684.364C803.418 684.765 803.747 685.093 804.148 685.093ZM803.613 692.908H804.67V686.357H803.613V692.908ZM808.99 692.956C809.197 692.956 809.398 692.932 809.604 692.896V691.996C809.41 692.014 809.306 692.021 809.118 692.021C808.438 692.021 808.17 691.711 808.17 690.939V687.232H809.604V686.357H808.17V684.662H807.076V686.357H806.043V687.232H807.076V691.206C807.076 692.458 807.642 692.956 808.99 692.956ZM811.245 692.908H812.302V689.031C812.302 687.883 812.964 687.178 814.01 687.178C815.055 687.178 815.541 687.743 815.541 688.922V692.908H816.598V688.666C816.598 687.111 815.778 686.242 814.307 686.242C813.341 686.242 812.727 686.649 812.399 687.342H812.302V683.757H811.245V692.908ZM822.012 692.908H823.069V688.849C823.069 687.925 823.72 687.178 824.576 687.178C825.403 687.178 825.938 687.682 825.938 688.46V692.908H826.995V688.697C826.995 687.864 827.596 687.178 828.508 687.178C829.431 687.178 829.875 687.658 829.875 688.624V692.908H830.932V688.381C830.932 687.008 830.185 686.242 828.848 686.242C827.943 686.242 827.195 686.698 826.843 687.39H826.746C826.442 686.71 825.822 686.242 824.935 686.242C824.078 686.242 823.458 686.649 823.167 687.354H823.069V686.357H822.012V692.908ZM835.514 693.023C837.057 693.023 837.993 692.148 838.218 691.261L838.23 691.212H837.173L837.148 691.267C836.972 691.662 836.425 692.081 835.538 692.081C834.372 692.081 833.624 691.291 833.594 689.936H838.309V689.523C838.309 687.567 837.227 686.242 835.447 686.242C833.667 686.242 832.512 687.627 832.512 689.651V689.657C832.512 691.711 833.642 693.023 835.514 693.023ZM835.441 687.184C836.407 687.184 837.124 687.797 837.234 689.092H833.612C833.727 687.846 834.469 687.184 835.441 687.184ZM842.198 693.023C843.687 693.023 844.823 692.215 844.823 691.048V691.036C844.823 690.1 844.227 689.566 842.994 689.268L841.985 689.025C841.214 688.837 840.885 688.557 840.885 688.113V688.101C840.885 687.524 841.457 687.123 842.234 687.123C843.024 687.123 843.535 687.481 843.675 687.998H844.714C844.568 686.929 843.614 686.242 842.24 686.242C840.849 686.242 839.804 687.062 839.804 688.15V688.156C839.804 689.098 840.357 689.633 841.584 689.924L842.599 690.167C843.407 690.362 843.741 690.672 843.741 691.115V691.127C843.741 691.723 843.115 692.142 842.234 692.142C841.396 692.142 840.873 691.784 840.697 691.237H839.615C839.737 692.318 840.74 693.023 842.198 693.023ZM848.59 693.023C850.079 693.023 851.215 692.215 851.215 691.048V691.036C851.215 690.1 850.62 689.566 849.386 689.268L848.378 689.025C847.606 688.837 847.278 688.557 847.278 688.113V688.101C847.278 687.524 847.849 687.123 848.627 687.123C849.417 687.123 849.927 687.481 850.067 687.998H851.106C850.96 686.929 850.006 686.242 848.633 686.242C847.241 686.242 846.196 687.062 846.196 688.15V688.156C846.196 689.098 846.749 689.633 847.977 689.924L848.991 690.167C849.8 690.362 850.134 690.672 850.134 691.115V691.127C850.134 691.723 849.508 692.142 848.627 692.142C847.788 692.142 847.266 691.784 847.089 691.237H846.008C846.129 692.318 847.132 693.023 848.59 693.023ZM854.655 693.023C855.536 693.023 856.222 692.64 856.635 691.942H856.733V692.908H857.79V688.423C857.79 687.062 856.897 686.242 855.299 686.242C853.901 686.242 852.905 686.935 852.734 687.962L852.728 687.998H853.786L853.792 687.98C853.962 687.469 854.478 687.178 855.262 687.178C856.24 687.178 856.733 687.615 856.733 688.423V689.019L854.855 689.134C853.33 689.225 852.467 689.9 852.467 691.067V691.079C852.467 692.27 853.409 693.023 854.655 693.023ZM853.549 691.054V691.042C853.549 690.392 853.986 690.04 854.983 689.979L856.733 689.87V690.465C856.733 691.401 855.949 692.106 854.873 692.106C854.114 692.106 853.549 691.717 853.549 691.054ZM862.42 695.217C864.207 695.217 865.337 694.281 865.337 692.817V686.357H864.28V687.439H864.207C863.806 686.698 863.089 686.242 862.165 686.242C860.451 686.242 859.394 687.573 859.394 689.408V689.42C859.394 691.255 860.445 692.567 862.141 692.567C863.04 692.567 863.781 692.16 864.194 691.437H864.292V692.762C864.292 693.728 863.593 694.281 862.42 694.281C861.478 694.281 860.895 693.929 860.78 693.43L860.773 693.424H859.68L859.668 693.43C859.832 694.506 860.84 695.217 862.42 695.217ZM862.372 691.632C861.156 691.632 860.476 690.72 860.476 689.42V689.408C860.476 688.107 861.156 687.178 862.372 687.178C863.581 687.178 864.316 688.107 864.316 689.408V689.42C864.316 690.72 863.587 691.632 862.372 691.632ZM869.979 693.023C871.523 693.023 872.458 692.148 872.683 691.261L872.695 691.212H871.638L871.614 691.267C871.438 691.662 870.891 692.081 870.004 692.081C868.837 692.081 868.089 691.291 868.059 689.936H872.774V689.523C872.774 687.567 871.693 686.242 869.912 686.242C868.132 686.242 866.977 687.627 866.977 689.651V689.657C866.977 691.711 868.108 693.023 869.979 693.023ZM869.906 687.184C870.872 687.184 871.589 687.797 871.699 689.092H868.077C868.193 687.846 868.934 687.184 869.906 687.184Z" fill="#191C1D"/>
<circle cx="717.333" cy="713.907" r="7.11111" fill="#F7F8F8"/>
<circle cx="717.333" cy="713.907" r="7.11111" fill="#78767F" fill-opacity="0.02"/>
<circle cx="717.333" cy="713.907" r="7.11111" fill="#5D34F2" fill-opacity="0.14"/>
<circle cx="717.333" cy="713.907" r="7.11111" stroke="#A398B7" stroke-width="1.77778"/>
<path d="M733.753 718.019H734.901L735.782 715.509H739.27L740.151 718.019H741.3L738.067 709.25H736.985L733.753 718.019ZM737.477 710.666H737.575L738.948 714.579H736.104L737.477 710.666ZM742.703 720.206H743.76V716.986H743.858C744.216 717.684 745 718.134 745.899 718.134C747.564 718.134 748.646 716.803 748.646 714.749V714.737C748.646 712.696 747.558 711.353 745.899 711.353C744.988 711.353 744.259 711.784 743.858 712.513H743.76V711.468H742.703V720.206ZM745.656 717.198C744.465 717.198 743.736 716.262 743.736 714.749V714.737C743.736 713.224 744.465 712.289 745.656 712.289C746.853 712.289 747.564 713.212 747.564 714.737V714.749C747.564 716.275 746.853 717.198 745.656 717.198ZM750.299 720.206H751.356V716.986H751.453C751.812 717.684 752.596 718.134 753.495 718.134C755.16 718.134 756.241 716.803 756.241 714.749V714.737C756.241 712.696 755.154 711.353 753.495 711.353C752.583 711.353 751.854 711.784 751.453 712.513H751.356V711.468H750.299V720.206ZM753.252 717.198C752.061 717.198 751.332 716.262 751.332 714.749V714.737C751.332 713.224 752.061 712.289 753.252 712.289C754.449 712.289 755.16 713.212 755.16 714.737V714.749C755.16 716.275 754.449 717.198 753.252 717.198ZM761.528 718.019H766.851V717.034H762.622V709.25H761.528V718.019ZM770.855 718.134C772.721 718.134 773.875 716.846 773.875 714.749V714.737C773.875 712.635 772.721 711.353 770.855 711.353C768.99 711.353 767.835 712.635 767.835 714.737V714.749C767.835 716.846 768.99 718.134 770.855 718.134ZM770.855 717.198C769.615 717.198 768.917 716.293 768.917 714.749V714.737C768.917 713.188 769.615 712.289 770.855 712.289C772.095 712.289 772.793 713.188 772.793 714.737V714.749C772.793 716.293 772.095 717.198 770.855 717.198ZM778.214 720.328C780 720.328 781.13 719.392 781.13 717.927V711.468H780.073V712.55H780C779.599 711.808 778.882 711.353 777.958 711.353C776.245 711.353 775.188 712.683 775.188 714.519V714.531C775.188 716.366 776.239 717.678 777.934 717.678C778.833 717.678 779.575 717.271 779.988 716.548H780.085V717.873C780.085 718.839 779.386 719.392 778.214 719.392C777.272 719.392 776.688 719.039 776.573 718.541L776.567 718.535H775.473L775.461 718.541C775.625 719.617 776.634 720.328 778.214 720.328ZM778.165 716.743C776.95 716.743 776.269 715.831 776.269 714.531V714.519C776.269 713.218 776.95 712.289 778.165 712.289C779.374 712.289 780.109 713.218 780.109 714.519V714.531C780.109 715.831 779.38 716.743 778.165 716.743ZM785.791 718.134C787.656 718.134 788.811 716.846 788.811 714.749V714.737C788.811 712.635 787.656 711.353 785.791 711.353C783.925 711.353 782.771 712.635 782.771 714.737V714.749C782.771 716.846 783.925 718.134 785.791 718.134ZM785.791 717.198C784.551 717.198 783.852 716.293 783.852 714.749V714.737C783.852 713.188 784.551 712.289 785.791 712.289C787.03 712.289 787.729 713.188 787.729 714.737V714.749C787.729 716.293 787.03 717.198 785.791 717.198Z" fill="#191C1D"/>
<path d="M708.467 494.907H711.842C713.446 494.907 714.441 494.079 714.441 492.761V492.751C714.441 491.787 713.717 491.043 712.722 490.965V490.871C713.493 490.756 714.082 490.063 714.082 489.272V489.261C714.082 488.105 713.212 487.392 711.754 487.392H708.467V494.907ZM711.352 488.558C712.102 488.558 712.535 488.923 712.535 489.532V489.543C712.535 490.162 712.071 490.517 711.222 490.517H710.04V488.558H711.352ZM711.405 491.553C712.332 491.553 712.837 491.928 712.837 492.626V492.636C712.837 493.35 712.347 493.735 711.441 493.735H710.04V491.553H711.405ZM716.93 494.907H718.502V492.157H719.789L721.19 494.907H722.971L721.388 491.923C722.247 491.584 722.747 490.756 722.747 489.793V489.782C722.747 488.303 721.768 487.392 720.06 487.392H716.93V494.907ZM718.502 491.011V488.621H719.867C720.654 488.621 721.138 489.09 721.138 489.813V489.824C721.138 490.563 720.674 491.011 719.888 491.011H718.502ZM724.866 494.907H726.517L727.074 493.084H729.725L730.283 494.907H731.939L729.324 487.392H727.475L724.866 494.907ZM728.356 488.892H728.449L729.366 491.907H727.434L728.356 488.892ZM734.282 494.907H735.787V490.1H735.87L739.349 494.907H740.651V487.392H739.146V492.178H739.063L735.594 487.392H734.282V494.907ZM743.546 494.907H746.505C748.755 494.907 750.031 493.532 750.031 491.105V491.095C750.031 488.741 748.739 487.392 746.505 487.392H743.546V494.907ZM745.119 493.61V488.688H746.255C747.619 488.688 748.426 489.574 748.426 491.121V491.131C748.426 492.735 747.645 493.61 746.255 493.61H745.119ZM752.592 494.907H754.165V487.392H752.592V494.907ZM757.055 494.907H758.56V490.1H758.643L762.122 494.907H763.424V487.392H761.919V492.178H761.836L758.367 487.392H757.055V494.907ZM769.59 495.1C771.642 495.1 772.923 493.85 772.923 491.855V490.902H769.767V492.048H771.392L771.387 492.188C771.356 493.136 770.647 493.767 769.616 493.767C768.376 493.767 767.59 492.761 767.59 491.131V491.121C767.59 489.522 768.34 488.532 769.554 488.532C770.434 488.532 771.074 488.975 771.288 489.72L771.298 489.772H772.861L772.85 489.72C772.626 488.22 771.33 487.199 769.554 487.199C767.366 487.199 765.986 488.725 765.986 491.136V491.147C765.986 493.595 767.356 495.1 769.59 495.1Z" fill="#928F9A"/>
<rect x="953.333" y="484.352" width="123.556" height="244.444" rx="17.3333" fill="#EFE8FB" stroke="#C6BADA" stroke-width="0.888889"/>
<path d="M970.667 635.566H1004.44V636.1H970.667V635.566Z" fill="#F7F8F8"/>
<path d="M970.667 635.566H1004.44V636.1H970.667V635.566Z" fill="#78767F" fill-opacity="0.02"/>
<path d="M970.667 635.566H1004.44V636.1H970.667V635.566Z" fill="#5D34F2" fill-opacity="0.16"/>
<path d="M1013.66 638.399C1014.72 638.399 1015.38 637.663 1015.38 636.465V636.458C1015.38 635.257 1014.72 634.524 1013.66 634.524C1012.59 634.524 1011.93 635.257 1011.93 636.458V636.465C1011.93 637.663 1012.59 638.399 1013.66 638.399ZM1013.66 637.864C1012.95 637.864 1012.55 637.347 1012.55 636.465V636.458C1012.55 635.573 1012.95 635.059 1013.66 635.059C1014.36 635.059 1014.76 635.573 1014.76 636.458V636.465C1014.76 637.347 1014.36 637.864 1013.66 637.864ZM1016.32 638.333H1016.92V636.014C1016.92 635.465 1017.33 635.1 1017.91 635.1C1018.04 635.1 1018.16 635.114 1018.28 635.135V634.548C1018.22 634.538 1018.09 634.524 1017.98 634.524C1017.47 634.524 1017.12 634.753 1016.98 635.146H1016.92V634.59H1016.32V638.333Z" fill="#716AC0"/>
<path d="M1025.67 635.566H1059.44V636.1H1025.67V635.566Z" fill="#F7F8F8"/>
<path d="M1025.67 635.566H1059.44V636.1H1025.67V635.566Z" fill="#78767F" fill-opacity="0.02"/>
<path d="M1025.67 635.566H1059.44V636.1H1025.67V635.566Z" fill="#5D34F2" fill-opacity="0.16"/>
<circle cx="986.611" cy="656.555" r="7.11111" fill="#CABEFF"/>
<circle cx="1015.06" cy="656.555" r="7.11111" fill="#CABEFF"/>
<circle cx="1043.5" cy="656.555" r="7.11111" fill="#CABEFF"/>
<circle cx="1015.11" cy="513.241" r="12.4444" fill="#CABEFF"/>
<path d="M976 532.796H1034.21M1054.22 532.796H1044.89" stroke="#D8D0E4" stroke-width="1.77778" stroke-linecap="round"/>
<rect x="965.333" y="547.018" width="99.5556" height="17.7778" rx="3.55556" fill="#DBD1EB"/>
<path d="M972.986 558.574H973.74V556.258C973.74 555.765 974.076 555.376 974.531 555.376C974.976 555.376 975.257 555.647 975.257 556.077V558.574H976.007V556.188C976.007 555.733 976.323 555.376 976.802 555.376C977.295 555.376 977.531 555.633 977.531 556.154V558.574H978.281V555.973C978.281 555.188 977.837 554.73 977.076 554.73C976.552 554.73 976.118 554.997 975.927 555.404H975.868C975.701 554.997 975.337 554.73 974.823 554.73C974.33 554.73 973.962 554.97 973.795 555.383H973.74V554.803H972.986V558.574ZM980.927 559.904C981.997 559.904 982.674 559.355 982.674 558.497V554.803H981.924V555.421H981.878C981.66 554.997 981.25 554.737 980.722 554.737C979.743 554.737 979.142 555.497 979.142 556.574V556.581C979.142 557.643 979.74 558.39 980.708 558.39C981.226 558.39 981.642 558.161 981.872 557.751H981.927V558.494C981.927 559.008 981.559 559.299 980.938 559.299C980.427 559.299 980.122 559.115 980.059 558.855L980.056 558.848H979.295L979.288 558.855C979.378 559.483 979.969 559.904 980.927 559.904ZM980.917 557.768C980.274 557.768 979.913 557.279 979.913 556.577V556.57C979.913 555.869 980.274 555.376 980.917 555.376C981.552 555.376 981.941 555.869 981.941 556.57V556.577C981.941 557.282 981.556 557.768 980.917 557.768ZM985.34 558.647C986.306 558.647 986.826 558.091 986.951 557.595L986.958 557.563L986.233 557.567L986.219 557.595C986.128 557.789 985.84 558.029 985.358 558.029C984.736 558.029 984.34 557.608 984.326 556.886H987V556.622C987 555.49 986.354 554.73 985.302 554.73C984.25 554.73 983.569 555.518 983.569 556.695V556.699C983.569 557.893 984.236 558.647 985.34 558.647ZM985.306 555.348C985.816 555.348 986.194 555.674 986.253 556.348H984.337C984.403 555.699 984.792 555.348 985.306 555.348ZM989.493 558.647C990.597 558.647 991.274 557.907 991.274 556.692V556.685C991.274 555.47 990.594 554.73 989.493 554.73C988.389 554.73 987.708 555.473 987.708 556.685V556.692C987.708 557.907 988.385 558.647 989.493 558.647ZM989.493 558.018C988.844 558.018 988.479 557.529 988.479 556.692V556.685C988.479 555.848 988.844 555.358 989.493 555.358C990.139 555.358 990.507 555.848 990.507 556.685V556.692C990.507 557.525 990.139 558.018 989.493 558.018ZM992.174 558.574H992.927V556.32C992.927 555.775 993.319 555.421 993.896 555.421C994.038 555.421 994.167 555.438 994.302 555.466V554.772C994.226 554.754 994.094 554.737 993.972 554.737C993.469 554.737 993.118 554.973 992.983 555.372H992.927V554.803H992.174V558.574ZM996.517 559.904C997.587 559.904 998.264 559.355 998.264 558.497V554.803H997.514V555.421H997.469C997.25 554.997 996.84 554.737 996.313 554.737C995.333 554.737 994.733 555.497 994.733 556.574V556.581C994.733 557.643 995.33 558.39 996.299 558.39C996.816 558.39 997.233 558.161 997.462 557.751H997.517V558.494C997.517 559.008 997.149 559.299 996.528 559.299C996.017 559.299 995.712 559.115 995.649 558.855L995.646 558.848H994.885L994.878 558.855C994.969 559.483 995.559 559.904 996.517 559.904ZM996.507 557.768C995.865 557.768 995.503 557.279 995.503 556.577V556.57C995.503 555.869 995.865 555.376 996.507 555.376C997.142 555.376 997.531 555.869 997.531 556.57V556.577C997.531 557.282 997.146 557.768 996.507 557.768ZM1000.93 558.647C1001.9 558.647 1002.42 558.091 1002.54 557.595L1002.55 557.563L1001.82 557.567L1001.81 557.595C1001.72 557.789 1001.43 558.029 1000.95 558.029C1000.33 558.029 999.931 557.608 999.917 556.886H1002.59V556.622C1002.59 555.49 1001.94 554.73 1000.89 554.73C999.84 554.73 999.16 555.518 999.16 556.695V556.699C999.16 557.893 999.826 558.647 1000.93 558.647ZM1000.9 555.348C1001.41 555.348 1001.78 555.674 1001.84 556.348H999.927C999.993 555.699 1000.38 555.348 1000.9 555.348ZM1006.37 559.365C1006.78 559.365 1007.18 559.31 1007.48 559.213V558.73C1007.27 558.824 1006.83 558.883 1006.4 558.883C1004.91 558.883 1003.96 557.949 1003.96 556.494V556.487C1003.96 555.063 1004.92 554.053 1006.27 554.053C1007.64 554.053 1008.56 554.897 1008.56 556.15V556.157C1008.56 556.956 1008.3 557.473 1007.89 557.473C1007.66 557.473 1007.52 557.331 1007.52 557.088V555.115H1006.93V555.536H1006.88C1006.74 555.23 1006.43 555.046 1006.07 555.046C1005.36 555.046 1004.87 555.629 1004.87 556.47V556.477C1004.87 557.355 1005.35 557.945 1006.08 557.945C1006.48 557.945 1006.78 557.754 1006.93 557.4H1006.99L1006.99 557.421C1007.06 557.754 1007.37 557.97 1007.78 557.97C1008.59 557.97 1009.1 557.261 1009.1 556.14V556.133C1009.1 554.622 1007.96 553.574 1006.31 553.574C1004.6 553.574 1003.42 554.751 1003.42 556.466V556.473C1003.42 558.233 1004.57 559.365 1006.37 559.365ZM1006.19 557.404C1005.77 557.404 1005.51 557.056 1005.51 556.494V556.487C1005.51 555.917 1005.76 555.577 1006.19 555.577C1006.63 555.577 1006.91 555.931 1006.91 556.487V556.494C1006.91 557.049 1006.63 557.404 1006.19 557.404ZM1011.64 559.904C1012.7 559.904 1013.38 559.355 1013.38 558.497V554.803H1012.63V555.421H1012.59C1012.37 554.997 1011.96 554.737 1011.43 554.737C1010.45 554.737 1009.85 555.497 1009.85 556.574V556.581C1009.85 557.643 1010.45 558.39 1011.42 558.39C1011.93 558.39 1012.35 558.161 1012.58 557.751H1012.64V558.494C1012.64 559.008 1012.27 559.299 1011.65 559.299C1011.14 559.299 1010.83 559.115 1010.77 558.855L1010.76 558.848H1010L1010 558.855C1010.09 559.483 1010.68 559.904 1011.64 559.904ZM1011.63 557.768C1010.98 557.768 1010.62 557.279 1010.62 556.577V556.57C1010.62 555.869 1010.98 555.376 1011.63 555.376C1012.26 555.376 1012.65 555.869 1012.65 556.57V556.577C1012.65 557.282 1012.26 557.768 1011.63 557.768ZM1014.47 558.574H1015.22V556.258C1015.22 555.765 1015.56 555.376 1016.01 555.376C1016.45 555.376 1016.74 555.647 1016.74 556.077V558.574H1017.49V556.188C1017.49 555.733 1017.8 555.376 1018.28 555.376C1018.77 555.376 1019.01 555.633 1019.01 556.154V558.574H1019.76V555.973C1019.76 555.188 1019.32 554.73 1018.56 554.73C1018.03 554.73 1017.6 554.997 1017.41 555.404H1017.35C1017.18 554.997 1016.82 554.73 1016.3 554.73C1015.81 554.73 1015.44 554.97 1015.27 555.383H1015.22V554.803H1014.47V558.574ZM1021.85 558.636C1022.35 558.636 1022.74 558.421 1022.97 558.039H1023.02V558.574H1023.77V555.994C1023.77 555.202 1023.24 554.73 1022.29 554.73C1021.43 554.73 1020.84 555.143 1020.75 555.761L1020.74 555.786H1021.47L1021.47 555.772C1021.56 555.504 1021.84 555.352 1022.25 555.352C1022.76 555.352 1023.02 555.581 1023.02 555.994V556.327L1022 556.386C1021.1 556.442 1020.6 556.834 1020.6 557.508V557.515C1020.6 558.199 1021.13 558.636 1021.85 558.636ZM1021.35 557.483V557.477C1021.35 557.136 1021.58 556.949 1022.1 556.917L1023.02 556.858V557.181C1023.02 557.667 1022.61 558.036 1022.05 558.036C1021.64 558.036 1021.35 557.831 1021.35 557.483ZM1025.23 554.129C1025.48 554.129 1025.7 553.917 1025.7 553.661C1025.7 553.4 1025.48 553.188 1025.23 553.188C1024.97 553.188 1024.75 553.4 1024.75 553.661C1024.75 553.917 1024.97 554.129 1025.23 554.129ZM1024.85 558.574H1025.6V554.803H1024.85V558.574ZM1026.73 558.574H1027.48V553.324H1026.73V558.574ZM1029.18 558.626C1029.47 558.626 1029.69 558.404 1029.69 558.122C1029.69 557.838 1029.47 557.615 1029.18 557.615C1028.9 557.615 1028.67 557.838 1028.67 558.122C1028.67 558.404 1028.9 558.626 1029.18 558.626ZM1032.3 558.647C1033.23 558.647 1033.77 558.143 1033.9 557.411L1033.91 557.379H1033.19L1033.18 557.397C1033.06 557.803 1032.77 558.018 1032.3 558.018C1031.67 558.018 1031.29 557.511 1031.29 556.678V556.671C1031.29 555.858 1031.67 555.358 1032.3 555.358C1032.8 555.358 1033.1 555.636 1033.18 556.008L1033.19 556.018L1033.91 556.015V555.997C1033.81 555.265 1033.24 554.73 1032.29 554.73C1031.19 554.73 1030.52 555.477 1030.52 556.671V556.678C1030.52 557.897 1031.19 558.647 1032.3 558.647ZM1036.36 558.647C1037.47 558.647 1038.14 557.907 1038.14 556.692V556.685C1038.14 555.47 1037.46 554.73 1036.36 554.73C1035.26 554.73 1034.58 555.473 1034.58 556.685V556.692C1034.58 557.907 1035.25 558.647 1036.36 558.647ZM1036.36 558.018C1035.71 558.018 1035.35 557.529 1035.35 556.692V556.685C1035.35 555.848 1035.71 555.358 1036.36 555.358C1037.01 555.358 1037.38 555.848 1037.38 556.685V556.692C1037.38 557.525 1037.01 558.018 1036.36 558.018ZM1039.04 558.574H1039.8V556.258C1039.8 555.765 1040.13 555.376 1040.59 555.376C1041.03 555.376 1041.31 555.647 1041.31 556.077V558.574H1042.06V556.188C1042.06 555.733 1042.38 555.376 1042.86 555.376C1043.35 555.376 1043.59 555.633 1043.59 556.154V558.574H1044.34V555.973C1044.34 555.188 1043.89 554.73 1043.13 554.73C1042.61 554.73 1042.17 554.997 1041.98 555.404H1041.92C1041.76 554.997 1041.39 554.73 1040.88 554.73C1040.39 554.73 1040.02 554.97 1039.85 555.383H1039.8V554.803H1039.04V558.574Z" fill="#928F9A"/>
<rect x="965.333" y="589.685" width="99.5556" height="17.7778" rx="5.33333" fill="#7958FF"/>
<path d="M1003.08 601.358C1004.15 601.358 1004.94 600.765 1005.1 599.848V599.841H1004.47L1004.47 599.848C1004.31 600.424 1003.78 600.782 1003.08 600.782C1002.11 600.782 1001.51 599.994 1001.51 598.74V598.733C1001.51 597.48 1002.11 596.688 1003.08 596.688C1003.77 596.688 1004.3 597.094 1004.47 597.737L1004.47 597.744H1005.1L1005.1 597.737C1004.95 596.775 1004.13 596.112 1003.08 596.112C1001.72 596.112 1000.87 597.119 1000.87 598.733V598.74C1000.87 600.351 1001.72 601.358 1003.08 601.358ZM1007.61 601.306C1008.68 601.306 1009.34 600.57 1009.34 599.372V599.365C1009.34 598.164 1008.68 597.431 1007.61 597.431C1006.55 597.431 1005.89 598.164 1005.89 599.365V599.372C1005.89 600.57 1006.55 601.306 1007.61 601.306ZM1007.61 600.771C1006.91 600.771 1006.51 600.254 1006.51 599.372V599.365C1006.51 598.48 1006.91 597.966 1007.61 597.966C1008.32 597.966 1008.72 598.48 1008.72 599.365V599.372C1008.72 600.254 1008.32 600.771 1007.61 600.771ZM1010.28 601.24H1010.88V599.025C1010.88 598.369 1011.26 597.966 1011.86 597.966C1012.45 597.966 1012.73 598.289 1012.73 598.962V601.24H1013.34V598.817C1013.34 597.928 1012.87 597.431 1012.03 597.431C1011.48 597.431 1011.13 597.664 1010.94 598.06H1010.88V597.497H1010.28V601.24ZM1015.76 601.268C1015.88 601.268 1015.99 601.254 1016.11 601.233V600.719C1016 600.73 1015.94 600.733 1015.83 600.733C1015.44 600.733 1015.29 600.556 1015.29 600.115V597.997H1016.11V597.497H1015.29V596.528H1014.67V597.497H1014.08V597.997H1014.67V600.268C1014.67 600.983 1014.99 601.268 1015.76 601.268ZM1017.33 596.775C1017.56 596.775 1017.75 596.587 1017.75 596.358C1017.75 596.129 1017.56 595.942 1017.33 595.942C1017.1 595.942 1016.92 596.129 1016.92 596.358C1016.92 596.587 1017.1 596.775 1017.33 596.775ZM1017.03 601.24H1017.63V597.497H1017.03V601.24ZM1018.77 601.24H1019.38V599.025C1019.38 598.369 1019.75 597.966 1020.35 597.966C1020.95 597.966 1021.23 598.289 1021.23 598.962V601.24H1021.83V598.817C1021.83 597.928 1021.36 597.431 1020.52 597.431C1019.97 597.431 1019.62 597.664 1019.43 598.06H1019.38V597.497H1018.77V601.24ZM1024.18 601.306C1024.73 601.306 1025.1 601.081 1025.29 600.681H1025.34V601.24H1025.95V597.497H1025.34V599.712C1025.34 600.369 1024.99 600.771 1024.33 600.771C1023.74 600.771 1023.49 600.449 1023.49 599.775V597.497H1022.89V599.921C1022.89 600.806 1023.33 601.306 1024.18 601.306ZM1028.6 601.306C1029.49 601.306 1030.02 600.806 1030.15 600.299L1030.16 600.271H1029.55L1029.54 600.303C1029.44 600.528 1029.13 600.768 1028.62 600.768C1027.95 600.768 1027.52 600.317 1027.51 599.542H1030.2V599.306C1030.2 598.188 1029.58 597.431 1028.57 597.431C1027.55 597.431 1026.89 598.223 1026.89 599.379V599.383C1026.89 600.556 1027.53 601.306 1028.6 601.306ZM1028.56 597.969C1029.11 597.969 1029.52 598.32 1029.59 599.06H1027.52C1027.58 598.348 1028.01 597.969 1028.56 597.969Z" fill="white"/>
<path d="M974.222 581.685H1026.41M1051.56 581.685H1037.46" stroke="#D8D0E4" stroke-width="1.77778" stroke-linecap="round"/>
<circle cx="968" cy="581.685" r="1.95556" fill="white" stroke="#CDC5DB" stroke-width="1.42222"/>
<path d="M989.071 712.484C990.27 712.484 991.161 711.816 991.348 710.785V710.777H990.637L990.629 710.785C990.454 711.434 989.856 711.836 989.071 711.836C987.985 711.836 987.305 710.949 987.305 709.539V709.531C987.305 708.121 987.985 707.23 989.067 707.23C989.844 707.23 990.446 707.688 990.633 708.41L990.637 708.418H991.344L991.348 708.41C991.18 707.328 990.254 706.582 989.067 706.582C987.536 706.582 986.583 707.715 986.583 709.531V709.539C986.583 711.352 987.54 712.484 989.071 712.484ZM992.442 712.352H993.122V709.742C993.122 709.125 993.583 708.715 994.231 708.715C994.379 708.715 994.508 708.73 994.649 708.754V708.094C994.583 708.082 994.438 708.066 994.309 708.066C993.739 708.066 993.344 708.324 993.184 708.766H993.122V708.141H992.442V712.352ZM997.09 712.426C998.083 712.426 998.684 711.863 998.829 711.293L998.836 711.262H998.157L998.141 711.297C998.028 711.551 997.676 711.82 997.106 711.82C996.356 711.82 995.875 711.312 995.856 710.441H998.887V710.176C998.887 708.918 998.192 708.066 997.047 708.066C995.903 708.066 995.161 708.957 995.161 710.258V710.262C995.161 711.582 995.887 712.426 997.09 712.426ZM997.043 708.672C997.665 708.672 998.125 709.066 998.196 709.898H995.868C995.942 709.098 996.418 708.672 997.043 708.672ZM1001.1 712.426C1001.66 712.426 1002.11 712.18 1002.37 711.73H1002.43V712.352H1003.11V709.469C1003.11 708.594 1002.54 708.066 1001.51 708.066C1000.61 708.066 999.973 708.512 999.864 709.172L999.86 709.195H1000.54L1000.54 709.184C1000.65 708.855 1000.98 708.668 1001.49 708.668C1002.12 708.668 1002.43 708.949 1002.43 709.469V709.852L1001.23 709.926C1000.25 709.984 999.692 710.418 999.692 711.168V711.176C999.692 711.941 1000.3 712.426 1001.1 712.426ZM1000.39 711.16V711.152C1000.39 710.734 1000.67 710.508 1001.31 710.469L1002.43 710.398V710.781C1002.43 711.383 1001.93 711.836 1001.24 711.836C1000.75 711.836 1000.39 711.586 1000.39 711.16ZM1005.85 712.383C1005.98 712.383 1006.11 712.367 1006.25 712.344V711.766C1006.12 711.777 1006.06 711.781 1005.93 711.781C1005.5 711.781 1005.32 711.582 1005.32 711.086V708.703H1006.25V708.141H1005.32V707.051H1004.62V708.141H1003.96V708.703H1004.62V711.258C1004.62 712.062 1004.98 712.383 1005.85 712.383ZM1008.92 712.426C1009.91 712.426 1010.51 711.863 1010.66 711.293L1010.66 711.262H1009.98L1009.97 711.297C1009.86 711.551 1009.5 711.82 1008.93 711.82C1008.18 711.82 1007.7 711.312 1007.68 710.441H1010.72V710.176C1010.72 708.918 1010.02 708.066 1008.88 708.066C1007.73 708.066 1006.99 708.957 1006.99 710.258V710.262C1006.99 711.582 1007.72 712.426 1008.92 712.426ZM1008.87 708.672C1009.49 708.672 1009.95 709.066 1010.02 709.898H1007.7C1007.77 709.098 1008.25 708.672 1008.87 708.672ZM1013.66 712.352H1014.4L1014.96 710.738H1017.2L1017.77 712.352H1018.51L1016.43 706.715H1015.73L1013.66 712.352ZM1016.05 707.625H1016.11L1017 710.141H1015.17L1016.05 707.625ZM1020.9 712.426C1021.91 712.426 1022.48 711.883 1022.65 711.121L1022.66 711.078L1021.98 711.082L1021.98 711.105C1021.82 711.574 1021.46 711.824 1020.9 711.824C1020.15 711.824 1019.66 711.203 1019.66 710.234V710.227C1019.66 709.277 1020.14 708.668 1020.9 708.668C1021.5 708.668 1021.88 709.004 1021.98 709.418L1021.98 709.43H1022.66L1022.66 709.406C1022.53 708.656 1021.92 708.066 1020.9 708.066C1019.72 708.066 1018.97 708.918 1018.97 710.227V710.234C1018.97 711.57 1019.72 712.426 1020.9 712.426ZM1025.38 712.426C1026.39 712.426 1026.95 711.883 1027.13 711.121L1027.13 711.078L1026.46 711.082L1026.45 711.105C1026.3 711.574 1025.94 711.824 1025.37 711.824C1024.62 711.824 1024.14 711.203 1024.14 710.234V710.227C1024.14 709.277 1024.61 708.668 1025.37 708.668C1025.98 708.668 1026.35 709.004 1026.46 709.418L1026.46 709.43H1027.14L1027.13 709.406C1027.01 708.656 1026.4 708.066 1025.37 708.066C1024.19 708.066 1023.44 708.918 1023.44 710.227V710.234C1023.44 711.57 1024.2 712.426 1025.38 712.426ZM1029.86 712.426C1031.06 712.426 1031.8 711.598 1031.8 710.25V710.242C1031.8 708.891 1031.06 708.066 1029.86 708.066C1028.66 708.066 1027.92 708.891 1027.92 710.242V710.25C1027.92 711.598 1028.66 712.426 1029.86 712.426ZM1029.86 711.824C1029.06 711.824 1028.61 711.242 1028.61 710.25V710.242C1028.61 709.246 1029.06 708.668 1029.86 708.668C1030.66 708.668 1031.11 709.246 1031.11 710.242V710.25C1031.11 711.242 1030.66 711.824 1029.86 711.824ZM1034.27 712.426C1034.88 712.426 1035.31 712.172 1035.52 711.723H1035.58V712.352H1036.26V708.141H1035.58V710.633C1035.58 711.371 1035.18 711.824 1034.44 711.824C1033.77 711.824 1033.5 711.461 1033.5 710.703V708.141H1032.82V710.867C1032.82 711.863 1033.31 712.426 1034.27 712.426ZM1037.53 712.352H1038.21V709.859C1038.21 709.121 1038.63 708.668 1039.31 708.668C1039.98 708.668 1040.29 709.031 1040.29 709.789V712.352H1040.97V709.625C1040.97 708.625 1040.44 708.066 1039.5 708.066C1038.88 708.066 1038.48 708.328 1038.27 708.773H1038.21V708.141H1037.53V712.352ZM1043.7 712.383C1043.83 712.383 1043.96 712.367 1044.09 712.344V711.766C1043.97 711.777 1043.9 711.781 1043.78 711.781C1043.34 711.781 1043.17 711.582 1043.17 711.086V708.703H1044.09V708.141H1043.17V707.051H1042.47V708.141H1041.8V708.703H1042.47V711.258C1042.47 712.062 1042.83 712.383 1043.7 712.383Z" fill="#7958FF"/>
<circle cx="714.667" cy="449.241" r="7.11111" fill="#FF897A"/>
<circle cx="739.556" cy="449.241" r="7.11111" fill="#F4E560"/>
<circle cx="764.444" cy="449.241" r="7.11111" fill="#83DA85"/>
<path d="M708.655 520.685H712.259C714.13 520.685 715.254 519.749 715.254 518.212V518.2C715.254 517.057 714.464 516.219 713.28 516.091V515.988C714.142 515.842 714.817 515.022 714.817 514.11V514.098C714.817 512.755 713.826 511.917 712.18 511.917H708.655V520.685ZM711.864 513.029C712.872 513.029 713.462 513.509 713.462 514.335V514.347C713.462 515.198 712.836 515.648 711.633 515.648H710.017V513.029H711.864ZM711.906 516.687C713.188 516.687 713.863 517.173 713.863 518.115V518.127C713.863 519.069 713.213 519.573 711.985 519.573H710.017V516.687H711.906ZM716.852 520.685H718.171V516.741C718.171 515.787 718.858 515.168 719.866 515.168C720.115 515.168 720.34 515.198 720.577 515.247V514.031C720.444 514.001 720.213 513.971 720 513.971C719.119 513.971 718.505 514.384 718.268 515.083H718.171V514.086H716.852V520.685ZM723.597 520.794C724.472 520.794 725.165 520.418 725.554 519.749H725.657V520.685H726.964V516.17C726.964 514.785 726.028 513.958 724.369 513.958C722.868 513.958 721.829 514.682 721.671 515.763L721.665 515.806H722.935L722.941 515.781C723.099 515.314 723.579 515.046 724.308 515.046C725.201 515.046 725.657 515.447 725.657 516.17V516.754L723.871 516.857C722.297 516.954 721.41 517.641 721.41 518.82V518.832C721.41 520.029 722.339 520.794 723.597 520.794ZM722.722 518.777V518.765C722.722 518.169 723.135 517.841 724.047 517.787L725.657 517.683V518.248C725.657 519.099 724.934 519.743 723.95 519.743C723.239 519.743 722.722 519.385 722.722 518.777ZM728.823 520.685H730.142V516.814C730.142 515.751 730.743 515.089 731.709 515.089C732.675 515.089 733.131 515.63 733.131 516.723V520.685H734.444V516.413C734.444 514.84 733.629 513.958 732.153 513.958C731.193 513.958 730.561 514.384 730.239 515.089H730.142V514.086H728.823V520.685ZM738.691 520.794C739.615 520.794 740.338 520.369 740.721 519.646H740.824V520.685H742.136V511.498H740.824V515.131H740.721C740.368 514.42 739.596 513.971 738.691 513.971C737.014 513.971 735.957 515.289 735.957 517.38V517.392C735.957 519.464 737.032 520.794 738.691 520.794ZM739.068 519.67C737.962 519.67 737.3 518.807 737.3 517.392V517.38C737.3 515.964 737.962 515.101 739.068 515.101C740.162 515.101 740.842 515.97 740.842 517.38V517.392C740.842 518.801 740.168 519.67 739.068 519.67ZM750.279 520.813C751.913 520.813 752.855 519.932 753.092 518.649L753.104 518.595H751.84L751.828 518.625C751.615 519.336 751.105 519.713 750.279 519.713C749.191 519.713 748.517 518.826 748.517 517.367V517.355C748.517 515.933 749.179 515.058 750.279 515.058C751.154 515.058 751.688 515.544 751.834 516.195L751.84 516.213L753.104 516.207V516.176C752.922 514.894 751.931 513.958 750.273 513.958C748.346 513.958 747.174 515.265 747.174 517.355V517.367C747.174 519.5 748.352 520.813 750.279 520.813ZM757.394 520.813C759.326 520.813 760.511 519.518 760.511 517.392V517.38C760.511 515.253 759.32 513.958 757.394 513.958C755.462 513.958 754.271 515.259 754.271 517.38V517.392C754.271 519.518 755.456 520.813 757.394 520.813ZM757.394 519.713C756.258 519.713 755.62 518.856 755.62 517.392V517.38C755.62 515.915 756.258 515.058 757.394 515.058C758.524 515.058 759.168 515.915 759.168 517.38V517.392C759.168 518.85 758.524 519.713 757.394 519.713ZM762.146 520.685H763.464V511.498H762.146V520.685ZM768.222 520.813C770.155 520.813 771.339 519.518 771.339 517.392V517.38C771.339 515.253 770.148 513.958 768.222 513.958C766.29 513.958 765.099 515.259 765.099 517.38V517.392C765.099 519.518 766.284 520.813 768.222 520.813ZM768.222 519.713C767.086 519.713 766.448 518.856 766.448 517.392V517.38C766.448 515.915 767.086 515.058 768.222 515.058C769.352 515.058 769.997 515.915 769.997 517.38V517.392C769.997 518.85 769.352 519.713 768.222 519.713ZM772.913 520.685H774.232V516.741C774.232 515.787 774.918 515.168 775.927 515.168C776.176 515.168 776.401 515.198 776.638 515.247V514.031C776.504 514.001 776.273 513.971 776.061 513.971C775.18 513.971 774.566 514.384 774.329 515.083H774.232V514.086H772.913V520.685Z" fill="#191C1D"/>
<rect x="708" y="528.796" width="216" height="32.8889" rx="4.88889" fill="#BFB5D0"/>
<rect x="714.667" y="534.574" width="21.3333" height="21.3333" rx="3.55556" fill="#7958FF"/>
<rect x="708" y="528.796" width="216" height="32.8889" rx="4.88889" stroke="#B5AAC8" stroke-width="0.888889"/>
<rect x="749.333" y="538.129" width="60.4444" height="10.6667" rx="3.55556" fill="#F7F8F8"/>
<rect x="749.333" y="538.129" width="60.4444" height="10.6667" rx="3.55556" fill="#78767F" fill-opacity="0.02"/>
<rect x="749.333" y="538.129" width="60.4444" height="10.6667" rx="3.55556" fill="#5D34F2" fill-opacity="0.16"/>
<path d="M708.655 585.574H714.221V584.401H710.017V581.673H713.997V580.542H710.017V577.978H714.221V576.806H708.655V585.574ZM716.038 585.574H717.357V581.703C717.357 580.64 717.958 579.977 718.925 579.977C719.891 579.977 720.346 580.518 720.346 581.612V585.574H721.659V581.302C721.659 579.728 720.845 578.847 719.368 578.847C718.408 578.847 717.776 579.273 717.454 579.977H717.357V578.975H716.038V585.574ZM725.311 585.683C726.186 585.683 726.879 585.306 727.267 584.638H727.371V585.574H728.677V581.059C728.677 579.674 727.741 578.847 726.083 578.847C724.582 578.847 723.543 579.57 723.385 580.652L723.379 580.694H724.648L724.655 580.67C724.813 580.202 725.293 579.935 726.022 579.935C726.915 579.935 727.371 580.336 727.371 581.059V581.642L725.584 581.746C724.01 581.843 723.123 582.529 723.123 583.708V583.72C723.123 584.917 724.053 585.683 725.311 585.683ZM724.436 583.666V583.654C724.436 583.058 724.849 582.73 725.76 582.675L727.371 582.572V583.137C727.371 583.988 726.648 584.632 725.663 584.632C724.952 584.632 724.436 584.273 724.436 583.666ZM734.043 585.683C735.708 585.683 736.777 584.352 736.777 582.28V582.268C736.777 580.178 735.72 578.859 734.043 578.859C733.137 578.859 732.365 579.309 732.013 580.02H731.916V576.386H730.597V585.574H731.916V584.535H732.013C732.396 585.258 733.119 585.683 734.043 585.683ZM733.672 584.559C732.572 584.559 731.892 583.69 731.892 582.28V582.268C731.892 580.858 732.572 579.99 733.672 579.99C734.772 579.99 735.434 580.852 735.434 582.268V582.28C735.434 583.696 734.772 584.559 733.672 584.559ZM738.412 585.574H739.73V576.386H738.412V585.574ZM744.464 585.701C746.153 585.701 747.064 584.729 747.283 583.86L747.295 583.806L746.025 583.812L746.001 583.86C745.843 584.2 745.339 584.62 744.494 584.62C743.406 584.62 742.714 583.884 742.689 582.621H747.368V582.159C747.368 580.178 746.238 578.847 744.397 578.847C742.556 578.847 741.365 580.227 741.365 582.286V582.292C741.365 584.383 742.531 585.701 744.464 585.701ZM744.403 579.929C745.296 579.929 745.958 580.5 746.062 581.679H742.708C742.823 580.542 743.504 579.929 744.403 579.929ZM752.491 585.574H755.656C758.269 585.574 759.782 583.957 759.782 581.174V581.162C759.782 578.41 758.257 576.806 755.656 576.806H752.491V585.574ZM753.852 584.401V577.978H755.504C757.321 577.978 758.397 579.163 758.397 581.181V581.193C758.397 583.228 757.339 584.401 755.504 584.401H753.852ZM763.264 585.683C764.139 585.683 764.832 585.306 765.221 584.638H765.324V585.574H766.63V581.059C766.63 579.674 765.694 578.847 764.036 578.847C762.535 578.847 761.496 579.57 761.338 580.652L761.332 580.694H762.602L762.608 580.67C762.766 580.202 763.246 579.935 763.975 579.935C764.868 579.935 765.324 580.336 765.324 581.059V581.642L763.537 581.746C761.964 581.843 761.076 582.529 761.076 583.708V583.72C761.076 584.917 762.006 585.683 763.264 585.683ZM762.389 583.666V583.654C762.389 583.058 762.802 582.73 763.714 582.675L765.324 582.572V583.137C765.324 583.988 764.601 584.632 763.616 584.632C762.905 584.632 762.389 584.273 762.389 583.666ZM768.49 585.574H769.808V581.63C769.808 580.676 770.495 580.056 771.504 580.056C771.753 580.056 771.977 580.087 772.214 580.135V578.92C772.081 578.89 771.85 578.859 771.637 578.859C770.756 578.859 770.142 579.273 769.905 579.971H769.808V578.975H768.49V585.574ZM773.533 585.574H774.852V583.174L775.417 582.608L777.689 585.574H779.293L776.359 581.758L779.111 578.975H777.568L774.949 581.758H774.852V576.386H773.533V585.574ZM784.051 585.574H785.291V579.139H785.388L787.958 585.574H788.967L791.543 579.139H791.635V585.574H792.874V576.806H791.306L788.511 583.799H788.414L785.619 576.806H784.051V585.574ZM797.717 585.701C799.649 585.701 800.834 584.407 800.834 582.28V582.268C800.834 580.141 799.643 578.847 797.717 578.847C795.785 578.847 794.594 580.148 794.594 582.268V582.28C794.594 584.407 795.779 585.701 797.717 585.701ZM797.717 584.602C796.581 584.602 795.943 583.745 795.943 582.28V582.268C795.943 580.804 796.581 579.947 797.717 579.947C798.847 579.947 799.491 580.804 799.491 582.268V582.28C799.491 583.739 798.847 584.602 797.717 584.602ZM804.814 585.683C805.738 585.683 806.461 585.258 806.844 584.535H806.947V585.574H808.26V576.386H806.947V580.02H806.844C806.491 579.309 805.72 578.859 804.814 578.859C803.137 578.859 802.08 580.178 802.08 582.268V582.28C802.08 584.352 803.155 585.683 804.814 585.683ZM805.191 584.559C804.085 584.559 803.423 583.696 803.423 582.28V582.268C803.423 580.852 804.085 579.99 805.191 579.99C806.285 579.99 806.965 580.858 806.965 582.268V582.28C806.965 583.69 806.291 584.559 805.191 584.559ZM812.993 585.701C814.682 585.701 815.594 584.729 815.813 583.86L815.825 583.806L814.555 583.812L814.53 583.86C814.372 584.2 813.868 584.62 813.023 584.62C811.936 584.62 811.243 583.884 811.219 582.621H815.898V582.159C815.898 580.178 814.767 578.847 812.926 578.847C811.085 578.847 809.894 580.227 809.894 582.286V582.292C809.894 584.383 811.061 585.701 812.993 585.701ZM812.932 579.929C813.826 579.929 814.488 580.5 814.591 581.679H811.237C811.352 580.542 812.033 579.929 812.932 579.929Z" fill="#191C1D"/>
<rect x="722.667" y="611.907" width="143.111" height="14.2222" rx="3.55556" fill="#F7F8F8"/>
<rect x="722.667" y="611.907" width="143.111" height="14.2222" rx="3.55556" fill="#78767F" fill-opacity="0.02"/>
<rect x="722.667" y="611.907" width="143.111" height="14.2222" rx="3.55556" fill="#BFB5D0"/>
<g clip-path="url(#clip0_6884_239335)">
<rect x="872.889" y="608.351" width="35.1198" height="21.3333" rx="10.6667" fill="#ADAAB4"/>
<g filter="url(#filter6_d_6884_239335)">
<rect x="874.622" y="610.129" width="17.3333" height="17.7778" rx="8.66667" fill="white"/>
</g>
</g>
<rect x="708.889" y="594.573" width="214.222" height="48.8889" rx="6.66667" stroke="#B5AAC8" stroke-width="0.888889"/>
<path d="M1212 692.219C1246.13 688.663 1256.74 729.256 1257.78 749.996H1061.33C1096.44 700.663 1134.22 729.552 1155.11 732.663C1176 735.774 1169.33 696.663 1212 692.219Z" fill="#515071"/>
<rect x="408.889" y="664.352" width="85.3333" height="85.3333" rx="17.0667" fill="#646073"/>
<path d="M451.556 678.574H455.822C459.75 678.574 462.933 681.757 462.933 685.685C462.933 689.612 459.75 692.796 455.822 692.796H451.556V678.574Z" fill="#DD9EE1"/>
<path fill-rule="evenodd" clip-rule="evenodd" d="M425.956 664.352C416.53 664.352 408.889 671.993 408.889 681.418V707.018H423.111V702.752C423.111 698.824 426.295 695.64 430.222 695.64C434.15 695.64 437.333 698.824 437.333 702.752V707.018H451.556V664.352H425.956Z" fill="#DD9EE1"/>
<path fill-rule="evenodd" clip-rule="evenodd" d="M451.556 707.018H465.778V711.285C465.778 715.212 468.962 718.396 472.89 718.396C476.817 718.396 480.001 715.212 480.001 711.285V707.018H494.223V732.618C494.223 742.044 486.582 749.685 477.156 749.685H451.556V735.463H447.29C443.362 735.463 440.178 732.279 440.178 728.352C440.178 724.424 443.362 721.24 447.29 721.24H451.556V707.018Z" fill="#AF9EFF"/>
<path d="M1280 748.893H390.667H353.778M243.556 748.893H316" stroke="#6C6992" stroke-width="1.77778" stroke-linecap="round"/>
<rect x="1192.89" y="669.777" width="78.2222" height="78.2222" rx="21.3333" fill="#5F5D67"/>
<path d="M1230.2 687.555C1229.48 687.555 1228.86 688.055 1228.71 688.755L1227.81 692.874C1227.69 693.421 1227.28 693.853 1226.75 694.039C1226.22 694.225 1225.71 694.439 1225.21 694.679C1224.7 694.92 1224.1 694.906 1223.63 694.603L1220.1 692.33C1219.49 691.943 1218.7 692.028 1218.2 692.535L1215.65 695.084C1215.14 695.59 1215.05 696.382 1215.44 696.985L1217.71 700.52C1218.02 700.992 1218.03 701.588 1217.79 702.094C1217.55 702.596 1217.34 703.113 1217.15 703.642C1216.96 704.17 1216.53 704.582 1215.99 704.7L1211.87 705.596C1211.17 705.748 1210.67 706.368 1210.67 707.085V710.692C1210.67 711.409 1211.17 712.029 1211.87 712.181L1215.99 713.077C1216.53 713.195 1216.96 713.607 1217.15 714.135C1217.34 714.664 1217.55 715.181 1217.79 715.683C1218.03 716.189 1218.02 716.785 1217.71 717.257L1215.44 720.792C1215.05 721.395 1215.14 722.187 1215.65 722.694L1218.2 725.242C1218.7 725.749 1219.49 725.834 1220.1 725.447L1223.63 723.174C1224.1 722.871 1224.7 722.857 1225.21 723.098C1225.71 723.338 1226.22 723.552 1226.75 723.738C1227.28 723.924 1227.69 724.356 1227.81 724.903L1228.71 729.022C1228.86 729.722 1229.48 730.222 1230.2 730.222H1233.8C1234.52 730.222 1235.14 729.722 1235.29 729.022L1236.19 724.903C1236.31 724.356 1236.72 723.924 1237.25 723.738C1237.78 723.552 1238.29 723.338 1238.79 723.098C1239.3 722.857 1239.9 722.871 1240.37 723.174L1243.9 725.447C1244.51 725.834 1245.3 725.749 1245.81 725.242L1248.35 722.694C1248.86 722.187 1248.95 721.395 1248.56 720.792L1246.29 717.257C1245.98 716.785 1245.97 716.189 1246.21 715.683C1246.45 715.181 1246.66 714.664 1246.85 714.135C1247.04 713.607 1247.47 713.195 1248.01 713.077L1252.13 712.181C1252.83 712.029 1253.33 711.409 1253.33 710.692V707.085C1253.33 706.368 1252.83 705.748 1252.13 705.596L1248.01 704.7C1247.47 704.582 1247.04 704.17 1246.85 703.642C1246.66 703.113 1246.45 702.596 1246.21 702.094C1245.97 701.588 1245.98 700.992 1246.29 700.52L1248.56 696.985C1248.95 696.382 1248.86 695.59 1248.35 695.084L1245.81 692.535C1245.3 692.028 1244.51 691.943 1243.9 692.33L1240.37 694.603C1239.9 694.906 1239.3 694.92 1238.79 694.679C1238.29 694.439 1237.78 694.225 1237.25 694.039C1236.72 693.853 1236.31 693.421 1236.19 692.874L1235.29 688.755C1235.14 688.055 1234.52 687.555 1233.8 687.555H1230.2ZM1232 699.746C1237.05 699.746 1241.14 703.839 1241.14 708.889C1241.14 713.938 1237.05 718.031 1232 718.031C1226.95 718.031 1222.86 713.938 1222.86 708.889C1222.86 703.839 1226.95 699.746 1232 699.746Z" fill="#AF9EFF"/>
<path d="M602.886 691.116C576.529 691.495 565.091 729.196 562.667 748H792C781.731 737.729 756.83 720.126 739.373 731.882C717.552 746.578 719.692 726.194 690.597 711.499C661.502 696.804 660.219 726.194 647.811 726.194C635.403 726.194 635.831 690.642 602.886 691.116Z" fill="url(#paint10_linear_6884_239335)"/>
<g filter="url(#filter7_b_6884_239335)">
<rect x="931.556" y="197.241" width="92.4444" height="92.4444" rx="23.1111" fill="#191C1D"/>
<rect x="931.556" y="197.241" width="92.4444" height="92.4444" rx="23.1111" fill="#C4C7C7" fill-opacity="0.02"/>
<rect x="931.556" y="197.241" width="92.4444" height="92.4444" rx="23.1111" fill="#CABEFF" fill-opacity="0.16"/>
</g>
<path fill-rule="evenodd" clip-rule="evenodd" d="M987.757 236.593C987.521 236.58 987.284 236.578 987.044 236.578C978.525 236.578 971.614 242.367 971.614 249.512C971.614 250.681 971.805 251.814 972.152 252.892C971.775 252.911 971.396 252.926 971.014 252.926C969.142 252.926 967.337 252.672 965.654 252.204C965.558 252.175 965.366 252.121 965.366 252.121L959.242 255.24L960.879 250.113C960.879 250.113 960.775 250.048 960.723 250.015C956.681 247.426 954.074 243.348 954.074 238.76C954.074 230.935 961.658 224.592 971.014 224.592C979.488 224.592 986.51 229.795 987.757 236.593ZM965.117 236.184C963.804 236.184 962.739 235.151 962.739 233.88C962.739 232.608 963.804 231.578 965.117 231.578C966.431 231.578 967.499 232.608 967.499 233.88C967.499 235.151 966.431 236.184 965.117 236.184ZM976.909 231.578C978.223 231.578 979.287 232.608 979.287 233.88C979.287 235.151 978.223 236.184 976.909 236.184C975.594 236.184 974.532 235.151 974.532 233.88C974.532 232.608 975.594 231.578 976.909 231.578Z" fill="#58C457"/>
<path fill-rule="evenodd" clip-rule="evenodd" d="M987.173 261.566C979.268 261.566 972.858 256.207 972.858 249.596C972.858 242.987 979.268 237.628 987.173 237.628C995.074 237.628 1001.48 242.987 1001.48 249.596C1001.48 253.474 999.278 256.919 995.864 259.105L995.732 259.187L997.115 263.52L991.944 260.883C991.944 260.883 991.781 260.932 991.699 260.953C990.279 261.35 988.754 261.566 987.173 261.566ZM980.182 245.472C980.182 244.4 981.084 243.529 982.192 243.529C983.304 243.529 984.204 244.4 984.204 245.472C984.204 246.549 983.304 247.422 982.192 247.422C981.084 247.422 980.182 246.549 980.182 245.472ZM990.14 245.472C990.14 244.4 991.038 243.529 992.148 243.529C993.26 243.529 994.158 244.4 994.158 245.472C994.158 246.549 993.26 247.422 992.148 247.422C991.038 247.422 990.14 246.549 990.14 245.472Z" fill="#58C457"/>
<path d="M1112 273.4C1104.63 273.4 1101.14 266.727 1101.14 260.889C1101.14 266.727 1098.04 273.4 1090.67 273.4C1098.04 273.4 1101.14 277.515 1101.14 287.301C1101.14 277.515 1104.63 273.4 1112 273.4Z" fill="#AF9EFF"/>
<path d="M893.333 365.309C882.279 365.309 877.042 355.129 877.042 346.222C877.042 355.129 872.388 365.309 861.333 365.309C872.388 365.309 877.042 371.587 877.042 386.518C877.042 371.587 882.279 365.309 893.333 365.309Z" fill="#ADAAB4"/>
<rect y="748.893" width="1280" height="74.6667" fill="url(#paint11_linear_6884_239335)"/>
<path d="M720 764.893H618.53H610.634M581.333 764.893H602.548" stroke="#53506B" stroke-width="1.77778" stroke-linecap="round"/>
<path d="M1144 796.893H944.752H936.856M907.556 796.893H928.77" stroke="#736F96" stroke-width="1.77778" stroke-linecap="round"/>
<defs>
<filter id="filter0_b_6884_239335" x="726.222" y="238.574" width="376.889" height="376.889" filterUnits="userSpaceOnUse" color-interpolation-filters="sRGB">
<feFlood flood-opacity="0" result="BackgroundImageFix"/>
<feGaussianBlur in="BackgroundImage" stdDeviation="5.33333"/>
<feComposite in2="SourceAlpha" operator="in" result="effect1_backgroundBlur_6884_239335"/>
<feBlend mode="normal" in="SourceGraphic" in2="effect1_backgroundBlur_6884_239335" result="shape"/>
</filter>
<filter id="filter1_d_6884_239335" x="621.444" y="553.685" width="2.88889" height="2.88873" filterUnits="userSpaceOnUse" color-interpolation-filters="sRGB">
<feFlood flood-opacity="0" result="BackgroundImageFix"/>
<feColorMatrix in="SourceAlpha" type="matrix" values="0 0 0 0 0 0 0 0 0 0 0 0 0 0 0 0 0 0 127 0" result="hardAlpha"/>
<feOffset dy="0.111111"/>
<feGaussianBlur stdDeviation="0.0555556"/>
<feComposite in2="hardAlpha" operator="out"/>
<feColorMatrix type="matrix" values="0 0 0 0 0.104304 0 0 0 0 0.0825 0 0 0 0 0.2 0 0 0 0.02 0"/>
<feBlend mode="normal" in2="BackgroundImageFix" result="effect1_dropShadow_6884_239335"/>
<feBlend mode="normal" in="SourceGraphic" in2="effect1_dropShadow_6884_239335" result="shape"/>
</filter>
<filter id="filter2_d_6884_239335" x="621.778" y="554.463" width="1.99999" height="4.33344" filterUnits="userSpaceOnUse" color-interpolation-filters="sRGB">
<feFlood flood-opacity="0" result="BackgroundImageFix"/>
<feColorMatrix in="SourceAlpha" type="matrix" values="0 0 0 0 0 0 0 0 0 0 0 0 0 0 0 0 0 0 127 0" result="hardAlpha"/>
<feOffset dx="-0.111111" dy="0.444444"/>
<feGaussianBlur stdDeviation="0.166667"/>
<feComposite in2="hardAlpha" operator="out"/>
<feColorMatrix type="matrix" values="0 0 0 0 0.104304 0 0 0 0 0.0825 0 0 0 0 0.2 0 0 0 0.08 0"/>
<feBlend mode="normal" in2="BackgroundImageFix" result="effect1_dropShadow_6884_239335"/>
<feBlend mode="normal" in="SourceGraphic" in2="effect1_dropShadow_6884_239335" result="shape"/>
</filter>
<filter id="filter3_b_6884_239335" x="1011.56" y="308.796" width="241.778" height="455.111" filterUnits="userSpaceOnUse" color-interpolation-filters="sRGB">
<feFlood flood-opacity="0" result="BackgroundImageFix"/>
<feGaussianBlur in="BackgroundImage" stdDeviation="7.11111"/>
<feComposite in2="SourceAlpha" operator="in" result="effect1_backgroundBlur_6884_239335"/>
<feBlend mode="normal" in="SourceGraphic" in2="effect1_backgroundBlur_6884_239335" result="shape"/>
</filter>
<filter id="filter4_d_6884_239335" x="1132.58" y="393.352" width="3.61109" height="3.61127" filterUnits="userSpaceOnUse" color-interpolation-filters="sRGB">
<feFlood flood-opacity="0" result="BackgroundImageFix"/>
<feColorMatrix in="SourceAlpha" type="matrix" values="0 0 0 0 0 0 0 0 0 0 0 0 0 0 0 0 0 0 127 0" result="hardAlpha"/>
<feOffset dy="0.138889"/>
<feGaussianBlur stdDeviation="0.0694444"/>
<feComposite in2="hardAlpha" operator="out"/>
<feColorMatrix type="matrix" values="0 0 0 0 0.104304 0 0 0 0 0.0825 0 0 0 0 0.2 0 0 0 0.02 0"/>
<feBlend mode="normal" in2="BackgroundImageFix" result="effect1_dropShadow_6884_239335"/>
<feBlend mode="normal" in="SourceGraphic" in2="effect1_dropShadow_6884_239335" result="shape"/>
</filter>
<filter id="filter5_d_6884_239335" x="1133" y="394.324" width="2.50002" height="5.41656" filterUnits="userSpaceOnUse" color-interpolation-filters="sRGB">
<feFlood flood-opacity="0" result="BackgroundImageFix"/>
<feColorMatrix in="SourceAlpha" type="matrix" values="0 0 0 0 0 0 0 0 0 0 0 0 0 0 0 0 0 0 127 0" result="hardAlpha"/>
<feOffset dx="-0.138889" dy="0.555556"/>
<feGaussianBlur stdDeviation="0.208333"/>
<feComposite in2="hardAlpha" operator="out"/>
<feColorMatrix type="matrix" values="0 0 0 0 0.104304 0 0 0 0 0.0825 0 0 0 0 0.2 0 0 0 0.08 0"/>
<feBlend mode="normal" in2="BackgroundImageFix" result="effect1_dropShadow_6884_239335"/>
<feBlend mode="normal" in="SourceGraphic" in2="effect1_dropShadow_6884_239335" result="shape"/>
</filter>
<filter id="filter6_d_6884_239335" x="868.4" y="606.573" width="29.7778" height="30.2223" filterUnits="userSpaceOnUse" color-interpolation-filters="sRGB">
<feFlood flood-opacity="0" result="BackgroundImageFix"/>
<feColorMatrix in="SourceAlpha" type="matrix" values="0 0 0 0 0 0 0 0 0 0 0 0 0 0 0 0 0 0 127 0" result="hardAlpha"/>
<feOffset dy="2.66667"/>
<feGaussianBlur stdDeviation="3.11111"/>
<feColorMatrix type="matrix" values="0 0 0 0 0 0 0 0 0 0 0 0 0 0 0 0 0 0 0.12 0"/>
<feBlend mode="normal" in2="BackgroundImageFix" result="effect1_dropShadow_6884_239335"/>
<feBlend mode="normal" in="SourceGraphic" in2="effect1_dropShadow_6884_239335" result="shape"/>
</filter>
<filter id="filter7_b_6884_239335" x="928.667" y="194.352" width="98.2222" height="98.2221" filterUnits="userSpaceOnUse" color-interpolation-filters="sRGB">
<feFlood flood-opacity="0" result="BackgroundImageFix"/>
<feGaussianBlur in="BackgroundImage" stdDeviation="1.44444"/>
<feComposite in2="SourceAlpha" operator="in" result="effect1_backgroundBlur_6884_239335"/>
<feBlend mode="normal" in="SourceGraphic" in2="effect1_backgroundBlur_6884_239335" result="shape"/>
</filter>
<linearGradient id="paint0_linear_6884_239335" x1="1266.22" y1="627.906" x2="200.443" y2="722.573" gradientUnits="userSpaceOnUse">
<stop stop-color="#323145"/>
<stop offset="0.786458" stop-color="#44445B" stop-opacity="0.649583"/>
<stop offset="1" stop-color="#363541" stop-opacity="0"/>
</linearGradient>
<linearGradient id="paint1_linear_6884_239335" x1="962.667" y1="233.685" x2="828" y2="491.907" gradientUnits="userSpaceOnUse">
<stop stop-color="#3C3D52"/>
<stop offset="1" stop-color="#2A2C32"/>
</linearGradient>
<linearGradient id="paint2_linear_6884_239335" x1="611.389" y1="555.797" x2="632.07" y2="549.181" gradientUnits="userSpaceOnUse">
<stop stop-color="#FFF06A"/>
<stop offset="1" stop-color="#EC78FF"/>
</linearGradient>
<linearGradient id="paint3_linear_6884_239335" x1="609.611" y1="556.963" x2="627.667" y2="553.074" gradientUnits="userSpaceOnUse">
<stop stop-color="#492EF3"/>
<stop offset="1" stop-color="#CF69FF"/>
</linearGradient>
<linearGradient id="paint4_linear_6884_239335" x1="622.889" y1="553.685" x2="622.333" y2="556.352" gradientUnits="userSpaceOnUse">
<stop stop-color="#E1BFFF"/>
<stop offset="1" stop-color="#AF68EE"/>
</linearGradient>
<linearGradient id="paint5_linear_6884_239335" x1="622.889" y1="554.463" x2="621.314" y2="557.298" gradientUnits="userSpaceOnUse">
<stop stop-color="#F8F2FF"/>
<stop offset="1" stop-color="#D185F5"/>
</linearGradient>
<linearGradient id="paint6_linear_6884_239335" x1="1120.01" y1="395.991" x2="1145.86" y2="387.72" gradientUnits="userSpaceOnUse">
<stop stop-color="#FFF06A"/>
<stop offset="1" stop-color="#EC78FF"/>
</linearGradient>
<linearGradient id="paint7_linear_6884_239335" x1="1117.79" y1="397.449" x2="1140.36" y2="392.588" gradientUnits="userSpaceOnUse">
<stop stop-color="#492EF3"/>
<stop offset="1" stop-color="#CF69FF"/>
</linearGradient>
<linearGradient id="paint8_linear_6884_239335" x1="1134.39" y1="393.352" x2="1133.69" y2="396.685" gradientUnits="userSpaceOnUse">
<stop stop-color="#E1BFFF"/>
<stop offset="1" stop-color="#AF68EE"/>
</linearGradient>
<linearGradient id="paint9_linear_6884_239335" x1="1134.39" y1="394.324" x2="1132.42" y2="397.868" gradientUnits="userSpaceOnUse">
<stop stop-color="#F8F2FF"/>
<stop offset="1" stop-color="#D185F5"/>
</linearGradient>
<linearGradient id="paint10_linear_6884_239335" x1="627.274" y1="719.558" x2="810.874" y2="739.304" gradientUnits="userSpaceOnUse">
<stop stop-color="#8A85AB"/>
<stop offset="1" stop-color="#ADA6D9" stop-opacity="0.92"/>
</linearGradient>
<linearGradient id="paint11_linear_6884_239335" x1="957.778" y1="748.894" x2="56.6514" y2="766.167" gradientUnits="userSpaceOnUse">
<stop stop-color="#5E597A"/>
<stop offset="1" stop-color="#353746" stop-opacity="0"/>
</linearGradient>
<clipPath id="clip0_6884_239335">
<path d="M872.889 619.018C872.889 613.127 877.665 608.351 883.556 608.351H896.889C902.78 608.351 907.556 613.127 907.556 619.018C907.556 624.909 902.78 629.684 896.889 629.684H883.556C877.665 629.684 872.889 624.909 872.889 619.018Z" fill="white"/>
</clipPath>
</defs>
</svg>
