<svg width="1280" height="824" viewBox="0 0 1280 824" fill="none" xmlns="http://www.w3.org/2000/svg">
<g clip-path="url(#clip0_6884_239332)">
<path d="M1046.67 399.556H1280V777.333M764.444 571.556H422.619C410.02 571.556 398.399 578.352 392.222 589.333V589.333C386.045 600.315 374.425 607.111 361.825 607.111H270.218C258.071 607.111 246.796 613.423 240.444 623.778V623.778C234.093 634.133 222.818 640.445 210.67 640.445H151.219C90.8233 640.445 37.1213 678.874 17.6332 736.039L3.55554 777.333" stroke="url(#paint0_linear_6884_239332)" stroke-width="0.888889" stroke-linecap="round"/>
<path d="M1181.11 434.223L1187.86 422.927C1207.25 390.513 1242.23 370.667 1280 370.667V768.445H144.889L193.751 707.96C220.752 674.536 261.416 655.111 304.383 655.111H502.622C533.512 655.111 563.562 645.048 588.222 626.445C612.883 607.841 642.932 597.778 673.822 597.778H829.683C868.562 597.778 905.099 579.197 928 547.778C950.901 516.36 987.438 497.778 1026.32 497.778H1069.06C1114.99 497.778 1157.54 473.643 1181.11 434.223Z" fill="url(#paint1_linear_6884_239332)"/>
<g filter="url(#filter0_b_6884_239332)">
<path fill-rule="evenodd" clip-rule="evenodd" d="M914.667 624C1012.85 624 1092.44 544.406 1092.44 446.222C1092.44 400.655 1075.3 359.091 1047.11 327.63C1014.56 291.303 967.283 268.444 914.667 268.444C816.483 268.444 736.889 348.038 736.889 446.222C736.889 544.406 816.483 624 914.667 624ZM914.667 535.111C963.759 535.111 1003.56 495.314 1003.56 446.222C1003.56 397.13 963.759 357.333 914.667 357.333C865.575 357.333 825.778 397.13 825.778 446.222C825.778 495.314 865.575 535.111 914.667 535.111Z" fill="url(#paint2_linear_6884_239332)" fill-opacity="0.32"/>
<path d="M1047.11 327.63L1047.44 327.334L1047.11 327.63ZM1092 446.222C1092 544.161 1012.61 623.555 914.667 623.555V624.444C1013.1 624.444 1092.89 544.652 1092.89 446.222H1092ZM1046.78 327.927C1074.9 359.31 1092 400.768 1092 446.222H1092.89C1092.89 400.541 1075.7 358.873 1047.44 327.334L1046.78 327.927ZM914.667 268.889C967.152 268.889 1014.31 291.689 1046.78 327.927L1047.44 327.334C1014.81 290.916 967.415 268 914.667 268V268.889ZM737.333 446.222C737.333 348.284 816.728 268.889 914.667 268.889V268C816.237 268 736.444 347.793 736.444 446.222H737.333ZM914.667 623.555C816.728 623.555 737.333 544.161 737.333 446.222H736.444C736.444 544.652 816.237 624.444 914.667 624.444V623.555ZM1003.11 446.222C1003.11 495.069 963.513 534.667 914.667 534.667V535.556C964.004 535.556 1004 495.56 1004 446.222H1003.11ZM914.667 357.778C963.513 357.778 1003.11 397.376 1003.11 446.222H1004C1004 396.885 964.004 356.889 914.667 356.889V357.778ZM826.222 446.222C826.222 397.376 865.82 357.778 914.667 357.778V356.889C865.329 356.889 825.333 396.885 825.333 446.222H826.222ZM914.667 534.667C865.82 534.667 826.222 495.069 826.222 446.222H825.333C825.333 495.56 865.329 535.556 914.667 535.556V534.667Z" fill="#C0BFDB" fill-opacity="0.16"/>
</g>
<rect x="461.333" y="528.889" width="320" height="240" rx="28.4444" fill="#8C82A0"/>
<path d="M610.889 564.889C610.889 563.907 611.685 563.111 612.667 563.111H630C630.982 563.111 631.778 563.907 631.778 564.889V583.556C631.778 584.538 630.982 585.334 630 585.334H612.667C611.685 585.334 610.889 584.538 610.889 583.556V564.889Z" fill="url(#paint3_linear_6884_239332)"/>
<path d="M610.889 564.653C610.889 563.768 611.539 563.018 612.415 562.893L624.415 561.179C625.486 561.026 626.444 561.857 626.444 562.938V585.506C626.444 586.587 625.486 587.418 624.415 587.265L612.415 585.551C611.539 585.426 610.889 584.676 610.889 583.791V564.653Z" fill="url(#paint4_linear_6884_239332)"/>
<g filter="url(#filter1_d_6884_239332)">
<circle cx="622.889" cy="574.222" r="1.33333" fill="url(#paint5_linear_6884_239332)"/>
</g>
<g filter="url(#filter2_d_6884_239332)">
<rect x="622.222" y="573.667" width="1.33333" height="3.55556" rx="0.666667" fill="url(#paint6_linear_6884_239332)"/>
</g>
<rect x="564.444" y="599.111" width="113.778" height="7.11111" rx="3.55556" fill="#7C7191"/>
<rect x="541.778" y="624.444" width="159.111" height="20.4444" rx="3.11111" fill="#BEB3D2" stroke="#CEC6DE" stroke-width="0.888889"/>
<circle cx="592.889" cy="634.667" r="5.33333" fill="#937BC7"/>
<rect x="601.778" y="632" width="64" height="5.33333" rx="1.77778" fill="#A292BB"/>
<rect x="541.778" y="652.889" width="159.111" height="20.4444" rx="3.11111" fill="#BEB3D2" stroke="#CEC6DE" stroke-width="0.888889"/>
<circle cx="592.889" cy="663.111" r="5.33333" fill="#937BC7"/>
<rect x="601.778" y="660.444" width="46.2222" height="5.33333" rx="1.77778" fill="#A292BB"/>
<rect x="541.778" y="681.334" width="159.111" height="20.4444" rx="3.11111" fill="#BEB3D2" stroke="#CEC6DE" stroke-width="0.888889"/>
<circle cx="592.889" cy="691.555" r="5.33333" fill="#937BC7"/>
<rect x="601.778" y="688.889" width="53.3333" height="5.33333" rx="1.77778" fill="#A292BB"/>
<path opacity="0.04" d="M461.333 557.334C461.333 541.624 474.068 528.889 489.778 528.889H656.889L541.333 768.889H489.778C474.068 768.889 461.333 756.154 461.333 740.445V557.334Z" fill="#F8F4FF"/>
<g filter="url(#filter3_b_6884_239332)">
<rect x="1025.78" y="342.222" width="213.333" height="426.667" rx="28.4444" fill="#F6F1FF" fill-opacity="0.8"/>
<rect x="1025.78" y="342.222" width="213.333" height="426.667" rx="28.4444" fill="url(#paint7_linear_6884_239332)" fill-opacity="0.2"/>
</g>
<path d="M1068.44 607.123H1120V607.656H1068.44V607.123Z" fill="#CABEFF"/>
<path d="M1130.26 610.988C1131.86 610.988 1132.85 609.884 1132.85 608.087V608.077C1132.85 606.275 1131.86 605.176 1130.26 605.176C1128.66 605.176 1127.67 606.275 1127.67 608.077V608.087C1127.67 609.884 1128.66 610.988 1130.26 610.988ZM1130.26 610.186C1129.2 610.186 1128.6 609.41 1128.6 608.087V608.077C1128.6 606.749 1129.2 605.978 1130.26 605.978C1131.32 605.978 1131.92 606.749 1131.92 608.077V608.087C1131.92 609.41 1131.32 610.186 1130.26 610.186ZM1134.26 610.889H1135.16V607.41C1135.16 606.587 1135.78 606.04 1136.64 606.04C1136.84 606.04 1137.01 606.061 1137.2 606.092V605.212C1137.11 605.196 1136.92 605.176 1136.75 605.176C1135.99 605.176 1135.46 605.519 1135.25 606.108H1135.16V605.275H1134.26V610.889Z" fill="#716AC0"/>
<path d="M1145.22 607.123H1196.78V607.656H1145.22V607.123Z" fill="#CABEFF"/>
<circle cx="1082.83" cy="638.778" r="10.6667" fill="#CABEFF"/>
<circle cx="1132.61" cy="638.778" r="10.6667" fill="#CABEFF"/>
<circle cx="1182.39" cy="638.778" r="10.6667" fill="#CABEFF"/>
<path d="M1082.67 537.778H1134.86M1194.67 537.778H1169.81M1145.9 537.778H1153.87" stroke="#CABEFF" stroke-width="1.77778" stroke-linecap="round"/>
<circle cx="1072.89" cy="537.778" r="2.66667" stroke="#AF9EFF" stroke-width="1.77778" stroke-linecap="round"/>
<path d="M1157.33 414.222C1157.33 427.968 1146.19 439.111 1132.44 439.111C1118.7 439.111 1107.56 427.968 1107.56 414.222C1107.56 400.477 1118.7 389.333 1132.44 389.333C1146.19 389.333 1157.33 400.477 1157.33 414.222Z" fill="#F5EEFF"/>
<path d="M1119.39 402.555C1119.39 401.328 1120.38 400.333 1121.61 400.333H1143.28C1144.51 400.333 1145.5 401.328 1145.5 402.555V425.889C1145.5 427.116 1144.51 428.111 1143.28 428.111H1121.61C1120.38 428.111 1119.39 427.116 1119.39 425.889V402.555Z" fill="url(#paint8_linear_6884_239332)"/>
<path d="M1119.39 402.261C1119.39 401.155 1120.2 400.217 1121.3 400.061L1136.3 397.918C1137.64 397.727 1138.83 398.766 1138.83 400.118V428.327C1138.83 429.679 1137.64 430.718 1136.3 430.527L1121.3 428.384C1120.2 428.227 1119.39 427.29 1119.39 426.184V402.261Z" fill="url(#paint9_linear_6884_239332)"/>
<g filter="url(#filter4_d_6884_239332)">
<circle cx="1134.39" cy="414.222" r="1.66667" fill="url(#paint10_linear_6884_239332)"/>
</g>
<g filter="url(#filter5_d_6884_239332)">
<rect x="1133.56" y="413.528" width="1.66667" height="4.44444" rx="0.833333" fill="url(#paint11_linear_6884_239332)"/>
</g>
<path d="M1089.78 446.222H1149.97M1175.11 446.222H1161.02" stroke="#CABEFF" stroke-width="1.77778" stroke-linecap="round"/>
<rect x="1052.44" y="551.111" width="160" height="32" rx="7.11111" fill="#7958FF"/>
<path d="M1114.21 571.399C1115.81 571.399 1116.99 570.509 1117.24 569.134V569.123H1116.3L1116.28 569.134C1116.05 569.998 1115.25 570.535 1114.21 570.535C1112.76 570.535 1111.85 569.352 1111.85 567.472V567.462C1111.85 565.582 1112.76 564.394 1114.2 564.394C1115.24 564.394 1116.04 565.003 1116.29 565.967L1116.3 565.977H1117.24L1117.24 565.967C1117.02 564.524 1115.78 563.529 1114.2 563.529C1112.16 563.529 1110.89 565.04 1110.89 567.462V567.472C1110.89 569.889 1112.16 571.399 1114.21 571.399ZM1121.01 571.321C1122.61 571.321 1123.6 570.217 1123.6 568.42V568.41C1123.6 566.608 1122.61 565.509 1121.01 565.509C1119.41 565.509 1118.42 566.608 1118.42 568.41V568.42C1118.42 570.217 1119.41 571.321 1121.01 571.321ZM1121.01 570.519C1119.95 570.519 1119.35 569.743 1119.35 568.42V568.41C1119.35 567.082 1119.95 566.311 1121.01 566.311C1122.07 566.311 1122.67 567.082 1122.67 568.41V568.42C1122.67 569.743 1122.07 570.519 1121.01 570.519ZM1125 571.222H1125.91V567.899C1125.91 566.915 1126.48 566.311 1127.37 566.311C1128.27 566.311 1128.69 566.795 1128.69 567.806V571.222H1129.59V567.587C1129.59 566.253 1128.89 565.509 1127.63 565.509C1126.8 565.509 1126.27 565.858 1125.99 566.451H1125.91V565.608H1125V571.222ZM1133.23 571.264C1133.4 571.264 1133.58 571.243 1133.75 571.212V570.441C1133.59 570.457 1133.5 570.462 1133.34 570.462C1132.75 570.462 1132.52 570.196 1132.52 569.535V566.358H1133.75V565.608H1132.52V564.154H1131.59V565.608H1130.7V566.358H1131.59V569.764C1131.59 570.837 1132.07 571.264 1133.23 571.264ZM1135.59 564.524C1135.93 564.524 1136.21 564.243 1136.21 563.899C1136.21 563.556 1135.93 563.274 1135.59 563.274C1135.24 563.274 1134.96 563.556 1134.96 563.899C1134.96 564.243 1135.24 564.524 1135.59 564.524ZM1135.13 571.222H1136.03V565.608H1135.13V571.222ZM1137.74 571.222H1138.65V567.899C1138.65 566.915 1139.22 566.311 1140.11 566.311C1141.01 566.311 1141.43 566.795 1141.43 567.806V571.222H1142.33V567.587C1142.33 566.253 1141.63 565.509 1140.37 565.509C1139.54 565.509 1139.01 565.858 1138.73 566.451H1138.65V565.608H1137.74V571.222ZM1145.85 571.321C1146.68 571.321 1147.24 570.983 1147.52 570.384H1147.6V571.222H1148.51V565.608H1147.6V568.931C1147.6 569.915 1147.08 570.519 1146.09 570.519C1145.19 570.519 1144.83 570.035 1144.83 569.024V565.608H1143.92V569.243C1143.92 570.571 1144.58 571.321 1145.85 571.321ZM1152.49 571.321C1153.82 571.321 1154.62 570.571 1154.81 569.811L1154.82 569.769H1153.91L1153.89 569.816C1153.74 570.154 1153.27 570.514 1152.51 570.514C1151.51 570.514 1150.87 569.837 1150.85 568.675H1154.89V568.321C1154.89 566.644 1153.96 565.509 1152.44 565.509C1150.91 565.509 1149.92 566.696 1149.92 568.431V568.436C1149.92 570.196 1150.89 571.321 1152.49 571.321ZM1152.43 566.316C1153.26 566.316 1153.87 566.842 1153.97 567.951H1150.86C1150.96 566.884 1151.6 566.316 1152.43 566.316Z" fill="white"/>
<g style="mix-blend-mode:multiply">
<path d="M1104 342.222H1160.89V349.333C1160.89 355.224 1156.11 360 1150.22 360H1114.67C1108.78 360 1104 355.224 1104 349.333V342.222Z" fill="#AF9EFF"/>
</g>
<rect x="1052.44" y="471.111" width="160" height="32" rx="7.11111" fill="#FBF9FF"/>
<path d="M1079.95 491.222H1080.86V487.743C1080.86 486.951 1081.42 486.311 1082.15 486.311C1082.86 486.311 1083.32 486.743 1083.32 487.41V491.222H1084.23V487.613C1084.23 486.899 1084.74 486.311 1085.52 486.311C1086.31 486.311 1086.69 486.722 1086.69 487.55V491.222H1087.6V487.342C1087.6 486.165 1086.96 485.509 1085.81 485.509C1085.04 485.509 1084.4 485.899 1084.1 486.493H1084.01C1083.75 485.91 1083.22 485.509 1082.46 485.509C1081.73 485.509 1081.19 485.858 1080.94 486.462H1080.86V485.608H1079.95V491.222ZM1091.55 493.201C1093.08 493.201 1094.05 492.399 1094.05 491.144V485.608H1093.14V486.535H1093.08C1092.74 485.899 1092.12 485.509 1091.33 485.509C1089.86 485.509 1088.95 486.649 1088.95 488.222V488.233C1088.95 489.806 1089.86 490.931 1091.31 490.931C1092.08 490.931 1092.72 490.582 1093.07 489.962H1093.15V491.097C1093.15 491.925 1092.55 492.399 1091.55 492.399C1090.74 492.399 1090.24 492.097 1090.14 491.67L1090.14 491.665H1089.2L1089.19 491.67C1089.33 492.592 1090.19 493.201 1091.55 493.201ZM1091.51 490.128C1090.47 490.128 1089.88 489.347 1089.88 488.233V488.222C1089.88 487.108 1090.47 486.311 1091.51 486.311C1092.54 486.311 1093.17 487.108 1093.17 488.222V488.233C1093.17 489.347 1092.55 490.128 1091.51 490.128ZM1098.03 491.321C1099.35 491.321 1100.15 490.571 1100.35 489.811L1100.36 489.769H1099.45L1099.43 489.816C1099.28 490.154 1098.81 490.514 1098.05 490.514C1097.05 490.514 1096.41 489.837 1096.38 488.675H1100.42V488.321C1100.42 486.644 1099.5 485.509 1097.97 485.509C1096.44 485.509 1095.45 486.696 1095.45 488.431V488.436C1095.45 490.196 1096.42 491.321 1098.03 491.321ZM1097.97 486.316C1098.79 486.316 1099.41 486.842 1099.5 487.951H1096.4C1096.5 486.884 1097.13 486.316 1097.97 486.316ZM1104.14 491.321C1105.74 491.321 1106.73 490.217 1106.73 488.42V488.41C1106.73 486.608 1105.74 485.509 1104.14 485.509C1102.54 485.509 1101.55 486.608 1101.55 488.41V488.42C1101.55 490.217 1102.54 491.321 1104.14 491.321ZM1104.14 490.519C1103.07 490.519 1102.48 489.743 1102.48 488.42V488.41C1102.48 487.082 1103.07 486.311 1104.14 486.311C1105.2 486.311 1105.8 487.082 1105.8 488.41V488.42C1105.8 489.743 1105.2 490.519 1104.14 490.519ZM1108.13 491.222H1109.04V487.743C1109.04 486.92 1109.65 486.373 1110.52 486.373C1110.72 486.373 1110.89 486.394 1111.07 486.425V485.545C1110.99 485.529 1110.79 485.509 1110.62 485.509C1109.86 485.509 1109.34 485.852 1109.12 486.441H1109.04V485.608H1108.13V491.222ZM1114.35 493.201C1115.88 493.201 1116.85 492.399 1116.85 491.144V485.608H1115.94V486.535H1115.88C1115.54 485.899 1114.92 485.509 1114.13 485.509C1112.66 485.509 1111.76 486.649 1111.76 488.222V488.233C1111.76 489.806 1112.66 490.931 1114.11 490.931C1114.88 490.931 1115.52 490.582 1115.87 489.962H1115.95V491.097C1115.95 491.925 1115.36 492.399 1114.35 492.399C1113.54 492.399 1113.04 492.097 1112.94 491.67L1112.94 491.665H1112L1111.99 491.67C1112.13 492.592 1113 493.201 1114.35 493.201ZM1114.31 490.128C1113.27 490.128 1112.68 489.347 1112.68 488.233V488.222C1112.68 487.108 1113.27 486.311 1114.31 486.311C1115.35 486.311 1115.98 487.108 1115.98 488.222V488.233C1115.98 489.347 1115.35 490.128 1114.31 490.128ZM1120.83 491.321C1122.15 491.321 1122.95 490.571 1123.15 489.811L1123.16 489.769H1122.25L1122.23 489.816C1122.08 490.154 1121.61 490.514 1120.85 490.514C1119.85 490.514 1119.21 489.837 1119.18 488.675H1123.23V488.321C1123.23 486.644 1122.3 485.509 1120.77 485.509C1119.25 485.509 1118.26 486.696 1118.26 488.431V488.436C1118.26 490.196 1119.23 491.321 1120.83 491.321ZM1120.77 486.316C1121.6 486.316 1122.21 486.842 1122.3 487.951H1119.2C1119.3 486.884 1119.93 486.316 1120.77 486.316ZM1128.92 492.441C1129.58 492.441 1130.21 492.347 1130.68 492.186V491.529C1130.35 491.681 1129.65 491.779 1128.93 491.779C1126.7 491.779 1125.27 490.347 1125.27 488.128V488.118C1125.27 485.957 1126.73 484.404 1128.77 484.404C1130.85 484.404 1132.28 485.691 1132.28 487.566V487.576C1132.28 488.852 1131.86 489.681 1131.2 489.681C1130.82 489.681 1130.61 489.467 1130.61 489.102V486.045H1129.82V486.681H1129.74C1129.54 486.227 1129.07 485.946 1128.52 485.946C1127.45 485.946 1126.71 486.832 1126.71 488.092V488.102C1126.71 489.42 1127.44 490.311 1128.52 490.311C1129.13 490.311 1129.6 490.014 1129.82 489.483H1129.91L1129.91 489.514C1130 490.019 1130.45 490.358 1131.05 490.358C1132.25 490.358 1133.01 489.279 1133.01 487.587V487.576C1133.01 485.321 1131.3 483.748 1128.84 483.748C1126.28 483.748 1124.53 485.514 1124.53 488.087V488.097C1124.53 490.753 1126.24 492.441 1128.92 492.441ZM1128.64 489.576C1127.96 489.576 1127.54 489.024 1127.54 488.123V488.113C1127.54 487.207 1127.95 486.665 1128.65 486.665C1129.36 486.665 1129.81 487.227 1129.81 488.113V488.123C1129.81 489.009 1129.36 489.576 1128.64 489.576ZM1136.74 493.201C1138.27 493.201 1139.24 492.399 1139.24 491.144V485.608H1138.33V486.535H1138.27C1137.92 485.899 1137.31 485.509 1136.52 485.509C1135.05 485.509 1134.14 486.649 1134.14 488.222V488.233C1134.14 489.806 1135.04 490.931 1136.5 490.931C1137.27 490.931 1137.9 490.582 1138.26 489.962H1138.34V491.097C1138.34 491.925 1137.74 492.399 1136.74 492.399C1135.93 492.399 1135.43 492.097 1135.33 491.67L1135.32 491.665H1134.39L1134.38 491.67C1134.52 492.592 1135.38 493.201 1136.74 493.201ZM1136.69 490.128C1135.65 490.128 1135.07 489.347 1135.07 488.233V488.222C1135.07 487.108 1135.65 486.311 1136.69 486.311C1137.73 486.311 1138.36 487.108 1138.36 488.222V488.233C1138.36 489.347 1137.74 490.128 1136.69 490.128ZM1140.92 491.222H1141.83V487.743C1141.83 486.951 1142.39 486.311 1143.12 486.311C1143.83 486.311 1144.29 486.743 1144.29 487.41V491.222H1145.19V487.613C1145.19 486.899 1145.71 486.311 1146.49 486.311C1147.28 486.311 1147.66 486.722 1147.66 487.55V491.222H1148.57V487.342C1148.57 486.165 1147.93 485.509 1146.78 485.509C1146.01 485.509 1145.37 485.899 1145.06 486.493H1144.98C1144.72 485.91 1144.19 485.509 1143.43 485.509C1142.69 485.509 1142.16 485.858 1141.91 486.462H1141.83V485.608H1140.92V491.222ZM1151.75 491.321C1152.5 491.321 1153.09 490.993 1153.44 490.394H1153.53V491.222H1154.43V487.378C1154.43 486.212 1153.67 485.509 1152.3 485.509C1151.1 485.509 1150.25 486.102 1150.1 486.983L1150.1 487.014H1151L1151.01 486.998C1151.15 486.561 1151.6 486.311 1152.27 486.311C1153.11 486.311 1153.53 486.686 1153.53 487.378V487.889L1151.92 487.988C1150.61 488.066 1149.87 488.644 1149.87 489.644V489.654C1149.87 490.675 1150.68 491.321 1151.75 491.321ZM1150.8 489.634V489.623C1150.8 489.066 1151.17 488.764 1152.03 488.712L1153.53 488.618V489.128C1153.53 489.931 1152.86 490.535 1151.93 490.535C1151.28 490.535 1150.8 490.201 1150.8 489.634ZM1156.57 484.524C1156.91 484.524 1157.19 484.243 1157.19 483.899C1157.19 483.556 1156.91 483.274 1156.57 483.274C1156.23 483.274 1155.94 483.556 1155.94 483.899C1155.94 484.243 1156.23 484.524 1156.57 484.524ZM1156.11 491.222H1157.02V485.608H1156.11V491.222ZM1158.78 491.222H1159.68V483.378H1158.78V491.222ZM1162.16 491.274C1162.54 491.274 1162.84 490.967 1162.84 490.597C1162.84 490.222 1162.54 489.92 1162.16 489.92C1161.79 489.92 1161.49 490.222 1161.49 490.597C1161.49 490.967 1161.79 491.274 1162.16 491.274ZM1166.68 491.321C1168.03 491.321 1168.78 490.597 1169.01 489.582L1169.02 489.524L1168.13 489.529L1168.12 489.561C1167.91 490.186 1167.43 490.519 1166.67 490.519C1165.67 490.519 1165.03 489.691 1165.03 488.399V488.389C1165.03 487.123 1165.66 486.311 1166.67 486.311C1167.48 486.311 1167.98 486.759 1168.12 487.311L1168.13 487.326H1169.03L1169.02 487.295C1168.86 486.295 1168.04 485.509 1166.67 485.509C1165.1 485.509 1164.1 486.644 1164.1 488.389V488.399C1164.1 490.181 1165.11 491.321 1166.68 491.321ZM1172.66 491.321C1174.26 491.321 1175.25 490.217 1175.25 488.42V488.41C1175.25 486.608 1174.26 485.509 1172.66 485.509C1171.06 485.509 1170.07 486.608 1170.07 488.41V488.42C1170.07 490.217 1171.06 491.321 1172.66 491.321ZM1172.66 490.519C1171.6 490.519 1171 489.743 1171 488.42V488.41C1171 487.082 1171.6 486.311 1172.66 486.311C1173.72 486.311 1174.32 487.082 1174.32 488.41V488.42C1174.32 489.743 1173.72 490.519 1172.66 490.519ZM1176.65 491.222H1177.56V487.743C1177.56 486.951 1178.12 486.311 1178.85 486.311C1179.56 486.311 1180.02 486.743 1180.02 487.41V491.222H1180.92V487.613C1180.92 486.899 1181.44 486.311 1182.22 486.311C1183.01 486.311 1183.39 486.722 1183.39 487.55V491.222H1184.3V487.342C1184.3 486.165 1183.66 485.509 1182.51 485.509C1181.74 485.509 1181.1 485.899 1180.79 486.493H1180.71C1180.45 485.91 1179.92 485.509 1179.16 485.509C1178.42 485.509 1177.89 485.858 1177.64 486.462H1177.56V485.608H1176.65V491.222Z" fill="#625A6F"/>
<a href="mailto:mgeorge@gmail.com">
<rect fill="black" fill-opacity="0" y="2.52431" width="105.979" height="12.7292"/>
</a>
<g style="mix-blend-mode:multiply">
<path d="M1135.74 755.127C1132.32 752.11 1128.99 748.185 1128.45 743.474C1128.2 741.239 1128.41 738.538 1130.26 736.985C1132.01 735.517 1134.44 735.416 1136.58 735.886C1141.33 736.932 1145.18 740.369 1150.1 740.801C1151.65 740.936 1153.18 740.822 1154.67 740.49C1162.31 730.369 1166.8 718.482 1168.65 705.753C1168.67 705.639 1168.67 705.526 1168.68 705.42C1167.43 705.822 1166.17 706.183 1164.89 706.463C1161.58 707.184 1158.17 707.421 1154.79 707.256C1151.42 707.094 1147.84 706.541 1144.68 705.335C1143.33 704.822 1142.02 703.922 1141.47 702.538C1140.81 700.873 1141.63 699.308 1142.73 698.067C1146.73 693.561 1152.72 692.058 1158.39 690.867C1162.32 690.038 1166.68 689.149 1169.92 686.721C1169.95 677.257 1169.32 667.766 1168.84 658.323C1168.8 657.552 1168.77 656.776 1168.73 655.997C1167.43 656.757 1166.15 657.554 1164.91 658.396C1163.42 659.556 1161.94 660.709 1160.45 661.87C1160.24 662.035 1160.01 662.146 1159.79 662.231C1159.51 662.462 1159.22 662.671 1158.95 662.903C1158.04 663.668 1156.69 663.505 1155.87 662.725C1155.82 662.674 1155.77 662.607 1155.73 662.552C1154.5 662.218 1153.55 661.019 1154.18 659.532C1155.89 655.479 1158.85 652.284 1161.87 649.159C1164.28 646.664 1166.79 644.116 1168.42 641.037C1168.59 628.36 1170.13 615.728 1175.24 603.992C1176.12 601.972 1173.96 600.371 1172.14 600.966C1157.39 605.828 1143.16 612.037 1129.42 619.222C1127.16 622.365 1126.83 626.792 1126.6 630.513C1126.45 633.058 1126.45 635.609 1126.6 638.154C1126.74 640.475 1126.82 642.807 1125.19 644.68C1123.83 646.245 1121.86 646.955 1119.91 647.449C1118.83 647.72 1117.75 647.886 1116.73 647.332C1115.63 646.726 1115.31 645.553 1114.98 644.434C1113.8 640.419 1111.88 634.156 1112.19 628.87C1103.17 634.261 1094.37 640.018 1085.78 646.066C1084.36 652.04 1087.36 658.876 1089.57 664.408C1092.16 670.862 1094.91 679.005 1091.48 685.687C1089.95 688.666 1087.13 690.973 1083.69 691.177C1082.1 691.275 1079.79 691.034 1079.01 689.404C1078.32 687.974 1078.1 686.374 1077.32 684.942C1073.73 678.374 1066.73 674.559 1061.49 669.472C1060.49 668.49 1059.7 667.498 1059.24 666.474C1055.11 670.393 1051.37 674.653 1048.34 679.42C1044.37 685.666 1042.04 692.593 1041.15 699.708C1041.5 700.148 1041.88 700.564 1042.27 700.935C1043.11 701.741 1044.12 702.501 1045.09 703.069C1046.05 703.626 1047.07 704.094 1047.95 704.769C1050.25 706.539 1051.09 709.437 1049.47 711.975C1047.95 714.351 1044.88 715.142 1042.21 715.203C1041.93 715.206 1041.69 715.171 1041.44 715.132C1041.97 718.462 1042.78 721.763 1043.87 724.987C1046.48 732.637 1050.66 739.584 1055.81 745.749C1063.39 750.223 1073 750.375 1081.06 745.649C1081.3 745.514 1081.55 745.451 1081.81 745.438C1084.13 739.239 1086.74 733.165 1089.6 727.231C1095.02 715.926 1101.15 705.035 1107.49 694.309L1126.68 662.249C1133.12 651.591 1139.82 641.009 1147.87 631.495C1140.12 641.258 1133.78 651.995 1127.69 662.837L1109.52 695.462C1103.54 706.356 1097.78 717.379 1092.79 728.692C1089.72 735.611 1086.99 742.665 1084.69 749.843C1085.92 755.691 1089.3 760.92 1094.18 764.462C1095.22 765.209 1096.31 765.842 1097.45 766.407C1103.46 768.221 1109.87 768.574 1116.22 767.943C1124.04 765.643 1131.32 761.737 1137.89 756.864C1137.13 756.31 1136.41 755.733 1135.74 755.127Z" fill="url(#paint12_linear_6884_239332)"/>
</g>
<g style="mix-blend-mode:multiply" opacity="0.6">
<path d="M679.191 749.866C684.934 753.465 692.339 756.787 697.322 761.839C698.637 763.154 699.744 764.607 700.367 766.129L708.256 766.129C705.696 761.839 701.959 758.655 701.751 753.396C701.613 748.482 704.173 743.915 705.419 739.278C707.841 730.489 710.471 721.77 713.239 713.119C716.699 702.185 721.682 691.873 727.633 682.116C729.779 678.725 731.993 675.334 734.346 672.081C736.422 669.244 738.014 666.06 735.869 662.738C734.485 660.662 733.17 658.586 731.786 656.51C728.879 652.219 726.388 647.098 720.713 650.766C718.844 652.012 716.492 653.188 714.9 654.78C713.931 655.749 702.858 665.091 701.474 665.783C701.751 665.645 702.582 661.839 702.72 661.354C703.62 658.794 704.727 656.302 705.765 653.811C708.187 648.275 715.73 640.455 708.256 636.441C704.035 634.226 699.537 632.496 695.038 630.766L695.038 630.766C694.554 630.559 693.931 630.351 693.377 630.42C691.716 630.559 691.301 633.05 690.748 634.296C689.156 637.756 687.564 641.216 685.903 644.607C685.211 645.922 681.128 651.943 681.336 652.981C681.059 651.597 680.367 628.275 680.367 628.275L680.367 628.275C678.845 618.586 677.322 608.898 675.523 599.278C675.454 598.863 675.384 598.379 675.177 598.033C673.931 595.818 668.533 595.887 666.388 595.68C663.412 595.403 660.367 595.61 657.391 596.095C654.623 596.579 646.111 597.479 644.519 600.178C643.966 601.078 644.588 602.946 644.796 603.915C645.281 606.545 646.18 609.036 646.595 611.597C647.218 615.195 647.772 618.794 648.325 622.392C649.848 632.773 650.471 643.431 650.332 653.742C650.332 655.045 649.653 659.136 650.247 660.084C649.79 659.39 639.817 644.271 637.045 641.77C625.765 645.576 624.796 655.126 624.588 657.271C625.35 658.24 636.838 676.372 638.983 679.417C641.059 682.462 650.748 704.607 650.748 704.607C650.748 704.607 633.793 690.766 629.779 688.621C625.765 688.898 622.512 706.337 623.204 707.029C623.896 707.79 641.128 719.763 653.585 731.32C661.222 738.406 670.296 744.193 679.038 749.769L679.191 749.866Z" fill="#888098"/>
</g>
<rect x="679.111" y="448.889" width="426.667" height="320" rx="28.4444" fill="#FBF9FF"/>
<path d="M709.544 688.222H713.148C715.019 688.222 716.143 687.286 716.143 685.749V685.737C716.143 684.595 715.353 683.756 714.168 683.628V683.525C715.031 683.379 715.706 682.559 715.706 681.648V681.635C715.706 680.292 714.715 679.454 713.069 679.454H709.544V688.222ZM712.753 680.566C713.761 680.566 714.351 681.046 714.351 681.872V681.884C714.351 682.735 713.725 683.185 712.522 683.185H710.905V680.566H712.753ZM712.795 684.224C714.077 684.224 714.752 684.71 714.752 685.652V685.664C714.752 686.606 714.102 687.11 712.874 687.11H710.905V684.224H712.795ZM717.741 688.222H719.06V684.279C719.06 683.325 719.747 682.705 720.755 682.705C721.004 682.705 721.229 682.735 721.466 682.784V681.569C721.332 681.538 721.102 681.508 720.889 681.508C720.008 681.508 719.394 681.921 719.157 682.62H719.06V681.623H717.741V688.222ZM724.486 688.332C725.361 688.332 726.054 687.955 726.443 687.286H726.546V688.222H727.852V683.707C727.852 682.322 726.917 681.496 725.258 681.496C723.757 681.496 722.718 682.219 722.56 683.3L722.554 683.343H723.824L723.83 683.319C723.988 682.851 724.468 682.583 725.197 682.583C726.09 682.583 726.546 682.984 726.546 683.707V684.291L724.76 684.394C723.186 684.491 722.299 685.178 722.299 686.357V686.369C722.299 687.566 723.228 688.332 724.486 688.332ZM723.611 686.314V686.302C723.611 685.707 724.024 685.378 724.936 685.324L726.546 685.22V685.786C726.546 686.636 725.823 687.28 724.839 687.28C724.128 687.28 723.611 686.922 723.611 686.314ZM729.712 688.222H731.03V684.352C731.03 683.288 731.632 682.626 732.598 682.626C733.564 682.626 734.02 683.167 734.02 684.26V688.222H735.332V683.95C735.332 682.377 734.518 681.496 733.042 681.496C732.082 681.496 731.45 681.921 731.128 682.626H731.03V681.623H729.712V688.222ZM739.58 688.332C740.503 688.332 741.227 687.906 741.609 687.183H741.713V688.222H743.025V679.035H741.713V682.668H741.609C741.257 681.957 740.485 681.508 739.58 681.508C737.903 681.508 736.845 682.826 736.845 684.917V684.929C736.845 687.001 737.921 688.332 739.58 688.332ZM739.957 687.207C738.851 687.207 738.188 686.345 738.188 684.929V684.917C738.188 683.501 738.851 682.638 739.957 682.638C741.05 682.638 741.731 683.507 741.731 684.917V684.929C741.731 686.338 741.056 687.207 739.957 687.207ZM745.674 680.444C746.124 680.444 746.501 680.074 746.501 679.624C746.501 679.168 746.124 678.798 745.674 678.798C745.219 678.798 744.848 679.168 744.848 679.624C744.848 680.074 745.219 680.444 745.674 680.444ZM745.012 688.222H746.325V681.623H745.012V688.222ZM748.245 688.222H749.563V684.352C749.563 683.288 750.165 682.626 751.131 682.626C752.097 682.626 752.553 683.167 752.553 684.26V688.222H753.865V683.95C753.865 682.377 753.051 681.496 751.575 681.496C750.615 681.496 749.983 681.921 749.661 682.626H749.563V681.623H748.245V688.222ZM758.496 690.549C760.367 690.549 761.552 689.589 761.552 688.088V681.623H760.24V682.705H760.161C759.778 681.963 759.061 681.508 758.137 681.508C756.424 681.508 755.372 682.838 755.372 684.722V684.734C755.372 686.594 756.418 687.9 758.113 687.9C759.018 687.9 759.747 687.499 760.148 686.782H760.246V688.082C760.246 688.982 759.602 689.492 758.514 689.492C757.621 689.492 757.086 689.17 756.977 688.714L756.97 688.702H755.64L755.628 688.714C755.786 689.814 756.819 690.549 758.496 690.549ZM758.477 686.812C757.353 686.812 756.721 685.956 756.721 684.728V684.716C756.721 683.489 757.353 682.626 758.477 682.626C759.589 682.626 760.27 683.489 760.27 684.716V684.728C760.27 685.962 759.595 686.812 758.477 686.812ZM768.661 688.332C769.536 688.332 770.229 687.955 770.618 687.286H770.721V688.222H772.028V683.707C772.028 682.322 771.092 681.496 769.433 681.496C767.932 681.496 766.893 682.219 766.735 683.3L766.729 683.343H767.999L768.005 683.319C768.163 682.851 768.643 682.583 769.372 682.583C770.266 682.583 770.721 682.984 770.721 683.707V684.291L768.935 684.394C767.361 684.491 766.474 685.178 766.474 686.357V686.369C766.474 687.566 767.404 688.332 768.661 688.332ZM767.786 686.314V686.302C767.786 685.707 768.2 685.378 769.111 685.324L770.721 685.22V685.786C770.721 686.636 769.998 687.28 769.014 687.28C768.303 687.28 767.786 686.922 767.786 686.314ZM773.887 688.222H775.206V684.279C775.206 683.325 775.892 682.705 776.901 682.705C777.15 682.705 777.375 682.735 777.612 682.784V681.569C777.478 681.538 777.247 681.508 777.035 681.508C776.154 681.508 775.54 681.921 775.303 682.62H775.206V681.623H773.887V688.222ZM781.47 688.35C783.16 688.35 784.071 687.378 784.29 686.509L784.302 686.454L783.032 686.46L783.008 686.509C782.85 686.849 782.345 687.268 781.501 687.268C780.413 687.268 779.72 686.533 779.696 685.269H784.375V684.807C784.375 682.826 783.245 681.496 781.404 681.496C779.563 681.496 778.372 682.875 778.372 684.935V684.941C778.372 687.031 779.538 688.35 781.47 688.35ZM781.41 682.577C782.303 682.577 782.965 683.148 783.069 684.327H779.714C779.83 683.191 780.51 682.577 781.41 682.577ZM787.753 688.332C788.628 688.332 789.321 687.955 789.71 687.286H789.813V688.222H791.12V683.707C791.12 682.322 790.184 681.496 788.525 681.496C787.024 681.496 785.985 682.219 785.827 683.3L785.821 683.343H787.091L787.097 683.319C787.255 682.851 787.735 682.583 788.464 682.583C789.358 682.583 789.813 682.984 789.813 683.707V684.291L788.027 684.394C786.453 684.491 785.566 685.178 785.566 686.357V686.369C785.566 687.566 786.496 688.332 787.753 688.332ZM786.878 686.314V686.302C786.878 685.707 787.292 685.378 788.203 685.324L789.813 685.22V685.786C789.813 686.636 789.09 687.28 788.106 687.28C787.395 687.28 786.878 686.922 786.878 686.314Z" fill="#191C1D"/>
<circle cx="717.333" cy="709.222" r="4.44444" fill="#5D34F2"/>
<rect x="710.222" y="702.111" width="14.2222" height="14.2222" rx="7.11111" stroke="#5D34F2" stroke-width="1.77778"/>
<path d="M733.753 713.333H734.901L735.782 710.824H739.27L740.151 713.333H741.3L738.067 704.565H736.985L733.753 713.333ZM737.477 705.981H737.575L738.948 709.894H736.104L737.477 705.981ZM742.703 715.521H743.76V712.301H743.858C744.216 712.999 745 713.449 745.899 713.449C747.564 713.449 748.646 712.118 748.646 710.064V710.052C748.646 708.011 747.558 706.668 745.899 706.668C744.988 706.668 744.259 707.099 743.858 707.828H743.76V706.783H742.703V715.521ZM745.656 712.513C744.465 712.513 743.736 711.577 743.736 710.064V710.052C743.736 708.539 744.465 707.603 745.656 707.603C746.853 707.603 747.564 708.527 747.564 710.052V710.064C747.564 711.59 746.853 712.513 745.656 712.513ZM750.299 715.521H751.356V712.301H751.453C751.812 712.999 752.596 713.449 753.495 713.449C755.16 713.449 756.241 712.118 756.241 710.064V710.052C756.241 708.011 755.154 706.668 753.495 706.668C752.583 706.668 751.854 707.099 751.453 707.828H751.356V706.783H750.299V715.521ZM753.252 712.513C752.061 712.513 751.332 711.577 751.332 710.064V710.052C751.332 708.539 752.061 707.603 753.252 707.603C754.449 707.603 755.16 708.527 755.16 710.052V710.064C755.16 711.59 754.449 712.513 753.252 712.513ZM761.528 713.333H766.851V712.349H762.622V704.565H761.528V713.333ZM770.855 713.449C772.721 713.449 773.875 712.161 773.875 710.064V710.052C773.875 707.95 772.721 706.668 770.855 706.668C768.99 706.668 767.835 707.95 767.835 710.052V710.064C767.835 712.161 768.99 713.449 770.855 713.449ZM770.855 712.513C769.615 712.513 768.917 711.608 768.917 710.064V710.052C768.917 708.503 769.615 707.603 770.855 707.603C772.095 707.603 772.793 708.503 772.793 710.052V710.064C772.793 711.608 772.095 712.513 770.855 712.513ZM778.214 715.643C780 715.643 781.13 714.707 781.13 713.242V706.783H780.073V707.865H780C779.599 707.123 778.882 706.668 777.958 706.668C776.245 706.668 775.188 707.998 775.188 709.833V709.846C775.188 711.681 776.239 712.993 777.934 712.993C778.833 712.993 779.575 712.586 779.988 711.863H780.085V713.188C780.085 714.154 779.386 714.707 778.214 714.707C777.272 714.707 776.688 714.354 776.573 713.856L776.567 713.85H775.473L775.461 713.856C775.625 714.932 776.634 715.643 778.214 715.643ZM778.165 712.057C776.95 712.057 776.269 711.146 776.269 709.846V709.833C776.269 708.533 776.95 707.603 778.165 707.603C779.374 707.603 780.109 708.533 780.109 709.833V709.846C780.109 711.146 779.38 712.057 778.165 712.057ZM785.791 713.449C787.656 713.449 788.811 712.161 788.811 710.064V710.052C788.811 707.95 787.656 706.668 785.791 706.668C783.925 706.668 782.771 707.95 782.771 710.052V710.064C782.771 712.161 783.925 713.449 785.791 713.449ZM785.791 712.513C784.551 712.513 783.852 711.608 783.852 710.064V710.052C783.852 708.503 784.551 707.603 785.791 707.603C787.03 707.603 787.729 708.503 787.729 710.052V710.064C787.729 711.608 787.03 712.513 785.791 712.513ZM795.215 713.333H796.273L797.731 708.266H797.828L799.293 713.333H800.356L802.191 706.783H801.14L799.852 712.021H799.754L798.29 706.783H797.287L795.823 712.021H795.726L794.438 706.783H793.38L795.215 713.333ZM804.148 705.519C804.549 705.519 804.877 705.191 804.877 704.79C804.877 704.389 804.549 704.061 804.148 704.061C803.747 704.061 803.418 704.389 803.418 704.79C803.418 705.191 803.747 705.519 804.148 705.519ZM803.613 713.333H804.67V706.783H803.613V713.333ZM808.99 713.382C809.197 713.382 809.398 713.358 809.604 713.321V712.422C809.41 712.44 809.306 712.446 809.118 712.446C808.438 712.446 808.17 712.136 808.17 711.365V707.658H809.604V706.783H808.17V705.088H807.076V706.783H806.043V707.658H807.076V711.632C807.076 712.884 807.642 713.382 808.99 713.382ZM811.245 713.333H812.302V709.457C812.302 708.308 812.964 707.603 814.01 707.603C815.055 707.603 815.541 708.169 815.541 709.347V713.333H816.598V709.092C816.598 707.537 815.778 706.668 814.307 706.668C813.341 706.668 812.727 707.075 812.399 707.768H812.302V704.182H811.245V713.333ZM822.012 713.333H823.069V709.274C823.069 708.351 823.72 707.603 824.576 707.603C825.403 707.603 825.938 708.108 825.938 708.886V713.333H826.995V709.123C826.995 708.29 827.596 707.603 828.508 707.603C829.431 707.603 829.875 708.083 829.875 709.05V713.333H830.932V708.807C830.932 707.433 830.185 706.668 828.848 706.668C827.943 706.668 827.195 707.123 826.843 707.816H826.746C826.442 707.136 825.822 706.668 824.935 706.668C824.078 706.668 823.458 707.075 823.167 707.78H823.069V706.783H822.012V713.333ZM835.514 713.449C837.057 713.449 837.993 712.574 838.218 711.687L838.23 711.638H837.173L837.148 711.693C836.972 712.088 836.425 712.507 835.538 712.507C834.372 712.507 833.624 711.717 833.594 710.362H838.309V709.949C838.309 707.992 837.227 706.668 835.447 706.668C833.667 706.668 832.512 708.053 832.512 710.077V710.083C832.512 712.136 833.642 713.449 835.514 713.449ZM835.441 707.61C836.407 707.61 837.124 708.223 837.234 709.518H833.612C833.727 708.272 834.469 707.61 835.441 707.61ZM842.198 713.449C843.687 713.449 844.823 712.641 844.823 711.474V711.462C844.823 710.526 844.227 709.991 842.994 709.694L841.985 709.451C841.214 709.262 840.885 708.983 840.885 708.539V708.527C840.885 707.95 841.457 707.549 842.234 707.549C843.024 707.549 843.535 707.907 843.675 708.424H844.714C844.568 707.354 843.614 706.668 842.24 706.668C840.849 706.668 839.804 707.488 839.804 708.576V708.582C839.804 709.524 840.357 710.058 841.584 710.35L842.599 710.593C843.407 710.787 843.741 711.097 843.741 711.541V711.553C843.741 712.149 843.115 712.568 842.234 712.568C841.396 712.568 840.873 712.209 840.697 711.662H839.615C839.737 712.744 840.74 713.449 842.198 713.449ZM848.59 713.449C850.079 713.449 851.215 712.641 851.215 711.474V711.462C851.215 710.526 850.62 709.991 849.386 709.694L848.378 709.451C847.606 709.262 847.278 708.983 847.278 708.539V708.527C847.278 707.95 847.849 707.549 848.627 707.549C849.417 707.549 849.927 707.907 850.067 708.424H851.106C850.96 707.354 850.006 706.668 848.633 706.668C847.241 706.668 846.196 707.488 846.196 708.576V708.582C846.196 709.524 846.749 710.058 847.977 710.35L848.991 710.593C849.8 710.787 850.134 711.097 850.134 711.541V711.553C850.134 712.149 849.508 712.568 848.627 712.568C847.788 712.568 847.266 712.209 847.089 711.662H846.008C846.129 712.744 847.132 713.449 848.59 713.449ZM854.655 713.449C855.536 713.449 856.222 713.066 856.635 712.367H856.733V713.333H857.79V708.849C857.79 707.488 856.897 706.668 855.299 706.668C853.901 706.668 852.905 707.36 852.734 708.387L852.728 708.424H853.786L853.792 708.406C853.962 707.895 854.478 707.603 855.262 707.603C856.24 707.603 856.733 708.041 856.733 708.849V709.445L854.855 709.56C853.33 709.651 852.467 710.326 852.467 711.492V711.505C852.467 712.695 853.409 713.449 854.655 713.449ZM853.549 711.48V711.468C853.549 710.818 853.986 710.465 854.983 710.405L856.733 710.295V710.891C856.733 711.827 855.949 712.531 854.873 712.531C854.114 712.531 853.549 712.143 853.549 711.48ZM862.42 715.643C864.207 715.643 865.337 714.707 865.337 713.242V706.783H864.28V707.865H864.207C863.806 707.123 863.089 706.668 862.165 706.668C860.451 706.668 859.394 707.998 859.394 709.833V709.846C859.394 711.681 860.445 712.993 862.141 712.993C863.04 712.993 863.781 712.586 864.194 711.863H864.292V713.188C864.292 714.154 863.593 714.707 862.42 714.707C861.478 714.707 860.895 714.354 860.78 713.856L860.773 713.85H859.68L859.668 713.856C859.832 714.932 860.84 715.643 862.42 715.643ZM862.372 712.057C861.156 712.057 860.476 711.146 860.476 709.846V709.833C860.476 708.533 861.156 707.603 862.372 707.603C863.581 707.603 864.316 708.533 864.316 709.833V709.846C864.316 711.146 863.587 712.057 862.372 712.057ZM869.979 713.449C871.523 713.449 872.458 712.574 872.683 711.687L872.695 711.638H871.638L871.614 711.693C871.438 712.088 870.891 712.507 870.004 712.507C868.837 712.507 868.089 711.717 868.059 710.362H872.774V709.949C872.774 707.992 871.693 706.668 869.912 706.668C868.132 706.668 866.977 708.053 866.977 710.077V710.083C866.977 712.136 868.108 713.449 869.979 713.449ZM869.906 707.61C870.872 707.61 871.589 708.223 871.699 709.518H868.077C868.193 708.272 868.934 707.61 869.906 707.61Z" fill="#191C1D"/>
<circle cx="717.333" cy="734.333" r="7.11111" fill="white" stroke="#8E9192" stroke-width="1.77778"/>
<path d="M733.753 738.444H734.901L735.782 735.935H739.27L740.151 738.444H741.3L738.067 729.676H736.985L733.753 738.444ZM737.477 731.092H737.575L738.948 735.005H736.104L737.477 731.092ZM742.703 740.632H743.76V737.411H743.858C744.216 738.11 745 738.56 745.899 738.56C747.564 738.56 748.646 737.229 748.646 735.175V735.163C748.646 733.121 747.558 731.779 745.899 731.779C744.988 731.779 744.259 732.21 743.858 732.939H743.76V731.894H742.703V740.632ZM745.656 737.624C744.465 737.624 743.736 736.688 743.736 735.175V735.163C743.736 733.65 744.465 732.714 745.656 732.714C746.853 732.714 747.564 733.638 747.564 735.163V735.175C747.564 736.7 746.853 737.624 745.656 737.624ZM750.299 740.632H751.356V737.411H751.453C751.812 738.11 752.596 738.56 753.495 738.56C755.16 738.56 756.241 737.229 756.241 735.175V735.163C756.241 733.121 755.154 731.779 753.495 731.779C752.583 731.779 751.854 732.21 751.453 732.939H751.356V731.894H750.299V740.632ZM753.252 737.624C752.061 737.624 751.332 736.688 751.332 735.175V735.163C751.332 733.65 752.061 732.714 753.252 732.714C754.449 732.714 755.16 733.638 755.16 735.163V735.175C755.16 736.7 754.449 737.624 753.252 737.624ZM761.528 738.444H766.851V737.46H762.622V729.676H761.528V738.444ZM770.855 738.56C772.721 738.56 773.875 737.272 773.875 735.175V735.163C773.875 733.061 772.721 731.779 770.855 731.779C768.99 731.779 767.835 733.061 767.835 735.163V735.175C767.835 737.272 768.99 738.56 770.855 738.56ZM770.855 737.624C769.615 737.624 768.917 736.719 768.917 735.175V735.163C768.917 733.614 769.615 732.714 770.855 732.714C772.095 732.714 772.793 733.614 772.793 735.163V735.175C772.793 736.719 772.095 737.624 770.855 737.624ZM778.214 740.753C780 740.753 781.13 739.818 781.13 738.353V731.894H780.073V732.976H780C779.599 732.234 778.882 731.779 777.958 731.779C776.245 731.779 775.188 733.109 775.188 734.944V734.956C775.188 736.792 776.239 738.104 777.934 738.104C778.833 738.104 779.575 737.697 779.988 736.974H780.085V738.299C780.085 739.265 779.386 739.818 778.214 739.818C777.272 739.818 776.688 739.465 776.573 738.967L776.567 738.961H775.473L775.461 738.967C775.625 740.042 776.634 740.753 778.214 740.753ZM778.165 737.168C776.95 737.168 776.269 736.257 776.269 734.956V734.944C776.269 733.644 776.95 732.714 778.165 732.714C779.374 732.714 780.109 733.644 780.109 734.944V734.956C780.109 736.257 779.38 737.168 778.165 737.168ZM785.791 738.56C787.656 738.56 788.811 737.272 788.811 735.175V735.163C788.811 733.061 787.656 731.779 785.791 731.779C783.925 731.779 782.771 733.061 782.771 735.163V735.175C782.771 737.272 783.925 738.56 785.791 738.56ZM785.791 737.624C784.551 737.624 783.852 736.719 783.852 735.175V735.163C783.852 733.614 784.551 732.714 785.791 732.714C787.03 732.714 787.729 733.614 787.729 735.163V735.175C787.729 736.719 787.03 737.624 785.791 737.624Z" fill="#191C1D"/>
<path d="M708.467 514.111H711.842C713.446 514.111 714.441 513.283 714.441 511.965V511.955C714.441 510.992 713.717 510.247 712.722 510.169V510.075C713.493 509.96 714.082 509.268 714.082 508.476V508.465C714.082 507.309 713.212 506.596 711.753 506.596H708.467V514.111ZM711.352 507.762C712.102 507.762 712.535 508.127 712.535 508.736V508.747C712.535 509.367 712.071 509.721 711.222 509.721H710.04V507.762H711.352ZM711.405 510.757C712.332 510.757 712.837 511.132 712.837 511.83V511.84C712.837 512.554 712.347 512.939 711.441 512.939H710.04V510.757H711.405ZM716.93 514.111H718.502V511.361H719.789L721.19 514.111H722.971L721.388 511.127C722.247 510.788 722.747 509.96 722.747 508.997V508.986C722.747 507.507 721.768 506.596 720.06 506.596H716.93V514.111ZM718.502 510.215V507.825H719.867C720.653 507.825 721.138 508.294 721.138 509.018V509.028C721.138 509.768 720.674 510.215 719.888 510.215H718.502ZM724.866 514.111H726.517L727.074 512.288H729.725L730.283 514.111H731.939L729.324 506.596H727.475L724.866 514.111ZM728.356 508.096H728.449L729.366 511.111H727.434L728.356 508.096ZM734.282 514.111H735.787V509.304H735.87L739.349 514.111H740.651V506.596H739.146V511.382H739.063L735.594 506.596H734.282V514.111ZM743.546 514.111H746.505C748.755 514.111 750.031 512.736 750.031 510.309V510.299C750.031 507.945 748.739 506.596 746.505 506.596H743.546V514.111ZM745.119 512.814V507.893H746.255C747.619 507.893 748.426 508.778 748.426 510.325V510.335C748.426 511.939 747.645 512.814 746.255 512.814H745.119ZM752.592 514.111H754.165V506.596H752.592V514.111ZM757.055 514.111H758.56V509.304H758.643L762.122 514.111H763.424V506.596H761.919V511.382H761.836L758.367 506.596H757.055V514.111ZM769.59 514.304C771.642 514.304 772.923 513.054 772.923 511.059V510.106H769.767V511.252H771.392L771.387 511.393C771.356 512.34 770.647 512.971 769.616 512.971C768.376 512.971 767.59 511.965 767.59 510.335V510.325C767.59 508.726 768.34 507.736 769.553 507.736C770.434 507.736 771.074 508.179 771.288 508.924L771.298 508.976H772.861L772.85 508.924C772.626 507.424 771.33 506.403 769.553 506.403C767.366 506.403 765.986 507.929 765.986 510.34V510.351C765.986 512.799 767.356 514.304 769.59 514.304Z" fill="#928F9A"/>
<rect x="953.333" y="503.556" width="123.556" height="244.444" rx="17.3333" fill="white"/>
<rect x="953.333" y="503.556" width="123.556" height="244.444" rx="17.3333" stroke="#F7F8F8" stroke-width="0.888889"/>
<rect x="953.333" y="503.556" width="123.556" height="244.444" rx="17.3333" stroke="#78767F" stroke-opacity="0.02" stroke-width="0.888889"/>
<rect x="953.333" y="503.556" width="123.556" height="244.444" rx="17.3333" stroke="#5D34F2" stroke-opacity="0.14" stroke-width="0.888889"/>
<path d="M970.667 654.233H1004.44V654.767H970.667V654.233Z" fill="#E0E3E3"/>
<path d="M1013.66 657.066C1014.72 657.066 1015.38 656.33 1015.38 655.132V655.125C1015.38 653.924 1014.72 653.191 1013.66 653.191C1012.59 653.191 1011.93 653.924 1011.93 655.125V655.132C1011.93 656.33 1012.59 657.066 1013.66 657.066ZM1013.66 656.531C1012.95 656.531 1012.55 656.014 1012.55 655.132V655.125C1012.55 654.24 1012.95 653.726 1013.66 653.726C1014.36 653.726 1014.76 654.24 1014.76 655.125V655.132C1014.76 656.014 1014.36 656.531 1013.66 656.531ZM1016.32 657H1016.92V654.681C1016.92 654.132 1017.33 653.767 1017.91 653.767C1018.04 653.767 1018.16 653.781 1018.28 653.802V653.215C1018.22 653.205 1018.09 653.191 1017.98 653.191C1017.47 653.191 1017.12 653.42 1016.98 653.812H1016.92V653.257H1016.32V657Z" fill="#716AC0"/>
<path d="M1025.67 654.233H1059.44V654.767H1025.67V654.233Z" fill="#E0E3E3"/>
<circle cx="986.611" cy="675.222" r="7.11111" fill="#F7F8F8"/>
<circle cx="986.611" cy="675.222" r="7.11111" fill="#78767F" fill-opacity="0.02"/>
<circle cx="986.611" cy="675.222" r="7.11111" fill="#5D34F2" fill-opacity="0.11"/>
<circle cx="1015.06" cy="675.222" r="7.11111" fill="#F7F8F8"/>
<circle cx="1015.06" cy="675.222" r="7.11111" fill="#78767F" fill-opacity="0.02"/>
<circle cx="1015.06" cy="675.222" r="7.11111" fill="#5D34F2" fill-opacity="0.11"/>
<circle cx="1043.5" cy="675.222" r="7.11111" fill="#F7F8F8"/>
<circle cx="1043.5" cy="675.222" r="7.11111" fill="#78767F" fill-opacity="0.02"/>
<circle cx="1043.5" cy="675.222" r="7.11111" fill="#5D34F2" fill-opacity="0.11"/>
<circle cx="1015.11" cy="532.444" r="12.4444" fill="#CABEFF"/>
<path d="M976 552H1034.21M1054.22 552H1044.89" stroke="#E5E1EC" stroke-width="1.77778" stroke-linecap="round"/>
<rect x="965.333" y="566.222" width="99.5556" height="17.7778" rx="3.55556" fill="#EFF1F1"/>
<path d="M972.986 577.778H973.74V575.462C973.74 574.969 974.076 574.58 974.531 574.58C974.976 574.58 975.257 574.851 975.257 575.281V577.778H976.007V575.392C976.007 574.938 976.323 574.58 976.802 574.58C977.295 574.58 977.531 574.837 977.531 575.358V577.778H978.281V575.177C978.281 574.392 977.837 573.934 977.076 573.934C976.552 573.934 976.118 574.201 975.927 574.608H975.868C975.701 574.201 975.337 573.934 974.823 573.934C974.33 573.934 973.962 574.174 973.795 574.587H973.74V574.007H972.986V577.778ZM980.927 579.108C981.997 579.108 982.674 578.559 982.674 577.701V574.007H981.924V574.625H981.878C981.66 574.201 981.25 573.941 980.722 573.941C979.743 573.941 979.142 574.701 979.142 575.778V575.785C979.142 576.847 979.74 577.594 980.708 577.594C981.226 577.594 981.642 577.365 981.872 576.955H981.927V577.698C981.927 578.212 981.559 578.504 980.938 578.504C980.427 578.504 980.122 578.319 980.059 578.059L980.056 578.052H979.295L979.288 578.059C979.378 578.688 979.969 579.108 980.927 579.108ZM980.917 576.972C980.274 576.972 979.913 576.483 979.913 575.781V575.774C979.913 575.073 980.274 574.58 980.917 574.58C981.552 574.58 981.941 575.073 981.941 575.774V575.781C981.941 576.486 981.556 576.972 980.917 576.972ZM985.34 577.851C986.306 577.851 986.826 577.295 986.951 576.799L986.958 576.767L986.233 576.771L986.219 576.799C986.128 576.993 985.84 577.233 985.358 577.233C984.736 577.233 984.34 576.813 984.326 576.09H987V575.826C987 574.694 986.354 573.934 985.302 573.934C984.25 573.934 983.569 574.722 983.569 575.899V575.903C983.569 577.097 984.236 577.851 985.34 577.851ZM985.306 574.552C985.816 574.552 986.194 574.879 986.253 575.552H984.337C984.403 574.903 984.792 574.552 985.306 574.552ZM989.493 577.851C990.597 577.851 991.274 577.111 991.274 575.896V575.889C991.274 574.674 990.594 573.934 989.493 573.934C988.389 573.934 987.708 574.677 987.708 575.889V575.896C987.708 577.111 988.385 577.851 989.493 577.851ZM989.493 577.222C988.844 577.222 988.479 576.733 988.479 575.896V575.889C988.479 575.052 988.844 574.563 989.493 574.563C990.139 574.563 990.507 575.052 990.507 575.889V575.896C990.507 576.729 990.139 577.222 989.493 577.222ZM992.174 577.778H992.927V575.524C992.927 574.979 993.319 574.625 993.896 574.625C994.038 574.625 994.167 574.642 994.302 574.67V573.976C994.226 573.958 994.094 573.941 993.972 573.941C993.469 573.941 993.118 574.177 992.983 574.576H992.927V574.007H992.174V577.778ZM996.517 579.108C997.587 579.108 998.264 578.559 998.264 577.701V574.007H997.514V574.625H997.469C997.25 574.201 996.84 573.941 996.313 573.941C995.333 573.941 994.733 574.701 994.733 575.778V575.785C994.733 576.847 995.33 577.594 996.299 577.594C996.816 577.594 997.233 577.365 997.462 576.955H997.517V577.698C997.517 578.212 997.149 578.504 996.528 578.504C996.017 578.504 995.712 578.319 995.649 578.059L995.646 578.052H994.885L994.878 578.059C994.969 578.688 995.559 579.108 996.517 579.108ZM996.507 576.972C995.865 576.972 995.503 576.483 995.503 575.781V575.774C995.503 575.073 995.865 574.58 996.507 574.58C997.142 574.58 997.531 575.073 997.531 575.774V575.781C997.531 576.486 997.146 576.972 996.507 576.972ZM1000.93 577.851C1001.9 577.851 1002.42 577.295 1002.54 576.799L1002.55 576.767L1001.82 576.771L1001.81 576.799C1001.72 576.993 1001.43 577.233 1000.95 577.233C1000.33 577.233 999.931 576.813 999.917 576.09H1002.59V575.826C1002.59 574.694 1001.94 573.934 1000.89 573.934C999.84 573.934 999.16 574.722 999.16 575.899V575.903C999.16 577.097 999.826 577.851 1000.93 577.851ZM1000.9 574.552C1001.41 574.552 1001.78 574.879 1001.84 575.552H999.927C999.993 574.903 1000.38 574.552 1000.9 574.552ZM1006.37 578.569C1006.78 578.569 1007.18 578.514 1007.48 578.417V577.934C1007.27 578.028 1006.83 578.087 1006.4 578.087C1004.91 578.087 1003.96 577.153 1003.96 575.698V575.691C1003.96 574.267 1004.92 573.257 1006.27 573.257C1007.64 573.257 1008.56 574.101 1008.56 575.354V575.361C1008.56 576.16 1008.3 576.677 1007.89 576.677C1007.66 576.677 1007.52 576.535 1007.52 576.292V574.319H1006.93V574.74H1006.88C1006.74 574.434 1006.43 574.25 1006.07 574.25C1005.36 574.25 1004.87 574.833 1004.87 575.674V575.681C1004.87 576.559 1005.35 577.149 1006.08 577.149C1006.48 577.149 1006.78 576.958 1006.93 576.604H1006.99L1006.99 576.625C1007.06 576.958 1007.37 577.174 1007.78 577.174C1008.59 577.174 1009.1 576.465 1009.1 575.344V575.337C1009.1 573.826 1007.96 572.778 1006.31 572.778C1004.6 572.778 1003.42 573.955 1003.42 575.67V575.677C1003.42 577.438 1004.57 578.569 1006.37 578.569ZM1006.19 576.608C1005.77 576.608 1005.51 576.26 1005.51 575.698V575.691C1005.51 575.122 1005.76 574.781 1006.19 574.781C1006.63 574.781 1006.91 575.135 1006.91 575.691V575.698C1006.91 576.254 1006.63 576.608 1006.19 576.608ZM1011.64 579.108C1012.7 579.108 1013.38 578.559 1013.38 577.701V574.007H1012.63V574.625H1012.59C1012.37 574.201 1011.96 573.941 1011.43 573.941C1010.45 573.941 1009.85 574.701 1009.85 575.778V575.785C1009.85 576.847 1010.45 577.594 1011.42 577.594C1011.93 577.594 1012.35 577.365 1012.58 576.955H1012.64V577.698C1012.64 578.212 1012.27 578.504 1011.65 578.504C1011.14 578.504 1010.83 578.319 1010.77 578.059L1010.76 578.052H1010L1010 578.059C1010.09 578.688 1010.68 579.108 1011.64 579.108ZM1011.63 576.972C1010.98 576.972 1010.62 576.483 1010.62 575.781V575.774C1010.62 575.073 1010.98 574.58 1011.63 574.58C1012.26 574.58 1012.65 575.073 1012.65 575.774V575.781C1012.65 576.486 1012.26 576.972 1011.63 576.972ZM1014.47 577.778H1015.22V575.462C1015.22 574.969 1015.56 574.58 1016.01 574.58C1016.45 574.58 1016.74 574.851 1016.74 575.281V577.778H1017.49V575.392C1017.49 574.938 1017.8 574.58 1018.28 574.58C1018.77 574.58 1019.01 574.837 1019.01 575.358V577.778H1019.76V575.177C1019.76 574.392 1019.32 573.934 1018.56 573.934C1018.03 573.934 1017.6 574.201 1017.41 574.608H1017.35C1017.18 574.201 1016.82 573.934 1016.3 573.934C1015.81 573.934 1015.44 574.174 1015.27 574.587H1015.22V574.007H1014.47V577.778ZM1021.85 577.84C1022.35 577.84 1022.74 577.625 1022.97 577.243H1023.02V577.778H1023.77V575.198C1023.77 574.406 1023.24 573.934 1022.29 573.934C1021.43 573.934 1020.84 574.347 1020.75 574.965L1020.74 574.99H1021.47L1021.47 574.976C1021.56 574.708 1021.84 574.556 1022.25 574.556C1022.76 574.556 1023.02 574.785 1023.02 575.198V575.531L1022 575.59C1021.1 575.646 1020.6 576.038 1020.6 576.712V576.719C1020.6 577.403 1021.13 577.84 1021.85 577.84ZM1021.35 576.688V576.681C1021.35 576.34 1021.58 576.153 1022.1 576.122L1023.02 576.063V576.385C1023.02 576.872 1022.61 577.24 1022.05 577.24C1021.64 577.24 1021.35 577.035 1021.35 576.688ZM1025.23 573.333C1025.48 573.333 1025.7 573.122 1025.7 572.865C1025.7 572.604 1025.48 572.392 1025.23 572.392C1024.97 572.392 1024.75 572.604 1024.75 572.865C1024.75 573.122 1024.97 573.333 1025.23 573.333ZM1024.85 577.778H1025.6V574.007H1024.85V577.778ZM1026.73 577.778H1027.48V572.528H1026.73V577.778ZM1029.18 577.83C1029.47 577.83 1029.69 577.608 1029.69 577.326C1029.69 577.042 1029.47 576.819 1029.18 576.819C1028.9 576.819 1028.67 577.042 1028.67 577.326C1028.67 577.608 1028.9 577.83 1029.18 577.83ZM1032.3 577.851C1033.23 577.851 1033.77 577.347 1033.9 576.615L1033.91 576.583H1033.19L1033.18 576.601C1033.06 577.007 1032.77 577.222 1032.3 577.222C1031.67 577.222 1031.29 576.715 1031.29 575.882V575.875C1031.29 575.063 1031.67 574.563 1032.3 574.563C1032.8 574.563 1033.1 574.84 1033.18 575.212L1033.19 575.222L1033.91 575.219V575.201C1033.81 574.469 1033.24 573.934 1032.29 573.934C1031.19 573.934 1030.52 574.681 1030.52 575.875V575.882C1030.52 577.101 1031.19 577.851 1032.3 577.851ZM1036.36 577.851C1037.47 577.851 1038.14 577.111 1038.14 575.896V575.889C1038.14 574.674 1037.46 573.934 1036.36 573.934C1035.26 573.934 1034.58 574.677 1034.58 575.889V575.896C1034.58 577.111 1035.25 577.851 1036.36 577.851ZM1036.36 577.222C1035.71 577.222 1035.35 576.733 1035.35 575.896V575.889C1035.35 575.052 1035.71 574.563 1036.36 574.563C1037.01 574.563 1037.38 575.052 1037.38 575.889V575.896C1037.38 576.729 1037.01 577.222 1036.36 577.222ZM1039.04 577.778H1039.8V575.462C1039.8 574.969 1040.13 574.58 1040.59 574.58C1041.03 574.58 1041.31 574.851 1041.31 575.281V577.778H1042.06V575.392C1042.06 574.938 1042.38 574.58 1042.86 574.58C1043.35 574.58 1043.59 574.837 1043.59 575.358V577.778H1044.34V575.177C1044.34 574.392 1043.89 573.934 1043.13 573.934C1042.61 573.934 1042.17 574.201 1041.98 574.608H1041.92C1041.76 574.201 1041.39 573.934 1040.88 573.934C1040.39 573.934 1040.02 574.174 1039.85 574.587H1039.8V574.007H1039.04V577.778Z" fill="#928F9A"/>
<rect x="965.333" y="608.889" width="99.5556" height="17.7778" rx="5.33333" fill="#5D34F2"/>
<path d="M1003.08 620.562C1004.15 620.562 1004.94 619.969 1005.1 619.052V619.045H1004.47L1004.47 619.052C1004.31 619.628 1003.78 619.986 1003.08 619.986C1002.11 619.986 1001.51 619.198 1001.51 617.944V617.937C1001.51 616.684 1002.11 615.892 1003.08 615.892C1003.77 615.892 1004.3 616.299 1004.47 616.941L1004.47 616.948H1005.1L1005.1 616.941C1004.95 615.979 1004.13 615.316 1003.08 615.316C1001.72 615.316 1000.87 616.323 1000.87 617.937V617.944C1000.87 619.555 1001.72 620.562 1003.08 620.562ZM1007.61 620.51C1008.68 620.51 1009.34 619.774 1009.34 618.576V618.569C1009.34 617.368 1008.68 616.635 1007.61 616.635C1006.55 616.635 1005.89 617.368 1005.89 618.569V618.576C1005.89 619.774 1006.55 620.51 1007.61 620.51ZM1007.61 619.976C1006.91 619.976 1006.51 619.458 1006.51 618.576V618.569C1006.51 617.684 1006.91 617.17 1007.61 617.17C1008.32 617.17 1008.72 617.684 1008.72 618.569V618.576C1008.72 619.458 1008.32 619.976 1007.61 619.976ZM1010.28 620.444H1010.88V618.229C1010.88 617.573 1011.26 617.17 1011.86 617.17C1012.45 617.17 1012.73 617.493 1012.73 618.167V620.444H1013.34V618.021C1013.34 617.132 1012.87 616.635 1012.03 616.635C1011.48 616.635 1011.12 616.868 1010.94 617.264H1010.88V616.701H1010.28V620.444ZM1015.76 620.472C1015.88 620.472 1015.99 620.458 1016.11 620.437V619.924C1016 619.934 1015.94 619.937 1015.83 619.937C1015.44 619.937 1015.29 619.76 1015.29 619.319V617.201H1016.11V616.701H1015.29V615.733H1014.67V616.701H1014.08V617.201H1014.67V619.472C1014.67 620.187 1014.99 620.472 1015.76 620.472ZM1017.33 615.979C1017.56 615.979 1017.75 615.792 1017.75 615.562C1017.75 615.333 1017.56 615.146 1017.33 615.146C1017.1 615.146 1016.92 615.333 1016.92 615.562C1016.92 615.792 1017.1 615.979 1017.33 615.979ZM1017.03 620.444H1017.63V616.701H1017.03V620.444ZM1018.77 620.444H1019.37V618.229C1019.37 617.573 1019.75 617.17 1020.35 617.17C1020.95 617.17 1021.23 617.493 1021.23 618.167V620.444H1021.83V618.021C1021.83 617.132 1021.36 616.635 1020.52 616.635C1019.97 616.635 1019.62 616.868 1019.43 617.264H1019.37V616.701H1018.77V620.444ZM1024.18 620.51C1024.73 620.51 1025.1 620.285 1025.29 619.885H1025.34V620.444H1025.95V616.701H1025.34V618.917C1025.34 619.573 1024.99 619.976 1024.33 619.976C1023.74 619.976 1023.49 619.653 1023.49 618.979V616.701H1022.89V619.125C1022.89 620.01 1023.33 620.51 1024.18 620.51ZM1028.6 620.51C1029.49 620.51 1030.02 620.01 1030.15 619.503L1030.16 619.476H1029.55L1029.54 619.507C1029.44 619.733 1029.13 619.972 1028.62 619.972C1027.95 619.972 1027.52 619.521 1027.51 618.746H1030.2V618.51C1030.2 617.392 1029.58 616.635 1028.57 616.635C1027.55 616.635 1026.89 617.427 1026.89 618.583V618.587C1026.89 619.76 1027.53 620.51 1028.6 620.51ZM1028.56 617.174C1029.11 617.174 1029.52 617.524 1029.59 618.264H1027.52C1027.58 617.552 1028.01 617.174 1028.56 617.174Z" fill="white"/>
<path d="M974.222 600.889H1026.41M1051.56 600.889H1037.46" stroke="#E5E1EC" stroke-width="1.77778" stroke-linecap="round"/>
<circle cx="968" cy="600.889" r="1.95556" fill="white" stroke="#E5E1EC" stroke-width="1.42222"/>
<path d="M989.071 731.688C990.27 731.688 991.161 731.021 991.348 729.989V729.981H990.637L990.629 729.989C990.454 730.638 989.856 731.04 989.071 731.04C987.985 731.04 987.305 730.153 987.305 728.743V728.735C987.305 727.325 987.985 726.435 989.067 726.435C989.844 726.435 990.446 726.892 990.633 727.614L990.637 727.622H991.344L991.348 727.614C991.18 726.532 990.254 725.786 989.067 725.786C987.536 725.786 986.583 726.919 986.583 728.735V728.743C986.583 730.556 987.54 731.688 989.071 731.688ZM992.442 731.556H993.122V728.946C993.122 728.329 993.583 727.919 994.231 727.919C994.379 727.919 994.508 727.935 994.649 727.958V727.298C994.583 727.286 994.438 727.271 994.309 727.271C993.739 727.271 993.344 727.528 993.184 727.97H993.122V727.345H992.442V731.556ZM997.09 731.63C998.083 731.63 998.684 731.067 998.829 730.497L998.836 730.466H998.157L998.141 730.501C998.028 730.755 997.676 731.024 997.106 731.024C996.356 731.024 995.875 730.517 995.856 729.646H998.887V729.38C998.887 728.122 998.192 727.271 997.047 727.271C995.903 727.271 995.161 728.161 995.161 729.462V729.466C995.161 730.786 995.887 731.63 997.09 731.63ZM997.043 727.876C997.665 727.876 998.125 728.271 998.196 729.103H995.868C995.942 728.302 996.418 727.876 997.043 727.876ZM1001.1 731.63C1001.66 731.63 1002.11 731.384 1002.37 730.935H1002.43V731.556H1003.11V728.673C1003.11 727.798 1002.54 727.271 1001.51 727.271C1000.61 727.271 999.973 727.716 999.864 728.376L999.86 728.399H1000.54L1000.54 728.388C1000.65 728.06 1000.98 727.872 1001.49 727.872C1002.12 727.872 1002.43 728.153 1002.43 728.673V729.056L1001.23 729.13C1000.25 729.188 999.692 729.622 999.692 730.372V730.38C999.692 731.146 1000.3 731.63 1001.1 731.63ZM1000.39 730.364V730.356C1000.39 729.938 1000.67 729.712 1001.31 729.673L1002.43 729.603V729.985C1002.43 730.587 1001.93 731.04 1001.24 731.04C1000.75 731.04 1000.39 730.79 1000.39 730.364ZM1005.85 731.587C1005.98 731.587 1006.11 731.571 1006.25 731.548V730.97C1006.12 730.981 1006.06 730.985 1005.93 730.985C1005.5 730.985 1005.32 730.786 1005.32 730.29V727.907H1006.25V727.345H1005.32V726.255H1004.62V727.345H1003.96V727.907H1004.62V730.462C1004.62 731.267 1004.98 731.587 1005.85 731.587ZM1008.92 731.63C1009.91 731.63 1010.51 731.067 1010.66 730.497L1010.66 730.466H1009.98L1009.97 730.501C1009.86 730.755 1009.5 731.024 1008.93 731.024C1008.18 731.024 1007.7 730.517 1007.68 729.646H1010.72V729.38C1010.72 728.122 1010.02 727.271 1008.88 727.271C1007.73 727.271 1006.99 728.161 1006.99 729.462V729.466C1006.99 730.786 1007.72 731.63 1008.92 731.63ZM1008.87 727.876C1009.49 727.876 1009.95 728.271 1010.02 729.103H1007.7C1007.77 728.302 1008.25 727.876 1008.87 727.876ZM1013.66 731.556H1014.4L1014.96 729.942H1017.2L1017.77 731.556H1018.51L1016.43 725.919H1015.73L1013.66 731.556ZM1016.05 726.829H1016.11L1017 729.345H1015.17L1016.05 726.829ZM1020.9 731.63C1021.91 731.63 1022.48 731.087 1022.65 730.325L1022.66 730.282L1021.98 730.286L1021.98 730.31C1021.82 730.778 1021.46 731.028 1020.9 731.028C1020.15 731.028 1019.66 730.407 1019.66 729.438V729.431C1019.66 728.481 1020.14 727.872 1020.9 727.872C1021.5 727.872 1021.88 728.208 1021.98 728.622L1021.98 728.634H1022.66L1022.66 728.61C1022.53 727.86 1021.92 727.271 1020.9 727.271C1019.72 727.271 1018.97 728.122 1018.97 729.431V729.438C1018.97 730.774 1019.72 731.63 1020.9 731.63ZM1025.38 731.63C1026.39 731.63 1026.95 731.087 1027.13 730.325L1027.13 730.282L1026.46 730.286L1026.45 730.31C1026.3 730.778 1025.94 731.028 1025.37 731.028C1024.62 731.028 1024.14 730.407 1024.14 729.438V729.431C1024.14 728.481 1024.61 727.872 1025.37 727.872C1025.98 727.872 1026.35 728.208 1026.46 728.622L1026.46 728.634H1027.14L1027.13 728.61C1027.01 727.86 1026.4 727.271 1025.37 727.271C1024.19 727.271 1023.44 728.122 1023.44 729.431V729.438C1023.44 730.774 1024.2 731.63 1025.38 731.63ZM1029.86 731.63C1031.06 731.63 1031.8 730.802 1031.8 729.454V729.446C1031.8 728.095 1031.06 727.271 1029.86 727.271C1028.66 727.271 1027.92 728.095 1027.92 729.446V729.454C1027.92 730.802 1028.66 731.63 1029.86 731.63ZM1029.86 731.028C1029.06 731.028 1028.61 730.446 1028.61 729.454V729.446C1028.61 728.45 1029.06 727.872 1029.86 727.872C1030.66 727.872 1031.11 728.45 1031.11 729.446V729.454C1031.11 730.446 1030.66 731.028 1029.86 731.028ZM1034.27 731.63C1034.88 731.63 1035.31 731.376 1035.52 730.927H1035.58V731.556H1036.26V727.345H1035.58V729.837C1035.58 730.575 1035.18 731.028 1034.44 731.028C1033.77 731.028 1033.5 730.665 1033.5 729.907V727.345H1032.82V730.071C1032.82 731.067 1033.31 731.63 1034.27 731.63ZM1037.53 731.556H1038.21V729.063C1038.21 728.325 1038.63 727.872 1039.31 727.872C1039.98 727.872 1040.29 728.235 1040.29 728.993V731.556H1040.97V728.829C1040.97 727.829 1040.44 727.271 1039.5 727.271C1038.88 727.271 1038.48 727.532 1038.27 727.978H1038.21V727.345H1037.53V731.556ZM1043.7 731.587C1043.83 731.587 1043.96 731.571 1044.09 731.548V730.97C1043.97 730.981 1043.9 730.985 1043.78 730.985C1043.34 730.985 1043.17 730.786 1043.17 730.29V727.907H1044.09V727.345H1043.17V726.255H1042.47V727.345H1041.8V727.907H1042.47V730.462C1042.47 731.267 1042.83 731.587 1043.7 731.587Z" fill="#7958FF"/>
<circle cx="714.667" cy="466.667" r="7.11111" fill="#FF897A"/>
<circle cx="739.556" cy="466.667" r="7.11111" fill="#F4E560"/>
<circle cx="764.444" cy="466.667" r="7.11111" fill="#83DA85"/>
<path d="M708.655 540.889H712.259C714.13 540.889 715.254 539.953 715.254 538.416V538.404C715.254 537.262 714.464 536.423 713.28 536.295V536.192C714.142 536.046 714.817 535.226 714.817 534.315V534.302C714.817 532.959 713.826 532.121 712.18 532.121H708.655V540.889ZM711.864 533.233C712.872 533.233 713.462 533.713 713.462 534.539V534.551C713.462 535.402 712.836 535.852 711.633 535.852H710.016V533.233H711.864ZM711.906 536.891C713.188 536.891 713.863 537.377 713.863 538.319V538.331C713.863 539.273 713.213 539.777 711.985 539.777H710.016V536.891H711.906ZM716.852 540.889H718.171V536.946C718.171 535.992 718.858 535.372 719.866 535.372C720.115 535.372 720.34 535.402 720.577 535.451V534.236C720.444 534.205 720.213 534.175 720 534.175C719.119 534.175 718.505 534.588 718.268 535.287H718.171V534.29H716.852V540.889ZM723.597 540.999C724.472 540.999 725.165 540.622 725.554 539.953H725.657V540.889H726.964V536.374C726.964 534.989 726.028 534.163 724.369 534.163C722.868 534.163 721.829 534.886 721.671 535.967L721.665 536.01H722.935L722.941 535.986C723.099 535.518 723.579 535.25 724.308 535.25C725.201 535.25 725.657 535.651 725.657 536.374V536.958L723.871 537.061C722.297 537.158 721.41 537.845 721.41 539.024V539.036C721.41 540.233 722.339 540.999 723.597 540.999ZM722.722 538.981V538.969C722.722 538.374 723.135 538.045 724.047 537.991L725.657 537.887V538.453C725.657 539.303 724.934 539.947 723.95 539.947C723.239 539.947 722.722 539.589 722.722 538.981ZM728.823 540.889H730.141V537.019C730.141 535.955 730.743 535.293 731.709 535.293C732.675 535.293 733.131 535.834 733.131 536.927V540.889H734.444V536.617C734.444 535.044 733.629 534.163 732.153 534.163C731.193 534.163 730.561 534.588 730.239 535.293H730.141V534.29H728.823V540.889ZM738.691 540.999C739.615 540.999 740.338 540.573 740.72 539.85H740.824V540.889H742.136V531.702H740.824V535.335H740.72C740.368 534.624 739.596 534.175 738.691 534.175C737.014 534.175 735.957 535.493 735.957 537.584V537.596C735.957 539.668 737.032 540.999 738.691 540.999ZM739.068 539.874C737.962 539.874 737.299 539.012 737.299 537.596V537.584C737.299 536.168 737.962 535.305 739.068 535.305C740.161 535.305 740.842 536.174 740.842 537.584V537.596C740.842 539.005 740.168 539.874 739.068 539.874ZM750.279 541.017C751.913 541.017 752.855 540.136 753.092 538.854L753.104 538.799H751.84L751.828 538.829C751.615 539.54 751.105 539.917 750.279 539.917C749.191 539.917 748.516 539.03 748.516 537.571V537.559C748.516 536.137 749.179 535.262 750.279 535.262C751.154 535.262 751.688 535.749 751.834 536.399L751.84 536.417L753.104 536.411V536.38C752.922 535.098 751.931 534.163 750.273 534.163C748.346 534.163 747.174 535.469 747.174 537.559V537.571C747.174 539.704 748.352 541.017 750.279 541.017ZM757.394 541.017C759.326 541.017 760.511 539.722 760.511 537.596V537.584C760.511 535.457 759.32 534.163 757.394 534.163C755.462 534.163 754.271 535.463 754.271 537.584V537.596C754.271 539.722 755.456 541.017 757.394 541.017ZM757.394 539.917C756.258 539.917 755.62 539.06 755.62 537.596V537.584C755.62 536.119 756.258 535.262 757.394 535.262C758.524 535.262 759.168 536.119 759.168 537.584V537.596C759.168 539.054 758.524 539.917 757.394 539.917ZM762.146 540.889H763.464V531.702H762.146V540.889ZM768.222 541.017C770.154 541.017 771.339 539.722 771.339 537.596V537.584C771.339 535.457 770.148 534.163 768.222 534.163C766.29 534.163 765.099 535.463 765.099 537.584V537.596C765.099 539.722 766.284 541.017 768.222 541.017ZM768.222 539.917C767.086 539.917 766.448 539.06 766.448 537.596V537.584C766.448 536.119 767.086 535.262 768.222 535.262C769.352 535.262 769.997 536.119 769.997 537.584V537.596C769.997 539.054 769.352 539.917 768.222 539.917ZM772.913 540.889H774.232V536.946C774.232 535.992 774.918 535.372 775.927 535.372C776.176 535.372 776.401 535.402 776.638 535.451V534.236C776.504 534.205 776.273 534.175 776.061 534.175C775.18 534.175 774.566 534.588 774.329 535.287H774.232V534.29H772.913V540.889Z" fill="#191C1D"/>
<rect x="708" y="549" width="216" height="32.8889" rx="4.88889" fill="white"/>
<rect x="714.667" y="554.778" width="21.3333" height="21.3333" rx="3.55556" fill="#7958FF"/>
<rect x="708" y="549" width="216" height="32.8889" rx="4.88889" stroke="#E6DEFF" stroke-width="0.888889"/>
<rect x="749.333" y="557.333" width="60.4444" height="10.6667" rx="3.55556" fill="#F7F8F8"/>
<rect x="749.333" y="557.333" width="60.4444" height="10.6667" rx="3.55556" fill="#78767F" fill-opacity="0.02"/>
<rect x="749.333" y="557.333" width="60.4444" height="10.6667" rx="3.55556" fill="#5D34F2" fill-opacity="0.16"/>
<path d="M708.655 605.778H714.221V604.605H710.016V601.877H713.997V600.747H710.016V598.182H714.221V597.01H708.655V605.778ZM716.038 605.778H717.357V601.907C717.357 600.844 717.958 600.181 718.924 600.181C719.891 600.181 720.346 600.722 720.346 601.816V605.778H721.659V601.506C721.659 599.932 720.845 599.051 719.368 599.051C718.408 599.051 717.776 599.477 717.454 600.181H717.357V599.179H716.038V605.778ZM725.311 605.887C726.186 605.887 726.878 605.51 727.267 604.842H727.371V605.778H728.677V601.263C728.677 599.878 727.741 599.051 726.082 599.051C724.582 599.051 723.543 599.774 723.385 600.856L723.378 600.898H724.648L724.655 600.874C724.812 600.406 725.293 600.139 726.022 600.139C726.915 600.139 727.371 600.54 727.371 601.263V601.846L725.584 601.95C724.01 602.047 723.123 602.734 723.123 603.912V603.925C723.123 605.122 724.053 605.887 725.311 605.887ZM724.436 603.87V603.858C724.436 603.262 724.849 602.934 725.76 602.879L727.371 602.776V603.341C727.371 604.192 726.648 604.836 725.663 604.836C724.952 604.836 724.436 604.477 724.436 603.87ZM734.043 605.887C735.707 605.887 736.777 604.556 736.777 602.484V602.472C736.777 600.382 735.72 599.063 734.043 599.063C733.137 599.063 732.365 599.513 732.013 600.224H731.916V596.59H730.597V605.778H731.916V604.739H732.013C732.396 605.462 733.119 605.887 734.043 605.887ZM733.672 604.763C732.572 604.763 731.891 603.894 731.891 602.484V602.472C731.891 601.063 732.572 600.194 733.672 600.194C734.772 600.194 735.434 601.056 735.434 602.472V602.484C735.434 603.9 734.772 604.763 733.672 604.763ZM738.411 605.778H739.73V596.59H738.411V605.778ZM744.464 605.905C746.153 605.905 747.064 604.933 747.283 604.064L747.295 604.01L746.025 604.016L746.001 604.064C745.843 604.405 745.339 604.824 744.494 604.824C743.406 604.824 742.714 604.089 742.689 602.825H747.368V602.363C747.368 600.382 746.238 599.051 744.397 599.051C742.556 599.051 741.365 600.431 741.365 602.491V602.497C741.365 604.587 742.531 605.905 744.464 605.905ZM744.403 600.133C745.296 600.133 745.958 600.704 746.062 601.883H742.707C742.823 600.747 743.503 600.133 744.403 600.133ZM752.49 605.778H755.656C758.269 605.778 759.782 604.162 759.782 601.379V601.366C759.782 598.614 758.257 597.01 755.656 597.01H752.49V605.778ZM753.852 604.605V598.182H755.504C757.321 598.182 758.397 599.367 758.397 601.385V601.397C758.397 603.432 757.339 604.605 755.504 604.605H753.852ZM763.264 605.887C764.139 605.887 764.832 605.51 765.22 604.842H765.324V605.778H766.63V601.263C766.63 599.878 765.694 599.051 764.036 599.051C762.535 599.051 761.496 599.774 761.338 600.856L761.332 600.898H762.602L762.608 600.874C762.766 600.406 763.246 600.139 763.975 600.139C764.868 600.139 765.324 600.54 765.324 601.263V601.846L763.537 601.95C761.964 602.047 761.076 602.734 761.076 603.912V603.925C761.076 605.122 762.006 605.887 763.264 605.887ZM762.389 603.87V603.858C762.389 603.262 762.802 602.934 763.714 602.879L765.324 602.776V603.341C765.324 604.192 764.601 604.836 763.616 604.836C762.905 604.836 762.389 604.477 762.389 603.87ZM768.49 605.778H769.808V601.834C769.808 600.88 770.495 600.26 771.503 600.26C771.753 600.26 771.977 600.291 772.214 600.339V599.124C772.081 599.094 771.85 599.063 771.637 599.063C770.756 599.063 770.142 599.477 769.905 600.175H769.808V599.179H768.49V605.778ZM773.533 605.778H774.852V603.378L775.417 602.813L777.689 605.778H779.293L776.358 601.962L779.111 599.179H777.568L774.949 601.962H774.852V596.59H773.533V605.778ZM784.051 605.778H785.291V599.343H785.388L787.958 605.778H788.967L791.543 599.343H791.635V605.778H792.874V597.01H791.306L788.511 604.004H788.414L785.619 597.01H784.051V605.778ZM797.717 605.905C799.649 605.905 800.834 604.611 800.834 602.484V602.472C800.834 600.346 799.643 599.051 797.717 599.051C795.785 599.051 794.594 600.352 794.594 602.472V602.484C794.594 604.611 795.779 605.905 797.717 605.905ZM797.717 604.806C796.581 604.806 795.943 603.949 795.943 602.484V602.472C795.943 601.008 796.581 600.151 797.717 600.151C798.847 600.151 799.491 601.008 799.491 602.472V602.484C799.491 603.943 798.847 604.806 797.717 604.806ZM804.814 605.887C805.738 605.887 806.461 605.462 806.844 604.739H806.947V605.778H808.26V596.59H806.947V600.224H806.844C806.491 599.513 805.72 599.063 804.814 599.063C803.137 599.063 802.08 600.382 802.08 602.472V602.484C802.08 604.556 803.155 605.887 804.814 605.887ZM805.191 604.763C804.085 604.763 803.423 603.9 803.423 602.484V602.472C803.423 601.056 804.085 600.194 805.191 600.194C806.285 600.194 806.965 601.063 806.965 602.472V602.484C806.965 603.894 806.291 604.763 805.191 604.763ZM812.993 605.905C814.682 605.905 815.594 604.933 815.812 604.064L815.825 604.01L814.555 604.016L814.53 604.064C814.372 604.405 813.868 604.824 813.023 604.824C811.936 604.824 811.243 604.089 811.219 602.825H815.898V602.363C815.898 600.382 814.767 599.051 812.926 599.051C811.085 599.051 809.894 600.431 809.894 602.491V602.497C809.894 604.587 811.061 605.905 812.993 605.905ZM812.932 600.133C813.826 600.133 814.488 600.704 814.591 601.883H811.237C811.352 600.747 812.033 600.133 812.932 600.133Z" fill="#191C1D"/>
<rect x="722.667" y="632.111" width="143.111" height="14.2222" rx="3.55556" fill="#F7F8F8"/>
<rect x="722.667" y="632.111" width="143.111" height="14.2222" rx="3.55556" fill="#78767F" fill-opacity="0.02"/>
<rect x="722.667" y="632.111" width="143.111" height="14.2222" rx="3.55556" fill="#5D34F2" fill-opacity="0.16"/>
<g clip-path="url(#clip1_6884_239332)">
<rect x="872.889" y="628.555" width="35.1198" height="21.3333" rx="10.6667" fill="#E0E3E3"/>
<g filter="url(#filter6_d_6884_239332)">
<rect x="874.622" y="630.333" width="17.3333" height="17.7778" rx="8.66667" fill="white"/>
</g>
</g>
<rect x="708.889" y="614.777" width="214.222" height="48.8889" rx="6.66667" stroke="#E6DEFF" stroke-width="0.888889"/>
<g style="mix-blend-mode:multiply">
<path d="M1212 711.111C1246.13 707.556 1256.74 748.148 1257.78 768.889H1061.33C1096.44 719.556 1134.22 748.445 1155.11 751.556C1176 754.667 1169.33 715.556 1212 711.111Z" fill="#E6DEFF"/>
</g>
<rect x="408.889" y="683.556" width="85.3333" height="85.3333" rx="17.0667" fill="#CABEFF"/>
<path d="M451.556 697.778H455.822C459.75 697.778 462.933 700.962 462.933 704.889C462.933 708.816 459.75 712 455.822 712H451.556V697.778Z" fill="#FFD5FF"/>
<path fill-rule="evenodd" clip-rule="evenodd" d="M425.956 683.556C416.53 683.556 408.889 691.197 408.889 700.622V726.222L423.111 726.222V721.956C423.111 718.028 426.295 714.845 430.222 714.845C434.15 714.845 437.333 718.028 437.333 721.956V726.222L451.556 726.222V683.556H425.956Z" fill="#FFD5FF"/>
<path fill-rule="evenodd" clip-rule="evenodd" d="M451.556 726.222H494.223V751.822C494.223 761.248 486.582 768.889 477.156 768.889H451.556V754.667H447.29C443.362 754.667 440.178 751.483 440.178 747.556C440.178 743.628 443.362 740.444 447.29 740.444H451.556V726.222ZM465.779 726.222V730.489C465.779 734.416 468.962 737.6 472.89 737.6C476.817 737.6 480.001 734.416 480.001 730.489V726.222H465.779Z" fill="#947DFF"/>
<path d="M799.111 341.333H756.444C744.662 341.333 735.111 350.885 735.111 362.667V374V393.333V400.333V405.333C735.111 417.116 744.662 426.667 756.444 426.667H771.111H779.444H786.278H793.111H799.111C810.893 426.667 820.444 417.116 820.444 405.333V402.069V399.403V369.333V362.667C820.444 350.885 810.893 341.333 799.111 341.333Z" stroke="#C0BFDB" stroke-width="0.666667" stroke-linecap="round"/>
<path fill-rule="evenodd" clip-rule="evenodd" d="M798.258 384.485C798.258 382.972 798.122 381.518 797.87 380.122H777.778V388.374H789.259C788.764 391.04 787.261 393.3 785.002 394.812V400.165H791.897C795.931 396.451 798.258 390.982 798.258 384.485Z" fill="#4285F4"/>
<path fill-rule="evenodd" clip-rule="evenodd" d="M777.778 405.333C783.538 405.333 788.367 403.423 791.897 400.165L785.002 394.812C783.092 396.092 780.648 396.848 777.778 396.848C772.222 396.848 767.518 393.096 765.841 388.053H758.714V393.58C762.224 400.553 769.438 405.333 777.778 405.333Z" fill="#34A853"/>
<path fill-rule="evenodd" clip-rule="evenodd" d="M765.841 388.053C765.414 386.773 765.172 385.406 765.172 384C765.172 382.593 765.414 381.226 765.841 379.946V374.419H758.714C757.269 377.299 756.444 380.557 756.444 384C756.444 387.442 757.269 390.7 758.714 393.58L765.841 388.053Z" fill="#FBBC05"/>
<path fill-rule="evenodd" clip-rule="evenodd" d="M777.778 371.152C780.91 371.152 783.722 372.228 785.933 374.342L792.052 368.223C788.357 364.781 783.528 362.667 777.778 362.667C769.438 362.667 762.224 367.448 758.714 374.42L765.841 379.947C767.518 374.905 772.222 371.152 777.778 371.152Z" fill="#EA4335"/>
<g filter="url(#filter7_b_6884_239332)">
<rect x="928.889" y="199.111" width="92.4444" height="92.4444" rx="21.3333" fill="#F3EFFA" fill-opacity="0.64"/>
</g>
<path fill-rule="evenodd" clip-rule="evenodd" d="M985.09 238.371C984.854 238.358 984.617 238.356 984.378 238.356C975.858 238.356 968.947 244.145 968.947 251.29C968.947 252.459 969.138 253.592 969.486 254.67C969.109 254.689 968.729 254.704 968.347 254.704C966.475 254.704 964.67 254.45 962.987 253.982C962.891 253.954 962.699 253.899 962.699 253.899L956.575 257.018L958.212 251.891C958.212 251.891 958.109 251.826 958.056 251.793C954.014 249.204 951.407 245.126 951.407 240.538C951.407 232.714 958.991 226.371 968.347 226.371C976.821 226.371 983.843 231.573 985.09 238.371ZM962.451 237.963C961.137 237.963 960.072 236.93 960.072 235.658C960.072 234.386 961.137 233.357 962.451 233.357C963.765 233.357 964.832 234.386 964.832 235.658C964.832 236.93 963.765 237.963 962.451 237.963ZM974.242 233.357C975.556 233.357 976.62 234.386 976.62 235.658C976.62 236.93 975.556 237.963 974.242 237.963C972.927 237.963 971.865 236.93 971.865 235.658C971.865 234.386 972.927 233.357 974.242 233.357Z" fill="#58C457"/>
<path fill-rule="evenodd" clip-rule="evenodd" d="M984.506 263.344C976.601 263.344 970.192 257.986 970.192 251.374C970.192 244.766 976.601 239.407 984.506 239.407C992.408 239.407 998.815 244.766 998.815 251.374C998.815 255.252 996.611 258.697 993.197 260.884L993.066 260.966L994.448 265.299L989.277 262.661C989.277 262.661 989.114 262.71 989.033 262.731C987.612 263.129 986.087 263.344 984.506 263.344ZM977.516 247.251C977.516 246.179 978.417 245.307 979.526 245.307C980.637 245.307 981.537 246.179 981.537 247.251C981.537 248.327 980.637 249.2 979.526 249.2C978.417 249.2 977.516 248.327 977.516 247.251ZM987.473 247.251C987.473 246.179 988.372 245.307 989.482 245.307C990.593 245.307 991.492 246.179 991.492 247.251C991.492 248.327 990.593 249.2 989.482 249.2C988.372 249.2 987.473 248.327 987.473 247.251Z" fill="#58C457"/>
<rect x="1189.33" y="688.889" width="78.2222" height="78.2222" rx="21.3333" fill="#F3EFFA"/>
<path d="M1226.64 706.667C1225.92 706.667 1225.3 707.167 1225.15 707.867L1224.26 711.986C1224.14 712.533 1223.73 712.965 1223.2 713.151C1222.67 713.337 1222.15 713.551 1221.65 713.791C1221.14 714.032 1220.55 714.018 1220.08 713.715L1216.54 711.442C1215.94 711.055 1215.15 711.14 1214.64 711.646L1212.09 714.195C1211.58 714.702 1211.5 715.494 1211.89 716.097L1214.16 719.632C1214.46 720.103 1214.48 720.7 1214.23 721.206C1214 721.708 1213.78 722.224 1213.59 722.754C1213.41 723.282 1212.98 723.693 1212.43 723.812L1208.31 724.708C1207.61 724.86 1207.11 725.48 1207.11 726.197V729.804C1207.11 730.521 1207.61 731.141 1208.31 731.293L1212.43 732.188C1212.98 732.307 1213.41 732.719 1213.59 733.247C1213.78 733.776 1214 734.293 1214.23 734.795C1214.48 735.3 1214.46 735.897 1214.16 736.368L1211.89 739.904C1211.5 740.507 1211.58 741.298 1212.09 741.805L1214.64 744.354C1215.15 744.861 1215.94 744.946 1216.54 744.558L1220.08 742.286C1220.55 741.983 1221.14 741.968 1221.65 742.21C1222.15 742.45 1222.67 742.664 1223.2 742.85C1223.73 743.036 1224.14 743.468 1224.26 744.015L1225.15 748.134C1225.3 748.834 1225.92 749.334 1226.64 749.334H1230.25C1230.97 749.334 1231.58 748.834 1231.74 748.134L1232.63 744.015C1232.75 743.468 1233.16 743.036 1233.69 742.85C1234.22 742.664 1234.74 742.45 1235.24 742.21C1235.74 741.968 1236.34 741.983 1236.81 742.286L1240.35 744.558C1240.95 744.946 1241.74 744.861 1242.25 744.354L1244.8 741.805C1245.31 741.298 1245.39 740.507 1245 739.904L1242.73 736.368C1242.43 735.897 1242.41 735.3 1242.65 734.795C1242.89 734.293 1243.11 733.776 1243.29 733.247C1243.48 732.719 1243.91 732.307 1244.46 732.188L1248.58 731.293C1249.28 731.141 1249.78 730.521 1249.78 729.804V726.197C1249.78 725.48 1249.28 724.86 1248.58 724.708L1244.46 723.812C1243.91 723.693 1243.48 723.282 1243.29 722.754C1243.11 722.225 1242.89 721.708 1242.65 721.206C1242.41 720.7 1242.43 720.103 1242.73 719.632L1245 716.097C1245.39 715.494 1245.31 714.702 1244.8 714.195L1242.25 711.646C1241.74 711.14 1240.95 711.055 1240.35 711.442L1236.81 713.715C1236.34 714.018 1235.74 714.032 1235.24 713.791C1234.74 713.551 1234.22 713.337 1233.69 713.151C1233.16 712.965 1232.75 712.533 1232.63 711.986L1231.74 707.867C1231.58 707.167 1230.97 706.667 1230.25 706.667H1226.64ZM1228.44 718.858C1233.49 718.858 1237.59 722.951 1237.59 728C1237.59 733.05 1233.49 737.143 1228.44 737.143C1223.39 737.143 1219.3 733.05 1219.3 728C1219.3 722.951 1223.39 718.858 1228.44 718.858Z" fill="#947DFF"/>
<path d="M875.556 382.643C864.501 382.643 859.265 372.463 859.265 363.556C859.265 372.463 854.61 382.643 843.556 382.643C854.61 382.643 859.265 388.921 859.265 403.852C859.265 388.921 864.501 382.643 875.556 382.643Z" fill="#FFFBFF"/>
<path d="M1094.22 290.733C1086.85 290.733 1083.36 284.061 1083.36 278.222C1083.36 284.061 1080.26 290.733 1072.89 290.733C1080.26 290.733 1083.36 294.848 1083.36 304.635C1083.36 294.848 1086.85 290.733 1094.22 290.733Z" fill="#AF9EFF"/>
<path d="M583.018 711.116C556.866 711.495 545.517 749.197 543.111 768H770.667C760.478 757.729 735.769 740.127 718.448 751.883C696.796 766.578 698.919 746.195 670.05 731.499C641.181 716.804 639.907 746.195 627.595 746.195C615.284 746.195 615.708 710.642 583.018 711.116Z" fill="#E6DEFF"/>
<rect y="768.889" width="1280" height="55.1111" fill="url(#paint13_linear_6884_239332)"/>
<path d="M1280 768H390.667H353.778M243.556 768H316" stroke="#BBAED1" stroke-width="1.77778" stroke-linecap="round"/>
<path d="M720 784.889H618.53H610.634M581.333 784.889H602.548" stroke="#BBAED1" stroke-width="1.77778" stroke-linecap="round"/>
<path d="M1144 799.111H944.752H936.856M907.556 799.111H928.77" stroke="#BBAED1" stroke-width="1.77778" stroke-linecap="round"/>
</g>
<defs>
<filter id="filter0_b_6884_239332" x="725.778" y="257.333" width="377.778" height="377.778" filterUnits="userSpaceOnUse" color-interpolation-filters="sRGB">
<feFlood flood-opacity="0" result="BackgroundImageFix"/>
<feGaussianBlur in="BackgroundImage" stdDeviation="5.33333"/>
<feComposite in2="SourceAlpha" operator="in" result="effect1_backgroundBlur_6884_239332"/>
<feBlend mode="normal" in="SourceGraphic" in2="effect1_backgroundBlur_6884_239332" result="shape"/>
</filter>
<filter id="filter1_d_6884_239332" x="621.444" y="572.889" width="2.88885" height="2.88873" filterUnits="userSpaceOnUse" color-interpolation-filters="sRGB">
<feFlood flood-opacity="0" result="BackgroundImageFix"/>
<feColorMatrix in="SourceAlpha" type="matrix" values="0 0 0 0 0 0 0 0 0 0 0 0 0 0 0 0 0 0 127 0" result="hardAlpha"/>
<feOffset dy="0.111111"/>
<feGaussianBlur stdDeviation="0.0555556"/>
<feComposite in2="hardAlpha" operator="out"/>
<feColorMatrix type="matrix" values="0 0 0 0 0.104304 0 0 0 0 0.0825 0 0 0 0 0.2 0 0 0 0.02 0"/>
<feBlend mode="normal" in2="BackgroundImageFix" result="effect1_dropShadow_6884_239332"/>
<feBlend mode="normal" in="SourceGraphic" in2="effect1_dropShadow_6884_239332" result="shape"/>
</filter>
<filter id="filter2_d_6884_239332" x="621.778" y="573.667" width="2.00004" height="4.33344" filterUnits="userSpaceOnUse" color-interpolation-filters="sRGB">
<feFlood flood-opacity="0" result="BackgroundImageFix"/>
<feColorMatrix in="SourceAlpha" type="matrix" values="0 0 0 0 0 0 0 0 0 0 0 0 0 0 0 0 0 0 127 0" result="hardAlpha"/>
<feOffset dx="-0.111111" dy="0.444444"/>
<feGaussianBlur stdDeviation="0.166667"/>
<feComposite in2="hardAlpha" operator="out"/>
<feColorMatrix type="matrix" values="0 0 0 0 0.104304 0 0 0 0 0.0825 0 0 0 0 0.2 0 0 0 0.08 0"/>
<feBlend mode="normal" in2="BackgroundImageFix" result="effect1_dropShadow_6884_239332"/>
<feBlend mode="normal" in="SourceGraphic" in2="effect1_dropShadow_6884_239332" result="shape"/>
</filter>
<filter id="filter3_b_6884_239332" x="1011.56" y="328" width="241.778" height="455.111" filterUnits="userSpaceOnUse" color-interpolation-filters="sRGB">
<feFlood flood-opacity="0" result="BackgroundImageFix"/>
<feGaussianBlur in="BackgroundImage" stdDeviation="7.11111"/>
<feComposite in2="SourceAlpha" operator="in" result="effect1_backgroundBlur_6884_239332"/>
<feBlend mode="normal" in="SourceGraphic" in2="effect1_backgroundBlur_6884_239332" result="shape"/>
</filter>
<filter id="filter4_d_6884_239332" x="1132.58" y="412.556" width="3.61109" height="3.61127" filterUnits="userSpaceOnUse" color-interpolation-filters="sRGB">
<feFlood flood-opacity="0" result="BackgroundImageFix"/>
<feColorMatrix in="SourceAlpha" type="matrix" values="0 0 0 0 0 0 0 0 0 0 0 0 0 0 0 0 0 0 127 0" result="hardAlpha"/>
<feOffset dy="0.138889"/>
<feGaussianBlur stdDeviation="0.0694444"/>
<feComposite in2="hardAlpha" operator="out"/>
<feColorMatrix type="matrix" values="0 0 0 0 0.104304 0 0 0 0 0.0825 0 0 0 0 0.2 0 0 0 0.02 0"/>
<feBlend mode="normal" in2="BackgroundImageFix" result="effect1_dropShadow_6884_239332"/>
<feBlend mode="normal" in="SourceGraphic" in2="effect1_dropShadow_6884_239332" result="shape"/>
</filter>
<filter id="filter5_d_6884_239332" x="1133" y="413.528" width="2.50002" height="5.41656" filterUnits="userSpaceOnUse" color-interpolation-filters="sRGB">
<feFlood flood-opacity="0" result="BackgroundImageFix"/>
<feColorMatrix in="SourceAlpha" type="matrix" values="0 0 0 0 0 0 0 0 0 0 0 0 0 0 0 0 0 0 127 0" result="hardAlpha"/>
<feOffset dx="-0.138889" dy="0.555556"/>
<feGaussianBlur stdDeviation="0.208333"/>
<feComposite in2="hardAlpha" operator="out"/>
<feColorMatrix type="matrix" values="0 0 0 0 0.104304 0 0 0 0 0.0825 0 0 0 0 0.2 0 0 0 0.08 0"/>
<feBlend mode="normal" in2="BackgroundImageFix" result="effect1_dropShadow_6884_239332"/>
<feBlend mode="normal" in="SourceGraphic" in2="effect1_dropShadow_6884_239332" result="shape"/>
</filter>
<filter id="filter6_d_6884_239332" x="868.4" y="626.777" width="29.7778" height="30.2223" filterUnits="userSpaceOnUse" color-interpolation-filters="sRGB">
<feFlood flood-opacity="0" result="BackgroundImageFix"/>
<feColorMatrix in="SourceAlpha" type="matrix" values="0 0 0 0 0 0 0 0 0 0 0 0 0 0 0 0 0 0 127 0" result="hardAlpha"/>
<feOffset dy="2.66667"/>
<feGaussianBlur stdDeviation="3.11111"/>
<feColorMatrix type="matrix" values="0 0 0 0 0 0 0 0 0 0 0 0 0 0 0 0 0 0 0.12 0"/>
<feBlend mode="normal" in2="BackgroundImageFix" result="effect1_dropShadow_6884_239332"/>
<feBlend mode="normal" in="SourceGraphic" in2="effect1_dropShadow_6884_239332" result="shape"/>
</filter>
<filter id="filter7_b_6884_239332" x="925.333" y="195.556" width="99.5556" height="99.5554" filterUnits="userSpaceOnUse" color-interpolation-filters="sRGB">
<feFlood flood-opacity="0" result="BackgroundImageFix"/>
<feGaussianBlur in="BackgroundImage" stdDeviation="1.77778"/>
<feComposite in2="SourceAlpha" operator="in" result="effect1_backgroundBlur_6884_239332"/>
<feBlend mode="normal" in="SourceGraphic" in2="effect1_backgroundBlur_6884_239332" result="shape"/>
</filter>
<linearGradient id="paint0_linear_6884_239332" x1="1282.67" y1="371.555" x2="-15.1111" y2="673.334" gradientUnits="userSpaceOnUse">
<stop stop-color="#D3D1EA"/>
<stop offset="0.6875" stop-color="#D3D1EA" stop-opacity="0.94"/>
<stop offset="1" stop-color="#D3D1EA" stop-opacity="0"/>
</linearGradient>
<linearGradient id="paint1_linear_6884_239332" x1="1266.22" y1="647.112" x2="131.111" y2="744.001" gradientUnits="userSpaceOnUse">
<stop offset="0.0104167" stop-color="#CEBEE4"/>
<stop offset="0.677083" stop-color="#D4C8E6" stop-opacity="0.590737"/>
<stop offset="1" stop-color="#E3DDEB" stop-opacity="0"/>
</linearGradient>
<linearGradient id="paint2_linear_6884_239332" x1="962.667" y1="252.889" x2="828" y2="511.111" gradientUnits="userSpaceOnUse">
<stop stop-color="#CFBCEF"/>
<stop offset="1" stop-color="#F5EEFF" stop-opacity="0"/>
</linearGradient>
<linearGradient id="paint3_linear_6884_239332" x1="611.389" y1="575" x2="632.07" y2="568.384" gradientUnits="userSpaceOnUse">
<stop stop-color="#FFF06A"/>
<stop offset="1" stop-color="#EC78FF"/>
</linearGradient>
<linearGradient id="paint4_linear_6884_239332" x1="609.611" y1="576.166" x2="627.667" y2="572.278" gradientUnits="userSpaceOnUse">
<stop stop-color="#492EF3"/>
<stop offset="1" stop-color="#CF69FF"/>
</linearGradient>
<linearGradient id="paint5_linear_6884_239332" x1="622.889" y1="572.889" x2="622.333" y2="575.555" gradientUnits="userSpaceOnUse">
<stop stop-color="#E1BFFF"/>
<stop offset="1" stop-color="#AF68EE"/>
</linearGradient>
<linearGradient id="paint6_linear_6884_239332" x1="622.889" y1="573.667" x2="621.314" y2="576.501" gradientUnits="userSpaceOnUse">
<stop stop-color="#F8F2FF"/>
<stop offset="1" stop-color="#D185F5"/>
</linearGradient>
<linearGradient id="paint7_linear_6884_239332" x1="1223.56" y1="444.444" x2="1080.89" y2="768.889" gradientUnits="userSpaceOnUse">
<stop stop-color="#947DFF" stop-opacity="0"/>
<stop offset="1" stop-color="#B491FE"/>
</linearGradient>
<linearGradient id="paint8_linear_6884_239332" x1="1120.01" y1="415.194" x2="1145.86" y2="406.924" gradientUnits="userSpaceOnUse">
<stop stop-color="#FFF06A"/>
<stop offset="1" stop-color="#EC78FF"/>
</linearGradient>
<linearGradient id="paint9_linear_6884_239332" x1="1117.79" y1="416.653" x2="1140.36" y2="411.792" gradientUnits="userSpaceOnUse">
<stop stop-color="#492EF3"/>
<stop offset="1" stop-color="#CF69FF"/>
</linearGradient>
<linearGradient id="paint10_linear_6884_239332" x1="1134.39" y1="412.556" x2="1133.69" y2="415.889" gradientUnits="userSpaceOnUse">
<stop stop-color="#E1BFFF"/>
<stop offset="1" stop-color="#AF68EE"/>
</linearGradient>
<linearGradient id="paint11_linear_6884_239332" x1="1134.39" y1="413.528" x2="1132.42" y2="417.071" gradientUnits="userSpaceOnUse">
<stop stop-color="#F8F2FF"/>
<stop offset="1" stop-color="#D185F5"/>
</linearGradient>
<linearGradient id="paint12_linear_6884_239332" x1="1078.67" y1="763.112" x2="1172.44" y2="593.334" gradientUnits="userSpaceOnUse">
<stop stop-color="#C7BDE6"/>
<stop offset="1" stop-color="#E4DBFF" stop-opacity="0.16"/>
</linearGradient>
<linearGradient id="paint13_linear_6884_239332" x1="957.778" y1="768.89" x2="56.9278" y2="792.285" gradientUnits="userSpaceOnUse">
<stop stop-color="#D6C8EE"/>
<stop offset="1" stop-color="#D0CFFF" stop-opacity="0"/>
</linearGradient>
<clipPath id="clip0_6884_239332">
<rect width="1280" height="824" fill="white"/>
</clipPath>
<clipPath id="clip1_6884_239332">
<path d="M872.889 639.222C872.889 633.331 877.665 628.555 883.556 628.555H896.889C902.78 628.555 907.556 633.331 907.556 639.222C907.556 645.113 902.78 649.889 896.889 649.889H883.556C877.665 649.889 872.889 645.113 872.889 639.222Z" fill="white"/>
</clipPath>
</defs>
</svg>
