<?xml version="1.0" encoding="UTF-8"?>
<svg version="1.1" xmlns="http://www.w3.org/2000/svg" width="48" height="48">
<path d="M0 0 C15.84 0 31.68 0 48 0 C48 15.84 48 31.68 48 48 C32.16 48 16.32 48 0 48 C0 32.16 0 16.32 0 0 Z " fill="#6E62F5" transform="translate(0,0)"/>
<path d="M0 0 C15.84 0 31.68 0 48 0 C48 15.84 48 31.68 48 48 C32.16 48 16.32 48 0 48 C0 32.16 0 16.32 0 0 Z M4 6 C1.22955602 8.77044398 2.67760266 18.37677534 2.64990234 22.29150391 C2.63333397 24.01039155 2.60603197 25.72921005 2.56787109 27.44775391 C2.51320002 29.92126322 2.49124565 32.39315603 2.4765625 34.8671875 C2.45389313 35.63602264 2.43122375 36.40485779 2.40786743 37.19699097 C2.36143432 39.62558822 2.36143432 39.62558822 3 43 C6.67749485 46.52551078 10.42918983 46.36378611 15.34765625 46.328125 C16.04136826 46.32625183 16.73508026 46.32437866 17.44981384 46.32244873 C18.90970704 46.31575353 20.36958306 46.30188952 21.8293457 46.28125 C24.05892703 46.25005 26.28779988 46.24026934 28.51757812 46.234375 C36.39053473 46.51973329 36.39053473 46.51973329 44 45 C45.36432086 42.27135827 45.12967024 40.09019723 45.1328125 37.0390625 C45.13410156 35.84539063 45.13539062 34.65171875 45.13671875 33.421875 C45.13091797 31.54242187 45.13091797 31.54242187 45.125 29.625 C45.12886719 28.37976563 45.13273437 27.13453125 45.13671875 25.8515625 C45.13542969 24.6553125 45.13414063 23.4590625 45.1328125 22.2265625 C45.13112061 20.58034912 45.13112061 20.58034912 45.12939453 18.90087891 C45.01863036 16.41767167 44.72191178 14.36503175 44 12 C43.34 12 42.68 12 42 12 C41.814375 12.9590625 41.814375 12.9590625 41.625 13.9375 C41.41875 14.618125 41.2125 15.29875 41 16 C38.58226997 17.20886501 37.19324702 17.00483118 34.5 16.9375 C32.00023285 16.82291682 32.00023285 16.82291682 30 18 C30 18.66 30 19.32 30 20 C29.01 20 28.02 20 27 20 C27.66 19.67 28.32 19.34 29 19 C29 17.02 29 15.04 29 13 C27.68 12.34 26.36 11.68 25 11 C25 10.01 25 9.02 25 8 C25.99 8 26.98 8 28 8 C28.33 8.99 28.66 9.98 29 11 C29 10.01 29 9.02 29 8 C29.66 8 30.32 8 31 8 C31.33 8.66 31.66 9.32 32 10 C32 9.01 32 8.02 32 7 C28.02084841 6.97113016 24.04172347 6.95324594 20.0625 6.9375 C18.92619141 6.92912109 17.78988281 6.92074219 16.61914062 6.91210938 C15.53955078 6.90888672 14.45996094 6.90566406 13.34765625 6.90234375 C12.34742432 6.89710693 11.34719238 6.89187012 10.31665039 6.88647461 C8.03792772 6.73818905 8.03792772 6.73818905 7 8 C6.76924918 9.34747084 6.58846937 10.70377565 6.4375 12.0625 C6.2209375 14.0115625 6.2209375 14.0115625 6 16 C6 12.7 6 9.4 6 6 C5.34 6 4.68 6 4 6 Z " fill="#735EE9" transform="translate(0,0)"/>
<path d="M0 0 C0.70511719 0.27070313 1.41023438 0.54140625 2.13671875 0.8203125 C2.13671875 2.8003125 2.13671875 4.7803125 2.13671875 6.8203125 C1.14671875 7.3153125 1.14671875 7.3153125 0.13671875 7.8203125 C1.12671875 7.8203125 2.11671875 7.8203125 3.13671875 7.8203125 C3.46671875 7.1603125 3.79671875 6.5003125 4.13671875 5.8203125 C5.13671875 4.8203125 5.13671875 4.8203125 7.57421875 4.7578125 C8.84265625 4.78875 8.84265625 4.78875 10.13671875 4.8203125 C12.21125435 4.9693837 12.21125435 4.9693837 14.13671875 3.8203125 C14.78885167 1.79567995 14.78885167 1.79567995 15.13671875 -0.1796875 C15.79671875 -0.1796875 16.45671875 -0.1796875 17.13671875 -0.1796875 C18.69765144 5.08777911 18.32103383 10.49909559 18.32421875 15.9453125 C18.33646484 17.05519531 18.34871094 18.16507813 18.36132812 19.30859375 C18.36326172 20.36691406 18.36519531 21.42523438 18.3671875 22.515625 C18.37129639 23.48516113 18.37540527 24.45469727 18.37963867 25.45361328 C18.13671875 27.8203125 18.13671875 27.8203125 16.13671875 29.8203125 C16.13671875 29.1603125 16.13671875 28.5003125 16.13671875 27.8203125 C15.47671875 27.8203125 14.81671875 27.8203125 14.13671875 27.8203125 C14.13671875 28.4803125 14.13671875 29.1403125 14.13671875 29.8203125 C5.88671875 29.8203125 -2.36328125 29.8203125 -10.86328125 29.8203125 C-9.21328125 28.5003125 -7.56328125 27.1803125 -5.86328125 25.8203125 C-5.53328125 26.1503125 -5.20328125 26.4803125 -4.86328125 26.8203125 C-4.53328125 26.1603125 -4.20328125 25.5003125 -3.86328125 24.8203125 C-4.85328125 24.8203125 -5.84328125 24.8203125 -6.86328125 24.8203125 C-6.37749582 21.69740615 -5.86468005 18.82450891 -4.86328125 15.8203125 C-7.83328125 15.8203125 -10.80328125 15.8203125 -13.86328125 15.8203125 C-14.1875 13.6875 -14.1875 13.6875 -13.86328125 10.8203125 C-12.18645208 8.61782235 -10.63781549 6.84941762 -8.67578125 4.9453125 C-8.19302734 4.43484375 -7.71027344 3.924375 -7.21289062 3.3984375 C-3.56618008 -0.22379848 -3.56618008 -0.22379848 0 0 Z " fill="#805FF4" transform="translate(26.86328125,12.1796875)"/>
<path d="M0 0 C15.84 0 31.68 0 48 0 C48 15.84 48 31.68 48 48 C32.16 48 16.32 48 0 48 C0 32.16 0 16.32 0 0 Z M3.54614258 3.5324707 C1.4121418 6.93817825 1.44414171 10.00995589 1.50390625 13.90625 C1.50245102 14.66796509 1.50099579 15.42968018 1.49949646 16.21447754 C1.50115311 17.8215722 1.5126884 19.4286831 1.53344727 21.03564453 C1.56240449 23.49189826 1.55405254 25.94599269 1.54101562 28.40234375 C1.54725349 29.9661563 1.55564482 31.52996204 1.56640625 33.09375 C1.56347061 33.82613892 1.56053497 34.55852783 1.55751038 35.31311035 C1.61517527 38.43868965 1.81843489 40.67042309 3.33959961 43.43164062 C6.77345033 46.67514261 10.67947836 46.12893005 15.15234375 46.1328125 C15.84888565 46.13376923 16.54542755 46.13472595 17.26307678 46.13571167 C18.73487437 46.1363915 20.20667498 46.13455095 21.6784668 46.13037109 C23.92568745 46.12502809 26.1727075 46.13031853 28.41992188 46.13671875 C29.85156294 46.13605778 31.28320388 46.13477621 32.71484375 46.1328125 C34.66571899 46.13112061 34.66571899 46.13112061 36.65600586 46.12939453 C40.46681957 46.10053689 40.46681957 46.10053689 44 45 C46.33361777 41.03229351 46.3213273 36.92027932 46.3359375 32.43359375 C46.3425943 31.7176857 46.3492511 31.00177765 46.35610962 30.26417542 C46.36619524 28.75727902 46.37092791 27.25033832 46.37060547 25.7434082 C46.37499366 23.44082476 46.41139244 21.14013732 46.44921875 18.83789062 C46.45508491 17.36979819 46.45905565 15.9016967 46.4609375 14.43359375 C46.47530853 13.74808945 46.48967957 13.06258514 46.50448608 12.35630798 C46.47215352 8.9710993 46.22649775 7.28577986 44.09619141 4.59790039 C40.29113229 1.6973516 37.13912474 1.80917907 32.5078125 1.76171875 C31.76546356 1.753647 31.02311462 1.74557526 30.25827026 1.73725891 C28.68636407 1.72342283 27.11442788 1.71269854 25.54248047 1.70483398 C23.1410217 1.68761488 20.74093782 1.6437272 18.33984375 1.59960938 C16.81251012 1.58948271 15.28516479 1.58096652 13.7578125 1.57421875 C13.04102325 1.55671066 12.32423401 1.53920258 11.58572388 1.52116394 C8.36604653 1.53514036 6.29715968 1.81441933 3.54614258 3.5324707 Z " fill="#0C0A34" transform="translate(0,0)"/>
<path d="M0 0 C0.99 0.66 1.98 1.32 3 2 C2.67 3.65 2.34 5.3 2 7 C4.97 7 7.94 7 11 7 C10.34 9.97 9.68 12.94 9 16 C9.99 16 10.98 16 12 16 C11.67 16.99 11.34 17.98 11 19 C10.01 19 9.02 19 8 19 C7.67 19.33 7.34 19.66 7 20 C14.59 20.33 22.18 20.66 30 21 C30 20.34 30 19.68 30 19 C31.32 19 32.64 19 34 19 C33.505 21.475 33.505 21.475 33 24 C27.33123028 25.78327256 21.18652133 25.22467628 15.30102539 25.24023438 C13.0733524 25.24995266 10.84659788 25.28100607 8.61914062 25.3125 C7.19531795 25.31902978 5.77148871 25.32428035 4.34765625 25.328125 C3.05867432 25.3374707 1.76969238 25.34681641 0.44165039 25.35644531 C-3.1891699 24.98040803 -5.07475561 24.12070595 -8 22 C-7.34 21.34 -6.68 20.68 -6 20 C-5.53993654 17.79749008 -5.53993654 17.79749008 -5.375 15.375 C-5.26285156 14.14910156 -5.26285156 14.14910156 -5.1484375 12.8984375 C-5.09945313 12.27195312 -5.05046875 11.64546875 -5 11 C-2.69 10.34 -0.38 9.68 2 9 C1.34 7.35 0.68 5.7 0 4 C-0.66 4 -1.32 4 -2 4 C-2 3.34 -2 2.68 -2 2 C-1.34 2 -0.68 2 0 2 C0 1.34 0 0.68 0 0 Z " fill="#7A5FF0" transform="translate(11,21)"/>
<path d="M0 0 C-0.48578543 3.12290635 -0.9986012 5.99580359 -2 9 C1.3 9 4.6 9 8 9 C7.53917014 13.64944408 5.86948806 15.54726508 2.5 18.6875 C-0.67196677 21.5285757 -0.67196677 21.5285757 -3 25 C-4.32 25 -5.64 25 -7 25 C-6.51421457 21.87709365 -6.0013988 19.00419641 -5 16 C-7.97 16 -10.94 16 -14 16 C-14.33203125 13.86328125 -14.33203125 13.86328125 -14 11 C-12.27858339 8.83434684 -10.67620384 7.06585961 -8.6875 5.1875 C-8.18798828 4.68541016 -7.68847656 4.18332031 -7.17382812 3.66601562 C-3.40805697 0 -3.40805697 0 0 0 Z " fill="#E8E3F8" transform="translate(27,12)"/>
<path d="M0 0 C1.12350861 0.00848969 1.12350861 0.00848969 2.26971436 0.01715088 C4.654427 0.03948443 7.03761908 0.08967114 9.421875 0.140625 C11.04164491 0.16069409 12.66143846 0.17894415 14.28125 0.1953125 C18.24537466 0.23933876 22.20836732 0.30834202 26.171875 0.390625 C26.171875 0.720625 26.171875 1.050625 26.171875 1.390625 C20.891875 1.390625 15.611875 1.390625 10.171875 1.390625 C10.171875 2.050625 10.171875 2.710625 10.171875 3.390625 C12.811875 3.720625 15.451875 4.050625 18.171875 4.390625 C18.171875 4.720625 18.171875 5.050625 18.171875 5.390625 C10.251875 5.720625 2.331875 6.050625 -5.828125 6.390625 C-6.488125 11.670625 -7.148125 16.950625 -7.828125 22.390625 C-8.158125 22.390625 -8.488125 22.390625 -8.828125 22.390625 C-8.85503344 19.76555698 -8.87491904 17.14076327 -8.890625 14.515625 C-8.89900391 13.76925781 -8.90738281 13.02289063 -8.91601562 12.25390625 C-8.94140625 6.6171875 -8.94140625 6.6171875 -7.828125 4.390625 C-8.818125 4.885625 -8.818125 4.885625 -9.828125 5.390625 C-10.158125 16.610625 -10.488125 27.830625 -10.828125 39.390625 C-11.158125 39.390625 -11.488125 39.390625 -11.828125 39.390625 C-11.92711115 34.47938911 -11.99964747 29.56873562 -12.04785156 24.65673828 C-12.06794893 22.98638798 -12.09523183 21.31610787 -12.12988281 19.64599609 C-12.17848619 17.2429878 -12.20111156 14.84091066 -12.21875 12.4375 C-12.23939514 11.69256287 -12.26004028 10.94762573 -12.28131104 10.18011475 C-12.28273121 6.88768092 -12.04096346 4.7342535 -10.29296875 1.91210938 C-6.89507371 -0.18532346 -3.86702159 -0.11041247 0 0 Z " fill="#655EDC" transform="translate(13.828125,1.609375)"/>
<path d="M0 0 C0.33 0 0.66 0 1 0 C1.01981934 1.01425049 1.03963867 2.02850098 1.06005859 3.07348633 C1.13613023 6.83643424 1.22484491 10.59899623 1.31738281 14.36157227 C1.35566618 15.99007549 1.39052024 17.61866309 1.421875 19.24731445 C1.46754002 21.58836014 1.52553077 23.9288253 1.5859375 26.26953125 C1.59748871 26.99775589 1.60903992 27.72598053 1.62094116 28.47627258 C1.72878512 32.16961374 1.89884276 33.84826414 4 37 C7.63233102 38.21077701 10.95121987 38.12444164 14.73046875 38.09765625 C15.48088943 38.0962413 16.23131012 38.09482635 17.00447083 38.09336853 C19.3988546 38.0877756 21.79314453 38.07522444 24.1875 38.0625 C25.81184761 38.05748408 27.43619668 38.05292134 29.06054688 38.04882812 C33.04040069 38.03780848 37.02018444 38.02054873 41 38 C40.505 38.99 40.505 38.99 40 40 C28.45 40 16.9 40 5 40 C5 40.33 5 40.66 5 41 C3.02 41 1.04 41 -1 41 C-1.18359241 27.3121658 -0.61491335 13.67200967 0 0 Z " fill="#191545" transform="translate(1,7)"/>
<path d="M0 0 C0.33 0 0.66 0 1 0 C1 13.53 1 27.06 1 41 C-12.86 41 -26.72 41 -41 41 C-41.33 40.34 -41.66 39.68 -42 39 C-40.38774536 39.00785522 -40.38774536 39.00785522 -38.74291992 39.01586914 C-34.75660026 39.03396401 -30.77028424 39.04544846 -26.78393555 39.05493164 C-25.0583434 39.05996158 -23.33275552 39.06678626 -21.60717773 39.07543945 C-19.1274307 39.08756361 -16.64774 39.09324169 -14.16796875 39.09765625 C-13.01001045 39.10539818 -13.01001045 39.10539818 -11.82865906 39.11329651 C-8.6169772 39.11363318 -6.06979734 39.02326578 -3 38 C-0.38845995 34.46305925 -0.65335824 30.39216654 -0.5859375 26.171875 C-0.56657135 25.42286926 -0.5472052 24.67386353 -0.5272522 23.90216064 C-0.46764284 21.51822164 -0.42114646 19.13423386 -0.375 16.75 C-0.33680299 15.13018769 -0.29775025 13.51039532 -0.2578125 11.890625 C-0.16195687 7.92724594 -0.07785754 3.96377181 0 0 Z " fill="#030612" transform="translate(47,7)"/>
<path d="M0 0 C14.85 0 29.7 0 45 0 C40.72726846 2.13636577 37.94074209 2.18840311 33.34765625 2.01953125 C31.83400134 1.98937044 30.32032846 1.96010104 28.80664062 1.93164062 C26.43184544 1.87587581 24.0579569 1.81234752 21.68383789 1.73266602 C19.38418326 1.65991478 17.08562871 1.61886505 14.78515625 1.58203125 C14.0798024 1.54995071 13.37444855 1.51787018 12.64772034 1.4848175 C8.87657706 1.44620842 7.12899899 1.90557342 4.05761719 4.15380859 C1.70989319 7.40128917 1.35393798 8.99403118 1.29296875 12.95703125 C1.26396484 14.06884766 1.23496094 15.18066406 1.20507812 16.32617188 C1.19927734 17.47666016 1.19347656 18.62714844 1.1875 19.8125 C1.16236328 20.98232422 1.13722656 22.15214844 1.11132812 23.35742188 C1.05252818 26.2386193 1.01619468 29.11829983 1 32 C0.67 32 0.34 32 0 32 C0 21.44 0 10.88 0 0 Z " fill="#020610" transform="translate(0,0)"/>
<path d="M0 0 C0.66 0.33 1.32 0.66 2 1 C2 2.98 2 4.96 2 7 C1.01 7.495 1.01 7.495 0 8 C2.97 8 5.94 8 9 8 C9.33 9.32 9.66 10.64 10 12 C10.66 11.67 11.32 11.34 12 11 C12.25 13.8125 12.25 13.8125 12 17 C10.3125 18.9375 10.3125 18.9375 8 20 C5.25 19.6875 5.25 19.6875 3 19 C2.67 19.99 2.34 20.98 2 22 C1.01 21.67 0.02 21.34 -1 21 C-0.43410156 20.46890625 0.13179687 19.9378125 0.71484375 19.390625 C1.44832031 18.68421875 2.18179687 17.9778125 2.9375 17.25 C3.66839844 16.55390625 4.39929688 15.8578125 5.15234375 15.140625 C7.3347044 12.93701342 7.3347044 12.93701342 8 9 C4.7 9 1.4 9 -2 9 C-1.34 6.03 -0.68 3.06 0 0 Z " fill="#8B73F2" transform="translate(27,12)"/>
<path d="M0 0 C1.33332095 2.6666419 0.67102033 4.16680303 0 7 C2.97 7 5.94 7 9 7 C7.24686304 10.50627392 5.58369151 13.09334705 3 16 C2.34 16 1.68 16 1 16 C1 14.02 1 12.04 1 10 C-1.64 9.67 -4.28 9.34 -7 9 C-5.44499019 5.18315774 -2.96404505 2.80804268 0 0 Z " fill="#7E68F5" transform="translate(23,16)"/>
<path d="M0 0 C5.94 0 11.88 0 18 0 C14.13439515 3.86560485 8.03442078 3.06090396 2.84765625 3.09765625 C0.58591675 3.09106226 -1.67581266 3.07921514 -3.9375 3.0625 C-5.67870117 3.05573242 -5.67870117 3.05573242 -7.45507812 3.04882812 C-10.30343934 3.03710647 -13.15169222 3.0206976 -16 3 C-16 2.67 -16 2.34 -16 2 C-10.72 2 -5.44 2 0 2 C0 1.34 0 0.68 0 0 Z " fill="#6E60F3" transform="translate(24,3)"/>
<path d="M0 0 C-0.48578543 3.12290635 -0.9986012 5.99580359 -2 9 C0.97 9 3.94 9 7 9 C7 9.66 7 10.32 7 11 C3.37 11 -0.26 11 -4 11 C-4 9.02 -4 7.04 -4 5 C-5.32 5.33 -6.64 5.66 -8 6 C-3.375 0 -3.375 0 0 0 Z " fill="#F0EFF9" transform="translate(27,12)"/>
<path d="M0 0 C0.99 0.66 1.98 1.32 3 2 C2.67 3.65 2.34 5.3 2 7 C4.97 7 7.94 7 11 7 C10.67 8.65 10.34 10.3 10 12 C9.4225 11.690625 8.845 11.38125 8.25 11.0625 C6.08659691 9.90747972 6.08659691 9.90747972 3.875 9.6875 C2 9 2 9 0.75 6.4375 C0.5025 5.633125 0.255 4.82875 0 4 C-0.66 4 -1.32 4 -2 4 C-2 3.34 -2 2.68 -2 2 C-1.34 2 -0.68 2 0 2 C0 1.34 0 0.68 0 0 Z " fill="#7F6EEE" transform="translate(11,21)"/>
<path d="M0 0 C2.64 0 5.28 0 8 0 C6.4722133 3.43752007 4.49818944 6.18953688 2 9 C1.34 9 0.68 9 0 9 C0.33 7.02 0.66 5.04 1 3 C1.66 3 2.32 3 3 3 C3.33 2.34 3.66 1.68 4 1 C2.68 0.67 1.36 0.34 0 0 Z " fill="#8E79F0" transform="translate(24,23)"/>
<path d="M0 0 C1.32 0 2.64 0 4 0 C3.67 1.65 3.34 3.3 3 5 C2.34 5 1.68 5 1 5 C1 4.34 1 3.68 1 3 C-4.94 3 -10.88 3 -17 3 C-17 2.67 -17 2.34 -17 2 C-11.39 2 -5.78 2 0 2 C0 1.34 0 0.68 0 0 Z " fill="#7954DD" transform="translate(41,40)"/>
<path d="M0 0 C0 2.31 0 4.62 0 7 C-0.99 7 -1.98 7 -3 7 C-3 6.34 -3 5.68 -3 5 C-3.99 4.67 -4.98 4.34 -6 4 C-5.67 3.01 -5.34 2.02 -5 1 C-3 0 -3 0 0 0 Z " fill="#080822" transform="translate(48,0)"/>
<path d="M0 0 C0.33 0.66 0.66 1.32 1 2 C6.28 2 11.56 2 17 2 C17 2.33 17 2.66 17 3 C14.22922802 3.16774403 11.45839073 3.33423936 8.6875 3.5 C7.50897461 3.57154297 7.50897461 3.57154297 6.30664062 3.64453125 C5.1706543 3.71220703 5.1706543 3.71220703 4.01171875 3.78125 C3.31522217 3.82314453 2.61872559 3.86503906 1.90112305 3.90820312 C0.26903034 3.98700971 -1.36600579 4 -3 4 C-3.33 3.34 -3.66 2.68 -4 2 C-2.68 1.34 -1.36 0.68 0 0 Z " fill="#745CE5" transform="translate(7,40)"/>
<path d="M0 0 C0.99 0.33 1.98 0.66 3 1 C1.35 2.98 -0.3 4.96 -2 7 C0.64 7 3.28 7 6 7 C6 7.33 6 7.66 6 8 C4.54257537 8.08096803 3.08387193 8.13917774 1.625 8.1875 C0.81289063 8.22230469 0.00078125 8.25710937 -0.8359375 8.29296875 C-1.55007812 8.19628906 -2.26421875 8.09960938 -3 8 C-3.66 7.01 -4.32 6.02 -5 5 C-3.35 3.35 -1.7 1.7 0 0 Z " fill="#DDDBF5" transform="translate(18,18)"/>
<path d="M0 0 C0.99 0.495 0.99 0.495 2 1 C3.53668865 1.22467831 5.07968054 1.40796805 6.625 1.5625 C7.44226563 1.64628906 8.25953125 1.73007812 9.1015625 1.81640625 C9.72804688 1.87699219 10.35453125 1.93757813 11 2 C11 2.66 11 3.32 11 4 C7.37 4 3.74 4 0 4 C0 2.68 0 1.36 0 0 Z " fill="#EBE9FC" transform="translate(13,24)"/>
<path d="M0 0 C1.43088528 2.86177057 0.59991697 4.93375773 0 8 C-0.99 8 -1.98 8 -3 8 C-3 7.34 -3 6.68 -3 6 C-3.66 5.67 -4.32 5.34 -5 5 C-3.35 3.35 -1.7 1.7 0 0 Z " fill="#8879EF" transform="translate(23,16)"/>
<path d="M0 0 C0.86625 0.556875 0.86625 0.556875 1.75 1.125 C-2.875 4.125 -2.875 4.125 -6.25 4.125 C-6.25 3.135 -6.25 2.145 -6.25 1.125 C-2.80384615 -1.09038462 -2.80384615 -1.09038462 0 0 Z " fill="#8579F0" transform="translate(25.25,10.875)"/>
<path d="M0 0 C2.1875 0.3125 2.1875 0.3125 4 1 C1.03 3.475 1.03 3.475 -2 6 C-2.33 5.01 -2.66 4.02 -3 3 C-1.75 1.4375 -1.75 1.4375 0 0 Z " fill="#8070F5" transform="translate(16,16)"/>
<path d="M0 0 C0.99 0 1.98 0 3 0 C3 0.66 3 1.32 3 2 C3.99 2.33 4.98 2.66 6 3 C4.68 3.99 3.36 4.98 2 6 C1.34 4.02 0.68 2.04 0 0 Z " fill="#040620" transform="translate(0,0)"/>
</svg>
