<svg width="200" height="200" viewBox="0 0 200 200" fill="none" xmlns="http://www.w3.org/2000/svg">
<path fill-rule="evenodd" clip-rule="evenodd" d="M100.001 162.5C134.519 162.5 162.501 134.517 162.501 99.9995C162.501 65.4817 134.519 37.4995 100.001 37.4995C65.4832 37.4995 37.501 65.4817 37.501 99.9995C37.501 134.517 65.4832 162.5 100.001 162.5ZM100.001 131.25C117.26 131.25 131.251 117.258 131.251 99.9995C131.251 82.7406 117.26 68.7495 100.001 68.7495C82.7421 68.7495 68.751 82.7406 68.751 99.9995C68.751 117.258 82.7421 131.25 100.001 131.25Z" fill="#5D34F2" fill-opacity="0.06"/>
<path fill-rule="evenodd" clip-rule="evenodd" d="M100.056 39.062C99.8014 39.062 99.5472 39.0636 99.2934 39.0667L99.2743 37.5043C99.5345 37.5011 99.7951 37.4995 100.056 37.4995C121.48 37.4995 140.388 48.2618 151.66 64.6675L150.373 65.5524C139.379 49.553 120.944 39.062 100.056 39.062ZM49.7394 65.5524C45.5609 71.6337 42.4585 78.5099 40.7058 85.9072L39.1854 85.5469C40.9835 77.958 44.1662 70.9045 48.4516 64.6675L49.7394 65.5524ZM40.0662 111.045C45.2667 139.426 70.1477 160.937 100.056 160.937C118.48 160.937 134.995 152.775 146.179 139.871L147.36 140.894C135.892 154.127 118.952 162.5 100.056 162.5C69.3807 162.5 43.8635 140.438 38.5293 111.327L40.0662 111.045Z" fill="#5D34F2" fill-opacity="0.08"/>
<path d="M55.7197 64.2344L58.633 60.9111C60.242 59.0758 60.0585 56.2836 58.2231 54.6746C56.3878 53.0656 56.2042 50.2734 57.8132 48.4381C59.4222 46.6027 59.2387 43.8105 57.4033 42.2015C55.5679 40.5925 55.3844 37.8003 56.9934 35.965L59.9067 32.6417" stroke="#FFD5FF" stroke-width="5" stroke-linecap="round" stroke-linejoin="round"/>
<rect x="84.376" y="48.5591" width="12.5" height="12.5" rx="5" transform="rotate(-30.6488 84.376 48.5591)" fill="#FFD5FF"/>
<rect x="169.59" y="56.6997" width="6.25" height="6.25" rx="3.125" transform="rotate(35.5802 169.59 56.6997)" fill="#FFD5FF"/>
<rect x="110.938" y="99.9995" width="18.75" height="18.75" rx="5" fill="#FFD5FF"/>
<path fill-rule="evenodd" clip-rule="evenodd" d="M81.7692 67.6042C81.7692 67.3738 81.956 67.187 82.1864 67.187H86.5672C86.7976 67.187 86.9844 67.3738 86.9844 67.6042V75.7085L94.0028 71.6564C94.2024 71.5412 94.4575 71.6096 94.5727 71.8091L96.7631 75.603C96.8784 75.8026 96.81 76.0577 96.6104 76.173L89.5916 80.2253L96.61 84.2773C96.8095 84.3926 96.8779 84.6477 96.7627 84.8473L94.5723 88.6412C94.4571 88.8407 94.2019 88.9091 94.0024 88.7939L86.9844 84.7421V92.8461C86.9844 93.0765 86.7976 93.2633 86.5672 93.2633H82.1864C81.956 93.2633 81.7692 93.0765 81.7692 92.8461V84.7416L74.7503 88.7939C74.5508 88.9091 74.2956 88.8407 74.1804 88.6412L71.99 84.8473C71.8748 84.6477 71.9432 84.3926 72.1427 84.2773L79.1611 80.2253L72.1423 76.173C71.9427 76.0577 71.8743 75.8026 71.9896 75.603L74.18 71.8091C74.2952 71.6096 74.5503 71.5412 74.7499 71.6564L81.7692 75.709V67.6042Z" fill="#AF9EFF"/>
<path fill-rule="evenodd" clip-rule="evenodd" d="M118.907 97.1865C127.191 97.1865 133.907 90.4709 133.907 82.1868C133.907 73.9026 127.191 67.187 118.907 67.187C110.623 67.187 103.907 73.9026 103.907 82.1868C103.907 90.4709 110.623 97.1865 118.907 97.1865ZM118.907 89.6866C123.049 89.6866 126.407 86.3288 126.407 82.1868C126.407 78.0447 123.049 74.6869 118.907 74.6869C114.765 74.6869 111.407 78.0447 111.407 82.1868C111.407 86.3288 114.765 89.6866 118.907 89.6866Z" fill="#FFB95A"/>
<path fill-rule="evenodd" clip-rule="evenodd" d="M31.251 49.9995C34.7028 49.9995 37.501 47.2013 37.501 43.7495C37.501 40.2977 34.7028 37.4995 31.251 37.4995C27.7992 37.4995 25.001 40.2977 25.001 43.7495C25.001 47.2013 27.7992 49.9995 31.251 49.9995ZM31.251 46.8745C32.9769 46.8745 34.376 45.4754 34.376 43.7495C34.376 42.0236 32.9769 40.6245 31.251 40.6245C29.5251 40.6245 28.126 42.0236 28.126 43.7495C28.126 45.4754 29.5251 46.8745 31.251 46.8745Z" fill="#FFB95A"/>
<path fill-rule="evenodd" clip-rule="evenodd" d="M170.313 32.0308C172.039 32.0308 173.438 30.6317 173.438 28.9058C173.438 27.1799 172.039 25.7808 170.313 25.7808C168.588 25.7808 167.188 27.1799 167.188 28.9058C167.188 30.6317 168.588 32.0308 170.313 32.0308ZM170.313 30.4683C171.176 30.4683 171.876 29.7687 171.876 28.9058C171.876 28.0428 171.176 27.3433 170.313 27.3433C169.451 27.3433 168.751 28.0428 168.751 28.9058C168.751 29.7687 169.451 30.4683 170.313 30.4683Z" fill="#FFDDB5"/>
<path d="M54.0898 170.608C53.8355 173.273 56.832 175.003 59.0132 173.45L132.041 121.457C133.894 120.137 133.761 117.342 131.791 116.205L67.277 78.9577C65.3065 77.82 62.8197 79.1022 62.6036 81.3672L54.0898 170.608Z" fill="url(#paint0_linear_1319_38463)"/>
<mask id="mask0_1319_38463" style="mask-type:alpha" maskUnits="userSpaceOnUse" x="54" y="78" width="80" height="97">
<path d="M54.0898 170.608C53.8355 173.273 56.832 175.003 59.0132 173.45L132.041 121.457C133.894 120.137 133.761 117.342 131.791 116.205L67.277 78.9577C65.3065 77.82 62.8197 79.1022 62.6036 81.3672L54.0898 170.608Z" fill="#AF9EFF"/>
</mask>
<g mask="url(#mask0_1319_38463)">
<path d="M44.7314 97.6772C44.7314 97.125 45.1792 96.6772 45.7314 96.6772H143.731C144.284 96.6772 144.731 97.125 144.731 97.6772V108.177C144.731 108.73 144.284 109.177 143.731 109.177H45.7314C45.1792 109.177 44.7314 108.73 44.7314 108.177V97.6772Z" fill="#EA9DF4"/>
<path d="M29.1064 124.741C29.1064 124.189 29.5542 123.741 30.1064 123.741H128.106C128.659 123.741 129.106 124.189 129.106 124.741V135.241C129.106 135.793 128.659 136.241 128.106 136.241H30.1064C29.5542 136.241 29.1064 135.793 29.1064 135.241V124.741Z" fill="#EA9DF4"/>
<path d="M13.4814 151.804C13.4814 151.252 13.9292 150.804 14.4814 150.804H112.481C113.034 150.804 113.481 151.252 113.481 151.804V162.304C113.481 162.856 113.034 163.304 112.481 163.304H14.4814C13.9292 163.304 13.4814 162.856 13.4814 162.304V151.804Z" fill="#EA9DF4"/>
</g>
<path fill-rule="evenodd" clip-rule="evenodd" d="M127.76 48.3885C127.201 47.7315 127.28 46.7453 127.937 46.1859L131.302 43.3206C132.503 42.2977 132.648 40.4946 131.625 39.2933C129.483 36.7779 129.786 33.0025 132.301 30.8606L135.666 27.9954C136.323 27.4359 137.309 27.515 137.868 28.172C138.428 28.829 138.349 29.8152 137.692 30.3747L134.327 33.2399C133.126 34.2628 132.981 36.066 134.004 37.2673C136.146 39.7826 135.843 43.558 133.328 45.6999L129.963 48.5651C129.306 49.1246 128.32 49.0455 127.76 48.3885Z" fill="#C4C7C7"/>
<path d="M132.032 64.3911L136.415 64.9582C138.836 65.2715 141.052 63.5631 141.365 61.1425C141.678 58.7219 143.895 57.0135 146.315 57.3268C148.736 57.64 150.952 55.9316 151.265 53.511C151.578 51.0904 153.795 49.3821 156.215 49.6953L160.598 50.2624" stroke="#CABEFF" stroke-width="5" stroke-linecap="round" stroke-linejoin="round"/>
<path fill-rule="evenodd" clip-rule="evenodd" d="M95.8351 27.7865C96.6725 27.5783 97.1827 26.7306 96.9745 25.8932L95.9083 21.6043C95.5277 20.073 96.4604 18.5232 97.9916 18.1425C101.198 17.3455 103.151 14.1003 102.354 10.8942L101.288 6.6053C101.079 5.76784 100.232 5.25771 99.3943 5.46589C98.5569 5.67407 98.0467 6.52173 98.2549 7.35918L99.3211 11.6481C99.7017 13.1793 98.769 14.7292 97.2378 15.1098C94.0316 15.9068 92.0786 19.152 92.8756 22.3582L93.9418 26.6471C94.15 27.4845 94.9976 27.9946 95.8351 27.7865Z" fill="#E6DEFF"/>
<path fill-rule="evenodd" clip-rule="evenodd" d="M148.925 113.68C149.537 114.288 150.526 114.284 151.134 113.671L154.248 110.535C155.359 109.415 157.168 109.408 158.288 110.52C160.633 112.847 164.42 112.833 166.748 110.488L169.861 107.351C170.469 106.739 170.465 105.749 169.852 105.141C169.24 104.533 168.251 104.537 167.643 105.15L164.529 108.286C163.418 109.406 161.609 109.413 160.489 108.302C158.144 105.974 154.357 105.989 152.03 108.333L148.916 111.47C148.308 112.083 148.312 113.072 148.925 113.68Z" fill="#E6DEFF"/>
<defs>
<linearGradient id="paint0_linear_1319_38463" x1="52.736" y1="174.609" x2="135.197" y2="121.213" gradientUnits="userSpaceOnUse">
<stop stop-color="#492EF3"/>
<stop offset="1" stop-color="#CF69FF"/>
</linearGradient>
</defs>
</svg>
