<svg width="48" height="48" viewBox="0 0 48 48" fill="none" xmlns="http://www.w3.org/2000/svg">
<g clip-path="url(#clip0_129_41815)">
<path d="M8 8H40.0003V40H8V8Z" fill="#F7DF1E"/>
<path d="M16.4139 34.7415L18.8627 33.2595C19.3352 34.0971 19.7649 34.8059 20.7958 34.8059C21.7839 34.8059 22.4071 34.4194 22.4071 32.9159V22.6911H25.4142V32.9584C25.4142 36.073 23.5884 37.4908 20.9247 37.4908C18.5191 37.4908 17.1227 36.2449 16.4138 34.7413" fill="black"/>
<path d="M25.0001 34.9001L27.4486 33.4825C28.0932 34.5351 28.931 35.3084 30.413 35.3084C31.6591 35.3084 32.4536 34.6854 32.4536 33.8261C32.4536 32.7951 31.6374 32.4299 30.2626 31.8286L29.511 31.5061C27.3414 30.5827 25.9023 29.4228 25.9023 26.974C25.9023 24.7185 27.6206 23 30.3057 23C32.2175 23 33.5922 23.666 34.5802 25.4059L32.2387 26.9096C31.7231 25.986 31.1649 25.6209 30.3056 25.6209C29.4249 25.6209 28.8664 26.1794 28.8664 26.9096C28.8664 27.8117 29.4249 28.1771 30.7136 28.7356L31.4654 29.0578C34.0216 30.1534 35.4607 31.2703 35.4607 33.7833C35.4607 36.49 33.3342 37.972 30.4774 37.972C27.685 37.972 25.8806 36.6402 25 34.9002" fill="black"/>
</g>
<defs>
<clipPath id="clip0_129_41815">
<rect width="32.0003" height="32" fill="white" transform="translate(8 8)"/>
</clipPath>
</defs>
</svg>
