<svg width="40" height="40" viewBox="0 0 40 40" fill="none" xmlns="http://www.w3.org/2000/svg">
<g clip-path="url(#clip0_9094_17611)">
<path d="M0 0H40V40H0V0Z" fill="#F7DF1E"/>
<path d="M10.5175 33.4282L13.5784 31.5757C14.1691 32.6227 14.7062 33.5087 15.9948 33.5087C17.23 33.5087 18.0089 33.0255 18.0089 31.1462V18.3652H21.7678V31.1993C21.7678 35.0926 19.4856 36.8648 16.1559 36.8648C13.1489 36.8648 11.4034 35.3074 10.5173 33.4279" fill="black"/>
<path d="M21.2502 33.6252L24.3108 31.8531C25.1166 33.1689 26.1638 34.1355 28.0163 34.1355C29.5739 34.1355 30.567 33.3567 30.567 32.2827C30.567 30.9939 29.5467 30.5373 27.8283 29.7858L26.8887 29.3827C24.1767 28.2284 22.3778 26.7784 22.3778 23.7175C22.3778 20.8981 24.5258 18.75 27.8822 18.75C30.2719 18.75 31.9903 19.5825 33.2253 21.7573L30.2984 23.637C29.6539 22.4825 28.9561 22.0261 27.882 22.0261C26.7811 22.0261 26.083 22.7242 26.083 23.637C26.083 24.7647 26.7811 25.2214 28.392 25.9195L29.3317 26.3222C32.527 27.6917 34.3259 29.0878 34.3259 32.2291C34.3259 35.6125 31.6678 37.465 28.0967 37.465C24.6062 37.465 22.3508 35.8003 21.25 33.6253" fill="black"/>
</g>
<defs>
<clipPath id="clip0_9094_17611">
<rect width="40" height="40" fill="white"/>
</clipPath>
</defs>
</svg>
