<svg width="40" height="40" viewBox="0 0 40 40" fill="none" xmlns="http://www.w3.org/2000/svg">
<path fill-rule="evenodd" clip-rule="evenodd" d="M37.9805 5.50944L7.18874 29.0059C3.40757 22.1294 2.09786 13.8341 2 8.85887V5.81364C2 5.37069 2.4791 5.11235 2.71871 5.03847C7.7865 3.50668 18.077 0.398649 18.6962 0.221472C19.3153 0.0442944 19.8386 0 20.0231 0H20.0398C20.2241 0 20.7474 0.0442944 21.3667 0.221472C21.9859 0.398649 32.2764 3.50668 37.3441 5.03847C37.5224 5.09341 37.8331 5.25044 37.9805 5.50944Z" fill="url(#paint0_linear_10966_21375)"/>
<path fill-rule="evenodd" clip-rule="evenodd" d="M7.18848 29.0442L37.9802 5.54785C38.0311 5.63722 38.0627 5.73854 38.0627 5.85206V8.89728C37.8968 17.3317 34.2478 35.3078 20.9794 39.7373C20.7952 39.8111 20.3602 39.9588 20.0949 39.9588H19.9675C19.7021 39.9588 19.2671 39.8111 19.0829 39.7373C13.6411 37.9206 9.81739 33.8254 7.18848 29.0442Z" fill="url(#paint1_linear_10966_21375)"/>
<path d="M21.2655 0.221915C20.646 0.044383 20.1224 0 19.9379 0L19.8826 40H19.9933C20.2588 40 20.6939 39.8521 20.8783 39.7781C34.1533 35.3398 37.8039 17.3278 37.9698 8.87657V5.82526C37.9698 5.38143 37.4905 5.12252 37.2507 5.04855C32.1805 3.51365 21.885 0.399447 21.2655 0.221915Z" fill="url(#paint2_linear_10966_21375)" fill-opacity="0.21"/>
<path d="M20.087 27.9607C24.6387 27.9607 28.3286 24.2846 28.3286 19.7499C28.3286 15.2152 24.6387 11.5391 20.087 11.5391C15.5353 11.5391 11.8455 15.2152 11.8455 19.7499C11.8455 24.2846 15.5353 27.9607 20.087 27.9607Z" fill="#E3E2FA"/>
<path fill-rule="evenodd" clip-rule="evenodd" d="M18.5938 21.5252C17.9669 21.5807 16.3813 21.3034 15.6069 20.6376C14.7754 19.9227 14.3347 18.9733 14.3347 17.5862C14.3347 15.8655 15.8835 14.0356 18.0407 14.0911C20.0895 14.1437 21.4714 15.3022 21.7466 17.1424C21.8902 18.1027 21.7439 18.5643 21.6301 18.9228C21.6125 18.9786 21.5956 19.0319 21.5808 19.0841C21.5254 19.2692 21.448 19.6723 21.5808 19.8054C21.7133 19.9386 23.7378 21.8951 24.7335 22.8566C24.8256 22.9676 25.0101 23.245 25.0101 23.4669V24.5211C25.0101 24.6875 24.9658 24.743 24.7889 24.743H22.5763C22.4473 24.7245 22.189 24.5987 22.189 24.2437C22.189 23.8652 22.1489 23.8095 22.0683 23.6979C22.0545 23.6787 22.0394 23.6578 22.0232 23.6334C21.9125 23.4669 21.6913 23.4669 21.4701 23.4669C21.2489 23.4669 21.0828 23.4114 20.9723 23.3005C20.8616 23.1895 20.8616 23.0232 20.917 22.8013C20.9723 22.5792 20.917 22.3574 20.8063 22.3019C20.7887 22.293 20.7683 22.2815 20.7454 22.2683C20.624 22.1991 20.4304 22.0888 20.1978 22.1355C19.9213 22.191 19.534 22.1355 19.3128 21.9136C19.0916 21.6916 18.815 21.5124 18.5938 21.5252ZM17.1003 17.309C17.5585 17.309 17.93 16.9364 17.93 16.4768C17.93 16.0172 17.5585 15.6446 17.1003 15.6446C16.6421 15.6446 16.2706 16.0172 16.2706 16.4768C16.2706 16.9364 16.6421 17.309 17.1003 17.309Z" fill="url(#paint3_linear_10966_21375)"/>
<defs>
<linearGradient id="paint0_linear_10966_21375" x1="5.37405" y1="16.6991" x2="18.8571" y2="2.64791" gradientUnits="userSpaceOnUse">
<stop stop-color="#45FFC8"/>
<stop offset="1" stop-color="#1DBBF1"/>
</linearGradient>
<linearGradient id="paint1_linear_10966_21375" x1="14.7215" y1="24.8544" x2="31.4451" y2="32.9704" gradientUnits="userSpaceOnUse">
<stop stop-color="#D14AE8"/>
<stop offset="0.552228" stop-color="#B628E3"/>
<stop offset="1" stop-color="#8315FD"/>
</linearGradient>
<linearGradient id="paint2_linear_10966_21375" x1="28.8817" y1="3.77254" x2="28.8817" y2="31.5673" gradientUnits="userSpaceOnUse">
<stop stop-color="#20ABF5"/>
<stop offset="0.398093" stop-color="#2A8CC3"/>
<stop offset="1" stop-color="#A104DC"/>
</linearGradient>
<linearGradient id="paint3_linear_10966_21375" x1="17.5428" y1="17.1979" x2="24.3113" y2="24.0015" gradientUnits="userSpaceOnUse">
<stop stop-color="#FE5B01"/>
<stop offset="1" stop-color="#FFB200"/>
</linearGradient>
</defs>
</svg>
