<svg width="40" height="40" viewBox="0 0 40 40" fill="none" xmlns="http://www.w3.org/2000/svg">
<path d="M22.4 33.3327H37.2C37.6723 33.3327 38.1243 33.1668 38.5333 32.9327C38.9424 32.6987 39.364 32.4048 39.6 31.9993C39.836 31.5939 40.0002 31.1339 40 30.6659C39.9998 30.1978 39.8364 29.738 39.6 29.3328L29.6 12.1327C29.364 11.7273 29.0756 11.4334 28.6667 11.1993C28.2577 10.9654 27.6722 10.7993 27.2 10.7993C26.7278 10.7993 26.2756 10.9654 25.8667 11.1993C25.4577 11.4334 25.1693 11.7273 24.9333 12.1327L22.4 16.5327L17.3333 7.99903C17.0971 7.59375 16.8091 7.16668 16.4 6.93271C15.9909 6.69866 15.539 6.66602 15.0667 6.66602C14.5944 6.66602 14.1424 6.69866 13.7333 6.93271C13.3243 7.16668 12.9029 7.59375 12.6667 7.99903L0.266671 29.3328C0.030265 29.738 0.000208582 30.1978 1.03448e-06 30.6659C-0.000206513 31.1339 0.0306235 31.5938 0.266671 31.9993C0.502718 32.4047 0.924331 32.6987 1.33333 32.9327C1.74234 33.1668 2.19437 33.3327 2.66667 33.3327H12C15.6982 33.3327 18.39 31.6737 20.2667 28.5327L24.8 20.666L27.2 16.5327L34.5333 29.066H24.8L22.4 33.3327ZM11.8667 29.066H5.3333L15.0667 12.266L20 20.666L16.7322 26.3626C15.4859 28.4006 14.065 29.066 11.8667 29.066Z" fill="#00DC82"/>
</svg>
