<svg width="40" height="40" viewBox="0 0 40 40" fill="none" xmlns="http://www.w3.org/2000/svg">
<path d="M20.2745 39.4509C31.1686 39.4509 40 30.6195 40 19.7255C40 8.83139 31.1686 0 20.2745 0C9.38046 0 0.549072 8.83139 0.549072 19.7255C0.549072 30.6195 9.38046 39.4509 20.2745 39.4509Z" fill="#5C2D91"/>
<path opacity="0.1" d="M6.60232 5.54785C4.59708 7.33474 2.97789 9.51232 1.84399 11.9471C0.710096 14.3819 0.0853873 17.0226 0.00815682 19.7074C-0.0690737 22.3922 0.402801 25.0644 1.39486 27.5604C2.38691 30.0563 3.87825 32.3234 5.77746 34.2226C7.67666 36.1218 9.94372 37.6131 12.4397 38.6052C14.9356 39.5973 17.6079 40.0691 20.2927 39.9919C22.9774 39.9147 25.6181 39.29 28.0529 38.1561C30.4877 37.0222 32.6653 35.403 34.4522 33.3977L6.60232 5.54785Z" fill="white"/>
<path d="M5.11044 22.9629C4.99538 22.9647 4.88119 22.9427 4.77509 22.8981C4.66898 22.8535 4.57328 22.7874 4.49402 22.704C4.41258 22.6236 4.34822 22.5275 4.3048 22.4216C4.26137 22.3157 4.23977 22.2021 4.24129 22.0876C4.24046 21.9732 4.26238 21.8598 4.30577 21.754C4.34916 21.6482 4.41315 21.5521 4.49402 21.4712C4.5725 21.3863 4.66792 21.3189 4.7741 21.2732C4.88028 21.2276 4.99487 21.2047 5.11044 21.2061C5.22585 21.2058 5.34008 21.2292 5.4461 21.2748C5.55213 21.3204 5.64768 21.3872 5.72686 21.4712C5.80913 21.5513 5.87444 21.6472 5.91891 21.7531C5.96339 21.859 5.98612 21.9727 5.98576 22.0876C5.98683 22.2026 5.96443 22.3165 5.91991 22.4225C5.87539 22.5285 5.8097 22.6243 5.72686 22.704C5.64693 22.7866 5.55109 22.8521 5.44515 22.8966C5.33921 22.9411 5.22535 22.9636 5.11044 22.9629Z" fill="white"/>
<path d="M17.3589 22.8077H15.7438L9.96799 13.8449C9.82411 13.6241 9.70426 13.3885 9.61046 13.1422H9.56115C9.61604 13.6539 9.63663 14.1688 9.62279 14.6832V22.8077H8.30981V11.5703H10.0173L15.6391 20.3728C15.8733 20.7385 16.0253 20.9892 16.0952 21.1248H16.126C16.061 20.5767 16.0342 20.0247 16.0459 19.4728V11.5703H17.3589V22.8077Z" fill="white"/>
<path d="M26.2475 22.8077H20.2744V11.5703H25.9701V12.76H21.6182V16.4955H25.6743V17.679H21.6182V21.5748H26.2537L26.2475 22.8077Z" fill="white"/>
<path d="M35.0686 12.76H31.8016V22.8077H30.4886V12.76H27.2585V11.5703H35.0686V12.76Z" fill="white"/>
<path d="M16.65 30.4507C16.2049 30.6662 15.714 30.7699 15.2199 30.7528C14.8915 30.7675 14.5638 30.712 14.2586 30.5897C13.9535 30.4674 13.6781 30.2813 13.4507 30.0439C12.9978 29.5369 12.7592 28.874 12.785 28.1946C12.7684 27.8268 12.8259 27.4594 12.954 27.1142C13.0822 26.769 13.2783 26.453 13.5309 26.1851C13.777 25.9329 14.0729 25.7348 14.3998 25.6032C14.7266 25.4716 15.0773 25.4095 15.4295 25.4207C15.8509 25.4063 16.2708 25.4798 16.6623 25.6365V26.2529C16.2853 26.0442 15.8603 25.9379 15.4295 25.9447C15.1579 25.937 14.8878 25.9881 14.6378 26.0945C14.3878 26.2009 14.1637 26.3601 13.9809 26.5611C13.5964 26.9991 13.3975 27.5694 13.4261 28.1515C13.3973 28.7028 13.5828 29.244 13.9439 29.6617C14.1171 29.8479 14.3285 29.9945 14.5636 30.0913C14.7988 30.1881 15.0521 30.2329 15.3062 30.2226C15.7795 30.235 16.2469 30.1155 16.6561 29.8774L16.65 30.4507Z" fill="#F2F2F2"/>
<path d="M19.1712 30.7529C18.9259 30.7609 18.6816 30.716 18.4551 30.6213C18.2286 30.5267 18.0251 30.3845 17.8583 30.2043C17.5212 29.8281 17.3462 29.3342 17.3713 28.8297C17.3559 28.5654 17.3932 28.3007 17.481 28.0509C17.5689 27.8012 17.7055 27.5714 17.8829 27.3749C18.064 27.1982 18.2794 27.0605 18.5159 26.9704C18.7523 26.8803 19.0048 26.8396 19.2575 26.851C19.4965 26.8383 19.7354 26.8774 19.9577 26.9657C20.1801 27.054 20.3808 27.1894 20.5459 27.3626C20.8735 27.7574 21.0388 28.2621 21.0082 28.7742C21.034 29.294 20.8547 29.8031 20.5089 30.192C20.339 30.3756 20.1316 30.5207 19.9009 30.6175C19.6701 30.7143 19.4213 30.7604 19.1712 30.7529ZM19.2144 27.3811C19.0448 27.374 18.8758 27.4052 18.72 27.4724C18.5642 27.5397 18.4256 27.6412 18.3144 27.7694C18.0772 28.0749 17.959 28.456 17.9816 28.842C17.96 29.2166 18.0787 29.5857 18.3144 29.8776C18.4267 30.0041 18.5657 30.1039 18.7214 30.17C18.877 30.2361 19.0454 30.2668 19.2144 30.2598C19.3798 30.2695 19.5453 30.2413 19.6981 30.1772C19.8509 30.1131 19.987 30.0148 20.0959 29.8899C20.32 29.5837 20.4291 29.2083 20.4041 28.8297C20.4285 28.4492 20.3195 28.0721 20.0959 27.7633C19.9885 27.6358 19.853 27.5349 19.7 27.4686C19.5471 27.4023 19.3809 27.3724 19.2144 27.3811Z" fill="#F2F2F2"/>
<path d="M23.8867 27.5658C23.7536 27.4786 23.5955 27.4375 23.4367 27.4487C23.3126 27.4532 23.1914 27.4882 23.0839 27.5505C22.9764 27.6129 22.8859 27.7007 22.8203 27.8062C22.6369 28.0967 22.5485 28.4371 22.5676 28.7802V30.6664H21.9512V26.9679H22.5676V27.7384C22.6354 27.5 22.7701 27.2861 22.9559 27.122C23.1167 26.9825 23.3225 26.9058 23.5354 26.9062C23.6545 26.9009 23.7737 26.9176 23.8867 26.9556V27.5658Z" fill="#F2F2F2"/>
<path d="M27.4989 28.972H24.8915C24.874 29.3166 24.9861 29.6553 25.2058 29.9213C25.3201 30.0353 25.4571 30.1238 25.608 30.1812C25.7588 30.2386 25.92 30.2634 26.0811 30.2542C26.499 30.25 26.9032 30.1044 27.2277 29.8412V30.396C26.8466 30.6472 26.3953 30.7703 25.9394 30.7473C25.7093 30.7589 25.4796 30.7197 25.2665 30.6323C25.0534 30.5449 24.8622 30.4116 24.7065 30.2419C24.3856 29.8416 24.2252 29.3362 24.2565 28.8241C24.2344 28.3108 24.4085 27.8082 24.7435 27.4187C24.896 27.2425 25.0857 27.1025 25.2989 27.0087C25.5121 26.9149 25.7435 26.8696 25.9764 26.8762C26.1866 26.8644 26.3968 26.9005 26.5911 26.9816C26.7854 27.0627 26.9588 27.1869 27.0982 27.3447C27.3821 27.719 27.5221 28.1827 27.4928 28.6515L27.4989 28.972ZM26.8825 28.4727C26.895 28.1871 26.8078 27.906 26.6359 27.6776C26.5516 27.5823 26.4468 27.5072 26.3294 27.4581C26.2119 27.409 26.0849 27.3871 25.9579 27.394C25.8252 27.3924 25.6937 27.4184 25.5716 27.4704C25.4496 27.5224 25.3397 27.5992 25.249 27.696C25.0461 27.9107 24.9185 28.1854 24.8853 28.4789L26.8825 28.4727Z" fill="#F2F2F2"/>
</svg>
