<svg width="24" height="24" viewBox="0 0 24 24" fill="none" xmlns="http://www.w3.org/2000/svg">
<g clip-path="url(#clip0_382_112)">
<path d="M23.8105 18.7044C23.903 18.9698 23.941 19.2511 23.9223 19.5315C23.9037 19.8119 23.8287 20.0856 23.7019 20.3364C23.5205 20.6925 23.2615 21.0033 22.944 21.2459C22.5012 21.5768 22.0171 21.8486 21.504 22.0543C20.8816 22.3161 20.2438 22.5397 19.5941 22.7238C18.6537 22.9841 17.6846 23.1267 16.7091 23.1482C15.3398 23.1608 14.16 22.8375 13.3238 22.0114C12.4736 22.1215 11.6129 22.124 10.7621 22.0189C9.91833 22.84 8.74359 23.1608 7.37938 23.1482C6.40303 23.1265 5.43312 22.9839 4.4918 22.7238C3.84313 22.5392 3.20618 22.3156 2.58444 22.0543C2.00844 21.8067 1.53096 21.549 1.14949 21.2459C0.829732 21.0043 0.568885 20.6933 0.386541 20.3364C0.136436 19.8312 0.0884359 19.2501 0.280436 18.7044C0.0923862 18.2534 0.0629932 17.752 0.197067 17.2821C0.260225 17.0421 0.363804 16.8198 0.495173 16.6227C0.386537 16.251 0.378403 15.8571 0.4716 15.4812C0.564797 15.1053 0.755993 14.7609 1.0257 14.4829C1.22295 14.2596 1.46592 14.0812 1.73812 13.96C1.37336 12.4128 1.36302 10.8032 1.70787 9.25153C2.05271 7.69982 2.74383 6.24612 3.72955 4.99908C4.71528 3.75205 5.97011 2.74395 7.40027 2.05012C8.83042 1.3563 10.3989 0.994698 11.9885 0.992352C13.578 0.990005 15.1476 1.34697 16.5798 2.03657C18.012 2.72617 19.2698 3.73057 20.2592 4.97469C21.2486 6.2188 21.944 7.67046 22.2934 9.22115C22.6428 10.7718 22.6373 12.3815 22.2771 13.9297C22.5784 14.0505 22.8474 14.24 23.0628 14.4829C23.3318 14.7613 23.5225 15.1058 23.6157 15.4815C23.7089 15.8573 23.7011 16.2509 23.5933 16.6227C23.7246 16.8198 23.8282 17.0421 23.8914 17.2821C24.0249 17.7518 23.9964 18.2528 23.8105 18.7044Z" fill="white"/>
<path d="M11.9268 20.3263C14.2551 20.3263 16.4881 19.4014 18.1344 17.755C19.7808 16.1087 20.7057 13.8757 20.7057 11.5474C20.7057 9.21906 19.7808 6.9861 18.1344 5.33973C16.4881 3.69335 14.2551 2.76843 11.9268 2.76843C9.59845 2.76843 7.36549 3.69335 5.71912 5.33973C4.07275 6.9861 3.14783 9.21906 3.14783 11.5474C3.14783 13.8757 4.07275 16.1087 5.71912 17.755C7.36549 19.4014 9.59845 20.3263 11.9268 20.3263Z" fill="#FFD21E"/>
<path d="M20.7056 11.5474C20.7056 9.21906 19.7807 6.9861 18.1343 5.33972C16.488 3.69335 14.255 2.76843 11.9267 2.76843C9.59836 2.76843 7.3654 3.69335 5.71903 5.33972C4.07266 6.9861 3.14773 9.21906 3.14773 11.5474C3.14773 13.8757 4.07266 16.1087 5.71903 17.755C7.3654 19.4014 9.59836 20.3263 11.9267 20.3263C14.255 20.3263 16.488 19.4014 18.1343 17.755C19.7807 16.1087 20.7056 13.8757 20.7056 11.5474ZM2.13721 11.5474C2.13721 10.2618 2.39042 8.98882 2.88239 7.80111C3.37435 6.61339 4.09544 5.53421 5.00448 4.62517C5.91351 3.71614 6.9927 2.99505 8.18041 2.50308C9.36812 2.01112 10.6411 1.7579 11.9267 1.7579C13.2123 1.7579 14.4852 2.01112 15.6729 2.50308C16.8607 2.99505 17.9398 3.71614 18.8489 4.62517C19.7579 5.53421 20.479 6.61339 20.971 7.80111C21.4629 8.98882 21.7162 10.2618 21.7162 11.5474C21.7162 14.1437 20.6848 16.6337 18.8489 18.4696C17.013 20.3055 14.523 21.3369 11.9267 21.3369C9.33035 21.3369 6.84036 20.3055 5.00448 18.4696C3.1686 16.6337 2.13721 14.1437 2.13721 11.5474Z" fill="#FF9D0B"/>
<path d="M14.7789 9.16001C15.1023 9.27117 15.2286 9.93306 15.5545 9.76127C15.7752 9.64411 15.9562 9.46414 16.0745 9.24412C16.1929 9.0241 16.2434 8.77391 16.2196 8.5252C16.1958 8.27649 16.0987 8.04043 15.9408 7.84687C15.7828 7.65331 15.5709 7.51096 15.332 7.4378C15.0931 7.36465 14.8379 7.36399 14.5986 7.4359C14.3594 7.50781 14.1468 7.64906 13.9878 7.84179C13.8288 8.03452 13.7305 8.27008 13.7054 8.51866C13.6803 8.76724 13.7295 9.01769 13.8467 9.23832C14.0008 9.52885 14.4909 9.05643 14.7815 9.15748L14.7789 9.16001ZM8.82947 9.16001C8.5061 9.27117 8.37725 9.93306 8.05389 9.76127C7.83321 9.64411 7.65224 9.46414 7.53385 9.24412C7.41547 9.0241 7.36499 8.77391 7.38881 8.5252C7.41262 8.27649 7.50966 8.04043 7.66765 7.84687C7.82563 7.65331 8.03747 7.51096 8.27637 7.4378C8.51527 7.36465 8.7705 7.36399 9.00977 7.4359C9.24905 7.50781 9.46162 7.64906 9.62061 7.84179C9.77961 8.03452 9.87787 8.27008 9.90298 8.51866C9.92809 8.76724 9.87891 9.01769 9.76168 9.23832C9.60757 9.52885 9.11494 9.05643 8.82694 9.15748L8.82947 9.16001Z" fill="#3A3B45"/>
<path d="M11.8636 15.2206C14.347 15.2206 15.1478 13.0076 15.1478 11.8707C15.1478 11.2796 14.7512 11.4665 14.1145 11.7798C13.5259 12.0703 12.7352 12.472 11.8661 12.472C10.0497 12.472 8.58191 10.7339 8.58191 11.8707C8.58191 13.0076 9.38022 15.2206 11.8661 15.2206H11.8636Z" fill="#FF323D"/>
<path fill-rule="evenodd" clip-rule="evenodd" d="M9.96124 14.6421C10.0945 14.3712 10.2822 14.1307 10.5126 13.9355C10.743 13.7404 11.0111 13.5948 11.3002 13.5078C11.4012 13.4775 11.5048 13.6518 11.6135 13.8312C11.7145 14.0029 11.8206 14.1773 11.9267 14.1773C12.0404 14.1773 12.1541 14.0055 12.2627 13.8362C12.3764 13.6594 12.4876 13.4876 12.5962 13.5204C13.1389 13.6927 13.5924 14.0709 13.8593 14.5739C14.8017 13.8312 15.1478 12.6185 15.1478 11.8707C15.1478 11.2796 14.7511 11.4665 14.1145 11.7798L14.0791 11.7975C13.4956 12.088 12.7175 12.472 11.8636 12.472C11.0097 12.472 10.2341 12.088 9.64798 11.7975C8.99114 11.4716 8.57935 11.2669 8.57935 11.8707C8.57935 12.6413 8.94819 13.9069 9.96124 14.6421Z" fill="#3A3B45"/>
<path d="M17.8636 10.3474C18.0813 10.3474 18.2902 10.2609 18.4441 10.1069C18.5981 9.95291 18.6846 9.74407 18.6846 9.52631C18.6846 9.30856 18.5981 9.09972 18.4441 8.94574C18.2902 8.79176 18.0813 8.70526 17.8636 8.70526C17.6458 8.70526 17.437 8.79176 17.283 8.94574C17.129 9.09972 17.0425 9.30856 17.0425 9.52631C17.0425 9.74407 17.129 9.95291 17.283 10.1069C17.437 10.2609 17.6458 10.3474 17.8636 10.3474ZM6.11619 10.3474C6.33395 10.3474 6.54279 10.2609 6.69676 10.1069C6.85074 9.95291 6.93724 9.74407 6.93724 9.52631C6.93724 9.30856 6.85074 9.09972 6.69676 8.94574C6.54279 8.79176 6.33395 8.70526 6.11619 8.70526C5.89843 8.70526 5.6896 8.79176 5.53562 8.94574C5.38164 9.09972 5.29514 9.30856 5.29514 9.52631C5.29514 9.74407 5.38164 9.95291 5.53562 10.1069C5.6896 10.2609 5.89843 10.3474 6.11619 10.3474ZM4.42609 13.1263C4.01682 13.1263 3.65303 13.2931 3.39788 13.5987C3.1803 13.8675 3.06167 14.2028 3.06188 14.5486C2.9028 14.5008 2.73786 14.4753 2.57177 14.4728C2.18019 14.4728 1.82651 14.6219 1.5764 14.8922C1.35327 15.1239 1.21259 15.4226 1.17606 15.7422C1.13953 16.0618 1.2092 16.3846 1.3743 16.6606C1.15071 16.8432 0.992098 17.093 0.922086 17.373C0.861455 17.6004 0.800823 18.0804 1.12419 18.5705C1.00297 18.7569 0.930835 18.9709 0.914493 19.1926C0.89815 19.4143 0.938131 19.6366 1.03072 19.8387C1.2884 20.4248 1.93261 20.8846 3.18314 21.3798C3.95872 21.688 4.67114 21.8851 4.67619 21.8876C5.57616 22.1369 6.50378 22.2727 7.43746 22.2918C8.91788 22.2918 9.9764 21.8371 10.5852 20.9427C11.5655 19.5053 11.4265 18.1891 10.1558 16.9208C9.45598 16.2185 8.98861 15.1853 8.89261 14.9579C8.69556 14.2859 8.17514 13.5381 7.31367 13.5381C7.08448 13.5417 6.85947 13.6 6.65735 13.7081C6.45522 13.8162 6.28182 13.971 6.15156 14.1596C5.89893 13.8413 5.65135 13.5912 5.42903 13.4472C5.13237 13.2463 4.78424 13.135 4.42609 13.1263ZM4.42609 14.1368C4.55493 14.1368 4.71409 14.1924 4.88588 14.3011C5.42651 14.6446 6.46482 16.4307 6.8463 17.1255C6.97261 17.3579 7.1924 17.4564 7.38693 17.4564C7.77851 17.4564 8.08167 17.0699 7.42482 16.5773C6.43451 15.8371 6.78061 14.6269 7.25303 14.5537C7.27324 14.5486 7.29598 14.5486 7.31367 14.5486C7.74314 14.5486 7.93261 15.2888 7.93261 15.2888C7.93261 15.2888 8.4884 16.6834 9.44335 17.6383C10.3958 18.5907 10.4463 19.3562 9.75156 20.3743C9.27661 21.0691 8.36967 21.2787 7.43746 21.2787C6.47493 21.2787 5.48461 21.0514 4.93135 20.9099C4.90356 20.9023 1.53345 19.9499 1.9604 19.1415C2.03114 19.005 2.14988 18.9495 2.29893 18.9495C2.90019 18.9495 3.99156 19.8438 4.46398 19.8438C4.56756 19.8438 4.64082 19.8008 4.67367 19.6922C4.87324 18.9722 1.62693 18.6691 1.89977 17.6282C1.9503 17.4438 2.07914 17.3705 2.26356 17.3705C3.05682 17.3705 4.8404 18.7676 5.2143 18.7676C5.24209 18.7676 5.26482 18.76 5.27493 18.7423C5.46188 18.4392 5.3583 18.2269 4.03703 17.4286C2.72082 16.6303 1.79367 16.1503 2.31914 15.5768C2.37977 15.5112 2.46567 15.4808 2.57177 15.4808C3.37261 15.4808 5.26482 17.2038 5.26482 17.2038C5.26482 17.2038 5.77514 17.7343 6.08588 17.7343C6.15661 17.7343 6.21724 17.7091 6.25767 17.6383C6.47493 17.2695 4.22145 15.5617 4.09514 14.8568C4.00924 14.3768 4.15577 14.1368 4.42609 14.1368Z" fill="#FF9D0B"/>
<path d="M9.75163 20.3743C10.4464 19.3537 10.3958 18.5882 9.44342 17.6358C8.48847 16.6834 7.93268 15.2863 7.93268 15.2863C7.93268 15.2863 7.72553 14.4779 7.2531 14.5537C6.78068 14.6295 6.43458 15.8371 7.42489 16.5773C8.41268 17.3175 7.22784 17.8202 6.84637 17.1255C6.46742 16.4307 5.42658 14.6446 4.88595 14.3011C4.34784 13.96 3.96889 14.1495 4.09521 14.8568C4.22153 15.5617 6.47753 17.2695 6.25774 17.6358C6.03795 18.0072 5.26489 17.2038 5.26489 17.2038C5.26489 17.2038 2.84721 15.0034 2.31921 15.5768C1.79374 16.1503 2.72089 16.6303 4.0371 17.4286C5.35837 18.227 5.46195 18.4392 5.275 18.7423C5.08553 19.0455 2.17268 16.5874 1.89984 17.6307C1.627 18.6691 4.87331 18.9697 4.67374 19.6897C4.47163 20.4097 2.38489 18.3305 1.96047 19.139C1.531 19.9499 4.90363 20.9023 4.93142 20.9099C6.01774 21.1928 8.78405 21.7916 9.75163 20.3743Z" fill="#FFD21E"/>
<path d="M19.5537 13.1263C19.963 13.1263 20.3293 13.293 20.5819 13.5987C20.7995 13.8675 20.9181 14.2028 20.9179 14.5486C21.0778 14.5006 21.2436 14.4751 21.4105 14.4728C21.8021 14.4728 22.1558 14.6219 22.4059 14.8922C22.629 15.1239 22.7697 15.4226 22.8062 15.7422C22.8428 16.0618 22.7731 16.3845 22.608 16.6606C22.8307 16.8435 22.9884 17.0934 23.0577 17.373C23.1183 17.6004 23.179 18.0804 22.8556 18.5705C22.9768 18.7569 23.0489 18.9709 23.0653 19.1926C23.0816 19.4143 23.0416 19.6366 22.9491 19.8387C22.6914 20.4248 22.0472 20.8846 20.7992 21.3798C20.0211 21.688 19.3086 21.885 19.3036 21.8876C18.4036 22.1369 17.476 22.2727 16.5423 22.2918C15.0619 22.2918 14.0034 21.837 13.3945 20.9427C12.4143 19.5053 12.5533 18.189 13.824 16.9208C14.5263 16.2185 14.9937 15.1853 15.0897 14.9579C15.2867 14.2859 15.8046 13.5381 16.6661 13.5381C16.8953 13.5417 17.1203 13.6 17.3224 13.7081C17.5246 13.8162 17.698 13.971 17.8282 14.1596C18.0809 13.8413 18.3284 13.5912 18.5533 13.4472C18.8492 13.2468 19.1964 13.1354 19.5537 13.1263ZM19.5537 14.1368C19.4249 14.1368 19.2682 14.1924 19.0939 14.301C18.5558 14.6446 17.515 16.4307 17.1335 17.1255C17.082 17.2246 17.0045 17.3078 16.9092 17.3661C16.8139 17.4244 16.7045 17.4557 16.5929 17.4564C16.2038 17.4564 15.8981 17.0699 16.5575 16.5773C17.5453 15.837 17.1992 14.6269 16.7267 14.5537C16.7067 14.5504 16.6864 14.5487 16.6661 14.5486C16.2366 14.5486 16.0472 15.2888 16.0472 15.2888C16.0472 15.2888 15.4914 16.6834 14.539 17.6383C13.584 18.5907 13.5335 19.3562 14.2307 20.3743C14.7032 21.069 15.6126 21.2787 16.5423 21.2787C17.5074 21.2787 18.4952 21.0514 19.051 20.9099C19.0762 20.9023 22.4489 19.9499 22.0219 19.1415C21.9486 19.005 21.8324 18.9495 21.6834 18.9495C21.0821 18.9495 19.9882 19.8438 19.5183 19.8438C19.4122 19.8438 19.339 19.8008 19.3086 19.6922C19.1065 18.9722 22.3529 18.669 22.08 17.6282C22.032 17.4438 21.9032 17.3705 21.7162 17.3705C20.923 17.3705 19.1394 18.7676 18.7655 18.7676C18.7402 18.7676 18.7175 18.76 18.7074 18.7423C18.5204 18.4392 18.6215 18.2269 19.9402 17.4286C21.2615 16.6303 22.1886 16.1503 21.6581 15.5768C21.6 15.5112 21.5141 15.4808 21.4105 15.4808C20.6072 15.4808 18.715 17.2038 18.715 17.2038C18.715 17.2038 18.2046 17.7343 17.8964 17.7343C17.8617 17.7359 17.8272 17.7277 17.7969 17.7107C17.7665 17.6938 17.7415 17.6687 17.7246 17.6383C17.5049 17.2695 19.7583 15.5617 19.8846 14.8568C19.9705 14.3768 19.824 14.1368 19.5537 14.1368Z" fill="#FF9D0B"/>
<path d="M14.2308 20.3743C13.5361 19.3537 13.5841 18.5882 14.539 17.6358C15.4914 16.6834 16.0472 15.2863 16.0472 15.2863C16.0472 15.2863 16.2544 14.4779 16.7293 14.5537C17.1992 14.6295 17.5453 15.8371 16.5575 16.5773C15.5672 17.3175 16.7546 17.8202 17.1335 17.1255C17.515 16.4307 18.5558 14.6446 19.094 14.3011C19.6321 13.96 20.0135 14.1495 19.8847 14.8568C19.7584 15.5617 17.5049 17.2695 17.7247 17.6358C17.942 18.0072 18.715 17.2038 18.715 17.2038C18.715 17.2038 21.1352 15.0034 21.6607 15.5768C22.1862 16.1503 21.2615 16.6303 19.9428 17.4286C18.6215 18.227 18.5205 18.4392 18.7049 18.7423C18.8944 19.0455 21.8072 16.5874 22.0801 17.6307C22.3529 18.6691 19.1091 18.9697 19.3087 19.6897C19.5108 20.4097 21.595 18.3305 22.022 19.139C22.4489 19.9499 19.0788 20.9023 19.051 20.9099C17.9622 21.1928 15.1958 21.7916 14.2308 20.3743Z" fill="#FFD21E"/>
</g>
<defs>
<clipPath id="clip0_382_112">
<rect width="24" height="22.2316" fill="white" transform="translate(0 1)"/>
</clipPath>
</defs>
</svg>
