<svg width="24" height="24" viewBox="0 0 24 24" fill="none" xmlns="http://www.w3.org/2000/svg">
<path d="M18.548 12.7505C18.5586 11.832 18.8022 10.9313 19.2558 10.1326C19.7094 9.3339 20.3583 8.6634 21.1417 8.18388C20.6437 7.47486 19.9882 6.89091 19.2266 6.47786C18.465 6.06481 17.618 5.83391 16.7521 5.80328C14.8829 5.6138 13.1049 6.90359 12.1578 6.90359C11.2101 6.90359 9.74697 5.83111 8.19675 5.8607C7.17936 5.88898 6.18677 6.18109 5.31623 6.70839C4.44569 7.23569 3.72706 7.9801 3.23077 8.86868C1.1159 12.5409 2.69095 17.9811 4.75194 20.9608C5.76048 22.4175 6.96267 24.0582 8.54126 23.9984C10.0625 23.9386 10.6366 23.0159 12.4733 23.0159C14.3105 23.0159 14.8273 23.9984 16.4343 23.9688C18.0698 23.9386 19.1079 22.482 20.1082 21.0199C20.8242 19.9685 21.3837 18.8187 21.7692 17.6065C20.8169 17.1998 20.0045 16.5233 19.4321 15.6604C18.8597 14.7975 18.5524 13.7859 18.548 12.7505ZM15.5278 3.83196C16.4336 2.76959 16.8824 1.39205 16.7762 0C15.4087 0.132651 14.1437 0.783462 13.2408 1.81897C12.7902 2.32062 12.4453 2.90785 12.2266 3.54565C12.0078 4.18345 11.9197 4.85876 11.9676 5.53133C12.6517 5.54078 13.3288 5.39237 13.9463 5.09765C14.5637 4.80292 15.1049 4.36981 15.5278 3.83196Z" fill="white"/>
</svg>
