<svg width="24" height="24" viewBox="0 0 24 24" fill="none" xmlns="http://www.w3.org/2000/svg">
<g clip-path="url(#clip0_10936_21312)">
<g clip-path="url(#clip1_10936_21312)">
<rect width="24" height="24" rx="4" fill="#FADE4B"/>
<path fill-rule="evenodd" clip-rule="evenodd" d="M1.6 0H5.05253V1.2632H10.1053V0H13.8941V1.26293H18.9467V0H22.4C22.8243 0 23.2313 0.168571 23.5314 0.468629C23.8314 0.768687 24 1.17565 24 1.6V5.05253H22.7368V10.1053H24V13.8947H22.7368V18.9475H24V22.4C24 22.8243 23.8314 23.2313 23.5314 23.5314C23.2313 23.8314 22.8243 24 22.4 24H18.9467V22.7365H13.8941V24H10.1053V22.7368H5.05253V24H1.6C1.17565 24 0.768687 23.8314 0.468629 23.5314C0.168571 23.2313 0 22.8243 0 22.4L0 18.9475H1.2632V13.8947H0V10.1053H1.26293V5.05253H0V1.6C0 1.17565 0.168571 0.768687 0.468629 0.468629C0.768687 0.168571 1.17565 0 1.6 0ZM15.536 12.296C16.2181 11.6085 16.5595 10.7117 16.5595 9.60533C16.5595 8.7136 16.4037 7.9992 16.092 7.46213C15.7805 6.91973 15.2648 6.5168 14.5453 6.2536C13.8307 5.9904 12.864 5.85893 11.6448 5.85893H7.1248V7.3736H8.63947V16.4856H7.1248V18.0003H12.0555V16.4856H10.4768V13.3435H12.0717C13.6992 13.3328 14.8541 12.9835 15.5363 12.296H15.536ZM14.0293 7.90533C14.4755 8.2544 14.6981 8.80773 14.6981 9.5648C14.6981 10.1611 14.5936 10.6283 14.384 10.9667C14.1747 11.3 13.8469 11.536 13.4011 11.676C12.9555 11.8101 12.3592 11.8771 11.6125 11.8771H10.4765V7.3736H11.7413C12.8211 7.3736 13.584 7.55067 14.0293 7.90533Z" fill="#FADE4B"/>
<path d="M16.5594 9.60507C16.5594 10.7112 16.2181 11.6083 15.5362 12.2957C14.8538 12.9832 13.6991 13.3325 12.0717 13.3432H10.4765V16.4851H12.0557V17.9997H7.125V16.4851H8.63967V7.37307H7.125V5.8584H11.6447C12.8639 5.8584 13.8306 5.98987 14.5453 6.25307C15.2647 6.51627 15.7805 6.9192 16.0919 7.4616C16.4037 7.99867 16.5594 8.71333 16.5594 9.60507ZM14.6981 9.56453C14.6981 8.8072 14.4754 8.25413 14.0295 7.90507C13.5837 7.5504 12.821 7.37333 11.7415 7.37333H10.4765V11.8768H11.6125C12.3591 11.8768 12.9554 11.8096 13.401 11.6755C13.8469 11.5357 14.1743 11.2995 14.3839 10.9664C14.5935 10.628 14.6981 10.1608 14.6981 9.56453Z" fill="#333333"/>
</g>
</g>
<defs>
<clipPath id="clip0_10936_21312">
<rect width="24" height="24" fill="white"/>
</clipPath>
<clipPath id="clip1_10936_21312">
<rect width="24" height="24" rx="4" fill="white"/>
</clipPath>
</defs>
</svg>
