<svg width="24" height="24" viewBox="0 0 24 24" fill="none" xmlns="http://www.w3.org/2000/svg">
<path d="M-0.00012207 9.64954C-0.00012207 8.86639 0.381982 8.1325 1.02356 7.68338L11.3117 0.481598C11.7249 0.192363 12.2749 0.192363 12.688 0.481598L22.9762 7.68338C23.6178 8.1325 23.9999 8.86639 23.9999 9.64954V19.2001C23.9999 21.8511 21.8508 24.0001 19.1999 24.0001H4.7999C2.14892 24.0001 -0.00012207 21.8511 -0.00012207 19.2001V9.64954Z" fill="#F7F8F8"/>
<path d="M-0.00012207 9.64954C-0.00012207 8.86639 0.381982 8.1325 1.02356 7.68338L11.3117 0.481598C11.7249 0.192363 12.2749 0.192363 12.688 0.481598L22.9762 7.68338C23.6178 8.1325 23.9999 8.86639 23.9999 9.64954V19.2001C23.9999 21.8511 21.8508 24.0001 19.1999 24.0001H4.7999C2.14892 24.0001 -0.00012207 21.8511 -0.00012207 19.2001V9.64954Z" fill="#78767F" fill-opacity="0.02"/>
<path d="M-0.00012207 9.64954C-0.00012207 8.86639 0.381982 8.1325 1.02356 7.68338L11.3117 0.481598C11.7249 0.192363 12.2749 0.192363 12.688 0.481598L22.9762 7.68338C23.6178 8.1325 23.9999 8.86639 23.9999 9.64954V19.2001C23.9999 21.8511 21.8508 24.0001 19.1999 24.0001H4.7999C2.14892 24.0001 -0.00012207 21.8511 -0.00012207 19.2001V9.64954Z" fill="#5D34F2" fill-opacity="0.16"/>
<path fill-rule="evenodd" clip-rule="evenodd" d="M10.7998 5.39969C10.7998 5.06831 11.0684 4.79968 11.3998 4.79968H12.5998C12.9311 4.79968 13.1998 5.06831 13.1998 5.39969V8.39972H10.7998V5.39969ZM10.7998 16.1998C10.7998 16.5312 11.0684 16.7998 11.3998 16.7998H12.5998C12.9311 16.7998 13.1998 16.5312 13.1998 16.1998V13.1998H10.7998V16.1998ZM6.59976 11.9998C6.26839 11.9998 5.99976 11.7311 5.99976 11.3998V10.1997C5.99976 9.86837 6.26839 9.59974 6.59976 9.59974H9.59976V11.9998H6.59976ZM17.3998 11.9998C17.7311 11.9998 17.9998 11.7311 17.9998 11.3998V10.1997C17.9998 9.86837 17.7311 9.59974 17.3998 9.59974L14.3998 9.59974V11.9998H17.3998Z" fill="#E67EF7"/>
<path fill-rule="evenodd" clip-rule="evenodd" d="M7.33342 7.83014C7.09911 7.59582 7.09911 7.21592 7.33342 6.9816L8.18195 6.13306C8.41626 5.89875 8.79616 5.89875 9.03048 6.13306L11.1518 8.25441L9.45474 9.95148L7.33342 7.83014ZM14.9692 15.4674C15.2035 15.7017 15.5834 15.7017 15.8177 15.4674L16.6662 14.6188C16.9005 14.3845 16.9005 14.0046 16.6662 13.7703L14.5449 11.6489L12.8479 13.346L14.9692 15.4674ZM9.03003 15.4671C8.79572 15.7014 8.41582 15.7014 8.18151 15.4671L7.33298 14.6185C7.09866 14.3842 7.09866 14.0043 7.33298 13.77L9.4543 11.6487L11.1514 13.3457L9.03003 15.4671ZM16.6663 7.83034C16.9006 7.59602 16.9006 7.21612 16.6663 6.9818L15.8177 6.13327C15.5834 5.89895 15.2035 5.89895 14.9692 6.13327L12.8479 8.25461L14.5449 9.95169L16.6663 7.83034Z" fill="#E67EF7"/>
<path fill-rule="evenodd" clip-rule="evenodd" d="M11.9997 15.5999C14.6507 15.5999 16.7997 13.4508 16.7997 10.7998C16.7997 8.14881 14.6507 5.99976 11.9997 5.99976C9.34874 5.99976 7.19971 8.14881 7.19971 10.7998C7.19971 13.4508 9.34874 15.5999 11.9997 15.5999ZM11.9997 13.1998C13.3252 13.1998 14.3997 12.1253 14.3997 10.7998C14.3997 9.47431 13.3252 8.39978 11.9997 8.39978C10.6742 8.39978 9.59971 9.47431 9.59971 10.7998C9.59971 12.1253 10.6742 13.1998 11.9997 13.1998Z" fill="#F099FE"/>
<path d="M-0.000244141 9.50452C-0.000244141 8.53368 1.09259 7.9647 1.88793 8.52144L11.3116 15.1181C11.7248 15.4073 12.2747 15.4073 12.6879 15.1181L22.1116 8.52144C22.9069 7.9647 23.9998 8.53369 23.9998 9.50452V21.5999C23.9998 22.9254 22.9252 23.9999 21.5997 23.9999H2.39977C1.07428 23.9999 -0.000244141 22.9254 -0.000244141 21.5999V9.50452Z" fill="#7958FF"/>
<path d="M1.90371 23.9999C0.806869 23.9999 0.284907 22.6498 1.0965 21.9119L11.1926 12.7336C11.6503 12.3175 12.3493 12.3175 12.807 12.7336L22.9031 21.9119C23.7147 22.6498 23.1927 23.9999 22.0959 23.9999H1.90371Z" fill="#957BFF"/>
</svg>
