<svg width="24" height="24" viewBox="0 0 24 24" fill="none" xmlns="http://www.w3.org/2000/svg">
<path d="M12.4706 12.4234C12.4907 12.4043 12.5107 12.3851 12.5307 12.3658C12.5706 12.3272 12.6104 12.2885 12.6499 12.2494L12.7306 12.1697L12.9755 11.9277L13.308 11.5993L13.5936 11.3171L13.8618 11.052L14.1417 10.7755L14.3984 10.5218L14.7559 10.1687C14.8238 10.102 14.893 10.0365 14.9633 9.97216C15.0929 9.85372 15.2263 9.73938 15.3636 9.62936C15.4893 9.52848 15.618 9.43142 15.7499 9.33804C15.9344 9.20728 16.1245 9.08423 16.3202 8.96881C16.5115 8.85605 16.7077 8.75107 16.9089 8.65387C17.0977 8.56264 17.2904 8.47869 17.4871 8.40194C17.5967 8.35924 17.7075 8.31892 17.8193 8.28083C17.8753 8.26182 17.9316 8.24339 17.9881 8.22553C17.4921 6.27341 16.5834 4.45032 15.3232 2.87903C15.2028 2.72925 15.0503 2.60845 14.877 2.52554C14.7036 2.44264 14.5138 2.39974 14.3216 2.40002L4.02761 2.3999C3.98697 2.39987 3.94736 2.4127 3.91446 2.43656C3.88155 2.46041 3.85705 2.49407 3.84444 2.53271C3.83184 2.57135 3.8318 2.61298 3.84431 2.65165C3.85682 2.69032 3.88125 2.72403 3.91409 2.74797C7.42808 5.32341 10.3397 8.63249 12.4472 12.4456L12.4706 12.4234Z" fill="#00D6B9"/>
<path d="M20.7507 14.2155L20.7438 14.2277L20.7516 14.2161L20.7991 14.1267C20.7829 14.1563 20.7671 14.1861 20.7507 14.2155Z" fill="#133C9A"/>
<path d="M20.9724 13.8009L20.9851 13.7771L20.9912 13.7649C20.985 13.777 20.9786 13.7889 20.9724 13.8009Z" fill="#133C9A"/>
<path d="M24.0001 8.68117C22.2065 7.80239 20.1521 7.61482 18.2289 8.15412C18.1482 8.1768 18.068 8.2007 17.9884 8.22583C17.9319 8.24369 17.8756 8.26212 17.8195 8.28113C17.7077 8.31915 17.5971 8.35954 17.4874 8.40224C17.2908 8.47885 17.098 8.56287 16.9091 8.65417C16.7081 8.75123 16.5119 8.85621 16.3204 8.96911C16.1249 9.08439 15.9348 9.20744 15.7501 9.33834C15.6184 9.43165 15.4896 9.52878 15.3638 9.62966C15.2267 9.73961 15.0932 9.85395 14.9636 9.97253C14.8933 10.0368 14.8241 10.1022 14.7561 10.169L14.3986 10.5221L14.1419 10.7758L13.8621 11.0524L13.5939 11.3174L13.3082 11.5996L12.9758 11.928L12.7309 12.17L12.6502 12.2497C12.6107 12.2888 12.5709 12.3275 12.531 12.3661C12.511 12.3853 12.4909 12.4046 12.4708 12.4237C12.4407 12.4524 12.4104 12.4811 12.38 12.5095C12.3465 12.541 12.3127 12.5722 12.2789 12.6034C11.3937 13.4166 10.4087 14.1141 9.34772 14.6789C9.41108 14.7088 9.47459 14.7384 9.53824 14.7679C9.58849 14.7911 9.6389 14.8143 9.68937 14.8374C9.73812 14.8596 9.78701 14.8817 9.8359 14.9037C9.88406 14.9254 9.93223 14.9469 9.98055 14.9683C10.0333 14.9917 10.0862 15.0151 10.1391 15.0382C10.2001 15.0647 10.2612 15.0912 10.3224 15.1175C10.381 15.1426 10.4396 15.1675 10.4985 15.1923C10.5745 15.2244 10.6508 15.2561 10.7273 15.2876C10.7886 15.3129 10.8501 15.338 10.9117 15.3628C11.0064 15.4011 11.1013 15.4389 11.1965 15.4763C11.2863 15.5115 11.3763 15.5464 11.4666 15.5809C11.534 15.6066 11.6015 15.6321 11.6692 15.6573C11.7856 15.7008 11.9023 15.7436 12.0194 15.7857C12.0786 15.807 12.1377 15.8281 12.197 15.849C12.2798 15.8782 12.3628 15.9071 12.446 15.9356C12.5143 15.9591 12.5828 15.9823 12.6514 16.0054C12.7516 16.039 12.8522 16.0722 12.953 16.1049C13.0588 16.1392 13.1649 16.173 13.2714 16.2063C13.4013 16.2468 13.5316 16.2866 13.6625 16.3256C13.7498 16.3517 13.8374 16.3773 13.9251 16.4027C14.1009 16.4535 14.2774 16.5028 14.4549 16.5508C14.5187 16.568 14.5824 16.5842 14.646 16.5994C14.7669 16.6282 14.8876 16.6533 15.008 16.6747C15.1464 16.6994 15.2844 16.7192 15.4217 16.7343C15.6091 16.7547 15.795 16.7664 15.9794 16.7693C16.1479 16.7719 16.3147 16.7674 16.4801 16.7557C16.6377 16.7446 16.7937 16.7271 16.948 16.7031C17.1605 16.6702 17.3709 16.625 17.5781 16.5676C17.717 16.5291 17.8537 16.4852 17.9885 16.436C18.1131 16.3906 18.2356 16.3407 18.3563 16.2863C18.4953 16.2237 18.6314 16.1552 18.7646 16.0809C18.8302 16.0443 18.895 16.0065 18.9589 15.9671C19.0204 15.9294 19.0812 15.8904 19.1412 15.8501C19.2359 15.7866 19.3287 15.72 19.4197 15.6502C19.4973 15.5906 19.5735 15.5288 19.6483 15.4648C19.7825 15.3497 19.9119 15.2275 20.0361 15.0982C20.0971 15.0347 20.1567 14.9696 20.2151 14.9027C20.289 14.8181 20.3607 14.7309 20.4303 14.641C20.4857 14.5694 20.5396 14.4961 20.5921 14.4212C20.7402 14.2094 20.8744 13.9883 20.994 13.7592L21.1317 13.4845L22.3761 11.0037L22.374 11.0088C22.7703 10.1407 23.3213 9.35195 24.0001 8.68117Z" fill="#133C9A"/>
<path d="M8.38851 21.4857C10.9102 21.4866 13.3861 20.813 15.5597 19.5348C17.7334 18.2567 19.5257 16.4203 20.7506 14.2163C20.8355 14.064 20.9175 13.9101 20.9968 13.7544C20.8766 13.9854 20.7413 14.2083 20.5921 14.4217C20.5396 14.4966 20.4857 14.5699 20.4302 14.6415C20.3607 14.7314 20.2891 14.8186 20.2152 14.9032C20.1568 14.97 20.0971 15.0352 20.0361 15.0987C19.912 15.2279 19.7827 15.3501 19.6483 15.4653C19.5735 15.5293 19.4974 15.5911 19.4197 15.6507C19.3288 15.7204 19.236 15.7871 19.1412 15.8506C19.0812 15.8909 19.0204 15.9299 18.9589 15.9676C18.895 16.0069 18.8302 16.0448 18.7647 16.0814C18.6315 16.1556 18.4954 16.2241 18.3563 16.2868C18.2357 16.3412 18.1131 16.3911 17.9885 16.4365C17.8539 16.4857 17.7171 16.5295 17.5781 16.5681C17.3709 16.6254 17.1604 16.6707 16.948 16.7036C16.7937 16.7275 16.6378 16.745 16.4801 16.7562C16.3148 16.7679 16.1479 16.7724 15.9795 16.7697C15.7951 16.7669 15.6092 16.7551 15.4217 16.7347C15.2844 16.7197 15.1465 16.6998 15.008 16.6752C14.8877 16.6538 14.767 16.6287 14.646 16.5999C14.5824 16.5847 14.5187 16.5685 14.4549 16.5513C14.2775 16.5033 14.1008 16.454 13.9251 16.4032C13.8373 16.3779 13.7498 16.3522 13.6625 16.3261C13.5317 16.2871 13.4013 16.2473 13.2714 16.2068C13.1649 16.1735 13.0588 16.1396 12.953 16.1054C12.8522 16.0727 12.7516 16.0395 12.6514 16.0059C12.5828 15.9828 12.5143 15.9596 12.446 15.9362C12.3628 15.9076 12.2798 15.8787 12.197 15.8495C12.1378 15.8285 12.0786 15.8075 12.0195 15.7862C11.9023 15.7441 11.7856 15.7013 11.6692 15.6578C11.6016 15.6325 11.534 15.607 11.4666 15.5813C11.3763 15.5469 11.2863 15.512 11.1965 15.4768C11.1013 15.4394 11.0064 15.4016 10.9117 15.3634C10.8501 15.3385 10.7886 15.3133 10.7273 15.2881C10.6508 15.2566 10.5745 15.2249 10.4984 15.1928C10.4396 15.168 10.381 15.1431 10.3224 15.1179C10.2612 15.0917 10.2001 15.0653 10.1391 15.0387C10.0862 15.0155 10.0333 14.9923 9.98056 14.9689C9.93224 14.9474 9.88407 14.9259 9.8359 14.9042C9.78701 14.8822 9.73812 14.8601 9.68938 14.8378C9.6389 14.8148 9.5885 14.7917 9.53817 14.7684C9.47459 14.7389 9.41109 14.7092 9.34773 14.6794C9.2812 14.648 9.21488 14.6164 9.14871 14.5847C9.07779 14.5506 9.00701 14.5162 8.93638 14.4816C8.87611 14.4521 8.81606 14.4223 8.75608 14.3924C5.59732 12.8165 2.74498 10.6898 0.333044 8.11226C0.306627 8.08411 0.272346 8.06453 0.234646 8.05603C0.196952 8.04761 0.157588 8.0507 0.121674 8.06496C0.0857659 8.07914 0.0549631 8.10384 0.0332687 8.13581C0.0115816 8.16778 1.07973e-05 8.20558 6.11991e-05 8.24417L0.00518771 17.328L0.00516625 18.0649C0.00456863 18.2757 0.0560792 18.4835 0.155119 18.6696C0.254158 18.8557 0.39766 19.0145 0.572864 19.1318C2.88844 20.6711 5.60801 21.4901 8.38851 21.4857Z" fill="#3370FF"/>
</svg>
