<svg width="24" height="24" viewBox="0 0 24 24" fill="none" xmlns="http://www.w3.org/2000/svg">
<path d="M0 20.099C0 17.4633 2.51434 7.63028 7.71291 1.04114C4.04333 7.96818 1.90871 12.6584 3.46571 16.3144C4.68891 19.1866 10.9748 18.2743 14.3725 17.1254C8.32451 19.8624 2.11794 20.2341 0 20.099Z" fill="#C1272D"/>
<path d="M11.2605 0.749878C13.5556 2.06771 20.8613 9.14971 24 16.9216C19.8025 10.2976 16.7855 6.11404 12.8233 5.62701C9.71049 5.2444 7.36205 11.1143 6.66364 14.6151C7.30418 8.03768 10.0838 2.50638 11.2605 0.749878Z" fill="#C1272D"/>
<path d="M22.5319 20.0755C20.2368 21.3933 10.4168 24.1443 2.07953 22.9616C9.94654 22.6585 15.0982 22.1519 17.5034 18.9829C19.393 16.4933 15.4556 11.5357 12.7562 9.18384C18.1637 13.0242 21.5907 18.1838 22.5319 20.0755Z" fill="#C1272D"/>
</svg>
