<?xml version="1.0" encoding="utf-8"?>
<!-- Generator: Adobe Illustrator 28.0.0, SVG Export Plug-In . SVG Version: 6.00 Build 0)  -->
<svg version="1.1" id="qq" xmlns="http://www.w3.org/2000/svg" xmlns:xlink="http://www.w3.org/1999/xlink" x="0px" y="0px"
	 viewBox="0 0 92 92" style="enable-background:new 0 0 92 92;" xml:space="preserve">
<style type="text/css">
	.st0{fill:#FAAB07;}
	.st1{fill:#FFFFFF;}
	.st2{fill:#EB1923;}
</style>
<g>
	<path class="st0" d="M46,90c-7.8,0-15-2.6-19.6-6.5c-2.3,0.7-5.3,1.8-7.2,3.2c-1.6,1.2-1.4,2.4-1.1,2.9c1.3,2.2,22,1.4,27.9,0.7V90
		z M46,90c7.8,0,15-2.6,19.6-6.5c2.3,0.7,5.3,1.8,7.2,3.2c1.6,1.2,1.4,2.4,1.1,2.9C72.7,91.8,52,91,46,90.3L46,90z"/>
	<path d="M46,43c12.9-0.1,23.2-2.6,26.7-3.6c0.8-0.2,1.3-0.6,1.3-0.6c0-0.1,0.1-2.1,0.1-3.1C74.1,18.3,66,1,46,1
		C26,1,17.9,18.3,17.9,35.6c0,1,0,3,0.1,3.1c0,0,0.4,0.4,1,0.6C22.2,40.3,32.7,42.9,46,43L46,43z M81.1,57.4c-0.8-2.6-1.9-5.6-3-8.5
		c0,0-0.6-0.1-1,0c-9.9,2.9-21.9,4.7-31.1,4.6H46c-9.1,0.1-21-1.7-30.9-4.6c-0.4-0.1-1.1-0.1-1.1-0.1c-1.1,2.9-2.2,5.9-3,8.5
		C7.1,69.7,8.3,74.8,9.3,74.9c2,0.2,7.9-9.3,7.9-9.3c0,9.7,8.7,24.5,28.6,24.7h0.5c19.9-0.1,28.6-15,28.6-24.7c0,0,5.8,9.5,7.9,9.3
		C83.7,74.8,84.9,69.7,81.1,57.4z"/>
	<path class="st1" d="M38.9,26.5c-2.7,0.1-5-3-5.2-6.9c-0.1-3.9,1.9-7.2,4.6-7.4c2.7-0.1,5,3,5.2,6.9C43.7,23.1,41.6,26.4,38.9,26.5
		z M58.3,19.6c-0.1,3.9-2.5,7-5.2,6.9c-2.7-0.1-4.8-3.4-4.6-7.4c0.1-3.9,2.5-7,5.2-6.9C56.4,12.3,58.4,15.6,58.3,19.6z"/>
	<path class="st0" d="M63.1,32.1c-0.7-1.6-8-3.4-17-3.4H46c-9,0-16.3,1.8-17,3.4c0,0.1-0.1,0.2-0.1,0.2c0,0.1,0,0.2,0.1,0.3
		c0.6,0.9,8.7,5.3,17,5.3H46c8.3,0,16.4-4.4,17-5.3c0.1-0.1,0.1-0.2,0.1-0.3C63.1,32.2,63.1,32.2,63.1,32.1"/>
	<path d="M42.2,19.7c0.1,1.6-0.7,2.9-1.9,3.1c-1.2,0.2-2.2-1-2.3-2.5c-0.1-1.6,0.7-2.9,1.9-3.1C41,17,42.1,18.1,42.2,19.7L42.2,19.7
		z M49.7,20.2c0.2-0.4,1.9-2.7,5.2-1.9c0.9,0.2,1.3,0.5,1.4,0.7c0.1,0.2,0.2,0.4,0,0.8c-0.3,0.7-0.8,0.7-1.1,0.5
		c-0.2-0.1-2.5-1.7-4.7,0.7c-0.1,0.2-0.4,0.2-0.7,0C49.6,20.8,49.5,20.4,49.7,20.2z"/>
	<path class="st1" d="M46,53L46,53c-6.3,0.1-13.9-0.8-21.2-2.2c-0.6,3.6-1,8.2-0.7,13.7c0.8,13.8,9,22.5,21.6,22.6h0.5
		c12.6-0.1,20.7-8.8,21.6-22.6c0.3-5.5-0.1-10-0.7-13.7C59.8,52.2,52.3,53,46,53"/>
	<g>
		<path class="st2" d="M28.3,51.8v13.6c0,0,6.2,1.3,12.4,0.4V53.3C36.8,53,32.5,52.5,28.3,51.8z"/>
		<path class="st2" d="M74.1,38.8c0,0-12,3.8-28,3.9H46c-15.9-0.1-28-3.9-28-3.9l-4,10.1c10.1,3.1,22.6,5,32,4.9H46
			c9.5,0.1,21.9-1.9,32-4.9L74.1,38.8z"/>
	</g>
</g>
</svg>
