<svg width="20" height="20" viewBox="0 0 20 20" fill="none" xmlns="http://www.w3.org/2000/svg">
<path d="M9.99996 1.66699C8.35179 1.66699 6.74062 2.15573 5.37021 3.07141C3.9998 3.98709 2.9317 5.28858 2.30097 6.8113C1.67024 8.33401 1.50521 10.0096 1.82675 11.6261C2.1483 13.2426 2.94197 14.7274 4.10741 15.8929C5.27284 17.0583 6.7577 17.852 8.37421 18.1735C9.99072 18.4951 11.6663 18.33 13.189 17.6993C14.7117 17.0686 16.0132 16.0005 16.9289 14.6301C17.8446 13.2597 18.3333 11.6485 18.3333 10.0003C18.3333 8.90597 18.1177 7.82234 17.699 6.8113C17.2802 5.80025 16.6663 4.88159 15.8925 4.10777C15.1187 3.33395 14.2 2.72012 13.189 2.30133C12.1779 1.88254 11.0943 1.66699 9.99996 1.66699Z" fill="white"/>
<path d="M9.99996 1.66699C5.41663 1.66699 1.66663 5.41699 1.66663 10.0003C1.66663 14.5837 5.41663 18.3337 9.99996 18.3337C14.5833 18.3337 18.3333 14.5837 18.3333 10.0003C18.3333 5.41699 14.5833 1.66699 9.99996 1.66699ZM9.99996 14.167C9.49996 14.167 9.16663 13.8337 9.16663 13.3337C9.16663 12.8337 9.49996 12.5003 9.99996 12.5003C10.5 12.5003 10.8333 12.8337 10.8333 13.3337C10.8333 13.8337 10.5 14.167 9.99996 14.167ZM10.8333 10.0003C10.8333 10.5003 10.5 10.8337 9.99996 10.8337C9.49996 10.8337 9.16663 10.5003 9.16663 10.0003V6.66699C9.16663 6.16699 9.49996 5.83366 9.99996 5.83366C10.5 5.83366 10.8333 6.16699 10.8333 6.66699V10.0003Z" fill="#EB9918"/>
</svg>
