<svg width="40" height="41" viewBox="0 0 40 41" fill="none" xmlns="http://www.w3.org/2000/svg">
<rect y="0.5" width="40" height="40" rx="8" fill="#F3EFFA"/>
<mask id="path-2-inside-1_1555_8784" fill="white">
<path fill-rule="evenodd" clip-rule="evenodd" d="M18.7808 6.5C18.3219 6.5 17.9219 6.8123 17.8106 7.25746L17 10.5L20 11.5L23 10.5L22.1894 7.25746C22.0781 6.8123 21.6781 6.5 21.2192 6.5H18.7808ZM18.7808 34.5C18.3219 34.5 17.9219 34.1877 17.8106 33.7425L17 30.5L20 29.5L23 30.5L22.1894 33.7425C22.0781 34.1877 21.6781 34.5 21.2192 34.5H18.7808Z"/>
</mask>
<path d="M17.8106 7.25746L16.8405 7.01493H16.8405L17.8106 7.25746ZM17 10.5L16.0299 10.2575L15.8053 11.1558L16.6838 11.4487L17 10.5ZM20 11.5L19.6838 12.4487L20 12.5541L20.3162 12.4487L20 11.5ZM23 10.5L23.3162 11.4487L24.1947 11.1558L23.9701 10.2575L23 10.5ZM22.1894 7.25746L21.2192 7.5L21.2192 7.5L22.1894 7.25746ZM17.8106 33.7425L16.8405 33.9851H16.8405L17.8106 33.7425ZM17 30.5L16.6838 29.5513L15.8053 29.8442L16.0299 30.7425L17 30.5ZM20 29.5L20.3162 28.5513L20 28.4459L19.6838 28.5513L20 29.5ZM23 30.5L23.9701 30.7425L24.1947 29.8442L23.3162 29.5513L23 30.5ZM18.7808 7.5L18.7808 7.5V5.5C17.863 5.5 17.0631 6.12459 16.8405 7.01493L18.7808 7.5ZM17.9701 10.7425L18.7808 7.5L16.8405 7.01493L16.0299 10.2575L17.9701 10.7425ZM20.3162 10.5513L17.3162 9.55132L16.6838 11.4487L19.6838 12.4487L20.3162 10.5513ZM22.6838 9.55132L19.6838 10.5513L20.3162 12.4487L23.3162 11.4487L22.6838 9.55132ZM21.2192 7.5L22.0299 10.7425L23.9701 10.2575L23.1595 7.01493L21.2192 7.5ZM21.2192 7.5L21.2192 7.5L23.1595 7.01493C22.9369 6.12459 22.137 5.5 21.2192 5.5V7.5ZM18.7808 7.5H21.2192V5.5H18.7808V7.5ZM16.8405 33.9851C17.0631 34.8754 17.863 35.5 18.7808 35.5V33.5L16.8405 33.9851ZM16.0299 30.7425L16.8405 33.9851L18.7808 33.5L17.9701 30.2575L16.0299 30.7425ZM19.6838 28.5513L16.6838 29.5513L17.3162 31.4487L20.3162 30.4487L19.6838 28.5513ZM23.3162 29.5513L20.3162 28.5513L19.6838 30.4487L22.6838 31.4487L23.3162 29.5513ZM23.1595 33.9851L23.9701 30.7425L22.0299 30.2575L21.2192 33.5L23.1595 33.9851ZM21.2192 35.5C22.137 35.5 22.9369 34.8754 23.1595 33.9851L21.2192 33.5V35.5ZM18.7808 35.5H21.2192V33.5H18.7808V35.5Z" fill="#F07EFF" mask="url(#path-2-inside-1_1555_8784)"/>
<mask id="path-4-inside-2_1555_8784" fill="white">
<path fill-rule="evenodd" clip-rule="evenodd" d="M9.23771 11.4625C8.91325 11.7869 8.85124 12.2906 9.08733 12.6841L10.8069 15.5501L13.9994 14.4999L15.0496 11.3075L12.1836 9.58785C11.7901 9.35177 11.2864 9.41377 10.962 9.73824L9.23771 11.4625ZM29.0367 31.2615C28.7122 31.5859 28.2086 31.6479 27.8151 31.4119L24.9491 29.6922L25.9994 26.4999L29.1917 25.4496L30.9113 28.3156C31.1474 28.7091 31.0854 29.2128 30.7609 29.5372L29.0367 31.2615Z"/>
</mask>
<path d="M9.08733 12.6841L8.22984 13.1986L8.22984 13.1986L9.08733 12.6841ZM9.23771 11.4625L8.53061 10.7554L9.23771 11.4625ZM10.8069 15.5501L9.94945 16.0646L10.3605 16.7497L11.1194 16.5L10.8069 15.5501ZM13.9994 14.4999L14.3119 15.4498L14.7915 15.292L14.9493 14.8124L13.9994 14.4999ZM15.0496 11.3075L15.9995 11.62L16.2492 10.861L15.5641 10.45L15.0496 11.3075ZM12.1836 9.58785L11.6691 10.4453L11.6691 10.4453L12.1836 9.58785ZM10.962 9.73824L11.6691 10.4453L10.962 9.73824ZM27.8151 31.4119L27.3006 32.2694L27.3006 32.2694L27.8151 31.4119ZM29.0367 31.2615L28.3296 30.5544L29.0367 31.2615ZM24.9491 29.6922L23.9992 29.3797L23.7495 30.1387L24.4346 30.5497L24.9491 29.6922ZM25.9994 26.4999L25.6869 25.55L25.2073 25.7078L25.0495 26.1874L25.9994 26.4999ZM29.1917 25.4496L30.0492 24.9351L29.6381 24.25L28.8792 24.4997L29.1917 25.4496ZM30.7609 29.5372L31.4681 30.2443L30.7609 29.5372ZM9.94482 12.1696L9.94482 12.1696L8.53061 10.7554C7.88167 11.4043 7.75766 12.4116 8.22984 13.1986L9.94482 12.1696ZM11.6644 15.0356L9.94482 12.1696L8.22984 13.1986L9.94945 16.0646L11.6644 15.0356ZM13.6869 13.55L10.4944 14.6002L11.1194 16.5L14.3119 15.4498L13.6869 13.55ZM14.0997 10.995L13.0495 14.1874L14.9493 14.8124L15.9995 11.62L14.0997 10.995ZM11.6691 10.4453L14.5351 12.165L15.5641 10.45L12.6981 8.73036L11.6691 10.4453ZM11.6691 10.4453L11.6691 10.4453L12.6981 8.73036C11.9111 8.25819 10.9038 8.3822 10.2549 9.03113L11.6691 10.4453ZM9.94482 12.1696L11.6691 10.4453L10.2549 9.03113L8.53061 10.7554L9.94482 12.1696ZM27.3006 32.2694C28.0876 32.7415 29.0949 32.6175 29.7438 31.9686L28.3296 30.5544L27.3006 32.2694ZM24.4346 30.5497L27.3006 32.2694L28.3296 30.5544L25.4636 28.8347L24.4346 30.5497ZM25.0495 26.1874L23.9992 29.3797L25.899 30.0048L26.9493 26.8125L25.0495 26.1874ZM28.8792 24.4997L25.6869 25.55L26.312 27.4498L29.5043 26.3995L28.8792 24.4997ZM31.7688 27.8011L30.0492 24.9351L28.3342 25.9641L30.0538 28.8301L31.7688 27.8011ZM31.4681 30.2443C32.117 29.5954 32.241 28.5881 31.7688 27.8011L30.0538 28.8301L31.4681 30.2443ZM29.7438 31.9686L31.4681 30.2443L30.0538 28.8301L28.3296 30.5544L29.7438 31.9686Z" fill="#F07EFF" mask="url(#path-4-inside-2_1555_8784)"/>
<mask id="path-6-inside-3_1555_8784" fill="white">
<path fill-rule="evenodd" clip-rule="evenodd" d="M30.7623 11.4625C31.0868 11.7869 31.1488 12.2906 30.9127 12.6841L29.1931 15.5501L26.0007 14.4999L24.9504 11.3075L27.8164 9.58785C28.2099 9.35177 28.7136 9.41377 29.038 9.73824L30.7623 11.4625ZM10.9633 31.2615C11.2878 31.5859 11.7914 31.6479 12.1849 31.4119L15.0509 29.6922L14.0007 26.4999L10.8083 25.4496L9.08867 28.3156C8.85258 28.7091 8.91458 29.2128 9.23905 29.5372L10.9633 31.2615Z"/>
</mask>
<path d="M30.9127 12.6841L31.7702 13.1986L31.7702 13.1986L30.9127 12.6841ZM30.7623 11.4625L31.4694 10.7554L30.7623 11.4625ZM29.1931 15.5501L30.0506 16.0646L29.6395 16.7497L28.8805 16.5L29.1931 15.5501ZM26.0007 14.4999L25.6882 15.4498L25.2086 15.292L25.0508 14.8124L26.0007 14.4999ZM24.9504 11.3075L24.0005 11.62L23.7508 10.861L24.4359 10.45L24.9504 11.3075ZM27.8164 9.58785L28.3309 10.4453L28.3309 10.4453L27.8164 9.58785ZM29.038 9.73824L28.3309 10.4453L29.038 9.73824ZM12.1849 31.4119L12.6994 32.2694L12.6994 32.2694L12.1849 31.4119ZM10.9633 31.2615L11.6704 30.5544L10.9633 31.2615ZM15.0509 29.6922L16.0008 29.3797L16.2505 30.1387L15.5654 30.5497L15.0509 29.6922ZM14.0007 26.4999L14.3132 25.55L14.7928 25.7078L14.9506 26.1874L14.0007 26.4999ZM10.8083 25.4496L9.95079 24.9351L10.3619 24.25L11.1208 24.4997L10.8083 25.4496ZM9.23905 29.5372L8.53195 30.2443L9.23905 29.5372ZM30.0552 12.1696L30.0552 12.1696L31.4694 10.7554C32.1183 11.4043 32.2423 12.4116 31.7702 13.1986L30.0552 12.1696ZM28.3356 15.0356L30.0552 12.1696L31.7702 13.1986L30.0506 16.0646L28.3356 15.0356ZM26.3132 13.55L29.5056 14.6002L28.8805 16.5L25.6882 15.4498L26.3132 13.55ZM25.9003 10.9949L26.9506 14.1874L25.0508 14.8124L24.0005 11.62L25.9003 10.9949ZM28.3309 10.4453L25.4649 12.165L24.4359 10.45L27.3019 8.73036L28.3309 10.4453ZM28.3309 10.4453L28.3309 10.4453L27.3019 8.73036C28.0889 8.25819 29.0962 8.3822 29.7451 9.03113L28.3309 10.4453ZM30.0552 12.1696L28.3309 10.4453L29.7451 9.03113L31.4694 10.7554L30.0552 12.1696ZM12.6994 32.2694C11.9124 32.7415 10.9051 32.6175 10.2562 31.9686L11.6704 30.5544L12.6994 32.2694ZM15.5654 30.5497L12.6994 32.2694L11.6704 30.5544L14.5364 28.8347L15.5654 30.5497ZM14.9506 26.1874L16.0008 29.3797L14.101 30.0048L13.0508 26.8124L14.9506 26.1874ZM11.1208 24.4997L14.3132 25.55L13.6882 27.4498L10.4958 26.3995L11.1208 24.4997ZM8.23117 27.8011L9.95079 24.9351L11.6658 25.9641L9.94616 28.8301L8.23117 27.8011ZM8.53195 30.2443C7.88301 29.5954 7.759 28.5881 8.23117 27.8011L9.94616 28.8301L8.53195 30.2443ZM10.2562 31.9686L8.53195 30.2443L9.94616 28.8301L11.6704 30.5544L10.2562 31.9686Z" fill="#F07EFF" mask="url(#path-6-inside-3_1555_8784)"/>
<mask id="path-8-inside-4_1555_8784" fill="white">
<path fill-rule="evenodd" clip-rule="evenodd" d="M6 21.7192C6 22.1781 6.3123 22.5781 6.75746 22.6894L10 23.5L11 20.5L10 17.5L6.75746 18.3106C6.3123 18.4219 6 18.8219 6 19.2808V21.7192ZM34 21.7192C34 22.1781 33.6877 22.5781 33.2425 22.6894L30 23.5L29 20.5L30 17.5L33.2425 18.3106C33.6877 18.4219 34 18.8219 34 19.2808V21.7192Z"/>
</mask>
<path d="M6.75746 22.6894L6.51493 23.6595V23.6595L6.75746 22.6894ZM10 23.5L9.75746 24.4701L10.6558 24.6947L10.9487 23.8162L10 23.5ZM11 20.5L11.9487 20.8162L12.0541 20.5L11.9487 20.1838L11 20.5ZM10 17.5L10.9487 17.1838L10.6558 16.3053L9.75746 16.5299L10 17.5ZM6.75746 18.3106L7 19.2808L7 19.2808L6.75746 18.3106ZM33.2425 22.6894L33.4851 23.6595V23.6595L33.2425 22.6894ZM30 23.5L29.0513 23.8162L29.3442 24.6947L30.2425 24.4701L30 23.5ZM29 20.5L28.0513 20.1838L27.9459 20.5L28.0513 20.8162L29 20.5ZM30 17.5L30.2425 16.5299L29.3442 16.3053L29.0513 17.1838L30 17.5ZM7 21.7192L7 21.7192H5C5 22.637 5.62459 23.4369 6.51493 23.6595L7 21.7192ZM10.2425 22.5299L7 21.7192L6.51493 23.6595L9.75746 24.4701L10.2425 22.5299ZM10.0513 20.1838L9.05132 23.1838L10.9487 23.8162L11.9487 20.8162L10.0513 20.1838ZM9.05132 17.8162L10.0513 20.8162L11.9487 20.1838L10.9487 17.1838L9.05132 17.8162ZM7 19.2808L10.2425 18.4701L9.75746 16.5299L6.51493 17.3405L7 19.2808ZM7 19.2808L7 19.2808L6.51493 17.3405C5.62459 17.5631 5 18.363 5 19.2808H7ZM7 21.7192V19.2808H5V21.7192H7ZM33.4851 23.6595C34.3754 23.4369 35 22.637 35 21.7192H33L33.4851 23.6595ZM30.2425 24.4701L33.4851 23.6595L33 21.7192L29.7575 22.5299L30.2425 24.4701ZM28.0513 20.8162L29.0513 23.8162L30.9487 23.1838L29.9487 20.1838L28.0513 20.8162ZM29.0513 17.1838L28.0513 20.1838L29.9487 20.8162L30.9487 17.8162L29.0513 17.1838ZM33.4851 17.3405L30.2425 16.5299L29.7575 18.4701L33 19.2808L33.4851 17.3405ZM35 19.2808C35 18.363 34.3754 17.5631 33.4851 17.3405L33 19.2808H35ZM35 21.7192V19.2808H33V21.7192H35Z" fill="#F07EFF" mask="url(#path-8-inside-4_1555_8784)"/>
<path fill-rule="evenodd" clip-rule="evenodd" d="M20 31.5C26.0751 31.5 31 26.5751 31 20.5C31 14.4249 26.0751 9.5 20 9.5C13.9249 9.5 9 14.4249 9 20.5C9 26.5751 13.9249 31.5 20 31.5ZM20 27.5C23.866 27.5 27 24.366 27 20.5C27 16.634 23.866 13.5 20 13.5C16.134 13.5 13 16.634 13 20.5C13 24.366 16.134 27.5 20 27.5Z" fill="url(#paint0_linear_1555_8784)"/>
<rect x="15" y="18.5" width="1" height="1" fill="#1B1B22"/>
<rect x="14" y="18.5" width="1" height="1" fill="#1B1B22"/>
<rect x="14" y="19.5" width="1" height="1" fill="#1B1B22"/>
<rect x="14" y="20.5" width="1" height="1" fill="#1B1B22"/>
<rect x="15" y="20.5" width="1" height="1" fill="#1B1B22"/>
<rect x="16" y="20.5" width="1" height="1" fill="#1B1B22"/>
<rect x="14" y="21.5" width="1" height="1" fill="#1B1B22"/>
<rect x="16" y="18.5" width="1" height="1" fill="#1B1B22"/>
<rect x="17" y="18.5" width="1" height="1" fill="#1B1B22"/>
<rect x="19" y="18.5" width="1" height="1" fill="#1B1B22"/>
<rect x="20" y="18.5" width="1" height="1" fill="#1B1B22"/>
<rect x="21" y="18.5" width="1" height="1" fill="#1B1B22"/>
<rect x="22" y="18.5" width="1" height="1" fill="#1B1B22"/>
<rect x="22" y="19.5" width="1" height="1" fill="#1B1B22"/>
<rect x="24" y="19.5" width="1" height="1" fill="#1B1B22"/>
<rect x="24" y="20.5" width="1" height="1" fill="#1B1B22"/>
<rect x="24" y="21.5" width="1" height="1" fill="#1B1B22"/>
<rect x="24" y="18.5" width="1" height="1" fill="#1B1B22"/>
<rect x="22" y="20.5" width="1" height="1" fill="#1B1B22"/>
<rect x="21" y="20.5" width="1" height="1" fill="#1B1B22"/>
<rect x="20" y="20.5" width="1" height="1" fill="#1B1B22"/>
<rect x="19" y="21.5" width="1" height="1" fill="#1B1B22"/>
<rect x="19" y="20.5" width="1" height="1" fill="#1B1B22"/>
<rect x="19" y="19.5" width="1" height="1" fill="#1B1B22"/>
<rect x="17" y="19.5" width="1" height="1" fill="#1B1B22"/>
<rect x="17" y="20.5" width="1" height="1" fill="#1B1B22"/>
<rect x="17" y="21.5" width="1" height="1" fill="#1B1B22"/>
<defs>
<linearGradient id="paint0_linear_1555_8784" x1="7.19286" y1="22.1042" x2="32.5865" y2="9.5886" gradientUnits="userSpaceOnUse">
<stop stop-color="#492EF3"/>
<stop offset="1" stop-color="#CF69FF"/>
</linearGradient>
</defs>
</svg>
