<svg width="18" height="18" viewBox="0 0 18 18" fill="none" xmlns="http://www.w3.org/2000/svg">
<path d="M16.2821 6.71324L13.2821 3.71324C13.2122 3.64331 13.1292 3.58784 13.0378 3.55C12.9464 3.51215 12.8485 3.49267 12.7496 3.49267C12.5499 3.49267 12.3583 3.57201 12.2171 3.71324C12.0759 3.85447 11.9965 4.04602 11.9965 4.24574C11.9965 4.44547 12.0759 4.63701 12.2171 4.77824L13.9421 6.49574H5.24962C5.0507 6.49574 4.85994 6.57476 4.71929 6.71541C4.57863 6.85607 4.49962 7.04683 4.49962 7.24574C4.49962 7.44466 4.57863 7.63542 4.71929 7.77607C4.85994 7.91673 5.0507 7.99574 5.24962 7.99574H15.7496C15.8977 7.995 16.0422 7.95045 16.165 7.8677C16.2878 7.78495 16.3834 7.66771 16.4396 7.53074C16.4971 7.39416 16.5127 7.24362 16.4847 7.09813C16.4567 6.95264 16.3862 6.81871 16.2821 6.71324ZM12.7496 10.4957H2.24962C2.10155 10.4965 1.95701 10.541 1.83422 10.6238C1.71143 10.7065 1.61588 10.8238 1.55962 10.9607C1.50218 11.0973 1.48649 11.2479 1.51452 11.3934C1.54255 11.5388 1.61305 11.6728 1.71712 11.7782L4.71712 14.7782C4.78684 14.8485 4.86979 14.9043 4.96118 14.9424C5.05258 14.9805 5.15061 15.0001 5.24962 15.0001C5.34863 15.0001 5.44665 14.9805 5.53805 14.9424C5.62944 14.9043 5.71239 14.8485 5.78212 14.7782C5.85241 14.7085 5.90821 14.6256 5.94629 14.5342C5.98436 14.4428 6.00397 14.3448 6.00397 14.2457C6.00397 14.1467 5.98436 14.0487 5.94629 13.9573C5.90821 13.8659 5.85241 13.783 5.78212 13.7132L4.05712 11.9957H12.7496C12.9485 11.9957 13.1393 11.9167 13.2799 11.7761C13.4206 11.6354 13.4996 11.4447 13.4996 11.2457C13.4996 11.0468 13.4206 10.8561 13.2799 10.7154C13.1393 10.5748 12.9485 10.4957 12.7496 10.4957Z" fill="currentColor"/>
</svg>
