<svg width="24" height="24" viewBox="0 0 24 24" fill="none" xmlns="http://www.w3.org/2000/svg">
<path id="Vector" d="M8.46026 11.29L14.1203 5.64004C14.2132 5.54631 14.3238 5.47191 14.4457 5.42115C14.5675 5.37038 14.6983 5.34424 14.8303 5.34424C14.9623 5.34424 15.093 5.37038 15.2148 5.42115C15.3367 5.47191 15.4473 5.54631 15.5403 5.64004C15.7265 5.8274 15.8311 6.08085 15.8311 6.34504C15.8311 6.60922 15.7265 6.86267 15.5403 7.05004L10.5903 12.05L15.5403 17C15.7265 17.1874 15.8311 17.4409 15.8311 17.705C15.8311 17.9692 15.7265 18.2227 15.5403 18.41C15.4476 18.5045 15.3372 18.5797 15.2153 18.6312C15.0935 18.6827 14.9626 18.7095 14.8303 18.71C14.698 18.7095 14.5671 18.6827 14.4452 18.6312C14.3233 18.5797 14.2129 18.5045 14.1203 18.41L8.46026 12.76C8.35876 12.6664 8.27775 12.5527 8.22234 12.4262C8.16693 12.2997 8.13833 12.1631 8.13833 12.025C8.13833 11.8869 8.16693 11.7503 8.22234 11.6238C8.27775 11.4973 8.35876 11.3837 8.46026 11.29Z" fill="currentColor"/>
</svg>
