<svg width="17" height="17" viewBox="0 0 17 17" fill="none"
  xmlns="http://www.w3.org/2000/svg">
  <path d="M11.7944 1.74365H3.79435C3.61754 1.74365 3.44797 1.81389 3.32295 1.93891C3.19792 2.06394 3.12769 2.23351 3.12769 2.41032V14.4103C3.12769 14.5871 3.19792 14.7567 3.32295 14.8817C3.44797 15.0067 3.61754 15.077 3.79435 15.077H11.7944C12.3248 15.077 12.8335 14.8663 13.2086 14.4912C13.5836 14.1161 13.7944 13.6074 13.7944 13.077V3.74365C13.7944 3.21322 13.5836 2.70451 13.2086 2.32944C12.8335 1.95437 12.3248 1.74365 11.7944 1.74365ZM5.79435 13.7437H4.46102V3.07699H5.79435V13.7437ZM12.461 13.077C12.461 13.2538 12.3908 13.4234 12.2658 13.5484C12.1407 13.6734 11.9712 13.7437 11.7944 13.7437H7.12769V3.07699H11.7944C11.9712 3.07699 12.1407 3.14722 12.2658 3.27225C12.3908 3.39727 12.461 3.56684 12.461 3.74365V13.077Z" fill="currentcolor" />
</svg>
