<svg width="21" height="20" viewBox="0 0 21 20" fill="none" xmlns="http://www.w3.org/2000/svg">
<path d="M12.1665 6.66675H12.9998C13.2209 6.66675 13.4328 6.57895 13.5891 6.42267C13.7454 6.26639 13.8332 6.05443 13.8332 5.83342C13.8332 5.6124 13.7454 5.40044 13.5891 5.24416C13.4328 5.08788 13.2209 5.00008 12.9998 5.00008H12.1665C11.9455 5.00008 11.7335 5.08788 11.5772 5.24416C11.421 5.40044 11.3332 5.6124 11.3332 5.83342C11.3332 6.05443 11.421 6.26639 11.5772 6.42267C11.7335 6.57895 11.9455 6.66675 12.1665 6.66675ZM12.1665 10.0001H12.9998C13.2209 10.0001 13.4328 9.91228 13.5891 9.756C13.7454 9.59972 13.8332 9.38776 13.8332 9.16675C13.8332 8.94573 13.7454 8.73377 13.5891 8.57749C13.4328 8.42121 13.2209 8.33342 12.9998 8.33342H12.1665C11.9455 8.33342 11.7335 8.42121 11.5772 8.57749C11.421 8.73377 11.3332 8.94573 11.3332 9.16675C11.3332 9.38776 11.421 9.59972 11.5772 9.756C11.7335 9.91228 11.9455 10.0001 12.1665 10.0001ZM7.99984 6.66675H8.83317C9.05418 6.66675 9.26615 6.57895 9.42243 6.42267C9.57871 6.26639 9.6665 6.05443 9.6665 5.83342C9.6665 5.6124 9.57871 5.40044 9.42243 5.24416C9.26615 5.08788 9.05418 5.00008 8.83317 5.00008H7.99984C7.77882 5.00008 7.56686 5.08788 7.41058 5.24416C7.2543 5.40044 7.1665 5.6124 7.1665 5.83342C7.1665 6.05443 7.2543 6.26639 7.41058 6.42267C7.56686 6.57895 7.77882 6.66675 7.99984 6.66675ZM7.99984 10.0001H8.83317C9.05418 10.0001 9.26615 9.91228 9.42243 9.756C9.57871 9.59972 9.6665 9.38776 9.6665 9.16675C9.6665 8.94573 9.57871 8.73377 9.42243 8.57749C9.26615 8.42121 9.05418 8.33342 8.83317 8.33342H7.99984C7.77882 8.33342 7.56686 8.42121 7.41058 8.57749C7.2543 8.73377 7.1665 8.94573 7.1665 9.16675C7.1665 9.38776 7.2543 9.59972 7.41058 9.756C7.56686 9.91228 7.77882 10.0001 7.99984 10.0001ZM17.9998 16.6667H17.1665V2.50008C17.1665 2.27907 17.0787 2.06711 16.9224 1.91083C16.7661 1.75455 16.5542 1.66675 16.3332 1.66675H4.6665C4.44549 1.66675 4.23353 1.75455 4.07725 1.91083C3.92097 2.06711 3.83317 2.27907 3.83317 2.50008V16.6667H2.99984C2.77882 16.6667 2.56686 16.7545 2.41058 16.9108C2.2543 17.0671 2.1665 17.2791 2.1665 17.5001C2.1665 17.7211 2.2543 17.9331 2.41058 18.0893C2.56686 18.2456 2.77882 18.3334 2.99984 18.3334H17.9998C18.2209 18.3334 18.4328 18.2456 18.5891 18.0893C18.7454 17.9331 18.8332 17.7211 18.8332 17.5001C18.8332 17.2791 18.7454 17.0671 18.5891 16.9108C18.4328 16.7545 18.2209 16.6667 17.9998 16.6667ZM11.3332 16.6667H9.6665V13.3334H11.3332V16.6667ZM15.4998 16.6667H12.9998V12.5001C12.9998 12.2791 12.912 12.0671 12.7558 11.9108C12.5995 11.7545 12.3875 11.6667 12.1665 11.6667H8.83317C8.61216 11.6667 8.4002 11.7545 8.24392 11.9108C8.08764 12.0671 7.99984 12.2791 7.99984 12.5001V16.6667H5.49984V3.33341H15.4998V16.6667Z" fill="currentColor"/>
</svg>
