<svg width="48" height="48" viewBox="0 0 48 48" fill="none" xmlns="http://www.w3.org/2000/svg">
<rect width="48" height="48" rx="16" fill="#EFF1F1"/>
<path d="M33.6133 11.5556H35.3876V12.4444H33.6133V11.5556Z" fill="#66757F"/>
<path d="M9.77777 16V34.5185C9.77777 36.5639 11.3698 38.2222 13.3333 38.2222H34.6667C36.6302 38.2222 38.2222 36.5639 38.2222 34.5185V16H9.77777Z" fill="#C9C5D0"/>
<path d="M34.6667 9.77777H13.3333C11.3698 9.77777 9.77777 11.016 9.77777 12.5432V16H38.2222V12.5432C38.2222 11.016 36.6302 9.77777 34.6667 9.77777Z" fill="#DD3730"/>
<path d="M17.7778 19.5556C17.7778 19.0646 18.1757 18.6667 18.6666 18.6667H20.4444C20.9353 18.6667 21.3333 19.0646 21.3333 19.5556V21.3333C21.3333 21.8243 20.9353 22.2222 20.4444 22.2222H18.6666C18.1757 22.2222 17.7778 21.8243 17.7778 21.3333V19.5556ZM22.2222 19.5556C22.2222 19.0646 22.6202 18.6667 23.1111 18.6667H24.8889C25.3798 18.6667 25.7778 19.0646 25.7778 19.5556V21.3333C25.7778 21.8243 25.3798 22.2222 24.8889 22.2222H23.1111C22.6202 22.2222 22.2222 21.8243 22.2222 21.3333V19.5556ZM26.6666 19.5556C26.6666 19.0646 27.0646 18.6667 27.5555 18.6667H29.3333C29.8242 18.6667 30.2222 19.0646 30.2222 19.5556V21.3333C30.2222 21.8243 29.8242 22.2222 29.3333 22.2222H27.5555C27.0646 22.2222 26.6666 21.8243 26.6666 21.3333V19.5556ZM31.1111 19.5556C31.1111 19.0646 31.5091 18.6667 32 18.6667H33.7778C34.2687 18.6667 34.6666 19.0646 34.6666 19.5556V21.3333C34.6666 21.8243 34.2687 22.2222 33.7778 22.2222H32C31.5091 22.2222 31.1111 21.8243 31.1111 21.3333V19.5556ZM13.3333 24C13.3333 23.5091 13.7313 23.1111 14.2222 23.1111H16C16.4909 23.1111 16.8889 23.5091 16.8889 24V25.7778C16.8889 26.2687 16.4909 26.6667 16 26.6667H14.2222C13.7313 26.6667 13.3333 26.2687 13.3333 25.7778V24ZM17.7778 24C17.7778 23.5091 18.1757 23.1111 18.6666 23.1111H20.4444C20.9353 23.1111 21.3333 23.5091 21.3333 24V25.7778C21.3333 26.2687 20.9353 26.6667 20.4444 26.6667H18.6666C18.1757 26.6667 17.7778 26.2687 17.7778 25.7778V24ZM22.2222 24C22.2222 23.5091 22.6202 23.1111 23.1111 23.1111H24.8889C25.3798 23.1111 25.7778 23.5091 25.7778 24V25.7778C25.7778 26.2687 25.3798 26.6667 24.8889 26.6667H23.1111C22.6202 26.6667 22.2222 26.2687 22.2222 25.7778V24ZM26.6666 24C26.6666 23.5091 27.0646 23.1111 27.5555 23.1111H29.3333C29.8242 23.1111 30.2222 23.5091 30.2222 24V25.7778C30.2222 26.2687 29.8242 26.6667 29.3333 26.6667H27.5555C27.0646 26.6667 26.6666 26.2687 26.6666 25.7778V24ZM31.1111 24C31.1111 23.5091 31.5091 23.1111 32 23.1111H33.7778C34.2687 23.1111 34.6666 23.5091 34.6666 24V25.7778C34.6666 26.2687 34.2687 26.6667 33.7778 26.6667H32C31.5091 26.6667 31.1111 26.2687 31.1111 25.7778V24ZM13.3333 28.4444C13.3333 27.9535 13.7313 27.5556 14.2222 27.5556H16C16.4909 27.5556 16.8889 27.9535 16.8889 28.4444V30.2222C16.8889 30.7131 16.4909 31.1111 16 31.1111H14.2222C13.7313 31.1111 13.3333 30.7131 13.3333 30.2222V28.4444ZM17.7778 28.4444C17.7778 27.9535 18.1757 27.5556 18.6666 27.5556H20.4444C20.9353 27.5556 21.3333 27.9535 21.3333 28.4444V30.2222C21.3333 30.7131 20.9353 31.1111 20.4444 31.1111H18.6666C18.1757 31.1111 17.7778 30.7131 17.7778 30.2222V28.4444ZM22.2222 28.4444C22.2222 27.9535 22.6202 27.5556 23.1111 27.5556H24.8889C25.3798 27.5556 25.7778 27.9535 25.7778 28.4444V30.2222C25.7778 30.7131 25.3798 31.1111 24.8889 31.1111H23.1111C22.6202 31.1111 22.2222 30.7131 22.2222 30.2222V28.4444ZM26.6666 28.4444C26.6666 27.9535 27.0646 27.5556 27.5555 27.5556H29.3333C29.8242 27.5556 30.2222 27.9535 30.2222 28.4444V30.2222C30.2222 30.7131 29.8242 31.1111 29.3333 31.1111H27.5555C27.0646 31.1111 26.6666 30.7131 26.6666 30.2222V28.4444ZM31.1111 28.4444C31.1111 27.9535 31.5091 27.5556 32 27.5556H33.7778C34.2687 27.5556 34.6666 27.9535 34.6666 28.4444V30.2222C34.6666 30.7131 34.2687 31.1111 33.7778 31.1111H32C31.5091 31.1111 31.1111 30.7131 31.1111 30.2222V28.4444ZM13.3333 32.8889C13.3333 32.398 13.7313 32 14.2222 32H16C16.4909 32 16.8889 32.398 16.8889 32.8889V34.6667C16.8889 35.1576 16.4909 35.5556 16 35.5556H14.2222C13.7313 35.5556 13.3333 35.1576 13.3333 34.6667V32.8889ZM17.7778 32.8889C17.7778 32.398 18.1757 32 18.6666 32H20.4444C20.9353 32 21.3333 32.398 21.3333 32.8889V34.6667C21.3333 35.1576 20.9353 35.5556 20.4444 35.5556H18.6666C18.1757 35.5556 17.7778 35.1576 17.7778 34.6667V32.8889ZM22.2222 32.8889C22.2222 32.398 22.6202 32 23.1111 32H24.8889C25.3798 32 25.7778 32.398 25.7778 32.8889V34.6667C25.7778 35.1576 25.3798 35.5556 24.8889 35.5556H23.1111C22.6202 35.5556 22.2222 35.1576 22.2222 34.6667V32.8889Z" fill="white"/>
</svg>
