<svg width="48" height="48" viewBox="0 0 48 48" fill="none" xmlns="http://www.w3.org/2000/svg">
<rect width="48" height="48" rx="12" fill="#191C1D"/>
<rect width="48" height="48" rx="12" fill="#C4C7C7" fill-opacity="0.02"/>
<rect width="48" height="48" rx="12" fill="#CABEFF" fill-opacity="0.14"/>
<path d="M33.6133 11.5557H35.3875V12.4446H33.6133V11.5557Z" fill="#66757F"/>
<path opacity="0.8" d="M9.77783 16V34.5185C9.77783 36.5639 11.3698 38.2222 13.3334 38.2222H34.6667C36.6303 38.2222 38.2223 36.5639 38.2223 34.5185V16H9.77783Z" fill="#C9C5D0"/>
<path d="M34.6667 9.77783H13.3334C11.3698 9.77783 9.77783 11.0161 9.77783 12.5433V16.0001H38.2223V12.5433C38.2223 11.0161 36.6303 9.77783 34.6667 9.77783Z" fill="#DD3730"/>
<path d="M17.7779 19.5556C17.7779 19.0647 18.1759 18.6667 18.6668 18.6667H20.4446C20.9355 18.6667 21.3335 19.0647 21.3335 19.5556V21.3334C21.3335 21.8243 20.9355 22.2223 20.4446 22.2223H18.6668C18.1759 22.2223 17.7779 21.8243 17.7779 21.3334V19.5556ZM22.2224 19.5556C22.2224 19.0647 22.6204 18.6667 23.1113 18.6667H24.8891C25.38 18.6667 25.7779 19.0647 25.7779 19.5556V21.3334C25.7779 21.8243 25.38 22.2223 24.8891 22.2223H23.1113C22.6204 22.2223 22.2224 21.8243 22.2224 21.3334V19.5556ZM26.6668 19.5556C26.6668 19.0647 27.0648 18.6667 27.5557 18.6667H29.3335C29.8244 18.6667 30.2224 19.0647 30.2224 19.5556V21.3334C30.2224 21.8243 29.8244 22.2223 29.3335 22.2223H27.5557C27.0648 22.2223 26.6668 21.8243 26.6668 21.3334V19.5556ZM31.1113 19.5556C31.1113 19.0647 31.5092 18.6667 32.0002 18.6667H33.7779C34.2689 18.6667 34.6668 19.0647 34.6668 19.5556V21.3334C34.6668 21.8243 34.2689 22.2223 33.7779 22.2223H32.0002C31.5092 22.2223 31.1113 21.8243 31.1113 21.3334V19.5556ZM13.3335 24.0001C13.3335 23.5092 13.7315 23.1112 14.2224 23.1112H16.0002C16.4911 23.1112 16.8891 23.5092 16.8891 24.0001V25.7779C16.8891 26.2688 16.4911 26.6667 16.0002 26.6667H14.2224C13.7315 26.6667 13.3335 26.2688 13.3335 25.7779V24.0001ZM17.7779 24.0001C17.7779 23.5092 18.1759 23.1112 18.6668 23.1112H20.4446C20.9355 23.1112 21.3335 23.5092 21.3335 24.0001V25.7779C21.3335 26.2688 20.9355 26.6667 20.4446 26.6667H18.6668C18.1759 26.6667 17.7779 26.2688 17.7779 25.7779V24.0001ZM22.2224 24.0001C22.2224 23.5092 22.6204 23.1112 23.1113 23.1112H24.8891C25.38 23.1112 25.7779 23.5092 25.7779 24.0001V25.7779C25.7779 26.2688 25.38 26.6667 24.8891 26.6667H23.1113C22.6204 26.6667 22.2224 26.2688 22.2224 25.7779V24.0001ZM26.6668 24.0001C26.6668 23.5092 27.0648 23.1112 27.5557 23.1112H29.3335C29.8244 23.1112 30.2224 23.5092 30.2224 24.0001V25.7779C30.2224 26.2688 29.8244 26.6667 29.3335 26.6667H27.5557C27.0648 26.6667 26.6668 26.2688 26.6668 25.7779V24.0001ZM31.1113 24.0001C31.1113 23.5092 31.5092 23.1112 32.0002 23.1112H33.7779C34.2689 23.1112 34.6668 23.5092 34.6668 24.0001V25.7779C34.6668 26.2688 34.2689 26.6667 33.7779 26.6667H32.0002C31.5092 26.6667 31.1113 26.2688 31.1113 25.7779V24.0001ZM13.3335 28.4445C13.3335 27.9536 13.7315 27.5556 14.2224 27.5556H16.0002C16.4911 27.5556 16.8891 27.9536 16.8891 28.4445V30.2223C16.8891 30.7132 16.4911 31.1112 16.0002 31.1112H14.2224C13.7315 31.1112 13.3335 30.7132 13.3335 30.2223V28.4445ZM17.7779 28.4445C17.7779 27.9536 18.1759 27.5556 18.6668 27.5556H20.4446C20.9355 27.5556 21.3335 27.9536 21.3335 28.4445V30.2223C21.3335 30.7132 20.9355 31.1112 20.4446 31.1112H18.6668C18.1759 31.1112 17.7779 30.7132 17.7779 30.2223V28.4445ZM22.2224 28.4445C22.2224 27.9536 22.6204 27.5556 23.1113 27.5556H24.8891C25.38 27.5556 25.7779 27.9536 25.7779 28.4445V30.2223C25.7779 30.7132 25.38 31.1112 24.8891 31.1112H23.1113C22.6204 31.1112 22.2224 30.7132 22.2224 30.2223V28.4445ZM26.6668 28.4445C26.6668 27.9536 27.0648 27.5556 27.5557 27.5556H29.3335C29.8244 27.5556 30.2224 27.9536 30.2224 28.4445V30.2223C30.2224 30.7132 29.8244 31.1112 29.3335 31.1112H27.5557C27.0648 31.1112 26.6668 30.7132 26.6668 30.2223V28.4445ZM31.1113 28.4445C31.1113 27.9536 31.5092 27.5556 32.0002 27.5556H33.7779C34.2689 27.5556 34.6668 27.9536 34.6668 28.4445V30.2223C34.6668 30.7132 34.2689 31.1112 33.7779 31.1112H32.0002C31.5092 31.1112 31.1113 30.7132 31.1113 30.2223V28.4445ZM13.3335 32.889C13.3335 32.3981 13.7315 32.0001 14.2224 32.0001H16.0002C16.4911 32.0001 16.8891 32.3981 16.8891 32.889V34.6667C16.8891 35.1577 16.4911 35.5556 16.0002 35.5556H14.2224C13.7315 35.5556 13.3335 35.1577 13.3335 34.6667V32.889ZM17.7779 32.889C17.7779 32.3981 18.1759 32.0001 18.6668 32.0001H20.4446C20.9355 32.0001 21.3335 32.3981 21.3335 32.889V34.6667C21.3335 35.1577 20.9355 35.5556 20.4446 35.5556H18.6668C18.1759 35.5556 17.7779 35.1577 17.7779 34.6667V32.889ZM22.2224 32.889C22.2224 32.3981 22.6204 32.0001 23.1113 32.0001H24.8891C25.38 32.0001 25.7779 32.3981 25.7779 32.889V34.6667C25.7779 35.1577 25.38 35.5556 24.8891 35.5556H23.1113C22.6204 35.5556 22.2224 35.1577 22.2224 34.6667V32.889Z" fill="white"/>
</svg>
