<svg width="20" height="20" viewBox="0 0 20 20" fill="none"
  xmlns="http://www.w3.org/2000/svg">
  <path d="M5.83268 12.4998H8.33268C8.5537 12.4998 8.76566 12.412 8.92194 12.2558C9.07822 12.0995 9.16602 11.8875 9.16602 11.6665C9.16602 11.4455 9.07822 11.2335 8.92194 11.0772C8.76566 10.921 8.5537 10.8332 8.33268 10.8332H5.83268C5.61167 10.8332 5.39971 10.921 5.24343 11.0772C5.08715 11.2335 4.99935 11.4455 4.99935 11.6665C4.99935 11.8875 5.08715 12.0995 5.24343 12.2558C5.39971 12.412 5.61167 12.4998 5.83268 12.4998ZM15.8327 4.1665H4.16602C3.50297 4.1665 2.86709 4.4299 2.39825 4.89874C1.92941 5.36758 1.66602 6.00346 1.66602 6.6665V14.1665C1.66602 14.8295 1.92941 15.4654 2.39825 15.9343C2.86709 16.4031 3.50297 16.6665 4.16602 16.6665H15.8327C16.4957 16.6665 17.1316 16.4031 17.6004 15.9343C18.0693 15.4654 18.3327 14.8295 18.3327 14.1665V6.6665C18.3327 6.00346 18.0693 5.36758 17.6004 4.89874C17.1316 4.4299 16.4957 4.1665 15.8327 4.1665ZM16.666 14.1665C16.666 14.3875 16.5782 14.5995 16.4219 14.7558C16.2657 14.912 16.0537 14.9998 15.8327 14.9998H4.16602C3.945 14.9998 3.73304 14.912 3.57676 14.7558C3.42048 14.5995 3.33268 14.3875 3.33268 14.1665V9.1665H16.666V14.1665ZM16.666 7.49984H3.33268V6.6665C3.33268 6.44549 3.42048 6.23353 3.57676 6.07725C3.73304 5.92097 3.945 5.83317 4.16602 5.83317H15.8327C16.0537 5.83317 16.2657 5.92097 16.4219 6.07725C16.5782 6.23353 16.666 6.44549 16.666 6.6665V7.49984Z" fill="currentColor"/>
</svg>
