<svg width="20" height="20" viewBox="0 0 20 20" fill="none" xmlns="http://www.w3.org/2000/svg">
<path d="M10.5917 12.3583L14.125 8.825C14.2031 8.74753 14.2651 8.65536 14.3074 8.55381C14.3497 8.45226 14.3715 8.34334 14.3715 8.23333C14.3715 8.12332 14.3497 8.0144 14.3074 7.91285C14.2651 7.8113 14.2031 7.71913 14.125 7.64166C13.9689 7.48646 13.7577 7.39934 13.5375 7.39934C13.3174 7.39934 13.1062 7.48646 12.95 7.64166L10 10.5917L7.05002 7.64166C6.89389 7.48646 6.68268 7.39934 6.46252 7.39934C6.24237 7.39934 6.03116 7.48646 5.87502 7.64166C5.79779 7.71953 5.73668 7.81188 5.69521 7.91341C5.65374 8.01494 5.63272 8.12366 5.63336 8.23333C5.63272 8.343 5.65374 8.45172 5.69521 8.55325C5.73668 8.65478 5.79779 8.74713 5.87502 8.825L9.40836 12.3583C9.48582 12.4364 9.57799 12.4984 9.67954 12.5407C9.78109 12.583 9.89001 12.6048 10 12.6048C10.11 12.6048 10.219 12.583 10.3205 12.5407C10.4221 12.4984 10.5142 12.4364 10.5917 12.3583Z" fill="currentColor"/>
</svg>
