<svg width="16" height="16" viewBox="0 0 16 16" fill="none" xmlns="http://www.w3.org/2000/svg">
<path d="M7.52655 6.11337L4.69988 8.94004C4.6374 9.00201 4.5878 9.07575 4.55396 9.15699C4.52011 9.23823 4.50269 9.32536 4.50269 9.41337C4.50269 9.50138 4.52011 9.58852 4.55396 9.66976C4.5878 9.751 4.6374 9.82473 4.69988 9.8867C4.82479 10.0109 4.99376 10.0806 5.16988 10.0806C5.34601 10.0806 5.51498 10.0109 5.63988 9.8867L7.99988 7.5267L10.3599 9.8867C10.4848 10.0109 10.6538 10.0806 10.8299 10.0806C11.006 10.0806 11.175 10.0109 11.2999 9.8867C11.3617 9.82441 11.4106 9.75053 11.4437 9.66931C11.4769 9.58808 11.4937 9.50111 11.4932 9.41337C11.4937 9.32563 11.4769 9.23866 11.4437 9.15743C11.4106 9.07621 11.3617 9.00233 11.2999 8.94004L8.47322 6.11337C8.41124 6.05089 8.33751 6.00129 8.25627 5.96744C8.17503 5.9336 8.08789 5.91617 7.99988 5.91617C7.91188 5.91617 7.82474 5.9336 7.7435 5.96744C7.66226 6.00129 7.58853 6.05089 7.52655 6.11337Z" fill="currentColor"/>
</svg>
