<svg width="20" height="20" viewBox="0 0 20 20" fill="none" xmlns="http://www.w3.org/2000/svg">
<path d="M10 10.833V17.4997" stroke="#5D34F2" stroke-width="1.45833" stroke-linecap="round" stroke-linejoin="round"/>
<path d="M3.33333 12.4156C2.7142 11.783 2.24714 11.0178 1.96753 10.178C1.68792 9.3382 1.60309 8.44577 1.71946 7.56832C1.83584 6.69086 2.15038 5.8514 2.63924 5.11351C3.12811 4.37562 3.77848 3.75866 4.54111 3.30936C5.30373 2.86005 6.1586 2.59019 7.04097 2.52021C7.92334 2.45023 8.81006 2.58197 9.63397 2.90545C10.4579 3.22893 11.1974 3.73566 11.7964 4.38726C12.3955 5.03887 12.8384 5.81826 13.0917 6.6664H14.5833C15.3879 6.66631 16.1712 6.925 16.8175 7.40427C17.4638 7.88353 17.9388 8.55795 18.1723 9.3279C18.4059 10.0979 18.3856 10.9225 18.1144 11.68C17.8433 12.4376 17.3357 13.0878 16.6667 13.5347" stroke="#5D34F2" stroke-width="1.45833" stroke-linecap="round" stroke-linejoin="round"/>
<path d="M6.66669 14.1663L10 10.833L13.3334 14.1663" stroke="#5D34F2" stroke-width="1.45833" stroke-linecap="round" stroke-linejoin="round"/>
</svg>
