<svg width="21" height="20" viewBox="0 0 21 20" fill="none" xmlns="http://www.w3.org/2000/svg">
<path d="M15.85 7.67495C15.3403 6.50479 14.4608 5.53411 13.3465 4.91174C12.2321 4.28938 10.9444 4.04967 9.68076 4.22938C8.41711 4.40909 7.24728 4.9983 6.35063 5.90666C5.45398 6.81503 4.88 7.9924 4.7167 9.25828C3.92219 9.44855 3.22522 9.92397 2.75815 10.5943C2.29108 11.2646 2.08643 12.0831 2.18308 12.8943C2.27973 13.7055 2.67094 14.453 3.28242 14.9948C3.8939 15.5366 4.68306 15.835 5.50003 15.8333H14.6667C15.6662 15.8305 16.6313 15.4686 17.3862 14.8135C18.141 14.1584 18.6353 13.2538 18.7787 12.2647C18.9222 11.2756 18.7053 10.2679 18.1677 9.42533C17.6301 8.58278 16.8075 7.96155 15.85 7.67495ZM14.6667 14.1666H5.50003C5.058 14.1666 4.63408 13.991 4.32152 13.6785C4.00896 13.3659 3.83336 12.942 3.83336 12.4999C3.83336 12.0579 4.00896 11.634 4.32152 11.3214C4.63408 11.0089 5.058 10.8333 5.50003 10.8333C5.72104 10.8333 5.93301 10.7455 6.08929 10.5892C6.24557 10.4329 6.33336 10.221 6.33336 9.99995C6.33549 9.01435 6.68694 8.06141 7.32525 7.31043C7.96357 6.55946 8.84744 6.05907 9.81982 5.89817C10.7922 5.73728 11.7901 5.92628 12.6363 6.43162C13.4825 6.93696 14.1222 7.7259 14.4417 8.65828C14.4906 8.79993 14.5768 8.92577 14.6911 9.02256C14.8055 9.11936 14.9439 9.18351 15.0917 9.20828C15.7025 9.32099 16.2495 9.65705 16.6261 10.151C17.0027 10.645 17.182 11.2614 17.1289 11.8803C17.0759 12.4992 16.7943 13.0761 16.3392 13.4988C15.884 13.9214 15.2878 14.1595 14.6667 14.1666Z" fill="currentColor"/>
</svg>
