<svg width="17" height="16" viewBox="0 0 17 16" fill="none" xmlns="http://www.w3.org/2000/svg">
  <path d="M13.5676 11.6599L10.1609 5.81992V2.66659H10.8276C11.0044 2.66659 11.174 2.59635 11.299 2.47132C11.424 2.3463 11.4942 2.17673 11.4942 1.99992C11.4942 1.82311 11.424 1.65354 11.299 1.52851C11.174 1.40349 11.0044 1.33325 10.8276 1.33325H5.49424C5.31743 1.33325 5.14786 1.40349 5.02283 1.52851C4.89781 1.65354 4.82757 1.82311 4.82757 1.99992C4.82757 2.17673 4.89781 2.3463 5.02283 2.47132C5.14786 2.59635 5.31743 2.66659 5.49424 2.66659H6.1609V5.81992L2.75424 11.6599C2.57727 11.9637 2.48351 12.3088 2.48243 12.6604C2.48135 13.012 2.57297 13.3577 2.74807 13.6626C2.92317 13.9675 3.17555 14.2208 3.47977 14.3971C3.78399 14.5734 4.12931 14.6663 4.4809 14.6666H11.8142C12.1658 14.6663 12.5111 14.5734 12.8154 14.3971C13.1196 14.2208 13.372 13.9675 13.5471 13.6626C13.7222 13.3577 13.8138 13.012 13.8127 12.6604C13.8116 12.3088 13.7179 11.9637 13.5409 11.6599H13.5676ZM7.4009 6.32659C7.4597 6.22758 7.49186 6.11504 7.49424 5.99992V2.66659H8.82757V5.99992C8.82879 6.11731 8.86099 6.2323 8.9209 6.33325L9.49424 7.33325H6.82757L7.4009 6.32659ZM12.4142 12.9933C12.3561 13.094 12.2725 13.1778 12.172 13.2363C12.0714 13.2947 11.9572 13.3259 11.8409 13.3266H4.50757C4.39123 13.3259 4.2771 13.2947 4.17651 13.2363C4.07593 13.1778 3.99241 13.094 3.93424 12.9933C3.87573 12.8919 3.84492 12.7769 3.84492 12.6599C3.84492 12.5429 3.87573 12.4279 3.93424 12.3266L6.04757 8.66659H10.2809L12.4142 12.3333C12.4727 12.4346 12.5036 12.5496 12.5036 12.6666C12.5036 12.7836 12.4727 12.8986 12.4142 12.9999V12.9933ZM6.82757 9.99992C6.69572 9.99992 6.56682 10.039 6.45719 10.1123C6.34756 10.1855 6.26211 10.2896 6.21165 10.4115C6.16119 10.5333 6.14799 10.6673 6.17371 10.7966C6.19944 10.926 6.26293 11.0448 6.35617 11.138C6.4494 11.2312 6.56819 11.2947 6.69751 11.3204C6.82683 11.3462 6.96088 11.333 7.08269 11.2825C7.20451 11.232 7.30863 11.1466 7.38188 11.037C7.45514 10.9273 7.49424 10.7984 7.49424 10.6666C7.49424 10.4898 7.424 10.3202 7.29897 10.1952C7.17395 10.0702 7.00438 9.99992 6.82757 9.99992ZM9.49424 10.6666C9.36238 10.6666 9.23349 10.7057 9.12386 10.7789C9.01422 10.8522 8.92878 10.9563 8.87832 11.0781C8.82786 11.1999 8.81466 11.334 8.84038 11.4633C8.8661 11.5926 8.9296 11.7114 9.02283 11.8047C9.11607 11.8979 9.23486 11.9614 9.36418 11.9871C9.4935 12.0128 9.62754 11.9996 9.74936 11.9492C9.87118 11.8987 9.9753 11.8133 10.0485 11.7036C10.1218 11.594 10.1609 11.4651 10.1609 11.3333C10.1609 11.1564 10.0907 10.9869 9.96564 10.8618C9.84062 10.7368 9.67105 10.6666 9.49424 10.6666Z" fill="currentcolor"/>
</svg>
  