<svg width="18" height="18" viewBox="0 0 18 18" fill="none" xmlns="http://www.w3.org/2000/svg">
<path d="M8.40836 11.7417C8.37252 11.7813 8.33912 11.823 8.30836 11.8667C8.27682 11.9131 8.2516 11.9636 8.23336 12.0167C8.20933 12.0639 8.19248 12.1145 8.18336 12.1667C8.17927 12.2221 8.17927 12.2778 8.18336 12.3333C8.18054 12.4426 8.20337 12.5511 8.25002 12.65C8.28745 12.7534 8.34716 12.8473 8.42493 12.9251C8.50269 13.0029 8.59661 13.0626 8.70002 13.1C8.79978 13.1441 8.90763 13.1669 9.01669 13.1669C9.12575 13.1669 9.23361 13.1441 9.33336 13.1C9.43677 13.0626 9.53069 13.0029 9.60845 12.9251C9.68622 12.8473 9.74593 12.7534 9.78336 12.65C9.82036 12.5487 9.83734 12.4411 9.83336 12.3333C9.83399 12.2237 9.81297 12.1149 9.7715 12.0134C9.73003 11.9119 9.66893 11.8195 9.59169 11.7417C9.51422 11.6636 9.42205 11.6016 9.32051 11.5592C9.21896 11.5169 9.11003 11.4952 9.00002 11.4952C8.89001 11.4952 8.78109 11.5169 8.67954 11.5592C8.57799 11.6016 8.48583 11.6636 8.40836 11.7417ZM9.00002 0.666656C7.35185 0.666656 5.74068 1.1554 4.37027 2.07108C2.99986 2.98675 1.93176 4.28824 1.30103 5.81096C0.670298 7.33368 0.50527 9.00923 0.826813 10.6257C1.14836 12.2423 1.94203 13.7271 3.10747 14.8925C4.27291 16.058 5.75776 16.8517 7.37427 17.1732C8.99078 17.4947 10.6663 17.3297 12.1891 16.699C13.7118 16.0683 15.0133 15.0002 15.9289 13.6297C16.8446 12.2593 17.3334 10.6482 17.3334 8.99999C17.3334 7.90564 17.1178 6.82201 16.699 5.81096C16.2802 4.79991 15.6664 3.88125 14.8926 3.10743C14.1188 2.33361 13.2001 1.71978 12.1891 1.30099C11.178 0.882205 10.0944 0.666656 9.00002 0.666656ZM9.00002 15.6667C7.68148 15.6667 6.39255 15.2757 5.29622 14.5431C4.19989 13.8106 3.34541 12.7694 2.84083 11.5512C2.33624 10.333 2.20422 8.99259 2.46146 7.69939C2.71869 6.40618 3.35363 5.2183 4.28598 4.28594C5.21833 3.35359 6.40622 2.71866 7.69942 2.46142C8.99263 2.20419 10.3331 2.33621 11.5512 2.84079C12.7694 3.34538 13.8106 4.19986 14.5432 5.29619C15.2757 6.39252 15.6667 7.68145 15.6667 8.99999C15.6667 10.7681 14.9643 12.4638 13.7141 13.714C12.4638 14.9643 10.7681 15.6667 9.00002 15.6667ZM9.00002 4.83332C8.56091 4.83304 8.12947 4.94842 7.74911 5.16786C7.36876 5.38729 7.05291 5.70304 6.83336 6.08332C6.77306 6.17817 6.73258 6.28424 6.71434 6.39514C6.69609 6.50604 6.70048 6.61948 6.72721 6.72865C6.75395 6.83781 6.8025 6.94044 6.86993 7.03035C6.93736 7.12027 7.02228 7.19562 7.11958 7.25186C7.21689 7.30811 7.32456 7.34409 7.43613 7.35764C7.54771 7.37119 7.66086 7.36204 7.76881 7.33072C7.87675 7.29941 7.97724 7.24658 8.06423 7.17542C8.15123 7.10426 8.22293 7.01624 8.27502 6.91666C8.34844 6.78949 8.45416 6.68397 8.58148 6.61081C8.70879 6.53764 8.85318 6.49941 9.00002 6.49999C9.22104 6.49999 9.433 6.58779 9.58928 6.74407C9.74556 6.90035 9.83336 7.11231 9.83336 7.33332C9.83336 7.55434 9.74556 7.7663 9.58928 7.92258C9.433 8.07886 9.22104 8.16666 9.00002 8.16666C8.77901 8.16666 8.56705 8.25445 8.41077 8.41073C8.25449 8.56702 8.16669 8.77898 8.16669 8.99999V9.83332C8.16669 10.0543 8.25449 10.2663 8.41077 10.4226C8.56705 10.5789 8.77901 10.6667 9.00002 10.6667C9.22104 10.6667 9.433 10.5789 9.58928 10.4226C9.74556 10.2663 9.83336 10.0543 9.83336 9.83332V9.68332C10.3845 9.48334 10.8478 9.09601 11.1423 8.58905C11.4368 8.08208 11.5438 7.48773 11.4445 6.9099C11.3452 6.33206 11.046 5.8075 10.5992 5.42792C10.1523 5.04833 9.58631 4.83787 9.00002 4.83332Z" fill="#47464E"/>
</svg>
