<svg width="48" height="48" viewBox="0 0 48 48" fill="none" xmlns="http://www.w3.org/2000/svg">
<g clip-path="url(#clip0_12267_24423)">
<path d="M24.6252 19.0832L14.6475 27.2648L8.93489 20.2981C8.02376 19.1869 8.9109 17.5289 10.3409 17.6703L24.6252 19.0832Z" fill="#5D34F2"/>
<path d="M28.9717 24.3846L18.994 32.5662L24.7066 39.5328C25.6177 40.644 27.4174 40.0989 27.5589 38.6689L28.9717 24.3846Z" fill="#5D34F2"/>
<path opacity="0.4" d="M12.1845 38.4099C9.55841 40.5633 5.57394 39.4101 5.44026 39.2471C5.30658 39.084 4.95628 34.9508 7.58239 32.7975C10.2085 30.6441 13.2264 29.9826 14.6385 31.7047C16.0505 33.4267 14.8107 36.2566 12.1845 38.4099Z" fill="#FFCC00"/>
<path d="M12.8772 35.756C11.5642 36.8327 9.2882 36.228 9.22136 36.1465C9.15452 36.065 9.00743 33.7147 10.3205 32.638C11.6336 31.5613 13.2703 31.3865 13.9764 32.2475C14.6824 33.1085 14.1903 34.6793 12.8772 35.756Z" fill="#FFA149" fill-opacity="0.84"/>
<path fill-rule="evenodd" clip-rule="evenodd" d="M21.9971 36.2282C22.2256 36.5068 22.6114 36.6012 22.939 36.4511C26.142 34.9842 29.5641 32.7635 32.9286 30.0047C42.2707 22.3443 43.9518 8.63067 43.4801 8.05549C43.0085 7.48031 29.2313 6.4423 19.8892 14.1027C16.5247 16.8615 13.6767 19.7822 11.6106 22.6358C11.3993 22.9277 11.4162 23.3245 11.6447 23.6031L21.9971 36.2282Z" fill="url(#paint0_linear_12267_24423)"/>
<mask id="mask0_12267_24423" style="mask-type:alpha" maskUnits="userSpaceOnUse" x="11" y="7" width="33" height="30">
<path fill-rule="evenodd" clip-rule="evenodd" d="M21.9971 36.2282C22.2256 36.5068 22.6114 36.6012 22.939 36.4511C26.142 34.9842 29.5641 32.7635 32.9286 30.0047C42.2707 22.3443 43.9518 8.63067 43.4801 8.05549C43.0085 7.48031 29.2313 6.4423 19.8892 14.1027C16.5247 16.8615 13.6767 19.7822 11.6106 22.6358C11.3993 22.9277 11.4162 23.3245 11.6447 23.6031L21.9971 36.2282Z" fill="white"/>
</mask>
<g mask="url(#mask0_12267_24423)">
<rect x="35.8098" y="-1.29883" width="24.3952" height="8.87097" transform="rotate(50.6488 35.8098 -1.29883)" fill="#947DFF"/>
<rect x="12.2693" y="18.0039" width="24.3952" height="8.87097" transform="rotate(50.6488 12.2693 18.0039)" fill="#7958FF"/>
<circle cx="28.8928" cy="20.122" r="4.35" transform="rotate(50.6488 28.8928 20.122)" fill="url(#paint1_linear_12267_24423)"/>
<circle cx="28.8928" cy="20.122" r="3.6" transform="rotate(50.6488 28.8928 20.122)" stroke="#B545CA" stroke-opacity="0.7" stroke-width="1.5"/>
</g>
<path d="M14.0939 26.5889L19.5483 33.2407L19.1336 34.1049C18.8784 34.6369 18.157 34.7237 17.7829 34.2674L12.7412 28.1189C12.3671 27.6626 12.5935 26.9723 13.1652 26.8262L14.0939 26.5889Z" fill="#928F9A"/>
<circle cx="4" cy="25" r="1.5" stroke="#928F9A"/>
<rect x="17.879" y="7" width="3" height="3" rx="0.5" transform="rotate(-45 17.879 7)" stroke="#928F9A"/>
<rect x="33.7071" y="34.8281" width="3" height="3" rx="0.5" transform="rotate(-45 33.7071 34.8281)" stroke="#928F9A"/>
</g>
<defs>
<linearGradient id="paint0_linear_12267_24423" x1="43.4801" y1="8.05549" x2="16.8209" y2="29.9157" gradientUnits="userSpaceOnUse">
<stop stop-color="#FFF480"/>
<stop offset="1" stop-color="#F07EFF"/>
</linearGradient>
<linearGradient id="paint1_linear_12267_24423" x1="28.8928" y1="15.772" x2="26.4459" y2="24.2001" gradientUnits="userSpaceOnUse">
<stop stop-color="#FAD0A7"/>
<stop offset="1" stop-color="#F290EB"/>
</linearGradient>
<clipPath id="clip0_12267_24423">
<rect width="48" height="48" rx="8" fill="white"/>
</clipPath>
</defs>
</svg>
