<svg width="94" height="8" viewBox="0 0 94 8" fill="none" xmlns="http://www.w3.org/2000/svg">
<path d="M0.333333 4C0.333333 5.47276 1.52724 6.66667 3 6.66667C4.47276 6.66667 5.66667 5.47276 5.66667 4C5.66667 2.52724 4.47276 1.33333 3 1.33333C1.52724 1.33333 0.333333 2.52724 0.333333 4ZM93.3536 4.35356C93.5488 4.1583 93.5488 3.84172 93.3536 3.64645L90.1716 0.464474C89.9763 0.269212 89.6597 0.269211 89.4645 0.464474C89.2692 0.659736 89.2692 0.976318 89.4645 1.17158L92.2929 4.00001L89.4645 6.82843C89.2692 7.0237 89.2692 7.34028 89.4645 7.53554C89.6597 7.7308 89.9763 7.7308 90.1716 7.53554L93.3536 4.35356ZM3 4.5L93 4.50001L93 3.50001L3 3.5L3 4.5Z" fill="currentColor"/>
</svg>
