<svg width="48" height="49" viewBox="0 0 48 49" fill="none" xmlns="http://www.w3.org/2000/svg">
<g clip-path="url(#clip0_41_11369)">
<path d="M24.6252 20.0612L14.6475 28.2428L8.93492 21.2761C8.02379 20.165 8.91093 18.5069 10.3409 18.6484L24.6252 20.0612Z" fill="#5D34F2"/>
<path d="M28.9718 25.3621L18.994 33.5437L24.7066 40.5104C25.6177 41.6215 27.4175 41.0764 27.5589 39.6464L28.9718 25.3621Z" fill="#5D34F2"/>
<path opacity="0.4" d="M12.1845 39.3885C9.55841 41.5418 5.57394 40.3886 5.44026 40.2256C5.30658 40.0626 4.95628 35.9294 7.58239 33.776C10.2085 31.6226 13.2264 30.9611 14.6385 32.6832C16.0505 34.4052 14.8107 37.2351 12.1845 39.3885Z" fill="#FFCC00"/>
<path d="M12.8774 36.7345C11.5643 37.8112 9.28835 37.2066 9.22151 37.125C9.15467 37.0435 9.00759 34.6932 10.3206 33.6165C11.6337 32.5398 13.2705 32.365 13.9765 33.226C14.6825 34.087 14.1904 35.6579 12.8774 36.7345Z" fill="#FFA149" fill-opacity="0.84"/>
<path fill-rule="evenodd" clip-rule="evenodd" d="M21.9973 37.2057C22.2258 37.4844 22.6116 37.5787 22.9392 37.4287C26.1422 35.9617 29.5643 33.741 32.9288 30.9822C42.2709 23.3218 43.952 9.60821 43.4803 9.03303C43.0087 8.45785 29.2315 7.41983 19.8894 15.0802C16.5249 17.839 13.6768 20.7598 11.6108 23.6133C11.3995 23.9052 11.4164 24.302 11.6449 24.5806L21.9973 37.2057Z" fill="url(#paint0_linear_41_11369)"/>
<mask id="mask0_41_11369" style="mask-type:alpha" maskUnits="userSpaceOnUse" x="11" y="8" width="33" height="30">
<path fill-rule="evenodd" clip-rule="evenodd" d="M21.9973 37.2057C22.2258 37.4844 22.6116 37.5787 22.9392 37.4287C26.1422 35.9617 29.5643 33.741 32.9288 30.9822C42.2709 23.3218 43.952 9.60821 43.4803 9.03303C43.0087 8.45785 29.2315 7.41983 19.8894 15.0802C16.5249 17.839 13.6768 20.7598 11.6108 23.6133C11.3995 23.9052 11.4164 24.302 11.6449 24.5806L21.9973 37.2057Z" fill="white"/>
</mask>
<g mask="url(#mask0_41_11369)">
<rect x="35.8101" y="-0.321289" width="24.3952" height="8.87097" transform="rotate(50.6488 35.8101 -0.321289)" fill="#947DFF"/>
<rect x="12.2695" y="18.9819" width="24.3952" height="8.87097" transform="rotate(50.6488 12.2695 18.9819)" fill="#7958FF"/>
<circle cx="28.893" cy="21.0995" r="4.35" transform="rotate(50.6488 28.893 21.0995)" fill="url(#paint1_linear_41_11369)"/>
<circle cx="28.893" cy="21.0995" r="3.6" transform="rotate(50.6488 28.893 21.0995)" stroke="#B545CA" stroke-opacity="0.7" stroke-width="1.5"/>
</g>
<path d="M14.094 27.5674L19.5484 34.2192L19.1337 35.0834C18.8785 35.6154 18.1571 35.7022 17.783 35.2459L12.7413 29.0974C12.3672 28.6412 12.5936 27.9508 13.1653 27.8047L14.094 27.5674Z" fill="#34353F"/>
<circle cx="4" cy="25.9785" r="1.5" stroke="#FFD5FF"/>
<rect x="17.879" y="7.97852" width="3" height="3" rx="0.5" transform="rotate(-45 17.879 7.97852)" stroke="#E6DEFF"/>
<rect x="33.7071" y="35.8066" width="3" height="3" rx="0.5" transform="rotate(-45 33.7071 35.8066)" stroke="#E6DEFF"/>
</g>
<defs>
<linearGradient id="paint0_linear_41_11369" x1="43.4803" y1="9.03303" x2="16.8211" y2="30.8932" gradientUnits="userSpaceOnUse">
<stop stop-color="#FFF480"/>
<stop offset="1" stop-color="#F07EFF"/>
</linearGradient>
<linearGradient id="paint1_linear_41_11369" x1="28.8929" y1="16.7495" x2="26.4461" y2="25.1776" gradientUnits="userSpaceOnUse">
<stop stop-color="#FAD0A7"/>
<stop offset="1" stop-color="#F290EB"/>
</linearGradient>
<clipPath id="clip0_41_11369">
<rect y="0.978516" width="48" height="48" rx="8" fill="white"/>
</clipPath>
</defs>
</svg>
