<svg width="48" height="48" viewBox="0 0 48 48" fill="none" xmlns="http://www.w3.org/2000/svg">
<g clip-path="url(#clip0_1820_100266)">
<rect width="48" height="48" rx="8" fill="#3A3B59"/>
<rect x="5" y="5" width="30.8" height="30.8" rx="8" fill="url(#paint0_linear_1820_100266)" fill-opacity="0.8"/>
<circle cx="20.3998" cy="15.7811" r="4.62" fill="#F5EEFF"/>
<rect x="15.0098" y="14.2409" width="6.16" height="0.77" rx="0.385" fill="#2D2C61"/>
<rect x="22.7095" y="14.2409" width="3.08" height="0.77" rx="0.385" fill="#2D2C61"/>
<path d="M13.4697 26.5609C13.4697 24.0094 15.5382 21.9409 18.0897 21.9409H22.7097C25.2613 21.9409 27.3297 24.0094 27.3297 26.5609V28.1009C27.3297 28.9514 26.6402 29.6409 25.7897 29.6409H15.0097C14.1592 29.6409 13.4697 28.9514 13.4697 28.1009V26.5609Z" fill="#FAABFF"/>
<path opacity="0.7" fill-rule="evenodd" clip-rule="evenodd" d="M34.7198 26.6343C34.7198 26.209 35.0646 25.8643 35.4898 25.8643H37.0298C37.4551 25.8643 37.7998 26.209 37.7998 26.6343V28.1743H34.7198V26.6343ZM34.7198 44.3444C34.7198 44.7696 35.0645 45.1144 35.4898 45.1144H37.0298C37.4551 45.1144 37.7998 44.7696 37.7998 44.3444V42.8044H34.7198V44.3444ZM27.4048 37.0302C26.9795 37.0302 26.6348 36.6854 26.6348 36.2602V34.7202C26.6348 34.2949 26.9795 33.9502 27.4048 33.9502H28.9448V37.0302H27.4048ZM45.1148 37.0302C45.54 37.0302 45.8848 36.6854 45.8848 36.2602V34.7202C45.8848 34.2949 45.54 33.9502 45.1148 33.9502H43.5748V37.0302H45.1148Z" fill="#CABEFF"/>
<path opacity="0.7" fill-rule="evenodd" clip-rule="evenodd" d="M28.9096 30.3166C28.6089 30.0159 28.6089 29.5283 28.9096 29.2276L29.9985 28.1387C30.2992 27.838 30.7867 27.838 31.0875 28.1387L32.1764 29.2276L29.9985 31.4055L28.9096 30.3166ZM41.4323 42.8395C41.733 43.1402 42.2206 43.1402 42.5213 42.8395L43.6102 41.7506C43.9109 41.4499 43.9109 40.9624 43.6102 40.6617L42.5213 39.5727L40.3434 41.7506L41.4323 42.8395ZM31.0877 42.8401C30.787 43.1408 30.2995 43.1408 29.9988 42.8401L28.9098 41.7511C28.6091 41.4504 28.6091 40.9629 28.9098 40.6622L29.9987 39.5732L32.1766 41.7511L31.0877 42.8401ZM43.6104 30.317C43.9111 30.0163 43.9111 29.5288 43.6104 29.2281L42.5214 28.1391C42.2207 27.8384 41.7332 27.8384 41.4325 28.1391L40.3436 29.2281L42.5215 31.406L43.6104 30.317Z" fill="#CABEFF"/>
<path fill-rule="evenodd" clip-rule="evenodd" d="M36.2596 43.191C40.5122 43.191 43.9596 39.7436 43.9596 35.491C43.9596 31.2384 40.5122 27.791 36.2596 27.791C32.007 27.791 28.5596 31.2384 28.5596 35.491C28.5596 39.7436 32.007 43.191 36.2596 43.191ZM36.2595 38.5712C37.9606 38.5712 39.3395 37.1923 39.3395 35.4912C39.3395 33.7902 37.9606 32.4112 36.2595 32.4112C34.5585 32.4112 33.1795 33.7902 33.1795 35.4912C33.1795 37.1923 34.5585 38.5712 36.2595 38.5712Z" fill="url(#paint1_linear_1820_100266)"/>
</g>
<defs>
<linearGradient id="paint0_linear_1820_100266" x1="32.5" y1="7" x2="4" y2="40.5" gradientUnits="userSpaceOnUse">
<stop stop-color="#5E35F3"/>
<stop offset="1" stop-color="#F5A7FF"/>
</linearGradient>
<linearGradient id="paint1_linear_1820_100266" x1="27.811" y1="42.091" x2="42.7546" y2="30.0127" gradientUnits="userSpaceOnUse">
<stop stop-color="#FFF06A"/>
<stop offset="1" stop-color="#E54AFE"/>
</linearGradient>
<clipPath id="clip0_1820_100266">
<rect width="48" height="48" rx="8" fill="white"/>
</clipPath>
</defs>
</svg>
