<svg width="48" height="48" viewBox="0 0 48 48" fill="none" xmlns="http://www.w3.org/2000/svg">
<rect width="48" height="48" rx="8" fill="#F3EFFA"/>
<path d="M12.1309 13.1007C11.7404 12.7101 11.7404 12.077 12.1309 11.6864C12.5215 11.2959 13.1546 11.2959 13.5451 11.6864L22.7375 20.8788L21.3233 22.293L12.1309 13.1007Z" fill="#7958FF"/>
<path d="M8.59585 10.9793C7.81481 10.1983 7.81481 8.93195 8.59585 8.1509C9.3769 7.36985 10.6432 7.36985 11.4243 8.1509L14.2527 10.9793C15.0338 11.7604 15.0338 13.0267 14.2527 13.8078C13.4717 14.5888 12.2053 14.5888 11.4243 13.8078L8.59585 10.9793Z" fill="#7958FF"/>
<path d="M17.082 25.1215L25.5673 16.6362L38.2952 29.3641C40.6384 31.7072 40.6384 35.5062 38.2952 37.8494C35.9521 40.1925 32.1531 40.1925 29.81 37.8494L17.082 25.1215Z" fill="url(#paint0_linear_1555_9255)"/>
<rect x="22.0312" y="25.8286" width="2" height="16" rx="1" transform="rotate(-45 22.0312 25.8286)" fill="#AF9EFF"/>
<rect x="24.8594" y="23.0001" width="2" height="16" rx="1" transform="rotate(-45 24.8594 23.0001)" fill="#AF9EFF"/>
<path d="M23.2946 16.051C24.8567 14.4889 27.3894 14.4889 28.9515 16.051L30.3657 17.4652C31.9278 19.0273 31.9278 21.56 30.3657 23.1221L14.8093 38.6784C13.2472 40.2405 10.7146 40.2405 9.15248 38.6784L7.73827 37.2642C6.17617 35.7021 6.17617 33.1695 7.73827 31.6074L23.2946 16.051Z" fill="url(#paint1_linear_1555_9255)"/>
<rect x="21.1738" y="23.8292" width="2" height="16" rx="1" transform="rotate(45 21.1738 23.8292)" fill="#B545CA"/>
<path opacity="0.64" fill-rule="evenodd" clip-rule="evenodd" d="M24.0017 22.4149C27.9069 26.3202 34.2386 26.3202 38.1438 22.4149C40.2703 20.2884 41.2389 17.4425 41.0495 14.6607C40.9516 13.2221 39.2422 12.8312 38.2227 13.8508L35.3154 16.7581C34.5343 17.5391 33.268 17.5391 32.487 16.7581L29.6585 13.9296C28.8775 13.1486 28.8775 11.8823 29.6585 11.1012L32.5658 8.19395C33.5854 7.17438 33.1945 5.465 31.756 5.36708C28.9741 5.17774 26.1282 6.14631 24.0017 8.27279C20.0964 12.178 20.0964 18.5097 24.0017 22.4149Z" fill="#F07EFF"/>
<circle cx="7" cy="19" r="1.5" stroke="#FFD5FF"/>
<circle cx="42" cy="27" r="1.5" stroke="#F7F8F8"/>
<circle cx="42" cy="27" r="1.5" stroke="#78767F" stroke-opacity="0.02"/>
<circle cx="42" cy="27" r="1.5" stroke="#5D34F2" stroke-opacity="0.14"/>
<rect x="36.879" y="7" width="3" height="3" rx="0.5" transform="rotate(-45 36.879 7)" stroke="#E6DEFF"/>
<rect x="19.879" y="40" width="3" height="3" rx="0.5" transform="rotate(-45 19.879 40)" stroke="#E6DEFF"/>
<defs>
<linearGradient id="paint0_linear_1555_9255" x1="33.2129" y1="38.3355" x2="37.6342" y2="23.7453" gradientUnits="userSpaceOnUse">
<stop stop-color="#5D34F2"/>
<stop offset="1" stop-color="#FAABFF"/>
</linearGradient>
<linearGradient id="paint1_linear_1555_9255" x1="28.7933" y1="16.207" x2="3.05751" y2="23.2677" gradientUnits="userSpaceOnUse">
<stop stop-color="#FFF06A"/>
<stop offset="0.5" stop-color="#FC85E9"/>
<stop offset="1" stop-color="#E264F7"/>
</linearGradient>
</defs>
</svg>
