<svg width="20" height="20" viewBox="0 0 20 20" fill="none" xmlns="http://www.w3.org/2000/svg">
<path d="M6.66683 14.1666C6.50201 14.1666 6.3409 14.2155 6.20385 14.3071C6.06681 14.3986 5.96 14.5288 5.89693 14.6811C5.83386 14.8333 5.81735 15.0009 5.84951 15.1625C5.88166 15.3242 5.96103 15.4727 6.07757 15.5892C6.19412 15.7058 6.3426 15.7851 6.50425 15.8173C6.6659 15.8494 6.83346 15.8329 6.98573 15.7699C7.138 15.7068 7.26815 15.6 7.35972 15.4629C7.45129 15.3259 7.50016 15.1648 7.50016 15C7.50016 14.7789 7.41236 14.567 7.25608 14.4107C7.0998 14.2544 6.88784 14.1666 6.66683 14.1666ZM6.66683 9.16663C6.50201 9.16663 6.3409 9.2155 6.20385 9.30707C6.06681 9.39864 5.96 9.52878 5.89693 9.68106C5.83386 9.83333 5.81735 10.0009 5.84951 10.1625C5.88166 10.3242 5.96103 10.4727 6.07757 10.5892C6.19412 10.7058 6.3426 10.7851 6.50425 10.8173C6.6659 10.8494 6.83346 10.8329 6.98573 10.7699C7.138 10.7068 7.26815 10.6 7.35972 10.4629C7.45129 10.3259 7.50016 10.1648 7.50016 9.99996C7.50016 9.77895 7.41236 9.56698 7.25608 9.4107C7.0998 9.25442 6.88784 9.16663 6.66683 9.16663ZM13.3335 1.66663H6.66683C5.78277 1.66663 4.93493 2.01782 4.30981 2.64294C3.68469 3.26806 3.3335 4.1159 3.3335 4.99996V15C3.3335 15.884 3.68469 16.7319 4.30981 17.357C4.93493 17.9821 5.78277 18.3333 6.66683 18.3333H13.3335C14.2176 18.3333 15.0654 17.9821 15.6905 17.357C16.3156 16.7319 16.6668 15.884 16.6668 15V4.99996C16.6668 4.1159 16.3156 3.26806 15.6905 2.64294C15.0654 2.01782 14.2176 1.66663 13.3335 1.66663ZM15.0002 15C15.0002 15.442 14.8246 15.8659 14.512 16.1785C14.1994 16.491 13.7755 16.6666 13.3335 16.6666H6.66683C6.2248 16.6666 5.80088 16.491 5.48832 16.1785C5.17576 15.8659 5.00016 15.442 5.00016 15V12.8666C5.50349 13.1696 6.07936 13.3308 6.66683 13.3333H13.3335C13.921 13.3308 14.4968 13.1696 15.0002 12.8666V15ZM15.0002 9.99996C15.0002 10.442 14.8246 10.8659 14.512 11.1785C14.1994 11.491 13.7755 11.6666 13.3335 11.6666H6.66683C6.2248 11.6666 5.80088 11.491 5.48832 11.1785C5.17576 10.8659 5.00016 10.442 5.00016 9.99996V7.86663C5.50349 8.16959 6.07936 8.33083 6.66683 8.33329H13.3335C13.921 8.33083 14.4968 8.16959 15.0002 7.86663V9.99996ZM13.3335 6.66663H6.66683C6.2248 6.66663 5.80088 6.49103 5.48832 6.17847C5.17576 5.86591 5.00016 5.44199 5.00016 4.99996C5.00016 4.55793 5.17576 4.13401 5.48832 3.82145C5.80088 3.50889 6.2248 3.33329 6.66683 3.33329H13.3335C13.7755 3.33329 14.1994 3.50889 14.512 3.82145C14.8246 4.13401 15.0002 4.55793 15.0002 4.99996C15.0002 5.44199 14.8246 5.86591 14.512 6.17847C14.1994 6.49103 13.7755 6.66663 13.3335 6.66663Z" fill="currentColor"/>
</svg>
