<svg width="16" height="16" viewBox="0 0 16 16" fill="none" xmlns="http://www.w3.org/2000/svg">
<path d="M14 7.33335C13.8231 7.33335 13.6536 7.40358 13.5286 7.52861C13.4035 7.65363 13.3333 7.8232 13.3333 8.00001V9.72668L9.13996 5.52668C9.07798 5.46419 9.00425 5.4146 8.92301 5.38075C8.84177 5.34691 8.75463 5.32948 8.66663 5.32948C8.57862 5.32948 8.49148 5.34691 8.41024 5.38075C8.329 5.4146 8.25527 5.46419 8.19329 5.52668L5.99996 7.72668L2.47329 4.19335C2.34776 4.06781 2.1775 3.99728 1.99996 3.99728C1.82243 3.99728 1.65216 4.06781 1.52663 4.19335C1.40109 4.31888 1.33057 4.48914 1.33057 4.66668C1.33057 4.84421 1.40109 5.01448 1.52663 5.14001L5.52663 9.14001C5.5886 9.2025 5.66234 9.25209 5.74358 9.28594C5.82482 9.31979 5.91195 9.33721 5.99996 9.33721C6.08797 9.33721 6.17511 9.31979 6.25635 9.28594C6.33758 9.25209 6.41132 9.2025 6.47329 9.14001L8.66663 6.94001L12.3933 10.6667H10.6666C10.4898 10.6667 10.3202 10.7369 10.1952 10.8619C10.0702 10.987 9.99996 11.1565 9.99996 11.3333C9.99996 11.5102 10.0702 11.6797 10.1952 11.8048C10.3202 11.9298 10.4898 12 10.6666 12H14C14.0871 11.999 14.1731 11.9808 14.2533 11.9467C14.4162 11.879 14.5456 11.7496 14.6133 11.5867C14.6475 11.5065 14.6656 11.4205 14.6666 11.3333V8.00001C14.6666 7.8232 14.5964 7.65363 14.4714 7.52861C14.3463 7.40358 14.1768 7.33335 14 7.33335Z" fill="#EB9918"/>
</svg>
