<svg width="40" height="40" viewBox="0 0 40 40" fill="none" xmlns="http://www.w3.org/2000/svg">
<path d="M0 5C0 2.23858 2.23858 0 5 0H35C37.7614 0 40 2.23858 40 5V35C40 37.7614 37.7614 40 35 40H5C2.23858 40 0 37.7614 0 35V5Z" fill="#F3EFFA"/>
<g opacity="0.8">
<path d="M32.8571 11H7.14286C5.95939 11 5 11.9949 5 13.2222V28.7778C5 30.0051 5.95939 31 7.14286 31H32.8571C34.0406 31 35 30.0051 35 28.7778V13.2222C35 11.9949 34.0406 11 32.8571 11Z" fill="url(#paint0_linear_13189_30437)"/>
<path d="M32.8571 11H7.14286C5.95939 11 5 11.9949 5 13.2222V28.7778C5 30.0051 5.95939 31 7.14286 31H32.8571C34.0406 31 35 30.0051 35 28.7778V13.2222C35 11.9949 34.0406 11 32.8571 11Z" fill="#9C85FD"/>
</g>
<path d="M31.9167 13H8.08333C7.48502 13 7 13.5117 7 14.1429V27.8571C7 28.4883 7.48502 29 8.08333 29H31.9167C32.515 29 33 28.4883 33 27.8571V14.1429C33 13.5117 32.515 13 31.9167 13Z" fill="#5D34F2"/>
<path d="M19.25 16.5H10.75C10.3358 16.5 10 16.8358 10 17.25C10 17.6642 10.3358 18 10.75 18H19.25C19.6642 18 20 17.6642 20 17.25C20 16.8358 19.6642 16.5 19.25 16.5Z" fill="#F5EEFF"/>
<path d="M15.3571 20.5H10.6429C10.2878 20.5 10 20.8358 10 21.25C10 21.6642 10.2878 22 10.6429 22H15.3571C15.7122 22 16 21.6642 16 21.25C16 20.8358 15.7122 20.5 15.3571 20.5Z" fill="#F5EEFF"/>
<path d="M25.5547 19.1696C24.8901 18.7266 24 19.203 24 20.0017V24.2646C24 25.0633 24.8901 25.5397 25.5547 25.0967L28.7519 22.9652C29.3457 22.5694 29.3457 21.6969 28.7519 21.3011L25.5547 19.1696Z" fill="#F5EEFF"/>
<path d="M9.00098 17.002C12.3152 17.002 15.002 14.3152 15.002 11.001C15.002 7.68673 12.3152 5 9.00098 5C5.68673 5 3 7.68673 3 11.001C3 14.3152 5.68673 17.002 9.00098 17.002Z" fill="#F07EFF"/>
<defs>
<linearGradient id="paint0_linear_13189_30437" x1="2.53571" y1="22.4583" x2="30.4193" y2="7.01509" gradientUnits="userSpaceOnUse">
<stop stop-color="#492EF3"/>
<stop offset="1" stop-color="#CF69FF"/>
</linearGradient>
</defs>
</svg>
