<svg width="14" height="18" viewBox="0 0 14 18" fill="none" xmlns="http://www.w3.org/2000/svg">
<path d="M13.6667 6.44999C13.658 6.37344 13.6412 6.29802 13.6167 6.22499V6.14999C13.5766 6.06431 13.5232 5.98554 13.4583 5.91666L8.45834 0.916656C8.38946 0.851837 8.31069 0.798391 8.22501 0.758323H8.15001L7.88334 0.666656H2.83334C2.1703 0.666656 1.53442 0.930049 1.06558 1.39889C0.596736 1.86773 0.333344 2.50362 0.333344 3.16666V14.8333C0.333344 15.4964 0.596736 16.1322 1.06558 16.6011C1.53442 17.0699 2.1703 17.3333 2.83334 17.3333H11.1667C11.8297 17.3333 12.4656 17.0699 12.9344 16.6011C13.4033 16.1322 13.6667 15.4964 13.6667 14.8333V6.49999C13.6667 6.49999 13.6667 6.49999 13.6667 6.44999ZM8.66668 3.50832L10.825 5.66666H8.66668V3.50832ZM12 14.8333C12 15.0543 11.9122 15.2663 11.7559 15.4226C11.5997 15.5789 11.3877 15.6667 11.1667 15.6667H2.83334C2.61233 15.6667 2.40037 15.5789 2.24409 15.4226C2.08781 15.2663 2.00001 15.0543 2.00001 14.8333V3.16666C2.00001 2.94564 2.08781 2.73368 2.24409 2.5774C2.40037 2.42112 2.61233 2.33332 2.83334 2.33332H7.00001V6.49999C7.00001 6.721 7.08781 6.93297 7.24409 7.08925C7.40037 7.24553 7.61233 7.33332 7.83334 7.33332H12V14.8333Z" fill="#47464E"/>
</svg>
