<svg width="20" height="20" viewBox="0 0 20 20" fill="none" xmlns="http://www.w3.org/2000/svg">
<path d="M17.5001 11.6667C17.2791 11.6667 17.0671 11.7545 16.9108 11.9108C16.7545 12.0671 16.6667 12.2791 16.6667 12.5001V15.8334C16.6667 16.0544 16.579 16.2664 16.4227 16.4227C16.2664 16.579 16.0544 16.6667 15.8334 16.6667H4.16675C3.94573 16.6667 3.73377 16.579 3.57749 16.4227C3.42121 16.2664 3.33341 16.0544 3.33341 15.8334V12.5001C3.33341 12.2791 3.24562 12.0671 3.08934 11.9108C2.93306 11.7545 2.7211 11.6667 2.50008 11.6667C2.27907 11.6667 2.06711 11.7545 1.91083 11.9108C1.75455 12.0671 1.66675 12.2791 1.66675 12.5001V15.8334C1.66675 16.4965 1.93014 17.1323 2.39898 17.6012C2.86782 18.07 3.50371 18.3334 4.16675 18.3334H15.8334C16.4965 18.3334 17.1323 18.07 17.6012 17.6012C18.07 17.1323 18.3334 16.4965 18.3334 15.8334V12.5001C18.3334 12.2791 18.2456 12.0671 18.0893 11.9108C17.9331 11.7545 17.7211 11.6667 17.5001 11.6667ZM9.40841 13.0917C9.48767 13.1676 9.58112 13.2271 9.68342 13.2667C9.78316 13.3108 9.89102 13.3336 10.0001 13.3336C10.1091 13.3336 10.217 13.3108 10.3167 13.2667C10.419 13.2271 10.5125 13.1676 10.5917 13.0917L13.9251 9.75842C14.082 9.6015 14.1702 9.38867 14.1702 9.16675C14.1702 8.94483 14.082 8.732 13.9251 8.57508C13.7682 8.41816 13.5553 8.33001 13.3334 8.33001C13.1115 8.33001 12.8987 8.41816 12.7417 8.57508L10.8334 10.4917V2.50008C10.8334 2.27907 10.7456 2.06711 10.5893 1.91083C10.4331 1.75455 10.2211 1.66675 10.0001 1.66675C9.77907 1.66675 9.56711 1.75455 9.41083 1.91083C9.25455 2.06711 9.16675 2.27907 9.16675 2.50008V10.4917L7.25842 8.57508C7.18072 8.49738 7.08847 8.43575 6.98696 8.3937C6.88544 8.35165 6.77663 8.33001 6.66675 8.33001C6.55687 8.33001 6.44806 8.35165 6.34654 8.3937C6.24502 8.43575 6.15278 8.49738 6.07508 8.57508C5.99738 8.65278 5.93575 8.74502 5.8937 8.84654C5.85165 8.94806 5.83001 9.05687 5.83001 9.16675C5.83001 9.27663 5.85165 9.38544 5.8937 9.48696C5.93575 9.58847 5.99738 9.68072 6.07508 9.75842L9.40841 13.0917Z" fill="currentColor"/>
</svg>
