<svg width="20" height="20" viewBox="0 0 20 20" fill="none" xmlns="http://www.w3.org/2000/svg">
  <path
    d="M4.16675 14.9998H7.70008C7.80975 15.0004 7.91847 14.9794 8.02 14.9379C8.12153 14.8965 8.21388 14.8354 8.29175 14.7581L14.0584 8.98312L16.4251 6.66645C16.5032 6.58898 16.5652 6.49682 16.6075 6.39527C16.6498 6.29372 16.6716 6.1848 16.6716 6.07479C16.6716 5.96478 16.6498 5.85586 16.6075 5.75431C16.5652 5.65276 16.5032 5.56059 16.4251 5.48312L12.8917 1.90812C12.8143 1.83001 12.7221 1.76802 12.6206 1.72571C12.519 1.6834 12.4101 1.66162 12.3001 1.66162C12.1901 1.66162 12.0812 1.6834 11.9796 1.72571C11.8781 1.76802 11.7859 1.83001 11.7084 1.90812L9.35841 4.26645L3.57508 10.0415C3.49785 10.1193 3.43674 10.2117 3.39527 10.3132C3.3538 10.4147 3.33278 10.5234 3.33341 10.6331V14.1665C3.33341 14.3875 3.42121 14.5994 3.57749 14.7557C3.73377 14.912 3.94573 14.9998 4.16675 14.9998ZM12.3001 3.67479L14.6584 6.03312L13.4751 7.21645L11.1167 4.85812L12.3001 3.67479ZM5.00008 10.9748L9.94175 6.03312L12.3001 8.39145L7.35841 13.3331H5.00008V10.9748ZM17.5001 16.6665H2.50008C2.27907 16.6665 2.06711 16.7543 1.91083 16.9105C1.75455 17.0668 1.66675 17.2788 1.66675 17.4998C1.66675 17.7208 1.75455 17.9328 1.91083 18.089C2.06711 18.2453 2.27907 18.3331 2.50008 18.3331H17.5001C17.7211 18.3331 17.9331 18.2453 18.0893 18.089C18.2456 17.9328 18.3334 17.7208 18.3334 17.4998C18.3334 17.2788 18.2456 17.0668 18.0893 16.9105C17.9331 16.7543 17.7211 16.6665 17.5001 16.6665Z"
    fill="currentColor" />
</svg>
