<svg width="20" height="20" viewBox="0 0 20 20" fill="none" xmlns="http://www.w3.org/2000/svg">
<g opacity="0.7">
<path d="M11.6667 9.59162H13.6834C13.7931 9.59226 13.9018 9.57124 14.0033 9.52977C14.1049 9.4883 14.1972 9.42719 14.2751 9.34996L18.0917 5.53329C18.1699 5.45582 18.2319 5.36365 18.2742 5.2621C18.3165 5.16056 18.3382 5.05163 18.3382 4.94162C18.3382 4.83161 18.3165 4.72269 18.2742 4.62114C18.2319 4.51959 18.1699 4.42743 18.0917 4.34996L16.0751 2.33329C15.9976 2.25518 15.9054 2.19319 15.8039 2.15088C15.7023 2.10857 15.5934 2.08679 15.4834 2.08679C15.3734 2.08679 15.2645 2.10857 15.1629 2.15088C15.0614 2.19319 14.9692 2.25518 14.8917 2.33329L11.0751 6.14996C10.9228 6.30965 10.8365 6.52098 10.8334 6.74162V8.75829C10.8334 8.9793 10.9212 9.19127 11.0775 9.34755C11.2338 9.50383 11.4457 9.59162 11.6667 9.59162ZM12.5001 7.09162L15.4834 4.10829L16.3167 4.94162L13.3334 7.92496H12.5001V7.09162ZM17.5001 8.75829C17.2791 8.75829 17.0671 8.84609 16.9108 9.00237C16.7545 9.15865 16.6667 9.37061 16.6667 9.59162V15.425C16.6667 15.646 16.579 15.8579 16.4227 16.0142C16.2664 16.1705 16.0544 16.2583 15.8334 16.2583H4.16675C3.94573 16.2583 3.73377 16.1705 3.57749 16.0142C3.42121 15.8579 3.33341 15.646 3.33341 15.425V7.41662L8.23342 12.325C8.46597 12.5605 8.74299 12.7476 9.04841 12.8753C9.35382 13.0029 9.68156 13.0687 10.0126 13.0687C10.3436 13.0687 10.6713 13.0029 10.9768 12.8753C11.2822 12.7476 11.5592 12.5605 11.7917 12.325C11.9444 12.1692 12.03 11.9598 12.03 11.7416C12.03 11.5235 11.9444 11.3141 11.7917 11.1583C11.7141 11.0789 11.6215 11.0159 11.5191 10.9728C11.4168 10.9297 11.3069 10.9076 11.1959 10.9076C11.0849 10.9076 10.975 10.9297 10.8727 10.9728C10.7704 11.0159 10.6777 11.0789 10.6001 11.1583C10.4443 11.311 10.2349 11.3965 10.0167 11.3965C9.79862 11.3965 9.58919 11.311 9.43341 11.1583L4.50841 6.24162H8.33342C8.55443 6.24162 8.76639 6.15383 8.92267 5.99755C9.07895 5.84127 9.16675 5.6293 9.16675 5.40829C9.16675 5.18728 9.07895 4.97532 8.92267 4.81903C8.76639 4.66275 8.55443 4.57496 8.33342 4.57496H4.16675C3.50371 4.57496 2.86782 4.83835 2.39898 5.30719C1.93014 5.77603 1.66675 6.41192 1.66675 7.07496V15.4083C1.66675 16.0713 1.93014 16.7072 2.39898 17.1761C2.86782 17.6449 3.50371 17.9083 4.16675 17.9083H15.8334C16.4965 17.9083 17.1323 17.6449 17.6012 17.1761C18.07 16.7072 18.3334 16.0713 18.3334 15.4083V9.57496C18.3334 9.35394 18.2456 9.14198 18.0893 8.9857C17.9331 8.82942 17.7211 8.74162 17.5001 8.74162V8.75829Z" fill="#5D34F2"/>
</g>
</svg>
