<svg width="24" height="24" viewBox="0 0 24 24" fill="none" xmlns="http://www.w3.org/2000/svg">
<path fill-rule="evenodd" clip-rule="evenodd" d="M16.4394 3.23011L9.60078 10.0687L2.762 3.22992C2.9052 3.21032 3.05142 3.2002 3.2 3.2002H16C16.1491 3.2002 16.2957 3.21039 16.4394 3.23011ZM9.60078 11.9586C9.38278 11.9696 9.16115 11.8918 8.99466 11.7253L1.18416 3.91483C0.461676 4.50154 0 5.39695 0 6.4002V16.0002C0 17.7675 1.43269 19.2002 3.2 19.2002H16C17.7673 19.2002 19.2 17.7675 19.2 16.0002V6.4002C19.2 5.39735 18.7387 4.50225 18.0167 3.91553L10.2069 11.7253C10.0404 11.8918 9.81878 11.9696 9.60078 11.9586Z" fill="url(#paint0_linear_8601_113491)"/>
<circle cx="18.4" cy="14.3998" r="5.6" fill="#68BE6C"/>
<rect width="1.60256" height="4.80767" rx="0.801278" transform="matrix(0.708021 -0.706191 0.708021 0.706191 14.5728 14.0117)" fill="white"/>
<rect width="6.41023" height="1.60256" rx="0.801278" transform="matrix(0.708021 -0.706191 0.708021 0.706191 16.842 16.2744)" fill="white"/>
<defs>
<linearGradient id="paint0_linear_8601_113491" x1="13.6" y1="3.2002" x2="-1.2" y2="19.2002" gradientUnits="userSpaceOnUse">
<stop stop-color="#D361E7"/>
<stop offset="1" stop-color="#7D5FF4"/>
</linearGradient>
</defs>
</svg>
