<svg width="48" height="48" viewBox="0 0 48 48" fill="none" xmlns="http://www.w3.org/2000/svg">
<path d="M0 16C0 7.16344 7.16344 0 16 0H32C40.8366 0 48 7.16344 48 16V32C48 40.8366 40.8366 48 32 48H16C7.16344 48 0 40.8366 0 32V16Z" fill="#EFF1F1"/>
<path fill-rule="evenodd" clip-rule="evenodd" d="M24 40C32.8366 40 40 32.8366 40 24C40 15.1634 32.8366 8 24 8C15.1634 8 8 15.1634 8 24C8 32.8366 15.1634 40 24 40ZM30 16C30.4747 16 30.9301 16.0827 31.3526 16.2345L24.001 23.5861L16.6488 16.234C17.0709 16.0825 17.5258 16 18 16H30ZM24.7586 25.6569C24.5505 25.865 24.2735 25.9622 24.001 25.9485C23.7285 25.9622 23.4514 25.865 23.2433 25.6569L14.9723 17.3859C14.3665 18.087 14 19.0007 14 20V28C14 30.2091 15.7909 32 18 32H30C32.2091 32 34 30.2091 34 28V20C34 19.0012 33.6339 18.0879 33.0286 17.3869L24.7586 25.6569Z" fill="#4EA254"/>
</svg>
