<svg width="16" height="16" viewBox="0 0 16 16" fill="none" xmlns="http://www.w3.org/2000/svg">
<path d="M12 7.21325C11.8232 7.21325 11.6537 7.28349 11.5286 7.40851C11.4036 7.53354 11.3334 7.70311 11.3334 7.87992V12.6666C11.3334 12.8434 11.2631 13.013 11.1381 13.138C11.0131 13.263 10.8435 13.3333 10.6667 13.3333H3.33337C3.15656 13.3333 2.98699 13.263 2.86197 13.138C2.73695 13.013 2.66671 12.8434 2.66671 12.6666V5.33325C2.66671 5.15644 2.73695 4.98687 2.86197 4.86185C2.98699 4.73682 3.15656 4.66659 3.33337 4.66659H8.12004C8.29685 4.66659 8.46642 4.59635 8.59145 4.47132C8.71647 4.3463 8.78671 4.17673 8.78671 3.99992C8.78671 3.82311 8.71647 3.65354 8.59145 3.52851C8.46642 3.40349 8.29685 3.33325 8.12004 3.33325H3.33337C2.80294 3.33325 2.29423 3.54397 1.91916 3.91904C1.54409 4.29411 1.33337 4.80282 1.33337 5.33325V12.6666C1.33337 13.197 1.54409 13.7057 1.91916 14.0808C2.29423 14.4559 2.80294 14.6666 3.33337 14.6666H10.6667C11.1971 14.6666 11.7058 14.4559 12.0809 14.0808C12.456 13.7057 12.6667 13.197 12.6667 12.6666V7.87992C12.6667 7.70311 12.5965 7.53354 12.4714 7.40851C12.3464 7.28349 12.1769 7.21325 12 7.21325ZM14.6134 1.74659C14.5457 1.58369 14.4163 1.45424 14.2534 1.38659C14.1732 1.35242 14.0872 1.33431 14 1.33325H10C9.82323 1.33325 9.65366 1.40349 9.52864 1.52851C9.40361 1.65354 9.33337 1.82311 9.33337 1.99992C9.33337 2.17673 9.40361 2.3463 9.52864 2.47132C9.65366 2.59635 9.82323 2.66659 10 2.66659H12.3934L5.52671 9.52659C5.46422 9.58856 5.41463 9.66229 5.38078 9.74353C5.34693 9.82477 5.32951 9.91191 5.32951 9.99992C5.32951 10.0879 5.34693 10.1751 5.38078 10.2563C5.41463 10.3375 5.46422 10.4113 5.52671 10.4733C5.58868 10.5357 5.66242 10.5853 5.74366 10.6192C5.8249 10.653 5.91203 10.6705 6.00004 10.6705C6.08805 10.6705 6.17519 10.653 6.25643 10.6192C6.33767 10.5853 6.4114 10.5357 6.47337 10.4733L13.3334 3.60659V5.99992C13.3334 6.17673 13.4036 6.3463 13.5286 6.47132C13.6537 6.59635 13.8232 6.66659 14 6.66659C14.1769 6.66659 14.3464 6.59635 14.4714 6.47132C14.5965 6.3463 14.6667 6.17673 14.6667 5.99992V1.99992C14.6657 1.9128 14.6475 1.82673 14.6134 1.74659Z" fill="currentColor"/>
</svg>
