<svg width="20" height="20" viewBox="0 0 20 20" fill="none" xmlns="http://www.w3.org/2000/svg">
<g clip-path="url(#clip0_1158_5594)">
<path fill-rule="evenodd" clip-rule="evenodd" d="M10 2.91659C10 2.68647 9.81345 2.49992 9.58333 2.49992H4.58333C4.35321 2.49992 4.16667 2.68647 4.16667 2.91659V5.83325H10V2.91659ZM4.16667 0.833252C3.24619 0.833252 2.5 1.57944 2.5 2.49992V5.83325C2.5 6.75373 3.24619 6.66658 4.16667 6.66658H10C10.9205 6.66658 11.6667 6.75373 11.6667 5.83325V2.49992C11.6667 1.57944 10.9205 0.833252 10 0.833252H4.16667Z" fill="currentColor"/>
<path fill-rule="evenodd" clip-rule="evenodd" d="M0.833336 7.49992C0.833336 6.57944 1.57953 5.83325 2.5 5.83325H11.6667C12.5871 5.83325 13.3333 6.57944 13.3333 7.49992L2.91667 7.49992C2.68655 7.49992 2.5 7.68647 2.5 7.91659V17.0833C2.5 17.3134 2.68655 17.4999 2.91667 17.4999H5C5.46024 17.4999 5.83334 17.873 5.83334 18.3333C5.83334 18.7935 5.46024 19.1666 5 19.1666H2.5C1.57953 19.1666 0.833336 18.4204 0.833336 17.4999V7.49992Z" fill="currentColor"/>
<path fill-rule="evenodd" clip-rule="evenodd" d="M5.83334 4.99992C5.3731 4.99992 5.00001 4.62682 5.00001 4.16659C5.00001 3.70635 5.3731 3.33325 5.83334 3.33325C6.29358 3.33325 6.66667 3.70635 6.66667 4.16659C6.66667 4.62682 6.29358 4.99992 5.83334 4.99992Z" fill="currentColor"/>
<path fill-rule="evenodd" clip-rule="evenodd" d="M8.33334 4.99992C7.8731 4.99992 7.5 4.62682 7.5 4.16659C7.5 3.70635 7.8731 3.33325 8.33334 3.33325C8.79358 3.33325 9.16667 3.70635 9.16667 4.16659C9.16667 4.62682 8.79358 4.99992 8.33334 4.99992Z" fill="currentColor"/>
<path fill-rule="evenodd" clip-rule="evenodd" d="M13.75 9.99992C11.6024 9.99992 10 11.5653 10 13.3333V18.3333C10 18.7935 9.62691 19.1666 9.16667 19.1666C8.70643 19.1666 8.33334 18.7935 8.33334 18.3333V13.3333C8.33334 10.4989 10.835 8.33325 13.75 8.33325C16.665 8.33325 19.1667 10.4989 19.1667 13.3333V14.9999C19.1667 15.4602 18.7936 15.8333 18.3333 15.8333C17.8731 15.8333 17.5 15.4602 17.5 14.9999V13.3333C17.5 11.5653 15.8976 9.99992 13.75 9.99992Z" fill="currentColor"/>
<path fill-rule="evenodd" clip-rule="evenodd" d="M13.75 12.4999C14.5169 12.4999 15 13.0477 15 13.5605V18.3333C15 18.7935 15.3731 19.1666 15.8333 19.1666C16.2936 19.1666 16.6667 18.7935 16.6667 18.3333V13.5605C16.6667 11.9813 15.2843 10.8333 13.75 10.8333C12.2157 10.8333 10.8333 11.9813 10.8333 13.5605V14.3181C10.8333 14.7783 11.2064 15.1514 11.6667 15.1514C12.1269 15.1514 12.5 14.7783 12.5 14.3181V13.5605C12.5 13.0477 12.9831 12.4999 13.75 12.4999Z" fill="currentColor"/>
<path fill-rule="evenodd" clip-rule="evenodd" d="M18.3333 16.6665C18.7936 16.6665 19.1667 17.0396 19.1667 17.4998L19.1667 18.3332C19.1667 18.7934 18.7936 19.1665 18.3333 19.1665C17.8731 19.1665 17.5 18.7934 17.5 18.3332L17.5 17.4998C17.5 17.0396 17.8731 16.6665 18.3333 16.6665Z" fill="currentColor"/>
<path fill-rule="evenodd" clip-rule="evenodd" d="M13.75 16.6665C14.2102 16.6665 14.5833 17.0396 14.5833 17.4998L14.5833 18.3332C14.5833 18.7934 14.2102 19.1665 13.75 19.1665C13.2898 19.1665 12.9167 18.7934 12.9167 18.3332L12.9167 17.4998C12.9167 17.0396 13.2898 16.6665 13.75 16.6665Z" fill="currentColor"/>
<path fill-rule="evenodd" clip-rule="evenodd" d="M11.6667 15.8333C12.1269 15.8333 12.5 16.2063 12.5 16.6666L12.5 18.3333C12.5 18.7935 12.1269 19.1666 11.6667 19.1666C11.2064 19.1666 10.8333 18.7935 10.8333 18.3333L10.8333 16.6666C10.8333 16.2063 11.2064 15.8333 11.6667 15.8333Z" fill="currentColor"/>
<path fill-rule="evenodd" clip-rule="evenodd" d="M13.75 13.3333C14.2102 13.3333 14.5833 13.7063 14.5833 14.1666V14.9999C14.5833 15.4602 14.2102 15.8333 13.75 15.8333C13.2898 15.8333 12.9167 15.4602 12.9167 14.9999V14.1666C12.9167 13.7063 13.2898 13.3333 13.75 13.3333Z" fill="currentColor"/>
</g>
<defs>
<clipPath id="clip0_1158_5594">
<rect width="20" height="20" fill="white"/>
</clipPath>
</defs>
</svg>
