<svg width="20" height="20" viewBox="0 0 20 20" fill="none" xmlns="http://www.w3.org/2000/svg">
<path d="M3.70843 13.2874H15.4589C15.9338 13.2874 16.2503 12.954 16.2503 12.454C16.2503 11.954 15.9338 11.6207 15.4589 11.6207H3.70843C3.23357 11.6207 2.91699 11.954 2.91699 12.454C2.91699 12.954 3.23357 13.2874 3.70843 13.2874Z" fill="currentColor"/>
<path d="M9.80777 3.17843L7.20305 17.1172C7.11622 17.6096 6.73007 17.88 6.23767 17.7932C5.74526 17.7063 5.47487 17.3202 5.5617 16.8278L8.16642 2.88902C8.25325 2.39661 8.6394 2.12622 9.1318 2.21305C9.62421 2.29987 9.89459 2.68602 9.80777 3.17843Z" fill="currentColor"/>
<path d="M14.8078 3.17286L12.203 17.1116C12.1162 17.604 11.7301 17.8744 11.2377 17.7876C10.7453 17.7008 10.4749 17.3146 10.5617 16.8222L13.1664 2.88345C13.2532 2.39105 13.6394 2.12066 14.1318 2.20749C14.6242 2.29431 14.8946 2.68046 14.8078 3.17286Z" fill="currentColor"/>
<path d="M4.54176 8.28737H16.2922C16.7671 8.28737 17.0837 7.95403 17.0837 7.45403C17.0837 6.95403 16.7671 6.6207 16.2922 6.6207H4.54176C4.0669 6.6207 3.75033 6.95403 3.75033 7.45403C3.75033 7.95403 4.0669 8.28737 4.54176 8.28737Z" fill="currentColor"/>
</svg>
