<svg width="20" height="20" viewBox="0 0 20 20" fill="none" xmlns="http://www.w3.org/2000/svg">
<path d="M14.0837 7.95852C13.7504 7.62519 13.2504 7.62519 12.917 7.95852L10.0004 10.8752L7.0837 7.95852C6.75037 7.62519 6.25037 7.62519 5.91703 7.95852C5.5837 8.29186 5.5837 8.79186 5.91703 9.12519L9.41703 12.6252C9.5837 12.7919 9.75037 12.8752 10.0004 12.8752C10.2504 12.8752 10.417 12.7919 10.5837 12.6252L14.0837 9.12519C14.417 8.79186 14.417 8.29186 14.0837 7.95852Z" fill="currentColor"/>
<path d="M15.8337 3.33301H4.16699C3.50395 3.33301 2.86807 3.5964 2.39923 4.06524C1.93038 4.53408 1.66699 5.16997 1.66699 5.83301V14.1663C1.66699 14.8294 1.93038 15.4653 2.39923 15.9341C2.86807 16.4029 3.50395 16.6663 4.16699 16.6663H15.8337C16.4967 16.6663 17.1326 16.4029 17.6014 15.9341C18.0703 15.4653 18.3337 14.8294 18.3337 14.1663V5.83301C18.3337 5.16997 18.0703 4.53408 17.6014 4.06524C17.1326 3.5964 16.4967 3.33301 15.8337 3.33301ZM16.667 14.1663C16.667 14.3874 16.5792 14.5993 16.4229 14.7556C16.2666 14.9119 16.0547 14.9997 15.8337 14.9997H4.16699C3.94598 14.9997 3.73402 14.9119 3.57774 14.7556C3.42146 14.5993 3.33366 14.3874 3.33366 14.1663V5.83301C3.33366 5.61199 3.42146 5.40003 3.57774 5.24375C3.73402 5.08747 3.94598 4.99967 4.16699 4.99967H15.8337C16.0547 4.99967 16.2666 5.08747 16.4229 5.24375C16.5792 5.40003 16.667 5.61199 16.667 5.83301V14.1663Z" fill="currentColor"/>
</svg>
