<svg width="20" height="20" viewBox="0 0 20 20" fill="none" xmlns="http://www.w3.org/2000/svg">
<path d="M8.33352 14.6252L6.85852 16.0586C6.47175 16.4453 5.94717 16.6626 5.40019 16.6626C4.85321 16.6626 4.32863 16.4453 3.94186 16.0586C3.55508 15.6718 3.33779 15.1472 3.33779 14.6002C3.33779 14.0533 3.55508 13.5287 3.94186 13.1419L7.72519 9.35024C8.09653 8.97769 8.59687 8.76214 9.1227 8.74818C9.64853 8.73422 10.1596 8.92292 10.5502 9.27524L10.6502 9.35857C10.8082 9.51328 11.0212 9.59888 11.2424 9.59654C11.4635 9.59419 11.6746 9.5041 11.8294 9.34607C11.9841 9.18805 12.0697 8.97504 12.0673 8.7539C12.065 8.53277 11.9749 8.32162 11.8169 8.16691C11.7698 8.1061 11.7198 8.04769 11.6669 7.99191C10.9555 7.373 10.0355 7.04761 9.09316 7.08165C8.15086 7.11569 7.25672 7.50662 6.59186 8.17524L2.75852 11.9669C2.10715 12.6759 1.75487 13.6091 1.77525 14.5717C1.79563 15.5343 2.18709 16.4518 2.86788 17.1325C3.54868 17.8133 4.46616 18.2048 5.42873 18.2252C6.3913 18.2456 7.32453 17.8933 8.03352 17.2419L9.47519 15.8336C9.61754 15.6783 9.69579 15.4748 9.6942 15.2642C9.69261 15.0535 9.61129 14.8513 9.46661 14.6982C9.32194 14.545 9.12464 14.4524 8.91441 14.4389C8.70418 14.4253 8.49663 14.4919 8.33352 14.6252ZM17.2419 2.75857C16.5408 2.06191 15.5927 1.6709 14.6044 1.6709C13.616 1.6709 12.6679 2.06191 11.9669 2.75857L10.5252 4.16691C10.3828 4.3222 10.3046 4.52564 10.3062 4.7363C10.3078 4.94695 10.3891 5.14919 10.5338 5.30231C10.6784 5.45544 10.8757 5.54809 11.086 5.56162C11.2962 5.57515 11.5037 5.50856 11.6669 5.37524L13.1085 3.94191C13.4953 3.55513 14.0199 3.33785 14.5669 3.33785C15.1138 3.33785 15.6384 3.55513 16.0252 3.94191C16.412 4.32868 16.6292 4.85326 16.6292 5.40024C16.6292 5.94722 16.412 6.4718 16.0252 6.85857L12.2419 10.6502C11.8705 11.0228 11.3702 11.2383 10.8443 11.2523C10.3185 11.2663 9.80744 11.0776 9.41686 10.7252L9.31686 10.6419C9.15883 10.4872 8.94582 10.4016 8.72468 10.4039C8.50355 10.4063 8.2924 10.4964 8.13769 10.6544C7.98298 10.8124 7.89738 11.0254 7.89972 11.2466C7.90207 11.4677 7.99216 11.6789 8.15019 11.8336C8.21072 11.8955 8.27471 11.9539 8.34186 12.0086C9.05409 12.6256 9.97371 12.9498 10.9154 12.9158C11.8572 12.8817 12.751 12.4921 13.4169 11.8252L17.2085 8.03358C17.9096 7.33697 18.3066 6.39127 18.3129 5.40295C18.3191 4.41463 17.9341 3.46398 17.2419 2.75857Z" fill="currentColor"/>
</svg>
