<svg width="20" height="20" viewBox="0 0 20 20" fill="none" xmlns="http://www.w3.org/2000/svg">
<path d="M15.8337 1.66602H4.16699C3.50395 1.66602 2.86807 1.92941 2.39923 2.39825C1.93038 2.86709 1.66699 3.50297 1.66699 4.16602V15.8327C1.66699 16.4957 1.93038 17.1316 2.39923 17.6004C2.86807 18.0693 3.50395 18.3327 4.16699 18.3327H15.8337C16.4967 18.3327 17.1326 18.0693 17.6014 17.6004C18.0703 17.1316 18.3337 16.4957 18.3337 15.8327V4.16602C18.3337 3.50297 18.0703 2.86709 17.6014 2.39825C17.1326 1.92941 16.4967 1.66602 15.8337 1.66602ZM16.667 15.8327C16.667 16.0537 16.5792 16.2657 16.4229 16.4219C16.2666 16.5782 16.0547 16.666 15.8337 16.666H4.16699C3.94598 16.666 3.73402 16.5782 3.57774 16.4219C3.42146 16.2657 3.33366 16.0537 3.33366 15.8327V4.16602C3.33366 3.945 3.42146 3.73304 3.57774 3.57676C3.73402 3.42048 3.94598 3.33268 4.16699 3.33268H15.8337C16.0547 3.33268 16.2666 3.42048 16.4229 3.57676C16.5792 3.73304 16.667 3.945 16.667 4.16602V15.8327Z" fill="currentColor"/>
<path d="M9.89636 15.0657C9.35558 15.0657 8.9172 14.6273 8.9172 14.0866V7.57038H6.70231C6.22268 7.57038 5.83386 7.18157 5.83386 6.70194C5.83386 6.22231 6.22268 5.8335 6.70231 5.8335H13.1127C13.5924 5.8335 13.9812 6.22231 13.9812 6.70194C13.9812 7.18157 13.5924 7.57038 13.1127 7.57038H10.8755V14.0866C10.8755 14.6273 10.4371 15.0657 9.89636 15.0657Z" fill="currentColor"/>
</svg>
