<svg width="20" height="20" viewBox="0 0 20 20" fill="none" xmlns="http://www.w3.org/2000/svg">
<path d="M15.8337 1.66602H4.16699C3.50395 1.66602 2.86807 1.92941 2.39923 2.39825C1.93038 2.86709 1.66699 3.50297 1.66699 4.16602V15.8327C1.66699 16.4957 1.93038 17.1316 2.39923 17.6004C2.86807 18.0693 3.50395 18.3327 4.16699 18.3327H15.8337C16.4967 18.3327 17.1326 18.0693 17.6014 17.6004C18.0703 17.1316 18.3337 16.4957 18.3337 15.8327V4.16602C18.3337 3.50297 18.0703 2.86709 17.6014 2.39825C17.1326 1.92941 16.4967 1.66602 15.8337 1.66602ZM16.667 15.8327C16.667 16.0537 16.5792 16.2657 16.4229 16.4219C16.2666 16.5782 16.0547 16.666 15.8337 16.666H4.16699C3.94598 16.666 3.73402 16.5782 3.57774 16.4219C3.42146 16.2657 3.33366 16.0537 3.33366 15.8327V4.16602C3.33366 3.945 3.42146 3.73304 3.57774 3.57676C3.73402 3.42048 3.94598 3.33268 4.16699 3.33268H15.8337C16.0547 3.33268 16.2666 3.42048 16.4229 3.57676C16.5792 3.73304 16.667 3.945 16.667 4.16602V15.8327Z" fill="currentColor"/>
<path d="M8.66068 13.0595C8.55913 13.0172 8.46696 12.9552 8.38949 12.8771L6.19797 10.9352C6.04105 10.7782 5.95289 10.5654 5.95289 10.3435C5.95289 10.1216 6.04105 9.90874 6.19797 9.75182C6.35489 9.5949 6.56771 9.50675 6.78963 9.50675C7.01155 9.50675 7.22438 9.5949 7.3813 9.75182L8.98116 11.1104L12.6196 7.42326C12.7765 7.26634 12.9893 7.17818 13.2112 7.17818C13.4331 7.17818 13.646 7.26634 13.8029 7.42326C13.9598 7.58018 14.048 7.79301 14.048 8.01493C14.048 8.23684 13.9598 8.44967 13.8029 8.60659L9.57283 12.8771C9.49536 12.9552 9.40319 13.0172 9.30164 13.0595C9.20009 13.1018 9.09117 13.1236 8.98116 13.1236C8.87115 13.1236 8.76223 13.1018 8.66068 13.0595Z" fill="currentColor"/>
</svg>
