<svg width="20" height="20" viewBox="0 0 20 20" fill="none" xmlns="http://www.w3.org/2000/svg">
<path d="M16.5625 9.16683H3.4375C3.18886 9.16683 2.9504 9.25463 2.77459 9.41091C2.59877 9.56719 2.5 9.77915 2.5 10.0002C2.5 10.2212 2.59877 10.4331 2.77459 10.5894C2.9504 10.7457 3.18886 10.8335 3.4375 10.8335H16.5625C16.8111 10.8335 17.0496 10.7457 17.2254 10.5894C17.4012 10.4331 17.5 10.2212 17.5 10.0002C17.5 9.77915 17.4012 9.56719 17.2254 9.41091C17.0496 9.25463 16.8111 9.16683 16.5625 9.16683Z" fill="currentColor"/>
<path d="M12.5596 3.90021L5.99706 15.2668C5.87274 15.4821 5.82955 15.7325 5.87698 15.9629C5.92442 16.1933 6.0586 16.3848 6.25 16.4954C6.4414 16.6059 6.67435 16.6263 6.8976 16.5522C7.12085 16.4781 7.31612 16.3155 7.44044 16.1001L14.0029 4.73354C14.1273 4.51821 14.1705 4.2678 14.123 4.0374C14.0756 3.807 13.9414 3.61548 13.75 3.50497C13.5586 3.39447 13.3256 3.37402 13.1024 3.44814C12.8791 3.52227 12.6839 3.68488 12.5596 3.90021Z" fill="currentColor"/>
<path d="M14.0029 15.2668L7.44044 3.9002C7.31612 3.68488 7.12085 3.52227 6.8976 3.44814C6.67435 3.37402 6.4414 3.39447 6.25 3.50497C6.0586 3.61548 5.92442 3.807 5.87698 4.0374C5.82955 4.2678 5.87274 4.51821 5.99706 4.73354L12.5596 16.1001C12.6839 16.3154 12.8791 16.4781 13.1024 16.5522C13.3256 16.6263 13.5586 16.6059 13.75 16.4954C13.9414 16.3848 14.0756 16.1933 14.123 15.9629C14.1705 15.7325 14.1273 15.4821 14.0029 15.2668Z" fill="currentColor"/>
</svg>
