<svg width="20" height="20" viewBox="0 0 20 20" fill="none" xmlns="http://www.w3.org/2000/svg">
<path d="M15.8337 3.33366H15.0003V2.50033C15.0003 2.27931 14.9125 2.06735 14.7562 1.91107C14.6 1.75479 14.388 1.66699 14.167 1.66699C13.946 1.66699 13.734 1.75479 13.5777 1.91107C13.4215 2.06735 13.3337 2.27931 13.3337 2.50033V3.33366H6.66699V2.50033C6.66699 2.27931 6.5792 2.06735 6.42291 1.91107C6.26663 1.75479 6.05467 1.66699 5.83366 1.66699C5.61265 1.66699 5.40068 1.75479 5.2444 1.91107C5.08812 2.06735 5.00033 2.27931 5.00033 2.50033V3.33366H4.16699C3.50395 3.33366 2.86807 3.59705 2.39923 4.06589C1.93038 4.53473 1.66699 5.17062 1.66699 5.83366V15.8337C1.66699 16.4967 1.93038 17.1326 2.39923 17.6014C2.86807 18.0703 3.50395 18.3337 4.16699 18.3337H15.8337C16.4967 18.3337 17.1326 18.0703 17.6014 17.6014C18.0703 17.1326 18.3337 16.4967 18.3337 15.8337V5.83366C18.3337 5.17062 18.0703 4.53473 17.6014 4.06589C17.1326 3.59705 16.4967 3.33366 15.8337 3.33366ZM16.667 15.8337C16.667 16.0547 16.5792 16.2666 16.4229 16.4229C16.2666 16.5792 16.0547 16.667 15.8337 16.667H4.16699C3.94598 16.667 3.73402 16.5792 3.57774 16.4229C3.42146 16.2666 3.33366 16.0547 3.33366 15.8337V10.0003H16.667V15.8337ZM16.667 8.33366H3.33366V5.83366C3.33366 5.61265 3.42146 5.40068 3.57774 5.2444C3.73402 5.08812 3.94598 5.00033 4.16699 5.00033H5.00033V5.83366C5.00033 6.05467 5.08812 6.26663 5.2444 6.42291C5.40068 6.5792 5.61265 6.66699 5.83366 6.66699C6.05467 6.66699 6.26663 6.5792 6.42291 6.42291C6.5792 6.26663 6.66699 6.05467 6.66699 5.83366V5.00033H13.3337V5.83366C13.3337 6.05467 13.4215 6.26663 13.5777 6.42291C13.734 6.5792 13.946 6.66699 14.167 6.66699C14.388 6.66699 14.6 6.5792 14.7562 6.42291C14.9125 6.26663 15.0003 6.05467 15.0003 5.83366V5.00033H15.8337C16.0547 5.00033 16.2666 5.08812 16.4229 5.2444C16.5792 5.40068 16.667 5.61265 16.667 5.83366V8.33366Z" fill="currentColor"/>
</svg>
