<svg width="20" height="20" viewBox="0 0 20 20" fill="none" xmlns="http://www.w3.org/2000/svg">
<path d="M10 1.66699C14.6024 1.66699 18.333 5.39763 18.333 10C18.333 14.6024 14.6024 18.333 10 18.333C5.39763 18.333 1.66699 14.6024 1.66699 10C1.66699 5.39763 5.39763 1.66699 10 1.66699ZM10 3.33301C6.3181 3.33301 3.33301 6.3181 3.33301 10C3.33301 13.6819 6.3181 16.667 10 16.667C13.6819 16.667 16.667 13.6819 16.667 10C16.667 6.3181 13.6819 3.33301 10 3.33301ZM12.917 8.16699C13.2503 7.83367 13.7497 7.83368 14.083 8.16699C14.4163 8.50033 14.4163 8.99967 14.083 9.33301L10.583 12.833C10.4163 12.9997 10.25 13.083 10 13.083C9.75002 13.083 9.58365 12.9997 9.41699 12.833L5.91699 9.33301C5.58369 8.99968 5.58369 8.50032 5.91699 8.16699C6.25032 7.83367 6.74967 7.83368 7.08301 8.16699L10 11.083L12.917 8.16699Z" fill="currentColor"/>
</svg>
