<svg width="20" height="20" viewBox="0 0 20 20" fill="none" xmlns="http://www.w3.org/2000/svg">
<path d="M7.49992 8.33342H8.33325C8.55427 8.33342 8.76623 8.24562 8.92251 8.08934C9.07879 7.93306 9.16658 7.7211 9.16658 7.50008C9.16658 7.27907 9.07879 7.06711 8.92251 6.91083C8.76623 6.75455 8.55427 6.66675 8.33325 6.66675H7.49992C7.2789 6.66675 7.06694 6.75455 6.91066 6.91083C6.75438 7.06711 6.66659 7.27907 6.66659 7.50008C6.66659 7.7211 6.75438 7.93306 6.91066 8.08934C7.06694 8.24562 7.2789 8.33342 7.49992 8.33342ZM7.49992 10.0001C7.2789 10.0001 7.06694 10.0879 6.91066 10.2442C6.75438 10.4004 6.66659 10.6124 6.66659 10.8334C6.66659 11.0544 6.75438 11.2664 6.91066 11.4227C7.06694 11.579 7.2789 11.6667 7.49992 11.6667H12.4999C12.7209 11.6667 12.9329 11.579 13.0892 11.4227C13.2455 11.2664 13.3333 11.0544 13.3333 10.8334C13.3333 10.6124 13.2455 10.4004 13.0892 10.2442C12.9329 10.0879 12.7209 10.0001 12.4999 10.0001H7.49992ZM16.6666 7.45008C16.6579 7.37353 16.6411 7.29811 16.6166 7.22508V7.15008C16.5765 7.0644 16.5231 6.98564 16.4583 6.91675L11.4583 1.91675C11.3894 1.85193 11.3106 1.79848 11.2249 1.75841C11.2 1.75488 11.1748 1.75488 11.1499 1.75841C11.0653 1.70987 10.9718 1.6787 10.8749 1.66675H5.83325C5.17021 1.66675 4.53433 1.93014 4.06549 2.39898C3.59664 2.86782 3.33325 3.50371 3.33325 4.16675V15.8334C3.33325 16.4965 3.59664 17.1323 4.06549 17.6012C4.53433 18.07 5.17021 18.3334 5.83325 18.3334H14.1666C14.8296 18.3334 15.4655 18.07 15.9344 17.6012C16.4032 17.1323 16.6666 16.4965 16.6666 15.8334V7.50008C16.6666 7.50008 16.6666 7.50008 16.6666 7.45008ZM11.6666 4.50841L13.8249 6.66675H12.4999C12.2789 6.66675 12.0669 6.57895 11.9107 6.42267C11.7544 6.26639 11.6666 6.05443 11.6666 5.83342V4.50841ZM14.9999 15.8334C14.9999 16.0544 14.9121 16.2664 14.7558 16.4227C14.5996 16.579 14.3876 16.6667 14.1666 16.6667H5.83325C5.61224 16.6667 5.40028 16.579 5.244 16.4227C5.08772 16.2664 4.99992 16.0544 4.99992 15.8334V4.16675C4.99992 3.94573 5.08772 3.73377 5.244 3.57749C5.40028 3.42121 5.61224 3.33341 5.83325 3.33341H9.99992V5.83342C9.99992 6.49646 10.2633 7.13234 10.7322 7.60118C11.201 8.07002 11.8369 8.33342 12.4999 8.33342H14.9999V15.8334ZM12.4999 13.3334H7.49992C7.2789 13.3334 7.06694 13.4212 6.91066 13.5775C6.75438 13.7338 6.66659 13.9457 6.66659 14.1667C6.66659 14.3878 6.75438 14.5997 6.91066 14.756C7.06694 14.9123 7.2789 15.0001 7.49992 15.0001H12.4999C12.7209 15.0001 12.9329 14.9123 13.0892 14.756C13.2455 14.5997 13.3333 14.3878 13.3333 14.1667C13.3333 13.9457 13.2455 13.7338 13.0892 13.5775C12.9329 13.4212 12.7209 13.3334 12.4999 13.3334Z" fill="currentColor"/>
</svg>
