<svg width="100" height="100" viewBox="0 0 100 100" fill="none" xmlns="http://www.w3.org/2000/svg">
<rect x="25" y="12.5" width="41.6667" height="75" rx="4" fill="url(#paint0_linear_272_72834)"/>
<path d="M49.5001 79.1667C49.5001 81.1917 47.8585 82.8333 45.8334 82.8333C43.8084 82.8333 42.1667 81.1917 42.1667 79.1667C42.1667 77.1416 43.8084 75.5 45.8334 75.5C47.8585 75.5 49.5001 77.1416 49.5001 79.1667Z" stroke="#CABEFF"/>
<path d="M39.5833 18.7501C39.5833 17.5995 40.516 16.6667 41.6666 16.6667H49.9999C51.1505 16.6667 52.0833 17.5995 52.0833 18.7501C52.0833 19.9007 51.1505 20.8334 49.9999 20.8334H41.6666C40.516 20.8334 39.5833 19.9007 39.5833 18.7501Z" fill="#302F38"/>
<path opacity="0.64" d="M87.5 50.0001C87.5 53.1931 76.3071 64.5834 62.5 64.5834C48.6929 64.5834 37.5 53.1931 37.5 50.0001C37.5 46.807 48.6929 35.4167 62.5 35.4167C65.2587 35.4167 67.9131 35.8715 70.3947 36.6247C72.8088 37.3574 75.0593 38.3726 77.0833 39.5264C83.392 43.1227 87.5 48.0657 87.5 50.0001Z" fill="#FAABFF"/>
<ellipse cx="62.5001" cy="50.0001" rx="8.33333" ry="8.33333" fill="#302F38"/>
<ellipse cx="68.7499" cy="49.9999" rx="4.16666" ry="4.16667" fill="#F07EFF"/>
<rect x="62.5" y="22.9167" width="2.08334" height="8.33333" rx="1.04167" fill="#FFFBF7"/>
<rect x="76.1677" y="25.4841" width="2.08333" height="8.33333" rx="1.04167" transform="rotate(45 76.1677 25.4841)" fill="#F07EFF"/>
<rect width="2.08333" height="8.33333" rx="1.04167" transform="matrix(0.707107 -0.707107 -0.707107 -0.707107 55.3345 32.8501)" fill="#FFFBF7"/>
<defs>
<linearGradient id="paint0_linear_272_72834" x1="32.1615" y1="77.3437" x2="76.5242" y2="50.9783" gradientUnits="userSpaceOnUse">
<stop stop-color="#5D34F2"/>
<stop offset="1" stop-color="#FAABFF"/>
</linearGradient>
</defs>
</svg>
