<svg width="48" height="48" viewBox="0 0 48 48" fill="none" xmlns="http://www.w3.org/2000/svg">
<rect width="48" height="48" rx="12" fill="#EFF1F1"/>
<path d="M23.9999 8C20.2007 8.00016 16.5255 9.38638 13.6319 11.9106C10.7384 14.4349 8.81524 17.9324 8.20666 21.7774C7.59807 25.6225 8.34375 29.5641 10.3103 32.897C12.2768 36.2299 15.3358 38.7366 18.94 39.9686C19.74 40.1122 20.04 39.62 20.04 39.1894C20.04 38.7998 20.02 37.5079 20.02 36.134C16 36.8927 14.96 35.1293 14.64 34.2065C14.2849 33.3091 13.722 32.5138 13 31.8893C12.44 31.5817 11.64 30.823 12.98 30.8025C13.4916 30.8595 13.9824 31.042 14.4106 31.3347C14.8388 31.6274 15.1919 32.0216 15.44 32.484C15.6588 32.887 15.9531 33.2419 16.3059 33.5281C16.6587 33.8144 17.0631 34.0264 17.496 34.1522C17.9289 34.2779 18.3817 34.3148 18.8286 34.2608C19.2754 34.2068 19.7074 34.0629 20.0999 33.8373C20.1692 33.0034 20.5317 32.2236 21.12 31.6433C17.56 31.2332 13.84 29.8182 13.84 23.5435C13.8175 21.9131 14.4043 20.3357 15.48 19.1347C14.9908 17.7177 15.0481 16.1627 15.64 14.7875C15.64 14.7875 16.9799 14.3568 20.04 16.469C22.658 15.7307 25.4219 15.7307 28.0399 16.469C31.0998 14.3364 32.4399 14.7875 32.4399 14.7875C33.0319 16.1626 33.0891 17.7177 32.5999 19.1347C33.6788 20.3336 34.2661 21.9124 34.2399 23.5435C34.2399 29.8387 30.4999 31.2332 26.9399 31.6433C27.3217 32.0401 27.6158 32.5165 27.8022 33.0402C27.9885 33.5638 28.0628 34.1225 28.0199 34.6782C28.0199 36.8723 27.9999 38.6357 27.9999 39.1894C27.9999 39.6201 28.2999 40.1327 29.0999 39.9687C32.6977 38.7266 35.748 36.214 37.7061 32.8794C39.6642 29.5448 40.4028 25.6052 39.79 21.7639C39.1772 17.9226 37.2529 14.4296 34.3606 11.9084C31.4683 9.38726 27.7962 8.00203 23.9999 8Z" fill="black"/>
</svg>
