<svg width="16" height="16" viewBox="0 0 16 16" fill="none" xmlns="http://www.w3.org/2000/svg">
<path d="M13.6667 9.33335C13.4899 9.33335 13.3203 9.40358 13.1953 9.52861C13.0702 9.65363 13 9.8232 13 10V12.6667C13 12.8435 12.9298 13.0131 12.8047 13.1381C12.6797 13.2631 12.5101 13.3333 12.3333 13.3333H3C2.82319 13.3333 2.65362 13.2631 2.5286 13.1381C2.40357 13.0131 2.33333 12.8435 2.33333 12.6667V6.27335L6.25333 10.2C6.62833 10.5745 7.13666 10.7849 7.66667 10.7849C8.19667 10.7849 8.705 10.5745 9.08 10.2L10.1733 9.10668C10.2989 8.98114 10.3694 8.81088 10.3694 8.63335C10.3694 8.45581 10.2989 8.28555 10.1733 8.16001C10.0478 8.03448 9.87753 7.96395 9.7 7.96395C9.52247 7.96395 9.3522 8.03448 9.22667 8.16001L8.13333 9.25335C8.00871 9.3755 7.84117 9.44392 7.66667 9.44392C7.49216 9.44392 7.32462 9.3755 7.2 9.25335L3.27333 5.33335H7.66667C7.84348 5.33335 8.01305 5.26311 8.13807 5.13808C8.26309 5.01306 8.33333 4.84349 8.33333 4.66668C8.33333 4.48987 8.26309 4.3203 8.13807 4.19527C8.01305 4.07025 7.84348 4.00001 7.66667 4.00001H3C2.46957 4.00001 1.96086 4.21073 1.58579 4.5858C1.21071 4.96087 1 5.46958 1 6.00001V12.6667C1 13.1971 1.21071 13.7058 1.58579 14.0809C1.96086 14.456 2.46957 14.6667 3 14.6667H12.3333C12.8638 14.6667 13.3725 14.456 13.7475 14.0809C14.1226 13.7058 14.3333 13.1971 14.3333 12.6667V10C14.3333 9.8232 14.2631 9.65363 14.1381 9.52861C14.013 9.40358 13.8435 9.33335 13.6667 9.33335ZM14.8067 3.52668L12.8067 1.52668C12.7433 1.46599 12.6685 1.41841 12.5867 1.38668C12.4244 1.32 12.2423 1.32 12.08 1.38668C11.9982 1.41841 11.9234 1.46599 11.86 1.52668L9.86 3.52668C9.73446 3.65221 9.66394 3.82248 9.66394 4.00001C9.66394 4.17755 9.73446 4.34781 9.86 4.47335C9.98554 4.59888 10.1558 4.66941 10.3333 4.66941C10.5109 4.66941 10.6811 4.59888 10.8067 4.47335L11.6667 3.60668V7.33335C11.6667 7.51016 11.7369 7.67973 11.8619 7.80475C11.987 7.92977 12.1565 8.00001 12.3333 8.00001C12.5101 8.00001 12.6797 7.92977 12.8047 7.80475C12.9298 7.67973 13 7.51016 13 7.33335V3.60668L13.86 4.47335C13.922 4.53583 13.9957 4.58543 14.0769 4.61927C14.1582 4.65312 14.2453 4.67054 14.3333 4.67054C14.4213 4.67054 14.5085 4.65312 14.5897 4.61927C14.671 4.58543 14.7447 4.53583 14.8067 4.47335C14.8692 4.41137 14.9187 4.33764 14.9526 4.2564C14.9864 4.17516 15.0039 4.08802 15.0039 4.00001C15.0039 3.912 14.9864 3.82487 14.9526 3.74363C14.9187 3.66239 14.8692 3.58865 14.8067 3.52668Z" fill="currentColor"/>
</svg>
