<svg width="16" height="16" viewBox="0 0 16 16" fill="none" xmlns="http://www.w3.org/2000/svg">
<path d="M10.6666 7.38666H5.33331C4.80288 7.38666 4.29417 7.59737 3.9191 7.97244C3.54403 8.34751 3.33331 8.85622 3.33331 9.38666V12.72C3.33331 13.2504 3.54403 13.7591 3.9191 14.1342C4.29417 14.5093 4.80288 14.72 5.33331 14.72H10.6666C11.1971 14.72 11.7058 14.5093 12.0809 14.1342C12.4559 13.7591 12.6666 13.2504 12.6666 12.72V9.38666C12.6666 8.85622 12.4559 8.34751 12.0809 7.97244C11.7058 7.59737 11.1971 7.38666 10.6666 7.38666ZM10.3866 8.71999L8.46665 10.6667C8.34203 10.7888 8.17448 10.8572 7.99998 10.8572C7.82548 10.8572 7.65793 10.7888 7.53331 10.6667L5.61331 8.71999H10.3866ZM11.3333 12.72C11.3333 12.8968 11.2631 13.0664 11.1381 13.1914C11.013 13.3164 10.8435 13.3867 10.6666 13.3867H5.33331C5.1565 13.3867 4.98693 13.3164 4.86191 13.1914C4.73688 13.0664 4.66665 12.8968 4.66665 12.72V9.65999L6.58665 11.58C6.96165 11.9545 7.46998 12.1649 7.99998 12.1649C8.52998 12.1649 9.03831 11.9545 9.41331 11.58L11.3333 9.65999V12.72ZM7.13998 3.74666L7.33331 3.55332V5.38666C7.33331 5.56347 7.40355 5.73304 7.52858 5.85806C7.6536 5.98308 7.82317 6.05332 7.99998 6.05332C8.17679 6.05332 8.34636 5.98308 8.47138 5.85806C8.59641 5.73304 8.66665 5.56347 8.66665 5.38666V3.55332L8.85998 3.74666C8.9217 3.80881 8.99506 3.85821 9.07587 3.89202C9.15668 3.92582 9.24336 3.94338 9.33096 3.94369C9.41855 3.944 9.50535 3.92706 9.5864 3.89382C9.66745 3.86058 9.74115 3.81171 9.80331 3.74999C9.86547 3.68827 9.91487 3.61491 9.94867 3.5341C9.98248 3.45329 10 3.36661 10.0004 3.27901C10.0007 3.19142 9.98371 3.10462 9.95048 3.02357C9.91724 2.94252 9.86837 2.86881 9.80665 2.80666L8.47331 1.47332C8.41134 1.41084 8.3376 1.36124 8.25636 1.32739C8.17512 1.29355 8.08799 1.27612 7.99998 1.27612C7.91197 1.27612 7.82483 1.29355 7.7436 1.32739C7.66236 1.36124 7.58862 1.41084 7.52665 1.47332L6.19331 2.80666C6.06915 2.93156 5.99945 3.10053 5.99945 3.27666C5.99945 3.45278 6.06915 3.62175 6.19331 3.74666C6.25529 3.80914 6.32902 3.85874 6.41026 3.89258C6.4915 3.92643 6.57864 3.94385 6.66665 3.94385C6.75465 3.94385 6.84179 3.92643 6.92303 3.89258C7.00427 3.85874 7.078 3.80914 7.13998 3.74666Z" fill="currentColor"/>
</svg>
