<svg width="17" height="18" viewBox="0 0 17 18" fill="none"
  xmlns="http://www.w3.org/2000/svg">
  <path d="M10.1276 8.16645H9.2943V7.33312C9.2943 7.11211 9.2065 6.90014 9.05022 6.74386C8.89394 6.58758 8.68198 6.49979 8.46097 6.49979C8.23995 6.49979 8.02799 6.58758 7.87171 6.74386C7.71543 6.90014 7.62764 7.11211 7.62764 7.33312V8.16645H6.7943C6.57329 8.16645 6.36133 8.25425 6.20505 8.41053C6.04877 8.56681 5.96097 8.77877 5.96097 8.99979C5.96097 9.2208 6.04877 9.43276 6.20505 9.58904C6.36133 9.74532 6.57329 9.83312 6.7943 9.83312H7.62764V10.6665C7.62764 10.8875 7.71543 11.0994 7.87171 11.2557C8.02799 11.412 8.23995 11.4998 8.46097 11.4998C8.68198 11.4998 8.89394 11.412 9.05022 11.2557C9.2065 11.0994 9.2943 10.8875 9.2943 10.6665V9.83312H10.1276C10.3486 9.83312 10.5606 9.74532 10.7169 9.58904C10.8732 9.43276 10.961 9.2208 10.961 8.99979C10.961 8.77877 10.8732 8.56681 10.7169 8.41053C10.5606 8.25425 10.3486 8.16645 10.1276 8.16645ZM16.5526 8.40812L14.5943 6.49979V3.69979C14.5943 3.47877 14.5065 3.26681 14.3502 3.11053C14.1939 2.95425 13.982 2.86645 13.761 2.86645H11.0026L9.05264 0.90812C8.97517 0.830013 8.883 0.768017 8.78145 0.72571C8.6799 0.683403 8.57098 0.661621 8.46097 0.661621C8.35096 0.661621 8.24204 0.683403 8.14049 0.72571C8.03894 0.768017 7.94677 0.830013 7.8693 0.90812L5.96097 2.86645H3.16097C2.93995 2.86645 2.72799 2.95425 2.57171 3.11053C2.41543 3.26681 2.32763 3.47877 2.32763 3.69979V6.49979L0.369301 8.40812C0.291194 8.48559 0.229199 8.57776 0.186892 8.67931C0.144585 8.78086 0.122803 8.88978 0.122803 8.99979C0.122803 9.1098 0.144585 9.21872 0.186892 9.32027C0.229199 9.42182 0.291194 9.51398 0.369301 9.59145L2.32763 11.5415V14.2998C2.32763 14.5208 2.41543 14.7328 2.57171 14.889C2.72799 15.0453 2.93995 15.1331 3.16097 15.1331H5.96097L7.91097 17.0915C7.98844 17.1696 8.08061 17.2316 8.18215 17.2739C8.2837 17.3162 8.39263 17.338 8.50264 17.338C8.61265 17.338 8.72157 17.3162 8.82312 17.2739C8.92467 17.2316 9.01683 17.1696 9.0943 17.0915L11.0443 15.1331H13.8026C14.0236 15.1331 14.2356 15.0453 14.3919 14.889C14.5482 14.7328 14.636 14.5208 14.636 14.2998V11.5415L16.5943 9.59145C16.6697 9.51127 16.7285 9.41693 16.7673 9.31388C16.8061 9.21084 16.8241 9.10113 16.8202 8.9911C16.8163 8.88107 16.7907 8.7729 16.7447 8.67284C16.6988 8.57277 16.6335 8.4828 16.5526 8.40812ZM13.1776 10.6081C13.0989 10.6853 13.0363 10.7773 12.9933 10.8789C12.9504 10.9805 12.9281 11.0895 12.9276 11.1998V13.4665H10.661C10.5507 13.4669 10.4416 13.4892 10.3401 13.5322C10.2385 13.5751 10.1465 13.6377 10.0693 13.7165L8.46097 15.3248L6.85263 13.7165C6.77546 13.6377 6.68342 13.5751 6.58186 13.5322C6.48029 13.4892 6.37122 13.4669 6.26097 13.4665H3.9943V11.1998C3.99384 11.0895 3.97151 10.9805 3.9286 10.8789C3.88568 10.7773 3.82304 10.6853 3.7443 10.6081L2.13597 8.99979L3.7443 7.39145C3.82304 7.31427 3.88568 7.22224 3.9286 7.12067C3.97151 7.01911 3.99384 6.91004 3.9943 6.79979V4.53312H6.26097C6.37122 4.53266 6.48029 4.51033 6.58186 4.46742C6.68342 4.4245 6.77546 4.36186 6.85263 4.28312L8.46097 2.67479L10.0693 4.28312C10.1465 4.36186 10.2385 4.4245 10.3401 4.46742C10.4416 4.51033 10.5507 4.53266 10.661 4.53312H12.9276V6.79979C12.9281 6.91004 12.9504 7.01911 12.9933 7.12067C13.0363 7.22224 13.0989 7.31427 13.1776 7.39145L14.786 8.99979L13.1776 10.6081Z" fill="currentcolor"/>
</svg>
