<svg width="20" height="20" viewBox="0 0 20 20" fill="none" xmlns="http://www.w3.org/2000/svg">
<path d="M17.4998 3.66675L18.0832 3.08341C18.4165 2.75008 18.4165 2.25008 18.0832 1.91675C17.7498 1.58341 17.2498 1.58341 16.9165 1.91675L8.1665 10.6667C7.49984 10.2501 6.6665 10.0001 5.83317 10.0001C3.49984 10.0001 1.6665 11.8334 1.6665 14.1667C1.6665 16.5001 3.49984 18.3334 5.83317 18.3334C8.1665 18.3334 9.99984 16.5001 9.99984 14.1667C9.99984 13.3334 9.74984 12.5001 9.33317 11.8334L13.9998 7.16675L15.7498 8.91675C16.0832 9.25008 16.5832 9.25008 16.9165 8.91675C17.2498 8.58342 17.2498 8.08342 16.9165 7.75008L15.1665 6.00008L16.3332 4.83342L16.9165 5.41675C17.2498 5.75008 17.7498 5.75008 18.0832 5.41675C18.4165 5.08341 18.4165 4.58341 18.0832 4.25008L17.4998 3.66675ZM5.83317 16.6667C4.4165 16.6667 3.33317 15.5834 3.33317 14.1667C3.33317 12.7501 4.4165 11.6667 5.83317 11.6667C7.24984 11.6667 8.33317 12.7501 8.33317 14.1667C8.33317 15.5834 7.24984 16.6667 5.83317 16.6667Z" fill="#78767F"/>
</svg>
