<svg width="21" height="20" viewBox="0 0 21 20" fill="none" xmlns="http://www.w3.org/2000/svg">
<path d="M17.9333 8.92497L10.925 1.90831C10.8471 1.83107 10.7548 1.76997 10.6533 1.7285C10.5517 1.68703 10.443 1.66601 10.3333 1.66664H2.83335C2.61233 1.66664 2.40037 1.75444 2.24409 1.91072C2.08781 2.067 2.00001 2.27896 2.00001 2.49997V9.99997C1.99938 10.1096 2.0204 10.2184 2.06187 10.3199C2.10334 10.4214 2.16445 10.5138 2.24168 10.5916L9.25835 17.6C9.7271 18.0681 10.3625 18.3311 11.025 18.3311C11.6875 18.3311 12.3229 18.0681 12.7917 17.6L17.9333 12.5C18.4015 12.0312 18.6645 11.3958 18.6645 10.7333C18.6645 10.0708 18.4015 9.43539 17.9333 8.96664V8.92497ZM16.7583 11.275L11.6083 16.4166C11.4522 16.5719 11.241 16.659 11.0208 16.659C10.8007 16.659 10.5895 16.5719 10.4333 16.4166L3.66668 9.65831V3.33331H9.99168L16.7583 10.1C16.8356 10.1778 16.8967 10.2702 16.9382 10.3717C16.9796 10.4732 17.0006 10.582 17 10.6916C16.9991 10.9103 16.9123 11.1198 16.7583 11.275Z" fill="currentColor"/>
</svg>
