<svg width="12" height="12" viewBox="0 0 12 12" fill="none" xmlns="http://www.w3.org/2000/svg">
<g filter="url(#filter0_d_2226_4465)">
<path d="M2 6.5013C1.90538 6.50162 1.81262 6.47509 1.73248 6.42479C1.65234 6.37449 1.58812 6.30248 1.54727 6.21713C1.50643 6.13178 1.49065 6.0366 1.50175 5.94263C1.51285 5.84867 1.55039 5.75978 1.61 5.6863L6.56 0.586302C6.59713 0.543443 6.64773 0.51448 6.70349 0.504169C6.75925 0.493857 6.81686 0.502808 6.86687 0.529554C6.91687 0.5563 6.95629 0.599251 6.97867 0.651356C7.00104 0.703462 7.00504 0.761626 6.99 0.816302L6.03 3.8263C6.00169 3.90206 5.99219 3.98356 6.0023 4.06381C6.01241 4.14405 6.04183 4.22064 6.08805 4.28702C6.13426 4.35339 6.19589 4.40756 6.26764 4.44488C6.33939 4.48221 6.41912 4.50157 6.5 4.5013H10C10.0946 4.50098 10.1874 4.52751 10.2675 4.57781C10.3477 4.62812 10.4119 4.70012 10.4527 4.78547C10.4936 4.87082 10.5094 4.96601 10.4983 5.05997C10.4871 5.15394 10.4496 5.24282 10.39 5.3163L5.44 10.4163C5.40287 10.4592 5.35227 10.4881 5.29651 10.4984C5.24075 10.5087 5.18314 10.4998 5.13313 10.4731C5.08313 10.4463 5.04371 10.4034 5.02133 10.3512C4.99896 10.2991 4.99496 10.241 5.01 10.1863L5.97 7.1763C5.99831 7.10054 6.00781 7.01904 5.9977 6.9388C5.98759 6.85856 5.95817 6.78196 5.91195 6.71559C5.86574 6.64922 5.80411 6.59504 5.73236 6.55772C5.66061 6.5204 5.58088 6.50104 5.5 6.5013H2Z" stroke="currentColor" stroke-linecap="round" stroke-linejoin="round" shape-rendering="crispEdges"/>
</g>
<defs>
<filter id="filter0_d_2226_4465" x="-3.00171" y="0" width="18.0034" height="19.0027" filterUnits="userSpaceOnUse" color-interpolation-filters="sRGB">
<feFlood flood-opacity="0" result="BackgroundImageFix"/>
<feColorMatrix in="SourceAlpha" type="matrix" values="0 0 0 0 0 0 0 0 0 0 0 0 0 0 0 0 0 0 127 0" result="hardAlpha"/>
<feOffset dy="4"/>
<feGaussianBlur stdDeviation="2"/>
<feComposite in2="hardAlpha" operator="out"/>
<feColorMatrix type="matrix" values="0 0 0 0 0 0 0 0 0 0 0 0 0 0 0 0 0 0 0.25 0"/>
<feBlend mode="normal" in2="BackgroundImageFix" result="effect1_dropShadow_2226_4465"/>
<feBlend mode="normal" in="SourceGraphic" in2="effect1_dropShadow_2226_4465" result="shape"/>
</filter>
</defs>
</svg>
