<svg width="24" height="24" viewBox="0 0 24 24" fill="none" xmlns="http://www.w3.org/2000/svg">
<path d="M16.0723 5.45703C15.3365 4.8519 14.475 4.41865 13.5504 4.18891C12.6259 3.95916 11.6617 3.9387 10.7283 4.12903C9.4854 4.38009 8.34509 4.99469 7.45204 5.89486C6.559 6.79502 5.95347 7.94018 5.7123 9.18503C5.53617 10.1184 5.56818 11.0792 5.80602 11.9987C6.04387 12.9183 6.4817 13.7741 7.0883 14.505C7.65124 15.1403 7.97392 15.9526 8.0003 16.801V19.201C8.0003 19.8376 8.25315 20.448 8.70324 20.8981C9.15333 21.3482 9.76378 21.601 10.4003 21.601H13.6003C14.2368 21.601 14.8473 21.3482 15.2974 20.8981C15.7474 20.448 16.0003 19.8376 16.0003 19.201V16.953C16.0271 16.0164 16.3713 15.1166 16.9763 14.401C18.0364 13.0897 18.5361 11.4129 18.3668 9.73513C18.1976 8.05738 17.373 6.51422 16.0723 5.44103V5.45703ZM14.4003 19.201C14.4003 19.4132 14.316 19.6167 14.166 19.7667C14.016 19.9167 13.8125 20.001 13.6003 20.001H10.4003C10.1881 20.001 9.98464 19.9167 9.83461 19.7667C9.68458 19.6167 9.6003 19.4132 9.6003 19.201V18.401H14.4003V19.201Z" fill="url(#paint0_linear_691_82122)"/>
<path d="M16.0721 5.45703C15.3363 4.8519 14.4747 4.41865 13.5502 4.18891C12.6256 3.95916 11.6615 3.9387 10.7281 4.12903C9.48515 4.38009 8.34484 4.99469 7.4518 5.89486C6.55875 6.79502 5.95323 7.94018 5.71205 9.18503C5.53593 10.1184 5.56793 11.0792 5.80578 11.9987C6.04363 12.9183 6.48146 13.7741 7.08805 14.505C7.651 15.1403 7.97368 15.9526 8.00005 16.801V19.201C8.00005 19.8376 8.25291 20.448 8.703 20.8981C9.15308 21.3482 9.76353 21.601 10.4001 21.601H13.6001C14.2366 21.601 14.847 21.3482 15.2971 20.8981C15.7472 20.448 16.0001 19.8376 16.0001 19.201V16.953C16.0269 16.0164 16.371 15.1166 16.9761 14.401C18.0361 13.0897 18.5359 11.4129 18.3666 9.73513C18.1973 8.05738 17.3727 6.51422 16.0721 5.44103V5.45703ZM14.4001 19.201C14.4001 19.4132 14.3158 19.6167 14.1657 19.7667C14.0157 19.9167 13.8122 20.001 13.6001 20.001H10.4001C10.1879 20.001 9.9844 19.9167 9.83437 19.7667C9.68434 19.6167 9.60005 19.4132 9.60005 19.201V18.401H14.4001V19.201ZM15.7361 13.409C14.9317 14.3631 14.4623 15.5547 14.4001 16.801H12.8001V14.401C12.8001 14.1889 12.7158 13.9854 12.5657 13.8353C12.4157 13.6853 12.2122 13.601 12.0001 13.601C11.7879 13.601 11.5844 13.6853 11.4344 13.8353C11.2843 13.9854 11.2001 14.1889 11.2001 14.401V16.801H9.60005C9.57894 15.5755 9.12561 14.3968 8.32005 13.473C7.78856 12.8362 7.43116 12.0726 7.2827 11.2565C7.13423 10.4405 7.19977 9.59984 7.47292 8.81666C7.74607 8.03347 8.21751 7.33443 8.84127 6.78769C9.46503 6.24096 10.2198 5.86519 11.0321 5.69703C11.7301 5.55331 12.4514 5.56683 13.1435 5.73661C13.8357 5.90639 14.4814 6.22817 15.0337 6.67859C15.586 7.12902 16.0311 7.69677 16.3366 8.34065C16.6421 8.98452 16.8004 9.68835 16.8001 10.401C16.806 11.4969 16.4297 12.5606 15.7361 13.409Z" fill="#191C1D"/>
<rect x="4.61646" y="2.2019" width="3" height="1.5" rx="0.75" transform="rotate(45 4.61646 2.2019)" fill="#191C1D"/>
<rect x="1.30005" y="8.2019" width="3" height="1.5" rx="0.75" fill="#191C1D"/>
<rect x="19.429" y="8.2019" width="3" height="1.5" rx="0.75" fill="#191C1D"/>
<rect x="11.429" y="3" width="3" height="1.5" rx="0.75" transform="rotate(-90 11.429 3)" fill="#191C1D"/>
<rect width="3" height="1.5" rx="0.75" transform="matrix(0.707107 -0.707107 -0.707107 -0.707107 18.7126 5.2019)" fill="#191C1D"/>
<defs>
<linearGradient id="paint0_linear_691_82122" x1="5.60034" y1="12.8005" x2="18.3992" y2="12.8005" gradientUnits="userSpaceOnUse">
<stop stop-color="#FF930F"/>
<stop offset="1" stop-color="#FFF95B"/>
</linearGradient>
</defs>
</svg>
