<svg width="20" height="20" viewBox="0 0 20 20" fill="none" xmlns="http://www.w3.org/2000/svg">
<path d="M14.1667 7.50002V5.83335C14.1667 4.72829 13.7277 3.66848 12.9463 2.88708C12.1649 2.10567 11.1051 1.66669 10 1.66669C8.89497 1.66669 7.83516 2.10567 7.05376 2.88708C6.27236 3.66848 5.83337 4.72829 5.83337 5.83335V7.50002C5.17033 7.50002 4.53445 7.76341 4.06561 8.23225C3.59677 8.70109 3.33337 9.33698 3.33337 10V15.8334C3.33337 16.4964 3.59677 17.1323 4.06561 17.6011C4.53445 18.07 5.17033 18.3334 5.83337 18.3334H14.1667C14.8297 18.3334 15.4656 18.07 15.9345 17.6011C16.4033 17.1323 16.6667 16.4964 16.6667 15.8334V10C16.6667 9.33698 16.4033 8.70109 15.9345 8.23225C15.4656 7.76341 14.8297 7.50002 14.1667 7.50002ZM7.50004 5.83335C7.50004 5.17031 7.76343 4.53443 8.23227 4.06559C8.70111 3.59675 9.337 3.33335 10 3.33335C10.6631 3.33335 11.299 3.59675 11.7678 4.06559C12.2366 4.53443 12.5 5.17031 12.5 5.83335V7.50002H7.50004V5.83335ZM15 15.8334C15 16.0544 14.9122 16.2663 14.756 16.4226C14.5997 16.5789 14.3877 16.6667 14.1667 16.6667H5.83337C5.61236 16.6667 5.4004 16.5789 5.24412 16.4226C5.08784 16.2663 5.00004 16.0544 5.00004 15.8334V10C5.00004 9.77901 5.08784 9.56705 5.24412 9.41077C5.4004 9.25449 5.61236 9.16669 5.83337 9.16669H14.1667C14.3877 9.16669 14.5997 9.25449 14.756 9.41077C14.9122 9.56705 15 9.77901 15 10V15.8334Z" fill="currentColor"/>
</svg>
