<svg width="48" height="48" viewBox="0 0 48 48" fill="none" xmlns="http://www.w3.org/2000/svg">
<rect width="48" height="48" rx="12" fill="#1B1B22"/>
<path fill-rule="evenodd" clip-rule="evenodd" d="M34.7143 18.4286C34.7143 17.9552 34.3305 17.5714 33.8571 17.5714H14.1429C13.6695 17.5714 13.2857 17.9552 13.2857 18.4286L13.2857 33.8571C13.2857 34.3305 13.6695 34.7143 14.1429 34.7143H33.8571C34.3305 34.7143 34.7143 34.3305 34.7143 33.8571V18.4286ZM13.2857 13.2857C10.9188 13.2857 9 15.2045 9 17.5714V34.7143C9 37.0812 10.9188 39 13.2857 39H34.7143C37.0812 39 39 37.0812 39 34.7143V17.5714C39 15.2045 37.0812 13.2857 34.7143 13.2857H13.2857Z" fill="white"/>
<path d="M17.5714 13.2857C17.5714 10.9188 19.4902 9 21.8571 9H26.1429C28.5098 9 30.4286 10.9188 30.4286 13.2857H17.5714Z" fill="white"/>
<path d="M17.5714 24C17.5714 22.8165 18.5308 21.8571 19.7143 21.8571C20.8978 21.8571 21.8571 22.8165 21.8571 24V28.2857C21.8571 29.4692 20.8978 30.4286 19.7143 30.4286C18.5308 30.4286 17.5714 29.4692 17.5714 28.2857V24Z" fill="white"/>
<path d="M26.1429 24C26.1429 22.8165 27.1022 21.8571 28.2857 21.8571C29.4692 21.8571 30.4286 22.8165 30.4286 24V28.2857C30.4286 29.4692 29.4692 30.4286 28.2857 30.4286C27.1022 30.4286 26.1429 29.4692 26.1429 28.2857V24Z" fill="white"/>
</svg>
