<svg width="28" height="28" viewBox="0 0 28 28" fill="none" xmlns="http://www.w3.org/2000/svg">
<path fill-rule="evenodd" clip-rule="evenodd" d="M0.93335 3.49768C0.93335 2.85409 0.93335 2.53229 1.05815 2.27328C1.16812 2.04502 1.345 1.85156 1.56769 1.71594C1.8204 1.56205 2.15637 1.51637 2.82831 1.42502L12.4114 0.122079C13.2813 0.00381166 13.7162 -0.0553221 14.0542 0.0695342C14.3509 0.179138 14.5985 0.382629 14.755 0.645523C14.9333 0.945001 14.9333 1.36158 14.9333 2.19474V20.2053C14.9333 21.0384 14.9334 21.455 14.755 21.7545C14.5985 22.0174 14.3509 22.2209 14.0542 22.3305C13.7162 22.4553 13.2813 22.3962 12.4114 22.2779L2.82831 20.975L2.82828 20.975C2.15636 20.8836 1.8204 20.8379 1.56769 20.6841C1.345 20.5484 1.16812 20.355 1.05815 20.1267C0.93335 19.8677 0.93335 19.5459 0.93335 18.9023V3.49768ZM11.2 9.57033C11.2 9.37434 11.2 9.27635 11.2329 9.19889C11.2619 9.13068 11.3084 9.07368 11.3664 9.03519C11.4324 8.99148 11.5195 8.9826 11.6939 8.96486L12.4745 8.88541C12.6799 8.8645 12.7826 8.85405 12.8619 8.8924C12.9315 8.9261 12.9891 8.98495 13.0254 9.05958C13.0667 9.14452 13.0667 9.25997 13.0667 9.49088V12.9091C13.0667 13.14 13.0667 13.2555 13.0254 13.3404C12.9891 13.415 12.9315 13.4739 12.8619 13.5076C12.7826 13.5459 12.6799 13.5355 12.4745 13.5146L11.6939 13.4351C11.5195 13.4174 11.4324 13.4085 11.3664 13.3648C11.3084 13.3263 11.2619 13.2693 11.2329 13.2011C11.2 13.1236 11.2 13.0257 11.2 12.8297V9.57033ZM17.5674 2.33333H16.3333V20.5333H17.5674C18.2789 20.5333 18.6346 20.5333 18.9064 20.3945C19.1454 20.2723 19.3397 20.0774 19.4615 19.8377C19.6 19.5652 19.6 19.2084 19.6 18.4949V4.37173C19.6 3.65823 19.6 3.30147 19.4615 3.02895C19.3397 2.78923 19.1454 2.59433 18.9064 2.47219C18.6346 2.33333 18.2789 2.33333 17.5674 2.33333Z" fill="url(#paint0_linear_7527_106189)"/>
<path d="M13.0667 19.0398C13.0667 17.8027 14.0695 16.7998 15.3067 16.7998H25.76C26.9971 16.7998 28 17.8027 28 19.0398V25.7598C28 26.9969 26.9971 27.9998 25.76 27.9998H15.3067C14.0695 27.9998 13.0667 26.9969 13.0667 25.7598V19.0398Z" fill="url(#paint1_linear_7527_106189)"/>
<path d="M20.9067 22.5574C20.6757 22.6908 20.3911 22.6908 20.1601 22.5574L15.1871 19.6863C14.5255 19.3043 14.7965 18.293 15.5604 18.293H25.5064C26.2703 18.293 26.5413 19.3043 25.8797 19.6863L20.9067 22.5574Z" fill="#FFEAFE"/>
<defs>
<linearGradient id="paint0_linear_7527_106189" x1="-4.84443" y1="15.4911" x2="18.1485" y2="6.09171" gradientUnits="userSpaceOnUse">
<stop stop-color="#4B2EFB"/>
<stop offset="1" stop-color="#E65FFC"/>
</linearGradient>
<linearGradient id="paint1_linear_7527_106189" x1="26.5066" y1="16.7998" x2="15.8816" y2="29.3433" gradientUnits="userSpaceOnUse">
<stop offset="0.165" stop-color="#EF84F1"/>
<stop offset="1" stop-color="#FACD97"/>
</linearGradient>
</defs>
</svg>
