<svg width="40" height="40" viewBox="0 0 40 40" fill="none" xmlns="http://www.w3.org/2000/svg">
<rect width="40" height="40" rx="8" fill="#F3EFFA"/>
<circle cx="19.792" cy="13.5" r="6.5" fill="url(#paint0_linear_8921_102314)"/>
<rect x="12.1941" y="11.8887" width="8.778" height="1.09725" rx="0.548625" fill="#2D2C61"/>
<rect x="23.167" y="11.8887" width="4.389" height="1.09725" rx="0.548625" fill="#2D2C61"/>
<path d="M10 28.5835C10 24.9475 12.9475 22 16.5835 22H23.4165C27.0525 22 30 24.9475 30 28.5835V30.8055C30 32.0175 29.0175 33 27.8055 33H12.1945C10.9825 33 10 32.0175 10 30.8055V28.5835Z" fill="#FAABFF"/>
<path d="M21 26.5556C21 25.6964 21.6964 25 22.5556 25H33.4444C34.3036 25 35 25.6964 35 26.5556V34.3333C35 35.1924 34.3036 35.8889 33.4444 35.8889H22.5556C21.6964 35.8889 21 35.1924 21 34.3333V26.5556Z" fill="url(#paint1_linear_8921_102314)"/>
<rect x="21" y="28.1113" width="14" height="0.777778" fill="#947DFF"/>
<path d="M28.7778 26.9446C28.7778 26.7298 28.9519 26.5557 29.1667 26.5557H33.0556C33.2704 26.5557 33.4445 26.7298 33.4445 26.9446C33.4445 27.1593 33.2704 27.3334 33.0556 27.3334H29.1667C28.9519 27.3334 28.7778 27.1593 28.7778 26.9446Z" fill="#7958FF"/>
<rect x="22.5557" y="26.5557" width="0.777778" height="0.777778" rx="0.388889" fill="#FFEAFE"/>
<path d="M28.7778 30.8332C28.7778 30.6184 28.9519 30.4443 29.1667 30.4443H33.0556C33.2704 30.4443 33.4445 30.6184 33.4445 30.8332C33.4445 31.048 33.2704 31.2221 33.0556 31.2221H29.1667C28.9519 31.2221 28.7778 31.048 28.7778 30.8332Z" fill="#7958FF"/>
<rect x="22.5557" y="30.4443" width="0.777778" height="0.777778" rx="0.388889" fill="#FFEAFE"/>
<rect x="24.1111" y="30.4443" width="0.777778" height="0.777778" rx="0.388889" fill="#FFEAFE"/>
<path d="M28.7781 34.7229C28.7781 34.5081 28.9522 34.334 29.167 34.334H33.0559C33.2706 34.334 33.4447 34.5081 33.4447 34.7229C33.4447 34.9377 33.2706 35.1118 33.0559 35.1118H29.167C28.9522 35.1118 28.7781 34.9377 28.7781 34.7229Z" fill="#7958FF"/>
<rect x="22.5559" y="34.334" width="0.777778" height="0.777778" rx="0.388889" fill="#FFEAFE"/>
<rect x="24.1116" y="34.334" width="0.777778" height="0.777778" rx="0.388889" fill="#FFEAFE"/>
<rect x="21" y="32" width="14" height="0.777778" fill="#947DFF"/>
<defs>
<linearGradient id="paint0_linear_8921_102314" x1="15.5264" y1="18.2396" x2="24.2607" y2="8.89583" gradientUnits="userSpaceOnUse">
<stop stop-color="#5D34F2"/>
<stop offset="1" stop-color="#FF88FA"/>
</linearGradient>
<linearGradient id="paint1_linear_8921_102314" x1="19.85" y1="31.2384" x2="33.7266" y2="24.6509" gradientUnits="userSpaceOnUse">
<stop stop-color="#492EF3"/>
<stop offset="1" stop-color="#CF69FF"/>
</linearGradient>
</defs>
</svg>
