<svg width="40" height="41" viewBox="0 0 40 41" fill="none"
  xmlns="http://www.w3.org/2000/svg">
  <rect y="0.5" width="40" height="40" rx="8" fill="#F7F8F8" fill-opacity="0.12"/>
  <path d="M17 6.5C17 5.39543 17.8954 4.5 19 4.5H33C34.1046 4.5 35 5.39543 35 6.5V16.5C35 17.6046 34.1046 18.5 33 18.5H19C17.8954 18.5 17 17.6046 17 16.5V6.5Z" fill="url(#paint0_linear_4270_17368)"/>
  <rect x="17" y="8.5" width="18" height="1" fill="#D361E7"/>
  <path d="M27 7C27 6.72386 27.2239 6.5 27.5 6.5H32.5C32.7761 6.5 33 6.72386 33 7C33 7.27614 32.7761 7.5 32.5 7.5H27.5C27.2239 7.5 27 7.27614 27 7Z" fill="#B545CA"/>
  <rect x="19" y="6.5" width="1" height="1" rx="0.5" fill="#F4E560"/>
  <path d="M27 12C27 11.7239 27.2239 11.5 27.5 11.5H32.5C32.7761 11.5 33 11.7239 33 12C33 12.2761 32.7761 12.5 32.5 12.5H27.5C27.2239 12.5 27 12.2761 27 12Z" fill="#B545CA"/>
  <rect x="19" y="11.5" width="1" height="1" rx="0.5" fill="#7958FF"/>
  <rect x="21" y="11.5" width="1" height="1" rx="0.5" fill="#F4E560"/>
  <path d="M27 17C27 16.7239 27.2239 16.5 27.5 16.5H32.5C32.7761 16.5 33 16.7239 33 17C33 17.2761 32.7761 17.5 32.5 17.5H27.5C27.2239 17.5 27 17.2761 27 17Z" fill="#B545CA"/>
  <rect x="19" y="16.5" width="1" height="1" rx="0.5" fill="#F4E560"/>
  <rect x="21" y="16.5" width="1" height="1" rx="0.5" fill="#F4E560"/>
  <rect x="17" y="13.5" width="18" height="1" fill="#D361E7"/>
  <path d="M5 24.5C5 23.3954 5.89543 22.5 7 22.5H21C22.1046 22.5 23 23.3954 23 24.5V34.5C23 35.6046 22.1046 36.5 21 36.5H7C5.89543 36.5 5 35.6046 5 34.5V24.5Z" fill="url(#paint1_linear_4270_17368)"/>
  <rect x="5" y="26.5" width="18" height="1" fill="#947DFF"/>
  <path d="M15 25C15 24.7239 15.2239 24.5 15.5 24.5H20.5C20.7761 24.5 21 24.7239 21 25C21 25.2761 20.7761 25.5 20.5 25.5H15.5C15.2239 25.5 15 25.2761 15 25Z" fill="#7958FF"/>
  <rect x="7" y="24.5" width="1" height="1" rx="0.5" fill="#FFEAFE"/>
  <path d="M15 30C15 29.7239 15.2239 29.5 15.5 29.5H20.5C20.7761 29.5 21 29.7239 21 30C21 30.2761 20.7761 30.5 20.5 30.5H15.5C15.2239 30.5 15 30.2761 15 30Z" fill="#7958FF"/>
  <rect x="7" y="29.5" width="1" height="1" rx="0.5" fill="#FFEAFE"/>
  <rect x="9" y="29.5" width="1" height="1" rx="0.5" fill="#FFEAFE"/>
  <path d="M15 35C15 34.7239 15.2239 34.5 15.5 34.5H20.5C20.7761 34.5 21 34.7239 21 35C21 35.2761 20.7761 35.5 20.5 35.5H15.5C15.2239 35.5 15 35.2761 15 35Z" fill="#7958FF"/>
  <rect x="7" y="34.5" width="1" height="1" rx="0.5" fill="#FFEAFE"/>
  <rect x="9" y="34.5" width="1" height="1" rx="0.5" fill="#FFEAFE"/>
  <rect x="5" y="31.5" width="18" height="1" fill="#947DFF"/>
  <path opacity="0.4" d="M20 27.5C24.4183 27.5 28 23.9183 28 19.5M12 20.5C12 16.0817 15.5817 12.5 20 12.5" stroke="#C9C5D0" stroke-width="2"/>
  <defs>
    <linearGradient id="paint0_linear_4270_17368" x1="12.5" y1="13.8333" x2="36.4143" y2="10.4792" gradientUnits="userSpaceOnUse">
      <stop stop-color="#E4A3FB"/>
      <stop offset="1" stop-color="#EC78FF"/>
    </linearGradient>
    <linearGradient id="paint1_linear_4270_17368" x1="3.52143" y1="30.5208" x2="21.3627" y2="22.0511" gradientUnits="userSpaceOnUse">
      <stop stop-color="#492EF3"/>
      <stop offset="1" stop-color="#CF69FF"/>
    </linearGradient>
  </defs>
</svg>
