<svg width="20" height="20" viewBox="0 0 20 20" fill="none" xmlns="http://www.w3.org/2000/svg">
<path d="M15.8337 3.3335H4.16699C3.50395 3.3335 2.86807 3.59689 2.39923 4.06573C1.93038 4.53457 1.66699 5.17045 1.66699 5.8335V14.1668C1.66699 14.8299 1.93038 15.4658 2.39923 15.9346C2.86807 16.4034 3.50395 16.6668 4.16699 16.6668H15.8337C16.4967 16.6668 17.1326 16.4034 17.6014 15.9346C18.0703 15.4658 18.3337 14.8299 18.3337 14.1668V5.8335C18.3337 5.17045 18.0703 4.53457 17.6014 4.06573C17.1326 3.59689 16.4967 3.3335 15.8337 3.3335ZM4.16699 5.00016H15.8337C16.0547 5.00016 16.2666 5.08796 16.4229 5.24424C16.5792 5.40052 16.667 5.61248 16.667 5.8335L10.0003 9.90016L3.33366 5.8335C3.33366 5.61248 3.42146 5.40052 3.57774 5.24424C3.73402 5.08796 3.94598 5.00016 4.16699 5.00016ZM16.667 14.1668C16.667 14.3878 16.5792 14.5998 16.4229 14.7561C16.2666 14.9124 16.0547 15.0002 15.8337 15.0002H4.16699C3.94598 15.0002 3.73402 14.9124 3.57774 14.7561C3.42146 14.5998 3.33366 14.3878 3.33366 14.1668V7.7335L9.56699 11.5418C9.69368 11.615 9.83738 11.6535 9.98366 11.6535C10.1299 11.6535 10.2736 11.615 10.4003 11.5418L16.667 7.7335V14.1668Z" fill="currentColor"/>
</svg>
