<svg width="40" height="41" viewBox="0 0 40 41" fill="none" xmlns="http://www.w3.org/2000/svg">
<rect y="0.5" width="40" height="40" rx="8" fill="#F7F8F8" fill-opacity="0.12"/>
<path fill-rule="evenodd" clip-rule="evenodd" d="M7.25 10.6541C7.25 10.0507 7.25 9.74902 7.367 9.5062C7.4701 9.29221 7.63592 9.11084 7.8447 8.9837C8.08161 8.83943 8.39658 8.7966 9.02653 8.71095L18.0107 7.48945C18.8262 7.37857 19.2339 7.32314 19.5508 7.44019C19.8289 7.54294 20.0611 7.73371 20.2078 7.98018C20.375 8.26094 20.375 8.65148 20.375 9.43257V26.3174C20.375 27.0985 20.375 27.4891 20.2078 27.7698C20.0611 28.0163 19.8289 28.2071 19.5508 28.3098C19.2339 28.4269 18.8262 28.3714 18.0107 28.2605L9.02653 27.039C8.39658 26.9534 8.08161 26.9106 7.8447 26.7663C7.63592 26.6392 7.4701 26.4578 7.367 26.2438C7.25 26.001 7.25 25.6993 7.25 25.0959V10.6541ZM16.875 16.3472C16.875 16.1634 16.875 16.0716 16.9059 15.999C16.933 15.935 16.9766 15.8816 17.031 15.8455C17.0928 15.8045 17.1746 15.7962 17.338 15.7796H17.338L18.0698 15.7051C18.2624 15.6855 18.3587 15.6757 18.433 15.7116C18.4983 15.7432 18.5523 15.7984 18.5863 15.8684C18.625 15.948 18.625 16.0562 18.625 16.2727V19.4773C18.625 19.6938 18.625 19.802 18.5863 19.8816C18.5523 19.9516 18.4983 20.0068 18.433 20.0384C18.3587 20.0743 18.2624 20.0645 18.0698 20.0449H18.0698L17.338 19.9704H17.338C17.1746 19.9538 17.0928 19.9455 17.031 19.9045C16.9766 19.8684 16.933 19.815 16.9059 19.751C16.875 19.6784 16.875 19.5866 16.875 19.4028V16.3472ZM22.8444 9.5625H21.6875V26.625H22.8444C23.5115 26.625 23.845 26.625 24.0997 26.4948C24.3238 26.3803 24.506 26.1976 24.6202 25.9729C24.75 25.7174 24.75 25.3829 24.75 24.714V11.4735C24.75 10.8046 24.75 10.4701 24.6202 10.2146C24.506 9.9899 24.3238 9.80719 24.0997 9.69268C23.845 9.5625 23.5115 9.5625 22.8444 9.5625Z" fill="url(#paint0_linear_8738_119575)"/>
<mask id="path-3-inside-1_8738_119575" fill="white">
<path fill-rule="evenodd" clip-rule="evenodd" d="M25.3189 19.5C25.0895 19.5 24.8895 19.6561 24.8339 19.8787L24.3928 21.6429L26 22.1786L27.6071 21.6429L27.1661 19.8787C27.1104 19.6561 26.9104 19.5 26.681 19.5H25.3189ZM25.319 34.5C25.0895 34.5 24.8895 34.3439 24.8339 34.1213L24.3929 32.3571L26 31.8214L27.6071 32.3571L27.1661 34.1213C27.1105 34.3439 26.9105 34.5 26.681 34.5H25.319Z"/>
</mask>
<path d="M24.8339 19.8787L102.445 39.2816V39.2816L24.8339 19.8787ZM24.3928 21.6429L-53.2186 2.24001L-71.1862 74.1106L-0.905394 97.5375L24.3928 21.6429ZM26 22.1786L0.70175 98.0732L26 106.506L51.2982 98.0732L26 22.1786ZM27.6071 21.6429L52.9053 97.5375L123.186 74.1106L105.219 2.24001L27.6071 21.6429ZM27.1661 19.8787L104.777 0.475883V0.475859L27.1661 19.8787ZM24.8339 34.1213L-52.7775 53.5241L-52.7775 53.5242L24.8339 34.1213ZM24.3929 32.3571L-0.905399 -43.5375L-71.1862 -20.1105L-53.2185 51.76L24.3929 32.3571ZM26 31.8214L51.2983 -44.0732L26 -52.506L0.701744 -44.0732L26 31.8214ZM27.6071 32.3571L105.219 51.76L123.186 -20.1105L52.9054 -43.5375L27.6071 32.3571ZM27.1661 34.1213L104.777 53.5242L104.778 53.5241L27.1661 34.1213ZM102.445 39.2816C93.5976 74.6724 61.7989 99.5 25.3189 99.5V-60.5C-11.6199 -60.5 -43.8186 -35.3601 -52.7775 0.475887L102.445 39.2816ZM102.004 41.0457L102.445 39.2816L-52.7775 0.475882L-53.2186 2.24001L102.004 41.0457ZM51.2982 -53.7161L49.691 -54.2518L-0.905394 97.5375L0.70175 98.0732L51.2982 -53.7161ZM2.30889 -54.2518L0.70175 -53.7161L51.2982 98.0732L52.9053 97.5375L2.30889 -54.2518ZM-50.4453 39.2816L-50.0043 41.0457L105.219 2.24001L104.777 0.475883L-50.4453 39.2816ZM26.681 99.5C-9.79903 99.5 -41.5976 74.6723 -50.4453 39.2816L104.777 0.475859C95.8185 -35.36 63.6199 -60.5 26.681 -60.5V99.5ZM25.3189 99.5H26.681V-60.5H25.3189V99.5ZM-52.7775 53.5242C-43.8185 89.3601 -11.6199 114.5 25.319 114.5V-45.5C61.7989 -45.5 93.5976 -20.6724 102.445 14.7184L-52.7775 53.5242ZM-53.2185 51.76L-52.7775 53.5241L102.445 14.7184L102.004 12.9543L-53.2185 51.76ZM0.701744 -44.0732L-0.905399 -43.5375L49.6911 108.252L51.2983 107.716L0.701744 -44.0732ZM52.9054 -43.5375L51.2983 -44.0732L0.701742 107.716L2.30888 108.252L52.9054 -43.5375ZM104.778 53.5241L105.219 51.76L-50.0043 12.9543L-50.4453 14.7184L104.778 53.5241ZM26.681 114.5C63.62 114.5 95.8185 89.36 104.777 53.5242L-50.4453 14.7183C-41.5976 -20.6723 -9.79901 -45.5 26.681 -45.5V114.5ZM25.319 114.5H26.681V-45.5H25.319V114.5Z" fill="#FAABFF" mask="url(#path-3-inside-1_8738_119575)"/>
<mask id="path-5-inside-2_8738_119575" fill="white">
<path fill-rule="evenodd" clip-rule="evenodd" d="M20.2149 22.1782C20.0527 22.3404 20.0217 22.5922 20.1397 22.789L21.0753 24.3482L22.7855 23.7856L23.3481 22.0754L21.7888 21.1398C21.5921 21.0218 21.3403 21.0528 21.178 21.215L20.2149 22.1782ZM30.8216 32.7846C30.6594 32.9468 30.4075 32.9778 30.2108 32.8598L28.6515 31.9242L29.2142 30.2141L30.9244 29.6514L31.8599 31.2107C31.978 31.4074 31.947 31.6592 31.7847 31.8215L30.8216 32.7846Z"/>
</mask>
<path d="M20.1397 22.789L88.7392 -18.3707L88.7391 -18.3707L20.1397 22.789ZM21.0753 24.3482L-47.5241 65.5079L-14.6397 120.315L46.0751 100.342L21.0753 24.3482ZM22.7855 23.7856L47.7853 99.7791L86.1564 87.1561L98.7792 48.7849L22.7855 23.7856ZM23.3481 22.0754L99.3418 47.0747L119.315 -13.6398L64.5078 -46.524L23.3481 22.0754ZM21.7888 21.1398L62.9485 -47.4596L62.9485 -47.4596L21.7888 21.1398ZM30.2108 32.8598L-10.9489 101.459L-10.9488 101.459L30.2108 32.8598ZM28.6515 31.9242L-47.3408 6.92092L-67.3181 67.6377L-12.5081 100.524L28.6515 31.9242ZM29.2142 30.2141L4.21141 -45.7784L-34.1548 -33.1553L-46.7781 5.21075L29.2142 30.2141ZM30.9244 29.6514L99.5238 -11.5083L66.638 -66.3179L5.92156 -46.3411L30.9244 29.6514ZM31.8599 31.2107L100.459 -9.94893L100.459 -9.949L31.8599 31.2107ZM88.7391 -18.3707C107.508 12.9106 102.579 52.9515 76.7835 78.7467L-36.3536 -34.3904C-62.4733 -8.2707 -67.4646 32.2738 -48.4597 63.9486L88.7391 -18.3707ZM89.6747 -16.8114L88.7392 -18.3707L-48.4597 63.9486L-47.5241 65.5079L89.6747 -16.8114ZM-2.21428 -52.2079L-3.92451 -51.6452L46.0751 100.342L47.7853 99.7791L-2.21428 -52.2079ZM-52.6455 -2.92391L-53.2081 -1.21369L98.7792 48.7849L99.3418 47.0747L-52.6455 -2.92391ZM-19.3708 89.7393L-17.8115 90.6748L64.5078 -46.524L62.9485 -47.4596L-19.3708 89.7393ZM77.7466 77.7836C51.9513 103.579 11.9105 108.508 -19.3708 89.7393L62.9485 -47.4596C31.2738 -66.4645 -9.27074 -61.4733 -35.3905 -35.3535L77.7466 77.7836ZM76.7835 78.7467L77.7466 77.7836L-35.3905 -35.3535L-36.3536 -34.3904L76.7835 78.7467ZM-10.9488 101.459C20.726 120.464 61.2704 115.473 87.3901 89.3531L-25.7469 -23.7839C0.0482988 -49.5792 40.0891 -54.5084 71.3704 -35.7397L-10.9488 101.459ZM-12.5081 100.524L-10.9489 101.459L71.3705 -35.7396L69.8112 -36.6752L-12.5081 100.524ZM-46.7781 5.21075L-47.3408 6.92092L104.644 56.9275L105.207 55.2174L-46.7781 5.21075ZM5.92156 -46.3411L4.21141 -45.7784L54.217 106.207L55.9272 105.644L5.92156 -46.3411ZM100.459 -9.949L99.5238 -11.5083L-37.6751 70.811L-36.7395 72.3703L100.459 -9.949ZM88.3533 88.39C114.473 62.2702 119.464 21.7258 100.459 -9.94893L-36.7395 72.3703C-55.5082 41.089 -50.5791 1.04821 -24.7838 -24.7471L88.3533 88.39ZM87.3901 89.3531L88.3533 88.39L-24.7838 -24.7471L-25.7469 -23.7839L87.3901 89.3531Z" fill="#FAABFF" mask="url(#path-5-inside-2_8738_119575)"/>
<mask id="path-7-inside-3_8738_119575" fill="white">
<path fill-rule="evenodd" clip-rule="evenodd" d="M31.7851 22.1782C31.9473 22.3404 31.9783 22.5922 31.8603 22.789L30.9247 24.3482L29.2145 23.7856L28.6519 22.0754L30.2112 21.1398C30.4079 21.0218 30.6597 21.0528 30.822 21.215L31.7851 22.1782ZM21.1784 32.7846C21.3406 32.9468 21.5925 32.9778 21.7892 32.8598L23.3485 31.9242L22.7859 30.214L21.0756 29.6514L20.1401 31.2107C20.022 31.4074 20.053 31.6592 20.2153 31.8215L21.1784 32.7846Z"/>
</mask>
<path d="M31.8603 22.789L-36.7392 -18.3707L-36.7391 -18.3707L31.8603 22.789ZM30.9247 24.3482L99.5241 65.5079L66.6393 120.316L5.92405 100.341L30.9247 24.3482ZM29.2145 23.7856L4.21388 99.7788L-34.1549 87.1561L-46.7782 48.7875L29.2145 23.7856ZM28.6519 22.0754L-47.3409 47.0773L-67.3167 -13.6387L-12.5078 -46.524L28.6519 22.0754ZM30.2112 21.1398L-10.9485 -47.4596L-10.9485 -47.4596L30.2112 21.1398ZM21.7892 32.8598L62.9489 101.459L62.9488 101.459L21.7892 32.8598ZM23.3485 31.9242L99.3417 6.92356L119.316 67.6389L64.5081 100.524L23.3485 31.9242ZM22.7859 30.214L47.7878 -45.7787L86.1563 -33.1554L98.7791 5.21338L22.7859 30.214ZM21.0756 29.6514L-47.5238 -11.5083L-14.6384 -66.3172L46.0776 -46.3414L21.0756 29.6514ZM20.1401 31.2107L-48.4594 -9.94893L-48.4594 -9.949L20.1401 31.2107ZM-36.7391 -18.3707C-55.508 12.9106 -50.5787 52.9515 -24.7835 78.7467L88.3536 -34.3904C114.473 -8.2707 119.465 32.2738 100.46 63.9486L-36.7391 -18.3707ZM-37.6747 -16.8114L-36.7392 -18.3707L100.46 63.9486L99.5241 65.5079L-37.6747 -16.8114ZM54.2152 -52.2076L55.9254 -51.645L5.92405 100.341L4.21388 99.7788L54.2152 -52.2076ZM104.645 -2.92653L105.207 -1.21631L-46.7782 48.7875L-47.3409 47.0773L104.645 -2.92653ZM71.3708 89.7393L69.8115 90.6748L-12.5078 -46.524L-10.9485 -47.4596L71.3708 89.7393ZM-25.7466 77.7836C0.048693 103.579 40.0895 108.508 71.3708 89.7393L-10.9485 -47.4596C20.7262 -66.4645 61.2707 -61.4733 87.3905 -35.3535L-25.7466 77.7836ZM-24.7835 78.7467L-25.7466 77.7836L87.3905 -35.3535L88.3536 -34.3904L-24.7835 78.7467ZM62.9488 101.459C31.274 120.464 -9.27044 115.473 -35.3901 89.3531L77.7469 -23.7839C51.9517 -49.5792 11.9109 -54.5084 -19.3704 -35.7397L62.9488 101.459ZM64.5081 100.524L62.9489 101.459L-19.3705 -35.7396L-17.8112 -36.6752L64.5081 100.524ZM98.7791 5.21338L99.3417 6.92356L-52.6447 56.9249L-53.2073 55.2147L98.7791 5.21338ZM46.0776 -46.3414L47.7878 -45.7787L-2.21606 106.207L-3.92628 105.644L46.0776 -46.3414ZM-48.4594 -9.949L-47.5238 -11.5083L89.6751 70.811L88.7395 72.3703L-48.4594 -9.949ZM-36.3533 88.39C-62.473 62.2702 -67.4642 21.7258 -48.4594 -9.94893L88.7395 72.3703C107.508 41.089 102.579 1.04821 76.7838 -24.7471L-36.3533 88.39ZM-35.3901 89.3531L-36.3533 88.39L76.7838 -24.7471L77.7469 -23.7839L-35.3901 89.3531Z" fill="#FAABFF" mask="url(#path-7-inside-3_8738_119575)"/>
<mask id="path-9-inside-4_8738_119575" fill="white">
<path fill-rule="evenodd" clip-rule="evenodd" d="M18.5 27.6803C18.5 27.9098 18.6561 28.1098 18.8787 28.1654L20.6429 28.6064L21.1786 26.9993L20.6429 25.3922L18.8787 25.8332C18.6561 25.8888 18.5 26.0888 18.5 26.3183V27.6803ZM33.5 27.6803C33.5 27.9098 33.3439 28.1098 33.1213 28.1654L31.3571 28.6064L30.8214 26.9993L31.3571 25.3922L33.1213 25.8332C33.3439 25.8888 33.5 26.0888 33.5 26.3183V27.6803Z"/>
</mask>
<path d="M18.8787 28.1654L38.2816 -49.446H38.2816L18.8787 28.1654ZM20.6429 28.6064L1.24001 106.218L73.1106 124.185L96.5375 53.9047L20.6429 28.6064ZM21.1786 26.9993L97.0732 52.2975L105.506 26.9993L97.0732 1.70109L21.1786 26.9993ZM20.6429 25.3922L96.5375 0.0939426L73.1106 -70.1869L1.24001 -52.2192L20.6429 25.3922ZM18.8787 25.8332L-0.524117 -51.7782H-0.524141L18.8787 25.8332ZM33.1213 28.1654L52.5241 105.777L52.5242 105.777L33.1213 28.1654ZM31.3571 28.6064L-44.5375 53.9047L-21.1105 124.185L50.76 106.218L31.3571 28.6064ZM30.8214 26.9993L-45.0732 1.70105L-53.506 26.9993L-45.0732 52.2976L30.8214 26.9993ZM31.3571 25.3922L50.76 -52.2192L-21.1105 -70.1869L-44.5375 0.0939026L31.3571 25.3922ZM33.1213 25.8332L52.5242 -51.7782L52.5241 -51.7782L33.1213 25.8332ZM38.2816 -49.446C73.6724 -40.5983 98.5 -8.79961 98.5 27.6803L-61.5 27.6803C-61.5 64.6192 -36.3601 96.8178 -0.524113 105.777L38.2816 -49.446ZM40.0457 -49.005L38.2816 -49.446L-0.524118 105.777L1.24001 106.218L40.0457 -49.005ZM-54.7161 1.70109L-55.2518 3.30823L96.5375 53.9047L97.0732 52.2975L-54.7161 1.70109ZM-55.2518 50.6904L-54.7161 52.2975L97.0732 1.70109L96.5375 0.0939426L-55.2518 50.6904ZM38.2816 103.445L40.0457 103.004L1.24001 -52.2192L-0.524117 -51.7782L38.2816 103.445ZM98.5 26.3183C98.5 62.7983 73.6723 94.5969 38.2816 103.445L-0.524141 -51.7782C-36.36 -42.8192 -61.5 -10.6206 -61.5 26.3183L98.5 26.3183ZM98.5 27.6803V26.3183L-61.5 26.3183V27.6803L98.5 27.6803ZM52.5242 105.777C88.3601 96.8178 113.5 64.6192 113.5 27.6803L-46.5 27.6803C-46.5 -8.79963 -21.6724 -40.5983 13.7184 -49.446L52.5242 105.777ZM50.76 106.218L52.5241 105.777L13.7184 -49.446L11.9543 -49.005L50.76 106.218ZM-45.0732 52.2976L-44.5375 53.9047L107.252 3.30819L106.716 1.70105L-45.0732 52.2976ZM-44.5375 0.0939026L-45.0732 1.70105L106.716 52.2976L107.252 50.6904L-44.5375 0.0939026ZM52.5241 -51.7782L50.76 -52.2192L11.9543 103.004L13.7184 103.445L52.5241 -51.7782ZM113.5 26.3183C113.5 -10.6207 88.36 -42.8192 52.5242 -51.7782L13.7183 103.445C-21.6723 94.5969 -46.5 62.7983 -46.5 26.3183L113.5 26.3183ZM113.5 27.6803V26.3183L-46.5 26.3183V27.6803L113.5 27.6803Z" fill="#FAABFF" mask="url(#path-9-inside-4_8738_119575)"/>
<path d="M31.8929 26.9993C31.8929 30.2538 29.2546 32.8922 26 32.8922C22.7455 32.8922 20.1072 30.2538 20.1072 26.9993C20.1072 23.7448 22.7455 21.1064 26 21.1064C29.2546 21.1064 31.8929 23.7448 31.8929 26.9993Z" fill="url(#paint1_linear_8738_119575)"/>
<circle cx="26" cy="26.999" r="3.75" fill="#3A3B59"/>
<rect x="23.5894" y="25.9287" width="0.535714" height="0.535714" fill="#F7F8F8"/>
<rect x="23.0535" y="25.9287" width="0.535714" height="0.535714" fill="#F7F8F8"/>
<rect x="23.0535" y="26.4639" width="0.535714" height="0.535714" fill="#F7F8F8"/>
<rect x="23.0535" y="27" width="0.535714" height="0.535714" fill="#F7F8F8"/>
<rect x="23.5894" y="27" width="0.535714" height="0.535714" fill="#F7F8F8"/>
<rect x="24.125" y="27" width="0.535714" height="0.535714" fill="#F7F8F8"/>
<rect x="23.0535" y="27.5361" width="0.535714" height="0.535714" fill="#F7F8F8"/>
<rect x="24.125" y="25.9287" width="0.535714" height="0.535714" fill="#F7F8F8"/>
<rect x="24.6606" y="25.9287" width="0.535714" height="0.535714" fill="#F7F8F8"/>
<rect x="25.7322" y="25.9287" width="0.535714" height="0.535714" fill="#F7F8F8"/>
<rect x="26.2678" y="25.9287" width="0.535714" height="0.535714" fill="#F7F8F8"/>
<rect x="26.8035" y="25.9287" width="0.535714" height="0.535714" fill="#F7F8F8"/>
<rect x="27.3394" y="25.9287" width="0.535714" height="0.535714" fill="#F7F8F8"/>
<rect x="27.3394" y="26.4639" width="0.535714" height="0.535714" fill="#F7F8F8"/>
<rect x="28.4106" y="26.4639" width="0.535714" height="0.535714" fill="#F7F8F8"/>
<rect x="28.4106" y="27" width="0.535714" height="0.535714" fill="#F7F8F8"/>
<rect x="28.4106" y="27.5361" width="0.535714" height="0.535714" fill="#F7F8F8"/>
<rect x="28.4106" y="25.9287" width="0.535714" height="0.535714" fill="#F7F8F8"/>
<rect x="27.3394" y="27" width="0.535714" height="0.535714" fill="#F7F8F8"/>
<rect x="26.8035" y="27" width="0.535714" height="0.535714" fill="#F7F8F8"/>
<rect x="26.2678" y="27" width="0.535714" height="0.535714" fill="#F7F8F8"/>
<rect x="25.7322" y="27.5361" width="0.535714" height="0.535714" fill="#F7F8F8"/>
<rect x="25.7322" y="27" width="0.535714" height="0.535714" fill="#F7F8F8"/>
<rect x="25.7322" y="26.4639" width="0.535714" height="0.535714" fill="#F7F8F8"/>
<rect x="24.6606" y="26.4639" width="0.535714" height="0.535714" fill="#F7F8F8"/>
<rect x="24.6606" y="27" width="0.535714" height="0.535714" fill="#F7F8F8"/>
<rect x="24.6606" y="27.5361" width="0.535714" height="0.535714" fill="#F7F8F8"/>
<defs>
<linearGradient id="paint0_linear_8738_119575" x1="1.83333" y1="21.8979" x2="23.3892" y2="13.086" gradientUnits="userSpaceOnUse">
<stop stop-color="#4B2EFB"/>
<stop offset="1" stop-color="#E65FFC"/>
</linearGradient>
<linearGradient id="paint1_linear_8738_119575" x1="19.1391" y1="27.8587" x2="32.7428" y2="21.1539" gradientUnits="userSpaceOnUse">
<stop stop-color="#492EF3"/>
<stop offset="1" stop-color="#CF69FF"/>
</linearGradient>
</defs>
</svg>
