<svg width="16" height="16" viewBox="0 0 16 16" fill="none" xmlns="http://www.w3.org/2000/svg">
<path fill-rule="evenodd" clip-rule="evenodd" d="M1.33325 2.49834C1.33325 2.03863 1.33325 1.80878 1.42239 1.62377C1.50095 1.46073 1.62729 1.32254 1.78636 1.22567C1.96686 1.11575 2.20684 1.08312 2.6868 1.01787L9.53187 0.0871994C10.1532 0.00272261 10.4639 -0.0395158 10.7053 0.0496673C10.9172 0.127956 11.0941 0.273307 11.2059 0.461088C11.3333 0.675001 11.3333 0.972559 11.3333 1.56767V14.4323C11.3333 15.0274 11.3333 15.325 11.2059 15.5389C11.0941 15.7267 10.9172 15.872 10.7053 15.9503C10.4639 16.0395 10.1532 15.9973 9.53189 15.9128L9.53187 15.9128L2.6868 14.9821C2.20684 14.9169 1.96686 14.8842 1.78636 14.7743C1.62729 14.6775 1.50095 14.5393 1.42239 14.3762C1.33325 14.1912 1.33325 13.9614 1.33325 13.5017V2.49834ZM8.66659 6.83595C8.66659 6.69596 8.66659 6.62596 8.69009 6.57064C8.7108 6.52191 8.74401 6.4812 8.78547 6.4537C8.83256 6.42248 8.89482 6.41615 9.01934 6.40347H9.01935L9.57692 6.34672C9.72364 6.33179 9.79699 6.32432 9.85363 6.35172C9.90339 6.37578 9.94451 6.41782 9.97042 6.47113C9.99992 6.5318 9.99992 6.61426 9.99992 6.7792V9.2208C9.99992 9.38574 9.99992 9.4682 9.97042 9.52888C9.94451 9.58218 9.90339 9.62422 9.85363 9.64828C9.79699 9.67568 9.72364 9.66821 9.57692 9.65328L9.01935 9.59653C8.89482 9.58385 8.83256 9.57752 8.78547 9.5463C8.74401 9.5188 8.7108 9.47809 8.69009 9.42936C8.66659 9.37404 8.66659 9.30404 8.66659 9.16405V6.83595ZM13.2147 1.66667H12.3333V14.6667H13.2147C13.7229 14.6667 13.977 14.6667 14.1711 14.5675C14.3419 14.4802 14.4807 14.341 14.5677 14.1698C14.6666 13.9751 14.6666 13.7203 14.6666 13.2107V3.12267C14.6666 2.61302 14.6666 2.3582 14.5677 2.16354C14.4807 1.99231 14.3419 1.8531 14.1711 1.76585C13.977 1.66667 13.7229 1.66667 13.2147 1.66667Z" fill="currentColor"/>
</svg>
