<svg width="194" height="147" viewBox="0 0 194 147" fill="none" xmlns="http://www.w3.org/2000/svg">
<path d="M191.797 137.5H0L15.4003 114.551C18.2263 110.339 22.9647 107.812 28.0364 107.812H28.5683C31.0861 107.812 33.5528 108.523 35.6844 109.863C41.5692 113.562 49.3067 112.136 53.4857 106.582L71.7811 82.2649C75.0376 77.9366 80.1392 75.3906 85.5558 75.3906C89.5884 75.3906 93.4934 76.8044 96.5914 79.3861L101.773 83.7037C108.417 89.241 117.854 89.9233 125.226 85.3994C128.399 83.4525 132.049 82.4219 135.771 82.4219H136.472C146.19 82.4219 154.825 88.6233 157.929 97.8326L161.891 109.587C163.422 114.129 167.681 117.188 172.474 117.188C176.244 117.188 179.759 119.089 181.822 122.244L191.797 137.5Z" fill="#D2CCDD"/>
<path d="M41.7969 134.375C41.7969 136.101 40.3978 137.5 38.6719 137.5H35.5469C33.821 137.5 32.4219 136.101 32.4219 134.375V128.125H41.7969V134.375ZM24.6094 120.312H18.3594C16.6335 120.312 15.2344 118.913 15.2344 117.188V114.062C15.2344 112.337 16.6335 110.938 18.3594 110.938H24.6094V120.312ZM55.8594 110.938C57.5853 110.938 58.9844 112.337 58.9844 114.062V117.188C58.9844 118.913 57.5853 120.312 55.8594 120.312H49.6094V110.938H55.8594ZM38.6719 93.75C40.3978 93.75 41.7969 95.1491 41.7969 96.875V103.125H32.4219V96.875C32.4219 95.1491 33.821 93.75 35.5469 93.75H38.6719Z" fill="#ADAAB4"/>
<path d="M53.683 125.568C54.903 126.788 54.9032 128.767 53.683 129.987L51.4733 132.197C50.253 133.417 48.2743 133.417 47.0539 132.197L42.6345 127.778L49.2636 121.149L53.683 125.568ZM31.5852 127.778L27.1658 132.198C25.9455 133.418 23.9668 133.418 22.7464 132.198L20.5367 129.988C19.3163 128.768 19.3163 126.789 20.5367 125.569L24.9561 121.149L31.5852 127.778ZM47.0532 99.0522C48.2736 97.8319 50.2523 97.8318 51.4726 99.0522L53.6823 101.262C54.9023 102.482 54.9025 104.461 53.6823 105.681L49.2629 110.101L42.6338 103.472L47.0532 99.0522ZM22.7471 99.0515C23.9675 97.8311 25.9461 97.8311 27.1665 99.0515L31.5859 103.471L24.9568 110.1L20.5374 105.681C19.317 104.46 19.317 102.482 20.5374 101.261L22.7471 99.0515Z" fill="#ADAAB4"/>
<path d="M37.1094 100C45.7389 100 52.7344 106.996 52.7344 115.625C52.7344 124.254 45.7389 131.25 37.1094 131.25C28.48 131.25 21.4844 124.254 21.4844 115.625C21.4844 106.996 28.48 100 37.1094 100ZM37.1094 109.375C33.6577 109.375 30.8594 112.173 30.8594 115.625C30.8594 119.077 33.6577 121.875 37.1094 121.875C40.5612 121.875 43.3594 119.077 43.3594 115.625C43.3594 112.173 40.5612 109.375 37.1094 109.375Z" fill="#5F5D67"/>
<path d="M82.4219 42.5781H169.922V75.7812C169.922 82.6848 164.325 88.2812 157.422 88.2812H94.9219C88.0183 88.2812 82.4219 82.6848 82.4219 75.7812V42.5781Z" fill="#F5EEFF"/>
<rect x="92.2031" y="49.3438" width="66" height="6" rx="1.5625" fill="#E1CEE8"/>
<rect x="92.2031" y="58.3438" width="66" height="6" rx="1.5625" fill="#E1CEE8"/>
<rect x="92.2031" y="68.3438" width="66" height="6" rx="1.5625" fill="#E1CEE8"/>
<path d="M94.9219 30.0781H157.422C164.11 30.0781 169.531 35.4997 169.531 42.1875V75.7812C169.531 82.4691 164.11 87.8906 157.422 87.8906H94.9219C88.2341 87.8906 82.8125 82.4691 82.8125 75.7812V42.1875C82.8125 35.4997 88.2341 30.0781 94.9219 30.0781Z" stroke="#C9C5D0" stroke-width="0.78125" stroke-linecap="round" stroke-linejoin="round"/>
<circle cx="91.7969" cy="35.9375" r="1.5625" fill="#D9D9D9"/>
<circle cx="98.0469" cy="35.9375" r="1.5625" fill="#D9D9D9"/>
<circle cx="104.297" cy="35.9375" r="1.5625" fill="#D9D9D9"/>
<path d="M137.977 1.58231L149.98 16.6711C150.217 16.9693 150.635 17.0528 150.968 16.8688L158.732 12.5876C159.268 12.2921 159.271 11.523 158.738 11.2227L144.677 3.30533C144.509 3.21094 144.627 2.95596 144.807 3.0226L162.923 9.71131C163.149 9.79487 163.401 9.76919 163.606 9.64175L168.545 6.56865C169.158 6.18737 168.97 5.25019 168.258 5.13423L138.714 0.324864C138.009 0.210105 137.533 1.02336 137.977 1.58231Z" fill="#AD93FF"/>
<path d="M163.672 18.124V12.3173C163.672 11.7101 163.009 11.335 162.489 11.6474L158.702 13.9196C158.256 14.1869 158.191 14.8063 158.571 15.1607L162.358 18.6952C162.857 19.1613 163.672 18.8072 163.672 18.124Z" fill="#795FF2"/>
<rect x="38.6719" y="58.5938" width="79.6875" height="79.6875" rx="12.5" fill="url(#paint0_linear_2405_4659)"/>
<path d="M49.6094 73.4375C39.0625 75.5208 15.9375 75.4688 7.8125 58.5938" stroke="#A782E8" stroke-width="0.78125" stroke-dasharray="3.12 3.12"/>
<path d="M170.941 106.256C169.811 110.42 165.868 112.975 165.502 112.875C165.136 112.776 163.025 108.579 164.155 104.415C165.284 100.251 169.227 97.6963 169.593 97.7955C169.959 97.8948 172.07 102.092 170.941 106.256Z" fill="#83DA85"/>
<path fill-rule="evenodd" clip-rule="evenodd" d="M171.547 107.357C175.777 106.512 179.82 108.902 179.897 109.275C179.948 109.532 178.615 111.412 176.386 112.826C176.386 112.206 176.015 111.62 175.405 111.376C174.604 111.055 173.694 111.444 173.374 112.245C173.116 112.888 173.317 113.6 173.82 114.022C173.529 114.112 173.23 114.191 172.924 114.252C168.693 115.097 164.651 112.707 164.574 112.334C164.5 111.963 167.316 108.202 171.547 107.357Z" fill="#9FE79F"/>
<path d="M167.969 18.3594C171.615 20.1823 178.672 25.7031 177.734 33.2031C176.562 42.5781 166.421 35.142 171.094 30.4688C175 26.5625 185.565 36.0602 176.659 48.554" stroke="#A782E8" stroke-width="0.78125" stroke-linecap="round" stroke-linejoin="round"/>
<rect x="63.2812" y="68.3594" width="30.4688" height="30.4688" rx="8.98438" stroke="#DFBEFF" stroke-width="0.78125"/>
<circle cx="78.5156" cy="78.125" r="4.6875" fill="#FFB95A"/>
<path d="M86.2456 92.1896C86.3393 93.0474 85.6289 93.75 84.7659 93.75C83.3406 93.75 81.0714 93.75 78.5156 93.75C75.9598 93.75 73.6907 93.75 72.2653 93.75C71.4024 93.75 70.692 93.0474 70.7857 92.1896C71.3375 87.1378 74.5881 84.375 78.5156 84.375C82.4431 84.375 85.6938 87.1378 86.2456 92.1896Z" fill="#6F45E6"/>
<rect x="55.0781" y="105.469" width="46.875" height="7.8125" rx="3.125" fill="#D8C7FF"/>
<rect x="55.0781" y="117.188" width="46.875" height="7.8125" rx="3.125" fill="#EFE9FF" stroke="#815AE3" stroke-width="0.78125"/>
<path d="M79.2969 108.594C79.7283 108.594 80.0781 108.944 80.0781 109.375C80.0781 109.806 79.7283 110.156 79.2969 110.156H62.1094C61.6779 110.156 61.3281 109.806 61.3281 109.375C61.3281 108.944 61.6779 108.594 62.1094 108.594H79.2969ZM88.6719 108.594C89.1033 108.594 89.4531 108.944 89.4531 109.375C89.4531 109.806 89.1033 110.156 88.6719 110.156H83.9844C83.5529 110.156 83.2031 109.806 83.2031 109.375C83.2031 108.944 83.5529 108.594 83.9844 108.594H88.6719ZM93.3594 108.594C93.7908 108.594 94.1406 108.944 94.1406 109.375C94.1406 109.806 93.7908 110.156 93.3594 110.156H91.7969C91.3654 110.156 91.0156 109.806 91.0156 109.375C91.0156 108.944 91.3654 108.594 91.7969 108.594H93.3594Z" fill="#9877EA"/>
<circle cx="62.8906" cy="121.094" r="1.5625" fill="#956AFF"/>
<circle cx="69.1406" cy="121.094" r="1.5625" fill="#956AFF"/>
<circle cx="75.3906" cy="121.094" r="1.5625" fill="#956AFF"/>
<circle cx="81.6406" cy="121.094" r="1.5625" fill="#956AFF"/>
<rect x="84.7656" y="118.75" width="0.78125" height="4.6875" rx="0.390625" fill="#FAABFF"/>
<g opacity="0.6" style="mix-blend-mode:multiply">
<path d="M66.7969 120.312L118.359 91.4062V138.281H66.7969V120.312Z" fill="url(#paint1_linear_2405_4659)"/>
</g>
<rect x="105.859" y="91.4062" width="46.875" height="46.875" rx="9.375" fill="url(#paint2_linear_2405_4659)"/>
<path d="M129.297 99.2188H131.641C133.798 99.2188 135.547 100.968 135.547 103.125C135.547 105.282 133.798 107.031 131.641 107.031H129.297V99.2188Z" fill="#FFDAD4"/>
<path d="M129.297 114.844H121.484V112.5C121.484 110.343 119.735 108.594 117.578 108.594C115.421 108.594 113.672 110.343 113.672 112.5V114.844H105.859V100.781C105.859 95.6036 110.057 91.4063 115.234 91.4062H129.297V114.844Z" fill="#FFDAD4"/>
<path d="M137.109 117.188C137.109 119.345 138.858 121.094 141.016 121.094C143.173 121.094 144.922 119.345 144.922 117.188V114.844H152.734V128.906C152.734 134.084 148.537 138.281 143.359 138.281H129.297V130.469H126.953C124.796 130.469 123.047 128.72 123.047 126.562C123.047 124.405 124.796 122.656 126.953 122.656H129.297V114.844H137.109V117.188Z" fill="#B990FE"/>
<path d="M173.828 138.281H177.344H180.078M164.844 138.281H122.586C122.296 138.281 122.132 137.948 122.309 137.718L132.976 123.873C136.927 118.745 144.363 117.962 149.295 122.155L150.433 123.122C153.64 125.848 158.271 126.101 161.756 123.74C165.387 121.28 170.239 121.668 173.433 124.674L187.136 137.571C187.407 137.826 187.227 138.281 186.855 138.281H183.594" stroke="#947DFF" stroke-width="0.78125" stroke-linecap="round" stroke-linejoin="round"/>
<path d="M189.649 75.8386C191.872 77.1647 192.6 80.0422 191.274 82.2656C189.948 84.489 187.07 85.2164 184.847 83.8903C182.623 82.5642 181.896 79.6867 183.222 77.4633C184.548 75.2399 187.426 74.5125 189.649 75.8386ZM188.448 77.8515C187.337 77.1885 185.898 77.5522 185.235 78.6639C184.572 79.7756 184.936 81.2143 186.047 81.8774C187.159 82.5404 188.598 82.1767 189.261 81.065C189.924 79.9533 189.56 78.5146 188.448 77.8515Z" fill="#F5EEFF"/>
<path fill-rule="evenodd" clip-rule="evenodd" d="M33.1553 45.3125C33.2001 45.3125 33.2371 45.3487 33.2373 45.3936V47.9746L35.4727 46.6846C35.5116 46.6622 35.5615 46.6759 35.584 46.7148L36.3174 47.9854C36.3396 48.0243 36.326 48.0742 36.2871 48.0967L34.0518 49.3867L36.2871 50.6777C36.3261 50.7002 36.3398 50.7501 36.3174 50.7891L35.584 52.0596C35.5615 52.0985 35.5116 52.1114 35.4727 52.0889L33.2373 50.7979V53.3799C33.2373 53.4249 33.2003 53.4619 33.1553 53.4619H31.6885C31.6436 53.4618 31.6074 53.4248 31.6074 53.3799V50.7979L29.3711 52.0889C29.3321 52.1113 29.2823 52.0985 29.2598 52.0596L28.5264 50.7891C28.504 50.7501 28.5177 50.7002 28.5566 50.6777L30.792 49.3867L28.5566 48.0967C28.5178 48.0743 28.5042 48.0243 28.5264 47.9854L29.2598 46.7148C29.2822 46.6759 29.3322 46.6622 29.3711 46.6846L31.6074 47.9756V45.3936C31.6077 45.3488 31.6437 45.3126 31.6885 45.3125H33.1553Z" fill="#E5E1EC"/>
<defs>
<linearGradient id="paint0_linear_2405_4659" x1="78.5156" y1="58.5937" x2="46.4844" y2="138.281" gradientUnits="userSpaceOnUse">
<stop stop-color="#C39EFF"/>
<stop offset="1" stop-color="#906FEF"/>
</linearGradient>
<linearGradient id="paint1_linear_2405_4659" x1="120.313" y1="102.344" x2="72.6562" y2="133.594" gradientUnits="userSpaceOnUse">
<stop stop-color="#9C79E0"/>
<stop offset="1" stop-color="#BE9BFF" stop-opacity="0"/>
</linearGradient>
<linearGradient id="paint2_linear_2405_4659" x1="145.703" y1="93.75" x2="108.594" y2="138.281" gradientUnits="userSpaceOnUse">
<stop stop-color="#FFBDE5"/>
<stop offset="1" stop-color="#FAA5FF"/>
</linearGradient>
</defs>
</svg>
