<svg width="16" height="16" viewBox="0 0 16 16" fill="none" xmlns="http://www.w3.org/2000/svg">
<path d="M8.20002 8.14671C8.55574 7.8388 8.84105 7.45796 9.0366 7.03006C9.23215 6.60215 9.33336 6.13718 9.33335 5.66671C9.33335 4.78265 8.98216 3.93481 8.35704 3.30968C7.73192 2.68456 6.88408 2.33337 6.00002 2.33337C5.11597 2.33337 4.26812 2.68456 3.643 3.30968C3.01788 3.93481 2.66669 4.78265 2.66669 5.66671C2.66668 6.13718 2.76789 6.60215 2.96344 7.03006C3.15899 7.45796 3.4443 7.8388 3.80002 8.14671C2.86678 8.5693 2.075 9.25173 1.51934 10.1124C0.963684 10.9731 0.667668 11.9756 0.666687 13C0.666687 13.1769 0.736925 13.3464 0.861949 13.4714C0.986973 13.5965 1.15654 13.6667 1.33335 13.6667C1.51016 13.6667 1.67973 13.5965 1.80476 13.4714C1.92978 13.3464 2.00002 13.1769 2.00002 13C2.00002 11.9392 2.42145 10.9218 3.17159 10.1716C3.92174 9.42147 4.93915 9.00004 6.00002 9.00004C7.06089 9.00004 8.0783 9.42147 8.82845 10.1716C9.57859 10.9218 10 11.9392 10 13C10 13.1769 10.0703 13.3464 10.1953 13.4714C10.3203 13.5965 10.4899 13.6667 10.6667 13.6667C10.8435 13.6667 11.0131 13.5965 11.1381 13.4714C11.2631 13.3464 11.3334 13.1769 11.3334 13C11.3324 11.9756 11.0364 10.9731 10.4807 10.1124C9.92504 9.25173 9.13326 8.5693 8.20002 8.14671ZM6.00002 7.66671C5.60446 7.66671 5.21778 7.54941 4.88888 7.32965C4.55998 7.10988 4.30364 6.79753 4.15226 6.43207C4.00089 6.06662 3.96128 5.66449 4.03845 5.27653C4.11562 4.88856 4.3061 4.5322 4.58581 4.25249C4.86551 3.97279 5.22188 3.78231 5.60984 3.70514C5.9978 3.62797 6.39994 3.66757 6.76539 3.81895C7.13084 3.97032 7.4432 4.22667 7.66296 4.55557C7.88272 4.88447 8.00002 5.27114 8.00002 5.66671C8.00002 6.19714 7.78931 6.70585 7.41423 7.08092C7.03916 7.45599 6.53045 7.66671 6.00002 7.66671ZM12.4934 7.88004C12.92 7.39959 13.1987 6.80608 13.2959 6.17093C13.3931 5.53579 13.3046 4.88609 13.0412 4.30004C12.7778 3.71399 12.3505 3.21657 11.811 2.86766C11.2715 2.51874 10.6426 2.3332 10 2.33337C9.82321 2.33337 9.65364 2.40361 9.52862 2.52864C9.40359 2.65366 9.33335 2.82323 9.33335 3.00004C9.33335 3.17685 9.40359 3.34642 9.52862 3.47145C9.65364 3.59647 9.82321 3.66671 10 3.66671C10.5305 3.66671 11.0392 3.87742 11.4142 4.25249C11.7893 4.62757 12 5.13627 12 5.66671C11.9991 6.01687 11.9062 6.36064 11.7307 6.66365C11.5552 6.96667 11.3033 7.21829 11 7.39337C10.9012 7.45039 10.8186 7.53182 10.7603 7.62987C10.7019 7.72792 10.6697 7.83931 10.6667 7.95337C10.6639 8.06655 10.69 8.17857 10.7425 8.27888C10.7949 8.37919 10.8721 8.46448 10.9667 8.52671L11.2267 8.70004L11.3134 8.74671C12.117 9.12785 12.7949 9.7307 13.2673 10.4843C13.7398 11.2378 13.9871 12.1107 13.98 13C13.98 13.1769 14.0503 13.3464 14.1753 13.4714C14.3003 13.5965 14.4699 13.6667 14.6467 13.6667C14.8235 13.6667 14.9931 13.5965 15.1181 13.4714C15.2431 13.3464 15.3134 13.1769 15.3134 13C15.3188 11.977 15.0626 10.9695 14.569 10.0734C14.0754 9.17729 13.3609 8.42225 12.4934 7.88004Z" fill="currentColor"/>
</svg>
