<svg width="21" height="20" viewBox="0 0 21 20" fill="none" xmlns="http://www.w3.org/2000/svg">
<path d="M14 1.66663H7.33337C6.67033 1.66663 6.03445 1.93002 5.56561 2.39886C5.09677 2.8677 4.83337 3.50358 4.83337 4.16663V15.8333C4.83337 16.4963 5.09677 17.1322 5.56561 17.6011C6.03445 18.0699 6.67033 18.3333 7.33337 18.3333H14C14.6631 18.3333 15.299 18.0699 15.7678 17.6011C16.2366 17.1322 16.5 16.4963 16.5 15.8333V4.16663C16.5 3.50358 16.2366 2.8677 15.7678 2.39886C15.299 1.93002 14.6631 1.66663 14 1.66663ZM14.8334 15.8333C14.8334 16.0543 14.7456 16.2663 14.5893 16.4225C14.433 16.5788 14.2211 16.6666 14 16.6666H7.33337C7.11236 16.6666 6.9004 16.5788 6.74412 16.4225C6.58784 16.2663 6.50004 16.0543 6.50004 15.8333V15H14.8334V15.8333ZM14.8334 13.3333H6.50004V4.16663C6.50004 3.94561 6.58784 3.73365 6.74412 3.57737C6.9004 3.42109 7.11236 3.33329 7.33337 3.33329H14C14.2211 3.33329 14.433 3.42109 14.5893 3.57737C14.7456 3.73365 14.8334 3.94561 14.8334 4.16663V13.3333Z" fill="currentColor"/>
</svg>
