<svg width="16" height="16" viewBox="0 0 16 16" fill="none" xmlns="http://www.w3.org/2000/svg">
<path d="M14.4268 8.66669C14.3305 8.58714 14.2139 8.53622 14.0901 8.51972C13.9664 8.50322 13.8405 8.5218 13.7268 8.57335C13.0218 8.89594 12.2553 9.06198 11.4801 9.06002C10.046 9.05829 8.67074 8.48965 7.65418 7.47809C6.63763 6.46653 6.06222 5.09409 6.05342 3.66002C6.05646 3.21057 6.1124 2.76305 6.22009 2.32669C6.24294 2.21038 6.23437 2.09008 6.19526 1.97819C6.15615 1.8663 6.08792 1.76685 5.99759 1.69011C5.90725 1.61336 5.7981 1.56208 5.68136 1.54156C5.56461 1.52104 5.44451 1.53201 5.33342 1.57335C4.28831 2.04329 3.3798 2.77119 2.69326 3.68867C2.00672 4.60616 1.56468 5.6831 1.40866 6.81834C1.25264 7.95358 1.38776 9.10985 1.80134 10.1785C2.21491 11.2472 2.89337 12.1932 3.77296 12.9277C4.65255 13.6621 5.70441 14.1609 6.82972 14.3772C7.95503 14.5935 9.11686 14.5202 10.2061 14.1642C11.2953 13.8081 12.2761 13.1811 13.0564 12.3419C13.8366 11.5027 14.3908 10.4789 14.6668 9.36669C14.7004 9.23935 14.6955 9.10491 14.6528 8.98033C14.6101 8.85575 14.5314 8.74661 14.4268 8.66669ZM8.09342 13.1267C6.9746 13.1188 5.88556 12.7653 4.97542 12.1145C4.06528 11.4638 3.37853 10.5476 3.00921 9.49144C2.63989 8.43529 2.60605 7.29081 2.91232 6.21469C3.21859 5.13857 3.84999 4.18342 4.72009 3.48002V3.66002C4.72186 5.45234 5.43463 7.17075 6.702 8.43811C7.96936 9.70548 9.68777 10.4183 11.4801 10.42C11.9507 10.4217 12.4201 10.3726 12.8801 10.2734C12.42 11.1437 11.7311 11.8719 10.8875 12.3794C10.044 12.887 9.07788 13.1546 8.09342 13.1534V13.1267Z" fill="currentColor"/>
</svg>
