<svg width="40" height="40" viewBox="0 0 40 40" fill="none" xmlns="http://www.w3.org/2000/svg">
  <rect width="40" height="40" rx="6" fill="currentColor" />
  <path fill-rule="evenodd" clip-rule="evenodd"
    d="M18.4 12.1V16.3H22.6V12.1H18.4ZM17.35 10C16.7701 10 16.3 10.4701 16.3 11.05V17.35C16.3 17.9299 16.7701 18.4 17.35 18.4H23.65C24.2299 18.4 24.7 17.9299 24.7 17.35V11.05C24.7 10.4701 24.2299 10 23.65 10H17.35ZM12.1 24.7V28.9H16.3V24.7H12.1ZM11.05 22.6C10.4701 22.6 10 23.0701 10 23.65V29.95C10 30.5299 10.4701 31 11.05 31H17.35C17.9299 31 18.4 30.5299 18.4 29.95V23.65C18.4 23.0701 17.9299 22.6 17.35 22.6L15.25 22.6V21.55H25.75V22.6L23.65 22.6C23.0701 22.6 22.6 23.0701 22.6 23.65V29.95C22.6 30.5299 23.0701 31 23.65 31H29.95C30.5299 31 31 30.5299 31 29.95V23.65C31 23.0701 30.5299 22.6 29.95 22.6L27.85 22.6V21.55C27.85 20.3902 26.9098 19.45 25.75 19.45H21.5501V18.4004H19.4501L19.4501 19.45H15.25C14.0902 19.45 13.15 20.3902 13.15 21.55V22.6L11.05 22.6ZM24.7 28.9V24.7H28.9V28.9H24.7Z"
    fill="url(#paint0_linear_550_31630)" />
  <defs>
    <linearGradient id="paint0_linear_550_31630" x1="13.6094" y1="28.1562" x2="27.7188" y2="13.0625"
      gradientUnits="userSpaceOnUse">
      <stop stop-color="#5D34F2" />
      <stop offset="1" stop-color="#FF88FA" />
    </linearGradient>
  </defs>
</svg>
  
