<svg width="20" height="20" viewBox="0 0 20 20" fill="none" xmlns="http://www.w3.org/2000/svg">
  <path fill-rule="evenodd" clip-rule="evenodd"
    d="M8.33341 3.33317V6.6665H11.6667V3.33317H8.33341ZM7.50008 1.6665C7.03984 1.6665 6.66675 2.0396 6.66675 2.49984V7.49984C6.66675 7.96007 7.03984 8.33317 7.50008 8.33317H9.16675V9.1665H5.83342C4.91294 9.1665 4.16675 9.9127 4.16675 10.8332V11.6665H2.50008C2.03984 11.6665 1.66675 12.0396 1.66675 12.4998V17.4998C1.66675 17.9601 2.03984 18.3332 2.50008 18.3332H7.50008C7.96032 18.3332 8.33341 17.9601 8.33341 17.4998V12.4998C8.33341 12.0396 7.96032 11.6665 7.50008 11.6665H5.83342V10.8332H14.1667V11.6665H12.5001C12.0398 11.6665 11.6667 12.0396 11.6667 12.4998V17.4998C11.6667 17.9601 12.0398 18.3332 12.5001 18.3332H17.5001C17.9603 18.3332 18.3334 17.9601 18.3334 17.4998V12.4998C18.3334 12.0396 17.9603 11.6665 17.5001 11.6665H15.8334V10.8332C15.8334 9.9127 15.0872 9.1665 14.1667 9.1665H10.8334V8.33317H12.5001C12.9603 8.33317 13.3334 7.96007 13.3334 7.49984V2.49984C13.3334 2.0396 12.9603 1.6665 12.5001 1.6665H7.50008ZM3.33341 13.3332V16.6665H6.66675V13.3332H3.33341ZM13.3334 16.6665V13.3332H16.6667V16.6665H13.3334Z"
    fill="currentColor"
  />
</svg>
  
