<svg width="48" height="48" viewBox="0 0 48 48" fill="none" xmlns="http://www.w3.org/2000/svg">
<path fill-rule="evenodd" clip-rule="evenodd" d="M20.8001 11.2V17.6H27.2001V11.2H20.8001ZM19.2001 8C18.3164 8 17.6001 8.71634 17.6001 9.6V19.2C17.6001 20.0837 18.3164 20.8 19.2001 20.8H28.8001C29.6837 20.8 30.4001 20.0837 30.4001 19.2V9.6C30.4001 8.71634 29.6837 8 28.8001 8H19.2001ZM11.2 30.3994V36.7994H17.6V30.3994H11.2ZM9.6 27.1994C8.71634 27.1994 8 27.9158 8 28.7994V38.3994C8 39.2831 8.71634 39.9994 9.6 39.9994H19.2C20.0837 39.9994 20.8 39.2831 20.8 38.3994V28.7994C20.8 27.9158 20.0837 27.1994 19.2 27.1994H15.9999V25.6003H31.9999V27.1994H28.8001C27.9165 27.1994 27.2001 27.9158 27.2001 28.7994V38.3994C27.2001 39.2831 27.9165 39.9994 28.8001 39.9994H38.4001C39.2838 39.9994 40.0001 39.2831 40.0001 38.3994V28.7994C40.0001 27.9158 39.2838 27.1994 38.4001 27.1994H35.1999V25.6003C35.1999 23.833 33.7672 22.4003 31.9999 22.4003H25.6001V20.8006H22.4001L22.4001 22.4003H15.9999C14.2325 22.4003 12.7999 23.833 12.7999 25.6003V27.1994H9.6ZM30.4002 36.7994V30.3994H36.8001V36.7994H30.4002Z" fill="url(#paint0_linear_9448_17722)"/>
<circle cx="7" cy="19" r="1.5" stroke="#FFD5FF"/>
<rect x="36.879" y="7" width="3" height="3" rx="0.5" transform="rotate(-45 36.879 7)" stroke="#E6DEFF"/>
<rect x="18.7071" y="44.8281" width="3" height="3" rx="0.5" transform="rotate(-45 18.7071 44.8281)" stroke="#E6DEFF"/>
<path opacity="0.6" d="M20.8 11.2002V17.6002H27.2V11.2002H20.8Z" fill="#FAABFF"/>
<path opacity="0.6" d="M11.2 30.3994V36.7994H17.6V30.3994H11.2Z" fill="#FAABFF"/>
<path opacity="0.6" d="M30.4001 30.3994V36.7994H36.8001V30.3994H30.4001Z" fill="#FAABFF"/>
<defs>
<linearGradient id="paint0_linear_9448_17722" x1="13.5" y1="35.6662" x2="34.9996" y2="12.6661" gradientUnits="userSpaceOnUse">
<stop stop-color="#5D34F2"/>
<stop offset="1" stop-color="#FF88FA"/>
</linearGradient>
</defs>
</svg>
