<svg width="48" height="48" viewBox="0 0 48 48" fill="none" xmlns="http://www.w3.org/2000/svg">
<g clip-path="url(#clip0_2320_3299)">
<path d="M24.6252 19.0827L14.6475 27.2643L8.93492 20.2976C8.02379 19.1865 8.91093 17.5284 10.3409 17.6698L24.6252 19.0827Z" fill="#5D34F2"/>
<path d="M28.9718 24.3836L18.994 32.5652L24.7066 39.5319C25.6177 40.643 27.4175 40.0979 27.5589 38.6679L28.9718 24.3836Z" fill="#5D34F2"/>
<path opacity="0.4" d="M12.1845 38.4099C9.55841 40.5633 5.57394 39.4101 5.44026 39.2471C5.30658 39.084 4.95628 34.9508 7.58239 32.7975C10.2085 30.6441 13.2264 29.9826 14.6385 31.7047C16.0505 33.4267 14.8107 36.2566 12.1845 38.4099Z" fill="#FFCC00"/>
<path d="M12.8774 35.756C11.5643 36.8327 9.28835 36.228 9.22151 36.1465C9.15467 36.065 9.00759 33.7147 10.3206 32.638C11.6337 31.5613 13.2705 31.3865 13.9765 32.2475C14.6825 33.1085 14.1904 34.6793 12.8774 35.756Z" fill="#FFA149" fill-opacity="0.84"/>
<path fill-rule="evenodd" clip-rule="evenodd" d="M21.9973 36.2272C22.2258 36.5059 22.6116 36.6002 22.9392 36.4501C26.1422 34.9832 29.5643 32.7625 32.9288 30.0037C42.2709 22.3433 43.952 8.62969 43.4803 8.05451C43.0087 7.47933 29.2315 6.44132 19.8894 14.1017C16.5249 16.8605 13.6768 19.7813 11.6108 22.6348C11.3995 22.9267 11.4164 23.3235 11.6449 23.6021L21.9973 36.2272Z" fill="url(#paint0_linear_2320_3299)"/>
<mask id="mask0_2320_3299" style="mask-type:alpha" maskUnits="userSpaceOnUse" x="11" y="7" width="33" height="30">
<path fill-rule="evenodd" clip-rule="evenodd" d="M21.9973 36.2272C22.2258 36.5059 22.6116 36.6002 22.9392 36.4501C26.1422 34.9832 29.5643 32.7625 32.9288 30.0037C42.2709 22.3433 43.952 8.62969 43.4803 8.05451C43.0087 7.47933 29.2315 6.44132 19.8894 14.1017C16.5249 16.8605 13.6768 19.7813 11.6108 22.6348C11.3995 22.9267 11.4164 23.3235 11.6449 23.6021L21.9973 36.2272Z" fill="white"/>
</mask>
<g mask="url(#mask0_2320_3299)">
<rect x="35.8101" y="-1.2998" width="24.3952" height="8.87097" transform="rotate(50.6488 35.8101 -1.2998)" fill="#947DFF"/>
<rect x="12.2695" y="18.0034" width="24.3952" height="8.87097" transform="rotate(50.6488 12.2695 18.0034)" fill="#7958FF"/>
<circle cx="28.893" cy="20.121" r="4.35" transform="rotate(50.6488 28.893 20.121)" fill="url(#paint1_linear_2320_3299)"/>
<circle cx="28.893" cy="20.121" r="3.6" transform="rotate(50.6488 28.893 20.121)" stroke="#B545CA" stroke-opacity="0.7" stroke-width="1.5"/>
</g>
<path d="M14.094 26.5889L19.5484 33.2407L19.1337 34.1049C18.8785 34.6369 18.1571 34.7237 17.783 34.2674L12.7413 28.1189C12.3672 27.6626 12.5936 26.9723 13.1653 26.8262L14.094 26.5889Z" fill="#34353F"/>
<circle cx="4" cy="25" r="1.5" stroke="#FFD5FF"/>
<rect x="17.879" y="7" width="3" height="3" rx="0.5" transform="rotate(-45 17.879 7)" stroke="#E6DEFF"/>
<rect x="33.7071" y="34.8281" width="3" height="3" rx="0.5" transform="rotate(-45 33.7071 34.8281)" stroke="#E6DEFF"/>
</g>
<defs>
<linearGradient id="paint0_linear_2320_3299" x1="43.4803" y1="8.05451" x2="16.8211" y2="29.9147" gradientUnits="userSpaceOnUse">
<stop stop-color="#FFF480"/>
<stop offset="1" stop-color="#F07EFF"/>
</linearGradient>
<linearGradient id="paint1_linear_2320_3299" x1="28.8929" y1="15.771" x2="26.4461" y2="24.1991" gradientUnits="userSpaceOnUse">
<stop stop-color="#FAD0A7"/>
<stop offset="1" stop-color="#F290EB"/>
</linearGradient>
<clipPath id="clip0_2320_3299">
<rect width="48" height="48" rx="8" fill="white"/>
</clipPath>
</defs>
</svg>
