<svg width="40" height="40" viewBox="0 0 40 40" fill="none" xmlns="http://www.w3.org/2000/svg">
<rect width="40" height="40" rx="8" fill="#F3EFFA"/>
<path fill-rule="evenodd" clip-rule="evenodd" d="M30.7059 9.90131C31.0085 9.90758 31.255 10.1523 31.255 10.4549V22.9302C31.255 27.4132 25.5194 32.5261 20.3161 33.9324C20.1444 33.9788 19.9656 33.9788 19.7939 33.9324C14.5906 32.5261 8.85498 27.4132 8.85498 22.9302V10.4549C8.85498 10.1523 9.10147 9.90758 9.40402 9.90131C14.9558 9.7863 18.1788 7.93967 19.5291 6.61515C19.8064 6.34313 20.3035 6.34313 20.5808 6.61514C21.9312 7.93967 25.1542 9.7863 30.7059 9.90131ZM22.3817 17.7052C22.3817 18.6191 21.8272 19.4031 21.037 19.7376L22.1889 22.7375C22.3301 23.1051 22.0587 23.5 21.6649 23.5H18.382C17.9667 23.5 17.6952 23.0645 17.8781 22.6916L19.3264 19.7376C18.5362 19.4031 17.9817 18.6191 17.9817 17.7052C17.9817 16.4873 18.9667 15.5 20.1817 15.5C21.3967 15.5 22.3817 16.4873 22.3817 17.7052Z" fill="url(#paint0_linear_10098_21288)"/>
<path fill-rule="evenodd" clip-rule="evenodd" d="M19.5291 6.61515C19.6678 6.47915 19.8613 6.41114 20.0549 6.41113V15.5036C18.8989 15.5694 17.9817 16.53 17.9817 17.7052C17.9817 18.6191 18.5362 19.4031 19.3264 19.7376L17.8781 22.6916C17.6952 23.0645 17.9667 23.5 18.382 23.5H20.0549V33.9672C19.9673 33.9672 19.8797 33.9556 19.7939 33.9324C14.5906 32.5261 8.85498 27.4132 8.85498 22.9302V10.4549C8.85498 10.1523 9.10147 9.90758 9.40402 9.90131C14.9558 9.7863 18.1788 7.93967 19.5291 6.61515Z" fill="url(#paint1_linear_10098_21288)"/>
<path fill-rule="evenodd" clip-rule="evenodd" d="M19.5291 6.61515C19.6678 6.47915 19.8613 6.41114 20.0549 6.41113V15.5036C18.8989 15.5694 17.9817 16.53 17.9817 17.7052C17.9817 18.6191 18.5362 19.4031 19.3264 19.7376L17.8781 22.6916C17.6952 23.0645 17.9667 23.5 18.382 23.5H20.0549V33.9672C19.9673 33.9672 19.8797 33.9556 19.7939 33.9324C14.5906 32.5261 8.85498 27.4132 8.85498 22.9302V10.4549C8.85498 10.1523 9.10147 9.90758 9.40402 9.90131C14.9558 9.7863 18.1788 7.93967 19.5291 6.61515Z" fill="#4300DA"/>
<rect x="4" y="24" width="3" height="3" rx="0.5" fill="url(#paint2_linear_10098_21288)"/>
<rect x="4" y="12" width="3" height="3" rx="0.5" fill="url(#paint3_linear_10098_21288)"/>
<path fill-rule="evenodd" clip-rule="evenodd" d="M12.229 21.3673C12.3535 21.2409 12.2639 21.027 12.0865 21.027L4.50936 21.0269C4.23155 21.0269 4.00635 20.8017 4.00635 20.5239L4.00635 18.4188C4.00635 18.141 4.23156 17.9158 4.50937 17.9158L12.0802 17.9159C12.2585 17.9159 12.3477 17.7002 12.2214 17.5743L10.497 15.8552C10.181 15.5401 10.4046 15.0003 10.8509 15.0011L12.7032 15.0042C12.9827 15.0047 13.2492 15.1221 13.4382 15.3281L16.8613 19.0576C17.1472 19.3691 17.1413 19.8493 16.8479 20.1537L13.4367 23.6929C13.2482 23.8884 12.9883 23.9989 12.7167 23.9989L10.8321 23.999C10.3885 23.999 10.1646 23.4643 10.4758 23.1482L12.229 21.3673Z" fill="#191C1D" fill-opacity="0.12"/>
<path fill-rule="evenodd" clip-rule="evenodd" d="M12.229 21.3673C12.3535 21.2409 12.2639 21.027 12.0865 21.027L4.50936 21.0269C4.23155 21.0269 4.00635 20.8017 4.00635 20.5239L4.00635 18.4188C4.00635 18.141 4.23156 17.9158 4.50937 17.9158L12.0802 17.9159C12.2585 17.9159 12.3477 17.7002 12.2214 17.5743L10.497 15.8552C10.181 15.5401 10.4046 15.0003 10.8509 15.0011L12.7032 15.0042C12.9827 15.0047 13.2492 15.1221 13.4382 15.3281L16.8613 19.0576C17.1472 19.3691 17.1413 19.8493 16.8479 20.1537L13.4367 23.6929C13.2482 23.8884 12.9883 23.9989 12.7167 23.9989L10.8321 23.999C10.3885 23.999 10.1646 23.4643 10.4758 23.1482L12.229 21.3673Z" fill="url(#paint4_linear_10098_21288)"/>
<path fill-rule="evenodd" clip-rule="evenodd" d="M12.229 21.3673C12.3535 21.2409 12.2639 21.027 12.0865 21.027L4.50936 21.0269C4.23155 21.0269 4.00635 20.8017 4.00635 20.5239L4.00635 18.4188C4.00635 18.141 4.23156 17.9158 4.50937 17.9158L12.0802 17.9159C12.2585 17.9159 12.3477 17.7002 12.2214 17.5743L10.497 15.8552C10.181 15.5401 10.4046 15.0003 10.8509 15.0011L12.7032 15.0042C12.9827 15.0047 13.2492 15.1221 13.4382 15.3281L16.8613 19.0576C17.1472 19.3691 17.1413 19.8493 16.8479 20.1537L13.4367 23.6929C13.2482 23.8884 12.9883 23.9989 12.7167 23.9989L10.8321 23.999C10.3885 23.999 10.1646 23.4643 10.4758 23.1482L12.229 21.3673Z" fill="url(#paint5_linear_10098_21288)"/>
<defs>
<linearGradient id="paint0_linear_10098_21288" x1="7.01498" y1="22.0417" x2="32.0378" y2="14.6503" gradientUnits="userSpaceOnUse">
<stop stop-color="#492EF3"/>
<stop offset="1" stop-color="#CF69FF"/>
</linearGradient>
<linearGradient id="paint1_linear_10098_21288" x1="7.93498" y1="22.1985" x2="21.2384" y2="20.202" gradientUnits="userSpaceOnUse">
<stop stop-color="#492EF3"/>
<stop offset="1" stop-color="#CF69FF"/>
</linearGradient>
<linearGradient id="paint2_linear_10098_21288" x1="10.724" y1="24.7014" x2="1.45582" y2="26.3359" gradientUnits="userSpaceOnUse">
<stop stop-color="#FFF06A"/>
<stop offset="1" stop-color="#EC78FF"/>
</linearGradient>
<linearGradient id="paint3_linear_10098_21288" x1="10.724" y1="12.7014" x2="1.45582" y2="14.3359" gradientUnits="userSpaceOnUse">
<stop stop-color="#FFF06A"/>
<stop offset="1" stop-color="#EC78FF"/>
</linearGradient>
<linearGradient id="paint4_linear_10098_21288" x1="-13.3667" y1="22.3616" x2="17.5959" y2="13.6301" gradientUnits="userSpaceOnUse">
<stop stop-color="#FFF06A"/>
<stop offset="1" stop-color="#EC78FF"/>
</linearGradient>
<linearGradient id="paint5_linear_10098_21288" x1="-1.89633" y1="23.0299" x2="26.2046" y2="13.1434" gradientUnits="userSpaceOnUse">
<stop stop-color="#EC78FF"/>
<stop offset="1" stop-color="#FFF06A"/>
</linearGradient>
</defs>
</svg>
