<svg width="40" height="40" viewBox="0 0 40 40" fill="none" xmlns="http://www.w3.org/2000/svg">
<rect width="40" height="40" rx="8" fill="#F7F8F8" fill-opacity="0.12"/>
<path fill-rule="evenodd" clip-rule="evenodd" d="M30.7059 9.90131C31.0085 9.90758 31.255 10.1523 31.255 10.4549V22.9302C31.255 27.4132 25.5194 32.5261 20.3161 33.9324C20.1444 33.9788 19.9656 33.9788 19.7939 33.9324C14.5906 32.5261 8.85498 27.4132 8.85498 22.9302V10.4549C8.85498 10.1523 9.10147 9.90758 9.40402 9.90131C14.9558 9.7863 18.1788 7.93967 19.5291 6.61515C19.8064 6.34313 20.3035 6.34313 20.5808 6.61514C21.9312 7.93967 25.1542 9.7863 30.7059 9.90131ZM22.3817 17.7052C22.3817 18.6191 21.8272 19.4031 21.037 19.7376L22.1889 22.7375C22.3301 23.1051 22.0587 23.5 21.6649 23.5H18.382C17.9667 23.5 17.6952 23.0645 17.8781 22.6916L19.3264 19.7376C18.5362 19.4031 17.9817 18.6191 17.9817 17.7052C17.9817 16.4873 18.9667 15.5 20.1817 15.5C21.3967 15.5 22.3817 16.4873 22.3817 17.7052Z" fill="url(#paint0_linear_10098_21308)"/>
<mask id="path-3-inside-1_10098_21308" fill="white">
<path fill-rule="evenodd" clip-rule="evenodd" d="M19.5291 6.61515C19.6678 6.47915 19.8613 6.41114 20.0549 6.41113V15.5036C18.8989 15.5694 17.9817 16.53 17.9817 17.7052C17.9817 18.6191 18.5362 19.4031 19.3264 19.7376L17.8781 22.6916C17.6952 23.0645 17.9667 23.5 18.382 23.5H20.0549V33.9672C19.9673 33.9672 19.8797 33.9556 19.7939 33.9324C14.5906 32.5261 8.85498 27.4132 8.85498 22.9302V10.4549C8.85498 10.1523 9.10147 9.90758 9.40402 9.90131C14.9558 9.7863 18.1788 7.93967 19.5291 6.61515Z"/>
</mask>
<path fill-rule="evenodd" clip-rule="evenodd" d="M19.5291 6.61515C19.6678 6.47915 19.8613 6.41114 20.0549 6.41113V15.5036C18.8989 15.5694 17.9817 16.53 17.9817 17.7052C17.9817 18.6191 18.5362 19.4031 19.3264 19.7376L17.8781 22.6916C17.6952 23.0645 17.9667 23.5 18.382 23.5H20.0549V33.9672C19.9673 33.9672 19.8797 33.9556 19.7939 33.9324C14.5906 32.5261 8.85498 27.4132 8.85498 22.9302V10.4549C8.85498 10.1523 9.10147 9.90758 9.40402 9.90131C14.9558 9.7863 18.1788 7.93967 19.5291 6.61515Z" fill="url(#paint1_linear_10098_21308)"/>
<path fill-rule="evenodd" clip-rule="evenodd" d="M19.5291 6.61515C19.6678 6.47915 19.8613 6.41114 20.0549 6.41113V15.5036C18.8989 15.5694 17.9817 16.53 17.9817 17.7052C17.9817 18.6191 18.5362 19.4031 19.3264 19.7376L17.8781 22.6916C17.6952 23.0645 17.9667 23.5 18.382 23.5H20.0549V33.9672C19.9673 33.9672 19.8797 33.9556 19.7939 33.9324C14.5906 32.5261 8.85498 27.4132 8.85498 22.9302V10.4549C8.85498 10.1523 9.10147 9.90758 9.40402 9.90131C14.9558 9.7863 18.1788 7.93967 19.5291 6.61515Z" fill="#4300DA"/>
<path d="M20.0549 6.41113H33.315V-6.84972L20.0541 -6.84891L20.0549 6.41113ZM19.5291 6.61515L28.8145 16.0815L28.8145 16.0815L19.5291 6.61515ZM20.0549 15.5036L20.8088 28.7422L33.315 28.0301V15.5036H20.0549ZM19.3264 19.7376L31.2324 25.5751L37.4022 12.991L24.4961 7.52687L19.3264 19.7376ZM17.8781 22.6916L29.784 28.529L29.7841 28.529L17.8781 22.6916ZM20.0549 23.5H33.315V10.24H20.0549V23.5ZM20.0549 33.9672L20.0544 47.2273L33.315 47.2279V33.9672H20.0549ZM19.7939 33.9324L23.2536 21.1317L23.2535 21.1317L19.7939 33.9324ZM9.40402 9.90131L9.12938 -3.35589H9.12938L9.40402 9.90131ZM20.0541 -6.84891C16.9088 -6.84872 13.2095 -5.76016 10.2438 -2.85116L28.8145 16.0815C26.1261 18.7185 22.8139 19.671 20.0557 19.6712L20.0541 -6.84891ZM33.315 15.5036V6.41113H6.79489V15.5036H33.315ZM19.3011 2.265C11.1389 2.72977 4.72165 9.4865 4.72165 17.7052H31.2417C31.2417 23.5734 26.6589 28.4091 20.8088 28.7422L19.3011 2.265ZM4.72165 17.7052C4.72165 24.1163 8.62235 29.6053 14.1566 31.9484L24.4961 7.52687C28.4501 9.20089 31.2417 13.1218 31.2417 17.7052H4.72165ZM7.42036 13.9002L5.97205 16.8541L29.7841 28.529L31.2324 25.5751L7.42036 13.9002ZM5.97205 16.8541C1.46958 26.0373 8.15456 36.76 18.382 36.76V10.24C27.7788 10.24 33.9208 20.0917 29.784 28.529L5.97205 16.8541ZM18.382 36.76H20.0549V10.24H18.382V36.76ZM33.315 33.9672V23.5H6.79489V33.9672H33.315ZM16.3342 46.7332C17.5424 47.0597 18.7929 47.2272 20.0544 47.2273L20.0555 20.7072C21.1417 20.7072 22.2171 20.8515 23.2536 21.1317L16.3342 46.7332ZM-4.40506 22.9302C-4.40506 30.4476 0.0177698 36.0848 3.15823 39.1199C6.64011 42.485 11.2987 45.3723 16.3343 46.7332L23.2535 21.1317C23.2665 21.1352 23.0247 21.0637 22.6154 20.8228C22.2189 20.5895 21.8548 20.3079 21.5882 20.0503C21.3006 19.7723 21.3185 19.71 21.466 19.9797C21.5968 20.2188 22.115 21.2481 22.115 22.9302H-4.40506ZM-4.40506 10.4549V22.9302H22.115V10.4549H-4.40506ZM9.12938 -3.35589C1.82644 -3.2046 -4.40506 2.72348 -4.40506 10.4549H22.115C22.115 17.5811 16.3765 23.0198 9.67866 23.1585L9.12938 -3.35589ZM10.2438 -2.85118C10.6661 -3.26546 10.9893 -3.48532 11.1382 -3.57823C11.302 -3.68044 11.3593 -3.69411 11.2829 -3.66475C11.1448 -3.61165 10.4791 -3.38385 9.12938 -3.35589L9.67865 23.1585C17.9921 22.9863 24.647 20.1693 28.8145 16.0815L10.2438 -2.85118Z" fill="#9C85FD" mask="url(#path-3-inside-1_10098_21308)"/>
<rect x="4" y="24" width="3" height="3" rx="0.5" fill="url(#paint2_linear_10098_21308)"/>
<rect x="4" y="12" width="3" height="3" rx="0.5" fill="url(#paint3_linear_10098_21308)"/>
<path fill-rule="evenodd" clip-rule="evenodd" d="M12.229 21.3673C12.3535 21.2409 12.2639 21.027 12.0865 21.027L4.50936 21.0269C4.23155 21.0269 4.00635 20.8017 4.00635 20.5239L4.00635 18.4188C4.00635 18.141 4.23156 17.9158 4.50937 17.9158L12.0802 17.9159C12.2585 17.9159 12.3477 17.7002 12.2214 17.5743L10.497 15.8552C10.181 15.5401 10.4046 15.0003 10.8509 15.0011L12.7032 15.0042C12.9827 15.0047 13.2492 15.1221 13.4382 15.3281L16.8613 19.0576C17.1472 19.3691 17.1413 19.8493 16.8479 20.1537L13.4367 23.6929C13.2482 23.8884 12.9883 23.9989 12.7167 23.9989L10.8321 23.999C10.3885 23.999 10.1646 23.4643 10.4758 23.1482L12.229 21.3673Z" fill="#F7F8F8" fill-opacity="0.14"/>
<path fill-rule="evenodd" clip-rule="evenodd" d="M12.229 21.3673C12.3535 21.2409 12.2639 21.027 12.0865 21.027L4.50936 21.0269C4.23155 21.0269 4.00635 20.8017 4.00635 20.5239L4.00635 18.4188C4.00635 18.141 4.23156 17.9158 4.50937 17.9158L12.0802 17.9159C12.2585 17.9159 12.3477 17.7002 12.2214 17.5743L10.497 15.8552C10.181 15.5401 10.4046 15.0003 10.8509 15.0011L12.7032 15.0042C12.9827 15.0047 13.2492 15.1221 13.4382 15.3281L16.8613 19.0576C17.1472 19.3691 17.1413 19.8493 16.8479 20.1537L13.4367 23.6929C13.2482 23.8884 12.9883 23.9989 12.7167 23.9989L10.8321 23.999C10.3885 23.999 10.1646 23.4643 10.4758 23.1482L12.229 21.3673Z" fill="url(#paint4_linear_10098_21308)"/>
<path fill-rule="evenodd" clip-rule="evenodd" d="M12.229 21.3673C12.3535 21.2409 12.2639 21.027 12.0865 21.027L4.50936 21.0269C4.23155 21.0269 4.00635 20.8017 4.00635 20.5239L4.00635 18.4188C4.00635 18.141 4.23156 17.9158 4.50937 17.9158L12.0802 17.9159C12.2585 17.9159 12.3477 17.7002 12.2214 17.5743L10.497 15.8552C10.181 15.5401 10.4046 15.0003 10.8509 15.0011L12.7032 15.0042C12.9827 15.0047 13.2492 15.1221 13.4382 15.3281L16.8613 19.0576C17.1472 19.3691 17.1413 19.8493 16.8479 20.1537L13.4367 23.6929C13.2482 23.8884 12.9883 23.9989 12.7167 23.9989L10.8321 23.999C10.3885 23.999 10.1646 23.4643 10.4758 23.1482L12.229 21.3673Z" fill="url(#paint5_linear_10098_21308)"/>
<defs>
<linearGradient id="paint0_linear_10098_21308" x1="7.01498" y1="22.0417" x2="32.0378" y2="14.6503" gradientUnits="userSpaceOnUse">
<stop stop-color="#492EF3"/>
<stop offset="1" stop-color="#CF69FF"/>
</linearGradient>
<linearGradient id="paint1_linear_10098_21308" x1="7.93498" y1="22.1985" x2="21.2384" y2="20.202" gradientUnits="userSpaceOnUse">
<stop stop-color="#492EF3"/>
<stop offset="1" stop-color="#CF69FF"/>
</linearGradient>
<linearGradient id="paint2_linear_10098_21308" x1="10.724" y1="24.7014" x2="1.45582" y2="26.3359" gradientUnits="userSpaceOnUse">
<stop stop-color="#FFF06A"/>
<stop offset="1" stop-color="#EC78FF"/>
</linearGradient>
<linearGradient id="paint3_linear_10098_21308" x1="10.724" y1="12.7014" x2="1.45582" y2="14.3359" gradientUnits="userSpaceOnUse">
<stop stop-color="#FFF06A"/>
<stop offset="1" stop-color="#EC78FF"/>
</linearGradient>
<linearGradient id="paint4_linear_10098_21308" x1="-13.3667" y1="22.3616" x2="17.5959" y2="13.6301" gradientUnits="userSpaceOnUse">
<stop stop-color="#FFF06A"/>
<stop offset="1" stop-color="#EC78FF"/>
</linearGradient>
<linearGradient id="paint5_linear_10098_21308" x1="-1.89633" y1="23.0299" x2="26.2046" y2="13.1434" gradientUnits="userSpaceOnUse">
<stop stop-color="#EC78FF"/>
<stop offset="1" stop-color="#FFF06A"/>
</linearGradient>
</defs>
</svg>
