<svg width="48" height="48" viewBox="0 0 48 48" fill="none" xmlns="http://www.w3.org/2000/svg">
<g clip-path="url(#clip0_6929_103505)">
<rect width="48" height="48" rx="8" fill="#F3EFFA"/>
<rect x="5" y="5" width="30.8" height="30.8" rx="8" fill="url(#paint0_linear_6929_103505)" fill-opacity="0.8"/>
<circle cx="20.4" cy="15.7811" r="4.62" fill="#F5EEFF"/>
<rect x="15.0098" y="14.2412" width="6.16" height="0.77" rx="0.385" fill="#2D2C61"/>
<rect x="22.71" y="14.2412" width="3.08" height="0.77" rx="0.385" fill="#2D2C61"/>
<path d="M13.47 26.5614C13.47 24.0099 15.5384 21.9414 18.09 21.9414H22.71C25.2615 21.9414 27.33 24.0099 27.33 26.5614V28.1014C27.33 28.9519 26.6405 29.6414 25.79 29.6414H15.01C14.1595 29.6414 13.47 28.9519 13.47 28.1014V26.5614Z" fill="#FAABFF"/>
<path opacity="0.7" fill-rule="evenodd" clip-rule="evenodd" d="M34.72 26.6344C34.72 26.2091 35.0647 25.8644 35.49 25.8644H37.03C37.4552 25.8644 37.8 26.2091 37.8 26.6344V28.1744H34.72V26.6344ZM34.7199 44.3445C34.7199 44.7697 35.0647 45.1145 35.4899 45.1145H37.0299C37.4552 45.1145 37.7999 44.7697 37.7999 44.3445V42.8045H34.7199V44.3445ZM27.4049 37.0303C26.9797 37.0303 26.6349 36.6855 26.6349 36.2603V34.7203C26.6349 34.295 26.9797 33.9503 27.4049 33.9503H28.9449V37.0303H27.4049ZM45.1149 37.0303C45.5402 37.0303 45.8849 36.6855 45.8849 36.2603V34.7203C45.8849 34.295 45.5402 33.9503 45.1149 33.9503H43.5749V37.0303H45.1149Z" fill="#7958FF"/>
<path opacity="0.7" fill-rule="evenodd" clip-rule="evenodd" d="M28.9096 30.3166C28.6089 30.0159 28.6089 29.5283 28.9096 29.2276L29.9985 28.1387C30.2992 27.838 30.7867 27.838 31.0875 28.1387L32.1764 29.2276L29.9985 31.4055L28.9096 30.3166ZM41.4323 42.8395C41.733 43.1402 42.2206 43.1402 42.5213 42.8395L43.6102 41.7506C43.9109 41.4499 43.9109 40.9624 43.6102 40.6617L42.5213 39.5727L40.3434 41.7506L41.4323 42.8395ZM31.0877 42.8401C30.787 43.1408 30.2995 43.1408 29.9988 42.8401L28.9098 41.7511C28.6091 41.4504 28.6091 40.9629 28.9098 40.6622L29.9987 39.5732L32.1766 41.7511L31.0877 42.8401ZM43.6104 30.317C43.9111 30.0163 43.9111 29.5288 43.6104 29.2281L42.5214 28.1391C42.2207 27.8384 41.7332 27.8384 41.4325 28.1391L40.3436 29.2281L42.5215 31.406L43.6104 30.317Z" fill="#7958FF"/>
<path fill-rule="evenodd" clip-rule="evenodd" d="M36.2598 43.191C40.5124 43.191 43.9598 39.7436 43.9598 35.491C43.9598 31.2384 40.5124 27.791 36.2598 27.791C32.0072 27.791 28.5598 31.2384 28.5598 35.491C28.5598 39.7436 32.0072 43.191 36.2598 43.191ZM36.2598 38.5712C37.9608 38.5712 39.3398 37.1923 39.3398 35.4912C39.3398 33.7902 37.9608 32.4112 36.2598 32.4112C34.5587 32.4112 33.1798 33.7902 33.1798 35.4912C33.1798 37.1923 34.5587 38.5712 36.2598 38.5712Z" fill="url(#paint1_linear_6929_103505)"/>
</g>
<defs>
<linearGradient id="paint0_linear_6929_103505" x1="32.5" y1="7" x2="4" y2="40.5" gradientUnits="userSpaceOnUse">
<stop stop-color="#5E35F3"/>
<stop offset="1" stop-color="#F5A7FF"/>
</linearGradient>
<linearGradient id="paint1_linear_6929_103505" x1="27.8112" y1="42.091" x2="42.7548" y2="30.0127" gradientUnits="userSpaceOnUse">
<stop stop-color="#FFF06A"/>
<stop offset="1" stop-color="#E54AFE"/>
</linearGradient>
<clipPath id="clip0_6929_103505">
<rect width="48" height="48" rx="8" fill="white"/>
</clipPath>
</defs>
</svg>
