<svg width="17" height="17" viewBox="0 0 17 17" fill="none" xmlns="http://www.w3.org/2000/svg">
<path d="M14.5 7.8335C14.1 7.8335 13.8333 8.10016 13.8333 8.50016C13.8333 10.4335 12.8333 12.1668 11.1667 13.1002C8.63334 14.5668 5.36668 13.7002 3.90001 11.1668C2.43334 8.6335 3.30001 5.36683 5.83334 3.90016C8.03334 2.6335 10.7 3.10016 12.3667 4.8335H10.7667C10.3667 4.8335 10.1 5.10016 10.1 5.50016C10.1 5.90016 10.3667 6.16683 10.7667 6.16683H13.7667C14.1667 6.16683 14.4333 5.90016 14.4333 5.50016V2.50016C14.4333 2.10016 14.1667 1.8335 13.7667 1.8335C13.3667 1.8335 13.1 2.10016 13.1 2.50016V3.70016C11.8333 2.50016 10.2333 1.8335 8.50001 1.8335C4.83334 1.8335 1.83334 4.8335 1.83334 8.50016C1.83334 12.1668 4.83334 15.1668 8.50001 15.1668C12.1667 15.1668 15.1667 12.1668 15.1667 8.50016C15.1667 8.10016 14.9 7.8335 14.5 7.8335Z" fill="currentColor"/>
</svg>
