<svg width="20" height="20" viewBox="0 0 20 20" fill="none" xmlns="http://www.w3.org/2000/svg">
<path d="M17.5585 14.0248L15.8335 12.2582C15.4624 11.9055 14.9944 11.6718 14.4895 11.5871C13.9846 11.5025 13.4659 11.5707 13.0002 11.7832L12.2502 11.0332C13.134 9.85226 13.5376 8.38039 13.3798 6.91386C13.222 5.44732 12.5145 4.09502 11.3997 3.12916C10.2849 2.16331 8.8456 1.65563 7.37154 1.70832C5.89748 1.76101 4.49811 2.37015 3.45513 3.41314C2.41215 4.45612 1.803 5.85549 1.75031 7.32955C1.69762 8.80361 2.2053 10.2429 3.17115 11.3577C4.13701 12.4725 5.48932 13.18 6.95585 13.3378C8.42239 13.4956 9.89425 13.092 11.0752 12.2082L11.8168 12.9498C11.5794 13.4162 11.4943 13.9453 11.5735 14.4626C11.6528 14.9799 11.8924 15.4593 12.2585 15.8332L14.0252 17.5998C14.4939 18.068 15.1293 18.331 15.7918 18.331C16.4543 18.331 17.0897 18.068 17.5585 17.5998C17.7966 17.367 17.9858 17.0889 18.115 16.782C18.2441 16.475 18.3107 16.1454 18.3107 15.8123C18.3107 15.4793 18.2441 15.1496 18.115 14.8427C17.9858 14.5357 17.7966 14.2577 17.5585 14.0248ZM10.4918 10.4915C9.90868 11.0732 9.16624 11.469 8.35827 11.6289C7.55031 11.7888 6.71307 11.7057 5.95232 11.39C5.19158 11.0743 4.54146 10.5403 4.08408 9.85528C3.62671 9.1703 3.3826 8.36514 3.3826 7.5415C3.3826 6.71786 3.62671 5.91269 4.08408 5.22771C4.54146 4.54274 5.19158 4.00868 5.95232 3.69301C6.71307 3.37733 7.55031 3.2942 8.35827 3.45412C9.16624 3.61404 9.90868 4.00983 10.4918 4.5915C10.8798 4.97854 11.1877 5.43834 11.3978 5.94455C11.6078 6.45076 11.7159 6.99343 11.7159 7.5415C11.7159 8.08956 11.6078 8.63223 11.3978 9.13844C11.1877 9.64465 10.8798 10.1044 10.4918 10.4915ZM16.3835 16.3832C16.306 16.4613 16.2139 16.5233 16.1123 16.5656C16.0108 16.6079 15.9018 16.6297 15.7918 16.6297C15.6818 16.6297 15.5729 16.6079 15.4713 16.5656C15.3698 16.5233 15.2776 16.4613 15.2002 16.3832L13.4335 14.6165C13.3554 14.539 13.2934 14.4469 13.2511 14.3453C13.2088 14.2438 13.187 14.1348 13.187 14.0248C13.187 13.9148 13.2088 13.8059 13.2511 13.7043C13.2934 13.6028 13.3554 13.5106 13.4335 13.4332C13.511 13.3551 13.6031 13.2931 13.7047 13.2508C13.8062 13.2084 13.9151 13.1867 14.0252 13.1867C14.1352 13.1867 14.2441 13.2084 14.3456 13.2508C14.4472 13.2931 14.5394 13.3551 14.6168 13.4332L16.3835 15.1998C16.4616 15.2773 16.5236 15.3695 16.5659 15.471C16.6082 15.5726 16.63 15.6815 16.63 15.7915C16.63 15.9015 16.6082 16.0104 16.5659 16.112C16.5236 16.2135 16.4616 16.3057 16.3835 16.3832Z" fill="#5D34F2"/>
</svg>
