<svg width="20" height="20" viewBox="0 0 20 20" fill="none" xmlns="http://www.w3.org/2000/svg">
<g clip-path="url(#clip0_198_7732)">
<path d="M12.4849 8.75492C12.4849 9.51865 11.8658 10.1378 11.1021 10.1378C10.3384 10.1378 9.71923 9.51865 9.71923 8.75492C9.71923 7.9912 10.3384 7.37207 11.1021 7.37207C11.8658 7.37207 12.4849 7.9912 12.4849 8.75492Z" fill="#5D34F2"/>
<path fill-rule="evenodd" clip-rule="evenodd" d="M18.25 1.16681C18.5 1.25015 18.75 1.50015 18.8334 1.75015C19.75 5.16681 18.5834 8.91681 15.8334 11.2501L14.8334 12.1668L15.4167 14.5001C15.6667 15.5835 15.1667 16.7501 14.25 17.2501L11 19.0835C10.8334 19.1668 10.75 19.1668 10.5834 19.1668C10.5 19.1668 10.3334 19.1668 10.25 19.0835C10 19.0001 9.83336 18.7501 9.75003 18.5001L9.25003 16.0001C8.58336 16.2501 7.9167 16.3335 7.1667 16.4168H7.08336C6.83336 16.4168 6.6667 16.3335 6.50003 16.1668L3.9167 13.5835C3.75003 13.4168 3.6667 13.1668 3.6667 12.9168C3.72225 12.6946 3.76855 12.4724 3.81485 12.2501C3.90744 11.8057 4.00003 11.3613 4.1667 10.9168L1.58336 10.3335C1.33336 10.2501 1.08336 10.0835 1.00003 9.83348C0.833364 9.58348 0.833364 9.33348 1.00003 9.08348L2.83336 5.83348C3.33336 4.83348 4.50003 4.33348 5.58336 4.75015L7.83336 5.25015L8.75003 4.16681C11.1667 1.33348 14.75 0.250146 18.25 1.16681ZM6.08336 7.33348L6.58336 6.66681L5.1667 6.33348C4.75003 6.25015 4.4167 6.33348 4.25003 6.66681L3.00003 8.91681L4.75003 9.33348C5.08336 8.66682 5.58337 8.00014 6.08336 7.33348ZM11.0834 17.0001L13.3334 15.7501C13.5834 15.6668 13.8334 15.2501 13.6667 14.8335L13.3334 13.4168L12.75 14.0001C12.1667 14.5001 11.5 15.0001 10.75 15.3335L11.0834 17.0001ZM5.3523 12.973L7.31086 14.7587C7.40697 14.8463 7.53848 14.885 7.66564 14.8576C8.70547 14.6342 10.6794 13.9267 14.3104 10.5682C14.8461 10.0727 15.3104 9.60113 15.709 9.14273L10.8514 4.28516C7.65008 6.80688 5.39415 11.0553 5.22639 12.6694C5.21427 12.786 5.2657 12.8941 5.3523 12.973ZM16.7172 7.79008C17.6547 6.26575 17.8801 4.77042 17.6229 2.86788C17.6018 2.71166 17.4889 2.58043 17.3369 2.53849C15.5542 2.04644 13.8261 2.44776 12.2601 3.33295L16.7172 7.79008Z" fill="currentColor"/>
</g>
<defs>
<clipPath id="clip0_198_7732">
<rect width="20" height="20" fill="white"/>
</clipPath>
</defs>
</svg>
