<svg width="20" height="20" viewBox="0 0 20 20" fill="none" xmlns="http://www.w3.org/2000/svg">
<path d="M16.3583 3.0416C16.2614 2.96328 16.1483 2.90766 16.0272 2.87882C15.906 2.84997 15.78 2.84865 15.6583 2.87493C14.7678 3.06155 13.8485 3.06393 12.9571 2.88192C12.0657 2.69991 11.221 2.33736 10.4749 1.8166C10.3354 1.71983 10.1697 1.66797 9.99992 1.66797C9.83015 1.66797 9.66442 1.71983 9.52492 1.8166C8.77889 2.33736 7.93415 2.69991 7.04273 2.88192C6.15131 3.06393 5.23206 3.06155 4.34159 2.87493C4.21987 2.84865 4.09381 2.84997 3.97267 2.87882C3.85154 2.90766 3.7384 2.96328 3.64159 3.0416C3.54491 3.12003 3.46702 3.21913 3.41367 3.33161C3.36031 3.44409 3.33283 3.5671 3.33326 3.6916V9.89993C3.33252 11.0947 3.61723 12.2724 4.1637 13.3349C4.71017 14.3974 5.50257 15.314 6.47492 16.0083L9.51659 18.1749C9.65773 18.2754 9.82667 18.3294 9.99992 18.3294C10.1732 18.3294 10.3421 18.2754 10.4833 18.1749L13.5249 16.0083C14.4973 15.314 15.2897 14.3974 15.8361 13.3349C16.3826 12.2724 16.6673 11.0947 16.6666 9.89993V3.6916C16.667 3.5671 16.6395 3.44409 16.5862 3.33161C16.5328 3.21913 16.4549 3.12003 16.3583 3.0416ZM14.9999 9.89993C15.0006 10.8289 14.7793 11.7446 14.3546 12.5708C13.9299 13.397 13.3141 14.1098 12.5583 14.6499L9.99992 16.4749L7.44159 14.6499C6.68579 14.1098 6.06991 13.397 5.64521 12.5708C5.22052 11.7446 4.99928 10.8289 4.99992 9.89993V4.64993C6.74695 4.79946 8.49662 4.39412 9.99992 3.4916C11.5032 4.39412 13.2529 4.79946 14.9999 4.64993V9.89993ZM11.2833 7.9916L9.04159 10.2416L8.29992 9.4916C8.143 9.33468 7.93017 9.24652 7.70826 9.24652C7.48634 9.24652 7.27351 9.33468 7.11659 9.4916C6.95967 9.64852 6.87151 9.86135 6.87151 10.0833C6.87151 10.3052 6.95967 10.518 7.11659 10.6749L8.44992 12.0083C8.52739 12.0864 8.61956 12.1484 8.72111 12.1907C8.82266 12.233 8.93158 12.2548 9.04159 12.2548C9.1516 12.2548 9.26052 12.233 9.36207 12.1907C9.46362 12.1484 9.55579 12.0864 9.63326 12.0083L12.4999 9.1666C12.6568 9.00968 12.745 8.79685 12.745 8.57493C12.745 8.35301 12.6568 8.14018 12.4999 7.98326C12.343 7.82634 12.1302 7.73819 11.9083 7.73819C11.6863 7.73819 11.4735 7.82634 11.3166 7.98326L11.2833 7.9916Z" fill="currentColor"/>
</svg>
