<svg width="20" height="20" viewBox="0 0 20 20" fill="none" xmlns="http://www.w3.org/2000/svg">
<path d="M9.99998 10.8333C9.74627 10.8303 9.49774 10.9052 9.28785 11.0477C9.07795 11.1903 8.91677 11.3937 8.82599 11.6306C8.73521 11.8676 8.7192 12.1266 8.7801 12.3729C8.84101 12.6192 8.97591 12.841 9.16665 13.0083V14.1666C9.16665 14.3876 9.25444 14.5996 9.41072 14.7559C9.567 14.9122 9.77897 15 9.99998 15C10.221 15 10.433 14.9122 10.5892 14.7559C10.7455 14.5996 10.8333 14.3876 10.8333 14.1666V13.0083C11.0241 12.841 11.159 12.6192 11.2199 12.3729C11.2808 12.1266 11.2647 11.8676 11.174 11.6306C11.0832 11.3937 10.922 11.1903 10.7121 11.0477C10.5022 10.9052 10.2537 10.8303 9.99998 10.8333ZM14.1666 7.49996V5.83329C14.1666 4.72822 13.7277 3.66842 12.9463 2.88701C12.1649 2.10561 11.105 1.66663 9.99998 1.66663C8.89491 1.66663 7.8351 2.10561 7.0537 2.88701C6.2723 3.66842 5.83331 4.72822 5.83331 5.83329V7.49996C5.17027 7.49996 4.53439 7.76335 4.06555 8.23219C3.59671 8.70103 3.33331 9.33692 3.33331 9.99996V15.8333C3.33331 16.4963 3.59671 17.1322 4.06555 17.6011C4.53439 18.0699 5.17027 18.3333 5.83331 18.3333H14.1666C14.8297 18.3333 15.4656 18.0699 15.9344 17.6011C16.4033 17.1322 16.6666 16.4963 16.6666 15.8333V9.99996C16.6666 9.33692 16.4033 8.70103 15.9344 8.23219C15.4656 7.76335 14.8297 7.49996 14.1666 7.49996ZM7.49998 5.83329C7.49998 5.17025 7.76337 4.53437 8.23221 4.06553C8.70105 3.59668 9.33694 3.33329 9.99998 3.33329C10.663 3.33329 11.2989 3.59668 11.7677 4.06553C12.2366 4.53437 12.5 5.17025 12.5 5.83329V7.49996H7.49998V5.83329ZM15 15.8333C15 16.0543 14.9122 16.2663 14.7559 16.4225C14.5996 16.5788 14.3877 16.6666 14.1666 16.6666H5.83331C5.6123 16.6666 5.40034 16.5788 5.24406 16.4225C5.08778 16.2663 4.99998 16.0543 4.99998 15.8333V9.99996C4.99998 9.77895 5.08778 9.56698 5.24406 9.4107C5.40034 9.25442 5.6123 9.16663 5.83331 9.16663H14.1666C14.3877 9.16663 14.5996 9.25442 14.7559 9.4107C14.9122 9.56698 15 9.77895 15 9.99996V15.8333Z" fill="currentColor"/>
</svg>
