<svg width="40" height="41" viewBox="0 0 40 41" fill="none"
  xmlns="http://www.w3.org/2000/svg">
  <rect y="0.5" width="40" height="40" rx="8" fill="#F7F8F8" fill-opacity="0.12"/>
  <path d="M28.5 12.5C28.5 14.6483 28.0635 16.5686 27.3812 17.9332C26.6839 19.3278 25.8132 20 25 20C24.1868 20 23.3161 19.3278 22.6188 17.9332C21.9365 16.5686 21.5 14.6483 21.5 12.5C21.5 10.3517 21.9365 8.43141 22.6188 7.06675C23.3161 5.67219 24.1868 5 25 5C25.8132 5 26.6839 5.67219 27.3812 7.06675C28.0635 8.43141 28.5 10.3517 28.5 12.5Z" stroke="#9D85FD" stroke-miterlimit="16" stroke-linecap="round"/>
  <path d="M26.7505 9.46868C28.611 10.5429 30.0557 11.881 30.8964 13.1542C31.7555 14.4553 31.9022 15.5456 31.4957 16.2498C31.0891 16.954 30.0716 17.372 28.5152 17.2786C26.9922 17.1872 25.111 16.605 23.2505 15.5309C21.3899 14.4567 19.9452 13.1186 19.1045 11.8453C18.2454 10.5442 18.0987 9.45398 18.5053 8.74977C18.9119 8.04555 19.9294 7.62753 21.4857 7.72095C23.0087 7.81237 24.8899 8.3945 26.7505 9.46868Z" stroke="#9D85FD" stroke-miterlimit="16" stroke-linecap="round"/>
  <path d="M23.2515 9.46868C21.391 10.5429 19.9462 11.881 19.1055 13.1542C18.2465 14.4553 18.0997 15.5456 18.5063 16.2498C18.9129 16.954 19.9304 17.372 21.4868 17.2786C23.0098 17.1872 24.891 16.605 26.7515 15.5309C28.612 14.4567 30.0568 13.1186 30.8974 11.8453C31.7565 10.5442 31.9033 9.45398 31.4967 8.74977C31.0901 8.04555 30.0726 7.62753 28.5162 7.72095C26.9932 7.81237 25.112 8.3945 23.2515 9.46868Z" stroke="#9C85FD" stroke-miterlimit="16" stroke-linecap="round"/>
  <circle cx="25" cy="12.5" r="1" fill="#FAABFF"/>
  <path d="M4.77782 18.2404L9.68386 16.605C9.88913 16.5366 10.1111 16.5366 10.3163 16.605L15.2224 18.2404C15.6746 18.3911 15.9575 18.8401 15.8984 19.3131L15.0733 25.9143C15.0281 26.2754 14.7903 26.5835 14.4524 26.7187L10.3715 28.3511C10.1331 28.4464 9.86711 28.4464 9.6287 28.3511L5.54781 26.7187C5.20987 26.5835 4.97207 26.2754 4.92692 25.9143L4.10177 19.3131C4.04265 18.8401 4.3256 18.3911 4.77782 18.2404Z" fill="url(#paint0_linear_4270_17366)"/>
  <path d="M11.5817 25.5H13L10.782 19.5H9.21355L7 25.5H8.36966L8.85567 24.0447H11.0957L11.5817 25.5ZM9.96024 20.6476H9.99116L10.8085 23.105H9.14286L9.96024 20.6476Z" fill="#F5EEFF"/>
  <path d="M18.4953 23.2704L26.5794 35.8457C26.7763 36.1519 27.2238 36.1519 27.4206 35.8457L35.5048 23.2704C35.7187 22.9376 35.4798 22.5 35.0842 22.5H29.2676C29.1004 22.5 28.9443 22.5836 28.8516 22.7226L27.416 24.876C27.2181 25.1728 26.7819 25.1728 26.584 24.876L25.1485 22.7226C25.0557 22.5836 24.8996 22.5 24.7324 22.5H18.9159C18.5203 22.5 18.2814 22.9376 18.4953 23.2704Z" fill="url(#paint1_linear_4270_17366)"/>
  <mask id="mask0_4270_17366" style="mask-type:alpha" maskUnits="userSpaceOnUse" x="18" y="22" width="18" height="15">
    <path opacity="0.7" d="M18.4952 23.2704L26.5794 35.8457C26.7762 36.1519 27.2238 36.1519 27.4206 35.8457L35.5048 23.2704C35.7187 22.9376 35.4797 22.5 35.0842 22.5H29.2676C29.1004 22.5 28.9443 22.5836 28.8516 22.7226L27 25.5L25.1484 22.7226C25.0557 22.5836 24.8996 22.5 24.7324 22.5H18.9158C18.5202 22.5 18.2813 22.9376 18.4952 23.2704Z" fill="#7958FF"/>
  </mask>
  <g mask="url(#mask0_4270_17366)">
    <path d="M22 22.5L26.576 29.8216C26.7718 30.1349 27.2282 30.1349 27.424 29.8216L32 22.5H22Z" fill="#4300DA"/>
  </g>
  <defs>
    <linearGradient id="paint0_linear_4270_17366" x1="1" y1="24.5" x2="16.9429" y2="21.625" gradientUnits="userSpaceOnUse">
      <stop stop-color="#FFF06A"/>
      <stop offset="1" stop-color="#EC78FF"/>
    </linearGradient>
    <linearGradient id="paint1_linear_4270_17366" x1="16.5214" y1="30.5208" x2="34.3627" y2="22.0511" gradientUnits="userSpaceOnUse">
      <stop stop-color="#492EF3"/>
      <stop offset="1" stop-color="#CF69FF"/>
    </linearGradient>
  </defs>
</svg>
