<svg width="20" height="20" viewBox="0 0 20 20" fill="none" xmlns="http://www.w3.org/2000/svg">
<path fill-rule="evenodd" clip-rule="evenodd" d="M12.8486 3.65902C13.9623 4.28182 14.841 5.25259 15.3502 6.42258C16.2099 6.6772 16.9644 7.20231 17.5019 7.91992C18.0394 8.63753 18.331 9.50936 18.3335 10.4059C18.3344 11.1365 18.1431 11.8544 17.7789 12.4878C17.4147 13.1211 16.8904 13.6475 16.2585 14.0143C16.0663 14.1248 15.838 14.1544 15.6239 14.0965C15.4098 14.0387 15.2274 13.8982 15.1169 13.7059C15.0064 13.5136 14.9768 13.2853 15.0346 13.0712C15.0924 12.8571 15.2329 12.6748 15.4252 12.5643C15.8628 12.3038 16.2105 11.9159 16.4216 11.4525C16.6328 10.9891 16.6973 10.4722 16.6067 9.97108C16.5161 9.46995 16.2746 9.00845 15.9145 8.64832C15.5545 8.28819 15.093 8.04662 14.5919 7.95592C14.4431 7.93043 14.3041 7.86503 14.1896 7.7667C14.0751 7.66836 13.9895 7.54078 13.9419 7.39758C13.6224 6.4652 12.9827 5.67626 12.1365 5.17093C11.2903 4.66559 10.2924 4.47658 9.32 4.63748C8.34762 4.79838 7.46376 5.29876 6.82544 6.04974C6.18712 6.80071 5.83567 7.75365 5.83355 8.73925C5.83355 8.96026 5.74575 9.17223 5.58947 9.32851C5.43319 9.48479 5.22123 9.57258 5.00021 9.57258C4.55818 9.57258 4.13426 9.74818 3.8217 10.0607C3.50914 10.3733 3.33355 10.7972 3.33355 11.2393C3.34377 11.5732 3.45411 11.8963 3.65026 12.1668C3.84641 12.4372 4.1193 12.6425 4.43355 12.7559C4.65456 12.7913 4.85247 12.913 4.98375 13.0943C5.11502 13.2756 5.16891 13.5016 5.13355 13.7226C5.09818 13.9436 4.97647 14.1415 4.79519 14.2728C4.6139 14.4041 4.38789 14.4579 4.16688 14.4226C4.07645 14.4216 3.98664 14.4075 3.90021 14.3809C3.22232 14.1426 2.63958 13.6916 2.23885 13.0952C1.83812 12.4987 1.64086 11.7888 1.67646 11.0711C1.71206 10.3534 1.97863 9.66644 2.43642 9.11258C2.89421 8.55872 3.51873 8.16763 4.21688 7.99758C4.38154 6.73226 4.95653 5.55583 5.85376 4.64856C6.75098 3.7413 7.92094 3.15324 9.18435 2.97451C10.4478 2.79578 11.7349 3.03623 12.8486 3.65902ZM14.3395 10.1615C14.665 9.83609 14.665 9.30845 14.3395 8.98301C14.0141 8.65757 13.4864 8.65757 13.161 8.98301L9.67912 12.4649C9.29066 12.2164 8.82892 12.0723 8.33354 12.0723C6.95282 12.0723 5.83354 13.1916 5.83354 14.5723C5.83354 15.953 6.95282 17.0723 8.33354 17.0723C9.71425 17.0723 10.8335 15.953 10.8335 14.5723C10.8335 14.2997 10.7899 14.0373 10.7093 13.7918L12.7086 11.7925L13.161 12.2449C13.4864 12.5704 14.0141 12.5704 14.3395 12.2449C14.665 11.9195 14.665 11.3918 14.3395 11.0664L13.8871 10.614L14.3395 10.1615ZM9.16687 14.5723C9.16687 15.0325 8.79377 15.4056 8.33354 15.4056C7.8733 15.4056 7.5002 15.0325 7.5002 14.5723C7.5002 14.112 7.8733 13.7389 8.33354 13.7389C8.79377 13.7389 9.16687 14.112 9.16687 14.5723Z" fill="currentColor"/>
</svg>
