<svg width="48" height="48" viewBox="0 0 48 48" fill="none" xmlns="http://www.w3.org/2000/svg">
<rect width="48" height="48" rx="8" fill="#F3EFFA"/>
<path d="M26 24L29 18M26 24H28.9415C30.2333 24 31.4456 23.3761 32.1965 22.325L34.8035 18.675C35.5544 17.6239 36.7667 17 38.0585 17H41M26 24V27M26 27H30.7352C32.1403 27 33.4423 27.7372 34.1652 28.942L34.8348 30.058C35.5577 31.2628 36.8597 32 38.2648 32H41M26 27V32" stroke="#CABEFF" stroke-width="2" stroke-linecap="round"/>
<path d="M24 24V9M24 24H20.2819C19.4482 24 18.6353 23.7395 17.9569 23.2549L13.0431 19.7451C12.3647 19.2605 11.5518 19 10.7181 19H10M24 24V38M16 27L11.95 29.43C11.3284 29.803 10.617 30 9.89206 30H7" stroke="#CABEFF" stroke-width="2" stroke-linecap="round"/>
<circle cx="24" cy="24" r="12" fill="url(#paint0_linear_1555_9204)"/>
<mask id="mask0_1555_9204" style="mask-type:alpha" maskUnits="userSpaceOnUse" x="12" y="12" width="24" height="24">
<circle cx="24" cy="24" r="12" fill="url(#paint1_linear_1555_9204)"/>
</mask>
<g mask="url(#mask0_1555_9204)">
<path d="M23.5078 16C23.1315 16 22.806 16.2623 22.7261 16.6301L22.4584 17.8613C22.396 18.1485 22.1795 18.3741 21.9046 18.4781C21.7934 18.5202 21.6837 18.5656 21.5758 18.6141C21.3075 18.7346 20.9946 18.7283 20.7472 18.5692L19.6912 17.8903C19.3746 17.6868 18.959 17.7315 18.6929 17.9976L17.9976 18.6929C17.7315 18.959 17.6868 19.3746 17.8903 19.6912L18.5692 20.7473C18.7283 20.9946 18.7346 21.3075 18.6141 21.5758C18.5656 21.6837 18.5202 21.7934 18.4781 21.9046C18.3741 22.1795 18.1484 22.396 17.8613 22.4584L16.6301 22.7261C16.2623 22.806 16 23.1315 16 23.5078V24.4922C16 24.8685 16.2623 25.194 16.6301 25.2739L17.8613 25.5416C18.1485 25.604 18.3741 25.8205 18.4781 26.0954C18.5202 26.2066 18.5656 26.3163 18.6141 26.4242C18.7346 26.6925 18.7283 27.0054 18.5692 27.2528L17.8903 28.3088C17.6868 28.6254 17.7315 29.041 17.9976 29.3071L18.6929 30.0024C18.959 30.2685 19.3746 30.3132 19.6912 30.1097L20.7473 29.4308C20.9946 29.2717 21.3075 29.2654 21.5758 29.3859C21.6837 29.4344 21.7934 29.4798 21.9046 29.5219C22.1795 29.6259 22.396 29.8516 22.4584 30.1387L22.7261 31.3699C22.806 31.7377 23.1315 32 23.5078 32H24.4922C24.8685 32 25.194 31.7377 25.2739 31.3699L25.5416 30.1387C25.604 29.8515 25.8205 29.6259 26.0954 29.5219C26.2066 29.4798 26.3163 29.4344 26.4242 29.3859C26.6925 29.2654 27.0054 29.2717 27.2528 29.4308L28.3088 30.1097C28.6254 30.3132 29.041 30.2685 29.3071 30.0024L30.0024 29.3071C30.2685 29.041 30.3132 28.6254 30.1097 28.3088L29.4308 27.2527C29.2717 27.0054 29.2654 26.6925 29.3859 26.4242C29.4344 26.3163 29.4798 26.2066 29.5219 26.0954C29.6259 25.8205 29.8516 25.604 30.1387 25.5416L31.3699 25.2739C31.7377 25.194 32 24.8685 32 24.4922V23.5078C32 23.1315 31.7377 22.806 31.3699 22.7261L30.1387 22.4584C29.8515 22.396 29.6259 22.1795 29.5219 21.9046C29.4798 21.7934 29.4344 21.6837 29.3859 21.5758C29.2654 21.3075 29.2717 20.9946 29.4308 20.7472L30.1097 19.6912C30.3132 19.3746 30.2685 18.959 30.0024 18.6929L29.3071 17.9976C29.041 17.7315 28.6254 17.6868 28.3088 17.8903L27.2527 18.5692C27.0054 18.7283 26.6925 18.7346 26.4242 18.6141C26.3163 18.5656 26.2066 18.5202 26.0954 18.4781C25.8205 18.3741 25.604 18.1484 25.5416 17.8613L25.2739 16.6301C25.194 16.2623 24.8685 16 24.4922 16H23.5078ZM24 20.5714C25.8936 20.5714 27.4286 22.1065 27.4286 24C27.4286 25.8936 25.8936 27.4286 24 27.4286C22.1064 27.4286 20.5714 25.8936 20.5714 24C20.5714 22.1065 22.1064 20.5714 24 20.5714Z" fill="#F5EEFF"/>
</g>
<circle cx="42" cy="17" r="2" fill="#FAABFF"/>
<circle cx="7" cy="19" r="3" fill="#83DA85"/>
<circle cx="24" cy="7" r="3" fill="#AF9EFF"/>
<circle cx="41" cy="32" r="3" fill="#947DFF"/>
<circle cx="7" cy="30" r="3" fill="#AF9EFF"/>
<circle cx="24" cy="41" r="3" fill="#FAABFF"/>
<defs>
<linearGradient id="paint0_linear_1555_9204" x1="16.125" y1="32.75" x2="32.25" y2="15.5" gradientUnits="userSpaceOnUse">
<stop stop-color="#5D34F2"/>
<stop offset="1" stop-color="#FAABFF"/>
</linearGradient>
<linearGradient id="paint1_linear_1555_9204" x1="16.125" y1="32.75" x2="32.25" y2="15.5" gradientUnits="userSpaceOnUse">
<stop stop-color="#5D34F2"/>
<stop offset="1" stop-color="#FAABFF"/>
</linearGradient>
</defs>
</svg>
