<svg width="20" height="20" viewBox="0 0 20 20" fill="none" xmlns="http://www.w3.org/2000/svg">
<path d="M8.28083 12.9167C8.20644 12.6283 8.05612 12.3651 7.84552 12.1545C7.63491 11.9439 7.37173 11.7936 7.08333 11.7192L1.97083 10.4009C1.88361 10.3761 1.80684 10.3236 1.75218 10.2512C1.69751 10.1789 1.66794 10.0907 1.66794 10C1.66794 9.90937 1.69751 9.82118 1.75218 9.74884C1.80684 9.6765 1.88361 9.62397 1.97083 9.59921L7.08333 8.28004C7.37162 8.20572 7.63474 8.05552 7.84534 7.84508C8.05593 7.63463 8.20631 7.37162 8.28083 7.08338L9.59917 1.97088C9.62367 1.88331 9.67615 1.80616 9.7486 1.75121C9.82105 1.69625 9.90948 1.6665 10.0004 1.6665C10.0913 1.6665 10.1798 1.69625 10.2522 1.75121C10.3247 1.80616 10.3772 1.88331 10.4017 1.97088L11.7192 7.08338C11.7936 7.37177 11.9439 7.63496 12.1545 7.84556C12.3651 8.05616 12.6283 8.20648 12.9167 8.28088L18.0292 9.59838C18.1171 9.62263 18.1946 9.67505 18.2499 9.74761C18.3051 9.82016 18.335 9.90884 18.335 10C18.335 10.0912 18.3051 10.1799 18.2499 10.2525C18.1946 10.325 18.1171 10.3775 18.0292 10.4017L12.9167 11.7192C12.6283 11.7936 12.3651 11.9439 12.1545 12.1545C11.9439 12.3651 11.7936 12.6283 11.7192 12.9167L10.4008 18.0292C10.3763 18.1168 10.3238 18.1939 10.2514 18.2489C10.179 18.3038 10.0905 18.3336 9.99958 18.3336C9.90865 18.3336 9.82022 18.3038 9.74777 18.2489C9.67532 18.1939 9.62284 18.1168 9.59833 18.0292L8.28083 12.9167Z" stroke="white" stroke-width="1.66667" stroke-linecap="round" stroke-linejoin="round"/>
<path d="M16.6667 2.5V5.83333" stroke="white" stroke-width="1.66667" stroke-linecap="round" stroke-linejoin="round"/>
<path d="M18.3333 4.16675H15" stroke="white" stroke-width="1.66667" stroke-linecap="round" stroke-linejoin="round"/>
<path d="M3.33334 14.1667V15.8334" stroke="white" stroke-width="1.66667" stroke-linecap="round" stroke-linejoin="round"/>
<path d="M4.16667 15H2.5" stroke="white" stroke-width="1.66667" stroke-linecap="round" stroke-linejoin="round"/>
</svg>
