<svg width="16" height="17" viewBox="0 0 16 17" fill="none"
  xmlns="http://www.w3.org/2000/svg">
  <path d="M12.3599 6.72788L5.9199 3.03455C5.57142 2.83332 5.1759 2.72791 4.77349 2.72901C4.37109 2.73012 3.97615 2.8377 3.62878 3.04084C3.28142 3.24398 2.994 3.53543 2.79573 3.8856C2.59746 4.23577 2.49539 4.63217 2.4999 5.03455V12.4479C2.4999 13.0526 2.74011 13.6325 3.1677 14.0601C3.59528 14.4877 4.17521 14.7279 4.7799 14.7279C5.18019 14.7272 5.57329 14.6215 5.9199 14.4212L12.3599 10.7279C12.7059 10.5276 12.9932 10.2399 13.193 9.89351C13.3927 9.54715 13.4978 9.15436 13.4978 8.75455C13.4978 8.35473 13.3927 7.96195 13.193 7.61559C12.9932 7.26924 12.7059 6.98149 12.3599 6.78122V6.72788ZM11.6932 9.52121L5.25323 13.2679C5.10889 13.3497 4.94581 13.3927 4.7799 13.3927C4.61399 13.3927 4.45091 13.3497 4.30657 13.2679C4.16263 13.1848 4.04311 13.0653 3.96002 12.9213C3.87693 12.7774 3.8332 12.6141 3.83323 12.4479V5.00788C3.8332 4.84168 3.87693 4.6784 3.96002 4.53446C4.04311 4.39051 4.16263 4.27098 4.30657 4.18788C4.4515 4.10732 4.6141 4.06381 4.7799 4.06122C4.94559 4.06462 5.10799 4.10808 5.25323 4.18788L11.6932 7.90788C11.8372 7.99095 11.9568 8.11046 12.0399 8.25441C12.1231 8.39835 12.1668 8.56165 12.1668 8.72788C12.1668 8.89411 12.1231 9.05741 12.0399 9.20136C11.9568 9.3453 11.8372 9.46482 11.6932 9.54788V9.52121Z" fill="currentcolor"/>
</svg>
