<svg width="16" height="16" viewBox="0 0 16 16" fill="none" xmlns="http://www.w3.org/2000/svg">
<path d="M3.33325 7.99998C3.33325 7.82317 3.26301 7.6536 3.13799 7.52858C3.01297 7.40355 2.8434 7.33331 2.66659 7.33331H1.99992C1.82311 7.33331 1.65354 7.40355 1.52851 7.52858C1.40349 7.6536 1.33325 7.82317 1.33325 7.99998C1.33325 8.17679 1.40349 8.34636 1.52851 8.47138C1.65354 8.59641 1.82311 8.66665 1.99992 8.66665H2.66659C2.8434 8.66665 3.01297 8.59641 3.13799 8.47138C3.26301 8.34636 3.33325 8.17679 3.33325 7.99998ZM3.75992 11.3333L3.28659 11.8066C3.16242 11.9316 3.09272 12.1005 3.09272 12.2766C3.09272 12.4528 3.16242 12.6217 3.28659 12.7466C3.41149 12.8708 3.58046 12.9405 3.75659 12.9405C3.93271 12.9405 4.10168 12.8708 4.22659 12.7466L4.69992 12.2733C4.80914 12.1458 4.86621 11.9817 4.85973 11.8139C4.85325 11.6462 4.78369 11.487 4.66496 11.3683C4.54623 11.2495 4.38707 11.18 4.21929 11.1735C4.0515 11.167 3.88745 11.2241 3.75992 11.3333ZM7.99992 3.33331C8.17673 3.33331 8.3463 3.26307 8.47132 3.13805C8.59635 3.01303 8.66659 2.84346 8.66659 2.66665V1.99998C8.66659 1.82317 8.59635 1.6536 8.47132 1.52858C8.3463 1.40355 8.17673 1.33331 7.99992 1.33331C7.82311 1.33331 7.65354 1.40355 7.52851 1.52858C7.40349 1.6536 7.33325 1.82317 7.33325 1.99998V2.66665C7.33325 2.84346 7.40349 3.01303 7.52851 3.13805C7.65354 3.26307 7.82311 3.33331 7.99992 3.33331ZM11.7733 4.89331C11.9481 4.89258 12.1157 4.82314 12.2399 4.69998L12.7133 4.22665C12.783 4.16688 12.8397 4.09334 12.8797 4.01063C12.9198 3.92792 12.9422 3.83783 12.9458 3.74602C12.9493 3.6542 12.9339 3.56265 12.9003 3.4771C12.8668 3.39155 12.816 3.31385 12.751 3.24888C12.686 3.18391 12.6084 3.13307 12.5228 3.09955C12.4373 3.06604 12.3457 3.05057 12.2539 3.05411C12.1621 3.05766 12.072 3.08015 11.9893 3.12016C11.9066 3.16018 11.833 3.21686 11.7733 3.28665L11.3333 3.75998C11.2091 3.88489 11.1394 4.05386 11.1394 4.22998C11.1394 4.4061 11.2091 4.57507 11.3333 4.69998C11.4508 4.81689 11.6076 4.88581 11.7733 4.89331ZM3.77325 4.69998C3.89743 4.82314 4.06503 4.89258 4.23992 4.89331C4.32766 4.89382 4.41463 4.877 4.49586 4.84383C4.57708 4.81065 4.65096 4.76177 4.71325 4.69998C4.83742 4.57507 4.90711 4.4061 4.90711 4.22998C4.90711 4.05386 4.83742 3.88489 4.71325 3.75998L4.23992 3.28665C4.1782 3.22405 4.10475 3.17422 4.02377 3.14001C3.9428 3.1058 3.85587 3.08787 3.76797 3.08725C3.68006 3.08663 3.59289 3.10333 3.51144 3.1364C3.42999 3.16947 3.35585 3.21826 3.29325 3.27998C3.23066 3.3417 3.18083 3.41515 3.14662 3.49612C3.1124 3.5771 3.09448 3.66403 3.09386 3.75193C3.09261 3.92947 3.16193 4.10023 3.28659 4.22665L3.77325 4.69998ZM13.9999 7.33331H13.3333C13.1564 7.33331 12.9869 7.40355 12.8618 7.52858C12.7368 7.6536 12.6666 7.82317 12.6666 7.99998C12.6666 8.17679 12.7368 8.34636 12.8618 8.47138C12.9869 8.59641 13.1564 8.66665 13.3333 8.66665H13.9999C14.1767 8.66665 14.3463 8.59641 14.4713 8.47138C14.5963 8.34636 14.6666 8.17679 14.6666 7.99998C14.6666 7.82317 14.5963 7.6536 14.4713 7.52858C14.3463 7.40355 14.1767 7.33331 13.9999 7.33331ZM12.2399 11.3333C12.1133 11.2629 11.9671 11.2356 11.8236 11.2557C11.68 11.2757 11.5469 11.342 11.4445 11.4445C11.342 11.547 11.2757 11.6801 11.2556 11.8236C11.2355 11.9672 11.2628 12.1133 11.3333 12.24L11.8066 12.7133C11.9315 12.8375 12.1005 12.9072 12.2766 12.9072C12.4527 12.9072 12.6217 12.8375 12.7466 12.7133C12.8708 12.5884 12.9404 12.4194 12.9404 12.2433C12.9404 12.0672 12.8708 11.8982 12.7466 11.7733L12.2399 11.3333ZM7.99992 4.33331C7.27472 4.33331 6.56581 4.54836 5.96283 4.95126C5.35985 5.35416 4.88988 5.92681 4.61236 6.59681C4.33484 7.2668 4.26223 8.00405 4.40371 8.71531C4.54519 9.42657 4.8944 10.0799 5.40719 10.5927C5.91999 11.1055 6.57332 11.4547 7.28459 11.5962C7.99585 11.7377 8.7331 11.6651 9.40309 11.3875C10.0731 11.11 10.6457 10.6401 11.0486 10.0371C11.4515 9.43409 11.6666 8.72518 11.6666 7.99998C11.6648 7.02806 11.2779 6.09645 10.5907 5.4092C9.90345 4.72195 8.97184 4.33508 7.99992 4.33331ZM7.99992 10.3333C7.53843 10.3333 7.0873 10.1965 6.70359 9.94008C6.31987 9.68369 6.0208 9.31927 5.8442 8.89291C5.6676 8.46655 5.62139 7.99739 5.71142 7.54477C5.80145 7.09215 6.02368 6.67639 6.35 6.35006C6.67633 6.02374 7.09209 5.80151 7.54471 5.71148C7.99733 5.62145 8.46649 5.66766 8.89285 5.84426C9.31921 6.02086 9.68363 6.31993 9.94001 6.70365C10.1964 7.08736 10.3333 7.53849 10.3333 7.99998C10.3333 8.61882 10.0874 9.21231 9.64983 9.6499C9.21225 10.0875 8.61876 10.3333 7.99992 10.3333ZM7.99992 12.6666C7.82311 12.6666 7.65354 12.7369 7.52851 12.8619C7.40349 12.9869 7.33325 13.1565 7.33325 13.3333V14C7.33325 14.1768 7.40349 14.3464 7.52851 14.4714C7.65354 14.5964 7.82311 14.6666 7.99992 14.6666C8.17673 14.6666 8.3463 14.5964 8.47132 14.4714C8.59635 14.3464 8.66659 14.1768 8.66659 14V13.3333C8.66659 13.1565 8.59635 12.9869 8.47132 12.8619C8.3463 12.7369 8.17673 12.6666 7.99992 12.6666Z" fill="currentColor"/>
</svg>
