<svg width="40" height="41" viewBox="0 0 40 41" fill="none"
  xmlns="http://www.w3.org/2000/svg">
  <rect y="0.5" width="40" height="40" rx="8" fill="#F7F8F8" fill-opacity="0.12"/>
  <mask id="mask0_10024_21501" style="mask-type:alpha" maskUnits="userSpaceOnUse" x="7" y="6" width="26" height="29">
    <path d="M18.4661 6.92376C19.049 6.58723 19.3404 6.41897 19.6503 6.35311C19.9244 6.29483 20.2078 6.29483 20.4819 6.35311C20.7918 6.41897 21.0832 6.58723 21.6661 6.92376L31.1486 12.3985C31.7315 12.735 32.0229 12.9033 32.2349 13.1387C32.4225 13.347 32.5641 13.5924 32.6507 13.8589C32.7486 14.1602 32.7486 14.4967 32.7486 15.1698V26.1193C32.7486 26.7923 32.7486 27.1289 32.6507 27.4301C32.5641 27.6967 32.4225 27.9421 32.2349 28.1504C32.0229 28.3858 31.7315 28.554 31.1486 28.8906L21.6661 34.3653C21.0832 34.7018 20.7918 34.8701 20.4819 34.936C20.2078 34.9942 19.9244 34.9942 19.6503 34.936C19.3404 34.8701 19.049 34.7018 18.4661 34.3653L8.98355 28.8906C8.40066 28.554 8.10922 28.3858 7.89726 28.1504C7.70971 27.9421 7.56804 27.6967 7.48143 27.4301C7.38354 27.1289 7.38354 26.7923 7.38354 26.1193V15.1698C7.38354 14.4967 7.38354 14.1602 7.48143 13.8589C7.56804 13.5924 7.70971 13.347 7.89726 13.1387C8.10922 12.9033 8.40066 12.735 8.98354 12.3985L18.4661 6.92376Z" fill="black"/>
  </mask>
  <g mask="url(#mask0_10024_21501)">
    <path fill-rule="evenodd" clip-rule="evenodd" d="M31.9487 12.8268C32.082 12.9038 32.082 13.0962 31.9487 13.1732L21.1243 19.4227C20.5055 19.7799 19.7431 19.7799 19.1243 19.4226L8.3 13.1732C8.16667 13.0962 8.16667 12.9038 8.3 12.8268L20.1244 6L31.9487 12.8268Z" fill="#AF9EFF"/>
    <path fill-rule="evenodd" clip-rule="evenodd" d="M7.38359 14.3464C7.38359 14.1924 7.55026 14.0962 7.68359 14.1732L18.508 20.4227C19.1268 20.7799 19.508 21.4402 19.508 22.1547V34.6535C19.508 34.8075 19.3413 34.9037 19.208 34.8267L7.38354 28L7.38359 14.3464Z" fill="#947DFF"/>
    <path fill-rule="evenodd" clip-rule="evenodd" d="M32.7487 14.3464C32.7487 14.1924 32.582 14.0962 32.4487 14.1732L21.6243 20.4227C21.0055 20.7799 20.6243 21.4402 20.6243 22.1547V34.6536C20.6243 34.8075 20.7909 34.9038 20.9243 34.8268L32.7487 28V14.3464Z" fill="#7958FF"/>
  </g>
</svg>

