<svg width="40" height="40" viewBox="0 0 40 40" fill="none"
  xmlns="http://www.w3.org/2000/svg">
  <rect width="40" height="40" rx="8" fill="#F3EFFA"/>
  <mask id="mask0_462_19017" style="mask-type:alpha" maskUnits="userSpaceOnUse" x="7" y="5" width="26" height="29">
    <path d="M18.4663 5.92376C19.0492 5.58723 19.3407 5.41897 19.6505 5.35311C19.9247 5.29483 20.208 5.29483 20.4821 5.35311C20.792 5.41897 21.0834 5.58723 21.6663 5.92376L31.1489 11.3985C31.7318 11.735 32.0232 11.9033 32.2352 12.1387C32.4227 12.347 32.5644 12.5924 32.651 12.8589C32.7489 13.1602 32.7489 13.4967 32.7489 14.1698V25.1193C32.7489 25.7923 32.7489 26.1289 32.651 26.4301C32.5644 26.6967 32.4227 26.9421 32.2352 27.1504C32.0232 27.3858 31.7318 27.554 31.1489 27.8906L21.6663 33.3653C21.0834 33.7018 20.792 33.8701 20.4821 33.936C20.208 33.9942 19.9247 33.9942 19.6505 33.936C19.3407 33.8701 19.0492 33.7018 18.4663 33.3653L8.98379 27.8906C8.4009 27.554 8.10946 27.3858 7.8975 27.1504C7.70996 26.9421 7.56829 26.6967 7.48168 26.4301C7.38379 26.1289 7.38379 25.7923 7.38379 25.1193V14.1698C7.38379 13.4967 7.38379 13.1602 7.48168 12.8589C7.56829 12.5924 7.70996 12.347 7.8975 12.1387C8.10946 11.9033 8.4009 11.735 8.98379 11.3985L18.4663 5.92376Z" fill="black"/>
  </mask>
  <g mask="url(#mask0_462_19017)">
    <path opacity="0.22" fill-rule="evenodd" clip-rule="evenodd" d="M31.9487 11.8268C32.082 11.9038 32.082 12.0962 31.9487 12.1732L21.1243 18.4227C20.5055 18.7799 19.7431 18.7799 19.1243 18.4226L8.3 12.1732C8.16667 12.0962 8.16667 11.9038 8.3 11.8268L20.1244 5L31.9487 11.8268Z" fill="#7958FF"/>
    <path opacity="0.4" fill-rule="evenodd" clip-rule="evenodd" d="M7.38384 13.3464C7.38384 13.1924 7.5505 13.0962 7.68384 13.1732L18.5082 19.4227C19.127 19.7799 19.5082 20.4402 19.5082 21.1547V33.6535C19.5082 33.8075 19.3416 33.9037 19.2082 33.8267L7.38379 27L7.38384 13.3464Z" fill="#7958FF"/>
    <path opacity="0.6" fill-rule="evenodd" clip-rule="evenodd" d="M32.7484 13.3464C32.7484 13.1924 32.5817 13.0962 32.4484 13.1732L21.624 19.4227C21.0052 19.7799 20.624 20.4402 20.624 21.1547V33.6536C20.624 33.8075 20.7907 33.9038 20.924 33.8268L32.7484 27V13.3464Z" fill="#7958FF"/>
  </g>
</svg>
