<svg width="16" height="17" viewBox="0 0 16 17" fill="none"
  xmlns="http://www.w3.org/2000/svg">
  <path d="M12.6666 1.93677H3.33325C2.80282 1.93677 2.29411 2.14748 1.91904 2.52255C1.54397 2.89763 1.33325 3.40633 1.33325 3.93677V13.2701C1.33325 13.8005 1.54397 14.3092 1.91904 14.6843C2.29411 15.0594 2.80282 15.2701 3.33325 15.2701H12.6666C13.197 15.2701 13.7057 15.0594 14.0808 14.6843C14.4559 14.3092 14.6666 13.8005 14.6666 13.2701V3.93677C14.6666 3.40633 14.4559 2.89763 14.0808 2.52255C13.7057 2.14748 13.197 1.93677 12.6666 1.93677ZM13.3333 13.2701C13.3333 13.4469 13.263 13.6165 13.138 13.7415C13.013 13.8665 12.8434 13.9368 12.6666 13.9368H3.33325C3.15644 13.9368 2.98687 13.8665 2.86185 13.7415C2.73682 13.6165 2.66659 13.4469 2.66659 13.2701V3.93677C2.66659 3.75996 2.73682 3.59039 2.86185 3.46536C2.98687 3.34034 3.15644 3.2701 3.33325 3.2701H12.6666C12.8434 3.2701 13.013 3.34034 13.138 3.46536C13.263 3.59039 13.3333 3.75996 13.3333 3.93677V13.2701Z" fill="currentcolor"/>
  <path d="M7.91675 12.6561C7.48412 12.6561 7.13341 12.3053 7.13341 11.8727V6.65977H5.3615C4.9778 6.65977 4.66675 6.34872 4.66675 5.96502C4.66675 5.58132 4.9778 5.27026 5.3615 5.27026H10.4899C10.8736 5.27026 11.1846 5.58132 11.1846 5.96502C11.1846 6.34872 10.8736 6.65977 10.4899 6.65977H8.70008V11.8727C8.70008 12.3053 8.34937 12.6561 7.91675 12.6561Z" fill="currentcolor"/>
</svg>
