<svg width="48" height="48" viewBox="0 0 48 48" fill="none" xmlns="http://www.w3.org/2000/svg">
<path d="M12.1307 13.1004C11.7402 12.7099 11.7402 12.0767 12.1307 11.6862V11.6862C12.5212 11.2957 13.1544 11.2957 13.5449 11.6862L22.7373 20.8786L21.3231 22.2928L12.1307 13.1004Z" fill="#7958FF"/>
<path d="M8.59561 10.9794C7.81456 10.1984 7.81456 8.93202 8.59561 8.15097V8.15097C9.37666 7.36992 10.643 7.36992 11.424 8.15097L14.2525 10.9794C15.0335 11.7604 15.0335 13.0268 14.2525 13.8078V13.8078C13.4714 14.5889 12.2051 14.5889 11.424 13.8078L8.59561 10.9794Z" fill="#7958FF"/>
<path d="M17.082 25.1216L25.5673 16.6363L38.2952 29.3642C40.6384 31.7074 40.6384 35.5064 38.2952 37.8495V37.8495C35.9521 40.1926 32.1531 40.1926 29.81 37.8495L17.082 25.1216Z" fill="url(#paint0_linear_389_78280)"/>
<rect x="22.0312" y="25.8286" width="2" height="16" rx="1" transform="rotate(-45 22.0312 25.8286)" fill="#AF9EFF"/>
<rect x="24.8594" y="23.0002" width="2" height="16" rx="1" transform="rotate(-45 24.8594 23.0002)" fill="#AF9EFF"/>
<path d="M23.2946 16.0508C24.8567 14.4887 27.3894 14.4887 28.9515 16.0508L30.3657 17.4651C31.9278 19.0271 31.9278 21.5598 30.3657 23.1219L14.8093 38.6783C13.2472 40.2404 10.7146 40.2404 9.15248 38.6783L7.73827 37.264C6.17617 35.7019 6.17617 33.1693 7.73827 31.6072L23.2946 16.0508Z" fill="url(#paint1_linear_389_78280)"/>
<rect x="21.1738" y="23.8291" width="2" height="16" rx="1" transform="rotate(45 21.1738 23.8291)" fill="#B545CA"/>
<path opacity="0.64" fill-rule="evenodd" clip-rule="evenodd" d="M24.0017 22.4149C27.9069 26.3201 34.2386 26.3201 38.1438 22.4149C40.2703 20.2884 41.2389 17.4425 41.0495 14.6606C40.9516 13.222 39.2422 12.8312 38.2227 13.8507L35.3154 16.758C34.5343 17.5391 33.268 17.5391 32.487 16.758L29.6585 13.9296C28.8775 13.1485 28.8775 11.8822 29.6585 11.1012L32.5658 8.19388C33.5854 7.17432 33.1945 5.46494 31.756 5.36702C28.9741 5.17768 26.1282 6.14625 24.0017 8.27273C20.0964 12.178 20.0964 18.5096 24.0017 22.4149Z" fill="#F07EFF"/>
<circle cx="7" cy="19" r="1.5" stroke="#FFD5FF"/>
<circle cx="42" cy="27" r="1.5" stroke="#F7F8F8"/>
<circle cx="42" cy="27" r="1.5" stroke="#78767F" stroke-opacity="0.02"/>
<circle cx="42" cy="27" r="1.5" stroke="#5D34F2" stroke-opacity="0.14"/>
<rect x="36.879" y="7" width="3" height="3" rx="0.5" transform="rotate(-45 36.879 7)" stroke="#E6DEFF"/>
<rect x="19.879" y="40" width="3" height="3" rx="0.5" transform="rotate(-45 19.879 40)" stroke="#E6DEFF"/>
<defs>
<linearGradient id="paint0_linear_389_78280" x1="33.2129" y1="38.3356" x2="37.6342" y2="23.7454" gradientUnits="userSpaceOnUse">
<stop stop-color="#5D34F2"/>
<stop offset="1" stop-color="#FAABFF"/>
</linearGradient>
<linearGradient id="paint1_linear_389_78280" x1="28.7933" y1="16.2068" x2="3.05751" y2="23.2675" gradientUnits="userSpaceOnUse">
<stop stop-color="#FFF06A"/>
<stop offset="0.5" stop-color="#FC85E9"/>
<stop offset="1" stop-color="#E264F7"/>
</linearGradient>
</defs>
</svg>
