<svg width="40" height="41" viewBox="0 0 40 41" fill="none"
  xmlns="http://www.w3.org/2000/svg">
  <rect y="0.5" width="40" height="40" rx="8" fill="#F7F8F8" fill-opacity="0.12"/>
  <path opacity="0.8" d="M7.5 13.5C7.5 12.3954 8.39543 11.5 9.5 11.5H30.5C31.6046 11.5 32.5 12.3954 32.5 13.5V28.5C32.5 29.6046 31.6046 30.5 30.5 30.5H9.5C8.39543 30.5 7.5 29.6046 7.5 28.5V13.5Z" fill="url(#paint0_linear_4270_17367)"/>
  <path d="M7.5 15.5713H32.5V13.4999C32.5 12.3953 31.6046 11.4999 30.5 11.4999H9.5C8.39543 11.4999 7.5 12.3953 7.5 13.4999V15.5713Z" fill="#5D34F2"/>
  <path d="M10.2773 18.9637C10.2773 18.589 10.5812 18.2852 10.9559 18.2852H17.9321C18.3069 18.2852 18.6107 18.589 18.6107 18.9637C18.6107 19.3385 18.3069 19.6423 17.9321 19.6423H10.9559C10.5812 19.6423 10.2773 19.3385 10.2773 18.9637Z" fill="#D3BCF3"/>
  <path d="M10.2773 23.036C10.2773 22.6612 10.5812 22.3574 10.9559 22.3574H26.2654C26.6402 22.3574 26.944 22.6612 26.944 23.036C26.944 23.4108 26.6402 23.7146 26.2654 23.7146H10.9559C10.5812 23.7146 10.2773 23.4108 10.2773 23.036Z" fill="#D3BCF3"/>
  <path opacity="0.6" d="M29.3509 25.5003C29.6075 25.0559 30.249 25.0559 30.5056 25.5003L36.2791 35.5003C36.5357 35.9448 36.2149 36.5003 35.7017 36.5003H24.1547C23.6415 36.5003 23.3208 35.9448 23.5774 35.5003L29.3509 25.5003Z" fill="#F4E560"/>
  <g style="mix-blend-mode:multiply">
    <circle cx="10" cy="10.5" r="6" fill="#F07EFF"/>
  </g>
  <defs>
    <linearGradient id="paint0_linear_4270_17367" x1="5.44643" y1="22.3854" x2="30.0122" y2="10.4507" gradientUnits="userSpaceOnUse">
      <stop stop-color="#492EF3"/>
      <stop offset="1" stop-color="#CF69FF"/>
    </linearGradient>
  </defs>
</svg>
