<svg width="16" height="16" viewBox="0 0 16 16" fill="none"
  xmlns="http://www.w3.org/2000/svg">
  <path d="M8 8.73282C7.77166 8.73021 7.54799 8.79607 7.35908 8.92152C7.17018 9.04697 7.02511 9.22601 6.94341 9.43452C6.86171 9.64303 6.8473 9.87101 6.90211 10.0878C6.95693 10.3045 7.07834 10.4997 7.25 10.6469V11.6663C7.25 11.8608 7.32902 12.0473 7.46967 12.1849C7.61032 12.3224 7.80109 12.3997 8 12.3997C8.19891 12.3997 8.38968 12.3224 8.53033 12.1849C8.67098 12.0473 8.75 11.8608 8.75 11.6663V10.6469C8.92166 10.4997 9.04307 10.3045 9.09789 10.0878C9.1527 9.87101 9.13829 9.64303 9.05659 9.43452C8.97489 9.22601 8.82982 9.04697 8.64092 8.92152C8.45201 8.79607 8.22834 8.73021 8 8.73282ZM11.75 5.79933H5.75V4.33259C5.74891 3.8971 5.88001 3.4711 6.12669 3.10852C6.37338 2.74594 6.72456 2.46311 7.13576 2.29584C7.54696 2.12857 7.99967 2.08438 8.43657 2.16888C8.87346 2.25338 9.27489 2.46276 9.59 2.77051C9.87196 3.05217 10.0736 3.40108 10.175 3.78256C10.1996 3.87598 10.2428 3.96374 10.3021 4.04083C10.3614 4.11793 10.4357 4.18284 10.5207 4.23188C10.6056 4.28091 10.6996 4.3131 10.7973 4.3266C10.895 4.34011 10.9945 4.33467 11.09 4.31059C11.1855 4.28651 11.2753 4.24427 11.3541 4.18628C11.433 4.12828 11.4994 4.05567 11.5495 3.97259C11.5996 3.88951 11.6326 3.79758 11.6464 3.70206C11.6602 3.60654 11.6546 3.50929 11.63 3.41587C11.4591 2.78136 11.1203 2.2021 10.6475 1.73645C10.1226 1.22483 9.4545 0.876747 8.72747 0.736164C8.00043 0.595582 7.2471 0.668802 6.56259 0.946578C5.87809 1.22435 5.2931 1.69423 4.88151 2.29688C4.46991 2.89952 4.25016 3.60791 4.25 4.33259V5.79933C3.65326 5.79933 3.08097 6.03113 2.65901 6.44373C2.23705 6.85633 2 7.41594 2 7.99945V13.1331C2 13.7166 2.23705 14.2762 2.65901 14.6888C3.08097 15.1014 3.65326 15.3332 4.25 15.3332H11.75C12.3467 15.3332 12.919 15.1014 13.341 14.6888C13.7629 14.2762 14 13.7166 14 13.1331V7.99945C14 7.41594 13.7629 6.85633 13.341 6.44373C12.919 6.03113 12.3467 5.79933 11.75 5.79933ZM12.5 13.1331C12.5 13.3276 12.421 13.5141 12.2803 13.6516C12.1397 13.7892 11.9489 13.8664 11.75 13.8664H4.25C4.05109 13.8664 3.86032 13.7892 3.71967 13.6516C3.57902 13.5141 3.5 13.3276 3.5 13.1331V7.99945C3.5 7.80495 3.57902 7.61841 3.71967 7.48088C3.86032 7.34334 4.05109 7.26608 4.25 7.26608H11.75C11.9489 7.26608 12.1397 7.34334 12.2803 7.48088C12.421 7.61841 12.5 7.80495 12.5 7.99945V13.1331Z" fill="currentColor"/>
</svg>
