<svg width="20" height="20" viewBox="0 0 20 20" fill="none" xmlns="http://www.w3.org/2000/svg">
<path d="M7.25842 6.42508L9.16675 4.50841V12.5001C9.16675 12.7211 9.25455 12.9331 9.41083 13.0893C9.56711 13.2456 9.77907 13.3334 10.0001 13.3334C10.2211 13.3334 10.4331 13.2456 10.5893 13.0893C10.7456 12.9331 10.8334 12.7211 10.8334 12.5001V4.50841L12.7417 6.42508C12.8192 6.50318 12.9114 6.56518 13.0129 6.60749C13.1145 6.64979 13.2234 6.67158 13.3334 6.67158C13.4434 6.67158 13.5523 6.64979 13.6539 6.60749C13.7554 6.56518 13.8476 6.50318 13.9251 6.42508C14.0032 6.34761 14.0652 6.25544 14.1075 6.15389C14.1498 6.05234 14.1716 5.94342 14.1716 5.83341C14.1716 5.7234 14.1498 5.61448 14.1075 5.51293C14.0652 5.41138 14.0032 5.31921 13.9251 5.24174L10.5917 1.90841C10.5125 1.83254 10.419 1.77307 10.3167 1.73341C10.1139 1.65006 9.8863 1.65006 9.68342 1.73341C9.58112 1.77307 9.48767 1.83254 9.40841 1.90841L6.07508 5.24174C5.99738 5.31944 5.93575 5.41168 5.8937 5.5132C5.85165 5.61472 5.83001 5.72353 5.83001 5.83341C5.83001 5.94329 5.85165 6.0521 5.8937 6.15362C5.93575 6.25514 5.99738 6.34738 6.07508 6.42508C6.15278 6.50278 6.24502 6.56441 6.34654 6.60646C6.44806 6.64851 6.55687 6.67015 6.66675 6.67015C6.77663 6.67015 6.88544 6.64851 6.98696 6.60646C7.08847 6.56441 7.18072 6.50278 7.25842 6.42508ZM17.5001 11.6667C17.2791 11.6667 17.0671 11.7545 16.9108 11.9108C16.7545 12.0671 16.6667 12.2791 16.6667 12.5001V15.8334C16.6667 16.0544 16.579 16.2664 16.4227 16.4227C16.2664 16.5789 16.0544 16.6667 15.8334 16.6667H4.16675C3.94573 16.6667 3.73377 16.5789 3.57749 16.4227C3.42121 16.2664 3.33341 16.0544 3.33341 15.8334V12.5001C3.33341 12.2791 3.24562 12.0671 3.08934 11.9108C2.93306 11.7545 2.7211 11.6667 2.50008 11.6667C2.27907 11.6667 2.06711 11.7545 1.91083 11.9108C1.75455 12.0671 1.66675 12.2791 1.66675 12.5001V15.8334C1.66675 16.4965 1.93014 17.1323 2.39898 17.6012C2.86782 18.07 3.50371 18.3334 4.16675 18.3334H15.8334C16.4965 18.3334 17.1323 18.07 17.6012 17.6012C18.07 17.1323 18.3334 16.4965 18.3334 15.8334V12.5001C18.3334 12.2791 18.2456 12.0671 18.0893 11.9108C17.9331 11.7545 17.7211 11.6667 17.5001 11.6667Z" fill="currentColor"/>
</svg>
