<svg width="16" height="17" viewBox="0 0 16 17" fill="none"
  xmlns="http://www.w3.org/2000/svg">
  <path d="M7.99995 1.93677C6.70694 1.93922 5.44254 2.31764 4.36077 3.02593C3.279 3.73421 2.42655 4.74179 1.90725 5.92595C1.38794 7.1101 1.2242 8.41971 1.43597 9.69527C1.64774 10.9708 2.22587 12.1573 3.09995 13.1101C3.72423 13.7868 4.48191 14.3269 5.32524 14.6962C6.16857 15.0656 7.07927 15.2563 7.99995 15.2563C8.92063 15.2563 9.83133 15.0656 10.6747 14.6962C11.518 14.3269 12.2757 13.7868 12.9 13.1101C13.774 12.1573 14.3522 10.9708 14.5639 9.69527C14.7757 8.41971 14.612 7.1101 14.0927 5.92595C13.5734 4.74179 12.7209 3.73421 11.6391 3.02593C10.5574 2.31764 9.29297 1.93922 7.99995 1.93677ZM7.99995 13.9368C6.61893 13.9347 5.29256 13.397 4.29995 12.4368C4.60131 11.7031 5.11397 11.0756 5.77279 10.634C6.4316 10.1924 7.20682 9.95664 7.99995 9.95664C8.79308 9.95664 9.5683 10.1924 10.2271 10.634C10.8859 11.0756 11.3986 11.7031 11.7 12.4368C10.7073 13.397 9.38097 13.9347 7.99995 13.9368ZM6.66662 7.2701C6.66662 7.00639 6.74482 6.74861 6.89132 6.52934C7.03783 6.31008 7.24607 6.13918 7.48971 6.03826C7.73334 5.93734 8.00143 5.91094 8.26007 5.96239C8.51871 6.01383 8.75629 6.14082 8.94276 6.32729C9.12923 6.51376 9.25622 6.75134 9.30766 7.00998C9.35911 7.26862 9.33271 7.53671 9.23179 7.78035C9.13087 8.02398 8.95998 8.23222 8.74071 8.37873C8.52145 8.52524 8.26366 8.60343 7.99995 8.60343C7.64633 8.60343 7.30719 8.46296 7.05714 8.21291C6.80709 7.96286 6.66662 7.62372 6.66662 7.2701ZM12.6066 11.2701C12.011 10.2513 11.0942 9.45879 9.99995 9.01677C10.3394 8.63187 10.5606 8.15721 10.6369 7.64973C10.7133 7.14225 10.6416 6.62351 10.4305 6.15577C10.2193 5.68802 9.87767 5.29114 9.44656 5.01274C9.01544 4.73435 8.51314 4.58627 7.99995 4.58627C7.48676 4.58627 6.98446 4.73435 6.55335 5.01274C6.12223 5.29114 5.7806 5.68802 5.56945 6.15577C5.3583 6.62351 5.28661 7.14225 5.36297 7.64973C5.43933 8.15721 5.66051 8.63187 5.99995 9.01677C4.90568 9.45879 3.98893 10.2513 3.39328 11.2701C2.91858 10.4615 2.66776 9.54108 2.66662 8.60343C2.66662 7.18895 3.22852 5.83239 4.22872 4.8322C5.22891 3.832 6.58546 3.2701 7.99995 3.2701C9.41444 3.2701 10.771 3.832 11.7712 4.8322C12.7714 5.83239 13.3333 7.18895 13.3333 8.60343C13.3321 9.54108 13.0813 10.4615 12.6066 11.2701Z" fill="currentcolor"/>
</svg>
