<svg width="26" height="28" viewBox="0 0 26 28" fill="none"
  xmlns="http://www.w3.org/2000/svg">
  <path id="Union" fill-rule="evenodd" clip-rule="evenodd" d="M12.9999 0C9.97432 0 7.52162 2.4527 7.52162 5.47826V6.69565C7.52162 9.72121 9.97432 12.1739 12.9999 12.1739C16.0254 12.1739 18.4781 9.72122 18.4781 6.69566V5.47826C18.4781 2.4527 16.0254 0 12.9999 0ZM13 28C25.1739 28 25.1739 24.0427 25.1739 24.0427C25.1739 18.9098 22.6263 14.1252 16.0434 14C16.0155 13.9995 15.8255 14.1844 15.5499 14.4524C14.8266 15.156 13.5144 16.4324 13 16.4324C12.4855 16.4324 11.1733 15.156 10.45 14.4524C10.1745 14.1844 9.98439 13.9995 9.95648 14C3.37365 14.1252 0.82605 18.9098 0.82605 24.0427C0.82605 24.0427 0.82605 28 13 28Z" fill="currentColor"/>
</svg>
