<svg width="40" height="41" viewBox="0 0 40 41" fill="none" xmlns="http://www.w3.org/2000/svg">
<rect y="0.5" width="40" height="40" rx="8" fill="#3A3B59"/>
<path fill-rule="evenodd" clip-rule="evenodd" d="M11.3529 20.6978C11.5943 21.204 11.3795 21.81 10.8733 22.0513C9.19077 22.8534 8.03152 24.5685 8.03152 26.5522C8.03152 29.3042 10.2624 31.535 13.0143 31.535C15.7662 31.535 17.9971 29.3042 17.9971 26.5522C17.9971 25.9915 18.4517 25.5369 19.0125 25.5369H26.9943C27.5551 25.5369 28.0097 25.9915 28.0097 26.5522C28.0097 27.113 27.5551 27.5676 26.9943 27.5676H19.9549C19.4629 30.9599 16.5429 33.5658 13.0143 33.5658C9.14081 33.5658 6.00073 30.4257 6.00073 26.5522C6.00073 23.7563 7.63686 21.3444 9.99943 20.2182C10.5056 19.9769 11.1116 20.1916 11.3529 20.6978Z" fill="url(#paint0_linear_8003_152192)"/>
<path d="M30.0007 26.4336C30.0007 28.0904 28.6576 29.4336 27.0007 29.4336C25.3439 29.4336 24.0007 28.0904 24.0007 26.4336C24.0007 24.7767 25.3439 23.4336 27.0007 23.4336C28.6576 23.4336 30.0007 24.7767 30.0007 26.4336Z" fill="url(#paint1_linear_8003_152192)"/>
<path fill-rule="evenodd" clip-rule="evenodd" d="M22.4882 10.1331C20.105 8.75716 17.0575 9.57372 15.6816 11.9569C14.3056 14.3402 15.1222 17.3876 17.5054 18.7635C17.7386 18.8982 17.9088 19.12 17.9785 19.3801C18.0482 19.6402 18.0117 19.9174 17.8771 20.1506L13.8861 27.0631C13.6057 27.5487 12.9847 27.7151 12.4991 27.4347C12.0134 27.1543 11.847 26.5333 12.1274 26.0477L15.6471 19.9514C12.9553 17.8292 12.1586 13.9974 13.9229 10.9415C15.8596 7.58702 20.149 6.43766 23.5036 8.3744L22.9959 9.25376L23.5036 8.3744C25.925 9.77239 27.1956 12.3952 26.9897 15.0044C26.9455 15.5635 26.4566 15.9809 25.8975 15.9368C25.3385 15.8926 24.9211 15.4037 24.9652 14.8446C25.1118 12.9865 24.2062 11.125 22.4882 10.1331Z" fill="url(#paint2_linear_8003_152192)"/>
<path fill-rule="evenodd" clip-rule="evenodd" d="M22.4882 10.1331C20.105 8.75716 17.0575 9.57372 15.6816 11.9569C14.3056 14.3402 15.1222 17.3876 17.5054 18.7635C17.7386 18.8982 17.9088 19.12 17.9785 19.3801C18.0482 19.6402 18.0117 19.9174 17.8771 20.1506L13.8861 27.0631C13.6057 27.5487 12.9847 27.7151 12.4991 27.4347C12.0134 27.1543 11.847 26.5333 12.1274 26.0477L15.6471 19.9514C12.9553 17.8292 12.1586 13.9974 13.9229 10.9415C15.8596 7.58702 20.149 6.43766 23.5036 8.3744L22.9959 9.25376L23.5036 8.3744C25.925 9.77239 27.1956 12.3952 26.9897 15.0044C26.9455 15.5635 26.4566 15.9809 25.8975 15.9368C25.3385 15.8926 24.9211 15.4037 24.9652 14.8446C25.1118 12.9865 24.2062 11.125 22.4882 10.1331Z" fill="url(#paint3_linear_8003_152192)"/>
<path d="M11.501 29.0312C10.0663 28.2029 9.5748 26.3685 10.4031 24.9338C11.2314 23.4992 13.0658 23.0077 14.5005 23.836C15.9351 24.6642 16.4267 26.4987 15.5984 27.9333C14.7701 29.368 12.9356 29.8595 11.501 29.0312Z" fill="url(#paint4_linear_8003_152192)"/>
<path d="M11.501 29.0312C10.0663 28.2029 9.5748 26.3685 10.4031 24.9338C11.2314 23.4992 13.0658 23.0077 14.5005 23.836C15.9351 24.6642 16.4267 26.4987 15.5984 27.9333C14.7701 29.368 12.9356 29.8595 11.501 29.0312Z" fill="url(#paint5_linear_8003_152192)"/>
<path fill-rule="evenodd" clip-rule="evenodd" d="M19.4866 13.5649C19.9723 13.2845 20.5933 13.4509 20.8737 13.9366L24.3934 20.0329C27.5772 18.7628 31.2939 19.9887 33.0582 23.0446C34.995 26.3991 33.8457 30.6885 30.4911 32.6253C28.0697 34.0232 25.163 33.8122 23.0063 32.3293C22.5442 32.0116 22.4272 31.3794 22.7449 30.9173C23.0627 30.4552 23.6948 30.3382 24.1569 30.6559C25.6928 31.712 27.7577 31.8584 29.4757 30.8665C31.8589 29.4906 32.6755 26.4432 31.2995 24.06C29.9236 21.6767 26.8762 20.8602 24.493 22.2361C24.0073 22.5165 23.3863 22.3501 23.1059 21.8645L19.115 14.952C18.8346 14.4663 19.001 13.8453 19.4866 13.5649Z" fill="url(#paint6_linear_8003_152192)"/>
<path d="M18.501 11.836C19.9356 11.0077 21.7701 11.4992 22.5984 12.9338C23.4267 14.3685 22.9351 16.2029 21.5005 17.0312C20.0658 17.8595 18.2314 17.368 17.4031 15.9333C16.5748 14.4987 17.0663 12.6642 18.501 11.836Z" fill="url(#paint7_linear_8003_152192)"/>
<defs>
<linearGradient id="paint0_linear_8003_152192" x1="1.64623" y1="25.862" x2="24.045" y2="14.5687" gradientUnits="userSpaceOnUse">
<stop stop-color="#614DDD"/>
<stop offset="1" stop-color="#D47AFE"/>
</linearGradient>
<linearGradient id="paint1_linear_8003_152192" x1="23.5079" y1="26.8711" x2="29.9209" y2="24.5032" gradientUnits="userSpaceOnUse">
<stop stop-color="#614DDD"/>
<stop offset="1" stop-color="#D47AFE"/>
</linearGradient>
<linearGradient id="paint2_linear_8003_152192" x1="23.621" y1="18.8382" x2="14.2448" y2="11.9784" gradientUnits="userSpaceOnUse">
<stop stop-color="#FF897A"/>
<stop offset="1" stop-color="#E264F7"/>
</linearGradient>
<linearGradient id="paint3_linear_8003_152192" x1="14.001" y1="25.9336" x2="27.6119" y2="12.6439" gradientUnits="userSpaceOnUse">
<stop stop-color="#FEBEA6"/>
<stop offset="0.5" stop-color="#FC85E9"/>
<stop offset="1" stop-color="#E264F7"/>
</linearGradient>
<linearGradient id="paint4_linear_8003_152192" x1="11.6253" y1="28.9687" x2="15.4381" y2="24.8351" gradientUnits="userSpaceOnUse">
<stop stop-color="#FF897A"/>
<stop offset="1" stop-color="#E264F7"/>
</linearGradient>
<linearGradient id="paint5_linear_8003_152192" x1="11.0007" y1="28.9336" x2="15.5002" y2="25.1096" gradientUnits="userSpaceOnUse">
<stop stop-color="#FEBEA6"/>
<stop offset="0.5" stop-color="#FC85E9"/>
<stop offset="1" stop-color="#E264F7"/>
</linearGradient>
<linearGradient id="paint6_linear_8003_152192" x1="31.329" y1="32.3495" x2="20.3699" y2="17.327" gradientUnits="userSpaceOnUse">
<stop stop-color="#614DDD"/>
<stop offset="1" stop-color="#D47AFE"/>
</linearGradient>
<linearGradient id="paint7_linear_8003_152192" x1="21.6627" y1="16.9213" x2="17.1787" y2="12.9442" gradientUnits="userSpaceOnUse">
<stop stop-color="#614DDD"/>
<stop offset="1" stop-color="#D47AFE"/>
</linearGradient>
</defs>
</svg>
