<svg width="1440" height="984" viewBox="0 0 1440 984" fill="none" xmlns="http://www.w3.org/2000/svg">
<g clip-path="url(#clip0_6227_219215)">
<path d="M874 134.896H810C792.327 134.896 778 149.223 778 166.896V183.896V212.896V223.396V230.896C778 248.569 792.327 262.896 810 262.896H832H844.5H854.75H865H874C891.673 262.896 906 248.569 906 230.896V226V222V176.896V166.896C906 149.223 891.673 134.896 874 134.896Z" stroke="#191C1D" stroke-linecap="round"/>
<path d="M874 134.896H810C792.327 134.896 778 149.223 778 166.896V183.896V212.896V223.396V230.896C778 248.569 792.327 262.896 810 262.896H832H844.5H854.75H865H874C891.673 262.896 906 248.569 906 230.896V226V222V176.896V166.896C906 149.223 891.673 134.896 874 134.896Z" stroke="#C4C7C7" stroke-opacity="0.02" stroke-linecap="round"/>
<path d="M874 134.896H810C792.327 134.896 778 149.223 778 166.896V183.896V212.896V223.396V230.896C778 248.569 792.327 262.896 810 262.896H832H844.5H854.75H865H874C891.673 262.896 906 248.569 906 230.896V226V222V176.896V166.896C906 149.223 891.673 134.896 874 134.896Z" stroke="#CABEFF" stroke-opacity="0.16" stroke-linecap="round"/>
<path fill-rule="evenodd" clip-rule="evenodd" d="M865.04 199.442C865.04 197.74 864.887 196.104 864.604 194.533H842V203.816H854.916C854.36 206.816 852.669 209.358 850.127 211.06V217.082H857.884C862.422 212.904 865.04 206.751 865.04 199.442Z" fill="#4285F4"/>
<path fill-rule="evenodd" clip-rule="evenodd" d="M842 222.896C848.48 222.896 853.913 220.747 857.884 217.082L850.127 211.06C847.978 212.5 845.229 213.351 842 213.351C835.749 213.351 830.458 209.129 828.571 203.456H820.553V209.674C824.502 217.518 832.618 222.896 842 222.896Z" fill="#34A853"/>
<path fill-rule="evenodd" clip-rule="evenodd" d="M828.571 203.455C828.091 202.015 827.818 200.477 827.818 198.895C827.818 197.314 828.091 195.775 828.571 194.335V188.117H820.553C818.927 191.357 818 195.023 818 198.895C818 202.768 818.927 206.434 820.553 209.674L828.571 203.455Z" fill="#FBBC05"/>
<path fill-rule="evenodd" clip-rule="evenodd" d="M842 184.441C845.524 184.441 848.687 185.652 851.175 188.031L858.058 181.147C853.902 177.274 848.469 174.896 842 174.896C832.618 174.896 824.502 180.274 820.553 188.118L828.571 194.336C830.458 188.663 835.749 184.441 842 184.441Z" fill="#EA4335"/>
<rect x="632" y="565.896" width="88" height="88" rx="24" fill="#191C1D"/>
<rect x="632" y="565.896" width="88" height="88" rx="24" fill="#C4C7C7" fill-opacity="0.02"/>
<rect x="632" y="565.896" width="88" height="88" rx="24" fill="#CABEFF" fill-opacity="0.16"/>
<path d="M673.971 585.896C673.164 585.896 672.467 586.458 672.296 587.246L671.288 591.879C671.155 592.495 670.692 592.981 670.098 593.19C669.502 593.4 668.921 593.64 668.356 593.91C667.787 594.182 667.116 594.166 666.586 593.825L662.609 591.268C661.93 590.832 661.04 590.928 660.469 591.498L657.602 594.365C657.032 594.936 656.936 595.826 657.372 596.505L659.929 600.482C660.27 601.012 660.286 601.683 660.014 602.252C659.744 602.817 659.504 603.398 659.294 603.994C659.085 604.588 658.599 605.051 657.983 605.184L653.35 606.192C652.562 606.363 652 607.06 652 607.867V611.925C652 612.732 652.562 613.429 653.35 613.6L657.983 614.608C658.599 614.741 659.085 615.204 659.294 615.798C659.504 616.394 659.744 616.975 660.014 617.54C660.286 618.109 660.27 618.78 659.929 619.31L657.372 623.287C656.936 623.966 657.032 624.856 657.602 625.427L660.469 628.294C661.04 628.864 661.93 628.96 662.609 628.524L666.586 625.967C667.116 625.626 667.787 625.61 668.356 625.882C668.921 626.152 669.502 626.392 670.098 626.602C670.692 626.811 671.155 627.297 671.288 627.913L672.296 632.546C672.467 633.334 673.164 633.896 673.971 633.896H678.029C678.836 633.896 679.533 633.334 679.704 632.546L680.712 627.913C680.845 627.297 681.308 626.811 681.902 626.602C682.498 626.392 683.079 626.152 683.644 625.882C684.213 625.61 684.884 625.626 685.414 625.967L689.391 628.524C690.07 628.96 690.96 628.864 691.531 628.294L694.398 625.427C694.968 624.856 695.064 623.966 694.628 623.287L692.071 619.31C691.73 618.78 691.714 618.109 691.986 617.54C692.256 616.975 692.496 616.394 692.706 615.798C692.915 615.204 693.401 614.741 694.017 614.608L698.65 613.6C699.438 613.429 700 612.732 700 611.925V607.867C700 607.06 699.438 606.363 698.65 606.192L694.017 605.184C693.401 605.051 692.915 604.588 692.706 603.994C692.496 603.398 692.256 602.817 691.986 602.252C691.714 601.683 691.73 601.012 692.071 600.482L694.628 596.505C695.064 595.826 694.968 594.936 694.398 594.365L691.531 591.498C690.96 590.928 690.07 590.832 689.391 591.268L685.414 593.825C684.884 594.166 684.213 594.182 683.644 593.91C683.079 593.64 682.498 593.4 681.902 593.19C681.308 592.981 680.845 592.495 680.712 591.879L679.704 587.246C679.533 586.458 678.836 585.896 678.029 585.896H673.971ZM676 599.61C681.681 599.61 686.286 604.215 686.286 609.896C686.286 615.577 681.681 620.182 676 620.182C670.319 620.182 665.714 615.577 665.714 609.896C665.714 604.215 670.319 599.61 676 599.61Z" fill="#AF9EFF"/>
<path d="M1177.5 569.396H1421M860 762.896H475.447C461.272 762.896 448.199 770.542 441.25 782.896V782.896C434.301 795.25 421.228 802.896 407.053 802.896H303.996C290.33 802.896 277.645 809.996 270.5 821.646V821.646C263.355 833.296 250.67 840.396 237.004 840.396H90.9966C22.5281 840.396 -38.3521 883.962 -60.4451 948.768L-76 994.396" stroke="#191C1D" stroke-linecap="round"/>
<path d="M1177.5 569.396H1421M860 762.896H475.447C461.272 762.896 448.199 770.542 441.25 782.896V782.896C434.301 795.25 421.228 802.896 407.053 802.896H303.996C290.33 802.896 277.645 809.996 270.5 821.646V821.646C263.355 833.296 250.67 840.396 237.004 840.396H90.9966C22.5281 840.396 -38.3521 883.962 -60.4451 948.768L-76 994.396" stroke="#C4C7C7" stroke-opacity="0.02" stroke-linecap="round"/>
<path d="M1177.5 569.396H1421M860 762.896H475.447C461.272 762.896 448.199 770.542 441.25 782.896V782.896C434.301 795.25 421.228 802.896 407.053 802.896H303.996C290.33 802.896 277.645 809.996 270.5 821.646V821.646C263.355 833.296 250.67 840.396 237.004 840.396H90.9966C22.5281 840.396 -38.3521 883.962 -60.4451 948.768L-76 994.396" stroke="#CABEFF" stroke-opacity="0.16" stroke-linecap="round"/>
<path d="M1454.81 536.896H1685V984.396H163L217.97 916.351C248.346 878.749 294.093 856.896 342.431 856.896H565.45C600.201 856.896 634.007 845.575 661.75 824.646C689.493 803.717 723.299 792.396 758.05 792.396H933.394C977.132 792.396 1018.24 771.492 1044 736.146C1069.76 700.8 1110.87 679.896 1154.61 679.896H1202.69C1254.36 679.896 1302.23 652.744 1328.75 608.396C1355.27 564.048 1403.14 536.896 1454.81 536.896Z" fill="url(#paint0_linear_6227_219215)"/>
<g filter="url(#filter0_b_6227_219215)">
<path fill-rule="evenodd" clip-rule="evenodd" d="M1029 821.896C1139.46 821.896 1229 732.353 1229 621.896C1229 570.633 1209.71 523.874 1178 488.48C1141.38 447.611 1088.19 421.896 1029 421.896C918.543 421.896 829 511.439 829 621.896C829 732.353 918.543 821.896 1029 821.896ZM1029 721.896C1084.23 721.896 1129 677.124 1129 621.896C1129 566.668 1084.23 521.896 1029 521.896C973.772 521.896 929 566.668 929 621.896C929 677.124 973.772 721.896 1029 721.896Z" fill="url(#paint1_linear_6227_219215)" fill-opacity="0.32"/>
</g>
<rect x="519" y="714.896" width="360" height="270" rx="32" fill="#3E3A50"/>
<path d="M687.25 755.396C687.25 754.291 688.145 753.396 689.25 753.396H708.75C709.855 753.396 710.75 754.291 710.75 755.396V776.396C710.75 777.501 709.855 778.396 708.75 778.396H689.25C688.145 778.396 687.25 777.501 687.25 776.396V755.396Z" fill="url(#paint2_linear_6227_219215)"/>
<path d="M687.25 755.131C687.25 754.135 687.982 753.291 688.967 753.151L702.467 751.222C703.672 751.05 704.75 751.985 704.75 753.202V778.59C704.75 779.807 703.672 780.742 702.467 780.57L688.967 778.641C687.982 778.501 687.25 777.657 687.25 776.661V755.131Z" fill="url(#paint3_linear_6227_219215)"/>
<g filter="url(#filter1_d_6227_219215)">
<circle cx="700.75" cy="765.896" r="1.5" fill="url(#paint4_linear_6227_219215)"/>
</g>
<g filter="url(#filter2_d_6227_219215)">
<rect x="700" y="765.271" width="1.5" height="4" rx="0.75" fill="url(#paint5_linear_6227_219215)"/>
</g>
<rect x="635" y="793.896" width="128" height="8" rx="4" fill="#564E63"/>
<rect x="609.5" y="822.396" width="179" height="23" rx="3.5" fill="#706781" stroke="#897F9B"/>
<circle cx="667" cy="833.896" r="6" fill="#AA94DA"/>
<rect x="677" y="830.896" width="72" height="6" rx="2" fill="#A292BB"/>
<rect x="609.5" y="854.396" width="179" height="23" rx="3.5" fill="#706781" stroke="#897F9B"/>
<circle cx="667" cy="865.896" r="6" fill="#937BC7"/>
<rect x="677" y="862.896" width="52" height="6" rx="2" fill="#A292BB"/>
<rect x="609.5" y="886.396" width="179" height="23" rx="3.5" fill="#706781" stroke="#897F9B"/>
<circle cx="667" cy="897.896" r="6" fill="#B991CC"/>
<rect x="677" y="894.896" width="60" height="6" rx="2" fill="#A292BB"/>
<path opacity="0.02" d="M519 746.896C519 729.223 533.327 714.896 551 714.896H739L609 984.896H551C533.327 984.896 519 970.569 519 952.896V746.896Z" fill="#F8F4FF"/>
<g filter="url(#filter3_b_6227_219215)">
<rect x="1154" y="504.896" width="240" height="480" rx="32" fill="#BBB5D7"/>
</g>
<path d="M1302 585.896C1302 601.36 1289.46 613.896 1274 613.896C1258.54 613.896 1246 601.36 1246 585.896C1246 570.432 1258.54 557.896 1274 557.896C1289.46 557.896 1302 570.432 1302 585.896Z" fill="#AFA8D0"/>
<path d="M1259.31 572.771C1259.31 571.39 1260.43 570.271 1261.81 570.271H1286.19C1287.57 570.271 1288.69 571.39 1288.69 572.771V599.021C1288.69 600.402 1287.57 601.521 1286.19 601.521H1261.81C1260.43 601.521 1259.31 600.402 1259.31 599.021V572.771Z" fill="url(#paint6_linear_6227_219215)"/>
<path d="M1259.31 572.439C1259.31 571.195 1260.23 570.14 1261.46 569.964L1278.33 567.554C1279.84 567.338 1281.19 568.507 1281.19 570.029V601.763C1281.19 603.285 1279.84 604.453 1278.33 604.238L1261.46 601.828C1260.23 601.652 1259.31 600.597 1259.31 599.353V572.439Z" fill="url(#paint7_linear_6227_219215)"/>
<g filter="url(#filter4_d_6227_219215)">
<circle cx="1276.19" cy="585.896" r="1.875" fill="url(#paint8_linear_6227_219215)"/>
</g>
<g filter="url(#filter5_d_6227_219215)">
<rect x="1275.25" y="585.115" width="1.875" height="5" rx="0.9375" fill="url(#paint9_linear_6227_219215)"/>
</g>
<path d="M1226 621.896H1293.71M1322 621.896H1306.14" stroke="#A098C1" stroke-width="2" stroke-linecap="round"/>
<rect x="1184.5" y="694.396" width="179" height="35" rx="7.5" fill="white" stroke="#947DFF"/>
<circle cx="1239" cy="711.896" r="3" fill="#78767F"/>
<circle cx="1253" cy="711.896" r="3" fill="#78767F"/>
<circle cx="1267" cy="711.896" r="3" fill="#78767F"/>
<circle cx="1281" cy="711.896" r="3" fill="#78767F"/>
<circle cx="1295" cy="711.896" r="3" fill="#78767F"/>
<circle cx="1309" cy="711.896" r="3" fill="#78767F"/>
<path fill-rule="evenodd" clip-rule="evenodd" d="M1332.93 703.825C1332.54 704.215 1332.54 704.848 1332.93 705.239L1334.51 706.815C1331.79 708.693 1330 711.348 1330 711.896C1330 712.762 1334.48 718.896 1340 718.896C1341.82 718.896 1343.53 718.23 1345 717.306L1345.66 717.967C1346.05 718.357 1346.68 718.357 1347.07 717.967C1347.46 717.576 1347.46 716.943 1347.07 716.553L1334.34 703.825C1333.95 703.434 1333.32 703.434 1332.93 703.825ZM1342.61 714.924L1336.97 709.282C1336.37 709.983 1336 710.897 1336 711.896C1336 714.105 1337.79 715.896 1340 715.896C1341 715.896 1341.91 715.53 1342.61 714.924ZM1341.56 708.21C1342.51 708.615 1343.28 709.382 1343.69 710.339L1348.08 714.729C1349.29 713.428 1350 712.242 1350 711.896C1350 711.03 1345.52 704.896 1340 704.896C1339.46 704.896 1338.93 704.955 1338.41 705.062L1341.56 708.21Z" fill="#F7F8F8"/>
<path fill-rule="evenodd" clip-rule="evenodd" d="M1332.93 703.825C1332.54 704.215 1332.54 704.848 1332.93 705.239L1334.51 706.815C1331.79 708.693 1330 711.348 1330 711.896C1330 712.762 1334.48 718.896 1340 718.896C1341.82 718.896 1343.53 718.23 1345 717.306L1345.66 717.967C1346.05 718.357 1346.68 718.357 1347.07 717.967C1347.46 717.576 1347.46 716.943 1347.07 716.553L1334.34 703.825C1333.95 703.434 1333.32 703.434 1332.93 703.825ZM1342.61 714.924L1336.97 709.282C1336.37 709.983 1336 710.897 1336 711.896C1336 714.105 1337.79 715.896 1340 715.896C1341 715.896 1341.91 715.53 1342.61 714.924ZM1341.56 708.21C1342.51 708.615 1343.28 709.382 1343.69 710.339L1348.08 714.729C1349.29 713.428 1350 712.242 1350 711.896C1350 711.03 1345.52 704.896 1340 704.896C1339.46 704.896 1338.93 704.955 1338.41 705.062L1341.56 708.21Z" fill="#78767F" fill-opacity="0.02"/>
<path fill-rule="evenodd" clip-rule="evenodd" d="M1332.93 703.825C1332.54 704.215 1332.54 704.848 1332.93 705.239L1334.51 706.815C1331.79 708.693 1330 711.348 1330 711.896C1330 712.762 1334.48 718.896 1340 718.896C1341.82 718.896 1343.53 718.23 1345 717.306L1345.66 717.967C1346.05 718.357 1346.68 718.357 1347.07 717.967C1347.46 717.576 1347.46 716.943 1347.07 716.553L1334.34 703.825C1333.95 703.434 1333.32 703.434 1332.93 703.825ZM1342.61 714.924L1336.97 709.282C1336.37 709.983 1336 710.897 1336 711.896C1336 714.105 1337.79 715.896 1340 715.896C1341 715.896 1341.91 715.53 1342.61 714.924ZM1341.56 708.21C1342.51 708.615 1343.28 709.382 1343.69 710.339L1348.08 714.729C1349.29 713.428 1350 712.242 1350 711.896C1350 711.03 1345.52 704.896 1340 704.896C1339.46 704.896 1338.93 704.955 1338.41 705.062L1341.56 708.21Z" fill="#5D34F2" fill-opacity="0.16"/>
<rect x="1184" y="769.896" width="180" height="36" rx="8" fill="#947DFF"/>
<path d="M1255.67 789.687C1255.79 791.146 1257.02 792.095 1258.81 792.095C1260.75 792.095 1261.97 791.105 1261.97 789.552C1261.97 788.31 1261.27 787.63 1259.52 787.191L1258.63 786.957C1257.47 786.658 1257 786.277 1257 785.615C1257 784.759 1257.75 784.197 1258.87 784.197C1259.93 784.197 1260.64 784.712 1260.79 785.58H1261.85C1261.76 784.214 1260.54 783.242 1258.91 783.242C1257.12 783.242 1255.92 784.214 1255.92 785.65C1255.92 786.851 1256.58 787.542 1258.11 787.929L1259.2 788.21C1260.36 788.503 1260.89 788.96 1260.89 789.681C1260.89 790.519 1260.05 791.134 1258.91 791.134C1257.71 791.134 1256.87 790.572 1256.74 789.687H1255.67ZM1263.62 791.896H1264.63V785.58H1263.62V791.896ZM1264.13 784.296C1264.52 784.296 1264.83 783.98 1264.83 783.593C1264.83 783.207 1264.52 782.89 1264.13 782.89C1263.74 782.89 1263.43 783.207 1263.43 783.593C1263.43 783.98 1263.74 784.296 1264.13 784.296ZM1269.11 790.912C1267.94 790.912 1267.28 790.021 1267.28 788.644C1267.28 787.267 1267.94 786.376 1269.11 786.376C1270.28 786.376 1270.98 787.267 1270.98 788.644C1270.98 790.021 1270.28 790.912 1269.11 790.912ZM1269.16 794.322C1270.88 794.322 1271.97 793.419 1271.97 792.007V785.58H1271.01V786.582H1270.91C1270.55 785.902 1269.77 785.468 1268.89 785.468C1267.26 785.468 1266.24 786.751 1266.24 788.644C1266.24 790.537 1267.25 791.802 1268.89 791.802C1269.75 791.802 1270.47 791.41 1270.87 790.712H1270.96V791.955C1270.96 792.886 1270.29 793.443 1269.16 793.443C1268.25 793.443 1267.69 793.109 1267.57 792.593H1266.51C1266.66 793.636 1267.63 794.322 1269.16 794.322ZM1273.87 791.896H1274.88V788.158C1274.88 787.05 1275.53 786.376 1276.53 786.376C1277.54 786.376 1278.02 786.916 1278.02 788.052V791.896H1279.03V787.806C1279.03 786.306 1278.24 785.468 1276.82 785.468C1275.85 785.468 1275.24 785.878 1274.92 786.576H1274.83V785.58H1273.87V791.896ZM1285.45 791.896V783.441H1284.39V791.896H1285.45ZM1287.47 791.896H1288.48V788.158C1288.48 787.05 1289.13 786.376 1290.14 786.376C1291.15 786.376 1291.63 786.916 1291.63 788.052V791.896H1292.63V787.806C1292.63 786.306 1291.84 785.468 1290.43 785.468C1289.46 785.468 1288.84 785.878 1288.53 786.576H1288.43V785.58H1287.47V791.896Z" fill="white"/>
<g style="mix-blend-mode:multiply">
<path d="M1242 504.896H1306V512.896C1306 519.523 1300.63 524.896 1294 524.896H1254C1247.37 524.896 1242 519.523 1242 512.896V504.896Z" fill="#A09BBB"/>
</g>
<rect x="1184" y="649.896" width="180" height="36" rx="8" fill="#FBF9FF"/>
<path d="M1231.85 672.095C1233.74 672.095 1234.97 671.111 1234.97 669.529V669.523C1234.97 668.304 1234.28 667.595 1232.51 667.203L1231.57 666.992C1230.43 666.74 1229.96 666.283 1229.96 665.609V665.603C1229.96 664.718 1230.78 664.22 1231.83 664.214C1232.93 664.208 1233.64 664.759 1233.75 665.503L1233.77 665.58H1234.82L1234.81 665.498C1234.73 664.238 1233.55 663.242 1231.86 663.242C1230.12 663.242 1228.89 664.232 1228.88 665.632V665.638C1228.88 666.863 1229.62 667.642 1231.31 668.017L1232.25 668.222C1233.41 668.48 1233.89 668.96 1233.89 669.664V669.669C1233.89 670.531 1233.06 671.123 1231.91 671.123C1230.69 671.123 1229.81 670.589 1229.73 669.746L1229.73 669.681H1228.67L1228.68 669.746C1228.8 671.123 1230 672.095 1231.85 672.095ZM1237.14 664.361C1237.53 664.361 1237.84 664.044 1237.84 663.658C1237.84 663.271 1237.53 662.955 1237.14 662.955C1236.75 662.955 1236.44 663.271 1236.44 663.658C1236.44 664.044 1236.75 664.361 1237.14 664.361ZM1236.62 671.896H1237.64V665.58H1236.62V671.896ZM1239.62 671.896H1240.64V663.072H1239.62V671.896ZM1244.39 671.896H1245.42L1247.76 665.58H1246.68L1244.95 670.783H1244.86L1243.13 665.58H1242.05L1244.39 671.896ZM1251.45 672.007C1252.94 672.007 1253.84 671.164 1254.06 670.308L1254.07 670.261H1253.05L1253.03 670.314C1252.86 670.695 1252.33 671.099 1251.47 671.099C1250.35 671.099 1249.63 670.337 1249.6 669.031H1254.14V668.632C1254.14 666.746 1253.1 665.468 1251.38 665.468C1249.67 665.468 1248.55 666.804 1248.55 668.755V668.761C1248.55 670.742 1249.64 672.007 1251.45 672.007ZM1251.38 666.376C1252.31 666.376 1253 666.968 1253.11 668.216H1249.62C1249.73 667.015 1250.44 666.376 1251.38 666.376ZM1255.73 671.896H1256.75V667.982C1256.75 667.056 1257.44 666.441 1258.41 666.441C1258.63 666.441 1258.83 666.464 1259.04 666.5V665.509C1258.94 665.492 1258.72 665.468 1258.53 665.468C1257.67 665.468 1257.08 665.855 1256.84 666.517H1256.75V665.58H1255.73V671.896ZM1260.36 671.896H1261.38V668.158C1261.38 667.05 1262.01 666.371 1263.02 666.371C1264.03 666.371 1264.5 666.916 1264.5 668.052V671.896H1265.52V667.806C1265.52 666.306 1264.73 665.468 1263.31 665.468C1262.38 665.468 1261.79 665.861 1261.47 666.529H1261.38V663.072H1260.36V671.896ZM1269.1 672.007C1269.95 672.007 1270.61 671.638 1271.01 670.964H1271.1V671.896H1272.12V667.572C1272.12 666.259 1271.26 665.468 1269.72 665.468C1268.37 665.468 1267.41 666.136 1267.25 667.126L1267.24 667.162H1268.26L1268.27 667.144C1268.43 666.652 1268.93 666.371 1269.68 666.371C1270.63 666.371 1271.1 666.792 1271.1 667.572V668.146L1269.29 668.257C1267.82 668.345 1266.99 668.996 1266.99 670.121V670.132C1266.99 671.281 1267.9 672.007 1269.1 672.007ZM1268.03 670.109V670.097C1268.03 669.47 1268.45 669.13 1269.41 669.072L1271.1 668.966V669.541C1271.1 670.443 1270.35 671.123 1269.31 671.123C1268.58 671.123 1268.03 670.748 1268.03 670.109ZM1273.98 671.896H1275V668.158C1275 667.05 1275.64 666.371 1276.65 666.371C1277.66 666.371 1278.13 666.916 1278.13 668.052V671.896H1279.15V667.806C1279.15 666.306 1278.36 665.468 1276.94 665.468C1276.01 665.468 1275.41 665.861 1275.1 666.529H1275V665.58H1273.98V671.896ZM1283.32 672.007C1284.2 672.007 1284.91 671.591 1285.29 670.888H1285.39V671.896H1286.41V663.072H1285.39V666.576H1285.29C1284.95 665.902 1284.19 665.468 1283.32 665.468C1281.72 665.468 1280.68 666.751 1280.68 668.732V668.744C1280.68 670.712 1281.72 672.007 1283.32 672.007ZM1283.56 671.105C1282.4 671.105 1281.72 670.214 1281.72 668.744V668.732C1281.72 667.261 1282.4 666.371 1283.56 666.371C1284.71 666.371 1285.41 667.273 1285.41 668.732V668.744C1285.41 670.203 1284.71 671.105 1283.56 671.105ZM1288.36 671.896H1293.83V670.947H1289.82V670.853L1291.74 668.867C1293.27 667.291 1293.69 666.587 1293.69 665.621V665.609C1293.69 664.244 1292.56 663.242 1291.08 663.242C1289.46 663.242 1288.3 664.32 1288.3 665.82L1288.31 665.826L1289.32 665.832L1289.32 665.82C1289.32 664.824 1290 664.162 1291.01 664.162C1292.01 664.162 1292.61 664.83 1292.61 665.72V665.732C1292.61 666.47 1292.29 666.91 1291.22 668.076L1288.36 671.169V671.896ZM1298.43 672.095C1300.3 672.095 1301.42 670.39 1301.42 667.671V667.66C1301.42 664.941 1300.3 663.242 1298.43 663.242C1296.56 663.242 1295.45 664.941 1295.45 667.66V667.671C1295.45 670.39 1296.56 672.095 1298.43 672.095ZM1298.43 671.175C1297.22 671.175 1296.51 669.828 1296.51 667.671V667.66C1296.51 665.503 1297.22 664.167 1298.43 664.167C1299.64 664.167 1300.36 665.503 1300.36 667.66V667.671C1300.36 669.828 1299.64 671.175 1298.43 671.175ZM1303.16 671.896H1308.63V670.947H1304.62V670.853L1306.54 668.867C1308.07 667.291 1308.49 666.587 1308.49 665.621V665.609C1308.49 664.244 1307.36 663.242 1305.88 663.242C1304.27 663.242 1303.11 664.32 1303.1 665.82L1303.11 665.826L1304.12 665.832L1304.12 665.82C1304.12 664.824 1304.8 664.162 1305.81 664.162C1306.81 664.162 1307.41 664.83 1307.41 665.72V665.732C1307.41 666.47 1307.1 666.91 1306.02 668.076L1303.16 671.169V671.896ZM1310.4 671.896H1315.87V670.947H1311.87V670.853L1313.79 668.867C1315.32 667.291 1315.73 666.587 1315.73 665.621V665.609C1315.73 664.244 1314.6 663.242 1313.12 663.242C1311.51 663.242 1310.35 664.32 1310.34 665.82L1310.35 665.826L1311.36 665.832L1311.37 665.82C1311.37 664.824 1312.04 664.162 1313.05 664.162C1314.05 664.162 1314.65 664.83 1314.65 665.72V665.732C1314.65 666.47 1314.34 666.91 1313.26 668.076L1310.4 671.169V671.896Z" fill="#625A6F"/>
<g style="mix-blend-mode:multiply">
<path d="M1363.5 919.896C1401.9 915.896 1413.83 961.563 1415 984.896H1194C1233.5 929.396 1276 961.896 1299.5 965.396C1323 968.896 1315.5 924.896 1363.5 919.896Z" fill="#BCB5DB"/>
</g>
<path d="M1277.71 969.413C1273.86 966.019 1270.11 961.603 1269.51 956.304C1269.23 953.789 1269.46 950.751 1271.55 949.004C1273.51 947.352 1276.25 947.238 1278.65 947.767C1283.99 948.944 1288.33 952.81 1293.87 953.296C1295.6 953.448 1297.33 953.32 1299.01 952.946C1307.6 941.56 1312.65 928.188 1314.73 913.867C1314.75 913.739 1314.75 913.612 1314.77 913.492C1313.36 913.946 1311.94 914.351 1310.5 914.666C1306.78 915.477 1302.94 915.744 1299.14 915.558C1295.35 915.376 1291.32 914.754 1287.76 913.397C1286.25 912.82 1284.78 911.807 1284.15 910.25C1283.41 908.377 1284.33 906.616 1285.57 905.221C1290.07 900.151 1296.81 898.461 1303.19 897.121C1307.6 896.188 1312.51 895.188 1316.16 892.457C1316.19 881.81 1315.48 871.133 1314.95 860.509C1314.9 859.642 1314.87 858.769 1314.82 857.892C1313.36 858.747 1311.92 859.644 1310.52 860.59C1308.85 861.896 1307.18 863.193 1305.5 864.499C1305.26 864.684 1305.01 864.81 1304.76 864.905C1304.45 865.165 1304.13 865.4 1303.81 865.661C1302.79 866.522 1301.28 866.339 1300.36 865.461C1300.3 865.404 1300.24 865.329 1300.2 865.266C1298.81 864.891 1297.75 863.541 1298.45 861.869C1300.38 857.31 1303.71 853.715 1307.1 850.2C1309.82 847.393 1312.64 844.526 1314.48 841.062C1314.66 826.801 1316.4 812.59 1322.15 799.386C1323.14 797.114 1320.71 795.313 1318.66 795.982C1302.06 801.452 1286.06 808.437 1270.6 816.52C1268.06 820.056 1267.68 825.037 1267.43 829.222C1267.26 832.086 1267.25 834.956 1267.43 837.819C1267.59 840.429 1267.68 843.053 1265.84 845.161C1264.31 846.921 1262.09 847.719 1259.89 848.275C1258.68 848.58 1257.47 848.767 1256.32 848.144C1255.09 847.462 1254.72 846.142 1254.35 844.884C1253.02 840.367 1250.87 833.32 1251.22 827.374C1241.07 833.439 1231.16 839.916 1221.51 846.719C1219.9 853.441 1223.28 861.131 1225.77 867.355C1228.68 874.615 1231.77 883.776 1227.91 891.293C1226.19 894.645 1223.03 897.24 1219.16 897.47C1217.36 897.58 1214.76 897.309 1213.88 895.475C1213.11 893.866 1212.86 892.066 1211.99 890.455C1207.95 883.066 1200.07 878.774 1194.18 873.051C1193.05 871.947 1192.16 870.831 1191.64 869.678C1187 874.087 1182.79 878.88 1179.38 884.242C1174.92 891.269 1172.29 899.063 1171.29 907.067C1171.69 907.562 1172.12 908.029 1172.55 908.448C1173.5 909.354 1174.64 910.209 1175.73 910.848C1176.81 911.475 1177.95 912.001 1178.95 912.76C1181.53 914.752 1182.47 918.012 1180.65 920.867C1178.95 923.54 1175.49 924.43 1172.49 924.499C1172.17 924.502 1171.9 924.462 1171.62 924.419C1172.21 928.165 1173.12 931.879 1174.36 935.505C1177.29 944.112 1181.99 951.927 1187.79 958.863C1196.32 963.896 1207.13 964.068 1216.19 958.751C1216.46 958.598 1216.74 958.528 1217.03 958.513C1219.64 951.539 1222.58 944.706 1225.8 938.03C1231.89 925.312 1238.79 913.06 1245.92 900.993L1267.52 864.925C1274.76 852.935 1282.3 841.03 1291.36 830.328C1282.64 841.31 1275.51 853.39 1268.66 865.587L1248.22 902.29C1241.48 914.546 1235.01 926.947 1229.38 939.674C1225.93 947.458 1222.87 955.393 1220.28 963.468C1221.66 970.048 1225.47 975.93 1230.96 979.915C1232.12 980.755 1233.35 981.468 1234.63 982.104C1241.39 984.144 1248.6 984.541 1255.75 983.831C1264.54 981.243 1272.73 976.849 1280.12 971.367C1279.27 970.744 1278.47 970.095 1277.71 969.413Z" fill="#7D7A9C"/>
<g style="mix-blend-mode:multiply" opacity="0.6">
<path d="M764.089 963.496C770.551 967.544 778.882 971.281 784.487 976.965C785.967 978.444 787.212 980.079 787.913 981.792L796.788 981.791C793.908 976.964 789.704 973.383 789.47 967.466C789.314 961.939 792.195 956.8 793.596 951.584C796.321 941.696 799.28 931.887 802.394 922.155C806.287 909.854 811.892 898.254 818.588 887.276C821.001 883.461 823.492 879.646 826.14 875.987C828.475 872.795 830.266 869.214 827.852 865.477C826.295 863.141 824.816 860.805 823.259 858.47C819.989 853.643 817.186 847.882 810.802 852.008C808.7 853.409 806.053 854.733 804.262 856.523C803.172 857.613 790.716 868.124 789.159 868.902C789.47 868.747 790.404 864.465 790.56 863.92C791.572 861.039 792.818 858.236 793.986 855.433C796.71 849.205 805.197 840.408 796.788 835.892C792.039 833.401 786.979 831.454 781.918 829.508L781.918 829.508C781.373 829.274 780.672 829.041 780.05 829.119C778.181 829.274 777.714 832.077 777.091 833.478C775.3 837.371 773.51 841.264 771.641 845.079C770.863 846.558 766.269 853.331 766.503 854.499C766.191 852.942 765.413 826.705 765.413 826.705L765.413 826.705C763.7 815.805 761.987 804.906 759.963 794.084C759.885 793.617 759.807 793.072 759.574 792.683C758.172 790.191 752.1 790.269 749.686 790.036C746.339 789.724 742.913 789.958 739.565 790.503C736.451 791.048 726.875 792.06 725.084 795.096C724.461 796.108 725.162 798.21 725.396 799.3C725.941 802.259 726.953 805.062 727.42 807.942C728.121 811.991 728.743 816.039 729.366 820.087C731.079 831.766 731.78 843.755 731.624 855.356C731.624 856.822 730.859 861.424 731.528 862.491C731.014 861.71 719.795 844.701 716.676 841.887C703.986 846.169 702.896 856.913 702.662 859.326C703.518 860.416 716.442 880.814 718.856 884.24C721.191 887.665 732.091 912.579 732.091 912.579C732.091 912.579 713.017 897.008 708.501 894.594C703.986 894.906 700.326 914.525 701.105 915.304C701.884 916.16 721.269 929.629 735.283 942.631C743.875 950.603 754.083 957.114 763.917 963.386L764.089 963.496Z" fill="#888098"/>
</g>
<rect x="764" y="624.896" width="480" height="360" rx="32" fill="#DFD7ED"/>
<path d="M798.237 893.896H802.291C804.396 893.896 805.661 892.843 805.661 891.114V891.1C805.661 889.815 804.772 888.872 803.439 888.728V888.612C804.41 888.448 805.169 887.525 805.169 886.5V886.486C805.169 884.975 804.055 884.032 802.202 884.032H798.237V893.896ZM801.847 885.283C802.981 885.283 803.645 885.823 803.645 886.752V886.766C803.645 887.723 802.94 888.229 801.587 888.229H799.769V885.283H801.847ZM801.895 889.398C803.337 889.398 804.096 889.945 804.096 891.004V891.018C804.096 892.078 803.364 892.645 801.983 892.645H799.769V889.398H801.895ZM807.459 893.896H808.942V889.459C808.942 888.386 809.715 887.689 810.85 887.689C811.13 887.689 811.383 887.723 811.649 887.778V886.411C811.499 886.376 811.239 886.342 811 886.342C810.009 886.342 809.318 886.807 809.052 887.593H808.942V886.472H807.459V893.896ZM815.047 894.019C816.031 894.019 816.811 893.595 817.248 892.843H817.364V893.896H818.834V888.817C818.834 887.258 817.781 886.329 815.915 886.329C814.227 886.329 813.058 887.142 812.88 888.359L812.873 888.407H814.302L814.309 888.379C814.486 887.853 815.026 887.552 815.847 887.552C816.852 887.552 817.364 888.003 817.364 888.817V889.473L815.354 889.589C813.584 889.699 812.586 890.471 812.586 891.797V891.811C812.586 893.158 813.632 894.019 815.047 894.019ZM814.062 891.75V891.736C814.062 891.066 814.527 890.697 815.553 890.635L817.364 890.519V891.155C817.364 892.112 816.551 892.836 815.443 892.836C814.644 892.836 814.062 892.433 814.062 891.75ZM820.926 893.896H822.409V889.542C822.409 888.345 823.086 887.6 824.173 887.6C825.26 887.6 825.772 888.208 825.772 889.439V893.896H827.249V889.09C827.249 887.32 826.333 886.329 824.672 886.329C823.592 886.329 822.881 886.807 822.519 887.6H822.409V886.472H820.926V893.896ZM832.027 894.019C833.066 894.019 833.88 893.541 834.311 892.727H834.427V893.896H835.903V883.56H834.427V887.648H834.311C833.914 886.848 833.046 886.342 832.027 886.342C830.141 886.342 828.951 887.826 828.951 890.177V890.191C828.951 892.522 830.161 894.019 832.027 894.019ZM832.451 892.754C831.207 892.754 830.462 891.784 830.462 890.191V890.177C830.462 888.584 831.207 887.614 832.451 887.614C833.682 887.614 834.447 888.591 834.447 890.177V890.191C834.447 891.777 833.688 892.754 832.451 892.754ZM838.884 885.146C839.39 885.146 839.813 884.729 839.813 884.223C839.813 883.71 839.39 883.293 838.884 883.293C838.371 883.293 837.954 883.71 837.954 884.223C837.954 884.729 838.371 885.146 838.884 885.146ZM838.139 893.896H839.615V886.472H838.139V893.896ZM841.775 893.896H843.259V889.542C843.259 888.345 843.936 887.6 845.022 887.6C846.109 887.6 846.622 888.208 846.622 889.439V893.896H848.099V889.09C848.099 887.32 847.183 886.329 845.521 886.329C844.441 886.329 843.73 886.807 843.368 887.6H843.259V886.472H841.775V893.896ZM853.308 896.514C855.413 896.514 856.746 895.434 856.746 893.746V886.472H855.27V887.689H855.181C854.75 886.855 853.943 886.342 852.904 886.342C850.977 886.342 849.794 887.839 849.794 889.958V889.972C849.794 892.064 850.97 893.534 852.877 893.534C853.896 893.534 854.716 893.083 855.167 892.276H855.276V893.739C855.276 894.75 854.552 895.325 853.328 895.325C852.323 895.325 851.722 894.962 851.599 894.45L851.592 894.436H850.095L850.081 894.45C850.259 895.687 851.421 896.514 853.308 896.514ZM853.287 892.31C852.022 892.31 851.312 891.346 851.312 889.965V889.952C851.312 888.571 852.022 887.6 853.287 887.6C854.538 887.6 855.304 888.571 855.304 889.952V889.965C855.304 891.353 854.545 892.31 853.287 892.31ZM864.744 894.019C865.729 894.019 866.508 893.595 866.945 892.843H867.062V893.896H868.531V888.817C868.531 887.258 867.479 886.329 865.612 886.329C863.924 886.329 862.755 887.142 862.577 888.359L862.57 888.407H863.999L864.006 888.379C864.184 887.853 864.724 887.552 865.544 887.552C866.549 887.552 867.062 888.003 867.062 888.817V889.473L865.052 889.589C863.281 889.699 862.283 890.471 862.283 891.797V891.811C862.283 893.158 863.329 894.019 864.744 894.019ZM863.76 891.75V891.736C863.76 891.066 864.225 890.697 865.25 890.635L867.062 890.519V891.155C867.062 892.112 866.248 892.836 865.141 892.836C864.341 892.836 863.76 892.433 863.76 891.75ZM870.623 893.896H872.106V889.459C872.106 888.386 872.879 887.689 874.014 887.689C874.294 887.689 874.547 887.723 874.813 887.778V886.411C874.663 886.376 874.403 886.342 874.164 886.342C873.173 886.342 872.482 886.807 872.216 887.593H872.106V886.472H870.623V893.896ZM879.154 894.04C881.055 894.04 882.08 892.946 882.326 891.968L882.34 891.907L880.911 891.914L880.884 891.968C880.706 892.351 880.139 892.823 879.188 892.823C877.965 892.823 877.186 891.996 877.158 890.574H882.422V890.054C882.422 887.826 881.15 886.329 879.079 886.329C877.008 886.329 875.668 887.88 875.668 890.198V890.205C875.668 892.556 876.98 894.04 879.154 894.04ZM879.086 887.545C880.091 887.545 880.836 888.188 880.952 889.514H877.179C877.309 888.236 878.074 887.545 879.086 887.545ZM886.223 894.019C887.207 894.019 887.986 893.595 888.424 892.843H888.54V893.896H890.01V888.817C890.01 887.258 888.957 886.329 887.091 886.329C885.402 886.329 884.233 887.142 884.056 888.359L884.049 888.407H885.478L885.484 888.379C885.662 887.853 886.202 887.552 887.022 887.552C888.027 887.552 888.54 888.003 888.54 888.817V889.473L886.53 889.589C884.76 889.699 883.762 890.471 883.762 891.797V891.811C883.762 893.158 884.808 894.019 886.223 894.019ZM885.238 891.75V891.736C885.238 891.066 885.703 890.697 886.729 890.635L888.54 890.519V891.155C888.54 892.112 887.727 892.836 886.619 892.836C885.819 892.836 885.238 892.433 885.238 891.75Z" fill="#191C1D"/>
<circle cx="807" cy="916.896" r="5" fill="#5D34F2"/>
<rect x="799" y="908.896" width="16" height="16" rx="8" stroke="#5D34F2" stroke-width="2"/>
<path d="M825.472 921.896H826.764L827.755 919.073H831.679L832.67 921.896H833.962L830.325 912.032H829.108L825.472 921.896ZM829.662 913.625H829.771L831.316 918.027H828.117L829.662 913.625ZM835.541 924.357H836.73V920.734H836.84C837.243 921.52 838.125 922.026 839.137 922.026C841.01 922.026 842.227 920.529 842.227 918.218V918.205C842.227 915.908 841.003 914.397 839.137 914.397C838.111 914.397 837.291 914.882 836.84 915.703H836.73V914.527H835.541V924.357ZM838.863 920.973C837.523 920.973 836.703 919.92 836.703 918.218V918.205C836.703 916.502 837.523 915.45 838.863 915.45C840.21 915.45 841.01 916.489 841.01 918.205V918.218C841.01 919.934 840.21 920.973 838.863 920.973ZM844.086 924.357H845.275V920.734H845.385C845.788 921.52 846.67 922.026 847.682 922.026C849.555 922.026 850.771 920.529 850.771 918.218V918.205C850.771 915.908 849.548 914.397 847.682 914.397C846.656 914.397 845.836 914.882 845.385 915.703H845.275V914.527H844.086V924.357ZM847.408 920.973C846.068 920.973 845.248 919.92 845.248 918.218V918.205C845.248 916.502 846.068 915.45 847.408 915.45C848.755 915.45 849.555 916.489 849.555 918.205V918.218C849.555 919.934 848.755 920.973 847.408 920.973ZM856.719 921.896H862.707V920.789H857.949V912.032H856.719V921.896ZM867.212 922.026C869.311 922.026 870.609 920.577 870.609 918.218V918.205C870.609 915.839 869.311 914.397 867.212 914.397C865.113 914.397 863.814 915.839 863.814 918.205V918.218C863.814 920.577 865.113 922.026 867.212 922.026ZM867.212 920.973C865.817 920.973 865.031 919.955 865.031 918.218V918.205C865.031 916.461 865.817 915.45 867.212 915.45C868.606 915.45 869.393 916.461 869.393 918.205V918.218C869.393 919.955 868.606 920.973 867.212 920.973ZM875.49 924.494C877.5 924.494 878.771 923.441 878.771 921.793V914.527H877.582V915.744H877.5C877.049 914.91 876.242 914.397 875.203 914.397C873.275 914.397 872.086 915.894 872.086 917.958V917.972C872.086 920.037 873.269 921.513 875.176 921.513C876.188 921.513 877.021 921.055 877.486 920.242H877.596V921.732C877.596 922.819 876.81 923.441 875.49 923.441C874.431 923.441 873.774 923.044 873.645 922.484L873.638 922.477H872.407L872.394 922.484C872.578 923.694 873.713 924.494 875.49 924.494ZM875.436 920.46C874.068 920.46 873.303 919.435 873.303 917.972V917.958C873.303 916.496 874.068 915.45 875.436 915.45C876.796 915.45 877.623 916.496 877.623 917.958V917.972C877.623 919.435 876.803 920.46 875.436 920.46ZM884.015 922.026C886.113 922.026 887.412 920.577 887.412 918.218V918.205C887.412 915.839 886.113 914.397 884.015 914.397C881.916 914.397 880.617 915.839 880.617 918.205V918.218C880.617 920.577 881.916 922.026 884.015 922.026ZM884.015 920.973C882.62 920.973 881.834 919.955 881.834 918.218V918.205C881.834 916.461 882.62 915.45 884.015 915.45C885.409 915.45 886.195 916.461 886.195 918.205V918.218C886.195 919.955 885.409 920.973 884.015 920.973ZM894.617 921.896H895.807L897.447 916.195H897.557L899.204 921.896H900.4L902.465 914.527H901.282L899.833 920.419H899.724L898.076 914.527H896.948L895.301 920.419H895.191L893.742 914.527H892.553L894.617 921.896ZM904.666 913.105C905.117 913.105 905.486 912.736 905.486 912.285C905.486 911.833 905.117 911.464 904.666 911.464C904.215 911.464 903.846 911.833 903.846 912.285C903.846 912.736 904.215 913.105 904.666 913.105ZM904.064 921.896H905.254V914.527H904.064V921.896ZM910.114 921.951C910.347 921.951 910.572 921.923 910.805 921.882V920.871C910.586 920.891 910.47 920.898 910.258 920.898C909.492 920.898 909.191 920.549 909.191 919.681V915.511H910.805V914.527H909.191V912.62H907.961V914.527H906.799V915.511H907.961V919.982C907.961 921.39 908.597 921.951 910.114 921.951ZM912.65 921.896H913.84V917.535C913.84 916.243 914.585 915.45 915.761 915.45C916.937 915.45 917.483 916.085 917.483 917.412V921.896H918.673V917.125C918.673 915.375 917.75 914.397 916.096 914.397C915.009 914.397 914.318 914.855 913.949 915.634H913.84V911.601H912.65V921.896ZM924.764 921.896H925.953V917.33C925.953 916.291 926.685 915.45 927.648 915.45C928.578 915.45 929.18 916.017 929.18 916.892V921.896H930.369V917.159C930.369 916.222 931.046 915.45 932.071 915.45C933.11 915.45 933.609 915.99 933.609 917.077V921.896H934.799V916.803C934.799 915.258 933.958 914.397 932.454 914.397C931.436 914.397 930.595 914.91 930.198 915.689H930.089C929.747 914.923 929.05 914.397 928.052 914.397C927.088 914.397 926.391 914.855 926.062 915.648H925.953V914.527H924.764V921.896ZM939.953 922.026C941.689 922.026 942.742 921.042 942.995 920.043L943.009 919.989H941.819L941.792 920.05C941.594 920.495 940.979 920.966 939.98 920.966C938.668 920.966 937.827 920.078 937.793 918.553H943.098V918.088C943.098 915.887 941.881 914.397 939.878 914.397C937.875 914.397 936.576 915.956 936.576 918.232V918.239C936.576 920.549 937.848 922.026 939.953 922.026ZM939.871 915.457C940.958 915.457 941.765 916.147 941.888 917.603H937.813C937.943 916.202 938.777 915.457 939.871 915.457ZM947.473 922.026C949.147 922.026 950.426 921.117 950.426 919.804V919.791C950.426 918.738 949.756 918.136 948.368 917.801L947.233 917.528C946.365 917.316 945.996 917.001 945.996 916.502V916.489C945.996 915.839 946.639 915.388 947.514 915.388C948.402 915.388 948.977 915.792 949.134 916.373H950.303C950.139 915.169 949.065 914.397 947.521 914.397C945.955 914.397 944.779 915.32 944.779 916.543V916.55C944.779 917.61 945.401 918.211 946.782 918.54L947.924 918.813C948.833 919.032 949.209 919.38 949.209 919.879V919.893C949.209 920.563 948.505 921.035 947.514 921.035C946.57 921.035 945.982 920.631 945.784 920.016H944.567C944.704 921.233 945.832 922.026 947.473 922.026ZM954.664 922.026C956.339 922.026 957.617 921.117 957.617 919.804V919.791C957.617 918.738 956.947 918.136 955.56 917.801L954.425 917.528C953.557 917.316 953.188 917.001 953.188 916.502V916.489C953.188 915.839 953.83 915.388 954.705 915.388C955.594 915.388 956.168 915.792 956.325 916.373H957.494C957.33 915.169 956.257 914.397 954.712 914.397C953.146 914.397 951.971 915.32 951.971 916.543V916.55C951.971 917.61 952.593 918.211 953.974 918.54L955.115 918.813C956.024 919.032 956.4 919.38 956.4 919.879V919.893C956.4 920.563 955.696 921.035 954.705 921.035C953.762 921.035 953.174 920.631 952.976 920.016H951.759C951.896 921.233 953.023 922.026 954.664 922.026ZM961.486 922.026C962.478 922.026 963.25 921.595 963.715 920.809H963.824V921.896H965.014V916.851C965.014 915.32 964.009 914.397 962.211 914.397C960.639 914.397 959.518 915.176 959.326 916.332L959.319 916.373H960.509L960.516 916.352C960.707 915.778 961.288 915.45 962.17 915.45C963.271 915.45 963.824 915.942 963.824 916.851V917.521L961.712 917.651C959.996 917.753 959.025 918.512 959.025 919.825V919.838C959.025 921.178 960.085 922.026 961.486 922.026ZM960.242 919.811V919.797C960.242 919.066 960.734 918.669 961.855 918.601L963.824 918.478V919.148C963.824 920.201 962.942 920.994 961.732 920.994C960.878 920.994 960.242 920.556 960.242 919.811ZM970.223 924.494C972.232 924.494 973.504 923.441 973.504 921.793V914.527H972.314V915.744H972.232C971.781 914.91 970.975 914.397 969.936 914.397C968.008 914.397 966.818 915.894 966.818 917.958V917.972C966.818 920.037 968.001 921.513 969.908 921.513C970.92 921.513 971.754 921.055 972.219 920.242H972.328V921.732C972.328 922.819 971.542 923.441 970.223 923.441C969.163 923.441 968.507 923.044 968.377 922.484L968.37 922.477H967.14L967.126 922.484C967.311 923.694 968.445 924.494 970.223 924.494ZM970.168 920.46C968.801 920.46 968.035 919.435 968.035 917.972V917.958C968.035 916.496 968.801 915.45 970.168 915.45C971.528 915.45 972.355 916.496 972.355 917.958V917.972C972.355 919.435 971.535 920.46 970.168 920.46ZM978.727 922.026C980.463 922.026 981.516 921.042 981.769 920.043L981.782 919.989H980.593L980.565 920.05C980.367 920.495 979.752 920.966 978.754 920.966C977.441 920.966 976.601 920.078 976.566 918.553H981.871V918.088C981.871 915.887 980.654 914.397 978.651 914.397C976.648 914.397 975.35 915.956 975.35 918.232V918.239C975.35 920.549 976.621 922.026 978.727 922.026ZM978.645 915.457C979.731 915.457 980.538 916.147 980.661 917.603H976.587C976.717 916.202 977.551 915.457 978.645 915.457Z" fill="#191C1D"/>
<circle cx="807" cy="944.896" r="8" fill="#F7F8F8"/>
<circle cx="807" cy="944.896" r="8" fill="#78767F" fill-opacity="0.02"/>
<circle cx="807" cy="944.896" r="8" fill="#5D34F2" fill-opacity="0.14"/>
<circle cx="807" cy="944.896" r="8" stroke="#A398B7" stroke-width="2"/>
<path d="M825.472 949.896H826.764L827.755 947.073H831.679L832.67 949.896H833.962L830.325 940.032H829.108L825.472 949.896ZM829.662 941.625H829.771L831.316 946.027H828.117L829.662 941.625ZM835.541 952.357H836.73V948.734H836.84C837.243 949.52 838.125 950.026 839.137 950.026C841.01 950.026 842.227 948.529 842.227 946.218V946.205C842.227 943.908 841.003 942.397 839.137 942.397C838.111 942.397 837.291 942.882 836.84 943.703H836.73V942.527H835.541V952.357ZM838.863 948.973C837.523 948.973 836.703 947.92 836.703 946.218V946.205C836.703 944.502 837.523 943.45 838.863 943.45C840.21 943.45 841.01 944.489 841.01 946.205V946.218C841.01 947.934 840.21 948.973 838.863 948.973ZM844.086 952.357H845.275V948.734H845.385C845.788 949.52 846.67 950.026 847.682 950.026C849.555 950.026 850.771 948.529 850.771 946.218V946.205C850.771 943.908 849.548 942.397 847.682 942.397C846.656 942.397 845.836 942.882 845.385 943.703H845.275V942.527H844.086V952.357ZM847.408 948.973C846.068 948.973 845.248 947.92 845.248 946.218V946.205C845.248 944.502 846.068 943.45 847.408 943.45C848.755 943.45 849.555 944.489 849.555 946.205V946.218C849.555 947.934 848.755 948.973 847.408 948.973ZM856.719 949.896H862.707V948.789H857.949V940.032H856.719V949.896ZM867.212 950.026C869.311 950.026 870.609 948.577 870.609 946.218V946.205C870.609 943.839 869.311 942.397 867.212 942.397C865.113 942.397 863.814 943.839 863.814 946.205V946.218C863.814 948.577 865.113 950.026 867.212 950.026ZM867.212 948.973C865.817 948.973 865.031 947.955 865.031 946.218V946.205C865.031 944.461 865.817 943.45 867.212 943.45C868.606 943.45 869.393 944.461 869.393 946.205V946.218C869.393 947.955 868.606 948.973 867.212 948.973ZM875.49 952.494C877.5 952.494 878.771 951.441 878.771 949.793V942.527H877.582V943.744H877.5C877.049 942.91 876.242 942.397 875.203 942.397C873.275 942.397 872.086 943.894 872.086 945.958V945.972C872.086 948.037 873.269 949.513 875.176 949.513C876.188 949.513 877.021 949.055 877.486 948.242H877.596V949.732C877.596 950.819 876.81 951.441 875.49 951.441C874.431 951.441 873.774 951.044 873.645 950.484L873.638 950.477H872.407L872.394 950.484C872.578 951.694 873.713 952.494 875.49 952.494ZM875.436 948.46C874.068 948.46 873.303 947.435 873.303 945.972V945.958C873.303 944.496 874.068 943.45 875.436 943.45C876.796 943.45 877.623 944.496 877.623 945.958V945.972C877.623 947.435 876.803 948.46 875.436 948.46ZM884.015 950.026C886.113 950.026 887.412 948.577 887.412 946.218V946.205C887.412 943.839 886.113 942.397 884.015 942.397C881.916 942.397 880.617 943.839 880.617 946.205V946.218C880.617 948.577 881.916 950.026 884.015 950.026ZM884.015 948.973C882.62 948.973 881.834 947.955 881.834 946.218V946.205C881.834 944.461 882.62 943.45 884.015 943.45C885.409 943.45 886.195 944.461 886.195 946.205V946.218C886.195 947.955 885.409 948.973 884.015 948.973Z" fill="#191C1D"/>
<path d="M797.025 697.896H800.822C802.627 697.896 803.746 696.964 803.746 695.482V695.47C803.746 694.386 802.932 693.548 801.812 693.46V693.355C802.68 693.226 803.342 692.447 803.342 691.556V691.544C803.342 690.244 802.363 689.441 800.723 689.441H797.025V697.896ZM800.271 690.753C801.115 690.753 801.602 691.164 801.602 691.849V691.861C801.602 692.558 801.08 692.957 800.125 692.957H798.795V690.753H800.271ZM800.33 694.123C801.373 694.123 801.941 694.544 801.941 695.33V695.341C801.941 696.144 801.391 696.578 800.371 696.578H798.795V694.123H800.33ZM806.546 697.896H808.315V694.802H809.762L811.339 697.896H813.343L811.561 694.539C812.528 694.158 813.091 693.226 813.091 692.142V692.13C813.091 690.466 811.989 689.441 810.067 689.441H806.546V697.896ZM808.315 693.513V690.824H809.85C810.735 690.824 811.28 691.351 811.28 692.166V692.177C811.28 693.009 810.759 693.513 809.874 693.513H808.315ZM815.474 697.896H817.332L817.959 695.845H820.941L821.568 697.896H823.431L820.49 689.441H818.41L815.474 697.896ZM819.4 691.128H819.505L820.537 694.521H818.363L819.4 691.128ZM826.067 697.896H827.76V692.488H827.854L831.768 697.896H833.233V689.441H831.539V694.826H831.446L827.543 689.441H826.067V697.896ZM836.489 697.896H839.818C842.349 697.896 843.784 696.349 843.784 693.619V693.607C843.784 690.958 842.331 689.441 839.818 689.441H836.489V697.896ZM838.259 696.437V690.9H839.536C841.071 690.9 841.98 691.896 841.98 693.636V693.648C841.98 695.453 841.101 696.437 839.536 696.437H838.259ZM846.666 697.896H848.436V689.441H846.666V697.896ZM851.686 697.896H853.38V692.488H853.473L857.388 697.896H858.852V689.441H857.159V694.826H857.065L853.163 689.441H851.686V697.896ZM865.789 698.113C868.097 698.113 869.539 696.707 869.539 694.462V693.39H865.988V694.679H867.816L867.81 694.837C867.775 695.904 866.978 696.613 865.818 696.613C864.423 696.613 863.539 695.482 863.539 693.648V693.636C863.539 691.837 864.382 690.724 865.748 690.724C866.738 690.724 867.459 691.222 867.699 692.06L867.711 692.119H869.468L869.457 692.06C869.205 690.373 867.746 689.224 865.748 689.224C863.287 689.224 861.734 690.941 861.734 693.654V693.666C861.734 696.419 863.275 698.113 865.789 698.113Z" fill="#928F9A"/>
<rect x="1072.5" y="686.396" width="139" height="275" rx="19.5" fill="#EFE8FB" stroke="#C6BADA"/>
<circle cx="1142" cy="718.896" r="14" fill="#CABEFF"/>
<path d="M1098 740.896H1163.48M1186 740.896H1175.5" stroke="#D8D0E4" stroke-width="2" stroke-linecap="round"/>
<rect x="1086" y="756.896" width="112" height="20" rx="4" fill="#DBD1EB"/>
<path d="M1096.98 770.033C1098.4 770.033 1099.27 769.193 1099.27 767.955V764.259H1098.39V767.888C1098.39 768.705 1097.88 769.259 1096.98 769.259C1096.09 769.259 1095.57 768.705 1095.57 767.888V764.259H1094.7V767.955C1094.7 769.193 1095.57 770.033 1096.98 770.033ZM1102.12 769.978C1103.13 769.978 1103.88 769.443 1103.88 768.658V768.65C1103.88 768.037 1103.49 767.689 1102.67 767.498L1102 767.345C1101.52 767.232 1101.33 767.068 1101.33 766.802V766.794C1101.33 766.455 1101.66 766.224 1102.13 766.224C1102.61 766.224 1102.91 766.447 1102.99 766.744V766.751H1103.8V766.748C1103.72 766.056 1103.1 765.572 1102.13 765.572C1101.17 765.572 1100.48 766.103 1100.48 766.841V766.845C1100.48 767.466 1100.86 767.83 1101.66 768.013L1102.33 768.169C1102.82 768.283 1103.02 768.462 1103.02 768.728V768.736C1103.02 769.083 1102.66 769.322 1102.14 769.322C1101.63 769.322 1101.32 769.107 1101.22 768.787L1101.21 768.783H1100.37V768.787C1100.45 769.498 1101.1 769.978 1102.12 769.978ZM1106.67 769.978C1107.76 769.978 1108.34 769.353 1108.48 768.794L1108.49 768.759L1107.68 768.763L1107.66 768.794C1107.56 769.013 1107.23 769.283 1106.69 769.283C1105.99 769.283 1105.55 768.81 1105.53 767.998H1108.54V767.701C1108.54 766.427 1107.81 765.572 1106.63 765.572C1105.45 765.572 1104.68 766.458 1104.68 767.783V767.787C1104.68 769.13 1105.43 769.978 1106.67 769.978ZM1106.63 766.267C1107.21 766.267 1107.63 766.634 1107.7 767.392H1105.54C1105.62 766.662 1106.05 766.267 1106.63 766.267ZM1109.55 769.896H1110.39V767.361C1110.39 766.748 1110.84 766.349 1111.48 766.349C1111.64 766.349 1111.79 766.369 1111.94 766.4V765.619C1111.86 765.599 1111.71 765.58 1111.57 765.58C1111 765.58 1110.61 765.845 1110.46 766.294H1110.39V765.654H1109.55V769.896ZM1112.81 769.896H1113.66V767.408C1113.66 766.724 1114.05 766.298 1114.67 766.298C1115.29 766.298 1115.58 766.646 1115.58 767.349V769.896H1116.43V767.15C1116.43 766.138 1115.9 765.572 1114.95 765.572C1114.34 765.572 1113.93 765.845 1113.72 766.298H1113.66V765.654H1112.81V769.896ZM1118.77 769.966C1119.34 769.966 1119.78 769.724 1120.03 769.294H1120.1V769.896H1120.94V766.994C1120.94 766.103 1120.34 765.572 1119.27 765.572C1118.3 765.572 1117.64 766.037 1117.54 766.732L1117.53 766.759H1118.35L1118.35 766.744C1118.45 766.443 1118.76 766.271 1119.23 766.271C1119.8 766.271 1120.1 766.529 1120.1 766.994V767.369L1118.95 767.435C1117.94 767.498 1117.37 767.939 1117.37 768.697V768.705C1117.37 769.474 1117.96 769.966 1118.77 769.966ZM1118.21 768.669V768.662C1118.21 768.279 1118.48 768.068 1119.06 768.033L1120.1 767.966V768.33C1120.1 768.876 1119.63 769.291 1119 769.291C1118.54 769.291 1118.21 769.06 1118.21 768.669ZM1122.13 769.896H1122.98V767.291C1122.98 766.736 1123.36 766.298 1123.87 766.298C1124.37 766.298 1124.69 766.603 1124.69 767.087V769.896H1125.53V767.212C1125.53 766.701 1125.89 766.298 1126.43 766.298C1126.98 766.298 1127.25 766.587 1127.25 767.173V769.896H1128.09V766.97C1128.09 766.087 1127.59 765.572 1126.73 765.572C1126.14 765.572 1125.66 765.873 1125.44 766.33H1125.38C1125.19 765.873 1124.78 765.572 1124.2 765.572C1123.64 765.572 1123.23 765.841 1123.04 766.306H1122.98V765.654H1122.13V769.896ZM1131.05 769.978C1132.14 769.978 1132.73 769.353 1132.87 768.794L1132.88 768.759L1132.06 768.763L1132.04 768.794C1131.94 769.013 1131.62 769.283 1131.07 769.283C1130.38 769.283 1129.93 768.81 1129.91 767.998H1132.92V767.701C1132.92 766.427 1132.2 765.572 1131.01 765.572C1129.83 765.572 1129.06 766.458 1129.06 767.783V767.787C1129.06 769.13 1129.81 769.978 1131.05 769.978ZM1131.02 766.267C1131.59 766.267 1132.02 766.634 1132.08 767.392H1129.93C1130 766.662 1130.44 766.267 1131.02 766.267Z" fill="#928F9A"/>
<rect x="1086" y="784.896" width="112" height="20" rx="4" fill="#DBD1EB"/>
<path d="M1094.71 797.896H1095.58V795.97H1096.9C1098.01 795.97 1098.77 795.216 1098.77 794.115V794.107C1098.77 793.001 1098.01 792.259 1096.9 792.259H1094.71V797.896ZM1096.68 792.998C1097.44 792.998 1097.88 793.408 1097.88 794.111V794.119C1097.88 794.826 1097.44 795.236 1096.68 795.236H1095.58V792.998H1096.68ZM1100.81 797.966C1101.38 797.966 1101.82 797.724 1102.07 797.294H1102.14V797.896H1102.98V794.994C1102.98 794.103 1102.38 793.572 1101.31 793.572C1100.34 793.572 1099.68 794.037 1099.57 794.732L1099.57 794.759H1100.39L1100.39 794.744C1100.49 794.443 1100.8 794.271 1101.27 794.271C1101.84 794.271 1102.14 794.529 1102.14 794.994V795.369L1100.99 795.435C1099.98 795.498 1099.41 795.939 1099.41 796.697V796.705C1099.41 797.474 1100 797.966 1100.81 797.966ZM1100.25 796.669V796.662C1100.25 796.279 1100.52 796.068 1101.1 796.033L1102.14 795.966V796.33C1102.14 796.876 1101.67 797.291 1101.04 797.291C1100.58 797.291 1100.25 797.06 1100.25 796.669ZM1105.71 797.978C1106.72 797.978 1107.47 797.443 1107.47 796.658V796.65C1107.47 796.037 1107.08 795.689 1106.27 795.498L1105.59 795.345C1105.12 795.232 1104.92 795.068 1104.92 794.802V794.794C1104.92 794.455 1105.26 794.224 1105.72 794.224C1106.2 794.224 1106.5 794.447 1106.58 794.744V794.751H1107.39V794.748C1107.32 794.056 1106.7 793.572 1105.73 793.572C1104.77 793.572 1104.08 794.103 1104.08 794.841V794.845C1104.08 795.466 1104.45 795.83 1105.25 796.013L1105.93 796.169C1106.42 796.283 1106.62 796.462 1106.62 796.728V796.736C1106.62 797.083 1106.25 797.322 1105.73 797.322C1105.23 797.322 1104.92 797.107 1104.81 796.787L1104.81 796.783H1103.96V796.787C1104.04 797.498 1104.69 797.978 1105.71 797.978ZM1109.95 797.978C1110.96 797.978 1111.71 797.443 1111.71 796.658V796.65C1111.71 796.037 1111.32 795.689 1110.5 795.498L1109.83 795.345C1109.35 795.232 1109.16 795.068 1109.16 794.802V794.794C1109.16 794.455 1109.49 794.224 1109.96 794.224C1110.43 794.224 1110.73 794.447 1110.82 794.744V794.751H1111.62V794.748C1111.55 794.056 1110.93 793.572 1109.96 793.572C1109 793.572 1108.31 794.103 1108.31 794.841V794.845C1108.31 795.466 1108.68 795.83 1109.48 796.013L1110.16 796.169C1110.65 796.283 1110.85 796.462 1110.85 796.728V796.736C1110.85 797.083 1110.49 797.322 1109.96 797.322C1109.46 797.322 1109.15 797.107 1109.05 796.787L1109.04 796.783H1108.2V796.787C1108.28 797.498 1108.93 797.978 1109.95 797.978ZM1113.42 797.896H1114.28L1115.16 794.732H1115.22L1116.1 797.896H1116.97L1118.14 793.654H1117.3L1116.54 796.927H1116.48L1115.6 793.654H1114.8L1113.92 796.927H1113.86L1113.1 793.654H1112.25L1113.42 797.896ZM1120.64 797.978C1121.88 797.978 1122.64 797.146 1122.64 795.779V795.771C1122.64 794.404 1121.88 793.572 1120.64 793.572C1119.4 793.572 1118.63 794.408 1118.63 795.771V795.779C1118.63 797.146 1119.39 797.978 1120.64 797.978ZM1120.64 797.271C1119.91 797.271 1119.5 796.72 1119.5 795.779V795.771C1119.5 794.83 1119.91 794.279 1120.64 794.279C1121.37 794.279 1121.78 794.83 1121.78 795.771V795.779C1121.78 796.716 1121.37 797.271 1120.64 797.271ZM1123.66 797.896H1124.5V795.361C1124.5 794.748 1124.95 794.349 1125.59 794.349C1125.75 794.349 1125.9 794.369 1126.05 794.4V793.619C1125.96 793.599 1125.82 793.58 1125.68 793.58C1125.11 793.58 1124.72 793.845 1124.57 794.294H1124.5V793.654H1123.66V797.896ZM1128.3 797.966C1128.89 797.966 1129.36 797.693 1129.6 797.228H1129.67V797.896H1130.51V791.99H1129.67V794.326H1129.6C1129.38 793.869 1128.88 793.58 1128.3 793.58C1127.22 793.58 1126.54 794.427 1126.54 795.771V795.779C1126.54 797.111 1127.23 797.966 1128.3 797.966ZM1128.54 797.244C1127.83 797.244 1127.4 796.689 1127.4 795.779V795.771C1127.4 794.861 1127.83 794.306 1128.54 794.306C1129.24 794.306 1129.68 794.865 1129.68 795.771V795.779C1129.68 796.685 1129.25 797.244 1128.54 797.244Z" fill="#928F9A"/>
<rect x="1086" y="834.896" width="112" height="20" rx="6" fill="#7958FF"/>
<path d="M1129.61 846.423C1129.68 847.396 1130.5 848.029 1131.7 848.029C1132.99 848.029 1133.8 847.369 1133.8 846.333C1133.8 845.505 1133.34 845.052 1132.17 844.759L1131.58 844.603C1130.8 844.404 1130.49 844.15 1130.49 843.708C1130.49 843.138 1130.99 842.763 1131.74 842.763C1132.44 842.763 1132.92 843.107 1133.02 843.685H1133.72C1133.66 842.775 1132.85 842.126 1131.76 842.126C1130.57 842.126 1129.77 842.775 1129.77 843.732C1129.77 844.533 1130.21 844.994 1131.23 845.251L1131.95 845.439C1132.73 845.634 1133.08 845.939 1133.08 846.419C1133.08 846.978 1132.52 847.388 1131.77 847.388C1130.96 847.388 1130.4 847.013 1130.32 846.423H1129.61ZM1134.91 847.896H1135.58V843.685H1134.91V847.896ZM1135.24 842.83C1135.5 842.83 1135.71 842.619 1135.71 842.361C1135.71 842.103 1135.5 841.892 1135.24 841.892C1134.98 841.892 1134.77 842.103 1134.77 842.361C1134.77 842.619 1134.98 842.83 1135.24 842.83ZM1138.56 847.24C1137.78 847.24 1137.34 846.646 1137.34 845.728C1137.34 844.81 1137.78 844.216 1138.56 844.216C1139.34 844.216 1139.81 844.81 1139.81 845.728C1139.81 846.646 1139.34 847.24 1138.56 847.24ZM1138.59 849.513C1139.74 849.513 1140.47 848.912 1140.47 847.97V843.685H1139.83V844.353H1139.77C1139.52 843.9 1139 843.611 1138.41 843.611C1137.33 843.611 1136.65 844.466 1136.65 845.728C1136.65 846.99 1137.32 847.833 1138.41 847.833C1138.99 847.833 1139.47 847.572 1139.73 847.107H1139.8V847.935C1139.8 848.556 1139.35 848.927 1138.59 848.927C1137.99 848.927 1137.61 848.705 1137.54 848.361H1136.83C1136.93 849.056 1137.58 849.513 1138.59 849.513ZM1141.73 847.896H1142.41V845.404C1142.41 844.666 1142.84 844.216 1143.51 844.216C1144.18 844.216 1144.5 844.576 1144.5 845.333V847.896H1145.18V845.169C1145.18 844.169 1144.65 843.611 1143.7 843.611C1143.06 843.611 1142.65 843.884 1142.44 844.349H1142.38V843.685H1141.73V847.896ZM1149.45 847.896V842.259H1148.75V847.896H1149.45ZM1150.8 847.896H1151.48V845.404C1151.48 844.666 1151.91 844.216 1152.58 844.216C1153.25 844.216 1153.57 844.576 1153.57 845.333V847.896H1154.25V845.169C1154.25 844.169 1153.72 843.611 1152.77 843.611C1152.13 843.611 1151.72 843.884 1151.51 844.349H1151.45V843.685H1150.8V847.896Z" fill="white"/>
<path d="M1096 825.896H1154.71M1183 825.896H1167.14" stroke="#D8D0E4" stroke-width="2" stroke-linecap="round"/>
<circle cx="1089" cy="825.896" r="2.2" fill="white" stroke="#CDC5DB" stroke-width="1.6"/>
<path d="M1112.52 943.045C1113.87 943.045 1114.87 942.294 1115.08 941.134V941.125H1114.28L1114.27 941.134C1114.07 941.863 1113.4 942.316 1112.52 942.316C1111.3 942.316 1110.53 941.318 1110.53 939.732V939.723C1110.53 938.137 1111.3 937.135 1112.51 937.135C1113.39 937.135 1114.06 937.649 1114.27 938.462L1114.28 938.471H1115.07L1115.08 938.462C1114.89 937.245 1113.85 936.405 1112.51 936.405C1110.79 936.405 1109.72 937.68 1109.72 939.723V939.732C1109.72 941.771 1110.79 943.045 1112.52 943.045ZM1116.31 942.896H1117.07V939.96C1117.07 939.266 1117.59 938.805 1118.32 938.805C1118.49 938.805 1118.63 938.822 1118.79 938.849V938.106C1118.72 938.093 1118.56 938.075 1118.41 938.075C1117.77 938.075 1117.32 938.365 1117.14 938.862H1117.07V938.159H1116.31V942.896ZM1121.54 942.979C1122.66 942.979 1123.33 942.347 1123.49 941.705L1123.5 941.67H1122.74L1122.72 941.709C1122.59 941.995 1122.2 942.298 1121.56 942.298C1120.71 942.298 1120.17 941.727 1120.15 940.747H1123.56V940.448C1123.56 939.033 1122.78 938.075 1121.49 938.075C1120.2 938.075 1119.37 939.077 1119.37 940.541V940.545C1119.37 942.03 1120.19 942.979 1121.54 942.979ZM1121.49 938.756C1122.19 938.756 1122.7 939.2 1122.78 940.136H1120.16C1120.25 939.235 1120.78 938.756 1121.49 938.756ZM1126.05 942.979C1126.69 942.979 1127.18 942.703 1127.48 942.197H1127.55V942.896H1128.32V939.653C1128.32 938.668 1127.67 938.075 1126.51 938.075C1125.5 938.075 1124.78 938.576 1124.66 939.319L1124.65 939.345H1125.42L1125.42 939.332C1125.55 938.963 1125.92 938.752 1126.49 938.752C1127.19 938.752 1127.55 939.068 1127.55 939.653V940.083L1126.19 940.167C1125.09 940.233 1124.47 940.721 1124.47 941.564V941.573C1124.47 942.435 1125.15 942.979 1126.05 942.979ZM1125.25 941.556V941.547C1125.25 941.077 1125.56 940.822 1126.29 940.778L1127.55 940.699V941.129C1127.55 941.806 1126.98 942.316 1126.21 942.316C1125.66 942.316 1125.25 942.035 1125.25 941.556ZM1131.4 942.931C1131.55 942.931 1131.69 942.914 1131.84 942.887V942.237C1131.7 942.25 1131.62 942.254 1131.49 942.254C1131 942.254 1130.8 942.03 1130.8 941.472V938.792H1131.84V938.159H1130.8V936.933H1130.01V938.159H1129.26V938.792H1130.01V941.666C1130.01 942.571 1130.42 942.931 1131.4 942.931ZM1134.85 942.979C1135.96 942.979 1136.64 942.347 1136.8 941.705L1136.81 941.67H1136.05L1136.03 941.709C1135.9 941.995 1135.5 942.298 1134.86 942.298C1134.02 942.298 1133.48 941.727 1133.46 940.747H1136.87V940.448C1136.87 939.033 1136.08 938.075 1134.8 938.075C1133.51 938.075 1132.67 939.077 1132.67 940.541V940.545C1132.67 942.03 1133.49 942.979 1134.85 942.979ZM1134.79 938.756C1135.49 938.756 1136.01 939.2 1136.09 940.136H1133.47C1133.55 939.235 1134.09 938.756 1134.79 938.756ZM1140.18 942.896H1141.01L1141.64 941.081H1144.17L1144.8 942.896H1145.63L1143.3 936.555H1142.51L1140.18 942.896ZM1142.87 937.579H1142.94L1143.93 940.409H1141.88L1142.87 937.579ZM1148.32 942.979C1149.46 942.979 1150.1 942.369 1150.29 941.512L1150.3 941.463L1149.55 941.468L1149.54 941.494C1149.36 942.021 1148.96 942.303 1148.32 942.303C1147.48 942.303 1146.93 941.604 1146.93 940.514V940.505C1146.93 939.438 1147.47 938.752 1148.32 938.752C1149 938.752 1149.42 939.13 1149.54 939.596L1149.55 939.609H1150.31L1150.3 939.583C1150.16 938.739 1149.47 938.075 1148.32 938.075C1146.99 938.075 1146.15 939.033 1146.15 940.505V940.514C1146.15 942.017 1147 942.979 1148.32 942.979ZM1153.36 942.979C1154.5 942.979 1155.14 942.369 1155.33 941.512L1155.34 941.463L1154.58 941.468L1154.57 941.494C1154.4 942.021 1153.99 942.303 1153.36 942.303C1152.51 942.303 1151.97 941.604 1151.97 940.514V940.505C1151.97 939.438 1152.5 938.752 1153.36 938.752C1154.04 938.752 1154.46 939.13 1154.58 939.596L1154.58 939.609H1155.34L1155.34 939.583C1155.2 938.739 1154.51 938.075 1153.36 938.075C1152.03 938.075 1151.18 939.033 1151.18 940.505V940.514C1151.18 942.017 1152.03 942.979 1153.36 942.979ZM1158.4 942.979C1159.75 942.979 1160.59 942.048 1160.59 940.532V940.523C1160.59 939.002 1159.75 938.075 1158.4 938.075C1157.06 938.075 1156.22 939.002 1156.22 940.523V940.532C1156.22 942.048 1157.06 942.979 1158.4 942.979ZM1158.4 942.303C1157.51 942.303 1157 941.648 1157 940.532V940.523C1157 939.402 1157.51 938.752 1158.4 938.752C1159.3 938.752 1159.81 939.402 1159.81 940.523V940.532C1159.81 941.648 1159.3 942.303 1158.4 942.303ZM1163.36 942.979C1164.06 942.979 1164.54 942.694 1164.77 942.188H1164.84V942.896H1165.6V938.159H1164.84V940.962C1164.84 941.793 1164.39 942.303 1163.56 942.303C1162.8 942.303 1162.5 941.894 1162.5 941.042V938.159H1161.73V941.226C1161.73 942.347 1162.29 942.979 1163.36 942.979ZM1167.03 942.896H1167.8V940.092C1167.8 939.262 1168.27 938.752 1169.03 938.752C1169.79 938.752 1170.14 939.161 1170.14 940.013V942.896H1170.9V939.829C1170.9 938.704 1170.31 938.075 1169.25 938.075C1168.55 938.075 1168.1 938.37 1167.87 938.871H1167.8V938.159H1167.03V942.896ZM1173.97 942.931C1174.12 942.931 1174.26 942.914 1174.41 942.887V942.237C1174.27 942.25 1174.2 942.254 1174.06 942.254C1173.57 942.254 1173.38 942.03 1173.38 941.472V938.792H1174.41V938.159H1173.38V936.933H1172.59V938.159H1171.84V938.792H1172.59V941.666C1172.59 942.571 1172.99 942.931 1173.97 942.931Z" fill="#7958FF"/>
<circle cx="804" cy="646.896" r="8" fill="#FF897A"/>
<circle cx="832" cy="646.896" r="8" fill="#F4E560"/>
<circle cx="860" cy="646.896" r="8" fill="#83DA85"/>
<path d="M797.237 727.896H801.291C803.396 727.896 804.661 726.843 804.661 725.114V725.1C804.661 723.815 803.772 722.872 802.439 722.728V722.612C803.41 722.448 804.169 721.525 804.169 720.5V720.486C804.169 718.975 803.055 718.032 801.202 718.032H797.237V727.896ZM800.847 719.283C801.981 719.283 802.645 719.823 802.645 720.752V720.766C802.645 721.723 801.94 722.229 800.587 722.229H798.769V719.283H800.847ZM800.895 723.398C802.337 723.398 803.096 723.945 803.096 725.004V725.018C803.096 726.078 802.364 726.645 800.983 726.645H798.769V723.398H800.895ZM806.459 727.896H807.942V723.459C807.942 722.386 808.715 721.689 809.85 721.689C810.13 721.689 810.383 721.723 810.649 721.778V720.411C810.499 720.376 810.239 720.342 810 720.342C809.009 720.342 808.318 720.807 808.052 721.593H807.942V720.472H806.459V727.896ZM814.047 728.019C815.031 728.019 815.811 727.595 816.248 726.843H816.364V727.896H817.834V722.817C817.834 721.258 816.781 720.329 814.915 720.329C813.227 720.329 812.058 721.142 811.88 722.359L811.873 722.407H813.302L813.309 722.379C813.486 721.853 814.026 721.552 814.847 721.552C815.852 721.552 816.364 722.003 816.364 722.817V723.473L814.354 723.589C812.584 723.699 811.586 724.471 811.586 725.797V725.811C811.586 727.158 812.632 728.019 814.047 728.019ZM813.062 725.75V725.736C813.062 725.066 813.527 724.697 814.553 724.635L816.364 724.519V725.155C816.364 726.112 815.551 726.836 814.443 726.836C813.644 726.836 813.062 726.433 813.062 725.75ZM819.926 727.896H821.409V723.542C821.409 722.345 822.086 721.6 823.173 721.6C824.26 721.6 824.772 722.208 824.772 723.439V727.896H826.249V723.09C826.249 721.32 825.333 720.329 823.672 720.329C822.592 720.329 821.881 720.807 821.519 721.6H821.409V720.472H819.926V727.896ZM831.027 728.019C832.066 728.019 832.88 727.541 833.311 726.727H833.427V727.896H834.903V717.56H833.427V721.648H833.311C832.914 720.848 832.046 720.342 831.027 720.342C829.141 720.342 827.951 721.826 827.951 724.177V724.191C827.951 726.522 829.161 728.019 831.027 728.019ZM831.451 726.754C830.207 726.754 829.462 725.784 829.462 724.191V724.177C829.462 722.584 830.207 721.614 831.451 721.614C832.682 721.614 833.447 722.591 833.447 724.177V724.191C833.447 725.777 832.688 726.754 831.451 726.754ZM844.063 728.04C845.902 728.04 846.962 727.048 847.229 725.606L847.242 725.544H845.82L845.807 725.579C845.567 726.378 844.993 726.802 844.063 726.802C842.84 726.802 842.081 725.804 842.081 724.164V724.15C842.081 722.55 842.826 721.566 844.063 721.566C845.048 721.566 845.649 722.113 845.813 722.844L845.82 722.865L847.242 722.858V722.824C847.037 721.381 845.923 720.329 844.057 720.329C841.89 720.329 840.57 721.798 840.57 724.15V724.164C840.57 726.563 841.896 728.04 844.063 728.04ZM852.068 728.04C854.242 728.04 855.575 726.583 855.575 724.191V724.177C855.575 721.785 854.235 720.329 852.068 720.329C849.895 720.329 848.555 721.792 848.555 724.177V724.191C848.555 726.583 849.888 728.04 852.068 728.04ZM852.068 726.802C850.79 726.802 850.072 725.838 850.072 724.191V724.177C850.072 722.53 850.79 721.566 852.068 721.566C853.34 721.566 854.064 722.53 854.064 724.177V724.191C854.064 725.832 853.34 726.802 852.068 726.802ZM857.414 727.896H858.897V717.56H857.414V727.896ZM864.25 728.04C866.424 728.04 867.757 726.583 867.757 724.191V724.177C867.757 721.785 866.417 720.329 864.25 720.329C862.076 720.329 860.736 721.792 860.736 724.177V724.191C860.736 726.583 862.069 728.04 864.25 728.04ZM864.25 726.802C862.972 726.802 862.254 725.838 862.254 724.191V724.177C862.254 722.53 862.972 721.566 864.25 721.566C865.521 721.566 866.246 722.53 866.246 724.177V724.191C866.246 725.832 865.521 726.802 864.25 726.802ZM869.527 727.896H871.011V723.459C871.011 722.386 871.783 721.689 872.918 721.689C873.198 721.689 873.451 721.723 873.718 721.778V720.411C873.567 720.376 873.308 720.342 873.068 720.342C872.077 720.342 871.387 720.807 871.12 721.593H871.011V720.472H869.527V727.896Z" fill="#191C1D"/>
<rect x="796.5" y="736.396" width="243" height="37" rx="5.5" fill="#BFB5D0"/>
<rect x="804" y="742.896" width="24" height="24" rx="4" fill="#7958FF"/>
<rect x="796.5" y="736.396" width="243" height="37" rx="5.5" stroke="#B5AAC8"/>
<rect x="843" y="746.896" width="68" height="12" rx="4" fill="#F7F8F8"/>
<rect x="843" y="746.896" width="68" height="12" rx="4" fill="#78767F" fill-opacity="0.02"/>
<rect x="843" y="746.896" width="68" height="12" rx="4" fill="#5D34F2" fill-opacity="0.16"/>
<path d="M797.237 800.896H803.499V799.577H798.769V796.507H803.246V795.236H798.769V792.351H803.499V791.032H797.237V800.896ZM805.543 800.896H807.026V796.542C807.026 795.345 807.703 794.6 808.79 794.6C809.877 794.6 810.39 795.208 810.39 796.439V800.896H811.866V796.09C811.866 794.32 810.95 793.329 809.289 793.329C808.209 793.329 807.498 793.807 807.136 794.6H807.026V793.472H805.543V800.896ZM815.975 801.019C816.959 801.019 817.738 800.595 818.176 799.843H818.292V800.896H819.762V795.817C819.762 794.258 818.709 793.329 816.843 793.329C815.154 793.329 813.985 794.142 813.808 795.359L813.801 795.407H815.229L815.236 795.379C815.414 794.853 815.954 794.552 816.774 794.552C817.779 794.552 818.292 795.003 818.292 795.817V796.473L816.282 796.589C814.512 796.699 813.514 797.471 813.514 798.797V798.811C813.514 800.158 814.56 801.019 815.975 801.019ZM814.99 798.75V798.736C814.99 798.066 815.455 797.697 816.48 797.635L818.292 797.519V798.155C818.292 799.112 817.479 799.836 816.371 799.836C815.571 799.836 814.99 799.433 814.99 798.75ZM825.798 801.019C827.671 801.019 828.874 799.522 828.874 797.191V797.177C828.874 794.826 827.685 793.342 825.798 793.342C824.779 793.342 823.911 793.848 823.515 794.648H823.405V790.56H821.922V800.896H823.405V799.727H823.515C823.945 800.541 824.759 801.019 825.798 801.019ZM825.381 799.754C824.144 799.754 823.378 798.777 823.378 797.191V797.177C823.378 795.591 824.144 794.614 825.381 794.614C826.618 794.614 827.363 795.584 827.363 797.177V797.191C827.363 798.784 826.618 799.754 825.381 799.754ZM830.713 800.896H832.196V790.56H830.713V800.896ZM837.521 801.04C839.422 801.04 840.447 799.946 840.693 798.968L840.707 798.907L839.278 798.914L839.251 798.968C839.073 799.351 838.506 799.823 837.556 799.823C836.332 799.823 835.553 798.996 835.525 797.574H840.789V797.054C840.789 794.826 839.518 793.329 837.446 793.329C835.375 793.329 834.035 794.88 834.035 797.198V797.205C834.035 799.556 835.348 801.04 837.521 801.04ZM837.453 794.545C838.458 794.545 839.203 795.188 839.319 796.514H835.546C835.676 795.236 836.441 794.545 837.453 794.545ZM846.552 800.896H850.113C853.053 800.896 854.755 799.078 854.755 795.947V795.933C854.755 792.836 853.039 791.032 850.113 791.032H846.552V800.896ZM848.083 799.577V792.351H849.942C851.986 792.351 853.196 793.684 853.196 795.954V795.967C853.196 798.257 852.007 799.577 849.942 799.577H848.083ZM858.672 801.019C859.656 801.019 860.436 800.595 860.873 799.843H860.989V800.896H862.459V795.817C862.459 794.258 861.406 793.329 859.54 793.329C857.852 793.329 856.683 794.142 856.505 795.359L856.498 795.407H857.927L857.934 795.379C858.111 794.853 858.651 794.552 859.472 794.552C860.477 794.552 860.989 795.003 860.989 795.817V796.473L858.979 796.589C857.209 796.699 856.211 797.471 856.211 798.797V798.811C856.211 800.158 857.257 801.019 858.672 801.019ZM857.688 798.75V798.736C857.688 798.066 858.152 797.697 859.178 797.635L860.989 797.519V798.155C860.989 799.112 860.176 799.836 859.068 799.836C858.269 799.836 857.688 799.433 857.688 798.75ZM864.551 800.896H866.034V796.459C866.034 795.386 866.807 794.689 867.941 794.689C868.222 794.689 868.475 794.723 868.741 794.778V793.411C868.591 793.376 868.331 793.342 868.092 793.342C867.101 793.342 866.41 793.807 866.144 794.593H866.034V793.472H864.551V800.896ZM870.225 800.896H871.708V798.196L872.344 797.56L874.9 800.896H876.705L873.403 796.603L876.5 793.472H874.764L871.817 796.603H871.708V790.56H870.225V800.896ZM882.058 800.896H883.452V793.657H883.562L886.453 800.896H887.588L890.486 793.657H890.589V800.896H891.983V791.032H890.22L887.075 798.9H886.966L883.821 791.032H882.058V800.896ZM897.432 801.04C899.605 801.04 900.938 799.583 900.938 797.191V797.177C900.938 794.785 899.599 793.329 897.432 793.329C895.258 793.329 893.918 794.792 893.918 797.177V797.191C893.918 799.583 895.251 801.04 897.432 801.04ZM897.432 799.802C896.153 799.802 895.436 798.838 895.436 797.191V797.177C895.436 795.53 896.153 794.566 897.432 794.566C898.703 794.566 899.428 795.53 899.428 797.177V797.191C899.428 798.832 898.703 799.802 897.432 799.802ZM905.416 801.019C906.455 801.019 907.269 800.541 907.699 799.727H907.815V800.896H909.292V790.56H907.815V794.648H907.699C907.303 793.848 906.435 793.342 905.416 793.342C903.529 793.342 902.34 794.826 902.34 797.177V797.191C902.34 799.522 903.55 801.019 905.416 801.019ZM905.84 799.754C904.596 799.754 903.851 798.784 903.851 797.191V797.177C903.851 795.584 904.596 794.614 905.84 794.614C907.07 794.614 907.836 795.591 907.836 797.177V797.191C907.836 798.777 907.077 799.754 905.84 799.754ZM914.617 801.04C916.518 801.04 917.543 799.946 917.789 798.968L917.803 798.907L916.374 798.914L916.347 798.968C916.169 799.351 915.602 799.823 914.651 799.823C913.428 799.823 912.648 798.996 912.621 797.574H917.885V797.054C917.885 794.826 916.613 793.329 914.542 793.329C912.471 793.329 911.131 794.88 911.131 797.198V797.205C911.131 799.556 912.443 801.04 914.617 801.04ZM914.549 794.545C915.554 794.545 916.299 795.188 916.415 796.514H912.642C912.771 795.236 913.537 794.545 914.549 794.545Z" fill="#191C1D"/>
<rect x="813" y="829.896" width="161" height="16" rx="4" fill="#F7F8F8"/>
<rect x="813" y="829.896" width="161" height="16" rx="4" fill="#78767F" fill-opacity="0.02"/>
<rect x="813" y="829.896" width="161" height="16" rx="4" fill="#BFB5D0"/>
<g clip-path="url(#clip1_6227_219215)">
<rect x="982" y="825.896" width="39.5098" height="24" rx="12" fill="#ADAAB4"/>
<g filter="url(#filter6_d_6227_219215)">
<rect x="983.95" y="827.896" width="19.5" height="20" rx="9.75" fill="white"/>
</g>
</g>
<rect x="797.5" y="810.396" width="241" height="55" rx="7.5" stroke="#B5AAC8"/>
<rect x="460" y="888.896" width="96" height="96" rx="19.2" fill="#646073"/>
<path d="M508 904.896H512.8C517.218 904.896 520.8 908.478 520.8 912.896C520.8 917.314 517.218 920.896 512.8 920.896H508V904.896Z" fill="#DD9EE1"/>
<path fill-rule="evenodd" clip-rule="evenodd" d="M479.2 888.896C468.596 888.896 460 897.492 460 908.096V936.896H476V932.096C476 927.678 479.582 924.096 484 924.096C488.418 924.096 492 927.678 492 932.096V936.896H508V888.896H479.2Z" fill="#DD9EE1"/>
<path fill-rule="evenodd" clip-rule="evenodd" d="M508.001 936.896H524.001V941.696C524.001 946.114 527.583 949.696 532.001 949.696C536.419 949.696 540.001 946.114 540.001 941.696V936.896H556.001V965.696C556.001 976.3 547.405 984.896 536.801 984.896H508.001V968.896H503.201C498.783 968.896 495.201 965.314 495.201 960.896C495.201 956.478 498.783 952.896 503.201 952.896H508.001V936.896Z" fill="#AF9EFF"/>
<path d="M679 924.896C648.2 925.296 634.833 965.063 632 984.896H900C888 974.063 858.9 955.496 838.5 967.896C813 983.396 815.5 961.896 781.5 946.396C747.5 930.896 746 961.896 731.5 961.896C717 961.896 717.5 924.396 679 924.896Z" fill="url(#paint10_linear_6227_219215)"/>
<g filter="url(#filter7_b_6227_219215)">
<rect x="1018" y="337.896" width="128" height="128" rx="32" fill="#191C1D"/>
<rect x="1018" y="337.896" width="128" height="128" rx="32" fill="#C4C7C7" fill-opacity="0.02"/>
<rect x="1018" y="337.896" width="128" height="128" rx="32" fill="#CABEFF" fill-opacity="0.16"/>
</g>
<path fill-rule="evenodd" clip-rule="evenodd" d="M1093.23 394.064C1092.96 394.049 1092.69 394.046 1092.42 394.046C1082.84 394.046 1075.07 400.559 1075.07 408.597C1075.07 409.913 1075.28 411.187 1075.67 412.399C1075.25 412.421 1074.82 412.438 1074.39 412.438C1072.28 412.438 1070.25 412.153 1068.36 411.626C1068.25 411.594 1068.04 411.532 1068.04 411.532L1061.15 415.041L1062.99 409.274C1062.99 409.274 1062.87 409.2 1062.81 409.163C1058.27 406.251 1055.33 401.663 1055.33 396.501C1055.33 387.699 1063.86 380.563 1074.39 380.563C1083.92 380.563 1091.82 386.415 1093.23 394.064ZM1067.76 393.604C1066.28 393.604 1065.08 392.442 1065.08 391.012C1065.08 389.58 1066.28 388.422 1067.76 388.422C1069.24 388.422 1070.44 389.58 1070.44 391.012C1070.44 392.442 1069.24 393.604 1067.76 393.604ZM1081.02 388.422C1082.5 388.422 1083.7 389.58 1083.7 391.012C1083.7 392.442 1082.5 393.604 1081.02 393.604C1079.54 393.604 1078.35 392.442 1078.35 391.012C1078.35 389.58 1079.54 388.422 1081.02 388.422Z" fill="#58C457"/>
<path fill-rule="evenodd" clip-rule="evenodd" d="M1092.57 422.159C1083.68 422.159 1076.47 416.13 1076.47 408.692C1076.47 401.258 1083.68 395.229 1092.57 395.229C1101.46 395.229 1108.67 401.258 1108.67 408.692C1108.67 413.055 1106.19 416.93 1102.35 419.39L1102.2 419.482L1103.75 424.357L1097.94 421.39C1097.94 421.39 1097.75 421.445 1097.66 421.469C1096.06 421.916 1094.35 422.159 1092.57 422.159ZM1084.71 404.053C1084.71 402.847 1085.72 401.867 1086.97 401.867C1088.22 401.867 1089.23 402.847 1089.23 404.053C1089.23 405.265 1088.22 406.247 1086.97 406.247C1085.72 406.247 1084.71 405.265 1084.71 404.053ZM1095.91 404.053C1095.91 402.847 1096.92 401.867 1098.17 401.867C1099.42 401.867 1100.43 402.847 1100.43 404.053C1100.43 405.265 1099.42 406.247 1098.17 406.247C1096.92 406.247 1095.91 405.265 1095.91 404.053Z" fill="#58C457"/>
<path d="M1251 449.075C1242.71 449.075 1238.78 441.568 1238.78 435C1238.78 441.568 1235.29 449.075 1227 449.075C1235.29 449.075 1238.78 453.704 1238.78 464.714C1238.78 453.704 1242.71 449.075 1251 449.075Z" fill="#AF9EFF"/>
<path d="M1005 552.474C992.564 552.474 986.673 541.021 986.673 531C986.673 541.021 981.436 552.474 969 552.474C981.436 552.474 986.673 559.536 986.673 576.333C986.673 559.536 992.564 552.474 1005 552.474Z" fill="#ADAAB4"/>
</g>
<defs>
<filter id="filter0_b_6227_219215" x="817" y="409.896" width="424" height="424" filterUnits="userSpaceOnUse" color-interpolation-filters="sRGB">
<feFlood flood-opacity="0" result="BackgroundImageFix"/>
<feGaussianBlur in="BackgroundImage" stdDeviation="6"/>
<feComposite in2="SourceAlpha" operator="in" result="effect1_backgroundBlur_6227_219215"/>
<feBlend mode="normal" in="SourceGraphic" in2="effect1_backgroundBlur_6227_219215" result="shape"/>
</filter>
<filter id="filter1_d_6227_219215" x="699.125" y="764.396" width="3.25" height="3.25" filterUnits="userSpaceOnUse" color-interpolation-filters="sRGB">
<feFlood flood-opacity="0" result="BackgroundImageFix"/>
<feColorMatrix in="SourceAlpha" type="matrix" values="0 0 0 0 0 0 0 0 0 0 0 0 0 0 0 0 0 0 127 0" result="hardAlpha"/>
<feOffset dy="0.125"/>
<feGaussianBlur stdDeviation="0.0625"/>
<feComposite in2="hardAlpha" operator="out"/>
<feColorMatrix type="matrix" values="0 0 0 0 0.104304 0 0 0 0 0.0825 0 0 0 0 0.2 0 0 0 0.02 0"/>
<feBlend mode="normal" in2="BackgroundImageFix" result="effect1_dropShadow_6227_219215"/>
<feBlend mode="normal" in="SourceGraphic" in2="effect1_dropShadow_6227_219215" result="shape"/>
</filter>
<filter id="filter2_d_6227_219215" x="699.5" y="765.271" width="2.25" height="4.875" filterUnits="userSpaceOnUse" color-interpolation-filters="sRGB">
<feFlood flood-opacity="0" result="BackgroundImageFix"/>
<feColorMatrix in="SourceAlpha" type="matrix" values="0 0 0 0 0 0 0 0 0 0 0 0 0 0 0 0 0 0 127 0" result="hardAlpha"/>
<feOffset dx="-0.125" dy="0.5"/>
<feGaussianBlur stdDeviation="0.1875"/>
<feComposite in2="hardAlpha" operator="out"/>
<feColorMatrix type="matrix" values="0 0 0 0 0.104304 0 0 0 0 0.0825 0 0 0 0 0.2 0 0 0 0.08 0"/>
<feBlend mode="normal" in2="BackgroundImageFix" result="effect1_dropShadow_6227_219215"/>
<feBlend mode="normal" in="SourceGraphic" in2="effect1_dropShadow_6227_219215" result="shape"/>
</filter>
<filter id="filter3_b_6227_219215" x="1138" y="488.896" width="272" height="512" filterUnits="userSpaceOnUse" color-interpolation-filters="sRGB">
<feFlood flood-opacity="0" result="BackgroundImageFix"/>
<feGaussianBlur in="BackgroundImage" stdDeviation="8"/>
<feComposite in2="SourceAlpha" operator="in" result="effect1_backgroundBlur_6227_219215"/>
<feBlend mode="normal" in="SourceGraphic" in2="effect1_backgroundBlur_6227_219215" result="shape"/>
</filter>
<filter id="filter4_d_6227_219215" x="1274.16" y="584.021" width="4.0625" height="4.0625" filterUnits="userSpaceOnUse" color-interpolation-filters="sRGB">
<feFlood flood-opacity="0" result="BackgroundImageFix"/>
<feColorMatrix in="SourceAlpha" type="matrix" values="0 0 0 0 0 0 0 0 0 0 0 0 0 0 0 0 0 0 127 0" result="hardAlpha"/>
<feOffset dy="0.15625"/>
<feGaussianBlur stdDeviation="0.078125"/>
<feComposite in2="hardAlpha" operator="out"/>
<feColorMatrix type="matrix" values="0 0 0 0 0.104304 0 0 0 0 0.0825 0 0 0 0 0.2 0 0 0 0.02 0"/>
<feBlend mode="normal" in2="BackgroundImageFix" result="effect1_dropShadow_6227_219215"/>
<feBlend mode="normal" in="SourceGraphic" in2="effect1_dropShadow_6227_219215" result="shape"/>
</filter>
<filter id="filter5_d_6227_219215" x="1274.62" y="585.115" width="2.8125" height="6.09375" filterUnits="userSpaceOnUse" color-interpolation-filters="sRGB">
<feFlood flood-opacity="0" result="BackgroundImageFix"/>
<feColorMatrix in="SourceAlpha" type="matrix" values="0 0 0 0 0 0 0 0 0 0 0 0 0 0 0 0 0 0 127 0" result="hardAlpha"/>
<feOffset dx="-0.15625" dy="0.625"/>
<feGaussianBlur stdDeviation="0.234375"/>
<feComposite in2="hardAlpha" operator="out"/>
<feColorMatrix type="matrix" values="0 0 0 0 0.104304 0 0 0 0 0.0825 0 0 0 0 0.2 0 0 0 0.08 0"/>
<feBlend mode="normal" in2="BackgroundImageFix" result="effect1_dropShadow_6227_219215"/>
<feBlend mode="normal" in="SourceGraphic" in2="effect1_dropShadow_6227_219215" result="shape"/>
</filter>
<filter id="filter6_d_6227_219215" x="976.95" y="823.896" width="33.5" height="34" filterUnits="userSpaceOnUse" color-interpolation-filters="sRGB">
<feFlood flood-opacity="0" result="BackgroundImageFix"/>
<feColorMatrix in="SourceAlpha" type="matrix" values="0 0 0 0 0 0 0 0 0 0 0 0 0 0 0 0 0 0 127 0" result="hardAlpha"/>
<feOffset dy="3"/>
<feGaussianBlur stdDeviation="3.5"/>
<feColorMatrix type="matrix" values="0 0 0 0 0 0 0 0 0 0 0 0 0 0 0 0 0 0 0.12 0"/>
<feBlend mode="normal" in2="BackgroundImageFix" result="effect1_dropShadow_6227_219215"/>
<feBlend mode="normal" in="SourceGraphic" in2="effect1_dropShadow_6227_219215" result="shape"/>
</filter>
<filter id="filter7_b_6227_219215" x="1014" y="333.896" width="136" height="136" filterUnits="userSpaceOnUse" color-interpolation-filters="sRGB">
<feFlood flood-opacity="0" result="BackgroundImageFix"/>
<feGaussianBlur in="BackgroundImage" stdDeviation="2"/>
<feComposite in2="SourceAlpha" operator="in" result="effect1_backgroundBlur_6227_219215"/>
<feBlend mode="normal" in="SourceGraphic" in2="effect1_backgroundBlur_6227_219215" result="shape"/>
</filter>
<linearGradient id="paint0_linear_6227_219215" x1="1424.5" y1="847.896" x2="225.5" y2="954.396" gradientUnits="userSpaceOnUse">
<stop stop-color="#323145"/>
<stop offset="0.786458" stop-color="#44445B" stop-opacity="0.649583"/>
<stop offset="1" stop-color="#363541" stop-opacity="0"/>
</linearGradient>
<linearGradient id="paint1_linear_6227_219215" x1="1083" y1="404.396" x2="931.5" y2="694.896" gradientUnits="userSpaceOnUse">
<stop stop-color="#3C3D52"/>
<stop offset="1" stop-color="#2A2C32"/>
</linearGradient>
<linearGradient id="paint2_linear_6227_219215" x1="687.813" y1="766.771" x2="711.078" y2="759.328" gradientUnits="userSpaceOnUse">
<stop stop-color="#FFF06A"/>
<stop offset="1" stop-color="#EC78FF"/>
</linearGradient>
<linearGradient id="paint3_linear_6227_219215" x1="685.813" y1="768.083" x2="706.125" y2="763.708" gradientUnits="userSpaceOnUse">
<stop stop-color="#492EF3"/>
<stop offset="1" stop-color="#CF69FF"/>
</linearGradient>
<linearGradient id="paint4_linear_6227_219215" x1="700.75" y1="764.396" x2="700.125" y2="767.396" gradientUnits="userSpaceOnUse">
<stop stop-color="#E1BFFF"/>
<stop offset="1" stop-color="#AF68EE"/>
</linearGradient>
<linearGradient id="paint5_linear_6227_219215" x1="700.75" y1="765.271" x2="698.978" y2="768.46" gradientUnits="userSpaceOnUse">
<stop stop-color="#F8F2FF"/>
<stop offset="1" stop-color="#D185F5"/>
</linearGradient>
<linearGradient id="paint6_linear_6227_219215" x1="1260.02" y1="586.99" x2="1289.1" y2="577.686" gradientUnits="userSpaceOnUse">
<stop stop-color="#FFF06A"/>
<stop offset="1" stop-color="#EC78FF"/>
</linearGradient>
<linearGradient id="paint7_linear_6227_219215" x1="1257.52" y1="588.63" x2="1282.91" y2="583.162" gradientUnits="userSpaceOnUse">
<stop stop-color="#492EF3"/>
<stop offset="1" stop-color="#CF69FF"/>
</linearGradient>
<linearGradient id="paint8_linear_6227_219215" x1="1276.19" y1="584.021" x2="1275.41" y2="587.771" gradientUnits="userSpaceOnUse">
<stop stop-color="#E1BFFF"/>
<stop offset="1" stop-color="#AF68EE"/>
</linearGradient>
<linearGradient id="paint9_linear_6227_219215" x1="1276.19" y1="585.115" x2="1273.97" y2="589.101" gradientUnits="userSpaceOnUse">
<stop stop-color="#F8F2FF"/>
<stop offset="1" stop-color="#D185F5"/>
</linearGradient>
<linearGradient id="paint10_linear_6227_219215" x1="707.5" y1="954.896" x2="921.5" y2="980.396" gradientUnits="userSpaceOnUse">
<stop stop-color="#8A85AB"/>
<stop offset="1" stop-color="#ADA6D9" stop-opacity="0"/>
</linearGradient>
<clipPath id="clip0_6227_219215">
<rect width="1440" height="984" fill="white"/>
</clipPath>
<clipPath id="clip1_6227_219215">
<path d="M982 837.896C982 831.269 987.373 825.896 994 825.896H1009C1015.63 825.896 1021 831.269 1021 837.896C1021 844.523 1015.63 849.896 1009 849.896H994C987.373 849.896 982 844.523 982 837.896Z" fill="white"/>
</clipPath>
</defs>
</svg>
