<svg width="1440" height="806" viewBox="0 0 1440 806" fill="none" xmlns="http://www.w3.org/2000/svg">
<path d="M1177.5 307.396H1440M860 500.896H475.447C461.272 500.896 448.199 508.542 441.25 520.896V520.896C434.301 533.251 421.228 540.896 407.053 540.896H303.996C290.33 540.896 277.645 547.997 270.5 559.646V559.646C263.355 571.296 250.67 578.396 237.004 578.396H173.632C108.372 578.396 50.3437 619.921 29.2858 681.691L12 732.396" stroke="#191C1D" stroke-linecap="round"/>
<path d="M1177.5 307.396H1440M860 500.896H475.447C461.272 500.896 448.199 508.542 441.25 520.896V520.896C434.301 533.251 421.228 540.896 407.053 540.896H303.996C290.33 540.896 277.645 547.997 270.5 559.646V559.646C263.355 571.296 250.67 578.396 237.004 578.396H173.632C108.372 578.396 50.3437 619.921 29.2858 681.691L12 732.396" stroke="#C4C7C7" stroke-opacity="0.02" stroke-linecap="round"/>
<path d="M1177.5 307.396H1440M860 500.896H475.447C461.272 500.896 448.199 508.542 441.25 520.896V520.896C434.301 533.251 421.228 540.896 407.053 540.896H303.996C290.33 540.896 277.645 547.997 270.5 559.646V559.646C263.355 571.296 250.67 578.396 237.004 578.396H173.632C108.372 578.396 50.3437 619.921 29.2858 681.691L12 732.396" stroke="#CABEFF" stroke-opacity="0.16" stroke-linecap="round"/>
<path d="M1328.75 346.396L1336.35 333.689C1358.15 297.222 1397.51 274.896 1440 274.896V722.396H163L217.97 654.351C248.346 616.749 294.093 594.896 342.431 594.896H565.45C600.201 594.896 634.007 583.575 661.75 562.646C689.493 541.717 723.299 530.396 758.05 530.396H933.394C977.132 530.396 1018.24 509.492 1044 474.146C1069.76 438.8 1110.87 417.896 1154.61 417.896H1202.69C1254.36 417.896 1302.23 390.744 1328.75 346.396Z" fill="url(#paint0_linear_6725_233470)"/>
<g filter="url(#filter0_b_6725_233470)">
<path fill-rule="evenodd" clip-rule="evenodd" d="M1029 559.896C1139.46 559.896 1229 470.353 1229 359.896C1229 308.633 1209.71 261.874 1178 226.48C1141.38 185.612 1088.19 159.896 1029 159.896C918.543 159.896 829 249.439 829 359.896C829 470.353 918.543 559.896 1029 559.896ZM1029 459.896C1084.23 459.896 1129 415.125 1129 359.896C1129 304.668 1084.23 259.896 1029 259.896C973.772 259.896 929 304.668 929 359.896C929 415.125 973.772 459.896 1029 459.896Z" fill="url(#paint1_linear_6725_233470)" fill-opacity="0.32"/>
</g>
<rect x="519" y="452.896" width="360" height="270" rx="32" fill="#3E3A50"/>
<path d="M687.25 493.396C687.25 492.292 688.145 491.396 689.25 491.396H708.75C709.855 491.396 710.75 492.292 710.75 493.396V514.396C710.75 515.501 709.855 516.396 708.75 516.396H689.25C688.145 516.396 687.25 515.501 687.25 514.396V493.396Z" fill="url(#paint2_linear_6725_233470)"/>
<path d="M687.25 493.131C687.25 492.135 687.982 491.292 688.967 491.151L702.467 489.222C703.672 489.05 704.75 489.985 704.75 491.202V516.59C704.75 517.807 703.672 518.742 702.467 518.57L688.967 516.641C687.982 516.501 687.25 515.657 687.25 514.662V493.131Z" fill="url(#paint3_linear_6725_233470)"/>
<g filter="url(#filter1_d_6725_233470)">
<circle cx="700.75" cy="503.896" r="1.5" fill="url(#paint4_linear_6725_233470)"/>
</g>
<g filter="url(#filter2_d_6725_233470)">
<rect x="700" y="503.271" width="1.5" height="4" rx="0.75" fill="url(#paint5_linear_6725_233470)"/>
</g>
<rect x="635" y="531.896" width="128" height="8" rx="4" fill="#564E63"/>
<rect x="609.5" y="560.396" width="179" height="23" rx="3.5" fill="#706781" stroke="#897F9B"/>
<circle cx="667" cy="571.896" r="6" fill="#AA94DA"/>
<rect x="677" y="568.896" width="72" height="6" rx="2" fill="#A292BB"/>
<rect x="609.5" y="592.396" width="179" height="23" rx="3.5" fill="#706781" stroke="#897F9B"/>
<circle cx="667" cy="603.896" r="6" fill="#937BC7"/>
<rect x="677" y="600.896" width="52" height="6" rx="2" fill="#A292BB"/>
<rect x="609.5" y="624.396" width="179" height="23" rx="3.5" fill="#706781" stroke="#897F9B"/>
<circle cx="667" cy="635.896" r="6" fill="#B991CC"/>
<rect x="677" y="632.896" width="60" height="6" rx="2" fill="#A292BB"/>
<path opacity="0.02" d="M519 484.896C519 467.223 533.327 452.896 551 452.896H739L609 722.896H551C533.327 722.896 519 708.569 519 690.896V484.896Z" fill="#F8F4FF"/>
<g filter="url(#filter3_b_6725_233470)">
<rect x="1154" y="242.896" width="240" height="480" rx="32" fill="#BBB5D7"/>
</g>
<path d="M1202 545.7H1260V546.3H1202V545.7Z" fill="#928F9A"/>
<path d="M1273.67 549.238C1273.15 549.82 1272.44 550.111 1271.54 550.111C1270.65 550.111 1269.94 549.82 1269.41 549.238C1268.89 548.652 1268.63 547.854 1268.63 546.842C1268.63 545.826 1268.89 545.027 1269.41 544.445C1269.93 543.863 1270.64 543.572 1271.54 543.572C1272.45 543.572 1273.16 543.863 1273.68 544.445C1274.2 545.027 1274.46 545.826 1274.46 546.842C1274.46 547.854 1274.2 548.652 1273.67 549.238ZM1270.16 548.588C1270.49 548.998 1270.95 549.203 1271.54 549.203C1272.14 549.203 1272.6 548.998 1272.93 548.588C1273.25 548.174 1273.41 547.592 1273.41 546.842C1273.41 546.092 1273.25 545.512 1272.93 545.102C1272.6 544.688 1272.14 544.48 1271.54 544.48C1270.95 544.48 1270.49 544.688 1270.16 545.102C1269.84 545.512 1269.68 546.092 1269.68 546.842C1269.68 547.592 1269.84 548.174 1270.16 548.588ZM1276.04 550V543.684H1277V544.621H1277.09C1277.19 544.312 1277.4 544.061 1277.73 543.865C1278.05 543.67 1278.43 543.572 1278.85 543.572C1279.04 543.572 1279.21 543.582 1279.35 543.602V544.609C1279.21 544.57 1279 544.551 1278.71 544.551C1278.22 544.551 1277.83 544.695 1277.52 544.984C1277.2 545.273 1277.05 545.641 1277.05 546.086V550H1276.04Z" fill="#716AC0"/>
<path d="M1288 545.7H1346V546.3H1288V545.7Z" fill="#928F9A"/>
<circle cx="1218" cy="581" r="12" fill="#948DB8"/>
<circle cx="1274" cy="581" r="12" fill="#948DB8"/>
<circle cx="1330" cy="581" r="12" fill="#948DB8"/>
<path d="M1218 461H1276.71M1344 461H1316.04M1289.14 461H1298.11" stroke="#A098C1" stroke-width="2" stroke-linecap="round"/>
<circle cx="1207" cy="461" r="3" stroke="#A098C1" stroke-width="2" stroke-linecap="round"/>
<path d="M1302 323.896C1302 339.36 1289.46 351.896 1274 351.896C1258.54 351.896 1246 339.36 1246 323.896C1246 308.432 1258.54 295.896 1274 295.896C1289.46 295.896 1302 308.432 1302 323.896Z" fill="#AFA8D0"/>
<path d="M1259.31 310.771C1259.31 309.39 1260.43 308.271 1261.81 308.271H1286.19C1287.57 308.271 1288.69 309.39 1288.69 310.771V337.021C1288.69 338.402 1287.57 339.521 1286.19 339.521H1261.81C1260.43 339.521 1259.31 338.402 1259.31 337.021V310.771Z" fill="url(#paint6_linear_6725_233470)"/>
<path d="M1259.31 310.439C1259.31 309.195 1260.23 308.14 1261.46 307.964L1278.33 305.554C1279.84 305.339 1281.19 306.507 1281.19 308.029V339.764C1281.19 341.285 1279.84 342.454 1278.33 342.238L1261.46 339.828C1260.23 339.652 1259.31 338.597 1259.31 337.353V310.439Z" fill="url(#paint7_linear_6725_233470)"/>
<g filter="url(#filter4_d_6725_233470)">
<circle cx="1276.19" cy="323.896" r="1.875" fill="url(#paint8_linear_6725_233470)"/>
</g>
<g filter="url(#filter5_d_6725_233470)">
<rect x="1275.25" y="323.115" width="1.875" height="5" rx="0.9375" fill="url(#paint9_linear_6725_233470)"/>
</g>
<path d="M1226 359.896H1293.71M1322 359.896H1306.14" stroke="#A098C1" stroke-width="2" stroke-linecap="round"/>
<rect x="1184" y="477.896" width="180" height="36" rx="8" fill="#947DFF"/>
<path d="M1253.48 500.095C1252.33 500.095 1251.42 499.699 1250.75 498.906C1250.08 498.113 1249.75 497.035 1249.75 495.671C1249.75 494.308 1250.08 493.23 1250.75 492.437C1251.42 491.64 1252.33 491.242 1253.48 491.242C1254.37 491.242 1255.13 491.496 1255.76 492.003C1256.39 492.511 1256.77 493.173 1256.9 493.99H1255.83C1255.69 493.443 1255.4 493.011 1254.98 492.695C1254.56 492.375 1254.06 492.214 1253.48 492.214C1252.66 492.214 1252.02 492.525 1251.54 493.146C1251.07 493.767 1250.83 494.609 1250.83 495.671C1250.83 496.734 1251.07 497.576 1251.55 498.197C1252.03 498.814 1252.67 499.123 1253.48 499.123C1254.07 499.123 1254.58 498.982 1254.99 498.701C1255.42 498.416 1255.69 498.029 1255.83 497.541H1256.9C1256.76 498.318 1256.38 498.939 1255.76 499.404C1255.14 499.865 1254.38 500.095 1253.48 500.095ZM1263.26 499.134C1262.74 499.716 1262.03 500.007 1261.13 500.007C1260.24 500.007 1259.53 499.716 1259 499.134C1258.48 498.548 1258.22 497.75 1258.22 496.738C1258.22 495.722 1258.48 494.923 1259 494.341C1259.52 493.759 1260.23 493.468 1261.13 493.468C1262.04 493.468 1262.75 493.759 1263.27 494.341C1263.79 494.923 1264.05 495.722 1264.05 496.738C1264.05 497.75 1263.79 498.548 1263.26 499.134ZM1259.75 498.484C1260.08 498.894 1260.54 499.099 1261.13 499.099C1261.73 499.099 1262.19 498.894 1262.52 498.484C1262.84 498.07 1263 497.488 1263 496.738C1263 495.988 1262.84 495.408 1262.52 494.998C1262.19 494.584 1261.73 494.377 1261.13 494.377C1260.54 494.377 1260.08 494.584 1259.75 494.998C1259.43 495.408 1259.27 495.988 1259.27 496.738C1259.27 497.488 1259.43 498.07 1259.75 498.484ZM1265.63 499.896V493.58H1266.59V494.576H1266.68C1267.02 493.837 1267.65 493.468 1268.58 493.468C1269.29 493.468 1269.83 493.671 1270.22 494.078C1270.6 494.48 1270.79 495.056 1270.79 495.806V499.896H1269.78V496.052C1269.78 495.486 1269.66 495.066 1269.41 494.793C1269.17 494.515 1268.8 494.377 1268.29 494.377C1267.79 494.377 1267.38 494.537 1267.08 494.857C1266.79 495.173 1266.64 495.607 1266.64 496.158V499.896H1265.63ZM1273.06 491.945H1274.07V493.58H1275.47V494.423H1274.07V497.998C1274.07 498.369 1274.14 498.638 1274.29 498.806C1274.44 498.974 1274.68 499.058 1275 499.058C1275.15 499.058 1275.3 499.05 1275.47 499.035V499.884C1275.25 499.923 1275.05 499.943 1274.88 499.943C1274.23 499.943 1273.76 499.812 1273.48 499.55C1273.2 499.289 1273.06 498.857 1273.06 498.255V494.423H1272.04V493.58H1273.06V491.945ZM1277.02 499.896V493.58H1278.03V499.896H1277.02ZM1278.02 492.091C1277.88 492.228 1277.72 492.296 1277.52 492.296C1277.33 492.296 1277.16 492.228 1277.03 492.091C1276.89 491.951 1276.82 491.785 1276.82 491.593C1276.82 491.402 1276.89 491.238 1277.03 491.101C1277.16 490.961 1277.33 490.89 1277.52 490.89C1277.72 490.89 1277.88 490.961 1278.02 491.101C1278.16 491.238 1278.23 491.402 1278.23 491.593C1278.23 491.785 1278.16 491.951 1278.02 492.091ZM1279.95 499.896V493.58H1280.91V494.576H1281C1281.34 493.837 1281.97 493.468 1282.9 493.468C1283.61 493.468 1284.15 493.671 1284.54 494.078C1284.92 494.48 1285.11 495.056 1285.11 495.806V499.896H1284.1V496.052C1284.1 495.486 1283.98 495.066 1283.73 494.793C1283.49 494.515 1283.12 494.377 1282.62 494.377C1282.11 494.377 1281.7 494.537 1281.4 494.857C1281.11 495.173 1280.96 495.607 1280.96 496.158V499.896H1279.95ZM1292.07 493.58V499.896H1291.11V498.906H1291.01C1290.85 499.261 1290.61 499.535 1290.27 499.726C1289.94 499.914 1289.54 500.007 1289.05 500.007C1288.35 500.007 1287.82 499.806 1287.45 499.404C1287.08 499.002 1286.9 498.423 1286.9 497.669V493.58H1287.91V497.423C1287.91 497.998 1288.02 498.419 1288.25 498.689C1288.47 498.955 1288.84 499.087 1289.34 499.087C1289.89 499.087 1290.31 498.933 1290.61 498.625C1290.91 498.312 1291.06 497.877 1291.06 497.318V493.58H1292.07ZM1296.48 494.359C1295.98 494.359 1295.57 494.529 1295.24 494.869C1294.92 495.209 1294.74 495.658 1294.7 496.216H1298.18C1298.17 495.658 1298.01 495.209 1297.7 494.869C1297.39 494.529 1296.98 494.359 1296.48 494.359ZM1298.15 498.261H1299.16C1299 498.808 1298.69 499.236 1298.22 499.544C1297.76 499.853 1297.18 500.007 1296.5 500.007C1295.62 500.007 1294.93 499.714 1294.42 499.128C1293.9 498.539 1293.65 497.744 1293.65 496.744C1293.65 495.748 1293.91 494.953 1294.42 494.359C1294.94 493.765 1295.63 493.468 1296.5 493.468C1297.35 493.468 1298.02 493.752 1298.51 494.318C1298.99 494.884 1299.24 495.66 1299.24 496.644V497.031H1294.7V497.078C1294.72 497.703 1294.9 498.199 1295.22 498.566C1295.55 498.933 1295.98 499.117 1296.52 499.117C1297.34 499.117 1297.88 498.832 1298.15 498.261Z" fill="white"/>
<g style="mix-blend-mode:multiply">
<path d="M1242 242.896H1306V250.896C1306 257.523 1300.63 262.896 1294 262.896H1254C1247.37 262.896 1242 257.523 1242 250.896V242.896Z" fill="#A09BBB"/>
</g>
<rect x="1184" y="387.896" width="180" height="36" rx="8" fill="#F5EEFF"/>
<path d="M1213.91 409.896H1215.19V405.988C1215.19 405.156 1215.75 404.5 1216.52 404.5C1217.27 404.5 1217.75 404.957 1217.75 405.683V409.896H1219.01V405.871C1219.01 405.103 1219.54 404.5 1220.35 404.5C1221.19 404.5 1221.58 404.933 1221.58 405.812V409.896H1222.85V405.507C1222.85 404.183 1222.1 403.41 1220.82 403.41C1219.93 403.41 1219.2 403.861 1218.88 404.546H1218.78C1218.5 403.861 1217.88 403.41 1217.01 403.41C1216.18 403.41 1215.56 403.814 1215.28 404.511H1215.19V403.533H1213.91V409.896ZM1227.31 412.14C1229.12 412.14 1230.26 411.214 1230.26 409.767V403.533H1229V404.576H1228.92C1228.55 403.861 1227.86 403.421 1226.97 403.421C1225.32 403.421 1224.3 404.705 1224.3 406.521V406.533C1224.3 408.326 1225.31 409.586 1226.95 409.586C1227.82 409.586 1228.52 409.199 1228.91 408.507H1229V409.761C1229 410.628 1228.38 411.121 1227.33 411.121C1226.47 411.121 1225.96 410.81 1225.85 410.371L1225.84 410.359H1224.56L1224.55 410.371C1224.7 411.431 1225.7 412.14 1227.31 412.14ZM1227.3 408.537C1226.21 408.537 1225.6 407.711 1225.6 406.527V406.515C1225.6 405.332 1226.21 404.5 1227.3 404.5C1228.37 404.5 1229.03 405.332 1229.03 406.515V406.527C1229.03 407.716 1228.38 408.537 1227.3 408.537ZM1234.76 410.019C1236.39 410.019 1237.27 409.082 1237.48 408.244L1237.49 408.191L1236.27 408.197L1236.24 408.244C1236.09 408.572 1235.61 408.976 1234.79 408.976C1233.74 408.976 1233.07 408.267 1233.05 407.048H1237.56V406.603C1237.56 404.693 1236.47 403.41 1234.7 403.41C1232.92 403.41 1231.77 404.74 1231.77 406.726V406.732C1231.77 408.748 1232.9 410.019 1234.76 410.019ZM1234.7 404.453C1235.56 404.453 1236.2 405.003 1236.3 406.14H1233.07C1233.18 405.044 1233.84 404.453 1234.7 404.453ZM1241.77 410.019C1243.63 410.019 1244.78 408.771 1244.78 406.72V406.709C1244.78 404.658 1243.63 403.41 1241.77 403.41C1239.91 403.41 1238.76 404.664 1238.76 406.709V406.72C1238.76 408.771 1239.9 410.019 1241.77 410.019ZM1241.77 408.959C1240.67 408.959 1240.06 408.132 1240.06 406.72V406.709C1240.06 405.296 1240.67 404.47 1241.77 404.47C1242.86 404.47 1243.48 405.296 1243.48 406.709V406.72C1243.48 408.127 1242.86 408.959 1241.77 408.959ZM1246.29 409.896H1247.56V406.093C1247.56 405.173 1248.23 404.576 1249.2 404.576C1249.44 404.576 1249.66 404.605 1249.88 404.652V403.48C1249.76 403.451 1249.53 403.421 1249.33 403.421C1248.48 403.421 1247.89 403.82 1247.66 404.494H1247.56V403.533H1246.29V409.896ZM1253.62 412.14C1255.43 412.14 1256.57 411.214 1256.57 409.767V403.533H1255.3V404.576H1255.23C1254.86 403.861 1254.17 403.421 1253.28 403.421C1251.62 403.421 1250.61 404.705 1250.61 406.521V406.533C1250.61 408.326 1251.62 409.586 1253.25 409.586C1254.13 409.586 1254.83 409.199 1255.22 408.507H1255.31V409.761C1255.31 410.628 1254.69 411.121 1253.64 411.121C1252.78 411.121 1252.26 410.81 1252.16 410.371L1252.15 410.359H1250.87L1250.86 410.371C1251.01 411.431 1252.01 412.14 1253.62 412.14ZM1253.61 408.537C1252.52 408.537 1251.91 407.711 1251.91 406.527V406.515C1251.91 405.332 1252.52 404.5 1253.61 404.5C1254.68 404.5 1255.33 405.332 1255.33 406.515V406.527C1255.33 407.716 1254.68 408.537 1253.61 408.537ZM1261.07 410.019C1262.7 410.019 1263.58 409.082 1263.79 408.244L1263.8 408.191L1262.58 408.197L1262.55 408.244C1262.4 408.572 1261.91 408.976 1261.1 408.976C1260.05 408.976 1259.38 408.267 1259.36 407.048H1263.87V406.603C1263.87 404.693 1262.78 403.41 1261.01 403.41C1259.23 403.41 1258.08 404.74 1258.08 406.726V406.732C1258.08 408.748 1259.21 410.019 1261.07 410.019ZM1261.01 404.453C1261.87 404.453 1262.51 405.003 1262.61 406.14H1259.38C1259.49 405.044 1260.14 404.453 1261.01 404.453ZM1270.25 411.232C1270.95 411.232 1271.62 411.138 1272.12 410.974V410.16C1271.77 410.318 1271.03 410.418 1270.29 410.418C1267.79 410.418 1266.19 408.841 1266.19 406.386V406.375C1266.19 403.972 1267.81 402.267 1270.09 402.267C1272.39 402.267 1273.95 403.691 1273.95 405.806V405.818C1273.95 407.166 1273.51 408.039 1272.82 408.039C1272.42 408.039 1272.2 407.798 1272.2 407.388V404.06H1271.2V404.769H1271.1C1270.87 404.253 1270.35 403.943 1269.74 403.943C1268.54 403.943 1267.72 404.927 1267.72 406.345V406.357C1267.72 407.839 1268.54 408.836 1269.75 408.836C1270.44 408.836 1270.95 408.513 1271.2 407.916H1271.29L1271.3 407.951C1271.41 408.513 1271.93 408.877 1272.62 408.877C1274 408.877 1274.86 407.681 1274.86 405.789V405.777C1274.86 403.228 1272.94 401.459 1270.15 401.459C1267.26 401.459 1265.27 403.445 1265.27 406.339V406.351C1265.27 409.322 1267.22 411.232 1270.25 411.232ZM1269.94 407.921C1269.23 407.921 1268.8 407.336 1268.8 406.386V406.375C1268.8 405.414 1269.23 404.839 1269.95 404.839C1270.69 404.839 1271.15 405.437 1271.15 406.375V406.386C1271.15 407.324 1270.69 407.921 1269.94 407.921ZM1279.13 412.14C1280.94 412.14 1282.08 411.214 1282.08 409.767V403.533H1280.82V404.576H1280.74C1280.37 403.861 1279.68 403.421 1278.79 403.421C1277.14 403.421 1276.12 404.705 1276.12 406.521V406.533C1276.12 408.326 1277.13 409.586 1278.77 409.586C1279.64 409.586 1280.34 409.199 1280.73 408.507H1280.82V409.761C1280.82 410.628 1280.2 411.121 1279.15 411.121C1278.29 411.121 1277.78 410.81 1277.67 410.371L1277.66 410.359H1276.38L1276.37 410.371C1276.52 411.431 1277.52 412.14 1279.13 412.14ZM1279.12 408.537C1278.03 408.537 1277.42 407.711 1277.42 406.527V406.515C1277.42 405.332 1278.03 404.5 1279.12 404.5C1280.19 404.5 1280.85 405.332 1280.85 406.515V406.527C1280.85 407.716 1280.2 408.537 1279.12 408.537ZM1283.91 409.896H1285.18V405.988C1285.18 405.156 1285.75 404.5 1286.52 404.5C1287.27 404.5 1287.74 404.957 1287.74 405.683V409.896H1289.01V405.871C1289.01 405.103 1289.54 404.5 1290.35 404.5C1291.18 404.5 1291.58 404.933 1291.58 405.812V409.896H1292.85V405.507C1292.85 404.183 1292.1 403.41 1290.81 403.41C1289.93 403.41 1289.2 403.861 1288.87 404.546H1288.77C1288.49 403.861 1287.88 403.41 1287.01 403.41C1286.18 403.41 1285.56 403.814 1285.28 404.511H1285.18V403.533H1283.91V409.896ZM1296.37 410.002C1297.21 410.002 1297.88 409.638 1298.25 408.994H1298.35V409.896H1299.61V405.543C1299.61 404.207 1298.71 403.41 1297.11 403.41C1295.66 403.41 1294.66 404.107 1294.51 405.15L1294.5 405.191H1295.73L1295.73 405.168C1295.89 404.716 1296.35 404.459 1297.05 404.459C1297.91 404.459 1298.35 404.845 1298.35 405.543V406.105L1296.63 406.205C1295.11 406.298 1294.26 406.961 1294.26 408.097V408.109C1294.26 409.263 1295.15 410.002 1296.37 410.002ZM1295.52 408.056V408.044C1295.52 407.47 1295.92 407.154 1296.8 407.101L1298.35 407.002V407.546C1298.35 408.367 1297.66 408.988 1296.71 408.988C1296.02 408.988 1295.52 408.642 1295.52 408.056ZM1302.07 402.396C1302.5 402.396 1302.87 402.039 1302.87 401.605C1302.87 401.166 1302.5 400.808 1302.07 400.808C1301.63 400.808 1301.27 401.166 1301.27 401.605C1301.27 402.039 1301.63 402.396 1302.07 402.396ZM1301.43 409.896H1302.7V403.533H1301.43V409.896ZM1304.61 409.896H1305.88V401.037H1304.61V409.896ZM1308.75 409.984C1309.23 409.984 1309.6 409.609 1309.6 409.134C1309.6 408.654 1309.23 408.279 1308.75 408.279C1308.26 408.279 1307.89 408.654 1307.89 409.134C1307.89 409.609 1308.26 409.984 1308.75 409.984ZM1314 410.019C1315.57 410.019 1316.48 409.169 1316.71 407.933L1316.72 407.88H1315.5L1315.49 407.91C1315.29 408.595 1314.79 408.959 1314 408.959C1312.95 408.959 1312.3 408.103 1312.3 406.697V406.685C1312.3 405.314 1312.94 404.47 1314 404.47C1314.84 404.47 1315.36 404.939 1315.5 405.566L1315.5 405.584L1316.72 405.578V405.548C1316.55 404.312 1315.59 403.41 1313.99 403.41C1312.13 403.41 1311 404.669 1311 406.685V406.697C1311 408.753 1312.14 410.019 1314 410.019ZM1320.86 410.019C1322.72 410.019 1323.87 408.771 1323.87 406.72V406.709C1323.87 404.658 1322.72 403.41 1320.86 403.41C1319 403.41 1317.85 404.664 1317.85 406.709V406.72C1317.85 408.771 1318.99 410.019 1320.86 410.019ZM1320.86 408.959C1319.76 408.959 1319.15 408.132 1319.15 406.72V406.709C1319.15 405.296 1319.76 404.47 1320.86 404.47C1321.95 404.47 1322.57 405.296 1322.57 406.709V406.72C1322.57 408.127 1321.95 408.959 1320.86 408.959ZM1325.38 409.896H1326.65V405.988C1326.65 405.156 1327.22 404.5 1327.99 404.5C1328.74 404.5 1329.21 404.957 1329.21 405.683V409.896H1330.48V405.871C1330.48 405.103 1331.01 404.5 1331.82 404.5C1332.65 404.5 1333.05 404.933 1333.05 405.812V409.896H1334.32V405.507C1334.32 404.183 1333.57 403.41 1332.29 403.41C1331.4 403.41 1330.67 403.861 1330.35 404.546H1330.25C1329.96 403.861 1329.35 403.41 1328.48 403.41C1327.65 403.41 1327.03 403.814 1326.75 404.511H1326.65V403.533H1325.38V409.896Z" fill="#928F9A"/>
<path d="M1277.71 707.413C1273.86 704.019 1270.11 699.603 1269.51 694.304C1269.23 691.789 1269.46 688.751 1271.55 687.004C1273.51 685.352 1276.25 685.238 1278.65 685.767C1283.99 686.944 1288.33 690.81 1293.87 691.296C1295.6 691.448 1297.33 691.32 1299.01 690.946C1307.6 679.561 1312.65 666.188 1314.73 651.867C1314.75 651.739 1314.75 651.612 1314.77 651.493C1313.36 651.946 1311.94 652.352 1310.5 652.666C1306.78 653.477 1302.94 653.744 1299.14 653.558C1295.35 653.376 1291.32 652.754 1287.76 651.397C1286.25 650.82 1284.78 649.807 1284.15 648.25C1283.41 646.377 1284.33 644.616 1285.57 643.221C1290.07 638.151 1296.81 636.461 1303.19 635.121C1307.6 634.188 1312.51 633.188 1316.16 630.457C1316.19 619.81 1315.48 609.133 1314.95 598.509C1314.9 597.642 1314.87 596.769 1314.82 595.892C1313.36 596.747 1311.92 597.644 1310.52 598.591C1308.85 599.896 1307.18 601.193 1305.5 602.499C1305.26 602.684 1305.01 602.81 1304.76 602.905C1304.45 603.165 1304.13 603.4 1303.81 603.661C1302.79 604.522 1301.28 604.339 1300.36 603.462C1300.3 603.404 1300.24 603.329 1300.2 603.266C1298.81 602.891 1297.75 601.542 1298.45 599.869C1300.38 595.31 1303.71 591.715 1307.1 588.2C1309.82 585.393 1312.64 582.526 1314.48 579.062C1314.66 564.801 1316.4 550.59 1322.15 537.386C1323.14 535.114 1320.71 533.313 1318.66 533.983C1302.06 539.453 1286.06 546.437 1270.6 554.521C1268.06 558.056 1267.68 563.037 1267.43 567.222C1267.26 570.086 1267.25 572.956 1267.43 575.819C1267.59 578.43 1267.68 581.053 1265.84 583.161C1264.31 584.921 1262.09 585.719 1259.89 586.275C1258.68 586.58 1257.47 586.767 1256.32 586.144C1255.09 585.462 1254.72 584.142 1254.35 582.884C1253.02 578.367 1250.87 571.321 1251.22 565.374C1241.07 571.439 1231.16 577.916 1221.51 584.719C1219.9 591.441 1223.28 599.131 1225.77 605.355C1228.68 612.615 1231.77 621.776 1227.91 629.293C1226.19 632.645 1223.03 635.24 1219.16 635.47C1217.36 635.58 1214.76 635.309 1213.88 633.475C1213.11 631.866 1212.86 630.066 1211.99 628.455C1207.95 621.066 1200.07 616.774 1194.18 611.051C1193.05 609.947 1192.16 608.831 1191.64 607.679C1187 612.087 1182.79 616.88 1179.38 622.243C1174.92 629.269 1172.29 637.063 1171.29 645.067C1171.69 645.562 1172.12 646.029 1172.55 646.448C1173.5 647.354 1174.64 648.209 1175.73 648.848C1176.81 649.475 1177.95 650.001 1178.95 650.76C1181.53 652.752 1182.47 656.013 1180.65 658.868C1178.95 661.54 1175.49 662.43 1172.49 662.499C1172.17 662.502 1171.9 662.462 1171.62 662.419C1172.21 666.166 1173.12 669.879 1174.36 673.505C1177.29 682.112 1181.99 689.927 1187.79 696.863C1196.32 701.897 1207.13 702.068 1216.19 696.751C1216.46 696.599 1216.74 696.528 1217.03 696.514C1219.64 689.54 1222.58 682.706 1225.8 676.03C1231.89 663.313 1238.79 651.06 1245.92 638.993L1267.52 602.925C1274.76 590.935 1282.3 579.03 1291.36 568.328C1282.64 579.31 1275.51 591.39 1268.66 603.587L1248.22 640.29C1241.48 652.546 1235.01 664.947 1229.38 677.674C1225.93 685.458 1222.87 693.394 1220.28 701.469C1221.66 708.048 1225.47 713.93 1230.96 717.915C1232.12 718.755 1233.35 719.468 1234.63 720.104C1241.39 722.144 1248.6 722.541 1255.75 721.831C1264.54 719.244 1272.73 714.849 1280.12 709.368C1279.27 708.744 1278.47 708.095 1277.71 707.413Z" fill="#7D7A9C"/>
<g style="mix-blend-mode:multiply" opacity="0.6">
<path d="M764.089 701.496C770.551 705.544 778.882 709.281 784.487 714.965C785.967 716.444 787.212 718.079 787.913 719.792L796.788 719.791C793.908 714.964 789.704 711.383 789.47 705.466C789.314 699.939 792.195 694.8 793.596 689.584C796.321 679.696 799.28 669.887 802.394 660.155C806.287 647.854 811.892 636.254 818.588 625.276C821.001 621.461 823.492 617.646 826.14 613.987C828.475 610.795 830.266 607.214 827.852 603.477C826.295 601.141 824.816 598.806 823.259 596.47C819.989 591.643 817.186 585.882 810.802 590.008C808.7 591.409 806.053 592.733 804.262 594.524C803.172 595.614 790.716 606.124 789.159 606.902C789.47 606.747 790.404 602.465 790.56 601.92C791.572 599.039 792.818 596.236 793.986 593.434C796.71 587.205 805.197 578.408 796.788 573.892C792.039 571.401 786.979 569.454 781.918 567.508L781.918 567.508C781.373 567.274 780.672 567.041 780.05 567.119C778.181 567.274 777.714 570.077 777.091 571.479C775.3 575.371 773.51 579.264 771.641 583.079C770.863 584.558 766.269 591.332 766.503 592.499C766.191 590.942 765.413 564.705 765.413 564.705L765.413 564.705C763.7 553.805 761.987 542.906 759.963 532.084C759.885 531.617 759.807 531.072 759.574 530.683C758.172 528.191 752.1 528.269 749.686 528.036C746.339 527.724 742.913 527.958 739.565 528.503C736.451 529.048 726.875 530.06 725.084 533.096C724.461 534.108 725.162 536.21 725.396 537.3C725.941 540.259 726.953 543.062 727.42 545.942C728.121 549.991 728.743 554.039 729.366 558.088C731.079 569.766 731.78 581.755 731.624 593.356C731.624 594.822 730.859 599.424 731.528 600.491C731.014 599.71 719.795 582.701 716.676 579.887C703.986 584.169 702.896 594.913 702.662 597.326C703.518 598.416 716.442 618.814 718.856 622.24C721.191 625.665 732.091 650.579 732.091 650.579C732.091 650.579 713.017 635.008 708.501 632.594C703.986 632.906 700.326 652.525 701.105 653.304C701.884 654.16 721.269 667.629 735.283 680.631C743.875 688.603 754.083 695.114 763.917 701.386L764.089 701.496Z" fill="#888098"/>
</g>
<path d="M860 232H812C798.745 232 788 242.745 788 256V268.75V290.5V298.375V304C788 317.255 798.745 328 812 328H828.5H837.875H845.562H853.25H860C873.255 328 884 317.255 884 304V300.328V297.328V263.5V256C884 242.745 873.255 232 860 232Z" stroke="#3E414B" stroke-width="0.75" stroke-linecap="round"/>
<path fill-rule="evenodd" clip-rule="evenodd" d="M859.04 280.649C859.04 278.948 858.887 277.311 858.604 275.74H836V285.024H848.916C848.36 288.024 846.669 290.566 844.127 292.268V298.289H851.884C856.422 294.111 859.04 287.958 859.04 280.649Z" fill="#4285F4"/>
<path fill-rule="evenodd" clip-rule="evenodd" d="M836 304.104C842.48 304.104 847.913 301.955 851.884 298.289L844.127 292.268C841.978 293.708 839.229 294.558 836 294.558C829.749 294.558 824.458 290.337 822.571 284.664H814.553V290.882C818.502 298.726 826.618 304.104 836 304.104Z" fill="#34A853"/>
<path fill-rule="evenodd" clip-rule="evenodd" d="M822.571 284.664C822.091 283.224 821.818 281.686 821.818 280.104C821.818 278.522 822.091 276.984 822.571 275.544V269.326H814.553C812.927 272.566 812 276.231 812 280.104C812 283.977 812.927 287.642 814.553 290.882L822.571 284.664Z" fill="#FBBC05"/>
<path fill-rule="evenodd" clip-rule="evenodd" d="M836 265.649C839.524 265.649 842.687 266.86 845.175 269.238L852.058 262.355C847.902 258.482 842.469 256.104 836 256.104C826.618 256.104 818.502 261.482 814.553 269.326L822.571 275.544C824.458 269.871 829.749 265.649 836 265.649Z" fill="#EA4335"/>
<rect x="764" y="362.896" width="480" height="360" rx="32" fill="#DFD7ED"/>
<path d="M798.237 631.896H802.291C804.396 631.896 805.661 630.843 805.661 629.114V629.1C805.661 627.815 804.772 626.872 803.439 626.728V626.612C804.41 626.448 805.169 625.525 805.169 624.5V624.486C805.169 622.975 804.055 622.032 802.202 622.032H798.237V631.896ZM801.847 623.283C802.981 623.283 803.645 623.823 803.645 624.753V624.766C803.645 625.723 802.94 626.229 801.587 626.229H799.769V623.283H801.847ZM801.895 627.398C803.337 627.398 804.096 627.945 804.096 629.004V629.018C804.096 630.078 803.364 630.645 801.983 630.645H799.769V627.398H801.895ZM807.459 631.896H808.942V627.46C808.942 626.386 809.715 625.689 810.85 625.689C811.13 625.689 811.383 625.723 811.649 625.778V624.411C811.499 624.377 811.239 624.342 811 624.342C810.009 624.342 809.318 624.807 809.052 625.593H808.942V624.472H807.459V631.896ZM815.047 632.019C816.031 632.019 816.811 631.595 817.248 630.843H817.364V631.896H818.834V626.817C818.834 625.258 817.781 624.329 815.915 624.329C814.227 624.329 813.058 625.142 812.88 626.359L812.873 626.407H814.302L814.309 626.379C814.486 625.853 815.026 625.552 815.847 625.552C816.852 625.552 817.364 626.003 817.364 626.817V627.473L815.354 627.589C813.584 627.699 812.586 628.471 812.586 629.797V629.811C812.586 631.158 813.632 632.019 815.047 632.019ZM814.062 629.75V629.736C814.062 629.066 814.527 628.697 815.553 628.635L817.364 628.519V629.155C817.364 630.112 816.551 630.836 815.443 630.836C814.644 630.836 814.062 630.433 814.062 629.75ZM820.926 631.896H822.409V627.542C822.409 626.345 823.086 625.6 824.173 625.6C825.26 625.6 825.772 626.209 825.772 627.439V631.896H827.249V627.09C827.249 625.32 826.333 624.329 824.672 624.329C823.592 624.329 822.881 624.807 822.519 625.6H822.409V624.472H820.926V631.896ZM832.027 632.019C833.066 632.019 833.88 631.541 834.311 630.727H834.427V631.896H835.903V621.56H834.427V625.648H834.311C833.914 624.848 833.046 624.342 832.027 624.342C830.141 624.342 828.951 625.826 828.951 628.177V628.191C828.951 630.522 830.161 632.019 832.027 632.019ZM832.451 630.754C831.207 630.754 830.462 629.784 830.462 628.191V628.177C830.462 626.585 831.207 625.614 832.451 625.614C833.682 625.614 834.447 626.591 834.447 628.177V628.191C834.447 629.777 833.688 630.754 832.451 630.754ZM838.884 623.146C839.39 623.146 839.813 622.729 839.813 622.223C839.813 621.711 839.39 621.294 838.884 621.294C838.371 621.294 837.954 621.711 837.954 622.223C837.954 622.729 838.371 623.146 838.884 623.146ZM838.139 631.896H839.615V624.472H838.139V631.896ZM841.775 631.896H843.259V627.542C843.259 626.345 843.936 625.6 845.022 625.6C846.109 625.6 846.622 626.209 846.622 627.439V631.896H848.099V627.09C848.099 625.32 847.183 624.329 845.521 624.329C844.441 624.329 843.73 624.807 843.368 625.6H843.259V624.472H841.775V631.896ZM853.308 634.514C855.413 634.514 856.746 633.434 856.746 631.746V624.472H855.27V625.689H855.181C854.75 624.855 853.943 624.342 852.904 624.342C850.977 624.342 849.794 625.839 849.794 627.959V627.972C849.794 630.064 850.97 631.534 852.877 631.534C853.896 631.534 854.716 631.083 855.167 630.276H855.276V631.739C855.276 632.751 854.552 633.325 853.328 633.325C852.323 633.325 851.722 632.962 851.599 632.45L851.592 632.436H850.095L850.081 632.45C850.259 633.687 851.421 634.514 853.308 634.514ZM853.287 630.31C852.022 630.31 851.312 629.346 851.312 627.965V627.952C851.312 626.571 852.022 625.6 853.287 625.6C854.538 625.6 855.304 626.571 855.304 627.952V627.965C855.304 629.353 854.545 630.31 853.287 630.31ZM864.744 632.019C865.729 632.019 866.508 631.595 866.945 630.843H867.062V631.896H868.531V626.817C868.531 625.258 867.479 624.329 865.612 624.329C863.924 624.329 862.755 625.142 862.577 626.359L862.57 626.407H863.999L864.006 626.379C864.184 625.853 864.724 625.552 865.544 625.552C866.549 625.552 867.062 626.003 867.062 626.817V627.473L865.052 627.589C863.281 627.699 862.283 628.471 862.283 629.797V629.811C862.283 631.158 863.329 632.019 864.744 632.019ZM863.76 629.75V629.736C863.76 629.066 864.225 628.697 865.25 628.635L867.062 628.519V629.155C867.062 630.112 866.248 630.836 865.141 630.836C864.341 630.836 863.76 630.433 863.76 629.75ZM870.623 631.896H872.106V627.46C872.106 626.386 872.879 625.689 874.014 625.689C874.294 625.689 874.547 625.723 874.813 625.778V624.411C874.663 624.377 874.403 624.342 874.164 624.342C873.173 624.342 872.482 624.807 872.216 625.593H872.106V624.472H870.623V631.896ZM879.154 632.04C881.055 632.04 882.08 630.946 882.326 629.968L882.34 629.907L880.911 629.914L880.884 629.968C880.706 630.351 880.139 630.823 879.188 630.823C877.965 630.823 877.186 629.996 877.158 628.574H882.422V628.054C882.422 625.826 881.15 624.329 879.079 624.329C877.008 624.329 875.668 625.88 875.668 628.198V628.205C875.668 630.556 876.98 632.04 879.154 632.04ZM879.086 625.545C880.091 625.545 880.836 626.188 880.952 627.514H877.179C877.309 626.236 878.074 625.545 879.086 625.545ZM886.223 632.019C887.207 632.019 887.986 631.595 888.424 630.843H888.54V631.896H890.01V626.817C890.01 625.258 888.957 624.329 887.091 624.329C885.402 624.329 884.233 625.142 884.056 626.359L884.049 626.407H885.478L885.484 626.379C885.662 625.853 886.202 625.552 887.022 625.552C888.027 625.552 888.54 626.003 888.54 626.817V627.473L886.53 627.589C884.76 627.699 883.762 628.471 883.762 629.797V629.811C883.762 631.158 884.808 632.019 886.223 632.019ZM885.238 629.75V629.736C885.238 629.066 885.703 628.697 886.729 628.635L888.54 628.519V629.155C888.54 630.112 887.727 630.836 886.619 630.836C885.819 630.836 885.238 630.433 885.238 629.75Z" fill="#191C1D"/>
<circle cx="807" cy="654.896" r="5" fill="#5D34F2"/>
<rect x="799" y="646.896" width="16" height="16" rx="8" stroke="#5D34F2" stroke-width="2"/>
<path d="M825.472 659.896H826.764L827.755 657.073H831.679L832.67 659.896H833.962L830.325 650.032H829.108L825.472 659.896ZM829.662 651.625H829.771L831.316 656.027H828.117L829.662 651.625ZM835.541 662.357H836.73V658.734H836.84C837.243 659.52 838.125 660.026 839.137 660.026C841.01 660.026 842.227 658.529 842.227 656.218V656.205C842.227 653.908 841.003 652.397 839.137 652.397C838.111 652.397 837.291 652.882 836.84 653.703H836.73V652.527H835.541V662.357ZM838.863 658.973C837.523 658.973 836.703 657.92 836.703 656.218V656.205C836.703 654.503 837.523 653.45 838.863 653.45C840.21 653.45 841.01 654.489 841.01 656.205V656.218C841.01 657.934 840.21 658.973 838.863 658.973ZM844.086 662.357H845.275V658.734H845.385C845.788 659.52 846.67 660.026 847.682 660.026C849.555 660.026 850.771 658.529 850.771 656.218V656.205C850.771 653.908 849.548 652.397 847.682 652.397C846.656 652.397 845.836 652.882 845.385 653.703H845.275V652.527H844.086V662.357ZM847.408 658.973C846.068 658.973 845.248 657.92 845.248 656.218V656.205C845.248 654.503 846.068 653.45 847.408 653.45C848.755 653.45 849.555 654.489 849.555 656.205V656.218C849.555 657.934 848.755 658.973 847.408 658.973ZM856.719 659.896H862.707V658.789H857.949V650.032H856.719V659.896ZM867.212 660.026C869.311 660.026 870.609 658.577 870.609 656.218V656.205C870.609 653.839 869.311 652.397 867.212 652.397C865.113 652.397 863.814 653.839 863.814 656.205V656.218C863.814 658.577 865.113 660.026 867.212 660.026ZM867.212 658.973C865.817 658.973 865.031 657.955 865.031 656.218V656.205C865.031 654.461 865.817 653.45 867.212 653.45C868.606 653.45 869.393 654.461 869.393 656.205V656.218C869.393 657.955 868.606 658.973 867.212 658.973ZM875.49 662.494C877.5 662.494 878.771 661.441 878.771 659.794V652.527H877.582V653.744H877.5C877.049 652.91 876.242 652.397 875.203 652.397C873.275 652.397 872.086 653.894 872.086 655.959V655.972C872.086 658.037 873.269 659.513 875.176 659.513C876.188 659.513 877.021 659.055 877.486 658.242H877.596V659.732C877.596 660.819 876.81 661.441 875.49 661.441C874.431 661.441 873.774 661.044 873.645 660.484L873.638 660.477H872.407L872.394 660.484C872.578 661.694 873.713 662.494 875.49 662.494ZM875.436 658.461C874.068 658.461 873.303 657.435 873.303 655.972V655.959C873.303 654.496 874.068 653.45 875.436 653.45C876.796 653.45 877.623 654.496 877.623 655.959V655.972C877.623 657.435 876.803 658.461 875.436 658.461ZM884.015 660.026C886.113 660.026 887.412 658.577 887.412 656.218V656.205C887.412 653.839 886.113 652.397 884.015 652.397C881.916 652.397 880.617 653.839 880.617 656.205V656.218C880.617 658.577 881.916 660.026 884.015 660.026ZM884.015 658.973C882.62 658.973 881.834 657.955 881.834 656.218V656.205C881.834 654.461 882.62 653.45 884.015 653.45C885.409 653.45 886.195 654.461 886.195 656.205V656.218C886.195 657.955 885.409 658.973 884.015 658.973ZM894.617 659.896H895.807L897.447 654.195H897.557L899.204 659.896H900.4L902.465 652.527H901.282L899.833 658.419H899.724L898.076 652.527H896.948L895.301 658.419H895.191L893.742 652.527H892.553L894.617 659.896ZM904.666 651.105C905.117 651.105 905.486 650.736 905.486 650.285C905.486 649.834 905.117 649.464 904.666 649.464C904.215 649.464 903.846 649.834 903.846 650.285C903.846 650.736 904.215 651.105 904.666 651.105ZM904.064 659.896H905.254V652.527H904.064V659.896ZM910.114 659.951C910.347 659.951 910.572 659.923 910.805 659.882V658.871C910.586 658.891 910.47 658.898 910.258 658.898C909.492 658.898 909.191 658.549 909.191 657.681V653.511H910.805V652.527H909.191V650.62H907.961V652.527H906.799V653.511H907.961V657.982C907.961 659.39 908.597 659.951 910.114 659.951ZM912.65 659.896H913.84V655.535C913.84 654.243 914.585 653.45 915.761 653.45C916.937 653.45 917.483 654.086 917.483 655.412V659.896H918.673V655.125C918.673 653.375 917.75 652.397 916.096 652.397C915.009 652.397 914.318 652.855 913.949 653.634H913.84V649.601H912.65V659.896ZM924.764 659.896H925.953V655.33C925.953 654.291 926.685 653.45 927.648 653.45C928.578 653.45 929.18 654.017 929.18 654.892V659.896H930.369V655.159C930.369 654.222 931.046 653.45 932.071 653.45C933.11 653.45 933.609 653.99 933.609 655.077V659.896H934.799V654.803C934.799 653.258 933.958 652.397 932.454 652.397C931.436 652.397 930.595 652.91 930.198 653.689H930.089C929.747 652.923 929.05 652.397 928.052 652.397C927.088 652.397 926.391 652.855 926.062 653.648H925.953V652.527H924.764V659.896ZM939.953 660.026C941.689 660.026 942.742 659.042 942.995 658.044L943.009 657.989H941.819L941.792 658.05C941.594 658.495 940.979 658.966 939.98 658.966C938.668 658.966 937.827 658.078 937.793 656.553H943.098V656.088C943.098 653.887 941.881 652.397 939.878 652.397C937.875 652.397 936.576 653.956 936.576 656.232V656.239C936.576 658.549 937.848 660.026 939.953 660.026ZM939.871 653.457C940.958 653.457 941.765 654.147 941.888 655.603H937.813C937.943 654.202 938.777 653.457 939.871 653.457ZM947.473 660.026C949.147 660.026 950.426 659.117 950.426 657.804V657.791C950.426 656.738 949.756 656.136 948.368 655.801L947.233 655.528C946.365 655.316 945.996 655.002 945.996 654.503V654.489C945.996 653.839 946.639 653.388 947.514 653.388C948.402 653.388 948.977 653.792 949.134 654.373H950.303C950.139 653.169 949.065 652.397 947.521 652.397C945.955 652.397 944.779 653.32 944.779 654.544V654.55C944.779 655.61 945.401 656.211 946.782 656.54L947.924 656.813C948.833 657.032 949.209 657.38 949.209 657.879V657.893C949.209 658.563 948.505 659.035 947.514 659.035C946.57 659.035 945.982 658.631 945.784 658.016H944.567C944.704 659.233 945.832 660.026 947.473 660.026ZM954.664 660.026C956.339 660.026 957.617 659.117 957.617 657.804V657.791C957.617 656.738 956.947 656.136 955.56 655.801L954.425 655.528C953.557 655.316 953.188 655.002 953.188 654.503V654.489C953.188 653.839 953.83 653.388 954.705 653.388C955.594 653.388 956.168 653.792 956.325 654.373H957.494C957.33 653.169 956.257 652.397 954.712 652.397C953.146 652.397 951.971 653.32 951.971 654.544V654.55C951.971 655.61 952.593 656.211 953.974 656.54L955.115 656.813C956.024 657.032 956.4 657.38 956.4 657.879V657.893C956.4 658.563 955.696 659.035 954.705 659.035C953.762 659.035 953.174 658.631 952.976 658.016H951.759C951.896 659.233 953.023 660.026 954.664 660.026ZM961.486 660.026C962.478 660.026 963.25 659.595 963.715 658.809H963.824V659.896H965.014V654.851C965.014 653.32 964.009 652.397 962.211 652.397C960.639 652.397 959.518 653.176 959.326 654.332L959.319 654.373H960.509L960.516 654.352C960.707 653.778 961.288 653.45 962.17 653.45C963.271 653.45 963.824 653.942 963.824 654.851V655.521L961.712 655.651C959.996 655.753 959.025 656.512 959.025 657.825V657.838C959.025 659.178 960.085 660.026 961.486 660.026ZM960.242 657.811V657.797C960.242 657.066 960.734 656.669 961.855 656.601L963.824 656.478V657.148C963.824 658.201 962.942 658.994 961.732 658.994C960.878 658.994 960.242 658.556 960.242 657.811ZM970.223 662.494C972.232 662.494 973.504 661.441 973.504 659.794V652.527H972.314V653.744H972.232C971.781 652.91 970.975 652.397 969.936 652.397C968.008 652.397 966.818 653.894 966.818 655.959V655.972C966.818 658.037 968.001 659.513 969.908 659.513C970.92 659.513 971.754 659.055 972.219 658.242H972.328V659.732C972.328 660.819 971.542 661.441 970.223 661.441C969.163 661.441 968.507 661.044 968.377 660.484L968.37 660.477H967.14L967.126 660.484C967.311 661.694 968.445 662.494 970.223 662.494ZM970.168 658.461C968.801 658.461 968.035 657.435 968.035 655.972V655.959C968.035 654.496 968.801 653.45 970.168 653.45C971.528 653.45 972.355 654.496 972.355 655.959V655.972C972.355 657.435 971.535 658.461 970.168 658.461ZM978.727 660.026C980.463 660.026 981.516 659.042 981.769 658.044L981.782 657.989H980.593L980.565 658.05C980.367 658.495 979.752 658.966 978.754 658.966C977.441 658.966 976.601 658.078 976.566 656.553H981.871V656.088C981.871 653.887 980.654 652.397 978.651 652.397C976.648 652.397 975.35 653.956 975.35 656.232V656.239C975.35 658.549 976.621 660.026 978.727 660.026ZM978.645 653.457C979.731 653.457 980.538 654.147 980.661 655.603H976.587C976.717 654.202 977.551 653.457 978.645 653.457Z" fill="#191C1D"/>
<circle cx="807" cy="682.896" r="8" fill="#F7F8F8"/>
<circle cx="807" cy="682.896" r="8" fill="#78767F" fill-opacity="0.02"/>
<circle cx="807" cy="682.896" r="8" fill="#5D34F2" fill-opacity="0.14"/>
<circle cx="807" cy="682.896" r="8" stroke="#A398B7" stroke-width="2"/>
<path d="M825.472 687.896H826.764L827.755 685.073H831.679L832.67 687.896H833.962L830.325 678.032H829.108L825.472 687.896ZM829.662 679.625H829.771L831.316 684.027H828.117L829.662 679.625ZM835.541 690.357H836.73V686.734H836.84C837.243 687.52 838.125 688.026 839.137 688.026C841.01 688.026 842.227 686.529 842.227 684.218V684.205C842.227 681.908 841.003 680.397 839.137 680.397C838.111 680.397 837.291 680.882 836.84 681.703H836.73V680.527H835.541V690.357ZM838.863 686.973C837.523 686.973 836.703 685.92 836.703 684.218V684.205C836.703 682.503 837.523 681.45 838.863 681.45C840.21 681.45 841.01 682.489 841.01 684.205V684.218C841.01 685.934 840.21 686.973 838.863 686.973ZM844.086 690.357H845.275V686.734H845.385C845.788 687.52 846.67 688.026 847.682 688.026C849.555 688.026 850.771 686.529 850.771 684.218V684.205C850.771 681.908 849.548 680.397 847.682 680.397C846.656 680.397 845.836 680.882 845.385 681.703H845.275V680.527H844.086V690.357ZM847.408 686.973C846.068 686.973 845.248 685.92 845.248 684.218V684.205C845.248 682.503 846.068 681.45 847.408 681.45C848.755 681.45 849.555 682.489 849.555 684.205V684.218C849.555 685.934 848.755 686.973 847.408 686.973ZM856.719 687.896H862.707V686.789H857.949V678.032H856.719V687.896ZM867.212 688.026C869.311 688.026 870.609 686.577 870.609 684.218V684.205C870.609 681.839 869.311 680.397 867.212 680.397C865.113 680.397 863.814 681.839 863.814 684.205V684.218C863.814 686.577 865.113 688.026 867.212 688.026ZM867.212 686.973C865.817 686.973 865.031 685.955 865.031 684.218V684.205C865.031 682.461 865.817 681.45 867.212 681.45C868.606 681.45 869.393 682.461 869.393 684.205V684.218C869.393 685.955 868.606 686.973 867.212 686.973ZM875.49 690.494C877.5 690.494 878.771 689.441 878.771 687.794V680.527H877.582V681.744H877.5C877.049 680.91 876.242 680.397 875.203 680.397C873.275 680.397 872.086 681.894 872.086 683.959V683.972C872.086 686.037 873.269 687.513 875.176 687.513C876.188 687.513 877.021 687.055 877.486 686.242H877.596V687.732C877.596 688.819 876.81 689.441 875.49 689.441C874.431 689.441 873.774 689.044 873.645 688.484L873.638 688.477H872.407L872.394 688.484C872.578 689.694 873.713 690.494 875.49 690.494ZM875.436 686.461C874.068 686.461 873.303 685.435 873.303 683.972V683.959C873.303 682.496 874.068 681.45 875.436 681.45C876.796 681.45 877.623 682.496 877.623 683.959V683.972C877.623 685.435 876.803 686.461 875.436 686.461ZM884.015 688.026C886.113 688.026 887.412 686.577 887.412 684.218V684.205C887.412 681.839 886.113 680.397 884.015 680.397C881.916 680.397 880.617 681.839 880.617 684.205V684.218C880.617 686.577 881.916 688.026 884.015 688.026ZM884.015 686.973C882.62 686.973 881.834 685.955 881.834 684.218V684.205C881.834 682.461 882.62 681.45 884.015 681.45C885.409 681.45 886.195 682.461 886.195 684.205V684.218C886.195 685.955 885.409 686.973 884.015 686.973Z" fill="#191C1D"/>
<path d="M800.822 435.896C802.627 435.896 803.746 434.959 803.746 433.476C803.746 432.386 802.932 431.543 801.812 431.461V431.355C802.68 431.226 803.342 430.447 803.342 429.55C803.342 428.244 802.363 427.441 800.723 427.441H797.025V435.896H800.822ZM798.795 428.794H800.271C801.115 428.794 801.602 429.199 801.602 429.873C801.602 430.552 801.08 430.945 800.125 430.945H798.795V428.794ZM798.795 434.543V432.14H800.33C801.373 432.14 801.941 432.55 801.941 433.324C801.941 434.115 801.391 434.543 800.371 434.543H798.795ZM808.315 428.871H809.85C810.729 428.871 811.28 429.375 811.28 430.177C811.28 430.992 810.759 431.472 809.868 431.472H808.315V428.871ZM808.315 432.832H809.762L811.339 435.896H813.343L811.561 432.556C812.534 432.169 813.096 431.232 813.096 430.154C813.096 428.472 811.954 427.441 810.096 427.441H806.546V435.896H808.315V432.832ZM821.509 435.896H823.425L820.49 427.441H818.41L815.474 435.896H817.25L817.9 433.88H820.871L821.509 435.896ZM819.341 429.199H819.447L820.496 432.515H818.281L819.341 429.199ZM827.76 435.896V430.605H827.866L831.768 435.896H833.233V427.441H831.539V432.709H831.434L827.543 427.441H826.067V435.896H827.76ZM836.489 427.435V435.896H839.818C842.349 435.896 843.784 434.355 843.784 431.607C843.784 428.959 842.331 427.435 839.818 427.435H836.489ZM838.259 428.947H839.536C841.071 428.947 841.98 429.925 841.98 431.636C841.98 433.423 841.101 434.384 839.536 434.384H838.259V428.947ZM848.424 435.896V427.441H846.654V435.896H848.424ZM853.368 435.896V430.605H853.473L857.376 435.896H858.841V427.441H857.147V432.709H857.042L853.151 427.441H851.675V435.896H853.368ZM869.527 432.445V431.367H865.976V432.697H867.81L867.804 432.849C867.769 433.869 866.966 434.554 865.806 434.554C864.412 434.554 863.533 433.453 863.533 431.642C863.533 429.867 864.371 428.783 865.736 428.783C866.72 428.783 867.429 429.281 867.693 430.136H869.451C869.205 428.378 867.734 427.224 865.736 427.224C863.275 427.224 861.722 428.935 861.722 431.66C861.722 434.425 863.263 436.113 865.777 436.113C868.086 436.113 869.527 434.707 869.527 432.445Z" fill="#928F9A"/>
<rect x="1072.5" y="424.396" width="139" height="275" rx="19.5" fill="#EFE8FB" stroke="#C6BADA"/>
<path d="M1092 593.7H1130V594.3H1092V593.7Z" fill="#F7F8F8"/>
<path d="M1092 593.7H1130V594.3H1092V593.7Z" fill="#78767F" fill-opacity="0.02"/>
<path d="M1092 593.7H1130V594.3H1092V593.7Z" fill="#5D34F2" fill-opacity="0.16"/>
<path d="M1141.78 596.492C1141.43 596.88 1140.96 597.074 1140.36 597.074C1139.76 597.074 1139.29 596.88 1138.94 596.492C1138.6 596.102 1138.42 595.569 1138.42 594.895C1138.42 594.217 1138.6 593.685 1138.94 593.297C1139.29 592.909 1139.76 592.715 1140.36 592.715C1140.96 592.715 1141.44 592.909 1141.79 593.297C1142.13 593.685 1142.3 594.217 1142.3 594.895C1142.3 595.569 1142.13 596.102 1141.78 596.492ZM1139.44 596.059C1139.66 596.332 1139.96 596.469 1140.36 596.469C1140.76 596.469 1141.07 596.332 1141.29 596.059C1141.5 595.783 1141.61 595.395 1141.61 594.895C1141.61 594.395 1141.5 594.008 1141.29 593.734C1141.07 593.458 1140.76 593.32 1140.36 593.32C1139.96 593.32 1139.66 593.458 1139.44 593.734C1139.23 594.008 1139.12 594.395 1139.12 594.895C1139.12 595.395 1139.23 595.783 1139.44 596.059ZM1143.36 597V592.789H1144V593.414H1144.06C1144.12 593.208 1144.27 593.04 1144.48 592.91C1144.7 592.78 1144.95 592.715 1145.23 592.715C1145.36 592.715 1145.47 592.721 1145.57 592.734V593.406C1145.48 593.38 1145.33 593.367 1145.14 593.367C1144.82 593.367 1144.55 593.464 1144.34 593.656C1144.14 593.849 1144.03 594.094 1144.03 594.391V597H1143.36Z" fill="#716AC0"/>
<path d="M1154 593.7H1192V594.3H1154V593.7Z" fill="#F7F8F8"/>
<path d="M1154 593.7H1192V594.3H1154V593.7Z" fill="#78767F" fill-opacity="0.02"/>
<path d="M1154 593.7H1192V594.3H1154V593.7Z" fill="#5D34F2" fill-opacity="0.16"/>
<circle cx="1110" cy="617" r="8" fill="#CABEFF"/>
<circle cx="1142" cy="617" r="8" fill="#CABEFF"/>
<circle cx="1174" cy="617" r="8" fill="#CABEFF"/>
<circle cx="1142" cy="456.896" r="14" fill="#CABEFF"/>
<path d="M1098 478.896H1163.48M1186 478.896H1175.5" stroke="#D8D0E4" stroke-width="2" stroke-linecap="round"/>
<rect x="1086" y="494.896" width="112" height="20" rx="4" fill="#DBD1EB"/>
<path d="M1094.61 507.896H1095.46V505.291C1095.46 504.736 1095.84 504.298 1096.35 504.298C1096.85 504.298 1097.16 504.603 1097.16 505.087V507.896H1098.01V505.212C1098.01 504.701 1098.36 504.298 1098.9 504.298C1099.46 504.298 1099.72 504.587 1099.72 505.173V507.896H1100.57V504.97C1100.57 504.087 1100.07 503.572 1099.21 503.572C1098.62 503.572 1098.13 503.873 1097.92 504.33H1097.85C1097.66 503.873 1097.25 503.572 1096.68 503.572C1096.12 503.572 1095.71 503.841 1095.52 504.306H1095.46V503.654H1094.61V507.896ZM1103.54 509.392C1104.75 509.392 1105.51 508.775 1105.51 507.81V503.654H1104.66V504.349H1104.61C1104.37 503.873 1103.91 503.58 1103.31 503.58C1102.21 503.58 1101.54 504.435 1101.54 505.646V505.654C1101.54 506.849 1102.21 507.689 1103.3 507.689C1103.88 507.689 1104.35 507.431 1104.61 506.97H1104.67V507.806C1104.67 508.384 1104.25 508.712 1103.55 508.712C1102.98 508.712 1102.64 508.505 1102.57 508.212L1102.56 508.205H1101.71L1101.7 508.212C1101.8 508.919 1102.46 509.392 1103.54 509.392ZM1103.53 506.99C1102.81 506.99 1102.4 506.439 1102.4 505.65V505.642C1102.4 504.853 1102.81 504.298 1103.53 504.298C1104.25 504.298 1104.68 504.853 1104.68 505.642V505.65C1104.68 506.443 1104.25 506.99 1103.53 506.99ZM1108.51 507.978C1109.59 507.978 1110.18 507.353 1110.32 506.794L1110.33 506.759L1109.51 506.763L1109.5 506.794C1109.39 507.013 1109.07 507.283 1108.53 507.283C1107.83 507.283 1107.38 506.81 1107.37 505.998H1110.38V505.701C1110.38 504.427 1109.65 503.572 1108.46 503.572C1107.28 503.572 1106.52 504.459 1106.52 505.783V505.787C1106.52 507.13 1107.27 507.978 1108.51 507.978ZM1108.47 504.267C1109.04 504.267 1109.47 504.634 1109.54 505.392H1107.38C1107.45 504.662 1107.89 504.267 1108.47 504.267ZM1113.18 507.978C1114.42 507.978 1115.18 507.146 1115.18 505.779V505.771C1115.18 504.404 1114.42 503.572 1113.18 503.572C1111.94 503.572 1111.17 504.408 1111.17 505.771V505.779C1111.17 507.146 1111.93 507.978 1113.18 507.978ZM1113.18 507.271C1112.45 507.271 1112.04 506.72 1112.04 505.779V505.771C1112.04 504.83 1112.45 504.279 1113.18 504.279C1113.91 504.279 1114.32 504.83 1114.32 505.771V505.779C1114.32 506.716 1113.91 507.271 1113.18 507.271ZM1116.2 507.896H1117.04V505.361C1117.04 504.748 1117.48 504.349 1118.13 504.349C1118.29 504.349 1118.44 504.369 1118.59 504.4V503.619C1118.5 503.599 1118.36 503.58 1118.22 503.58C1117.65 503.58 1117.26 503.845 1117.11 504.294H1117.04V503.654H1116.2V507.896ZM1121.08 509.392C1122.29 509.392 1123.05 508.775 1123.05 507.81V503.654H1122.2V504.349H1122.15C1121.91 503.873 1121.45 503.58 1120.85 503.58C1119.75 503.58 1119.07 504.435 1119.07 505.646V505.654C1119.07 506.849 1119.75 507.689 1120.84 507.689C1121.42 507.689 1121.89 507.431 1122.14 506.97H1122.21V507.806C1122.21 508.384 1121.79 508.712 1121.09 508.712C1120.52 508.712 1120.18 508.505 1120.11 508.212L1120.1 508.205H1119.25L1119.24 508.212C1119.34 508.919 1120 509.392 1121.08 509.392ZM1121.07 506.99C1120.35 506.99 1119.94 506.439 1119.94 505.65V505.642C1119.94 504.853 1120.35 504.298 1121.07 504.298C1121.79 504.298 1122.22 504.853 1122.22 505.642V505.65C1122.22 506.443 1121.79 506.99 1121.07 506.99ZM1126.05 507.978C1127.13 507.978 1127.72 507.353 1127.86 506.794L1127.87 506.759L1127.05 506.763L1127.04 506.794C1126.93 507.013 1126.61 507.283 1126.07 507.283C1125.37 507.283 1124.92 506.81 1124.91 505.998H1127.91V505.701C1127.91 504.427 1127.19 503.572 1126 503.572C1124.82 503.572 1124.05 504.459 1124.05 505.783V505.787C1124.05 507.13 1124.8 507.978 1126.05 507.978ZM1126.01 504.267C1126.58 504.267 1127.01 504.634 1127.07 505.392H1124.92C1124.99 504.662 1125.43 504.267 1126.01 504.267ZM1132.17 508.787C1132.63 508.787 1133.08 508.724 1133.41 508.615V508.072C1133.18 508.177 1132.69 508.244 1132.2 508.244C1130.53 508.244 1129.46 507.193 1129.46 505.556V505.548C1129.46 503.947 1130.54 502.81 1132.06 502.81C1133.59 502.81 1134.63 503.759 1134.63 505.169V505.177C1134.63 506.076 1134.34 506.658 1133.88 506.658C1133.61 506.658 1133.46 506.498 1133.46 506.224V504.005H1132.8V504.478H1132.73C1132.58 504.134 1132.23 503.927 1131.82 503.927C1131.03 503.927 1130.48 504.584 1130.48 505.529V505.537C1130.48 506.525 1131.02 507.189 1131.84 507.189C1132.29 507.189 1132.63 506.974 1132.8 506.576H1132.86L1132.87 506.599C1132.94 506.974 1133.29 507.216 1133.75 507.216C1134.66 507.216 1135.24 506.419 1135.24 505.158V505.15C1135.24 503.451 1133.96 502.271 1132.1 502.271C1130.17 502.271 1128.85 503.595 1128.85 505.525V505.533C1128.85 507.513 1130.14 508.787 1132.17 508.787ZM1131.96 506.58C1131.49 506.58 1131.2 506.189 1131.2 505.556V505.548C1131.2 504.908 1131.48 504.525 1131.97 504.525C1132.46 504.525 1132.77 504.923 1132.77 505.548V505.556C1132.77 506.181 1132.46 506.58 1131.96 506.58ZM1138.09 509.392C1139.29 509.392 1140.05 508.775 1140.05 507.81V503.654H1139.21V504.349H1139.16C1138.91 503.873 1138.45 503.58 1137.86 503.58C1136.76 503.58 1136.08 504.435 1136.08 505.646V505.654C1136.08 506.849 1136.75 507.689 1137.84 507.689C1138.43 507.689 1138.89 507.431 1139.15 506.97H1139.21V507.806C1139.21 508.384 1138.8 508.712 1138.1 508.712C1137.53 508.712 1137.18 508.505 1137.11 508.212L1137.11 508.205H1136.25L1136.25 508.212C1136.35 508.919 1137.01 509.392 1138.09 509.392ZM1138.08 506.99C1137.36 506.99 1136.95 506.439 1136.95 505.65V505.642C1136.95 504.853 1137.36 504.298 1138.08 504.298C1138.79 504.298 1139.23 504.853 1139.23 505.642V505.65C1139.23 506.443 1138.8 506.99 1138.08 506.99ZM1141.27 507.896H1142.12V505.291C1142.12 504.736 1142.5 504.298 1143.01 504.298C1143.51 504.298 1143.83 504.603 1143.83 505.087V507.896H1144.67V505.212C1144.67 504.701 1145.03 504.298 1145.57 504.298C1146.12 504.298 1146.39 504.587 1146.39 505.173V507.896H1147.23V504.97C1147.23 504.087 1146.73 503.572 1145.88 503.572C1145.29 503.572 1144.8 503.873 1144.58 504.33H1144.52C1144.33 503.873 1143.92 503.572 1143.34 503.572C1142.79 503.572 1142.37 503.841 1142.18 504.306H1142.12V503.654H1141.27V507.896ZM1149.58 507.966C1150.14 507.966 1150.59 507.724 1150.84 507.294H1150.9V507.896H1151.74V504.994C1151.74 504.103 1151.14 503.572 1150.07 503.572C1149.11 503.572 1148.44 504.037 1148.34 504.732L1148.34 504.759H1149.15L1149.16 504.744C1149.26 504.443 1149.57 504.271 1150.04 504.271C1150.61 504.271 1150.9 504.529 1150.9 504.994V505.369L1149.75 505.435C1148.74 505.498 1148.17 505.939 1148.17 506.697V506.705C1148.17 507.474 1148.77 507.966 1149.58 507.966ZM1149.02 506.669V506.662C1149.02 506.279 1149.28 506.068 1149.87 506.033L1150.9 505.966V506.33C1150.9 506.877 1150.44 507.291 1149.8 507.291C1149.35 507.291 1149.02 507.06 1149.02 506.669ZM1153.38 502.896C1153.67 502.896 1153.91 502.658 1153.91 502.369C1153.91 502.076 1153.67 501.837 1153.38 501.837C1153.09 501.837 1152.85 502.076 1152.85 502.369C1152.85 502.658 1153.09 502.896 1153.38 502.896ZM1152.95 507.896H1153.8V503.654H1152.95V507.896ZM1155.07 507.896H1155.92V501.99H1155.07V507.896ZM1157.83 507.955C1158.16 507.955 1158.4 507.705 1158.4 507.388C1158.4 507.068 1158.16 506.818 1157.83 506.818C1157.51 506.818 1157.26 507.068 1157.26 507.388C1157.26 507.705 1157.51 507.955 1157.83 507.955ZM1161.33 507.978C1162.38 507.978 1162.99 507.412 1163.14 506.587L1163.15 506.552H1162.34L1162.33 506.572C1162.19 507.029 1161.86 507.271 1161.33 507.271C1160.63 507.271 1160.2 506.701 1160.2 505.763V505.755C1160.2 504.841 1160.62 504.279 1161.33 504.279C1161.89 504.279 1162.24 504.591 1162.33 505.009L1162.34 505.021L1163.15 505.017V504.998C1163.03 504.173 1162.39 503.572 1161.33 503.572C1160.09 503.572 1159.34 504.412 1159.34 505.755V505.763C1159.34 507.134 1160.09 507.978 1161.33 507.978ZM1165.91 507.978C1167.15 507.978 1167.91 507.146 1167.91 505.779V505.771C1167.91 504.404 1167.14 503.572 1165.91 503.572C1164.66 503.572 1163.9 504.408 1163.9 505.771V505.779C1163.9 507.146 1164.66 507.978 1165.91 507.978ZM1165.91 507.271C1165.18 507.271 1164.77 506.72 1164.77 505.779V505.771C1164.77 504.83 1165.18 504.279 1165.91 504.279C1166.63 504.279 1167.05 504.83 1167.05 505.771V505.779C1167.05 506.716 1166.63 507.271 1165.91 507.271ZM1168.92 507.896H1169.77V505.291C1169.77 504.736 1170.15 504.298 1170.66 504.298C1171.16 504.298 1171.48 504.603 1171.48 505.087V507.896H1172.32V505.212C1172.32 504.701 1172.68 504.298 1173.21 504.298C1173.77 504.298 1174.04 504.587 1174.04 505.173V507.896H1174.88V504.97C1174.88 504.087 1174.38 503.572 1173.52 503.572C1172.93 503.572 1172.45 503.873 1172.23 504.33H1172.16C1171.98 503.873 1171.57 503.572 1170.99 503.572C1170.43 503.572 1170.02 503.841 1169.83 504.306H1169.77V503.654H1168.92V507.896Z" fill="#928F9A"/>
<rect x="1086" y="542.896" width="112" height="20" rx="6" fill="#7958FF"/>
<path d="M1128.03 556.029C1127.27 556.029 1126.66 555.765 1126.21 555.236C1125.77 554.707 1125.54 553.989 1125.54 553.08C1125.54 552.171 1125.77 551.452 1126.21 550.923C1126.66 550.392 1127.26 550.127 1128.03 550.127C1128.62 550.127 1129.13 550.296 1129.55 550.634C1129.97 550.973 1130.23 551.414 1130.31 551.959H1129.59C1129.5 551.594 1129.31 551.306 1129.03 551.095C1128.75 550.882 1128.42 550.775 1128.03 550.775C1127.49 550.775 1127.06 550.982 1126.74 551.396C1126.42 551.81 1126.27 552.371 1126.27 553.08C1126.27 553.788 1126.42 554.349 1126.74 554.763C1127.06 555.175 1127.49 555.38 1128.03 555.38C1128.42 555.38 1128.76 555.287 1129.04 555.099C1129.32 554.909 1129.51 554.651 1129.59 554.326H1130.31C1130.21 554.844 1129.96 555.258 1129.55 555.568C1129.14 555.875 1128.63 556.029 1128.03 556.029ZM1134.55 555.388C1134.2 555.776 1133.73 555.97 1133.13 555.97C1132.53 555.97 1132.06 555.776 1131.71 555.388C1131.36 554.998 1131.19 554.465 1131.19 553.791C1131.19 553.114 1131.36 552.581 1131.71 552.193C1132.06 551.805 1132.53 551.611 1133.13 551.611C1133.73 551.611 1134.21 551.805 1134.55 552.193C1134.9 552.581 1135.07 553.114 1135.07 553.791C1135.07 554.465 1134.9 554.998 1134.55 555.388ZM1132.21 554.955C1132.43 555.228 1132.73 555.365 1133.13 555.365C1133.53 555.365 1133.84 555.228 1134.05 554.955C1134.27 554.679 1134.38 554.291 1134.38 553.791C1134.38 553.291 1134.27 552.904 1134.05 552.63C1133.84 552.354 1133.53 552.216 1133.13 552.216C1132.73 552.216 1132.43 552.354 1132.21 552.63C1131.99 552.904 1131.89 553.291 1131.89 553.791C1131.89 554.291 1131.99 554.679 1132.21 554.955ZM1136.13 555.896V551.685H1136.77V552.349H1136.83C1137.06 551.857 1137.48 551.611 1138.1 551.611C1138.57 551.611 1138.93 551.746 1139.19 552.017C1139.44 552.285 1139.57 552.669 1139.57 553.169V555.896H1138.9V553.334C1138.9 552.956 1138.82 552.676 1138.65 552.494C1138.49 552.309 1138.24 552.216 1137.91 552.216C1137.57 552.216 1137.3 552.323 1137.1 552.537C1136.9 552.748 1136.8 553.037 1136.8 553.404V555.896H1136.13ZM1141.08 550.595H1141.75V551.685H1142.69V552.248H1141.75V554.63C1141.75 554.878 1141.8 555.058 1141.9 555.169C1142 555.281 1142.16 555.337 1142.38 555.337C1142.48 555.337 1142.58 555.332 1142.69 555.322V555.888C1142.54 555.914 1142.41 555.927 1142.3 555.927C1141.86 555.927 1141.55 555.84 1141.36 555.666C1141.18 555.491 1141.08 555.203 1141.08 554.802V552.248H1140.4V551.685H1141.08V550.595ZM1143.72 555.896V551.685H1144.39V555.896H1143.72ZM1144.39 550.693C1144.3 550.784 1144.19 550.83 1144.06 550.83C1143.93 550.83 1143.82 550.784 1143.73 550.693C1143.64 550.599 1143.59 550.489 1143.59 550.361C1143.59 550.233 1143.64 550.124 1143.73 550.033C1143.82 549.939 1143.93 549.892 1144.06 549.892C1144.19 549.892 1144.3 549.939 1144.39 550.033C1144.48 550.124 1144.53 550.233 1144.53 550.361C1144.53 550.489 1144.48 550.599 1144.39 550.693ZM1145.68 555.896V551.685H1146.32V552.349H1146.38C1146.6 551.857 1147.02 551.611 1147.64 551.611C1148.12 551.611 1148.48 551.746 1148.73 552.017C1148.99 552.285 1149.12 552.669 1149.12 553.169V555.896H1148.45V553.334C1148.45 552.956 1148.36 552.676 1148.2 552.494C1148.04 552.309 1147.79 552.216 1147.45 552.216C1147.11 552.216 1146.85 552.323 1146.64 552.537C1146.45 552.748 1146.35 553.037 1146.35 553.404V555.896H1145.68ZM1153.75 551.685V555.896H1153.11V555.236H1153.05C1152.94 555.473 1152.78 555.655 1152.56 555.783C1152.34 555.908 1152.07 555.97 1151.75 555.97C1151.28 555.97 1150.92 555.836 1150.68 555.568C1150.43 555.3 1150.31 554.914 1150.31 554.412V551.685H1150.98V554.248C1150.98 554.63 1151.06 554.912 1151.21 555.091C1151.36 555.268 1151.6 555.357 1151.93 555.357C1152.3 555.357 1152.58 555.254 1152.78 555.048C1152.98 554.84 1153.08 554.55 1153.08 554.177V551.685H1153.75ZM1156.7 552.205C1156.36 552.205 1156.09 552.318 1155.87 552.544C1155.65 552.771 1155.53 553.071 1155.51 553.443H1157.83C1157.82 553.071 1157.71 552.771 1157.51 552.544C1157.3 552.318 1157.03 552.205 1156.7 552.205ZM1157.81 554.806H1158.48C1158.38 555.171 1158.17 555.456 1157.86 555.662C1157.55 555.867 1157.17 555.97 1156.71 555.97C1156.12 555.97 1155.66 555.775 1155.32 555.384C1154.98 554.991 1154.81 554.461 1154.81 553.794C1154.81 553.13 1154.98 552.6 1155.32 552.205C1155.67 551.809 1156.13 551.611 1156.71 551.611C1157.27 551.611 1157.72 551.8 1158.05 552.177C1158.37 552.555 1158.54 553.072 1158.54 553.728V553.986H1155.51V554.017C1155.53 554.434 1155.64 554.765 1155.86 555.009C1156.08 555.254 1156.37 555.377 1156.72 555.377C1157.27 555.377 1157.63 555.186 1157.81 554.806Z" fill="white"/>
<path d="M1096 533.896H1154.71M1183 533.896H1167.14" stroke="#D8D0E4" stroke-width="2" stroke-linecap="round"/>
<circle cx="1089" cy="533.896" r="2.2" fill="white" stroke="#CDC5DB" stroke-width="1.6"/>
<path d="M1112.51 681.045C1113.86 681.045 1114.86 680.294 1115.07 679.129H1114.27C1114.07 679.863 1113.4 680.316 1112.51 680.316C1111.29 680.316 1110.53 679.318 1110.53 677.728C1110.53 676.137 1111.29 675.135 1112.51 675.135C1113.38 675.135 1114.06 675.649 1114.27 676.466H1115.07C1114.89 675.245 1113.84 674.405 1112.51 674.405C1110.79 674.405 1109.71 675.68 1109.71 677.728C1109.71 679.771 1110.79 681.045 1112.51 681.045ZM1116.31 680.896H1117.06V677.961C1117.06 677.293 1117.58 676.809 1118.3 676.809C1118.45 676.809 1118.73 676.836 1118.79 676.853V676.097C1118.69 676.084 1118.53 676.075 1118.41 676.075C1117.78 676.075 1117.24 676.4 1117.1 676.862H1117.03V676.159H1116.31V680.896ZM1121.49 676.743C1122.24 676.743 1122.74 677.297 1122.76 678.136H1120.15C1120.21 677.297 1120.73 676.743 1121.49 676.743ZM1122.74 679.67C1122.54 680.087 1122.13 680.312 1121.52 680.312C1120.71 680.312 1120.19 679.718 1120.15 678.782V678.747H1123.56V678.457C1123.56 676.985 1122.78 676.075 1121.5 676.075C1120.2 676.075 1119.36 677.042 1119.36 678.532C1119.36 680.03 1120.19 680.98 1121.5 680.98C1122.54 680.98 1123.27 680.483 1123.49 679.67H1122.74ZM1126.2 680.316C1125.65 680.316 1125.24 680.035 1125.24 679.551C1125.24 679.077 1125.56 678.826 1126.28 678.778L1127.56 678.694V679.129C1127.56 679.806 1126.98 680.316 1126.2 680.316ZM1126.06 680.98C1126.69 680.98 1127.21 680.703 1127.52 680.197H1127.59V680.896H1128.31V677.653C1128.31 676.669 1127.67 676.075 1126.51 676.075C1125.5 676.075 1124.75 676.576 1124.65 677.336H1125.42C1125.52 676.963 1125.92 676.748 1126.48 676.748C1127.19 676.748 1127.56 677.068 1127.56 677.653V678.084L1126.19 678.167C1125.09 678.233 1124.46 678.721 1124.46 679.569C1124.46 680.435 1125.14 680.98 1126.06 680.98ZM1130.02 674.933V676.159H1129.26V676.792H1130.02V679.666C1130.02 680.571 1130.42 680.931 1131.39 680.931C1131.54 680.931 1131.69 680.914 1131.84 680.887V680.25C1131.69 680.263 1131.62 680.268 1131.48 680.268C1130.99 680.268 1130.78 680.03 1130.78 679.472V676.792H1131.84V676.159H1130.78V674.933H1130.02ZM1134.8 676.743C1135.55 676.743 1136.05 677.297 1136.07 678.136H1133.46C1133.51 677.297 1134.04 676.743 1134.8 676.743ZM1136.05 679.67C1135.85 680.087 1135.43 680.312 1134.82 680.312C1134.02 680.312 1133.5 679.718 1133.46 678.782V678.747H1136.86V678.457C1136.86 676.985 1136.08 676.075 1134.81 676.075C1133.51 676.075 1132.67 677.042 1132.67 678.532C1132.67 680.03 1133.49 680.98 1134.81 680.98C1135.84 680.98 1136.57 680.483 1136.8 679.67H1136.05ZM1144.81 680.896H1145.64L1143.3 674.555H1142.52L1140.18 680.896H1141.01L1141.65 679.081H1144.17L1144.81 680.896ZM1142.87 675.579H1142.94L1143.94 678.409H1141.88L1142.87 675.579ZM1150.31 677.609C1150.18 676.765 1149.48 676.075 1148.32 676.075C1147 676.075 1146.15 677.033 1146.15 678.51C1146.15 680.017 1147 680.98 1148.33 680.98C1149.47 680.98 1150.17 680.338 1150.31 679.468H1149.55C1149.4 680.004 1148.96 680.298 1148.32 680.298C1147.48 680.298 1146.94 679.604 1146.94 678.51C1146.94 677.438 1147.47 676.756 1148.32 676.756C1149 676.756 1149.42 677.139 1149.55 677.609H1150.31ZM1155.35 677.609C1155.21 676.765 1154.51 676.075 1153.36 676.075C1152.03 676.075 1151.19 677.033 1151.19 678.51C1151.19 680.017 1152.04 680.98 1153.36 680.98C1154.5 680.98 1155.21 680.338 1155.35 679.468H1154.58C1154.44 680.004 1154 680.298 1153.36 680.298C1152.52 680.298 1151.97 679.604 1151.97 678.51C1151.97 677.438 1152.51 676.756 1153.36 676.756C1154.04 676.756 1154.46 677.139 1154.58 677.609H1155.35ZM1158.41 680.98C1159.76 680.98 1160.59 680.048 1160.59 678.527C1160.59 677.003 1159.76 676.075 1158.41 676.075C1157.06 676.075 1156.23 677.003 1156.23 678.527C1156.23 680.048 1157.06 680.98 1158.41 680.98ZM1158.41 680.298C1157.51 680.298 1157.01 679.648 1157.01 678.527C1157.01 677.402 1157.51 676.756 1158.41 676.756C1159.31 676.756 1159.81 677.402 1159.81 678.527C1159.81 679.648 1159.31 680.298 1158.41 680.298ZM1165.61 676.159H1164.86V678.962C1164.86 679.793 1164.4 680.29 1163.56 680.29C1162.81 680.29 1162.49 679.894 1162.49 679.042V676.159H1161.74V679.226C1161.74 680.347 1162.29 680.98 1163.35 680.98C1164.08 680.98 1164.58 680.681 1164.82 680.153H1164.89V680.896H1165.61V676.159ZM1167.04 680.896H1167.79V678.092C1167.79 677.262 1168.28 676.756 1169.04 676.756C1169.79 676.756 1170.15 677.161 1170.15 678.013V680.896H1170.91V677.829C1170.91 676.704 1170.31 676.075 1169.25 676.075C1168.53 676.075 1168.06 676.383 1167.83 676.906H1167.76V676.159H1167.04V680.896ZM1172.61 674.933V676.159H1171.84V676.792H1172.61V679.666C1172.61 680.571 1173 680.931 1173.97 680.931C1174.12 680.931 1174.27 680.914 1174.42 680.887V680.25C1174.28 680.263 1174.2 680.268 1174.07 680.268C1173.57 680.268 1173.36 680.03 1173.36 679.472V676.792H1174.42V676.159H1173.36V674.933H1172.61Z" fill="#7958FF"/>
<circle cx="804" cy="384.896" r="8" fill="#FF897A"/>
<circle cx="832" cy="384.896" r="8" fill="#F4E560"/>
<circle cx="860" cy="384.896" r="8" fill="#83DA85"/>
<path d="M797.237 465.896H801.291C803.396 465.896 804.661 464.843 804.661 463.114V463.1C804.661 461.815 803.772 460.872 802.439 460.728V460.612C803.41 460.448 804.169 459.525 804.169 458.5V458.486C804.169 456.975 803.055 456.032 801.202 456.032H797.237V465.896ZM800.847 457.283C801.981 457.283 802.645 457.823 802.645 458.753V458.766C802.645 459.723 801.94 460.229 800.587 460.229H798.769V457.283H800.847ZM800.895 461.398C802.337 461.398 803.096 461.945 803.096 463.004V463.018C803.096 464.078 802.364 464.645 800.983 464.645H798.769V461.398H800.895ZM806.459 465.896H807.942V461.46C807.942 460.386 808.715 459.689 809.85 459.689C810.13 459.689 810.383 459.723 810.649 459.778V458.411C810.499 458.377 810.239 458.342 810 458.342C809.009 458.342 808.318 458.807 808.052 459.593H807.942V458.472H806.459V465.896ZM814.047 466.019C815.031 466.019 815.811 465.595 816.248 464.843H816.364V465.896H817.834V460.817C817.834 459.258 816.781 458.329 814.915 458.329C813.227 458.329 812.058 459.142 811.88 460.359L811.873 460.407H813.302L813.309 460.379C813.486 459.853 814.026 459.552 814.847 459.552C815.852 459.552 816.364 460.003 816.364 460.817V461.473L814.354 461.589C812.584 461.699 811.586 462.471 811.586 463.797V463.811C811.586 465.158 812.632 466.019 814.047 466.019ZM813.062 463.75V463.736C813.062 463.066 813.527 462.697 814.553 462.635L816.364 462.519V463.155C816.364 464.112 815.551 464.836 814.443 464.836C813.644 464.836 813.062 464.433 813.062 463.75ZM819.926 465.896H821.409V461.542C821.409 460.345 822.086 459.6 823.173 459.6C824.26 459.6 824.772 460.209 824.772 461.439V465.896H826.249V461.09C826.249 459.32 825.333 458.329 823.672 458.329C822.592 458.329 821.881 458.807 821.519 459.6H821.409V458.472H819.926V465.896ZM831.027 466.019C832.066 466.019 832.88 465.541 833.311 464.727H833.427V465.896H834.903V455.56H833.427V459.648H833.311C832.914 458.848 832.046 458.342 831.027 458.342C829.141 458.342 827.951 459.826 827.951 462.177V462.191C827.951 464.522 829.161 466.019 831.027 466.019ZM831.451 464.754C830.207 464.754 829.462 463.784 829.462 462.191V462.177C829.462 460.585 830.207 459.614 831.451 459.614C832.682 459.614 833.447 460.591 833.447 462.177V462.191C833.447 463.777 832.688 464.754 831.451 464.754ZM844.063 466.04C845.902 466.04 846.962 465.048 847.229 463.606L847.242 463.544H845.82L845.807 463.579C845.567 464.378 844.993 464.802 844.063 464.802C842.84 464.802 842.081 463.804 842.081 462.164V462.15C842.081 460.55 842.826 459.566 844.063 459.566C845.048 459.566 845.649 460.113 845.813 460.844L845.82 460.865L847.242 460.858V460.824C847.037 459.381 845.923 458.329 844.057 458.329C841.89 458.329 840.57 459.798 840.57 462.15V462.164C840.57 464.563 841.896 466.04 844.063 466.04ZM852.068 466.04C854.242 466.04 855.575 464.584 855.575 462.191V462.177C855.575 459.785 854.235 458.329 852.068 458.329C849.895 458.329 848.555 459.792 848.555 462.177V462.191C848.555 464.584 849.888 466.04 852.068 466.04ZM852.068 464.802C850.79 464.802 850.072 463.838 850.072 462.191V462.177C850.072 460.53 850.79 459.566 852.068 459.566C853.34 459.566 854.064 460.53 854.064 462.177V462.191C854.064 463.832 853.34 464.802 852.068 464.802ZM857.414 465.896H858.897V455.56H857.414V465.896ZM864.25 466.04C866.424 466.04 867.757 464.584 867.757 462.191V462.177C867.757 459.785 866.417 458.329 864.25 458.329C862.076 458.329 860.736 459.792 860.736 462.177V462.191C860.736 464.584 862.069 466.04 864.25 466.04ZM864.25 464.802C862.972 464.802 862.254 463.838 862.254 462.191V462.177C862.254 460.53 862.972 459.566 864.25 459.566C865.521 459.566 866.246 460.53 866.246 462.177V462.191C866.246 463.832 865.521 464.802 864.25 464.802ZM869.527 465.896H871.011V461.46C871.011 460.386 871.783 459.689 872.918 459.689C873.198 459.689 873.451 459.723 873.718 459.778V458.411C873.567 458.377 873.308 458.342 873.068 458.342C872.077 458.342 871.387 458.807 871.12 459.593H871.011V458.472H869.527V465.896Z" fill="#191C1D"/>
<rect x="796.5" y="474.396" width="243" height="37" rx="5.5" fill="#BFB5D0"/>
<rect x="804" y="480.896" width="24" height="24" rx="4" fill="#7958FF"/>
<rect x="796.5" y="474.396" width="243" height="37" rx="5.5" stroke="#B5AAC8"/>
<rect x="843" y="484.896" width="68" height="12" rx="4" fill="#F7F8F8"/>
<rect x="843" y="484.896" width="68" height="12" rx="4" fill="#78767F" fill-opacity="0.02"/>
<rect x="843" y="484.896" width="68" height="12" rx="4" fill="#5D34F2" fill-opacity="0.16"/>
<path d="M797.237 538.896H803.499V537.577H798.769V534.507H803.246V533.236H798.769V530.351H803.499V529.032H797.237V538.896ZM805.543 538.896H807.026V534.542C807.026 533.345 807.703 532.6 808.79 532.6C809.877 532.6 810.39 533.209 810.39 534.439V538.896H811.866V534.09C811.866 532.32 810.95 531.329 809.289 531.329C808.209 531.329 807.498 531.807 807.136 532.6H807.026V531.472H805.543V538.896ZM815.975 539.019C816.959 539.019 817.738 538.595 818.176 537.843H818.292V538.896H819.762V533.817C819.762 532.258 818.709 531.329 816.843 531.329C815.154 531.329 813.985 532.142 813.808 533.359L813.801 533.407H815.229L815.236 533.379C815.414 532.853 815.954 532.552 816.774 532.552C817.779 532.552 818.292 533.003 818.292 533.817V534.473L816.282 534.589C814.512 534.699 813.514 535.471 813.514 536.797V536.811C813.514 538.158 814.56 539.019 815.975 539.019ZM814.99 536.75V536.736C814.99 536.066 815.455 535.697 816.48 535.635L818.292 535.519V536.155C818.292 537.112 817.479 537.836 816.371 537.836C815.571 537.836 814.99 537.433 814.99 536.75ZM825.798 539.019C827.671 539.019 828.874 537.522 828.874 535.191V535.177C828.874 532.826 827.685 531.342 825.798 531.342C824.779 531.342 823.911 531.848 823.515 532.648H823.405V528.56H821.922V538.896H823.405V537.727H823.515C823.945 538.541 824.759 539.019 825.798 539.019ZM825.381 537.754C824.144 537.754 823.378 536.777 823.378 535.191V535.177C823.378 533.591 824.144 532.614 825.381 532.614C826.618 532.614 827.363 533.585 827.363 535.177V535.191C827.363 536.784 826.618 537.754 825.381 537.754ZM830.713 538.896H832.196V528.56H830.713V538.896ZM837.521 539.04C839.422 539.04 840.447 537.946 840.693 536.968L840.707 536.907L839.278 536.914L839.251 536.968C839.073 537.351 838.506 537.823 837.556 537.823C836.332 537.823 835.553 536.996 835.525 535.574H840.789V535.054C840.789 532.826 839.518 531.329 837.446 531.329C835.375 531.329 834.035 532.88 834.035 535.198V535.205C834.035 537.556 835.348 539.04 837.521 539.04ZM837.453 532.545C838.458 532.545 839.203 533.188 839.319 534.514H835.546C835.676 533.236 836.441 532.545 837.453 532.545ZM846.552 538.896H850.113C853.053 538.896 854.755 537.078 854.755 533.947V533.933C854.755 530.836 853.039 529.032 850.113 529.032H846.552V538.896ZM848.083 537.577V530.351H849.942C851.986 530.351 853.196 531.684 853.196 533.954V533.967C853.196 536.257 852.007 537.577 849.942 537.577H848.083ZM858.672 539.019C859.656 539.019 860.436 538.595 860.873 537.843H860.989V538.896H862.459V533.817C862.459 532.258 861.406 531.329 859.54 531.329C857.852 531.329 856.683 532.142 856.505 533.359L856.498 533.407H857.927L857.934 533.379C858.111 532.853 858.651 532.552 859.472 532.552C860.477 532.552 860.989 533.003 860.989 533.817V534.473L858.979 534.589C857.209 534.699 856.211 535.471 856.211 536.797V536.811C856.211 538.158 857.257 539.019 858.672 539.019ZM857.688 536.75V536.736C857.688 536.066 858.152 535.697 859.178 535.635L860.989 535.519V536.155C860.989 537.112 860.176 537.836 859.068 537.836C858.269 537.836 857.688 537.433 857.688 536.75ZM864.551 538.896H866.034V534.46C866.034 533.386 866.807 532.689 867.941 532.689C868.222 532.689 868.475 532.723 868.741 532.778V531.411C868.591 531.377 868.331 531.342 868.092 531.342C867.101 531.342 866.41 531.807 866.144 532.593H866.034V531.472H864.551V538.896ZM870.225 538.896H871.708V536.196L872.344 535.56L874.9 538.896H876.705L873.403 534.603L876.5 531.472H874.764L871.817 534.603H871.708V528.56H870.225V538.896ZM882.058 538.896H883.452V531.657H883.562L886.453 538.896H887.588L890.486 531.657H890.589V538.896H891.983V529.032H890.22L887.075 536.9H886.966L883.821 529.032H882.058V538.896ZM897.432 539.04C899.605 539.04 900.938 537.584 900.938 535.191V535.177C900.938 532.785 899.599 531.329 897.432 531.329C895.258 531.329 893.918 532.792 893.918 535.177V535.191C893.918 537.584 895.251 539.04 897.432 539.04ZM897.432 537.802C896.153 537.802 895.436 536.838 895.436 535.191V535.177C895.436 533.53 896.153 532.566 897.432 532.566C898.703 532.566 899.428 533.53 899.428 535.177V535.191C899.428 536.832 898.703 537.802 897.432 537.802ZM905.416 539.019C906.455 539.019 907.269 538.541 907.699 537.727H907.815V538.896H909.292V528.56H907.815V532.648H907.699C907.303 531.848 906.435 531.342 905.416 531.342C903.529 531.342 902.34 532.826 902.34 535.177V535.191C902.34 537.522 903.55 539.019 905.416 539.019ZM905.84 537.754C904.596 537.754 903.851 536.784 903.851 535.191V535.177C903.851 533.585 904.596 532.614 905.84 532.614C907.07 532.614 907.836 533.591 907.836 535.177V535.191C907.836 536.777 907.077 537.754 905.84 537.754ZM914.617 539.04C916.518 539.04 917.543 537.946 917.789 536.968L917.803 536.907L916.374 536.914L916.347 536.968C916.169 537.351 915.602 537.823 914.651 537.823C913.428 537.823 912.648 536.996 912.621 535.574H917.885V535.054C917.885 532.826 916.613 531.329 914.542 531.329C912.471 531.329 911.131 532.88 911.131 535.198V535.205C911.131 537.556 912.443 539.04 914.617 539.04ZM914.549 532.545C915.554 532.545 916.299 533.188 916.415 534.514H912.642C912.771 533.236 913.537 532.545 914.549 532.545Z" fill="#191C1D"/>
<rect x="813" y="567.896" width="161" height="16" rx="4" fill="#F7F8F8"/>
<rect x="813" y="567.896" width="161" height="16" rx="4" fill="#78767F" fill-opacity="0.02"/>
<rect x="813" y="567.896" width="161" height="16" rx="4" fill="#BFB5D0"/>
<g clip-path="url(#clip0_6725_233470)">
<rect x="982" y="563.896" width="39.5098" height="24" rx="12" fill="#ADAAB4"/>
<g filter="url(#filter6_d_6725_233470)">
<rect x="983.95" y="565.896" width="19.5" height="20" rx="9.75" fill="white"/>
</g>
</g>
<rect x="797.5" y="548.396" width="241" height="55" rx="7.5" stroke="#B5AAC8"/>
<path d="M1363.5 658.247C1401.9 654.247 1413.83 699.913 1415 723.247H1194C1233.5 667.746 1276 700.247 1299.5 703.747C1323 707.247 1315.5 663.247 1363.5 658.247Z" fill="#515071"/>
<rect x="460" y="626.896" width="96" height="96" rx="19.2" fill="#646073"/>
<path d="M508 642.896H512.8C517.218 642.896 520.8 646.478 520.8 650.896C520.8 655.314 517.218 658.896 512.8 658.896H508V642.896Z" fill="#DD9EE1"/>
<path fill-rule="evenodd" clip-rule="evenodd" d="M479.2 626.896C468.596 626.896 460 635.492 460 646.096V674.896H476V670.096C476 665.678 479.582 662.096 484 662.096C488.418 662.096 492 665.678 492 670.096V674.896H508V626.896H479.2Z" fill="#DD9EE1"/>
<path fill-rule="evenodd" clip-rule="evenodd" d="M508.001 674.896H524.001V679.696C524.001 684.114 527.583 687.696 532.001 687.696C536.419 687.696 540.001 684.114 540.001 679.696V674.896H556.001V703.696C556.001 714.3 547.405 722.896 536.801 722.896H508.001V706.896H503.201C498.783 706.896 495.201 703.314 495.201 698.896C495.201 694.478 498.783 690.896 503.201 690.896H508.001V674.896Z" fill="#AF9EFF"/>
<path d="M1440 722H439.5H398M274 722H355.5" stroke="#6C6992" stroke-width="2" stroke-linecap="round"/>
<rect x="1342" y="633" width="88" height="88" rx="24" fill="#5F5D67"/>
<path d="M1383.97 653C1383.16 653 1382.47 653.562 1382.3 654.35L1381.29 658.983C1381.15 659.599 1380.69 660.085 1380.1 660.294C1379.5 660.504 1378.92 660.744 1378.36 661.014C1377.79 661.286 1377.12 661.27 1376.59 660.929L1372.61 658.372C1371.93 657.936 1371.04 658.032 1370.47 658.602L1367.6 661.469C1367.03 662.04 1366.94 662.93 1367.37 663.609L1369.93 667.586C1370.27 668.116 1370.29 668.787 1370.01 669.356C1369.74 669.921 1369.5 670.502 1369.29 671.098C1369.08 671.692 1368.6 672.155 1367.98 672.288L1363.35 673.296C1362.56 673.467 1362 674.164 1362 674.971V679.029C1362 679.836 1362.56 680.533 1363.35 680.704L1367.98 681.712C1368.6 681.845 1369.08 682.308 1369.29 682.902C1369.5 683.498 1369.74 684.079 1370.01 684.644C1370.29 685.213 1370.27 685.884 1369.93 686.414L1367.37 690.391C1366.94 691.07 1367.03 691.96 1367.6 692.531L1370.47 695.398C1371.04 695.968 1371.93 696.064 1372.61 695.628L1376.59 693.071C1377.12 692.73 1377.79 692.714 1378.36 692.986C1378.92 693.256 1379.5 693.496 1380.1 693.706C1380.69 693.915 1381.15 694.401 1381.29 695.017L1382.3 699.65C1382.47 700.438 1383.16 701 1383.97 701H1388.03C1388.84 701 1389.53 700.438 1389.7 699.65L1390.71 695.017C1390.85 694.401 1391.31 693.915 1391.9 693.706C1392.5 693.496 1393.08 693.256 1393.64 692.986C1394.21 692.714 1394.88 692.73 1395.41 693.071L1399.39 695.628C1400.07 696.064 1400.96 695.968 1401.53 695.398L1404.4 692.531C1404.97 691.96 1405.06 691.07 1404.63 690.391L1402.07 686.414C1401.73 685.884 1401.71 685.213 1401.99 684.644C1402.26 684.079 1402.5 683.498 1402.71 682.902C1402.92 682.308 1403.4 681.845 1404.02 681.712L1408.65 680.704C1409.44 680.533 1410 679.836 1410 679.029V674.971C1410 674.164 1409.44 673.467 1408.65 673.296L1404.02 672.288C1403.4 672.155 1402.92 671.692 1402.71 671.098C1402.5 670.502 1402.26 669.921 1401.99 669.356C1401.71 668.787 1401.73 668.116 1402.07 667.586L1404.63 663.609C1405.06 662.93 1404.97 662.04 1404.4 661.469L1401.53 658.602C1400.96 658.032 1400.07 657.936 1399.39 658.372L1395.41 660.929C1394.88 661.27 1394.21 661.286 1393.64 661.014C1393.08 660.744 1392.5 660.504 1391.9 660.294C1391.31 660.085 1390.85 659.599 1390.71 658.983L1389.7 654.35C1389.53 653.562 1388.84 653 1388.03 653H1383.97ZM1386 666.714C1391.68 666.714 1396.29 671.319 1396.29 677C1396.29 682.681 1391.68 687.286 1386 687.286C1380.32 687.286 1375.71 682.681 1375.71 677C1375.71 671.319 1380.32 666.714 1386 666.714Z" fill="#AF9EFF"/>
<path d="M678.246 657.005C648.596 657.432 635.728 699.846 633 721H891C879.448 709.445 851.434 689.643 831.795 702.868C807.246 719.4 809.653 696.469 776.922 679.937C744.19 663.405 742.746 696.469 728.787 696.469C714.828 696.469 715.31 656.472 678.246 657.005Z" fill="url(#paint10_linear_6725_233470)"/>
<g filter="url(#filter7_b_6725_233470)">
<rect x="1048" y="100.896" width="104" height="104" rx="26" fill="#191C1D"/>
<rect x="1048" y="100.896" width="104" height="104" rx="26" fill="#C4C7C7" fill-opacity="0.02"/>
<rect x="1048" y="100.896" width="104" height="104" rx="26" fill="#CABEFF" fill-opacity="0.16"/>
</g>
<path fill-rule="evenodd" clip-rule="evenodd" d="M1111.23 145.168C1110.96 145.153 1110.69 145.15 1110.42 145.15C1100.84 145.15 1093.07 151.663 1093.07 159.701C1093.07 161.017 1093.28 162.291 1093.67 163.503C1093.25 163.525 1092.82 163.542 1092.39 163.542C1090.28 163.542 1088.25 163.257 1086.36 162.73C1086.25 162.698 1086.04 162.636 1086.04 162.636L1079.15 166.145L1080.99 160.378C1080.99 160.378 1080.87 160.304 1080.81 160.267C1076.27 157.355 1073.33 152.767 1073.33 147.605C1073.33 138.803 1081.86 131.667 1092.39 131.667C1101.92 131.667 1109.82 137.519 1111.23 145.168ZM1085.76 144.707C1084.28 144.707 1083.08 143.545 1083.08 142.115C1083.08 140.684 1084.28 139.526 1085.76 139.526C1087.24 139.526 1088.44 140.684 1088.44 142.115C1088.44 143.545 1087.24 144.707 1085.76 144.707ZM1099.02 139.526C1100.5 139.526 1101.7 140.684 1101.7 142.115C1101.7 143.545 1100.5 144.707 1099.02 144.707C1097.54 144.707 1096.35 143.545 1096.35 142.115C1096.35 140.684 1097.54 139.526 1099.02 139.526Z" fill="#58C457"/>
<path fill-rule="evenodd" clip-rule="evenodd" d="M1110.57 173.262C1101.68 173.262 1094.47 167.234 1094.47 159.796C1094.47 152.361 1101.68 146.332 1110.57 146.332C1119.46 146.332 1126.67 152.361 1126.67 159.796C1126.67 164.159 1124.19 168.034 1120.35 170.494L1120.2 170.586L1121.75 175.461L1115.94 172.494C1115.94 172.494 1115.75 172.549 1115.66 172.573C1114.06 173.02 1112.35 173.262 1110.57 173.262ZM1102.71 155.157C1102.71 153.951 1103.72 152.97 1104.97 152.97C1106.22 152.97 1107.23 153.951 1107.23 155.157C1107.23 156.368 1106.22 157.35 1104.97 157.35C1103.72 157.35 1102.71 156.368 1102.71 155.157ZM1113.91 155.157C1113.91 153.951 1114.92 152.97 1116.17 152.97C1117.42 152.97 1118.43 153.951 1118.43 155.157C1118.43 156.368 1117.42 157.35 1116.17 157.35C1114.92 157.35 1113.91 156.368 1113.91 155.157Z" fill="#58C457"/>
<path d="M1251 187.075C1242.71 187.075 1238.78 179.568 1238.78 173C1238.78 179.568 1235.29 187.075 1227 187.075C1235.29 187.075 1238.78 191.704 1238.78 202.714C1238.78 191.704 1242.71 187.075 1251 187.075Z" fill="#AF9EFF"/>
<path d="M1005 290.474C992.564 290.474 986.673 279.021 986.673 269C986.673 279.021 981.436 290.474 969 290.474C981.436 290.474 986.673 297.536 986.673 314.333C986.673 297.536 992.564 290.474 1005 290.474Z" fill="#ADAAB4"/>
<rect y="722" width="1440" height="84" fill="url(#paint11_linear_6725_233470)"/>
<path d="M810 740H695.846H686.963M654 740H677.866" stroke="#53506B" stroke-width="2" stroke-linecap="round"/>
<path d="M1287 776H1062.85H1053.96M1021 776H1044.87" stroke="#736F96" stroke-width="2" stroke-linecap="round"/>
<defs>
<filter id="filter0_b_6725_233470" x="817" y="147.896" width="424" height="424" filterUnits="userSpaceOnUse" color-interpolation-filters="sRGB">
<feFlood flood-opacity="0" result="BackgroundImageFix"/>
<feGaussianBlur in="BackgroundImage" stdDeviation="6"/>
<feComposite in2="SourceAlpha" operator="in" result="effect1_backgroundBlur_6725_233470"/>
<feBlend mode="normal" in="SourceGraphic" in2="effect1_backgroundBlur_6725_233470" result="shape"/>
</filter>
<filter id="filter1_d_6725_233470" x="699.125" y="502.396" width="3.25" height="3.25" filterUnits="userSpaceOnUse" color-interpolation-filters="sRGB">
<feFlood flood-opacity="0" result="BackgroundImageFix"/>
<feColorMatrix in="SourceAlpha" type="matrix" values="0 0 0 0 0 0 0 0 0 0 0 0 0 0 0 0 0 0 127 0" result="hardAlpha"/>
<feOffset dy="0.125"/>
<feGaussianBlur stdDeviation="0.0625"/>
<feComposite in2="hardAlpha" operator="out"/>
<feColorMatrix type="matrix" values="0 0 0 0 0.104304 0 0 0 0 0.0825 0 0 0 0 0.2 0 0 0 0.02 0"/>
<feBlend mode="normal" in2="BackgroundImageFix" result="effect1_dropShadow_6725_233470"/>
<feBlend mode="normal" in="SourceGraphic" in2="effect1_dropShadow_6725_233470" result="shape"/>
</filter>
<filter id="filter2_d_6725_233470" x="699.5" y="503.271" width="2.25" height="4.875" filterUnits="userSpaceOnUse" color-interpolation-filters="sRGB">
<feFlood flood-opacity="0" result="BackgroundImageFix"/>
<feColorMatrix in="SourceAlpha" type="matrix" values="0 0 0 0 0 0 0 0 0 0 0 0 0 0 0 0 0 0 127 0" result="hardAlpha"/>
<feOffset dx="-0.125" dy="0.5"/>
<feGaussianBlur stdDeviation="0.1875"/>
<feComposite in2="hardAlpha" operator="out"/>
<feColorMatrix type="matrix" values="0 0 0 0 0.104304 0 0 0 0 0.0825 0 0 0 0 0.2 0 0 0 0.08 0"/>
<feBlend mode="normal" in2="BackgroundImageFix" result="effect1_dropShadow_6725_233470"/>
<feBlend mode="normal" in="SourceGraphic" in2="effect1_dropShadow_6725_233470" result="shape"/>
</filter>
<filter id="filter3_b_6725_233470" x="1138" y="226.896" width="272" height="512" filterUnits="userSpaceOnUse" color-interpolation-filters="sRGB">
<feFlood flood-opacity="0" result="BackgroundImageFix"/>
<feGaussianBlur in="BackgroundImage" stdDeviation="8"/>
<feComposite in2="SourceAlpha" operator="in" result="effect1_backgroundBlur_6725_233470"/>
<feBlend mode="normal" in="SourceGraphic" in2="effect1_backgroundBlur_6725_233470" result="shape"/>
</filter>
<filter id="filter4_d_6725_233470" x="1274.16" y="322.021" width="4.0625" height="4.0625" filterUnits="userSpaceOnUse" color-interpolation-filters="sRGB">
<feFlood flood-opacity="0" result="BackgroundImageFix"/>
<feColorMatrix in="SourceAlpha" type="matrix" values="0 0 0 0 0 0 0 0 0 0 0 0 0 0 0 0 0 0 127 0" result="hardAlpha"/>
<feOffset dy="0.15625"/>
<feGaussianBlur stdDeviation="0.078125"/>
<feComposite in2="hardAlpha" operator="out"/>
<feColorMatrix type="matrix" values="0 0 0 0 0.104304 0 0 0 0 0.0825 0 0 0 0 0.2 0 0 0 0.02 0"/>
<feBlend mode="normal" in2="BackgroundImageFix" result="effect1_dropShadow_6725_233470"/>
<feBlend mode="normal" in="SourceGraphic" in2="effect1_dropShadow_6725_233470" result="shape"/>
</filter>
<filter id="filter5_d_6725_233470" x="1274.62" y="323.115" width="2.8125" height="6.09375" filterUnits="userSpaceOnUse" color-interpolation-filters="sRGB">
<feFlood flood-opacity="0" result="BackgroundImageFix"/>
<feColorMatrix in="SourceAlpha" type="matrix" values="0 0 0 0 0 0 0 0 0 0 0 0 0 0 0 0 0 0 127 0" result="hardAlpha"/>
<feOffset dx="-0.15625" dy="0.625"/>
<feGaussianBlur stdDeviation="0.234375"/>
<feComposite in2="hardAlpha" operator="out"/>
<feColorMatrix type="matrix" values="0 0 0 0 0.104304 0 0 0 0 0.0825 0 0 0 0 0.2 0 0 0 0.08 0"/>
<feBlend mode="normal" in2="BackgroundImageFix" result="effect1_dropShadow_6725_233470"/>
<feBlend mode="normal" in="SourceGraphic" in2="effect1_dropShadow_6725_233470" result="shape"/>
</filter>
<filter id="filter6_d_6725_233470" x="976.95" y="561.896" width="33.5" height="34" filterUnits="userSpaceOnUse" color-interpolation-filters="sRGB">
<feFlood flood-opacity="0" result="BackgroundImageFix"/>
<feColorMatrix in="SourceAlpha" type="matrix" values="0 0 0 0 0 0 0 0 0 0 0 0 0 0 0 0 0 0 127 0" result="hardAlpha"/>
<feOffset dy="3"/>
<feGaussianBlur stdDeviation="3.5"/>
<feColorMatrix type="matrix" values="0 0 0 0 0 0 0 0 0 0 0 0 0 0 0 0 0 0 0.12 0"/>
<feBlend mode="normal" in2="BackgroundImageFix" result="effect1_dropShadow_6725_233470"/>
<feBlend mode="normal" in="SourceGraphic" in2="effect1_dropShadow_6725_233470" result="shape"/>
</filter>
<filter id="filter7_b_6725_233470" x="1044.75" y="97.6461" width="110.5" height="110.5" filterUnits="userSpaceOnUse" color-interpolation-filters="sRGB">
<feFlood flood-opacity="0" result="BackgroundImageFix"/>
<feGaussianBlur in="BackgroundImage" stdDeviation="1.625"/>
<feComposite in2="SourceAlpha" operator="in" result="effect1_backgroundBlur_6725_233470"/>
<feBlend mode="normal" in="SourceGraphic" in2="effect1_backgroundBlur_6725_233470" result="shape"/>
</filter>
<linearGradient id="paint0_linear_6725_233470" x1="1424.5" y1="585.895" x2="225.499" y2="692.395" gradientUnits="userSpaceOnUse">
<stop stop-color="#323145"/>
<stop offset="0.786458" stop-color="#44445B" stop-opacity="0.649583"/>
<stop offset="1" stop-color="#363541" stop-opacity="0"/>
</linearGradient>
<linearGradient id="paint1_linear_6725_233470" x1="1083" y1="142.396" x2="931.5" y2="432.896" gradientUnits="userSpaceOnUse">
<stop stop-color="#3C3D52"/>
<stop offset="1" stop-color="#2A2C32"/>
</linearGradient>
<linearGradient id="paint2_linear_6725_233470" x1="687.813" y1="504.771" x2="711.078" y2="497.328" gradientUnits="userSpaceOnUse">
<stop stop-color="#FFF06A"/>
<stop offset="1" stop-color="#EC78FF"/>
</linearGradient>
<linearGradient id="paint3_linear_6725_233470" x1="685.813" y1="506.084" x2="706.125" y2="501.709" gradientUnits="userSpaceOnUse">
<stop stop-color="#492EF3"/>
<stop offset="1" stop-color="#CF69FF"/>
</linearGradient>
<linearGradient id="paint4_linear_6725_233470" x1="700.75" y1="502.396" x2="700.125" y2="505.396" gradientUnits="userSpaceOnUse">
<stop stop-color="#E1BFFF"/>
<stop offset="1" stop-color="#AF68EE"/>
</linearGradient>
<linearGradient id="paint5_linear_6725_233470" x1="700.75" y1="503.271" x2="698.978" y2="506.46" gradientUnits="userSpaceOnUse">
<stop stop-color="#F8F2FF"/>
<stop offset="1" stop-color="#D185F5"/>
</linearGradient>
<linearGradient id="paint6_linear_6725_233470" x1="1260.02" y1="324.99" x2="1289.1" y2="315.686" gradientUnits="userSpaceOnUse">
<stop stop-color="#FFF06A"/>
<stop offset="1" stop-color="#EC78FF"/>
</linearGradient>
<linearGradient id="paint7_linear_6725_233470" x1="1257.52" y1="326.63" x2="1282.91" y2="321.162" gradientUnits="userSpaceOnUse">
<stop stop-color="#492EF3"/>
<stop offset="1" stop-color="#CF69FF"/>
</linearGradient>
<linearGradient id="paint8_linear_6725_233470" x1="1276.19" y1="322.021" x2="1275.41" y2="325.771" gradientUnits="userSpaceOnUse">
<stop stop-color="#E1BFFF"/>
<stop offset="1" stop-color="#AF68EE"/>
</linearGradient>
<linearGradient id="paint9_linear_6725_233470" x1="1276.19" y1="323.115" x2="1273.97" y2="327.101" gradientUnits="userSpaceOnUse">
<stop stop-color="#F8F2FF"/>
<stop offset="1" stop-color="#D185F5"/>
</linearGradient>
<linearGradient id="paint10_linear_6725_233470" x1="705.683" y1="689.003" x2="912.234" y2="711.218" gradientUnits="userSpaceOnUse">
<stop stop-color="#8A85AB"/>
<stop offset="1" stop-color="#ADA6D9" stop-opacity="0.92"/>
</linearGradient>
<linearGradient id="paint11_linear_6725_233470" x1="1077.5" y1="722.001" x2="63.7328" y2="741.434" gradientUnits="userSpaceOnUse">
<stop stop-color="#5E597A"/>
<stop offset="1" stop-color="#353746" stop-opacity="0"/>
</linearGradient>
<clipPath id="clip0_6725_233470">
<path d="M982 575.896C982 569.269 987.373 563.896 994 563.896H1009C1015.63 563.896 1021 569.269 1021 575.896C1021 582.523 1015.63 587.896 1009 587.896H994C987.373 587.896 982 582.523 982 575.896Z" fill="white"/>
</clipPath>
</defs>
</svg>
