<svg width="1440" height="984" viewBox="0 0 1440 984" fill="none" xmlns="http://www.w3.org/2000/svg">
<g clip-path="url(#clip0_6227_219030)">
<path d="M1177.5 568.5H1815V993.5M860 762H475.447C461.272 762 448.199 769.646 441.25 782V782C434.301 794.354 421.228 802 407.053 802H303.996C290.33 802 277.645 809.1 270.5 820.75V820.75C263.355 832.4 250.67 839.5 237.004 839.5H-109.003C-177.472 839.5 -238.352 883.066 -260.445 947.872L-276 993.5" stroke="#D3D1EA" stroke-linecap="round"/>
<path d="M1454.81 536H1685V983.5H163L217.97 915.455C248.346 877.853 294.093 856 342.431 856H565.45C600.201 856 634.007 844.679 661.75 823.75C689.493 802.821 723.299 791.5 758.05 791.5H933.394C977.132 791.5 1018.24 770.596 1044 735.25C1069.76 699.904 1110.87 679 1154.61 679H1202.69C1254.36 679 1302.23 651.848 1328.75 607.5C1355.27 563.152 1403.14 536 1454.81 536Z" fill="url(#paint0_linear_6227_219030)"/>
<g filter="url(#filter0_b_6227_219030)">
<path fill-rule="evenodd" clip-rule="evenodd" d="M1029 821C1139.46 821 1229 731.457 1229 621C1229 569.737 1209.71 522.978 1178 487.584C1141.38 446.715 1088.19 421 1029 421C918.543 421 829 510.543 829 621C829 731.457 918.543 821 1029 821ZM1029 721C1084.23 721 1129 676.228 1129 621C1129 565.772 1084.23 521 1029 521C973.772 521 929 565.772 929 621C929 676.228 973.772 721 1029 721Z" fill="url(#paint1_linear_6227_219030)" fill-opacity="0.32"/>
<path d="M1178 487.584L1177.63 487.918L1178 487.584ZM1228.5 621C1228.5 731.181 1139.18 820.5 1029 820.5V821.5C1139.73 821.5 1229.5 731.733 1229.5 621H1228.5ZM1177.63 487.918C1209.26 523.223 1228.5 569.864 1228.5 621H1229.5C1229.5 569.609 1210.16 522.732 1178.37 487.251L1177.63 487.918ZM1029 421.5C1088.05 421.5 1141.1 447.151 1177.63 487.918L1178.37 487.251C1141.66 446.28 1088.34 420.5 1029 420.5V421.5ZM829.5 621C829.5 510.819 918.819 421.5 1029 421.5V420.5C918.267 420.5 828.5 510.267 828.5 621H829.5ZM1029 820.5C918.819 820.5 829.5 731.181 829.5 621H828.5C828.5 731.733 918.267 821.5 1029 821.5V820.5ZM1128.5 621C1128.5 675.952 1083.95 720.5 1029 720.5V721.5C1084.5 721.5 1129.5 676.505 1129.5 621H1128.5ZM1029 521.5C1083.95 521.5 1128.5 566.048 1128.5 621H1129.5C1129.5 565.495 1084.5 520.5 1029 520.5V521.5ZM929.5 621C929.5 566.048 974.048 521.5 1029 521.5V520.5C973.495 520.5 928.5 565.495 928.5 621H929.5ZM1029 720.5C974.048 720.5 929.5 675.952 929.5 621H928.5C928.5 676.505 973.495 721.5 1029 721.5V720.5Z" fill="#C0BFDB" fill-opacity="0.16"/>
</g>
<rect x="519" y="714" width="360" height="270" rx="32" fill="#6C637D"/>
<path d="M687.25 754.5C687.25 753.395 688.145 752.5 689.25 752.5H708.75C709.855 752.5 710.75 753.395 710.75 754.5V775.5C710.75 776.605 709.855 777.5 708.75 777.5H689.25C688.145 777.5 687.25 776.605 687.25 775.5V754.5Z" fill="url(#paint2_linear_6227_219030)"/>
<path d="M687.25 754.235C687.25 753.239 687.982 752.395 688.967 752.255L702.467 750.326C703.672 750.154 704.75 751.089 704.75 752.306V777.694C704.75 778.911 703.672 779.846 702.467 779.674L688.967 777.745C687.982 777.605 687.25 776.761 687.25 775.765V754.235Z" fill="url(#paint3_linear_6227_219030)"/>
<g filter="url(#filter1_d_6227_219030)">
<circle cx="700.75" cy="765" r="1.5" fill="url(#paint4_linear_6227_219030)"/>
</g>
<g filter="url(#filter2_d_6227_219030)">
<rect x="700" y="764.375" width="1.5" height="4" rx="0.75" fill="url(#paint5_linear_6227_219030)"/>
</g>
<rect x="635" y="793" width="128" height="8" rx="4" fill="#847A97"/>
<rect x="609.5" y="821.5" width="179" height="23" rx="3.5" fill="#BEB3D2" stroke="#CEC6DE"/>
<circle cx="667" cy="833" r="6" fill="#937BC7"/>
<rect x="677" y="830" width="72" height="6" rx="2" fill="#A292BB"/>
<rect x="609.5" y="853.5" width="179" height="23" rx="3.5" fill="#BEB3D2" stroke="#CEC6DE"/>
<circle cx="667" cy="865" r="6" fill="#937BC7"/>
<rect x="677" y="862" width="52" height="6" rx="2" fill="#A292BB"/>
<rect x="609.5" y="885.5" width="179" height="23" rx="3.5" fill="#BEB3D2" stroke="#CEC6DE"/>
<circle cx="667" cy="897" r="6" fill="#937BC7"/>
<rect x="677" y="894" width="60" height="6" rx="2" fill="#A292BB"/>
<path opacity="0.04" d="M519 746C519 728.327 533.327 714 551 714H739L609 984H551C533.327 984 519 969.673 519 952V746Z" fill="#F8F4FF"/>
<g filter="url(#filter3_b_6227_219030)">
<rect x="1154" y="504" width="240" height="480" rx="32" fill="#F6F1FF" fill-opacity="0.8"/>
<rect x="1154" y="504" width="240" height="480" rx="32" fill="url(#paint6_linear_6227_219030)" fill-opacity="0.2"/>
</g>
<path d="M1302 585C1302 600.464 1289.46 613 1274 613C1258.54 613 1246 600.464 1246 585C1246 569.536 1258.54 557 1274 557C1289.46 557 1302 569.536 1302 585Z" fill="#F5EEFF"/>
<path d="M1259.31 571.875C1259.31 570.494 1260.43 569.375 1261.81 569.375H1286.19C1287.57 569.375 1288.69 570.494 1288.69 571.875V598.125C1288.69 599.506 1287.57 600.625 1286.19 600.625H1261.81C1260.43 600.625 1259.31 599.506 1259.31 598.125V571.875Z" fill="url(#paint7_linear_6227_219030)"/>
<path d="M1259.31 571.543C1259.31 570.299 1260.23 569.244 1261.46 569.068L1278.33 566.658C1279.84 566.442 1281.19 567.611 1281.19 569.133V600.867C1281.19 602.389 1279.84 603.558 1278.33 603.342L1261.46 600.932C1260.23 600.756 1259.31 599.701 1259.31 598.457V571.543Z" fill="url(#paint8_linear_6227_219030)"/>
<g filter="url(#filter4_d_6227_219030)">
<circle cx="1276.19" cy="585" r="1.875" fill="url(#paint9_linear_6227_219030)"/>
</g>
<g filter="url(#filter5_d_6227_219030)">
<rect x="1275.25" y="584.219" width="1.875" height="5" rx="0.9375" fill="url(#paint10_linear_6227_219030)"/>
</g>
<path d="M1226 621H1293.71M1322 621H1306.14" stroke="#CABEFF" stroke-width="2" stroke-linecap="round"/>
<rect x="1184.5" y="693.5" width="179" height="35" rx="7.5" fill="white" stroke="#AF9EFF"/>
<circle cx="1239" cy="711" r="3" fill="#78767F"/>
<circle cx="1253" cy="711" r="3" fill="#78767F"/>
<circle cx="1267" cy="711" r="3" fill="#78767F"/>
<circle cx="1281" cy="711" r="3" fill="#78767F"/>
<circle cx="1295" cy="711" r="3" fill="#78767F"/>
<circle cx="1309" cy="711" r="3" fill="#78767F"/>
<path fill-rule="evenodd" clip-rule="evenodd" d="M1332.93 702.929C1332.54 703.319 1332.54 703.952 1332.93 704.343L1334.51 705.919C1331.79 707.797 1330 710.452 1330 711C1330 711.866 1334.48 718 1340 718C1341.82 718 1343.53 717.334 1345 716.41L1345.66 717.071C1346.05 717.461 1346.68 717.461 1347.07 717.071C1347.46 716.68 1347.46 716.047 1347.07 715.657L1334.34 702.929C1333.95 702.538 1333.32 702.538 1332.93 702.929ZM1342.61 714.028L1336.97 708.386C1336.37 709.087 1336 710.001 1336 711C1336 713.209 1337.79 715 1340 715C1341 715 1341.91 714.634 1342.61 714.028ZM1341.56 707.314C1342.51 707.719 1343.28 708.486 1343.69 709.443L1348.08 713.833C1349.29 712.532 1350 711.346 1350 711C1350 710.134 1345.52 704 1340 704C1339.46 704 1338.93 704.059 1338.41 704.166L1341.56 707.314Z" fill="#F7F8F8"/>
<path fill-rule="evenodd" clip-rule="evenodd" d="M1332.93 702.929C1332.54 703.319 1332.54 703.952 1332.93 704.343L1334.51 705.919C1331.79 707.797 1330 710.452 1330 711C1330 711.866 1334.48 718 1340 718C1341.82 718 1343.53 717.334 1345 716.41L1345.66 717.071C1346.05 717.461 1346.68 717.461 1347.07 717.071C1347.46 716.68 1347.46 716.047 1347.07 715.657L1334.34 702.929C1333.95 702.538 1333.32 702.538 1332.93 702.929ZM1342.61 714.028L1336.97 708.386C1336.37 709.087 1336 710.001 1336 711C1336 713.209 1337.79 715 1340 715C1341 715 1341.91 714.634 1342.61 714.028ZM1341.56 707.314C1342.51 707.719 1343.28 708.486 1343.69 709.443L1348.08 713.833C1349.29 712.532 1350 711.346 1350 711C1350 710.134 1345.52 704 1340 704C1339.46 704 1338.93 704.059 1338.41 704.166L1341.56 707.314Z" fill="#78767F" fill-opacity="0.02"/>
<path fill-rule="evenodd" clip-rule="evenodd" d="M1332.93 702.929C1332.54 703.319 1332.54 703.952 1332.93 704.343L1334.51 705.919C1331.79 707.797 1330 710.452 1330 711C1330 711.866 1334.48 718 1340 718C1341.82 718 1343.53 717.334 1345 716.41L1345.66 717.071C1346.05 717.461 1346.68 717.461 1347.07 717.071C1347.46 716.68 1347.46 716.047 1347.07 715.657L1334.34 702.929C1333.95 702.538 1333.32 702.538 1332.93 702.929ZM1342.61 714.028L1336.97 708.386C1336.37 709.087 1336 710.001 1336 711C1336 713.209 1337.79 715 1340 715C1341 715 1341.91 714.634 1342.61 714.028ZM1341.56 707.314C1342.51 707.719 1343.28 708.486 1343.69 709.443L1348.08 713.833C1349.29 712.532 1350 711.346 1350 711C1350 710.134 1345.52 704 1340 704C1339.46 704 1338.93 704.059 1338.41 704.166L1341.56 707.314Z" fill="#5D34F2" fill-opacity="0.16"/>
<rect x="1184" y="769" width="180" height="36" rx="8" fill="#7958FF"/>
<path d="M1258.85 791.199C1260.74 791.199 1261.97 790.215 1261.97 788.633V788.627C1261.97 787.408 1261.28 786.699 1259.51 786.307L1258.57 786.096C1257.43 785.844 1256.96 785.387 1256.96 784.713V784.707C1256.96 783.822 1257.78 783.324 1258.83 783.318C1259.93 783.312 1260.64 783.863 1260.75 784.607L1260.77 784.684H1261.82L1261.81 784.602C1261.73 783.342 1260.55 782.346 1258.86 782.346C1257.12 782.346 1255.89 783.336 1255.88 784.736V784.742C1255.88 785.967 1256.62 786.746 1258.31 787.121L1259.25 787.326C1260.41 787.584 1260.89 788.064 1260.89 788.768V788.773C1260.89 789.635 1260.06 790.227 1258.91 790.227C1257.69 790.227 1256.81 789.693 1256.73 788.85L1256.73 788.785H1255.67L1255.68 788.85C1255.8 790.227 1257 791.199 1258.85 791.199ZM1264.14 783.465C1264.53 783.465 1264.84 783.148 1264.84 782.762C1264.84 782.375 1264.53 782.059 1264.14 782.059C1263.75 782.059 1263.44 782.375 1263.44 782.762C1263.44 783.148 1263.75 783.465 1264.14 783.465ZM1263.62 791H1264.64V784.684H1263.62V791ZM1269.17 793.227C1270.89 793.227 1271.98 792.324 1271.98 790.912V784.684H1270.96V785.727H1270.89C1270.5 785.012 1269.81 784.572 1268.92 784.572C1267.27 784.572 1266.25 785.855 1266.25 787.625V787.637C1266.25 789.406 1267.26 790.672 1268.9 790.672C1269.77 790.672 1270.48 790.279 1270.88 789.582H1270.97V790.859C1270.97 791.791 1270.3 792.324 1269.17 792.324C1268.26 792.324 1267.7 791.984 1267.59 791.504L1267.58 791.498H1266.53L1266.51 791.504C1266.67 792.541 1267.64 793.227 1269.17 793.227ZM1269.12 789.77C1267.95 789.77 1267.29 788.891 1267.29 787.637V787.625C1267.29 786.371 1267.95 785.475 1269.12 785.475C1270.29 785.475 1271 786.371 1271 787.625V787.637C1271 788.891 1270.29 789.77 1269.12 789.77ZM1273.88 791H1274.9V787.262C1274.9 786.154 1275.54 785.475 1276.54 785.475C1277.55 785.475 1278.02 786.02 1278.02 787.156V791H1279.04V786.91C1279.04 785.41 1278.25 784.572 1276.83 784.572C1275.9 784.572 1275.31 784.965 1274.99 785.633H1274.9V784.684H1273.88V791ZM1284.39 791H1285.45V782.545H1284.39V791ZM1287.47 791H1288.49V787.262C1288.49 786.154 1289.13 785.475 1290.14 785.475C1291.15 785.475 1291.62 786.02 1291.62 787.156V791H1292.63V786.91C1292.63 785.41 1291.84 784.572 1290.43 784.572C1289.49 784.572 1288.9 784.965 1288.59 785.633H1288.49V784.684H1287.47V791Z" fill="white"/>
<g style="mix-blend-mode:multiply">
<path d="M1242 504H1306V512C1306 518.627 1300.63 524 1294 524H1254C1247.37 524 1242 518.627 1242 512V504Z" fill="#AF9EFF"/>
</g>
<rect x="1184" y="649" width="180" height="36" rx="8" fill="#FBF9FF"/>
<path d="M1231.85 671.199C1233.74 671.199 1234.97 670.215 1234.97 668.633V668.627C1234.97 667.408 1234.28 666.699 1232.51 666.307L1231.57 666.096C1230.43 665.844 1229.96 665.387 1229.96 664.713V664.707C1229.96 663.822 1230.78 663.324 1231.83 663.318C1232.93 663.312 1233.64 663.863 1233.75 664.607L1233.77 664.684H1234.82L1234.81 664.602C1234.73 663.342 1233.55 662.346 1231.86 662.346C1230.12 662.346 1228.89 663.336 1228.88 664.736V664.742C1228.88 665.967 1229.62 666.746 1231.31 667.121L1232.25 667.326C1233.41 667.584 1233.89 668.064 1233.89 668.768V668.773C1233.89 669.635 1233.06 670.227 1231.91 670.227C1230.69 670.227 1229.81 669.693 1229.73 668.85L1229.73 668.785H1228.67L1228.68 668.85C1228.8 670.227 1230 671.199 1231.85 671.199ZM1237.14 663.465C1237.53 663.465 1237.84 663.148 1237.84 662.762C1237.84 662.375 1237.53 662.059 1237.14 662.059C1236.75 662.059 1236.44 662.375 1236.44 662.762C1236.44 663.148 1236.75 663.465 1237.14 663.465ZM1236.62 671H1237.64V664.684H1236.62V671ZM1239.62 671H1240.64V662.176H1239.62V671ZM1244.39 671H1245.42L1247.76 664.684H1246.68L1244.95 669.887H1244.86L1243.13 664.684H1242.05L1244.39 671ZM1251.45 671.111C1252.94 671.111 1253.84 670.268 1254.06 669.412L1254.07 669.365H1253.05L1253.03 669.418C1252.86 669.799 1252.33 670.203 1251.47 670.203C1250.35 670.203 1249.63 669.441 1249.6 668.135H1254.14V667.736C1254.14 665.85 1253.1 664.572 1251.38 664.572C1249.67 664.572 1248.55 665.908 1248.55 667.859V667.865C1248.55 669.846 1249.64 671.111 1251.45 671.111ZM1251.38 665.48C1252.31 665.48 1253 666.072 1253.11 667.32H1249.62C1249.73 666.119 1250.44 665.48 1251.38 665.48ZM1255.73 671H1256.75V667.086C1256.75 666.16 1257.44 665.545 1258.41 665.545C1258.63 665.545 1258.83 665.568 1259.04 665.604V664.613C1258.94 664.596 1258.72 664.572 1258.53 664.572C1257.67 664.572 1257.08 664.959 1256.84 665.621H1256.75V664.684H1255.73V671ZM1260.36 671H1261.38V667.262C1261.38 666.154 1262.01 665.475 1263.02 665.475C1264.03 665.475 1264.5 666.02 1264.5 667.156V671H1265.52V666.91C1265.52 665.41 1264.73 664.572 1263.31 664.572C1262.38 664.572 1261.79 664.965 1261.47 665.633H1261.38V662.176H1260.36V671ZM1269.1 671.111C1269.95 671.111 1270.61 670.742 1271.01 670.068H1271.1V671H1272.12V666.676C1272.12 665.363 1271.26 664.572 1269.72 664.572C1268.37 664.572 1267.41 665.24 1267.25 666.23L1267.24 666.266H1268.26L1268.27 666.248C1268.43 665.756 1268.93 665.475 1269.68 665.475C1270.63 665.475 1271.1 665.896 1271.1 666.676V667.25L1269.29 667.361C1267.82 667.449 1266.99 668.1 1266.99 669.225V669.236C1266.99 670.385 1267.9 671.111 1269.1 671.111ZM1268.03 669.213V669.201C1268.03 668.574 1268.45 668.234 1269.41 668.176L1271.1 668.07V668.645C1271.1 669.547 1270.35 670.227 1269.31 670.227C1268.58 670.227 1268.03 669.852 1268.03 669.213ZM1273.98 671H1275V667.262C1275 666.154 1275.64 665.475 1276.65 665.475C1277.66 665.475 1278.13 666.02 1278.13 667.156V671H1279.15V666.91C1279.15 665.41 1278.36 664.572 1276.94 664.572C1276.01 664.572 1275.41 664.965 1275.1 665.633H1275V664.684H1273.98V671ZM1283.32 671.111C1284.2 671.111 1284.91 670.695 1285.29 669.992H1285.39V671H1286.41V662.176H1285.39V665.68H1285.29C1284.95 665.006 1284.19 664.572 1283.32 664.572C1281.72 664.572 1280.68 665.855 1280.68 667.836V667.848C1280.68 669.816 1281.72 671.111 1283.32 671.111ZM1283.56 670.209C1282.4 670.209 1281.72 669.318 1281.72 667.848V667.836C1281.72 666.365 1282.4 665.475 1283.56 665.475C1284.71 665.475 1285.41 666.377 1285.41 667.836V667.848C1285.41 669.307 1284.71 670.209 1283.56 670.209ZM1288.36 671H1293.83V670.051H1289.82V669.957L1291.74 667.971C1293.27 666.395 1293.69 665.691 1293.69 664.725V664.713C1293.69 663.348 1292.56 662.346 1291.08 662.346C1289.46 662.346 1288.3 663.424 1288.3 664.924L1288.31 664.93L1289.32 664.936L1289.32 664.924C1289.32 663.928 1290 663.266 1291.01 663.266C1292.01 663.266 1292.61 663.934 1292.61 664.824V664.836C1292.61 665.574 1292.29 666.014 1291.22 667.18L1288.36 670.273V671ZM1298.43 671.199C1300.3 671.199 1301.42 669.494 1301.42 666.775V666.764C1301.42 664.045 1300.3 662.346 1298.43 662.346C1296.56 662.346 1295.45 664.045 1295.45 666.764V666.775C1295.45 669.494 1296.56 671.199 1298.43 671.199ZM1298.43 670.279C1297.22 670.279 1296.51 668.932 1296.51 666.775V666.764C1296.51 664.607 1297.22 663.271 1298.43 663.271C1299.64 663.271 1300.36 664.607 1300.36 666.764V666.775C1300.36 668.932 1299.64 670.279 1298.43 670.279ZM1303.16 671H1308.63V670.051H1304.62V669.957L1306.54 667.971C1308.07 666.395 1308.49 665.691 1308.49 664.725V664.713C1308.49 663.348 1307.36 662.346 1305.88 662.346C1304.27 662.346 1303.11 663.424 1303.1 664.924L1303.11 664.93L1304.12 664.936L1304.12 664.924C1304.12 663.928 1304.8 663.266 1305.81 663.266C1306.81 663.266 1307.41 663.934 1307.41 664.824V664.836C1307.41 665.574 1307.1 666.014 1306.02 667.18L1303.16 670.273V671ZM1310.4 671H1315.87V670.051H1311.87V669.957L1313.79 667.971C1315.32 666.395 1315.73 665.691 1315.73 664.725V664.713C1315.73 663.348 1314.6 662.346 1313.12 662.346C1311.51 662.346 1310.35 663.424 1310.34 664.924L1310.35 664.93L1311.36 664.936L1311.37 664.924C1311.37 663.928 1312.04 663.266 1313.05 663.266C1314.05 663.266 1314.65 663.934 1314.65 664.824V664.836C1314.65 665.574 1314.34 666.014 1313.26 667.18L1310.4 670.273V671Z" fill="#625A6F"/>
<g style="mix-blend-mode:multiply">
<path d="M1363.5 919C1401.9 915 1413.83 960.667 1415 984H1194C1233.5 928.5 1276 961 1299.5 964.5C1323 968 1315.5 924 1363.5 919Z" fill="#E6DEFF"/>
</g>
<g style="mix-blend-mode:multiply">
<path d="M1277.71 968.517C1273.86 965.123 1270.11 960.707 1269.51 955.408C1269.23 952.893 1269.46 949.855 1271.55 948.108C1273.51 946.456 1276.25 946.342 1278.65 946.871C1283.99 948.048 1288.33 951.914 1293.87 952.4C1295.6 952.552 1297.33 952.424 1299.01 952.05C1307.6 940.665 1312.65 927.292 1314.73 912.971C1314.75 912.843 1314.75 912.716 1314.77 912.596C1313.36 913.05 1311.94 913.455 1310.5 913.77C1306.78 914.581 1302.94 914.848 1299.14 914.662C1295.35 914.48 1291.32 913.858 1287.76 912.501C1286.25 911.924 1284.78 910.911 1284.15 909.354C1283.41 907.481 1284.33 905.72 1285.57 904.325C1290.07 899.255 1296.81 897.565 1303.19 896.225C1307.6 895.292 1312.51 894.292 1316.16 891.561C1316.19 880.914 1315.48 870.237 1314.95 859.613C1314.9 858.746 1314.87 857.873 1314.82 856.996C1313.36 857.851 1311.92 858.748 1310.52 859.694C1308.85 861 1307.18 862.297 1305.5 863.603C1305.26 863.788 1305.01 863.914 1304.76 864.009C1304.45 864.269 1304.13 864.504 1303.81 864.765C1302.79 865.626 1301.28 865.443 1300.36 864.565C1300.3 864.508 1300.24 864.433 1300.2 864.37C1298.81 863.995 1297.75 862.645 1298.45 860.973C1300.38 856.414 1303.71 852.819 1307.1 849.304C1309.82 846.497 1312.64 843.63 1314.48 840.166C1314.66 825.905 1316.4 811.694 1322.15 798.49C1323.14 796.218 1320.71 794.417 1318.66 795.086C1302.06 800.556 1286.06 807.541 1270.6 815.624C1268.06 819.16 1267.68 824.141 1267.43 828.326C1267.26 831.19 1267.25 834.06 1267.43 836.923C1267.59 839.533 1267.68 842.157 1265.84 844.265C1264.31 846.025 1262.09 846.823 1259.89 847.379C1258.68 847.684 1257.47 847.871 1256.32 847.248C1255.09 846.566 1254.72 845.246 1254.35 843.988C1253.02 839.471 1250.87 832.424 1251.22 826.478C1241.07 832.543 1231.16 839.02 1221.51 845.823C1219.9 852.545 1223.28 860.235 1225.77 866.459C1228.68 873.719 1231.77 882.88 1227.91 890.397C1226.19 893.749 1223.03 896.344 1219.16 896.574C1217.36 896.684 1214.76 896.413 1213.88 894.579C1213.11 892.97 1212.86 891.17 1211.99 889.559C1207.95 882.17 1200.07 877.878 1194.18 872.155C1193.05 871.051 1192.16 869.935 1191.64 868.782C1187 873.191 1182.79 877.984 1179.38 883.346C1174.92 890.373 1172.29 898.167 1171.29 906.171C1171.69 906.666 1172.12 907.133 1172.55 907.552C1173.5 908.458 1174.64 909.313 1175.73 909.952C1176.81 910.579 1177.95 911.105 1178.95 911.864C1181.53 913.856 1182.47 917.116 1180.65 919.971C1178.95 922.644 1175.49 923.534 1172.49 923.603C1172.17 923.606 1171.9 923.566 1171.62 923.523C1172.21 927.269 1173.12 930.983 1174.36 934.609C1177.29 943.216 1181.99 951.031 1187.79 957.967C1196.32 963 1207.13 963.172 1216.19 957.855C1216.46 957.702 1216.74 957.632 1217.03 957.617C1219.64 950.643 1222.58 943.81 1225.8 937.134C1231.89 924.416 1238.79 912.164 1245.92 900.097L1267.52 864.029C1274.76 852.039 1282.3 840.134 1291.36 829.432C1282.64 840.414 1275.51 852.494 1268.66 864.691L1248.22 901.394C1241.48 913.65 1235.01 926.051 1229.38 938.778C1225.94 946.562 1222.87 954.497 1220.28 962.573C1221.66 969.152 1225.47 975.034 1230.96 979.019C1232.12 979.859 1233.35 980.572 1234.63 981.208C1241.39 983.248 1248.6 983.645 1255.75 982.935C1264.54 980.347 1272.73 975.953 1280.12 970.471C1279.27 969.848 1278.47 969.199 1277.71 968.517Z" fill="#E6DEFF"/>
</g>
<g style="mix-blend-mode:multiply" opacity="0.6">
<path d="M764.089 962.6C770.551 966.648 778.882 970.385 784.487 976.069C785.967 977.548 787.212 979.183 787.913 980.896L796.788 980.895C793.908 976.068 789.704 972.487 789.47 966.57C789.314 961.043 792.195 955.904 793.596 950.688C796.321 940.8 799.28 930.991 802.394 921.259C806.287 908.958 811.892 897.358 818.588 886.38C821.001 882.565 823.492 878.75 826.14 875.091C828.475 871.899 830.266 868.318 827.852 864.581C826.295 862.245 824.816 859.909 823.259 857.574C819.989 852.747 817.186 846.986 810.802 851.112C808.7 852.513 806.053 853.837 804.262 855.627C803.172 856.717 790.716 867.228 789.159 868.006C789.47 867.851 790.404 863.569 790.56 863.024C791.572 860.143 792.818 857.34 793.986 854.537C796.71 848.309 805.197 839.512 796.788 834.996C792.039 832.505 786.979 830.558 781.918 828.612L781.918 828.612C781.373 828.378 780.672 828.145 780.05 828.223C778.181 828.378 777.714 831.181 777.091 832.582C775.3 836.475 773.51 840.368 771.641 844.183C770.863 845.662 766.269 852.435 766.503 853.603C766.191 852.046 765.413 825.809 765.413 825.809L765.413 825.809C763.7 814.909 761.987 804.01 759.963 793.188C759.885 792.721 759.807 792.176 759.574 791.787C758.172 789.295 752.1 789.373 749.686 789.14C746.339 788.828 742.913 789.062 739.565 789.607C736.451 790.152 726.875 791.164 725.084 794.2C724.461 795.212 725.162 797.314 725.396 798.404C725.941 801.363 726.953 804.166 727.42 807.046C728.121 811.095 728.743 815.143 729.366 819.191C731.079 830.87 731.78 842.859 731.624 854.46C731.624 855.926 730.859 860.528 731.528 861.595C731.014 860.814 719.795 843.805 716.676 840.991C703.986 845.273 702.896 856.017 702.662 858.43C703.518 859.52 716.442 879.918 718.856 883.344C721.191 886.769 732.091 911.683 732.091 911.683C732.091 911.683 713.017 896.112 708.501 893.698C703.986 894.01 700.326 913.629 701.105 914.408C701.884 915.264 721.269 928.733 735.283 941.735C743.875 949.707 754.083 956.218 763.917 962.49L764.089 962.6Z" fill="#888098"/>
</g>
<rect x="764" y="624" width="480" height="360" rx="32" fill="#FBF9FF"/>
<path d="M798.237 894H802.291C804.396 894 805.661 892.947 805.661 891.218V891.204C805.661 889.919 804.772 888.976 803.439 888.832V888.716C804.41 888.552 805.169 887.629 805.169 886.604V886.59C805.169 885.079 804.055 884.136 802.202 884.136H798.237V894ZM801.847 885.387C802.981 885.387 803.645 885.927 803.645 886.856V886.87C803.645 887.827 802.94 888.333 801.587 888.333H799.769V885.387H801.847ZM801.895 889.502C803.337 889.502 804.096 890.049 804.096 891.108V891.122C804.096 892.182 803.364 892.749 801.983 892.749H799.769V889.502H801.895ZM807.459 894H808.942V889.563C808.942 888.49 809.715 887.793 810.85 887.793C811.13 887.793 811.383 887.827 811.649 887.882V886.515C811.499 886.48 811.239 886.446 811 886.446C810.009 886.446 809.318 886.911 809.052 887.697H808.942V886.576H807.459V894ZM815.047 894.123C816.031 894.123 816.811 893.699 817.248 892.947H817.364V894H818.834V888.921C818.834 887.362 817.781 886.433 815.915 886.433C814.227 886.433 813.058 887.246 812.88 888.463L812.873 888.511H814.302L814.309 888.483C814.486 887.957 815.026 887.656 815.847 887.656C816.852 887.656 817.364 888.107 817.364 888.921V889.577L815.354 889.693C813.584 889.803 812.586 890.575 812.586 891.901V891.915C812.586 893.262 813.632 894.123 815.047 894.123ZM814.062 891.854V891.84C814.062 891.17 814.527 890.801 815.553 890.739L817.364 890.623V891.259C817.364 892.216 816.551 892.94 815.443 892.94C814.644 892.94 814.062 892.537 814.062 891.854ZM820.926 894H822.409V889.646C822.409 888.449 823.086 887.704 824.173 887.704C825.26 887.704 825.772 888.312 825.772 889.543V894H827.249V889.194C827.249 887.424 826.333 886.433 824.672 886.433C823.592 886.433 822.881 886.911 822.519 887.704H822.409V886.576H820.926V894ZM832.027 894.123C833.066 894.123 833.88 893.645 834.311 892.831H834.427V894H835.903V883.664H834.427V887.752H834.311C833.914 886.952 833.046 886.446 832.027 886.446C830.141 886.446 828.951 887.93 828.951 890.281V890.295C828.951 892.626 830.161 894.123 832.027 894.123ZM832.451 892.858C831.207 892.858 830.462 891.888 830.462 890.295V890.281C830.462 888.688 831.207 887.718 832.451 887.718C833.682 887.718 834.447 888.695 834.447 890.281V890.295C834.447 891.881 833.688 892.858 832.451 892.858ZM838.884 885.25C839.39 885.25 839.813 884.833 839.813 884.327C839.813 883.814 839.39 883.397 838.884 883.397C838.371 883.397 837.954 883.814 837.954 884.327C837.954 884.833 838.371 885.25 838.884 885.25ZM838.139 894H839.615V886.576H838.139V894ZM841.775 894H843.259V889.646C843.259 888.449 843.936 887.704 845.022 887.704C846.109 887.704 846.622 888.312 846.622 889.543V894H848.099V889.194C848.099 887.424 847.183 886.433 845.521 886.433C844.441 886.433 843.73 886.911 843.368 887.704H843.259V886.576H841.775V894ZM853.308 896.618C855.413 896.618 856.746 895.538 856.746 893.85V886.576H855.27V887.793H855.181C854.75 886.959 853.943 886.446 852.904 886.446C850.977 886.446 849.794 887.943 849.794 890.062V890.076C849.794 892.168 850.97 893.638 852.877 893.638C853.896 893.638 854.716 893.187 855.167 892.38H855.276V893.843C855.276 894.854 854.552 895.429 853.328 895.429C852.323 895.429 851.722 895.066 851.599 894.554L851.592 894.54H850.095L850.081 894.554C850.259 895.791 851.421 896.618 853.308 896.618ZM853.287 892.414C852.022 892.414 851.312 891.45 851.312 890.069V890.056C851.312 888.675 852.022 887.704 853.287 887.704C854.538 887.704 855.304 888.675 855.304 890.056V890.069C855.304 891.457 854.545 892.414 853.287 892.414ZM864.744 894.123C865.729 894.123 866.508 893.699 866.945 892.947H867.062V894H868.531V888.921C868.531 887.362 867.479 886.433 865.612 886.433C863.924 886.433 862.755 887.246 862.577 888.463L862.57 888.511H863.999L864.006 888.483C864.184 887.957 864.724 887.656 865.544 887.656C866.549 887.656 867.062 888.107 867.062 888.921V889.577L865.052 889.693C863.281 889.803 862.283 890.575 862.283 891.901V891.915C862.283 893.262 863.329 894.123 864.744 894.123ZM863.76 891.854V891.84C863.76 891.17 864.225 890.801 865.25 890.739L867.062 890.623V891.259C867.062 892.216 866.248 892.94 865.141 892.94C864.341 892.94 863.76 892.537 863.76 891.854ZM870.623 894H872.106V889.563C872.106 888.49 872.879 887.793 874.014 887.793C874.294 887.793 874.547 887.827 874.813 887.882V886.515C874.663 886.48 874.403 886.446 874.164 886.446C873.173 886.446 872.482 886.911 872.216 887.697H872.106V886.576H870.623V894ZM879.154 894.144C881.055 894.144 882.08 893.05 882.326 892.072L882.34 892.011L880.911 892.018L880.884 892.072C880.706 892.455 880.139 892.927 879.188 892.927C877.965 892.927 877.186 892.1 877.158 890.678H882.422V890.158C882.422 887.93 881.15 886.433 879.079 886.433C877.008 886.433 875.668 887.984 875.668 890.302V890.309C875.668 892.66 876.98 894.144 879.154 894.144ZM879.086 887.649C880.091 887.649 880.836 888.292 880.952 889.618H877.179C877.309 888.34 878.074 887.649 879.086 887.649ZM886.223 894.123C887.207 894.123 887.986 893.699 888.424 892.947H888.54V894H890.01V888.921C890.01 887.362 888.957 886.433 887.091 886.433C885.402 886.433 884.233 887.246 884.056 888.463L884.049 888.511H885.478L885.484 888.483C885.662 887.957 886.202 887.656 887.022 887.656C888.027 887.656 888.54 888.107 888.54 888.921V889.577L886.53 889.693C884.76 889.803 883.762 890.575 883.762 891.901V891.915C883.762 893.262 884.808 894.123 886.223 894.123ZM885.238 891.854V891.84C885.238 891.17 885.703 890.801 886.729 890.739L888.54 890.623V891.259C888.54 892.216 887.727 892.94 886.619 892.94C885.819 892.94 885.238 892.537 885.238 891.854Z" fill="#191C1D"/>
<circle cx="807" cy="917" r="5" fill="#5D34F2"/>
<rect x="799" y="909" width="16" height="16" rx="8" stroke="#5D34F2" stroke-width="2"/>
<path d="M825.472 922H826.764L827.755 919.177H831.679L832.67 922H833.962L830.325 912.136H829.108L825.472 922ZM829.662 913.729H829.771L831.316 918.131H828.117L829.662 913.729ZM835.541 924.461H836.73V920.838H836.84C837.243 921.624 838.125 922.13 839.137 922.13C841.01 922.13 842.227 920.633 842.227 918.322V918.309C842.227 916.012 841.003 914.501 839.137 914.501C838.111 914.501 837.291 914.986 836.84 915.807H836.73V914.631H835.541V924.461ZM838.863 921.077C837.523 921.077 836.703 920.024 836.703 918.322V918.309C836.703 916.606 837.523 915.554 838.863 915.554C840.21 915.554 841.01 916.593 841.01 918.309V918.322C841.01 920.038 840.21 921.077 838.863 921.077ZM844.086 924.461H845.275V920.838H845.385C845.788 921.624 846.67 922.13 847.682 922.13C849.555 922.13 850.771 920.633 850.771 918.322V918.309C850.771 916.012 849.548 914.501 847.682 914.501C846.656 914.501 845.836 914.986 845.385 915.807H845.275V914.631H844.086V924.461ZM847.408 921.077C846.068 921.077 845.248 920.024 845.248 918.322V918.309C845.248 916.606 846.068 915.554 847.408 915.554C848.755 915.554 849.555 916.593 849.555 918.309V918.322C849.555 920.038 848.755 921.077 847.408 921.077ZM856.719 922H862.707V920.893H857.949V912.136H856.719V922ZM867.212 922.13C869.311 922.13 870.609 920.681 870.609 918.322V918.309C870.609 915.943 869.311 914.501 867.212 914.501C865.113 914.501 863.814 915.943 863.814 918.309V918.322C863.814 920.681 865.113 922.13 867.212 922.13ZM867.212 921.077C865.817 921.077 865.031 920.059 865.031 918.322V918.309C865.031 916.565 865.817 915.554 867.212 915.554C868.606 915.554 869.393 916.565 869.393 918.309V918.322C869.393 920.059 868.606 921.077 867.212 921.077ZM875.49 924.598C877.5 924.598 878.771 923.545 878.771 921.897V914.631H877.582V915.848H877.5C877.049 915.014 876.242 914.501 875.203 914.501C873.275 914.501 872.086 915.998 872.086 918.062V918.076C872.086 920.141 873.269 921.617 875.176 921.617C876.188 921.617 877.021 921.159 877.486 920.346H877.596V921.836C877.596 922.923 876.81 923.545 875.49 923.545C874.431 923.545 873.774 923.148 873.645 922.588L873.638 922.581H872.407L872.394 922.588C872.578 923.798 873.713 924.598 875.49 924.598ZM875.436 920.564C874.068 920.564 873.303 919.539 873.303 918.076V918.062C873.303 916.6 874.068 915.554 875.436 915.554C876.796 915.554 877.623 916.6 877.623 918.062V918.076C877.623 919.539 876.803 920.564 875.436 920.564ZM884.015 922.13C886.113 922.13 887.412 920.681 887.412 918.322V918.309C887.412 915.943 886.113 914.501 884.015 914.501C881.916 914.501 880.617 915.943 880.617 918.309V918.322C880.617 920.681 881.916 922.13 884.015 922.13ZM884.015 921.077C882.62 921.077 881.834 920.059 881.834 918.322V918.309C881.834 916.565 882.62 915.554 884.015 915.554C885.409 915.554 886.195 916.565 886.195 918.309V918.322C886.195 920.059 885.409 921.077 884.015 921.077ZM894.617 922H895.807L897.447 916.299H897.557L899.204 922H900.4L902.465 914.631H901.282L899.833 920.523H899.724L898.076 914.631H896.948L895.301 920.523H895.191L893.742 914.631H892.553L894.617 922ZM904.666 913.209C905.117 913.209 905.486 912.84 905.486 912.389C905.486 911.938 905.117 911.568 904.666 911.568C904.215 911.568 903.846 911.938 903.846 912.389C903.846 912.84 904.215 913.209 904.666 913.209ZM904.064 922H905.254V914.631H904.064V922ZM910.114 922.055C910.347 922.055 910.572 922.027 910.805 921.986V920.975C910.586 920.995 910.47 921.002 910.258 921.002C909.492 921.002 909.191 920.653 909.191 919.785V915.615H910.805V914.631H909.191V912.724H907.961V914.631H906.799V915.615H907.961V920.086C907.961 921.494 908.597 922.055 910.114 922.055ZM912.65 922H913.84V917.639C913.84 916.347 914.585 915.554 915.761 915.554C916.937 915.554 917.483 916.189 917.483 917.516V922H918.673V917.229C918.673 915.479 917.75 914.501 916.096 914.501C915.009 914.501 914.318 914.959 913.949 915.738H913.84V911.705H912.65V922ZM924.764 922H925.953V917.434C925.953 916.395 926.685 915.554 927.648 915.554C928.578 915.554 929.18 916.121 929.18 916.996V922H930.369V917.263C930.369 916.326 931.046 915.554 932.071 915.554C933.11 915.554 933.609 916.094 933.609 917.181V922H934.799V916.907C934.799 915.362 933.958 914.501 932.454 914.501C931.436 914.501 930.595 915.014 930.198 915.793H930.089C929.747 915.027 929.05 914.501 928.052 914.501C927.088 914.501 926.391 914.959 926.062 915.752H925.953V914.631H924.764V922ZM939.953 922.13C941.689 922.13 942.742 921.146 942.995 920.147L943.009 920.093H941.819L941.792 920.154C941.594 920.599 940.979 921.07 939.98 921.07C938.668 921.07 937.827 920.182 937.793 918.657H943.098V918.192C943.098 915.991 941.881 914.501 939.878 914.501C937.875 914.501 936.576 916.06 936.576 918.336V918.343C936.576 920.653 937.848 922.13 939.953 922.13ZM939.871 915.561C940.958 915.561 941.765 916.251 941.888 917.707H937.813C937.943 916.306 938.777 915.561 939.871 915.561ZM947.473 922.13C949.147 922.13 950.426 921.221 950.426 919.908V919.895C950.426 918.842 949.756 918.24 948.368 917.905L947.233 917.632C946.365 917.42 945.996 917.105 945.996 916.606V916.593C945.996 915.943 946.639 915.492 947.514 915.492C948.402 915.492 948.977 915.896 949.134 916.477H950.303C950.139 915.273 949.065 914.501 947.521 914.501C945.955 914.501 944.779 915.424 944.779 916.647V916.654C944.779 917.714 945.401 918.315 946.782 918.644L947.924 918.917C948.833 919.136 949.209 919.484 949.209 919.983V919.997C949.209 920.667 948.505 921.139 947.514 921.139C946.57 921.139 945.982 920.735 945.784 920.12H944.567C944.704 921.337 945.832 922.13 947.473 922.13ZM954.664 922.13C956.339 922.13 957.617 921.221 957.617 919.908V919.895C957.617 918.842 956.947 918.24 955.56 917.905L954.425 917.632C953.557 917.42 953.188 917.105 953.188 916.606V916.593C953.188 915.943 953.83 915.492 954.705 915.492C955.594 915.492 956.168 915.896 956.325 916.477H957.494C957.33 915.273 956.257 914.501 954.712 914.501C953.146 914.501 951.971 915.424 951.971 916.647V916.654C951.971 917.714 952.593 918.315 953.974 918.644L955.115 918.917C956.024 919.136 956.4 919.484 956.4 919.983V919.997C956.4 920.667 955.696 921.139 954.705 921.139C953.762 921.139 953.174 920.735 952.976 920.12H951.759C951.896 921.337 953.023 922.13 954.664 922.13ZM961.486 922.13C962.478 922.13 963.25 921.699 963.715 920.913H963.824V922H965.014V916.955C965.014 915.424 964.009 914.501 962.211 914.501C960.639 914.501 959.518 915.28 959.326 916.436L959.319 916.477H960.509L960.516 916.456C960.707 915.882 961.288 915.554 962.17 915.554C963.271 915.554 963.824 916.046 963.824 916.955V917.625L961.712 917.755C959.996 917.857 959.025 918.616 959.025 919.929V919.942C959.025 921.282 960.085 922.13 961.486 922.13ZM960.242 919.915V919.901C960.242 919.17 960.734 918.773 961.855 918.705L963.824 918.582V919.252C963.824 920.305 962.942 921.098 961.732 921.098C960.878 921.098 960.242 920.66 960.242 919.915ZM970.223 924.598C972.232 924.598 973.504 923.545 973.504 921.897V914.631H972.314V915.848H972.232C971.781 915.014 970.975 914.501 969.936 914.501C968.008 914.501 966.818 915.998 966.818 918.062V918.076C966.818 920.141 968.001 921.617 969.908 921.617C970.92 921.617 971.754 921.159 972.219 920.346H972.328V921.836C972.328 922.923 971.542 923.545 970.223 923.545C969.163 923.545 968.507 923.148 968.377 922.588L968.37 922.581H967.14L967.126 922.588C967.311 923.798 968.445 924.598 970.223 924.598ZM970.168 920.564C968.801 920.564 968.035 919.539 968.035 918.076V918.062C968.035 916.6 968.801 915.554 970.168 915.554C971.528 915.554 972.355 916.6 972.355 918.062V918.076C972.355 919.539 971.535 920.564 970.168 920.564ZM978.727 922.13C980.463 922.13 981.516 921.146 981.769 920.147L981.782 920.093H980.593L980.565 920.154C980.367 920.599 979.752 921.07 978.754 921.07C977.441 921.07 976.601 920.182 976.566 918.657H981.871V918.192C981.871 915.991 980.654 914.501 978.651 914.501C976.648 914.501 975.35 916.06 975.35 918.336V918.343C975.35 920.653 976.621 922.13 978.727 922.13ZM978.645 915.561C979.731 915.561 980.538 916.251 980.661 917.707H976.587C976.717 916.306 977.551 915.561 978.645 915.561Z" fill="#191C1D"/>
<circle cx="807" cy="945" r="8" fill="white" stroke="#8E9192" stroke-width="2"/>
<path d="M825.472 950H826.764L827.755 947.177H831.679L832.67 950H833.962L830.325 940.136H829.108L825.472 950ZM829.662 941.729H829.771L831.316 946.131H828.117L829.662 941.729ZM835.541 952.461H836.73V948.838H836.84C837.243 949.624 838.125 950.13 839.137 950.13C841.01 950.13 842.227 948.633 842.227 946.322V946.309C842.227 944.012 841.003 942.501 839.137 942.501C838.111 942.501 837.291 942.986 836.84 943.807H836.73V942.631H835.541V952.461ZM838.863 949.077C837.523 949.077 836.703 948.024 836.703 946.322V946.309C836.703 944.606 837.523 943.554 838.863 943.554C840.21 943.554 841.01 944.593 841.01 946.309V946.322C841.01 948.038 840.21 949.077 838.863 949.077ZM844.086 952.461H845.275V948.838H845.385C845.788 949.624 846.67 950.13 847.682 950.13C849.555 950.13 850.771 948.633 850.771 946.322V946.309C850.771 944.012 849.548 942.501 847.682 942.501C846.656 942.501 845.836 942.986 845.385 943.807H845.275V942.631H844.086V952.461ZM847.408 949.077C846.068 949.077 845.248 948.024 845.248 946.322V946.309C845.248 944.606 846.068 943.554 847.408 943.554C848.755 943.554 849.555 944.593 849.555 946.309V946.322C849.555 948.038 848.755 949.077 847.408 949.077ZM856.719 950H862.707V948.893H857.949V940.136H856.719V950ZM867.212 950.13C869.311 950.13 870.609 948.681 870.609 946.322V946.309C870.609 943.943 869.311 942.501 867.212 942.501C865.113 942.501 863.814 943.943 863.814 946.309V946.322C863.814 948.681 865.113 950.13 867.212 950.13ZM867.212 949.077C865.817 949.077 865.031 948.059 865.031 946.322V946.309C865.031 944.565 865.817 943.554 867.212 943.554C868.606 943.554 869.393 944.565 869.393 946.309V946.322C869.393 948.059 868.606 949.077 867.212 949.077ZM875.49 952.598C877.5 952.598 878.771 951.545 878.771 949.897V942.631H877.582V943.848H877.5C877.049 943.014 876.242 942.501 875.203 942.501C873.275 942.501 872.086 943.998 872.086 946.062V946.076C872.086 948.141 873.269 949.617 875.176 949.617C876.188 949.617 877.021 949.159 877.486 948.346H877.596V949.836C877.596 950.923 876.81 951.545 875.49 951.545C874.431 951.545 873.774 951.148 873.645 950.588L873.638 950.581H872.407L872.394 950.588C872.578 951.798 873.713 952.598 875.49 952.598ZM875.436 948.564C874.068 948.564 873.303 947.539 873.303 946.076V946.062C873.303 944.6 874.068 943.554 875.436 943.554C876.796 943.554 877.623 944.6 877.623 946.062V946.076C877.623 947.539 876.803 948.564 875.436 948.564ZM884.015 950.13C886.113 950.13 887.412 948.681 887.412 946.322V946.309C887.412 943.943 886.113 942.501 884.015 942.501C881.916 942.501 880.617 943.943 880.617 946.309V946.322C880.617 948.681 881.916 950.13 884.015 950.13ZM884.015 949.077C882.62 949.077 881.834 948.059 881.834 946.322V946.309C881.834 944.565 882.62 943.554 884.015 943.554C885.409 943.554 886.195 944.565 886.195 946.309V946.322C886.195 948.059 885.409 949.077 884.015 949.077Z" fill="#191C1D"/>
<path d="M797.025 697H800.822C802.627 697 803.746 696.068 803.746 694.586V694.574C803.746 693.49 802.932 692.652 801.812 692.564V692.459C802.68 692.33 803.342 691.551 803.342 690.66V690.648C803.342 689.348 802.363 688.545 800.723 688.545H797.025V697ZM800.271 689.857C801.115 689.857 801.602 690.268 801.602 690.953V690.965C801.602 691.662 801.08 692.061 800.125 692.061H798.795V689.857H800.271ZM800.33 693.227C801.373 693.227 801.941 693.648 801.941 694.434V694.445C801.941 695.248 801.391 695.682 800.371 695.682H798.795V693.227H800.33ZM806.546 697H808.315V693.906H809.762L811.339 697H813.343L811.561 693.643C812.528 693.262 813.091 692.33 813.091 691.246V691.234C813.091 689.57 811.989 688.545 810.067 688.545H806.546V697ZM808.315 692.617V689.928H809.85C810.735 689.928 811.28 690.455 811.28 691.27V691.281C811.28 692.113 810.759 692.617 809.874 692.617H808.315ZM815.474 697H817.332L817.959 694.949H820.941L821.568 697H823.431L820.49 688.545H818.41L815.474 697ZM819.4 690.232H819.505L820.537 693.625H818.363L819.4 690.232ZM826.067 697H827.76V691.592H827.854L831.768 697H833.233V688.545H831.539V693.93H831.446L827.543 688.545H826.067V697ZM836.489 697H839.818C842.349 697 843.784 695.453 843.784 692.723V692.711C843.784 690.062 842.331 688.545 839.818 688.545H836.489V697ZM838.259 695.541V690.004H839.536C841.071 690.004 841.98 691 841.98 692.74V692.752C841.98 694.557 841.101 695.541 839.536 695.541H838.259ZM846.666 697H848.436V688.545H846.666V697ZM851.686 697H853.38V691.592H853.473L857.388 697H858.852V688.545H857.159V693.93H857.065L853.163 688.545H851.686V697ZM865.789 697.217C868.097 697.217 869.539 695.811 869.539 693.566V692.494H865.988V693.783H867.816L867.81 693.941C867.775 695.008 866.978 695.717 865.818 695.717C864.423 695.717 863.539 694.586 863.539 692.752V692.74C863.539 690.941 864.382 689.828 865.748 689.828C866.738 689.828 867.459 690.326 867.699 691.164L867.711 691.223H869.468L869.457 691.164C869.205 689.477 867.746 688.328 865.748 688.328C863.287 688.328 861.734 690.045 861.734 692.758V692.77C861.734 695.523 863.275 697.217 865.789 697.217Z" fill="#928F9A"/>
<rect x="1072.5" y="685.5" width="139" height="275" rx="19.5" fill="white"/>
<rect x="1072.5" y="685.5" width="139" height="275" rx="19.5" stroke="#F7F8F8"/>
<rect x="1072.5" y="685.5" width="139" height="275" rx="19.5" stroke="#78767F" stroke-opacity="0.02"/>
<rect x="1072.5" y="685.5" width="139" height="275" rx="19.5" stroke="#5D34F2" stroke-opacity="0.14"/>
<circle cx="1142" cy="718" r="14" fill="#CABEFF"/>
<path d="M1098 740H1163.48M1186 740H1175.5" stroke="#E5E1EC" stroke-width="2" stroke-linecap="round"/>
<rect x="1086" y="756" width="112" height="20" rx="4" fill="#EFF1F1"/>
<path d="M1096.98 769.137C1098.4 769.137 1099.27 768.297 1099.27 767.059V763.363H1098.39V766.992C1098.39 767.809 1097.88 768.363 1096.98 768.363C1096.09 768.363 1095.57 767.809 1095.57 766.992V763.363H1094.7V767.059C1094.7 768.297 1095.57 769.137 1096.98 769.137ZM1102.12 769.082C1103.13 769.082 1103.88 768.547 1103.88 767.762V767.754C1103.88 767.141 1103.49 766.793 1102.67 766.602L1102 766.449C1101.52 766.336 1101.33 766.172 1101.33 765.906V765.898C1101.33 765.559 1101.66 765.328 1102.13 765.328C1102.61 765.328 1102.91 765.551 1102.99 765.848V765.855H1103.8V765.852C1103.72 765.16 1103.1 764.676 1102.13 764.676C1101.17 764.676 1100.48 765.207 1100.48 765.945V765.949C1100.48 766.57 1100.86 766.934 1101.66 767.117L1102.33 767.273C1102.82 767.387 1103.02 767.566 1103.02 767.832V767.84C1103.02 768.188 1102.66 768.426 1102.14 768.426C1101.63 768.426 1101.32 768.211 1101.22 767.891L1101.21 767.887H1100.37V767.891C1100.45 768.602 1101.1 769.082 1102.12 769.082ZM1106.67 769.082C1107.76 769.082 1108.34 768.457 1108.48 767.898L1108.49 767.863L1107.68 767.867L1107.66 767.898C1107.56 768.117 1107.23 768.387 1106.69 768.387C1105.99 768.387 1105.55 767.914 1105.53 767.102H1108.54V766.805C1108.54 765.531 1107.81 764.676 1106.63 764.676C1105.45 764.676 1104.68 765.562 1104.68 766.887V766.891C1104.68 768.234 1105.43 769.082 1106.67 769.082ZM1106.63 765.371C1107.21 765.371 1107.63 765.738 1107.7 766.496H1105.54C1105.62 765.766 1106.05 765.371 1106.63 765.371ZM1109.55 769H1110.39V766.465C1110.39 765.852 1110.84 765.453 1111.48 765.453C1111.64 765.453 1111.79 765.473 1111.94 765.504V764.723C1111.86 764.703 1111.71 764.684 1111.57 764.684C1111 764.684 1110.61 764.949 1110.46 765.398H1110.39V764.758H1109.55V769ZM1112.81 769H1113.66V766.512C1113.66 765.828 1114.05 765.402 1114.67 765.402C1115.29 765.402 1115.58 765.75 1115.58 766.453V769H1116.43V766.254C1116.43 765.242 1115.9 764.676 1114.95 764.676C1114.34 764.676 1113.93 764.949 1113.72 765.402H1113.66V764.758H1112.81V769ZM1118.77 769.07C1119.34 769.07 1119.78 768.828 1120.03 768.398H1120.1V769H1120.94V766.098C1120.94 765.207 1120.34 764.676 1119.27 764.676C1118.3 764.676 1117.64 765.141 1117.54 765.836L1117.53 765.863H1118.35L1118.35 765.848C1118.45 765.547 1118.76 765.375 1119.23 765.375C1119.8 765.375 1120.1 765.633 1120.1 766.098V766.473L1118.95 766.539C1117.94 766.602 1117.37 767.043 1117.37 767.801V767.809C1117.37 768.578 1117.96 769.07 1118.77 769.07ZM1118.21 767.773V767.766C1118.21 767.383 1118.48 767.172 1119.06 767.137L1120.1 767.07V767.434C1120.1 767.98 1119.63 768.395 1119 768.395C1118.54 768.395 1118.21 768.164 1118.21 767.773ZM1122.13 769H1122.98V766.395C1122.98 765.84 1123.36 765.402 1123.87 765.402C1124.37 765.402 1124.69 765.707 1124.69 766.191V769H1125.53V766.316C1125.53 765.805 1125.89 765.402 1126.43 765.402C1126.98 765.402 1127.25 765.691 1127.25 766.277V769H1128.09V766.074C1128.09 765.191 1127.59 764.676 1126.73 764.676C1126.14 764.676 1125.66 764.977 1125.44 765.434H1125.38C1125.19 764.977 1124.78 764.676 1124.2 764.676C1123.64 764.676 1123.23 764.945 1123.04 765.41H1122.98V764.758H1122.13V769ZM1131.05 769.082C1132.14 769.082 1132.73 768.457 1132.87 767.898L1132.88 767.863L1132.06 767.867L1132.04 767.898C1131.94 768.117 1131.62 768.387 1131.07 768.387C1130.38 768.387 1129.93 767.914 1129.91 767.102H1132.92V766.805C1132.92 765.531 1132.2 764.676 1131.01 764.676C1129.83 764.676 1129.06 765.562 1129.06 766.887V766.891C1129.06 768.234 1129.81 769.082 1131.05 769.082ZM1131.02 765.371C1131.59 765.371 1132.02 765.738 1132.08 766.496H1129.93C1130 765.766 1130.44 765.371 1131.02 765.371Z" fill="#ADAAB4"/>
<rect x="1086" y="784" width="112" height="20" rx="4" fill="#EFF1F1"/>
<path d="M1094.71 797H1095.58V795.074H1096.9C1098.01 795.074 1098.77 794.32 1098.77 793.219V793.211C1098.77 792.105 1098.01 791.363 1096.9 791.363H1094.71V797ZM1096.68 792.102C1097.44 792.102 1097.88 792.512 1097.88 793.215V793.223C1097.88 793.93 1097.44 794.34 1096.68 794.34H1095.58V792.102H1096.68ZM1100.81 797.07C1101.38 797.07 1101.82 796.828 1102.07 796.398H1102.14V797H1102.98V794.098C1102.98 793.207 1102.38 792.676 1101.31 792.676C1100.34 792.676 1099.68 793.141 1099.57 793.836L1099.57 793.863H1100.39L1100.39 793.848C1100.49 793.547 1100.8 793.375 1101.27 793.375C1101.84 793.375 1102.14 793.633 1102.14 794.098V794.473L1100.99 794.539C1099.98 794.602 1099.41 795.043 1099.41 795.801V795.809C1099.41 796.578 1100 797.07 1100.81 797.07ZM1100.25 795.773V795.766C1100.25 795.383 1100.52 795.172 1101.1 795.137L1102.14 795.07V795.434C1102.14 795.98 1101.67 796.395 1101.04 796.395C1100.58 796.395 1100.25 796.164 1100.25 795.773ZM1105.71 797.082C1106.72 797.082 1107.47 796.547 1107.47 795.762V795.754C1107.47 795.141 1107.08 794.793 1106.27 794.602L1105.59 794.449C1105.12 794.336 1104.92 794.172 1104.92 793.906V793.898C1104.92 793.559 1105.26 793.328 1105.72 793.328C1106.2 793.328 1106.5 793.551 1106.58 793.848V793.855H1107.39V793.852C1107.32 793.16 1106.7 792.676 1105.73 792.676C1104.77 792.676 1104.08 793.207 1104.08 793.945V793.949C1104.08 794.57 1104.45 794.934 1105.25 795.117L1105.93 795.273C1106.42 795.387 1106.62 795.566 1106.62 795.832V795.84C1106.62 796.188 1106.25 796.426 1105.73 796.426C1105.23 796.426 1104.92 796.211 1104.81 795.891L1104.81 795.887H1103.96V795.891C1104.04 796.602 1104.69 797.082 1105.71 797.082ZM1109.95 797.082C1110.96 797.082 1111.71 796.547 1111.71 795.762V795.754C1111.71 795.141 1111.32 794.793 1110.5 794.602L1109.83 794.449C1109.35 794.336 1109.16 794.172 1109.16 793.906V793.898C1109.16 793.559 1109.49 793.328 1109.96 793.328C1110.43 793.328 1110.73 793.551 1110.82 793.848V793.855H1111.62V793.852C1111.55 793.16 1110.93 792.676 1109.96 792.676C1109 792.676 1108.31 793.207 1108.31 793.945V793.949C1108.31 794.57 1108.68 794.934 1109.48 795.117L1110.16 795.273C1110.65 795.387 1110.85 795.566 1110.85 795.832V795.84C1110.85 796.188 1110.49 796.426 1109.96 796.426C1109.46 796.426 1109.15 796.211 1109.05 795.891L1109.04 795.887H1108.2V795.891C1108.28 796.602 1108.93 797.082 1109.95 797.082ZM1113.42 797H1114.28L1115.16 793.836H1115.22L1116.1 797H1116.97L1118.14 792.758H1117.3L1116.54 796.031H1116.48L1115.6 792.758H1114.8L1113.92 796.031H1113.86L1113.1 792.758H1112.25L1113.42 797ZM1120.64 797.082C1121.88 797.082 1122.64 796.25 1122.64 794.883V794.875C1122.64 793.508 1121.88 792.676 1120.64 792.676C1119.4 792.676 1118.63 793.512 1118.63 794.875V794.883C1118.63 796.25 1119.39 797.082 1120.64 797.082ZM1120.64 796.375C1119.91 796.375 1119.5 795.824 1119.5 794.883V794.875C1119.5 793.934 1119.91 793.383 1120.64 793.383C1121.37 793.383 1121.78 793.934 1121.78 794.875V794.883C1121.78 795.82 1121.37 796.375 1120.64 796.375ZM1123.66 797H1124.5V794.465C1124.5 793.852 1124.95 793.453 1125.59 793.453C1125.75 793.453 1125.9 793.473 1126.05 793.504V792.723C1125.96 792.703 1125.82 792.684 1125.68 792.684C1125.11 792.684 1124.72 792.949 1124.57 793.398H1124.5V792.758H1123.66V797ZM1128.3 797.07C1128.89 797.07 1129.36 796.797 1129.6 796.332H1129.67V797H1130.51V791.094H1129.67V793.43H1129.6C1129.38 792.973 1128.88 792.684 1128.3 792.684C1127.22 792.684 1126.54 793.531 1126.54 794.875V794.883C1126.54 796.215 1127.23 797.07 1128.3 797.07ZM1128.54 796.348C1127.83 796.348 1127.4 795.793 1127.4 794.883V794.875C1127.4 793.965 1127.83 793.41 1128.54 793.41C1129.24 793.41 1129.68 793.969 1129.68 794.875V794.883C1129.68 795.789 1129.25 796.348 1128.54 796.348Z" fill="#ADAAB4"/>
<rect x="1086" y="834" width="112" height="20" rx="6" fill="#5D34F2"/>
<path d="M1131.72 847.133C1132.98 847.133 1133.8 846.477 1133.8 845.422V845.418C1133.8 844.605 1133.34 844.133 1132.16 843.871L1131.54 843.73C1130.77 843.562 1130.46 843.258 1130.46 842.809V842.805C1130.46 842.215 1131.01 841.883 1131.71 841.879C1132.45 841.875 1132.91 842.242 1132.99 842.738L1133 842.789H1133.7L1133.7 842.734C1133.64 841.895 1132.86 841.23 1131.73 841.23C1130.57 841.23 1129.75 841.891 1129.75 842.824V842.828C1129.75 843.645 1130.23 844.164 1131.36 844.414L1131.99 844.551C1132.76 844.723 1133.09 845.043 1133.09 845.512V845.516C1133.09 846.09 1132.53 846.484 1131.76 846.484C1130.95 846.484 1130.36 846.129 1130.31 845.566L1130.31 845.523H1129.61L1129.61 845.566C1129.69 846.484 1130.49 847.133 1131.72 847.133ZM1135.25 841.977C1135.51 841.977 1135.72 841.766 1135.72 841.508C1135.72 841.25 1135.51 841.039 1135.25 841.039C1134.99 841.039 1134.78 841.25 1134.78 841.508C1134.78 841.766 1134.99 841.977 1135.25 841.977ZM1134.91 847H1135.59V842.789H1134.91V847ZM1138.6 848.484C1139.75 848.484 1140.48 847.883 1140.48 846.941V842.789H1139.8V843.484H1139.75C1139.49 843.008 1139.03 842.715 1138.44 842.715C1137.34 842.715 1136.66 843.57 1136.66 844.75V844.758C1136.66 845.938 1137.33 846.781 1138.42 846.781C1139 846.781 1139.48 846.52 1139.74 846.055H1139.8V846.906C1139.8 847.527 1139.36 847.883 1138.6 847.883C1138 847.883 1137.62 847.656 1137.55 847.336L1137.54 847.332H1136.84L1136.83 847.336C1136.94 848.027 1137.59 848.484 1138.6 848.484ZM1138.57 846.18C1137.79 846.18 1137.35 845.594 1137.35 844.758V844.75C1137.35 843.914 1137.79 843.316 1138.57 843.316C1139.35 843.316 1139.82 843.914 1139.82 844.75V844.758C1139.82 845.594 1139.35 846.18 1138.57 846.18ZM1141.74 847H1142.42V844.508C1142.42 843.77 1142.85 843.316 1143.52 843.316C1144.19 843.316 1144.5 843.68 1144.5 844.438V847H1145.18V844.273C1145.18 843.273 1144.66 842.715 1143.71 842.715C1143.09 842.715 1142.7 842.977 1142.48 843.422H1142.42V842.789H1141.74V847ZM1148.75 847H1149.45V841.363H1148.75V847ZM1150.8 847H1151.48V844.508C1151.48 843.77 1151.91 843.316 1152.58 843.316C1153.25 843.316 1153.57 843.68 1153.57 844.438V847H1154.25V844.273C1154.25 843.273 1153.72 842.715 1152.77 842.715C1152.15 842.715 1151.76 842.977 1151.55 843.422H1151.48V842.789H1150.8V847Z" fill="white"/>
<path d="M1096 825H1154.71M1183 825H1167.14" stroke="#E5E1EC" stroke-width="2" stroke-linecap="round"/>
<circle cx="1089" cy="825" r="2.2" fill="white" stroke="#E5E1EC" stroke-width="1.6"/>
<path d="M1112.52 942.149C1113.87 942.149 1114.87 941.398 1115.08 940.238V940.229H1114.28L1114.27 940.238C1114.07 940.967 1113.4 941.42 1112.52 941.42C1111.3 941.42 1110.53 940.422 1110.53 938.836V938.827C1110.53 937.241 1111.3 936.239 1112.51 936.239C1113.39 936.239 1114.06 936.753 1114.27 937.566L1114.28 937.575H1115.07L1115.08 937.566C1114.89 936.349 1113.85 935.509 1112.51 935.509C1110.79 935.509 1109.72 936.784 1109.72 938.827V938.836C1109.72 940.875 1110.79 942.149 1112.52 942.149ZM1116.31 942H1117.07V939.064C1117.07 938.37 1117.59 937.909 1118.32 937.909C1118.49 937.909 1118.63 937.926 1118.79 937.953V937.21C1118.72 937.197 1118.56 937.179 1118.41 937.179C1117.77 937.179 1117.32 937.469 1117.14 937.966H1117.07V937.263H1116.31V942ZM1121.54 942.083C1122.66 942.083 1123.33 941.451 1123.49 940.809L1123.5 940.774H1122.74L1122.72 940.813C1122.59 941.099 1122.2 941.402 1121.56 941.402C1120.71 941.402 1120.17 940.831 1120.15 939.851H1123.56V939.552C1123.56 938.137 1122.78 937.179 1121.49 937.179C1120.2 937.179 1119.37 938.181 1119.37 939.645V939.649C1119.37 941.134 1120.19 942.083 1121.54 942.083ZM1121.49 937.86C1122.19 937.86 1122.7 938.304 1122.78 939.24H1120.16C1120.25 938.339 1120.78 937.86 1121.49 937.86ZM1126.05 942.083C1126.69 942.083 1127.18 941.807 1127.48 941.301H1127.55V942H1128.32V938.757C1128.32 937.772 1127.67 937.179 1126.51 937.179C1125.5 937.179 1124.78 937.68 1124.66 938.423L1124.65 938.449H1125.42L1125.42 938.436C1125.55 938.067 1125.92 937.856 1126.49 937.856C1127.19 937.856 1127.55 938.172 1127.55 938.757V939.188L1126.19 939.271C1125.09 939.337 1124.47 939.825 1124.47 940.668V940.677C1124.47 941.539 1125.15 942.083 1126.05 942.083ZM1125.25 940.66V940.651C1125.25 940.181 1125.56 939.926 1126.29 939.882L1127.55 939.803V940.233C1127.55 940.91 1126.98 941.42 1126.21 941.42C1125.66 941.42 1125.25 941.139 1125.25 940.66ZM1131.4 942.035C1131.55 942.035 1131.69 942.018 1131.84 941.991V941.341C1131.7 941.354 1131.62 941.358 1131.49 941.358C1131 941.358 1130.8 941.134 1130.8 940.576V937.896H1131.84V937.263H1130.8V936.037H1130.01V937.263H1129.26V937.896H1130.01V940.77C1130.01 941.675 1130.42 942.035 1131.4 942.035ZM1134.85 942.083C1135.96 942.083 1136.64 941.451 1136.8 940.809L1136.81 940.774H1136.05L1136.03 940.813C1135.9 941.099 1135.5 941.402 1134.86 941.402C1134.02 941.402 1133.48 940.831 1133.46 939.851H1136.87V939.552C1136.87 938.137 1136.08 937.179 1134.8 937.179C1133.51 937.179 1132.67 938.181 1132.67 939.645V939.649C1132.67 941.134 1133.49 942.083 1134.85 942.083ZM1134.79 937.86C1135.49 937.86 1136.01 938.304 1136.09 939.24H1133.47C1133.55 938.339 1134.09 937.86 1134.79 937.86ZM1140.18 942H1141.01L1141.64 940.185H1144.17L1144.8 942H1145.63L1143.3 935.659H1142.51L1140.18 942ZM1142.87 936.683H1142.94L1143.93 939.513H1141.88L1142.87 936.683ZM1148.32 942.083C1149.46 942.083 1150.1 941.473 1150.29 940.616L1150.3 940.567L1149.55 940.572L1149.54 940.598C1149.36 941.125 1148.96 941.407 1148.32 941.407C1147.48 941.407 1146.93 940.708 1146.93 939.618V939.609C1146.93 938.542 1147.47 937.856 1148.32 937.856C1149 937.856 1149.42 938.234 1149.54 938.7L1149.55 938.713H1150.31L1150.3 938.687C1150.16 937.843 1149.47 937.179 1148.32 937.179C1146.99 937.179 1146.15 938.137 1146.15 939.609V939.618C1146.15 941.121 1147 942.083 1148.32 942.083ZM1153.36 942.083C1154.5 942.083 1155.14 941.473 1155.33 940.616L1155.34 940.567L1154.58 940.572L1154.57 940.598C1154.4 941.125 1153.99 941.407 1153.36 941.407C1152.51 941.407 1151.97 940.708 1151.97 939.618V939.609C1151.97 938.542 1152.5 937.856 1153.36 937.856C1154.04 937.856 1154.46 938.234 1154.58 938.7L1154.58 938.713H1155.34L1155.34 938.687C1155.2 937.843 1154.51 937.179 1153.36 937.179C1152.03 937.179 1151.18 938.137 1151.18 939.609V939.618C1151.18 941.121 1152.03 942.083 1153.36 942.083ZM1158.4 942.083C1159.75 942.083 1160.59 941.152 1160.59 939.636V939.627C1160.59 938.106 1159.75 937.179 1158.4 937.179C1157.06 937.179 1156.22 938.106 1156.22 939.627V939.636C1156.22 941.152 1157.06 942.083 1158.4 942.083ZM1158.4 941.407C1157.51 941.407 1157 940.752 1157 939.636V939.627C1157 938.506 1157.51 937.856 1158.4 937.856C1159.3 937.856 1159.81 938.506 1159.81 939.627V939.636C1159.81 940.752 1159.3 941.407 1158.4 941.407ZM1163.36 942.083C1164.06 942.083 1164.54 941.798 1164.77 941.292H1164.84V942H1165.6V937.263H1164.84V940.066C1164.84 940.897 1164.39 941.407 1163.56 941.407C1162.8 941.407 1162.5 940.998 1162.5 940.146V937.263H1161.73V940.33C1161.73 941.451 1162.29 942.083 1163.36 942.083ZM1167.03 942H1167.8V939.196C1167.8 938.366 1168.27 937.856 1169.03 937.856C1169.79 937.856 1170.14 938.265 1170.14 939.117V942H1170.9V938.933C1170.9 937.808 1170.31 937.179 1169.25 937.179C1168.55 937.179 1168.1 937.474 1167.87 937.975H1167.8V937.263H1167.03V942ZM1173.97 942.035C1174.12 942.035 1174.26 942.018 1174.41 941.991V941.341C1174.27 941.354 1174.2 941.358 1174.06 941.358C1173.57 941.358 1173.38 941.134 1173.38 940.576V937.896H1174.41V937.263H1173.38V936.037H1172.59V937.263H1171.84V937.896H1172.59V940.77C1172.59 941.675 1172.99 942.035 1173.97 942.035Z" fill="#7958FF"/>
<circle cx="804" cy="644" r="8" fill="#FF897A"/>
<circle cx="832" cy="644" r="8" fill="#F4E560"/>
<circle cx="860" cy="644" r="8" fill="#83DA85"/>
<path d="M797.237 728H801.291C803.396 728 804.661 726.947 804.661 725.218V725.204C804.661 723.919 803.772 722.976 802.439 722.832V722.716C803.41 722.552 804.169 721.629 804.169 720.604V720.59C804.169 719.079 803.055 718.136 801.202 718.136H797.237V728ZM800.847 719.387C801.981 719.387 802.645 719.927 802.645 720.856V720.87C802.645 721.827 801.94 722.333 800.587 722.333H798.769V719.387H800.847ZM800.895 723.502C802.337 723.502 803.096 724.049 803.096 725.108V725.122C803.096 726.182 802.364 726.749 800.983 726.749H798.769V723.502H800.895ZM806.459 728H807.942V723.563C807.942 722.49 808.715 721.793 809.85 721.793C810.13 721.793 810.383 721.827 810.649 721.882V720.515C810.499 720.48 810.239 720.446 810 720.446C809.009 720.446 808.318 720.911 808.052 721.697H807.942V720.576H806.459V728ZM814.047 728.123C815.031 728.123 815.811 727.699 816.248 726.947H816.364V728H817.834V722.921C817.834 721.362 816.781 720.433 814.915 720.433C813.227 720.433 812.058 721.246 811.88 722.463L811.873 722.511H813.302L813.309 722.483C813.486 721.957 814.026 721.656 814.847 721.656C815.852 721.656 816.364 722.107 816.364 722.921V723.577L814.354 723.693C812.584 723.803 811.586 724.575 811.586 725.901V725.915C811.586 727.262 812.632 728.123 814.047 728.123ZM813.062 725.854V725.84C813.062 725.17 813.527 724.801 814.553 724.739L816.364 724.623V725.259C816.364 726.216 815.551 726.94 814.443 726.94C813.644 726.94 813.062 726.537 813.062 725.854ZM819.926 728H821.409V723.646C821.409 722.449 822.086 721.704 823.173 721.704C824.26 721.704 824.772 722.312 824.772 723.543V728H826.249V723.194C826.249 721.424 825.333 720.433 823.672 720.433C822.592 720.433 821.881 720.911 821.519 721.704H821.409V720.576H819.926V728ZM831.027 728.123C832.066 728.123 832.88 727.645 833.311 726.831H833.427V728H834.903V717.664H833.427V721.752H833.311C832.914 720.952 832.046 720.446 831.027 720.446C829.141 720.446 827.951 721.93 827.951 724.281V724.295C827.951 726.626 829.161 728.123 831.027 728.123ZM831.451 726.858C830.207 726.858 829.462 725.888 829.462 724.295V724.281C829.462 722.688 830.207 721.718 831.451 721.718C832.682 721.718 833.447 722.695 833.447 724.281V724.295C833.447 725.881 832.688 726.858 831.451 726.858ZM844.063 728.144C845.902 728.144 846.962 727.152 847.229 725.71L847.242 725.648H845.82L845.807 725.683C845.567 726.482 844.993 726.906 844.063 726.906C842.84 726.906 842.081 725.908 842.081 724.268V724.254C842.081 722.654 842.826 721.67 844.063 721.67C845.048 721.67 845.649 722.217 845.813 722.948L845.82 722.969L847.242 722.962V722.928C847.037 721.485 845.923 720.433 844.057 720.433C841.89 720.433 840.57 721.902 840.57 724.254V724.268C840.57 726.667 841.896 728.144 844.063 728.144ZM852.068 728.144C854.242 728.144 855.575 726.688 855.575 724.295V724.281C855.575 721.889 854.235 720.433 852.068 720.433C849.895 720.433 848.555 721.896 848.555 724.281V724.295C848.555 726.688 849.888 728.144 852.068 728.144ZM852.068 726.906C850.79 726.906 850.072 725.942 850.072 724.295V724.281C850.072 722.634 850.79 721.67 852.068 721.67C853.34 721.67 854.064 722.634 854.064 724.281V724.295C854.064 725.936 853.34 726.906 852.068 726.906ZM857.414 728H858.897V717.664H857.414V728ZM864.25 728.144C866.424 728.144 867.757 726.688 867.757 724.295V724.281C867.757 721.889 866.417 720.433 864.25 720.433C862.076 720.433 860.736 721.896 860.736 724.281V724.295C860.736 726.688 862.069 728.144 864.25 728.144ZM864.25 726.906C862.972 726.906 862.254 725.942 862.254 724.295V724.281C862.254 722.634 862.972 721.67 864.25 721.67C865.521 721.67 866.246 722.634 866.246 724.281V724.295C866.246 725.936 865.521 726.906 864.25 726.906ZM869.527 728H871.011V723.563C871.011 722.49 871.783 721.793 872.918 721.793C873.198 721.793 873.451 721.827 873.718 721.882V720.515C873.567 720.48 873.308 720.446 873.068 720.446C872.077 720.446 871.387 720.911 871.12 721.697H871.011V720.576H869.527V728Z" fill="#191C1D"/>
<rect x="796.5" y="736.5" width="243" height="37" rx="5.5" fill="white"/>
<rect x="804" y="743" width="24" height="24" rx="4" fill="#7958FF"/>
<rect x="796.5" y="736.5" width="243" height="37" rx="5.5" stroke="#E6DEFF"/>
<rect x="843" y="746" width="68" height="12" rx="4" fill="#F7F8F8"/>
<rect x="843" y="746" width="68" height="12" rx="4" fill="#78767F" fill-opacity="0.02"/>
<rect x="843" y="746" width="68" height="12" rx="4" fill="#5D34F2" fill-opacity="0.16"/>
<path d="M797.237 801H803.499V799.681H798.769V796.611H803.246V795.34H798.769V792.455H803.499V791.136H797.237V801ZM805.543 801H807.026V796.646C807.026 795.449 807.703 794.704 808.79 794.704C809.877 794.704 810.39 795.312 810.39 796.543V801H811.866V796.194C811.866 794.424 810.95 793.433 809.289 793.433C808.209 793.433 807.498 793.911 807.136 794.704H807.026V793.576H805.543V801ZM815.975 801.123C816.959 801.123 817.738 800.699 818.176 799.947H818.292V801H819.762V795.921C819.762 794.362 818.709 793.433 816.843 793.433C815.154 793.433 813.985 794.246 813.808 795.463L813.801 795.511H815.229L815.236 795.483C815.414 794.957 815.954 794.656 816.774 794.656C817.779 794.656 818.292 795.107 818.292 795.921V796.577L816.282 796.693C814.512 796.803 813.514 797.575 813.514 798.901V798.915C813.514 800.262 814.56 801.123 815.975 801.123ZM814.99 798.854V798.84C814.99 798.17 815.455 797.801 816.48 797.739L818.292 797.623V798.259C818.292 799.216 817.479 799.94 816.371 799.94C815.571 799.94 814.99 799.537 814.99 798.854ZM825.798 801.123C827.671 801.123 828.874 799.626 828.874 797.295V797.281C828.874 794.93 827.685 793.446 825.798 793.446C824.779 793.446 823.911 793.952 823.515 794.752H823.405V790.664H821.922V801H823.405V799.831H823.515C823.945 800.645 824.759 801.123 825.798 801.123ZM825.381 799.858C824.144 799.858 823.378 798.881 823.378 797.295V797.281C823.378 795.695 824.144 794.718 825.381 794.718C826.618 794.718 827.363 795.688 827.363 797.281V797.295C827.363 798.888 826.618 799.858 825.381 799.858ZM830.713 801H832.196V790.664H830.713V801ZM837.521 801.144C839.422 801.144 840.447 800.05 840.693 799.072L840.707 799.011L839.278 799.018L839.251 799.072C839.073 799.455 838.506 799.927 837.556 799.927C836.332 799.927 835.553 799.1 835.525 797.678H840.789V797.158C840.789 794.93 839.518 793.433 837.446 793.433C835.375 793.433 834.035 794.984 834.035 797.302V797.309C834.035 799.66 835.348 801.144 837.521 801.144ZM837.453 794.649C838.458 794.649 839.203 795.292 839.319 796.618H835.546C835.676 795.34 836.441 794.649 837.453 794.649ZM846.552 801H850.113C853.053 801 854.755 799.182 854.755 796.051V796.037C854.755 792.94 853.039 791.136 850.113 791.136H846.552V801ZM848.083 799.681V792.455H849.942C851.986 792.455 853.196 793.788 853.196 796.058V796.071C853.196 798.361 852.007 799.681 849.942 799.681H848.083ZM858.672 801.123C859.656 801.123 860.436 800.699 860.873 799.947H860.989V801H862.459V795.921C862.459 794.362 861.406 793.433 859.54 793.433C857.852 793.433 856.683 794.246 856.505 795.463L856.498 795.511H857.927L857.934 795.483C858.111 794.957 858.651 794.656 859.472 794.656C860.477 794.656 860.989 795.107 860.989 795.921V796.577L858.979 796.693C857.209 796.803 856.211 797.575 856.211 798.901V798.915C856.211 800.262 857.257 801.123 858.672 801.123ZM857.688 798.854V798.84C857.688 798.17 858.152 797.801 859.178 797.739L860.989 797.623V798.259C860.989 799.216 860.176 799.94 859.068 799.94C858.269 799.94 857.688 799.537 857.688 798.854ZM864.551 801H866.034V796.563C866.034 795.49 866.807 794.793 867.941 794.793C868.222 794.793 868.475 794.827 868.741 794.882V793.515C868.591 793.48 868.331 793.446 868.092 793.446C867.101 793.446 866.41 793.911 866.144 794.697H866.034V793.576H864.551V801ZM870.225 801H871.708V798.3L872.344 797.664L874.9 801H876.705L873.403 796.707L876.5 793.576H874.764L871.817 796.707H871.708V790.664H870.225V801ZM882.058 801H883.452V793.761H883.562L886.453 801H887.588L890.486 793.761H890.589V801H891.983V791.136H890.22L887.075 799.004H886.966L883.821 791.136H882.058V801ZM897.432 801.144C899.605 801.144 900.938 799.688 900.938 797.295V797.281C900.938 794.889 899.599 793.433 897.432 793.433C895.258 793.433 893.918 794.896 893.918 797.281V797.295C893.918 799.688 895.251 801.144 897.432 801.144ZM897.432 799.906C896.153 799.906 895.436 798.942 895.436 797.295V797.281C895.436 795.634 896.153 794.67 897.432 794.67C898.703 794.67 899.428 795.634 899.428 797.281V797.295C899.428 798.936 898.703 799.906 897.432 799.906ZM905.416 801.123C906.455 801.123 907.269 800.645 907.699 799.831H907.815V801H909.292V790.664H907.815V794.752H907.699C907.303 793.952 906.435 793.446 905.416 793.446C903.529 793.446 902.34 794.93 902.34 797.281V797.295C902.34 799.626 903.55 801.123 905.416 801.123ZM905.84 799.858C904.596 799.858 903.851 798.888 903.851 797.295V797.281C903.851 795.688 904.596 794.718 905.84 794.718C907.07 794.718 907.836 795.695 907.836 797.281V797.295C907.836 798.881 907.077 799.858 905.84 799.858ZM914.617 801.144C916.518 801.144 917.543 800.05 917.789 799.072L917.803 799.011L916.374 799.018L916.347 799.072C916.169 799.455 915.602 799.927 914.651 799.927C913.428 799.927 912.648 799.1 912.621 797.678H917.885V797.158C917.885 794.93 916.613 793.433 914.542 793.433C912.471 793.433 911.131 794.984 911.131 797.302V797.309C911.131 799.66 912.443 801.144 914.617 801.144ZM914.549 794.649C915.554 794.649 916.299 795.292 916.415 796.618H912.642C912.771 795.34 913.537 794.649 914.549 794.649Z" fill="#191C1D"/>
<rect x="813" y="830" width="161" height="16" rx="4" fill="#F7F8F8"/>
<rect x="813" y="830" width="161" height="16" rx="4" fill="#78767F" fill-opacity="0.02"/>
<rect x="813" y="830" width="161" height="16" rx="4" fill="#5D34F2" fill-opacity="0.16"/>
<g clip-path="url(#clip1_6227_219030)">
<rect x="982" y="826" width="39.5098" height="24" rx="12" fill="#E0E3E3"/>
<g filter="url(#filter6_d_6227_219030)">
<rect x="983.95" y="828" width="19.5" height="20" rx="9.75" fill="white"/>
</g>
</g>
<rect x="797.5" y="810.5" width="241" height="55" rx="7.5" stroke="#E6DEFF"/>
<rect x="460" y="888" width="96" height="96" rx="19.2" fill="#CABEFF"/>
<path d="M508 904H512.8C517.218 904 520.8 907.582 520.8 912V912C520.8 916.418 517.218 920 512.8 920H508V904Z" fill="#FFD5FF"/>
<path fill-rule="evenodd" clip-rule="evenodd" d="M479.2 888C468.596 888 460 896.596 460 907.2V936H476V931.2C476 926.782 479.582 923.2 484 923.2C488.418 923.2 492 926.782 492 931.2V936H508V888H479.2Z" fill="#FFD5FF"/>
<path fill-rule="evenodd" clip-rule="evenodd" d="M508.001 936H524.001V940.8C524.001 945.218 527.583 948.8 532.001 948.8C536.419 948.8 540.001 945.218 540.001 940.8V936H556.001V964.8C556.001 975.404 547.405 984 536.801 984H508.001V968H503.201C498.783 968 495.201 964.418 495.201 960C495.201 955.582 498.783 952 503.201 952H508.001V936Z" fill="#947DFF"/>
<path d="M874 134H810C792.327 134 778 148.327 778 166V183V212V222.5V230C778 247.673 792.327 262 810 262H832H844.5H854.75H865H874C891.673 262 906 247.673 906 230V225.104V221.104V176V166C906 148.327 891.673 134 874 134Z" stroke="#C0BFDB" stroke-linecap="round"/>
<path fill-rule="evenodd" clip-rule="evenodd" d="M865.04 198.546C865.04 196.844 864.887 195.208 864.604 193.637H842V202.92H854.916C854.36 205.92 852.669 208.462 850.127 210.164V216.186H857.884C862.422 212.008 865.04 205.855 865.04 198.546V198.546Z" fill="#4285F4"/>
<path fill-rule="evenodd" clip-rule="evenodd" d="M842 222C848.48 222 853.913 219.851 857.884 216.186L850.127 210.164C847.978 211.604 845.229 212.455 842 212.455C835.749 212.455 830.458 208.233 828.571 202.56H820.553V208.778C824.502 216.622 832.618 222 842 222V222Z" fill="#34A853"/>
<path fill-rule="evenodd" clip-rule="evenodd" d="M828.571 202.559C828.091 201.119 827.818 199.581 827.818 197.999C827.818 196.418 828.091 194.879 828.571 193.439V187.221H820.553C818.927 190.461 818 194.127 818 197.999C818 201.872 818.927 205.538 820.553 208.778L828.571 202.559V202.559Z" fill="#FBBC05"/>
<path fill-rule="evenodd" clip-rule="evenodd" d="M842 183.545C845.524 183.545 848.687 184.756 851.175 187.135L858.058 180.251C853.902 176.378 848.469 174 842 174C832.618 174 824.502 179.378 820.553 187.222L828.571 193.44C830.458 187.767 835.749 183.545 842 183.545V183.545Z" fill="#EA4335"/>
<g filter="url(#filter7_b_6227_219030)">
<rect x="1018" y="337" width="128" height="128" rx="32" fill="#F3EFFA" fill-opacity="0.64"/>
</g>
<path fill-rule="evenodd" clip-rule="evenodd" d="M1093.23 393.168C1092.96 393.153 1092.69 393.15 1092.42 393.15C1082.84 393.15 1075.07 399.663 1075.07 407.701C1075.07 409.017 1075.28 410.291 1075.67 411.503C1075.25 411.525 1074.82 411.542 1074.39 411.542C1072.28 411.542 1070.25 411.257 1068.36 410.73C1068.25 410.698 1068.04 410.636 1068.04 410.636L1061.15 414.145L1062.99 408.378C1062.99 408.378 1062.87 408.304 1062.81 408.267C1058.27 405.355 1055.33 400.767 1055.33 395.605C1055.33 386.803 1063.86 379.667 1074.39 379.667C1083.92 379.667 1091.82 385.519 1093.23 393.168ZM1067.76 392.708C1066.28 392.708 1065.08 391.546 1065.08 390.116C1065.08 388.684 1066.28 387.526 1067.76 387.526C1069.24 387.526 1070.44 388.684 1070.44 390.116C1070.44 391.546 1069.24 392.708 1067.76 392.708ZM1081.02 387.526C1082.5 387.526 1083.7 388.684 1083.7 390.116C1083.7 391.546 1082.5 392.708 1081.02 392.708C1079.54 392.708 1078.35 391.546 1078.35 390.116C1078.35 388.684 1079.54 387.526 1081.02 387.526Z" fill="#58C457"/>
<path fill-rule="evenodd" clip-rule="evenodd" d="M1092.57 421.263C1083.68 421.263 1076.47 415.234 1076.47 407.796C1076.47 400.362 1083.68 394.333 1092.57 394.333C1101.46 394.333 1108.67 400.362 1108.67 407.796C1108.67 412.159 1106.19 416.034 1102.35 418.494L1102.2 418.586L1103.75 423.461L1097.94 420.494C1097.94 420.494 1097.75 420.549 1097.66 420.573C1096.06 421.02 1094.35 421.263 1092.57 421.263ZM1084.71 403.157C1084.71 401.951 1085.72 400.971 1086.97 400.971C1088.22 400.971 1089.23 401.951 1089.23 403.157C1089.23 404.369 1088.22 405.351 1086.97 405.351C1085.72 405.351 1084.71 404.369 1084.71 403.157ZM1095.91 403.157C1095.91 401.951 1096.92 400.971 1098.17 400.971C1099.42 400.971 1100.43 401.951 1100.43 403.157C1100.43 404.369 1099.42 405.351 1098.17 405.351C1096.92 405.351 1095.91 404.369 1095.91 403.157Z" fill="#58C457"/>
<rect x="632" y="565" width="88" height="88" rx="24" fill="#F3EFFA"/>
<path d="M673.971 585C673.164 585 672.467 585.562 672.296 586.35L671.288 590.983C671.155 591.599 670.692 592.085 670.098 592.294C669.502 592.504 668.921 592.744 668.356 593.014C667.787 593.286 667.116 593.27 666.586 592.929L662.609 590.372C661.93 589.936 661.04 590.032 660.469 590.602L657.602 593.469C657.032 594.04 656.936 594.93 657.372 595.609L659.929 599.586C660.27 600.116 660.286 600.787 660.014 601.356C659.744 601.921 659.504 602.502 659.294 603.098C659.085 603.692 658.599 604.155 657.983 604.288L653.35 605.296C652.562 605.467 652 606.164 652 606.971V611.029C652 611.836 652.562 612.533 653.35 612.704L657.983 613.712C658.599 613.845 659.085 614.308 659.294 614.902C659.504 615.498 659.744 616.079 660.014 616.644C660.286 617.213 660.27 617.884 659.929 618.414L657.372 622.391C656.936 623.07 657.032 623.96 657.602 624.531L660.469 627.398C661.04 627.968 661.93 628.064 662.609 627.628L666.586 625.071C667.116 624.73 667.787 624.714 668.356 624.986C668.921 625.256 669.502 625.496 670.098 625.706C670.692 625.915 671.155 626.401 671.288 627.017L672.296 631.65C672.467 632.438 673.164 633 673.971 633H678.029C678.836 633 679.533 632.438 679.704 631.65L680.712 627.017C680.845 626.401 681.308 625.915 681.902 625.706C682.498 625.496 683.079 625.256 683.644 624.986C684.213 624.714 684.884 624.73 685.414 625.071L689.391 627.628C690.07 628.064 690.96 627.968 691.531 627.398L694.398 624.531C694.968 623.96 695.064 623.07 694.628 622.391L692.071 618.414C691.73 617.884 691.714 617.213 691.986 616.644C692.256 616.079 692.496 615.498 692.706 614.902C692.915 614.308 693.401 613.845 694.017 613.712L698.65 612.704C699.438 612.533 700 611.836 700 611.029V606.971C700 606.164 699.438 605.467 698.65 605.296L694.017 604.288C693.401 604.155 692.915 603.692 692.706 603.098C692.496 602.502 692.256 601.921 691.986 601.356C691.714 600.787 691.73 600.116 692.071 599.586L694.628 595.609C695.064 594.93 694.968 594.04 694.398 593.469L691.531 590.602C690.96 590.032 690.07 589.936 689.391 590.372L685.414 592.929C684.884 593.27 684.213 593.286 683.644 593.014C683.079 592.744 682.498 592.504 681.902 592.294C681.308 592.085 680.845 591.599 680.712 590.983L679.704 586.35C679.533 585.562 678.836 585 678.029 585H673.971ZM676 598.714C681.681 598.714 686.286 603.319 686.286 609C686.286 614.681 681.681 619.286 676 619.286C670.319 619.286 665.714 614.681 665.714 609C665.714 603.319 670.319 598.714 676 598.714Z" fill="#AF9EFF"/>
<path d="M985 549.474C972.564 549.474 966.673 538.021 966.673 528C966.673 538.021 961.436 549.474 949 549.474C961.436 549.474 966.673 556.536 966.673 573.333C966.673 556.536 972.564 549.474 985 549.474Z" fill="#FFFBFF"/>
<path d="M1231 446.075C1222.71 446.075 1218.78 438.568 1218.78 432C1218.78 438.568 1215.29 446.075 1207 446.075C1215.29 446.075 1218.78 450.704 1218.78 461.714C1218.78 450.704 1222.71 446.075 1231 446.075Z" fill="#AF9EFF"/>
<g style="mix-blend-mode:multiply">
<path d="M679 924C648.2 924.4 634.833 964.167 632 984H900C888 973.167 858.9 954.6 838.5 967C813 982.5 815.5 961 781.5 945.5C747.5 930 746 961 731.5 961C717 961 717.5 923.5 679 924Z" fill="#E6DEFF"/>
</g>
</g>
<defs>
<filter id="filter0_b_6227_219030" x="816.5" y="408.5" width="425" height="425" filterUnits="userSpaceOnUse" color-interpolation-filters="sRGB">
<feFlood flood-opacity="0" result="BackgroundImageFix"/>
<feGaussianBlur in="BackgroundImage" stdDeviation="6"/>
<feComposite in2="SourceAlpha" operator="in" result="effect1_backgroundBlur_6227_219030"/>
<feBlend mode="normal" in="SourceGraphic" in2="effect1_backgroundBlur_6227_219030" result="shape"/>
</filter>
<filter id="filter1_d_6227_219030" x="699.125" y="763.5" width="3.25" height="3.25" filterUnits="userSpaceOnUse" color-interpolation-filters="sRGB">
<feFlood flood-opacity="0" result="BackgroundImageFix"/>
<feColorMatrix in="SourceAlpha" type="matrix" values="0 0 0 0 0 0 0 0 0 0 0 0 0 0 0 0 0 0 127 0" result="hardAlpha"/>
<feOffset dy="0.125"/>
<feGaussianBlur stdDeviation="0.0625"/>
<feComposite in2="hardAlpha" operator="out"/>
<feColorMatrix type="matrix" values="0 0 0 0 0.104304 0 0 0 0 0.0825 0 0 0 0 0.2 0 0 0 0.02 0"/>
<feBlend mode="normal" in2="BackgroundImageFix" result="effect1_dropShadow_6227_219030"/>
<feBlend mode="normal" in="SourceGraphic" in2="effect1_dropShadow_6227_219030" result="shape"/>
</filter>
<filter id="filter2_d_6227_219030" x="699.5" y="764.375" width="2.25" height="4.875" filterUnits="userSpaceOnUse" color-interpolation-filters="sRGB">
<feFlood flood-opacity="0" result="BackgroundImageFix"/>
<feColorMatrix in="SourceAlpha" type="matrix" values="0 0 0 0 0 0 0 0 0 0 0 0 0 0 0 0 0 0 127 0" result="hardAlpha"/>
<feOffset dx="-0.125" dy="0.5"/>
<feGaussianBlur stdDeviation="0.1875"/>
<feComposite in2="hardAlpha" operator="out"/>
<feColorMatrix type="matrix" values="0 0 0 0 0.104304 0 0 0 0 0.0825 0 0 0 0 0.2 0 0 0 0.08 0"/>
<feBlend mode="normal" in2="BackgroundImageFix" result="effect1_dropShadow_6227_219030"/>
<feBlend mode="normal" in="SourceGraphic" in2="effect1_dropShadow_6227_219030" result="shape"/>
</filter>
<filter id="filter3_b_6227_219030" x="1138" y="488" width="272" height="512" filterUnits="userSpaceOnUse" color-interpolation-filters="sRGB">
<feFlood flood-opacity="0" result="BackgroundImageFix"/>
<feGaussianBlur in="BackgroundImage" stdDeviation="8"/>
<feComposite in2="SourceAlpha" operator="in" result="effect1_backgroundBlur_6227_219030"/>
<feBlend mode="normal" in="SourceGraphic" in2="effect1_backgroundBlur_6227_219030" result="shape"/>
</filter>
<filter id="filter4_d_6227_219030" x="1274.16" y="583.125" width="4.0625" height="4.0625" filterUnits="userSpaceOnUse" color-interpolation-filters="sRGB">
<feFlood flood-opacity="0" result="BackgroundImageFix"/>
<feColorMatrix in="SourceAlpha" type="matrix" values="0 0 0 0 0 0 0 0 0 0 0 0 0 0 0 0 0 0 127 0" result="hardAlpha"/>
<feOffset dy="0.15625"/>
<feGaussianBlur stdDeviation="0.078125"/>
<feComposite in2="hardAlpha" operator="out"/>
<feColorMatrix type="matrix" values="0 0 0 0 0.104304 0 0 0 0 0.0825 0 0 0 0 0.2 0 0 0 0.02 0"/>
<feBlend mode="normal" in2="BackgroundImageFix" result="effect1_dropShadow_6227_219030"/>
<feBlend mode="normal" in="SourceGraphic" in2="effect1_dropShadow_6227_219030" result="shape"/>
</filter>
<filter id="filter5_d_6227_219030" x="1274.62" y="584.219" width="2.8125" height="6.09375" filterUnits="userSpaceOnUse" color-interpolation-filters="sRGB">
<feFlood flood-opacity="0" result="BackgroundImageFix"/>
<feColorMatrix in="SourceAlpha" type="matrix" values="0 0 0 0 0 0 0 0 0 0 0 0 0 0 0 0 0 0 127 0" result="hardAlpha"/>
<feOffset dx="-0.15625" dy="0.625"/>
<feGaussianBlur stdDeviation="0.234375"/>
<feComposite in2="hardAlpha" operator="out"/>
<feColorMatrix type="matrix" values="0 0 0 0 0.104304 0 0 0 0 0.0825 0 0 0 0 0.2 0 0 0 0.08 0"/>
<feBlend mode="normal" in2="BackgroundImageFix" result="effect1_dropShadow_6227_219030"/>
<feBlend mode="normal" in="SourceGraphic" in2="effect1_dropShadow_6227_219030" result="shape"/>
</filter>
<filter id="filter6_d_6227_219030" x="976.95" y="824" width="33.5" height="34" filterUnits="userSpaceOnUse" color-interpolation-filters="sRGB">
<feFlood flood-opacity="0" result="BackgroundImageFix"/>
<feColorMatrix in="SourceAlpha" type="matrix" values="0 0 0 0 0 0 0 0 0 0 0 0 0 0 0 0 0 0 127 0" result="hardAlpha"/>
<feOffset dy="3"/>
<feGaussianBlur stdDeviation="3.5"/>
<feColorMatrix type="matrix" values="0 0 0 0 0 0 0 0 0 0 0 0 0 0 0 0 0 0 0.12 0"/>
<feBlend mode="normal" in2="BackgroundImageFix" result="effect1_dropShadow_6227_219030"/>
<feBlend mode="normal" in="SourceGraphic" in2="effect1_dropShadow_6227_219030" result="shape"/>
</filter>
<filter id="filter7_b_6227_219030" x="1014" y="333" width="136" height="136" filterUnits="userSpaceOnUse" color-interpolation-filters="sRGB">
<feFlood flood-opacity="0" result="BackgroundImageFix"/>
<feGaussianBlur in="BackgroundImage" stdDeviation="2"/>
<feComposite in2="SourceAlpha" operator="in" result="effect1_backgroundBlur_6227_219030"/>
<feBlend mode="normal" in="SourceGraphic" in2="effect1_backgroundBlur_6227_219030" result="shape"/>
</filter>
<linearGradient id="paint0_linear_6227_219030" x1="1424.5" y1="847" x2="147.5" y2="956" gradientUnits="userSpaceOnUse">
<stop offset="0.0104167" stop-color="#DED6EA"/>
<stop offset="0.677083" stop-color="#D4C8E6" stop-opacity="0.590737"/>
<stop offset="1" stop-color="#E3DDEB" stop-opacity="0"/>
</linearGradient>
<linearGradient id="paint1_linear_6227_219030" x1="1083" y1="403.5" x2="931.5" y2="694" gradientUnits="userSpaceOnUse">
<stop stop-color="#CFBCEF"/>
<stop offset="1" stop-color="#F5EEFF" stop-opacity="0"/>
</linearGradient>
<linearGradient id="paint2_linear_6227_219030" x1="687.813" y1="765.875" x2="711.078" y2="758.432" gradientUnits="userSpaceOnUse">
<stop stop-color="#FFF06A"/>
<stop offset="1" stop-color="#EC78FF"/>
</linearGradient>
<linearGradient id="paint3_linear_6227_219030" x1="685.813" y1="767.188" x2="706.125" y2="762.813" gradientUnits="userSpaceOnUse">
<stop stop-color="#492EF3"/>
<stop offset="1" stop-color="#CF69FF"/>
</linearGradient>
<linearGradient id="paint4_linear_6227_219030" x1="700.75" y1="763.5" x2="700.125" y2="766.5" gradientUnits="userSpaceOnUse">
<stop stop-color="#E1BFFF"/>
<stop offset="1" stop-color="#AF68EE"/>
</linearGradient>
<linearGradient id="paint5_linear_6227_219030" x1="700.75" y1="764.375" x2="698.978" y2="767.564" gradientUnits="userSpaceOnUse">
<stop stop-color="#F8F2FF"/>
<stop offset="1" stop-color="#D185F5"/>
</linearGradient>
<linearGradient id="paint6_linear_6227_219030" x1="1376.5" y1="619" x2="1216" y2="984" gradientUnits="userSpaceOnUse">
<stop stop-color="#947DFF" stop-opacity="0"/>
<stop offset="1" stop-color="#B491FE"/>
</linearGradient>
<linearGradient id="paint7_linear_6227_219030" x1="1260.02" y1="586.094" x2="1289.1" y2="576.79" gradientUnits="userSpaceOnUse">
<stop stop-color="#FFF06A"/>
<stop offset="1" stop-color="#EC78FF"/>
</linearGradient>
<linearGradient id="paint8_linear_6227_219030" x1="1257.52" y1="587.734" x2="1282.91" y2="582.266" gradientUnits="userSpaceOnUse">
<stop stop-color="#492EF3"/>
<stop offset="1" stop-color="#CF69FF"/>
</linearGradient>
<linearGradient id="paint9_linear_6227_219030" x1="1276.19" y1="583.125" x2="1275.41" y2="586.875" gradientUnits="userSpaceOnUse">
<stop stop-color="#E1BFFF"/>
<stop offset="1" stop-color="#AF68EE"/>
</linearGradient>
<linearGradient id="paint10_linear_6227_219030" x1="1276.19" y1="584.219" x2="1273.97" y2="588.205" gradientUnits="userSpaceOnUse">
<stop stop-color="#F8F2FF"/>
<stop offset="1" stop-color="#D185F5"/>
</linearGradient>
<clipPath id="clip0_6227_219030">
<rect width="1440" height="984" fill="white"/>
</clipPath>
<clipPath id="clip1_6227_219030">
<path d="M982 838C982 831.373 987.373 826 994 826H1009C1015.63 826 1021 831.373 1021 838V838C1021 844.627 1015.63 850 1009 850H994C987.373 850 982 844.627 982 838V838Z" fill="white"/>
</clipPath>
</defs>
</svg>
