<svg width="1440" height="850" viewBox="0 0 1440 850" fill="none" xmlns="http://www.w3.org/2000/svg">
<path d="M874 0.895996H810C792.327 0.895996 778 15.2229 778 32.896V49.896V78.896V89.396V96.896C778 114.569 792.327 128.896 810 128.896H832H844.5H854.75H865H874C891.673 128.896 906 114.569 906 96.896V92V88V42.896V32.896C906 15.2229 891.673 0.895996 874 0.895996Z" stroke="#191C1D" stroke-linecap="round"/>
<path d="M874 0.895996H810C792.327 0.895996 778 15.2229 778 32.896V49.896V78.896V89.396V96.896C778 114.569 792.327 128.896 810 128.896H832H844.5H854.75H865H874C891.673 128.896 906 114.569 906 96.896V92V88V42.896V32.896C906 15.2229 891.673 0.895996 874 0.895996Z" stroke="#C4C7C7" stroke-opacity="0.02" stroke-linecap="round"/>
<path d="M874 0.895996H810C792.327 0.895996 778 15.2229 778 32.896V49.896V78.896V89.396V96.896C778 114.569 792.327 128.896 810 128.896H832H844.5H854.75H865H874C891.673 128.896 906 114.569 906 96.896V92V88V42.896V32.896C906 15.2229 891.673 0.895996 874 0.895996Z" stroke="#CABEFF" stroke-opacity="0.16" stroke-linecap="round"/>
<path fill-rule="evenodd" clip-rule="evenodd" d="M865.04 65.4418C865.04 63.74 864.887 62.1036 864.604 60.5327H842V69.8164H854.916C854.36 72.8164 852.669 75.3582 850.127 77.06V83.0818H857.884C862.422 78.9036 865.04 72.7509 865.04 65.4418V65.4418Z" fill="#4285F4"/>
<path fill-rule="evenodd" clip-rule="evenodd" d="M842 88.8961C848.48 88.8961 853.913 86.747 857.884 83.0815L850.127 77.0597C847.978 78.4997 845.229 79.3506 842 79.3506C835.749 79.3506 830.458 75.1288 828.571 69.4561H820.553V75.6742C824.502 83.5179 832.618 88.8961 842 88.8961V88.8961Z" fill="#34A853"/>
<path fill-rule="evenodd" clip-rule="evenodd" d="M828.571 69.4554C828.091 68.0154 827.818 66.4772 827.818 64.8954C827.818 63.3136 828.091 61.7754 828.571 60.3354V54.1172H820.553C818.927 57.3572 818 61.0226 818 64.8954C818 68.7681 818.927 72.4336 820.553 75.6736L828.571 69.4554V69.4554Z" fill="#FBBC05"/>
<path fill-rule="evenodd" clip-rule="evenodd" d="M842 50.4415C845.524 50.4415 848.687 51.6524 851.175 54.0305L858.058 47.1469C853.902 43.2742 848.469 40.896 842 40.896C832.618 40.896 824.502 46.2742 820.553 54.1178L828.571 60.336C830.458 54.6633 835.749 50.4415 842 50.4415V50.4415Z" fill="#EA4335"/>
<rect x="632" y="431.896" width="88" height="88" rx="24" fill="#191C1D"/>
<rect x="632" y="431.896" width="88" height="88" rx="24" fill="#C4C7C7" fill-opacity="0.02"/>
<rect x="632" y="431.896" width="88" height="88" rx="24" fill="#CABEFF" fill-opacity="0.16"/>
<path d="M673.971 451.896C673.164 451.896 672.467 452.458 672.296 453.246L671.288 457.879C671.155 458.495 670.692 458.981 670.098 459.19C669.502 459.4 668.921 459.64 668.356 459.91C667.787 460.182 667.116 460.166 666.586 459.825L662.609 457.268C661.93 456.832 661.04 456.928 660.469 457.498L657.602 460.365C657.032 460.936 656.936 461.826 657.372 462.505L659.929 466.482C660.27 467.012 660.286 467.683 660.014 468.252C659.744 468.817 659.504 469.398 659.294 469.994C659.085 470.588 658.599 471.051 657.983 471.184L653.35 472.192C652.562 472.363 652 473.06 652 473.867V477.925C652 478.732 652.562 479.429 653.35 479.6L657.983 480.608C658.599 480.741 659.085 481.204 659.294 481.798C659.504 482.394 659.744 482.975 660.014 483.54C660.286 484.109 660.27 484.78 659.929 485.31L657.372 489.287C656.936 489.966 657.032 490.856 657.602 491.427L660.469 494.294C661.04 494.864 661.93 494.96 662.609 494.524L666.586 491.967C667.116 491.626 667.787 491.61 668.356 491.882C668.921 492.152 669.502 492.392 670.098 492.602C670.692 492.811 671.155 493.297 671.288 493.913L672.296 498.546C672.467 499.334 673.164 499.896 673.971 499.896H678.029C678.836 499.896 679.533 499.334 679.704 498.546L680.712 493.913C680.845 493.297 681.308 492.811 681.902 492.602C682.498 492.392 683.079 492.152 683.644 491.882C684.213 491.61 684.884 491.626 685.414 491.967L689.391 494.524C690.07 494.96 690.96 494.864 691.531 494.294L694.398 491.427C694.968 490.856 695.064 489.966 694.628 489.287L692.071 485.31C691.73 484.78 691.714 484.109 691.986 483.54C692.256 482.975 692.496 482.394 692.706 481.798C692.915 481.204 693.401 480.741 694.017 480.608L698.65 479.6C699.438 479.429 700 478.732 700 477.925V473.867C700 473.06 699.438 472.363 698.65 472.192L694.017 471.184C693.401 471.051 692.915 470.588 692.706 469.994C692.496 469.398 692.256 468.817 691.986 468.252C691.714 467.683 691.73 467.012 692.071 466.482L694.628 462.505C695.064 461.826 694.968 460.936 694.398 460.365L691.531 457.498C690.96 456.928 690.07 456.832 689.391 457.268L685.414 459.825C684.884 460.166 684.213 460.182 683.644 459.91C683.079 459.64 682.498 459.4 681.902 459.19C681.308 458.981 680.845 458.495 680.712 457.879L679.704 453.246C679.533 452.458 678.836 451.896 678.029 451.896H673.971ZM676 465.61C681.681 465.61 686.286 470.215 686.286 475.896C686.286 481.577 681.681 486.182 676 486.182C670.319 486.182 665.714 481.577 665.714 475.896C665.714 470.215 670.319 465.61 676 465.61Z" fill="#AF9EFF"/>
<path d="M1177.5 435.396H1421M860 628.896H475.447C461.272 628.896 448.199 636.542 441.25 648.896V648.896C434.301 661.25 421.228 668.896 407.053 668.896H303.996C290.33 668.896 277.645 675.996 270.5 687.646V687.646C263.355 699.296 250.67 706.396 237.004 706.396H90.9966C22.5281 706.396 -38.3521 749.962 -60.4451 814.768L-76 860.396" stroke="#191C1D" stroke-linecap="round"/>
<path d="M1177.5 435.396H1421M860 628.896H475.447C461.272 628.896 448.199 636.542 441.25 648.896V648.896C434.301 661.25 421.228 668.896 407.053 668.896H303.996C290.33 668.896 277.645 675.996 270.5 687.646V687.646C263.355 699.296 250.67 706.396 237.004 706.396H90.9966C22.5281 706.396 -38.3521 749.962 -60.4451 814.768L-76 860.396" stroke="#C4C7C7" stroke-opacity="0.02" stroke-linecap="round"/>
<path d="M1177.5 435.396H1421M860 628.896H475.447C461.272 628.896 448.199 636.542 441.25 648.896V648.896C434.301 661.25 421.228 668.896 407.053 668.896H303.996C290.33 668.896 277.645 675.996 270.5 687.646V687.646C263.355 699.296 250.67 706.396 237.004 706.396H90.9966C22.5281 706.396 -38.3521 749.962 -60.4451 814.768L-76 860.396" stroke="#CABEFF" stroke-opacity="0.16" stroke-linecap="round"/>
<path d="M1454.81 402.896H1685V850.396H163L217.97 782.351C248.346 744.749 294.093 722.896 342.431 722.896H565.45C600.201 722.896 634.007 711.575 661.75 690.646C689.493 669.717 723.299 658.396 758.05 658.396H933.394C977.132 658.396 1018.24 637.492 1044 602.146C1069.76 566.8 1110.87 545.896 1154.61 545.896H1202.69C1254.36 545.896 1302.23 518.744 1328.75 474.396C1355.27 430.048 1403.14 402.896 1454.81 402.896Z" fill="url(#paint0_linear_6227_219220)"/>
<g filter="url(#filter0_b_6227_219220)">
<path fill-rule="evenodd" clip-rule="evenodd" d="M1029 687.896C1139.46 687.896 1229 598.353 1229 487.896C1229 436.633 1209.71 389.874 1178 354.48C1141.38 313.611 1088.19 287.896 1029 287.896C918.543 287.896 829 377.439 829 487.896C829 598.353 918.543 687.896 1029 687.896ZM1029 587.896C1084.23 587.896 1129 543.124 1129 487.896C1129 432.668 1084.23 387.896 1029 387.896C973.772 387.896 929 432.668 929 487.896C929 543.124 973.772 587.896 1029 587.896Z" fill="url(#paint1_linear_6227_219220)" fill-opacity="0.32"/>
</g>
<rect x="519" y="580.896" width="360" height="270" rx="32" fill="#3E3A50"/>
<path d="M687.25 621.396C687.25 620.291 688.145 619.396 689.25 619.396H708.75C709.855 619.396 710.75 620.291 710.75 621.396V642.396C710.75 643.501 709.855 644.396 708.75 644.396H689.25C688.145 644.396 687.25 643.501 687.25 642.396V621.396Z" fill="url(#paint2_linear_6227_219220)"/>
<path d="M687.25 621.131C687.25 620.135 687.982 619.291 688.967 619.151L702.467 617.222C703.672 617.05 704.75 617.985 704.75 619.202V644.59C704.75 645.807 703.672 646.742 702.467 646.57L688.967 644.641C687.982 644.501 687.25 643.657 687.25 642.661V621.131Z" fill="url(#paint3_linear_6227_219220)"/>
<g filter="url(#filter1_d_6227_219220)">
<circle cx="700.75" cy="631.896" r="1.5" fill="url(#paint4_linear_6227_219220)"/>
</g>
<g filter="url(#filter2_d_6227_219220)">
<rect x="700" y="631.271" width="1.5" height="4" rx="0.75" fill="url(#paint5_linear_6227_219220)"/>
</g>
<rect x="635" y="659.896" width="128" height="8" rx="4" fill="#564E63"/>
<rect x="609.5" y="688.396" width="179" height="23" rx="3.5" fill="#706781" stroke="#897F9B"/>
<circle cx="667" cy="699.896" r="6" fill="#AA94DA"/>
<rect x="677" y="696.896" width="72" height="6" rx="2" fill="#A292BB"/>
<rect x="609.5" y="720.396" width="179" height="23" rx="3.5" fill="#706781" stroke="#897F9B"/>
<circle cx="667" cy="731.896" r="6" fill="#937BC7"/>
<rect x="677" y="728.896" width="52" height="6" rx="2" fill="#A292BB"/>
<rect x="609.5" y="752.396" width="179" height="23" rx="3.5" fill="#706781" stroke="#897F9B"/>
<circle cx="667" cy="763.896" r="6" fill="#B991CC"/>
<rect x="677" y="760.896" width="60" height="6" rx="2" fill="#A292BB"/>
<path opacity="0.02" d="M519 612.896C519 595.223 533.327 580.896 551 580.896H739L609 850.896H551C533.327 850.896 519 836.569 519 818.896V612.896Z" fill="#F8F4FF"/>
<g filter="url(#filter3_b_6227_219220)">
<rect x="1154" y="370.896" width="240" height="480" rx="32" fill="#BBB5D7"/>
</g>
<path d="M1302 451.896C1302 467.36 1289.46 479.896 1274 479.896C1258.54 479.896 1246 467.36 1246 451.896C1246 436.432 1258.54 423.896 1274 423.896C1289.46 423.896 1302 436.432 1302 451.896Z" fill="#AFA8D0"/>
<path d="M1259.31 438.771C1259.31 437.39 1260.43 436.271 1261.81 436.271H1286.19C1287.57 436.271 1288.69 437.39 1288.69 438.771V465.021C1288.69 466.402 1287.57 467.521 1286.19 467.521H1261.81C1260.43 467.521 1259.31 466.402 1259.31 465.021V438.771Z" fill="url(#paint6_linear_6227_219220)"/>
<path d="M1259.31 438.439C1259.31 437.195 1260.23 436.14 1261.46 435.964L1278.33 433.554C1279.84 433.338 1281.19 434.507 1281.19 436.029V467.763C1281.19 469.285 1279.84 470.454 1278.33 470.238L1261.46 467.828C1260.23 467.652 1259.31 466.597 1259.31 465.353V438.439Z" fill="url(#paint7_linear_6227_219220)"/>
<g filter="url(#filter4_d_6227_219220)">
<circle cx="1276.19" cy="451.896" r="1.875" fill="url(#paint8_linear_6227_219220)"/>
</g>
<g filter="url(#filter5_d_6227_219220)">
<rect x="1275.25" y="451.115" width="1.875" height="5" rx="0.9375" fill="url(#paint9_linear_6227_219220)"/>
</g>
<path d="M1226 487.896H1293.71M1322 487.896H1306.14" stroke="#A098C1" stroke-width="2" stroke-linecap="round"/>
<rect x="1184.5" y="560.396" width="179" height="35" rx="7.5" fill="white" stroke="#947DFF"/>
<circle cx="1239" cy="577.896" r="3" fill="#78767F"/>
<circle cx="1253" cy="577.896" r="3" fill="#78767F"/>
<circle cx="1267" cy="577.896" r="3" fill="#78767F"/>
<circle cx="1281" cy="577.896" r="3" fill="#78767F"/>
<circle cx="1295" cy="577.896" r="3" fill="#78767F"/>
<circle cx="1309" cy="577.896" r="3" fill="#78767F"/>
<path fill-rule="evenodd" clip-rule="evenodd" d="M1332.93 569.825C1332.54 570.215 1332.54 570.848 1332.93 571.239L1334.51 572.815C1331.79 574.693 1330 577.348 1330 577.896C1330 578.762 1334.48 584.896 1340 584.896C1341.82 584.896 1343.53 584.23 1345 583.306L1345.66 583.967C1346.05 584.357 1346.68 584.357 1347.07 583.967C1347.46 583.576 1347.46 582.943 1347.07 582.553L1334.34 569.825C1333.95 569.434 1333.32 569.434 1332.93 569.825ZM1342.61 580.924L1336.97 575.282C1336.37 575.983 1336 576.897 1336 577.896C1336 580.105 1337.79 581.896 1340 581.896C1341 581.896 1341.91 581.53 1342.61 580.924ZM1341.56 574.21C1342.51 574.615 1343.28 575.382 1343.69 576.339L1348.08 580.729C1349.29 579.428 1350 578.242 1350 577.896C1350 577.03 1345.52 570.896 1340 570.896C1339.46 570.896 1338.93 570.955 1338.41 571.062L1341.56 574.21Z" fill="#F7F8F8"/>
<path fill-rule="evenodd" clip-rule="evenodd" d="M1332.93 569.825C1332.54 570.215 1332.54 570.848 1332.93 571.239L1334.51 572.815C1331.79 574.693 1330 577.348 1330 577.896C1330 578.762 1334.48 584.896 1340 584.896C1341.82 584.896 1343.53 584.23 1345 583.306L1345.66 583.967C1346.05 584.357 1346.68 584.357 1347.07 583.967C1347.46 583.576 1347.46 582.943 1347.07 582.553L1334.34 569.825C1333.95 569.434 1333.32 569.434 1332.93 569.825ZM1342.61 580.924L1336.97 575.282C1336.37 575.983 1336 576.897 1336 577.896C1336 580.105 1337.79 581.896 1340 581.896C1341 581.896 1341.91 581.53 1342.61 580.924ZM1341.56 574.21C1342.51 574.615 1343.28 575.382 1343.69 576.339L1348.08 580.729C1349.29 579.428 1350 578.242 1350 577.896C1350 577.03 1345.52 570.896 1340 570.896C1339.46 570.896 1338.93 570.955 1338.41 571.062L1341.56 574.21Z" fill="#78767F" fill-opacity="0.02"/>
<path fill-rule="evenodd" clip-rule="evenodd" d="M1332.93 569.825C1332.54 570.215 1332.54 570.848 1332.93 571.239L1334.51 572.815C1331.79 574.693 1330 577.348 1330 577.896C1330 578.762 1334.48 584.896 1340 584.896C1341.82 584.896 1343.53 584.23 1345 583.306L1345.66 583.967C1346.05 584.357 1346.68 584.357 1347.07 583.967C1347.46 583.576 1347.46 582.943 1347.07 582.553L1334.34 569.825C1333.95 569.434 1333.32 569.434 1332.93 569.825ZM1342.61 580.924L1336.97 575.282C1336.37 575.983 1336 576.897 1336 577.896C1336 580.105 1337.79 581.896 1340 581.896C1341 581.896 1341.91 581.53 1342.61 580.924ZM1341.56 574.21C1342.51 574.615 1343.28 575.382 1343.69 576.339L1348.08 580.729C1349.29 579.428 1350 578.242 1350 577.896C1350 577.03 1345.52 570.896 1340 570.896C1339.46 570.896 1338.93 570.955 1338.41 571.062L1341.56 574.21Z" fill="#5D34F2" fill-opacity="0.16"/>
<rect x="1184" y="635.896" width="180" height="36" rx="8" fill="#947DFF"/>
<path d="M1255.67 655.687C1255.79 657.146 1257.02 658.095 1258.81 658.095C1260.75 658.095 1261.97 657.105 1261.97 655.552C1261.97 654.31 1261.27 653.63 1259.52 653.191L1258.63 652.957C1257.47 652.658 1257 652.277 1257 651.615C1257 650.759 1257.75 650.197 1258.87 650.197C1259.93 650.197 1260.64 650.712 1260.79 651.58H1261.85C1261.76 650.214 1260.54 649.242 1258.91 649.242C1257.12 649.242 1255.92 650.214 1255.92 651.65C1255.92 652.851 1256.58 653.542 1258.11 653.929L1259.2 654.21C1260.36 654.503 1260.89 654.96 1260.89 655.681C1260.89 656.519 1260.05 657.134 1258.91 657.134C1257.71 657.134 1256.87 656.572 1256.74 655.687H1255.67ZM1263.62 657.896H1264.63V651.58H1263.62V657.896ZM1264.13 650.296C1264.52 650.296 1264.83 649.98 1264.83 649.593C1264.83 649.207 1264.52 648.89 1264.13 648.89C1263.74 648.89 1263.43 649.207 1263.43 649.593C1263.43 649.98 1263.74 650.296 1264.13 650.296ZM1269.11 656.912C1267.94 656.912 1267.28 656.021 1267.28 654.644C1267.28 653.267 1267.94 652.376 1269.11 652.376C1270.28 652.376 1270.98 653.267 1270.98 654.644C1270.98 656.021 1270.28 656.912 1269.11 656.912ZM1269.16 660.322C1270.88 660.322 1271.97 659.419 1271.97 658.007V651.58H1271.01V652.582H1270.91C1270.55 651.902 1269.77 651.468 1268.89 651.468C1267.26 651.468 1266.24 652.751 1266.24 654.644C1266.24 656.537 1267.25 657.802 1268.89 657.802C1269.75 657.802 1270.47 657.41 1270.87 656.712H1270.96V657.955C1270.96 658.886 1270.29 659.443 1269.16 659.443C1268.25 659.443 1267.69 659.109 1267.57 658.593H1266.51C1266.66 659.636 1267.63 660.322 1269.16 660.322ZM1273.87 657.896H1274.88V654.158C1274.88 653.05 1275.53 652.376 1276.53 652.376C1277.54 652.376 1278.02 652.916 1278.02 654.052V657.896H1279.03V653.806C1279.03 652.306 1278.24 651.468 1276.82 651.468C1275.85 651.468 1275.24 651.878 1274.92 652.576H1274.83V651.58H1273.87V657.896ZM1285.45 657.896V649.441H1284.39V657.896H1285.45ZM1287.47 657.896H1288.48V654.158C1288.48 653.05 1289.13 652.376 1290.14 652.376C1291.15 652.376 1291.63 652.916 1291.63 654.052V657.896H1292.63V653.806C1292.63 652.306 1291.84 651.468 1290.43 651.468C1289.46 651.468 1288.84 651.878 1288.53 652.576H1288.43V651.58H1287.47V657.896Z" fill="white"/>
<g style="mix-blend-mode:multiply">
<path d="M1242 370.896H1306V378.896C1306 385.523 1300.63 390.896 1294 390.896H1254C1247.37 390.896 1242 385.523 1242 378.896V370.896Z" fill="#A09BBB"/>
</g>
<rect x="1184" y="515.896" width="180" height="36" rx="8" fill="#FBF9FF"/>
<path d="M1231.85 538.095C1233.74 538.095 1234.97 537.111 1234.97 535.529V535.523C1234.97 534.304 1234.28 533.595 1232.51 533.203L1231.57 532.992C1230.43 532.74 1229.96 532.283 1229.96 531.609V531.603C1229.96 530.718 1230.78 530.22 1231.83 530.214C1232.93 530.208 1233.64 530.759 1233.75 531.503L1233.77 531.58H1234.82L1234.81 531.498C1234.73 530.238 1233.55 529.242 1231.86 529.242C1230.12 529.242 1228.89 530.232 1228.88 531.632V531.638C1228.88 532.863 1229.62 533.642 1231.31 534.017L1232.25 534.222C1233.41 534.48 1233.89 534.96 1233.89 535.664V535.669C1233.89 536.531 1233.06 537.123 1231.91 537.123C1230.69 537.123 1229.81 536.589 1229.73 535.746L1229.73 535.681H1228.67L1228.68 535.746C1228.8 537.123 1230 538.095 1231.85 538.095ZM1237.14 530.361C1237.53 530.361 1237.84 530.044 1237.84 529.658C1237.84 529.271 1237.53 528.955 1237.14 528.955C1236.75 528.955 1236.44 529.271 1236.44 529.658C1236.44 530.044 1236.75 530.361 1237.14 530.361ZM1236.62 537.896H1237.64V531.58H1236.62V537.896ZM1239.62 537.896H1240.64V529.072H1239.62V537.896ZM1244.39 537.896H1245.42L1247.76 531.58H1246.68L1244.95 536.783H1244.86L1243.13 531.58H1242.05L1244.39 537.896ZM1251.45 538.007C1252.94 538.007 1253.84 537.164 1254.06 536.308L1254.07 536.261H1253.05L1253.03 536.314C1252.86 536.695 1252.33 537.099 1251.47 537.099C1250.35 537.099 1249.63 536.337 1249.6 535.031H1254.14V534.632C1254.14 532.746 1253.1 531.468 1251.38 531.468C1249.67 531.468 1248.55 532.804 1248.55 534.755V534.761C1248.55 536.742 1249.64 538.007 1251.45 538.007ZM1251.38 532.376C1252.31 532.376 1253 532.968 1253.11 534.216H1249.62C1249.73 533.015 1250.44 532.376 1251.38 532.376ZM1255.73 537.896H1256.75V533.982C1256.75 533.056 1257.44 532.441 1258.41 532.441C1258.63 532.441 1258.83 532.464 1259.04 532.5V531.509C1258.94 531.492 1258.72 531.468 1258.53 531.468C1257.67 531.468 1257.08 531.855 1256.84 532.517H1256.75V531.58H1255.73V537.896ZM1260.36 537.896H1261.38V534.158C1261.38 533.05 1262.01 532.371 1263.02 532.371C1264.03 532.371 1264.5 532.916 1264.5 534.052V537.896H1265.52V533.806C1265.52 532.306 1264.73 531.468 1263.31 531.468C1262.38 531.468 1261.79 531.861 1261.47 532.529H1261.38V529.072H1260.36V537.896ZM1269.1 538.007C1269.95 538.007 1270.61 537.638 1271.01 536.964H1271.1V537.896H1272.12V533.572C1272.12 532.259 1271.26 531.468 1269.72 531.468C1268.37 531.468 1267.41 532.136 1267.25 533.126L1267.24 533.162H1268.26L1268.27 533.144C1268.43 532.652 1268.93 532.371 1269.68 532.371C1270.63 532.371 1271.1 532.792 1271.1 533.572V534.146L1269.29 534.257C1267.82 534.345 1266.99 534.996 1266.99 536.121V536.132C1266.99 537.281 1267.9 538.007 1269.1 538.007ZM1268.03 536.109V536.097C1268.03 535.47 1268.45 535.13 1269.41 535.072L1271.1 534.966V535.541C1271.1 536.443 1270.35 537.123 1269.31 537.123C1268.58 537.123 1268.03 536.748 1268.03 536.109ZM1273.98 537.896H1275V534.158C1275 533.05 1275.64 532.371 1276.65 532.371C1277.66 532.371 1278.13 532.916 1278.13 534.052V537.896H1279.15V533.806C1279.15 532.306 1278.36 531.468 1276.94 531.468C1276.01 531.468 1275.41 531.861 1275.1 532.529H1275V531.58H1273.98V537.896ZM1283.32 538.007C1284.2 538.007 1284.91 537.591 1285.29 536.888H1285.39V537.896H1286.41V529.072H1285.39V532.576H1285.29C1284.95 531.902 1284.19 531.468 1283.32 531.468C1281.72 531.468 1280.68 532.751 1280.68 534.732V534.744C1280.68 536.712 1281.72 538.007 1283.32 538.007ZM1283.56 537.105C1282.4 537.105 1281.72 536.214 1281.72 534.744V534.732C1281.72 533.261 1282.4 532.371 1283.56 532.371C1284.71 532.371 1285.41 533.273 1285.41 534.732V534.744C1285.41 536.203 1284.71 537.105 1283.56 537.105ZM1288.36 537.896H1293.83V536.947H1289.82V536.853L1291.74 534.867C1293.27 533.291 1293.69 532.587 1293.69 531.621V531.609C1293.69 530.244 1292.56 529.242 1291.08 529.242C1289.46 529.242 1288.3 530.32 1288.3 531.82L1288.31 531.826L1289.32 531.832L1289.32 531.82C1289.32 530.824 1290 530.162 1291.01 530.162C1292.01 530.162 1292.61 530.83 1292.61 531.72V531.732C1292.61 532.47 1292.29 532.91 1291.22 534.076L1288.36 537.169V537.896ZM1298.43 538.095C1300.3 538.095 1301.42 536.39 1301.42 533.671V533.66C1301.42 530.941 1300.3 529.242 1298.43 529.242C1296.56 529.242 1295.45 530.941 1295.45 533.66V533.671C1295.45 536.39 1296.56 538.095 1298.43 538.095ZM1298.43 537.175C1297.22 537.175 1296.51 535.828 1296.51 533.671V533.66C1296.51 531.503 1297.22 530.167 1298.43 530.167C1299.64 530.167 1300.36 531.503 1300.36 533.66V533.671C1300.36 535.828 1299.64 537.175 1298.43 537.175ZM1303.16 537.896H1308.63V536.947H1304.62V536.853L1306.54 534.867C1308.07 533.291 1308.49 532.587 1308.49 531.621V531.609C1308.49 530.244 1307.36 529.242 1305.88 529.242C1304.27 529.242 1303.11 530.32 1303.1 531.82L1303.11 531.826L1304.12 531.832L1304.12 531.82C1304.12 530.824 1304.8 530.162 1305.81 530.162C1306.81 530.162 1307.41 530.83 1307.41 531.72V531.732C1307.41 532.47 1307.1 532.91 1306.02 534.076L1303.16 537.169V537.896ZM1310.4 537.896H1315.87V536.947H1311.87V536.853L1313.79 534.867C1315.32 533.291 1315.73 532.587 1315.73 531.621V531.609C1315.73 530.244 1314.6 529.242 1313.12 529.242C1311.51 529.242 1310.35 530.32 1310.34 531.82L1310.35 531.826L1311.36 531.832L1311.37 531.82C1311.37 530.824 1312.04 530.162 1313.05 530.162C1314.05 530.162 1314.65 530.83 1314.65 531.72V531.732C1314.65 532.47 1314.34 532.91 1313.26 534.076L1310.4 537.169V537.896Z" fill="#625A6F"/>
<g style="mix-blend-mode:multiply">
<path d="M1363.5 785.896C1401.9 781.896 1413.83 827.563 1415 850.896H1194C1233.5 795.396 1276 827.896 1299.5 831.396C1323 834.896 1315.5 790.896 1363.5 785.896Z" fill="#BCB5DB"/>
</g>
<path d="M1277.71 835.413C1273.86 832.019 1270.11 827.603 1269.51 822.304C1269.23 819.789 1269.46 816.751 1271.55 815.004C1273.51 813.352 1276.25 813.238 1278.65 813.767C1283.99 814.944 1288.33 818.81 1293.87 819.296C1295.6 819.448 1297.33 819.32 1299.01 818.946C1307.6 807.561 1312.65 794.188 1314.73 779.867C1314.75 779.739 1314.75 779.612 1314.77 779.492C1313.36 779.946 1311.94 780.351 1310.5 780.666C1306.78 781.477 1302.94 781.744 1299.14 781.558C1295.35 781.376 1291.32 780.754 1287.76 779.397C1286.25 778.82 1284.78 777.807 1284.15 776.25C1283.41 774.377 1284.33 772.616 1285.57 771.221C1290.07 766.151 1296.81 764.461 1303.19 763.121C1307.6 762.188 1312.51 761.188 1316.16 758.457C1316.19 747.81 1315.48 737.133 1314.95 726.509C1314.9 725.642 1314.87 724.769 1314.82 723.892C1313.36 724.747 1311.92 725.644 1310.52 726.59C1308.85 727.896 1307.18 729.193 1305.5 730.499C1305.26 730.684 1305.01 730.81 1304.76 730.905C1304.45 731.165 1304.13 731.4 1303.81 731.661C1302.79 732.522 1301.28 732.339 1300.36 731.461C1300.3 731.404 1300.24 731.329 1300.2 731.266C1298.81 730.891 1297.75 729.541 1298.45 727.869C1300.38 723.31 1303.71 719.715 1307.1 716.2C1309.82 713.393 1312.64 710.526 1314.48 707.062C1314.66 692.801 1316.4 678.59 1322.15 665.386C1323.14 663.114 1320.71 661.313 1318.66 661.982C1302.06 667.452 1286.06 674.437 1270.6 682.52C1268.06 686.056 1267.68 691.037 1267.43 695.222C1267.26 698.086 1267.25 700.956 1267.43 703.819C1267.59 706.429 1267.68 709.053 1265.84 711.161C1264.31 712.921 1262.09 713.719 1259.89 714.275C1258.68 714.58 1257.47 714.767 1256.32 714.144C1255.09 713.462 1254.72 712.142 1254.35 710.884C1253.02 706.367 1250.87 699.32 1251.22 693.374C1241.07 699.439 1231.16 705.916 1221.51 712.719C1219.9 719.441 1223.28 727.131 1225.77 733.355C1228.68 740.615 1231.77 749.776 1227.91 757.293C1226.19 760.645 1223.03 763.24 1219.16 763.47C1217.36 763.58 1214.76 763.309 1213.88 761.475C1213.11 759.866 1212.86 758.066 1211.99 756.455C1207.95 749.066 1200.07 744.774 1194.18 739.051C1193.05 737.947 1192.16 736.831 1191.64 735.678C1187 740.087 1182.79 744.88 1179.38 750.242C1174.92 757.269 1172.29 765.063 1171.29 773.067C1171.69 773.562 1172.12 774.029 1172.55 774.448C1173.5 775.354 1174.64 776.209 1175.73 776.848C1176.81 777.475 1177.95 778.001 1178.95 778.76C1181.53 780.752 1182.47 784.012 1180.65 786.867C1178.95 789.54 1175.49 790.43 1172.49 790.499C1172.17 790.502 1171.9 790.462 1171.62 790.419C1172.21 794.165 1173.12 797.879 1174.36 801.505C1177.29 810.112 1181.99 817.927 1187.79 824.863C1196.32 829.896 1207.13 830.068 1216.19 824.751C1216.46 824.598 1216.74 824.528 1217.03 824.513C1219.64 817.539 1222.58 810.706 1225.8 804.03C1231.89 791.312 1238.79 779.06 1245.92 766.993L1267.52 730.925C1274.76 718.935 1282.3 707.03 1291.36 696.328C1282.64 707.31 1275.51 719.39 1268.66 731.587L1248.22 768.29C1241.48 780.546 1235.01 792.947 1229.38 805.674C1225.94 813.458 1222.87 821.393 1220.28 829.468C1221.66 836.048 1225.47 841.93 1230.96 845.915C1232.12 846.755 1233.35 847.468 1234.63 848.104C1241.39 850.144 1248.6 850.541 1255.75 849.831C1264.54 847.243 1272.73 842.849 1280.12 837.367C1279.27 836.744 1278.47 836.095 1277.71 835.413Z" fill="#7D7A9C"/>
<g style="mix-blend-mode:multiply" opacity="0.6">
<path d="M764.089 829.496C770.551 833.544 778.882 837.281 784.487 842.965C785.967 844.444 787.212 846.079 787.913 847.792L796.788 847.791C793.908 842.964 789.704 839.383 789.47 833.466C789.314 827.939 792.195 822.8 793.596 817.584C796.321 807.696 799.28 797.887 802.394 788.155C806.287 775.854 811.892 764.254 818.588 753.276C821.001 749.461 823.492 745.646 826.14 741.987C828.475 738.795 830.266 735.214 827.852 731.477C826.295 729.141 824.816 726.805 823.259 724.47C819.989 719.643 817.186 713.882 810.802 718.008C808.7 719.409 806.053 720.733 804.262 722.523C803.172 723.613 790.716 734.124 789.159 734.902C789.47 734.747 790.404 730.465 790.56 729.92C791.572 727.039 792.818 724.236 793.986 721.433C796.71 715.205 805.197 706.408 796.788 701.892C792.039 699.401 786.979 697.454 781.918 695.508L781.918 695.508C781.373 695.274 780.672 695.041 780.05 695.119C778.181 695.274 777.714 698.077 777.091 699.478C775.3 703.371 773.51 707.264 771.641 711.079C770.863 712.558 766.269 719.331 766.503 720.499C766.191 718.942 765.413 692.705 765.413 692.705L765.413 692.705C763.7 681.805 761.987 670.906 759.963 660.084C759.885 659.617 759.807 659.072 759.574 658.683C758.172 656.191 752.1 656.269 749.686 656.036C746.339 655.724 742.913 655.958 739.565 656.503C736.451 657.048 726.875 658.06 725.084 661.096C724.461 662.108 725.162 664.21 725.396 665.3C725.941 668.259 726.953 671.062 727.42 673.942C728.121 677.991 728.743 682.039 729.366 686.087C731.079 697.766 731.78 709.755 731.624 721.356C731.624 722.822 730.859 727.424 731.528 728.491C731.014 727.71 719.795 710.701 716.676 707.887C703.986 712.169 702.896 722.913 702.662 725.326C703.518 726.416 716.442 746.814 718.856 750.24C721.191 753.665 732.091 778.579 732.091 778.579C732.091 778.579 713.017 763.008 708.501 760.594C703.986 760.906 700.326 780.525 701.105 781.304C701.884 782.16 721.269 795.629 735.283 808.631C743.875 816.603 754.083 823.114 763.917 829.386L764.089 829.496Z" fill="#888098"/>
</g>
<rect x="764" y="490.896" width="480" height="360" rx="32" fill="#DFD7ED"/>
<path d="M798.237 759.896H802.291C804.396 759.896 805.661 758.843 805.661 757.114V757.1C805.661 755.815 804.772 754.872 803.439 754.728V754.612C804.41 754.448 805.169 753.525 805.169 752.5V752.486C805.169 750.975 804.055 750.032 802.202 750.032H798.237V759.896ZM801.847 751.283C802.981 751.283 803.645 751.823 803.645 752.752V752.766C803.645 753.723 802.94 754.229 801.587 754.229H799.769V751.283H801.847ZM801.895 755.398C803.337 755.398 804.096 755.945 804.096 757.004V757.018C804.096 758.078 803.364 758.645 801.983 758.645H799.769V755.398H801.895ZM807.459 759.896H808.942V755.459C808.942 754.386 809.715 753.689 810.85 753.689C811.13 753.689 811.383 753.723 811.649 753.778V752.411C811.499 752.376 811.239 752.342 811 752.342C810.009 752.342 809.318 752.807 809.052 753.593H808.942V752.472H807.459V759.896ZM815.047 760.019C816.031 760.019 816.811 759.595 817.248 758.843H817.364V759.896H818.834V754.817C818.834 753.258 817.781 752.329 815.915 752.329C814.227 752.329 813.058 753.142 812.88 754.359L812.873 754.407H814.302L814.309 754.379C814.486 753.853 815.026 753.552 815.847 753.552C816.852 753.552 817.364 754.003 817.364 754.817V755.473L815.354 755.589C813.584 755.699 812.586 756.471 812.586 757.797V757.811C812.586 759.158 813.632 760.019 815.047 760.019ZM814.062 757.75V757.736C814.062 757.066 814.527 756.697 815.553 756.635L817.364 756.519V757.155C817.364 758.112 816.551 758.836 815.443 758.836C814.644 758.836 814.062 758.433 814.062 757.75ZM820.926 759.896H822.409V755.542C822.409 754.345 823.086 753.6 824.173 753.6C825.26 753.6 825.772 754.208 825.772 755.439V759.896H827.249V755.09C827.249 753.32 826.333 752.329 824.672 752.329C823.592 752.329 822.881 752.807 822.519 753.6H822.409V752.472H820.926V759.896ZM832.027 760.019C833.066 760.019 833.88 759.541 834.311 758.727H834.427V759.896H835.903V749.56H834.427V753.648H834.311C833.914 752.848 833.046 752.342 832.027 752.342C830.141 752.342 828.951 753.826 828.951 756.177V756.191C828.951 758.522 830.161 760.019 832.027 760.019ZM832.451 758.754C831.207 758.754 830.462 757.784 830.462 756.191V756.177C830.462 754.584 831.207 753.614 832.451 753.614C833.682 753.614 834.447 754.591 834.447 756.177V756.191C834.447 757.777 833.688 758.754 832.451 758.754ZM838.884 751.146C839.39 751.146 839.813 750.729 839.813 750.223C839.813 749.71 839.39 749.293 838.884 749.293C838.371 749.293 837.954 749.71 837.954 750.223C837.954 750.729 838.371 751.146 838.884 751.146ZM838.139 759.896H839.615V752.472H838.139V759.896ZM841.775 759.896H843.259V755.542C843.259 754.345 843.936 753.6 845.022 753.6C846.109 753.6 846.622 754.208 846.622 755.439V759.896H848.099V755.09C848.099 753.32 847.183 752.329 845.521 752.329C844.441 752.329 843.73 752.807 843.368 753.6H843.259V752.472H841.775V759.896ZM853.308 762.514C855.413 762.514 856.746 761.434 856.746 759.746V752.472H855.27V753.689H855.181C854.75 752.855 853.943 752.342 852.904 752.342C850.977 752.342 849.794 753.839 849.794 755.958V755.972C849.794 758.064 850.97 759.534 852.877 759.534C853.896 759.534 854.716 759.083 855.167 758.276H855.276V759.739C855.276 760.75 854.552 761.325 853.328 761.325C852.323 761.325 851.722 760.962 851.599 760.45L851.592 760.436H850.095L850.081 760.45C850.259 761.687 851.421 762.514 853.308 762.514ZM853.287 758.31C852.022 758.31 851.312 757.346 851.312 755.965V755.952C851.312 754.571 852.022 753.6 853.287 753.6C854.538 753.6 855.304 754.571 855.304 755.952V755.965C855.304 757.353 854.545 758.31 853.287 758.31ZM864.744 760.019C865.729 760.019 866.508 759.595 866.945 758.843H867.062V759.896H868.531V754.817C868.531 753.258 867.479 752.329 865.612 752.329C863.924 752.329 862.755 753.142 862.577 754.359L862.57 754.407H863.999L864.006 754.379C864.184 753.853 864.724 753.552 865.544 753.552C866.549 753.552 867.062 754.003 867.062 754.817V755.473L865.052 755.589C863.281 755.699 862.283 756.471 862.283 757.797V757.811C862.283 759.158 863.329 760.019 864.744 760.019ZM863.76 757.75V757.736C863.76 757.066 864.225 756.697 865.25 756.635L867.062 756.519V757.155C867.062 758.112 866.248 758.836 865.141 758.836C864.341 758.836 863.76 758.433 863.76 757.75ZM870.623 759.896H872.106V755.459C872.106 754.386 872.879 753.689 874.014 753.689C874.294 753.689 874.547 753.723 874.813 753.778V752.411C874.663 752.376 874.403 752.342 874.164 752.342C873.173 752.342 872.482 752.807 872.216 753.593H872.106V752.472H870.623V759.896ZM879.154 760.04C881.055 760.04 882.08 758.946 882.326 757.968L882.34 757.907L880.911 757.914L880.884 757.968C880.706 758.351 880.139 758.823 879.188 758.823C877.965 758.823 877.186 757.996 877.158 756.574H882.422V756.054C882.422 753.826 881.15 752.329 879.079 752.329C877.008 752.329 875.668 753.88 875.668 756.198V756.205C875.668 758.556 876.98 760.04 879.154 760.04ZM879.086 753.545C880.091 753.545 880.836 754.188 880.952 755.514H877.179C877.309 754.236 878.074 753.545 879.086 753.545ZM886.223 760.019C887.207 760.019 887.986 759.595 888.424 758.843H888.54V759.896H890.01V754.817C890.01 753.258 888.957 752.329 887.091 752.329C885.402 752.329 884.233 753.142 884.056 754.359L884.049 754.407H885.478L885.484 754.379C885.662 753.853 886.202 753.552 887.022 753.552C888.027 753.552 888.54 754.003 888.54 754.817V755.473L886.53 755.589C884.76 755.699 883.762 756.471 883.762 757.797V757.811C883.762 759.158 884.808 760.019 886.223 760.019ZM885.238 757.75V757.736C885.238 757.066 885.703 756.697 886.729 756.635L888.54 756.519V757.155C888.54 758.112 887.727 758.836 886.619 758.836C885.819 758.836 885.238 758.433 885.238 757.75Z" fill="#191C1D"/>
<circle cx="807" cy="782.896" r="5" fill="#5D34F2"/>
<rect x="799" y="774.896" width="16" height="16" rx="8" stroke="#5D34F2" stroke-width="2"/>
<path d="M825.472 787.896H826.764L827.755 785.073H831.679L832.67 787.896H833.962L830.325 778.032H829.108L825.472 787.896ZM829.662 779.625H829.771L831.316 784.027H828.117L829.662 779.625ZM835.541 790.357H836.73V786.734H836.84C837.243 787.52 838.125 788.026 839.137 788.026C841.01 788.026 842.227 786.529 842.227 784.218V784.205C842.227 781.908 841.003 780.397 839.137 780.397C838.111 780.397 837.291 780.882 836.84 781.703H836.73V780.527H835.541V790.357ZM838.863 786.973C837.523 786.973 836.703 785.92 836.703 784.218V784.205C836.703 782.502 837.523 781.45 838.863 781.45C840.21 781.45 841.01 782.489 841.01 784.205V784.218C841.01 785.934 840.21 786.973 838.863 786.973ZM844.086 790.357H845.275V786.734H845.385C845.788 787.52 846.67 788.026 847.682 788.026C849.555 788.026 850.771 786.529 850.771 784.218V784.205C850.771 781.908 849.548 780.397 847.682 780.397C846.656 780.397 845.836 780.882 845.385 781.703H845.275V780.527H844.086V790.357ZM847.408 786.973C846.068 786.973 845.248 785.92 845.248 784.218V784.205C845.248 782.502 846.068 781.45 847.408 781.45C848.755 781.45 849.555 782.489 849.555 784.205V784.218C849.555 785.934 848.755 786.973 847.408 786.973ZM856.719 787.896H862.707V786.789H857.949V778.032H856.719V787.896ZM867.212 788.026C869.311 788.026 870.609 786.577 870.609 784.218V784.205C870.609 781.839 869.311 780.397 867.212 780.397C865.113 780.397 863.814 781.839 863.814 784.205V784.218C863.814 786.577 865.113 788.026 867.212 788.026ZM867.212 786.973C865.817 786.973 865.031 785.955 865.031 784.218V784.205C865.031 782.461 865.817 781.45 867.212 781.45C868.606 781.45 869.393 782.461 869.393 784.205V784.218C869.393 785.955 868.606 786.973 867.212 786.973ZM875.49 790.494C877.5 790.494 878.771 789.441 878.771 787.793V780.527H877.582V781.744H877.5C877.049 780.91 876.242 780.397 875.203 780.397C873.275 780.397 872.086 781.894 872.086 783.958V783.972C872.086 786.037 873.269 787.513 875.176 787.513C876.188 787.513 877.021 787.055 877.486 786.242H877.596V787.732C877.596 788.819 876.81 789.441 875.49 789.441C874.431 789.441 873.774 789.044 873.645 788.484L873.638 788.477H872.407L872.394 788.484C872.578 789.694 873.713 790.494 875.49 790.494ZM875.436 786.46C874.068 786.46 873.303 785.435 873.303 783.972V783.958C873.303 782.496 874.068 781.45 875.436 781.45C876.796 781.45 877.623 782.496 877.623 783.958V783.972C877.623 785.435 876.803 786.46 875.436 786.46ZM884.015 788.026C886.113 788.026 887.412 786.577 887.412 784.218V784.205C887.412 781.839 886.113 780.397 884.015 780.397C881.916 780.397 880.617 781.839 880.617 784.205V784.218C880.617 786.577 881.916 788.026 884.015 788.026ZM884.015 786.973C882.62 786.973 881.834 785.955 881.834 784.218V784.205C881.834 782.461 882.62 781.45 884.015 781.45C885.409 781.45 886.195 782.461 886.195 784.205V784.218C886.195 785.955 885.409 786.973 884.015 786.973ZM894.617 787.896H895.807L897.447 782.195H897.557L899.204 787.896H900.4L902.465 780.527H901.282L899.833 786.419H899.724L898.076 780.527H896.948L895.301 786.419H895.191L893.742 780.527H892.553L894.617 787.896ZM904.666 779.105C905.117 779.105 905.486 778.736 905.486 778.285C905.486 777.833 905.117 777.464 904.666 777.464C904.215 777.464 903.846 777.833 903.846 778.285C903.846 778.736 904.215 779.105 904.666 779.105ZM904.064 787.896H905.254V780.527H904.064V787.896ZM910.114 787.951C910.347 787.951 910.572 787.923 910.805 787.882V786.871C910.586 786.891 910.47 786.898 910.258 786.898C909.492 786.898 909.191 786.549 909.191 785.681V781.511H910.805V780.527H909.191V778.62H907.961V780.527H906.799V781.511H907.961V785.982C907.961 787.39 908.597 787.951 910.114 787.951ZM912.65 787.896H913.84V783.535C913.84 782.243 914.585 781.45 915.761 781.45C916.937 781.45 917.483 782.085 917.483 783.412V787.896H918.673V783.125C918.673 781.375 917.75 780.397 916.096 780.397C915.009 780.397 914.318 780.855 913.949 781.634H913.84V777.601H912.65V787.896ZM924.764 787.896H925.953V783.33C925.953 782.291 926.685 781.45 927.648 781.45C928.578 781.45 929.18 782.017 929.18 782.892V787.896H930.369V783.159C930.369 782.222 931.046 781.45 932.071 781.45C933.11 781.45 933.609 781.99 933.609 783.077V787.896H934.799V782.803C934.799 781.258 933.958 780.397 932.454 780.397C931.436 780.397 930.595 780.91 930.198 781.689H930.089C929.747 780.923 929.05 780.397 928.052 780.397C927.088 780.397 926.391 780.855 926.062 781.648H925.953V780.527H924.764V787.896ZM939.953 788.026C941.689 788.026 942.742 787.042 942.995 786.043L943.009 785.989H941.819L941.792 786.05C941.594 786.495 940.979 786.966 939.98 786.966C938.668 786.966 937.827 786.078 937.793 784.553H943.098V784.088C943.098 781.887 941.881 780.397 939.878 780.397C937.875 780.397 936.576 781.956 936.576 784.232V784.239C936.576 786.549 937.848 788.026 939.953 788.026ZM939.871 781.457C940.958 781.457 941.765 782.147 941.888 783.603H937.813C937.943 782.202 938.777 781.457 939.871 781.457ZM947.473 788.026C949.147 788.026 950.426 787.117 950.426 785.804V785.791C950.426 784.738 949.756 784.136 948.368 783.801L947.233 783.528C946.365 783.316 945.996 783.001 945.996 782.502V782.489C945.996 781.839 946.639 781.388 947.514 781.388C948.402 781.388 948.977 781.792 949.134 782.373H950.303C950.139 781.169 949.065 780.397 947.521 780.397C945.955 780.397 944.779 781.32 944.779 782.543V782.55C944.779 783.61 945.401 784.211 946.782 784.54L947.924 784.813C948.833 785.032 949.209 785.38 949.209 785.879V785.893C949.209 786.563 948.505 787.035 947.514 787.035C946.57 787.035 945.982 786.631 945.784 786.016H944.567C944.704 787.233 945.832 788.026 947.473 788.026ZM954.664 788.026C956.339 788.026 957.617 787.117 957.617 785.804V785.791C957.617 784.738 956.947 784.136 955.56 783.801L954.425 783.528C953.557 783.316 953.188 783.001 953.188 782.502V782.489C953.188 781.839 953.83 781.388 954.705 781.388C955.594 781.388 956.168 781.792 956.325 782.373H957.494C957.33 781.169 956.257 780.397 954.712 780.397C953.146 780.397 951.971 781.32 951.971 782.543V782.55C951.971 783.61 952.593 784.211 953.974 784.54L955.115 784.813C956.024 785.032 956.4 785.38 956.4 785.879V785.893C956.4 786.563 955.696 787.035 954.705 787.035C953.762 787.035 953.174 786.631 952.976 786.016H951.759C951.896 787.233 953.023 788.026 954.664 788.026ZM961.486 788.026C962.478 788.026 963.25 787.595 963.715 786.809H963.824V787.896H965.014V782.851C965.014 781.32 964.009 780.397 962.211 780.397C960.639 780.397 959.518 781.176 959.326 782.332L959.319 782.373H960.509L960.516 782.352C960.707 781.778 961.288 781.45 962.17 781.45C963.271 781.45 963.824 781.942 963.824 782.851V783.521L961.712 783.651C959.996 783.753 959.025 784.512 959.025 785.825V785.838C959.025 787.178 960.085 788.026 961.486 788.026ZM960.242 785.811V785.797C960.242 785.066 960.734 784.669 961.855 784.601L963.824 784.478V785.148C963.824 786.201 962.942 786.994 961.732 786.994C960.878 786.994 960.242 786.556 960.242 785.811ZM970.223 790.494C972.232 790.494 973.504 789.441 973.504 787.793V780.527H972.314V781.744H972.232C971.781 780.91 970.975 780.397 969.936 780.397C968.008 780.397 966.818 781.894 966.818 783.958V783.972C966.818 786.037 968.001 787.513 969.908 787.513C970.92 787.513 971.754 787.055 972.219 786.242H972.328V787.732C972.328 788.819 971.542 789.441 970.223 789.441C969.163 789.441 968.507 789.044 968.377 788.484L968.37 788.477H967.14L967.126 788.484C967.311 789.694 968.445 790.494 970.223 790.494ZM970.168 786.46C968.801 786.46 968.035 785.435 968.035 783.972V783.958C968.035 782.496 968.801 781.45 970.168 781.45C971.528 781.45 972.355 782.496 972.355 783.958V783.972C972.355 785.435 971.535 786.46 970.168 786.46ZM978.727 788.026C980.463 788.026 981.516 787.042 981.769 786.043L981.782 785.989H980.593L980.565 786.05C980.367 786.495 979.752 786.966 978.754 786.966C977.441 786.966 976.601 786.078 976.566 784.553H981.871V784.088C981.871 781.887 980.654 780.397 978.651 780.397C976.648 780.397 975.35 781.956 975.35 784.232V784.239C975.35 786.549 976.621 788.026 978.727 788.026ZM978.645 781.457C979.731 781.457 980.538 782.147 980.661 783.603H976.587C976.717 782.202 977.551 781.457 978.645 781.457Z" fill="#191C1D"/>
<circle cx="807" cy="810.896" r="8" fill="#F7F8F8"/>
<circle cx="807" cy="810.896" r="8" fill="#78767F" fill-opacity="0.02"/>
<circle cx="807" cy="810.896" r="8" fill="#5D34F2" fill-opacity="0.14"/>
<circle cx="807" cy="810.896" r="8" stroke="#A398B7" stroke-width="2"/>
<path d="M825.472 815.896H826.764L827.755 813.073H831.679L832.67 815.896H833.962L830.325 806.032H829.108L825.472 815.896ZM829.662 807.625H829.771L831.316 812.027H828.117L829.662 807.625ZM835.541 818.357H836.73V814.734H836.84C837.243 815.52 838.125 816.026 839.137 816.026C841.01 816.026 842.227 814.529 842.227 812.218V812.205C842.227 809.908 841.003 808.397 839.137 808.397C838.111 808.397 837.291 808.882 836.84 809.703H836.73V808.527H835.541V818.357ZM838.863 814.973C837.523 814.973 836.703 813.92 836.703 812.218V812.205C836.703 810.502 837.523 809.45 838.863 809.45C840.21 809.45 841.01 810.489 841.01 812.205V812.218C841.01 813.934 840.21 814.973 838.863 814.973ZM844.086 818.357H845.275V814.734H845.385C845.788 815.52 846.67 816.026 847.682 816.026C849.555 816.026 850.771 814.529 850.771 812.218V812.205C850.771 809.908 849.548 808.397 847.682 808.397C846.656 808.397 845.836 808.882 845.385 809.703H845.275V808.527H844.086V818.357ZM847.408 814.973C846.068 814.973 845.248 813.92 845.248 812.218V812.205C845.248 810.502 846.068 809.45 847.408 809.45C848.755 809.45 849.555 810.489 849.555 812.205V812.218C849.555 813.934 848.755 814.973 847.408 814.973ZM856.719 815.896H862.707V814.789H857.949V806.032H856.719V815.896ZM867.212 816.026C869.311 816.026 870.609 814.577 870.609 812.218V812.205C870.609 809.839 869.311 808.397 867.212 808.397C865.113 808.397 863.814 809.839 863.814 812.205V812.218C863.814 814.577 865.113 816.026 867.212 816.026ZM867.212 814.973C865.817 814.973 865.031 813.955 865.031 812.218V812.205C865.031 810.461 865.817 809.45 867.212 809.45C868.606 809.45 869.393 810.461 869.393 812.205V812.218C869.393 813.955 868.606 814.973 867.212 814.973ZM875.49 818.494C877.5 818.494 878.771 817.441 878.771 815.793V808.527H877.582V809.744H877.5C877.049 808.91 876.242 808.397 875.203 808.397C873.275 808.397 872.086 809.894 872.086 811.958V811.972C872.086 814.037 873.269 815.513 875.176 815.513C876.188 815.513 877.021 815.055 877.486 814.242H877.596V815.732C877.596 816.819 876.81 817.441 875.49 817.441C874.431 817.441 873.774 817.044 873.645 816.484L873.638 816.477H872.407L872.394 816.484C872.578 817.694 873.713 818.494 875.49 818.494ZM875.436 814.46C874.068 814.46 873.303 813.435 873.303 811.972V811.958C873.303 810.496 874.068 809.45 875.436 809.45C876.796 809.45 877.623 810.496 877.623 811.958V811.972C877.623 813.435 876.803 814.46 875.436 814.46ZM884.015 816.026C886.113 816.026 887.412 814.577 887.412 812.218V812.205C887.412 809.839 886.113 808.397 884.015 808.397C881.916 808.397 880.617 809.839 880.617 812.205V812.218C880.617 814.577 881.916 816.026 884.015 816.026ZM884.015 814.973C882.62 814.973 881.834 813.955 881.834 812.218V812.205C881.834 810.461 882.62 809.45 884.015 809.45C885.409 809.45 886.195 810.461 886.195 812.205V812.218C886.195 813.955 885.409 814.973 884.015 814.973Z" fill="#191C1D"/>
<path d="M797.025 563.896H800.822C802.627 563.896 803.746 562.964 803.746 561.482V561.47C803.746 560.386 802.932 559.548 801.812 559.46V559.355C802.68 559.226 803.342 558.447 803.342 557.556V557.544C803.342 556.244 802.363 555.441 800.723 555.441H797.025V563.896ZM800.271 556.753C801.115 556.753 801.602 557.164 801.602 557.849V557.861C801.602 558.558 801.08 558.957 800.125 558.957H798.795V556.753H800.271ZM800.33 560.123C801.373 560.123 801.941 560.544 801.941 561.33V561.341C801.941 562.144 801.391 562.578 800.371 562.578H798.795V560.123H800.33ZM806.546 563.896H808.315V560.802H809.762L811.339 563.896H813.343L811.561 560.539C812.528 560.158 813.091 559.226 813.091 558.142V558.13C813.091 556.466 811.989 555.441 810.067 555.441H806.546V563.896ZM808.315 559.513V556.824H809.85C810.735 556.824 811.28 557.351 811.28 558.166V558.177C811.28 559.009 810.759 559.513 809.874 559.513H808.315ZM815.474 563.896H817.332L817.959 561.845H820.941L821.568 563.896H823.431L820.49 555.441H818.41L815.474 563.896ZM819.4 557.128H819.505L820.537 560.521H818.363L819.4 557.128ZM826.067 563.896H827.76V558.488H827.854L831.768 563.896H833.233V555.441H831.539V560.826H831.446L827.543 555.441H826.067V563.896ZM836.489 563.896H839.818C842.349 563.896 843.784 562.349 843.784 559.619V559.607C843.784 556.958 842.331 555.441 839.818 555.441H836.489V563.896ZM838.259 562.437V556.9H839.536C841.071 556.9 841.98 557.896 841.98 559.636V559.648C841.98 561.453 841.101 562.437 839.536 562.437H838.259ZM846.666 563.896H848.436V555.441H846.666V563.896ZM851.686 563.896H853.38V558.488H853.473L857.388 563.896H858.852V555.441H857.159V560.826H857.065L853.163 555.441H851.686V563.896ZM865.789 564.113C868.097 564.113 869.539 562.707 869.539 560.462V559.39H865.988V560.679H867.816L867.81 560.837C867.775 561.904 866.978 562.613 865.818 562.613C864.423 562.613 863.539 561.482 863.539 559.648V559.636C863.539 557.837 864.382 556.724 865.748 556.724C866.738 556.724 867.459 557.222 867.699 558.06L867.711 558.119H869.468L869.457 558.06C869.205 556.373 867.746 555.224 865.748 555.224C863.287 555.224 861.734 556.941 861.734 559.654V559.666C861.734 562.419 863.275 564.113 865.789 564.113Z" fill="#928F9A"/>
<rect x="1072.5" y="552.396" width="139" height="275" rx="19.5" fill="#EFE8FB" stroke="#C6BADA"/>
<circle cx="1142" cy="584.896" r="14" fill="#CABEFF"/>
<path d="M1098 606.896H1163.48M1186 606.896H1175.5" stroke="#D8D0E4" stroke-width="2" stroke-linecap="round"/>
<rect x="1086" y="622.896" width="112" height="20" rx="4" fill="#DBD1EB"/>
<path d="M1096.98 636.033C1098.4 636.033 1099.27 635.193 1099.27 633.955V630.259H1098.39V633.888C1098.39 634.705 1097.88 635.259 1096.98 635.259C1096.09 635.259 1095.57 634.705 1095.57 633.888V630.259H1094.7V633.955C1094.7 635.193 1095.57 636.033 1096.98 636.033ZM1102.12 635.978C1103.13 635.978 1103.88 635.443 1103.88 634.658V634.65C1103.88 634.037 1103.49 633.689 1102.67 633.498L1102 633.345C1101.52 633.232 1101.33 633.068 1101.33 632.802V632.794C1101.33 632.455 1101.66 632.224 1102.13 632.224C1102.61 632.224 1102.91 632.447 1102.99 632.744V632.751H1103.8V632.748C1103.72 632.056 1103.1 631.572 1102.13 631.572C1101.17 631.572 1100.48 632.103 1100.48 632.841V632.845C1100.48 633.466 1100.86 633.83 1101.66 634.013L1102.33 634.169C1102.82 634.283 1103.02 634.462 1103.02 634.728V634.736C1103.02 635.083 1102.66 635.322 1102.14 635.322C1101.63 635.322 1101.32 635.107 1101.22 634.787L1101.21 634.783H1100.37V634.787C1100.45 635.498 1101.1 635.978 1102.12 635.978ZM1106.67 635.978C1107.76 635.978 1108.34 635.353 1108.48 634.794L1108.49 634.759L1107.68 634.763L1107.66 634.794C1107.56 635.013 1107.23 635.283 1106.69 635.283C1105.99 635.283 1105.55 634.81 1105.53 633.998H1108.54V633.701C1108.54 632.427 1107.81 631.572 1106.63 631.572C1105.45 631.572 1104.68 632.458 1104.68 633.783V633.787C1104.68 635.13 1105.43 635.978 1106.67 635.978ZM1106.63 632.267C1107.21 632.267 1107.63 632.634 1107.7 633.392H1105.54C1105.62 632.662 1106.05 632.267 1106.63 632.267ZM1109.55 635.896H1110.39V633.361C1110.39 632.748 1110.84 632.349 1111.48 632.349C1111.64 632.349 1111.79 632.369 1111.94 632.4V631.619C1111.86 631.599 1111.71 631.58 1111.57 631.58C1111 631.58 1110.61 631.845 1110.46 632.294H1110.39V631.654H1109.55V635.896ZM1112.81 635.896H1113.66V633.408C1113.66 632.724 1114.05 632.298 1114.67 632.298C1115.29 632.298 1115.58 632.646 1115.58 633.349V635.896H1116.43V633.15C1116.43 632.138 1115.9 631.572 1114.95 631.572C1114.34 631.572 1113.93 631.845 1113.72 632.298H1113.66V631.654H1112.81V635.896ZM1118.77 635.966C1119.34 635.966 1119.78 635.724 1120.03 635.294H1120.1V635.896H1120.94V632.994C1120.94 632.103 1120.34 631.572 1119.27 631.572C1118.3 631.572 1117.64 632.037 1117.54 632.732L1117.53 632.759H1118.35L1118.35 632.744C1118.45 632.443 1118.76 632.271 1119.23 632.271C1119.8 632.271 1120.1 632.529 1120.1 632.994V633.369L1118.95 633.435C1117.94 633.498 1117.37 633.939 1117.37 634.697V634.705C1117.37 635.474 1117.96 635.966 1118.77 635.966ZM1118.21 634.669V634.662C1118.21 634.279 1118.48 634.068 1119.06 634.033L1120.1 633.966V634.33C1120.1 634.876 1119.63 635.291 1119 635.291C1118.54 635.291 1118.21 635.06 1118.21 634.669ZM1122.13 635.896H1122.98V633.291C1122.98 632.736 1123.36 632.298 1123.87 632.298C1124.37 632.298 1124.69 632.603 1124.69 633.087V635.896H1125.53V633.212C1125.53 632.701 1125.89 632.298 1126.43 632.298C1126.98 632.298 1127.25 632.587 1127.25 633.173V635.896H1128.09V632.97C1128.09 632.087 1127.59 631.572 1126.73 631.572C1126.14 631.572 1125.66 631.873 1125.44 632.33H1125.38C1125.19 631.873 1124.78 631.572 1124.2 631.572C1123.64 631.572 1123.23 631.841 1123.04 632.306H1122.98V631.654H1122.13V635.896ZM1131.05 635.978C1132.14 635.978 1132.73 635.353 1132.87 634.794L1132.88 634.759L1132.06 634.763L1132.04 634.794C1131.94 635.013 1131.62 635.283 1131.07 635.283C1130.38 635.283 1129.93 634.81 1129.91 633.998H1132.92V633.701C1132.92 632.427 1132.2 631.572 1131.01 631.572C1129.83 631.572 1129.06 632.458 1129.06 633.783V633.787C1129.06 635.13 1129.81 635.978 1131.05 635.978ZM1131.02 632.267C1131.59 632.267 1132.02 632.634 1132.08 633.392H1129.93C1130 632.662 1130.44 632.267 1131.02 632.267Z" fill="#928F9A"/>
<rect x="1086" y="650.896" width="112" height="20" rx="4" fill="#DBD1EB"/>
<path d="M1094.71 663.896H1095.58V661.97H1096.9C1098.01 661.97 1098.77 661.216 1098.77 660.115V660.107C1098.77 659.001 1098.01 658.259 1096.9 658.259H1094.71V663.896ZM1096.68 658.998C1097.44 658.998 1097.88 659.408 1097.88 660.111V660.119C1097.88 660.826 1097.44 661.236 1096.68 661.236H1095.58V658.998H1096.68ZM1100.81 663.966C1101.38 663.966 1101.82 663.724 1102.07 663.294H1102.14V663.896H1102.98V660.994C1102.98 660.103 1102.38 659.572 1101.31 659.572C1100.34 659.572 1099.68 660.037 1099.57 660.732L1099.57 660.759H1100.39L1100.39 660.744C1100.49 660.443 1100.8 660.271 1101.27 660.271C1101.84 660.271 1102.14 660.529 1102.14 660.994V661.369L1100.99 661.435C1099.98 661.498 1099.41 661.939 1099.41 662.697V662.705C1099.41 663.474 1100 663.966 1100.81 663.966ZM1100.25 662.669V662.662C1100.25 662.279 1100.52 662.068 1101.1 662.033L1102.14 661.966V662.33C1102.14 662.876 1101.67 663.291 1101.04 663.291C1100.58 663.291 1100.25 663.06 1100.25 662.669ZM1105.71 663.978C1106.72 663.978 1107.47 663.443 1107.47 662.658V662.65C1107.47 662.037 1107.08 661.689 1106.27 661.498L1105.59 661.345C1105.12 661.232 1104.92 661.068 1104.92 660.802V660.794C1104.92 660.455 1105.26 660.224 1105.72 660.224C1106.2 660.224 1106.5 660.447 1106.58 660.744V660.751H1107.39V660.748C1107.32 660.056 1106.7 659.572 1105.73 659.572C1104.77 659.572 1104.08 660.103 1104.08 660.841V660.845C1104.08 661.466 1104.45 661.83 1105.25 662.013L1105.93 662.169C1106.42 662.283 1106.62 662.462 1106.62 662.728V662.736C1106.62 663.083 1106.25 663.322 1105.73 663.322C1105.23 663.322 1104.92 663.107 1104.81 662.787L1104.81 662.783H1103.96V662.787C1104.04 663.498 1104.69 663.978 1105.71 663.978ZM1109.95 663.978C1110.96 663.978 1111.71 663.443 1111.71 662.658V662.65C1111.71 662.037 1111.32 661.689 1110.5 661.498L1109.83 661.345C1109.35 661.232 1109.16 661.068 1109.16 660.802V660.794C1109.16 660.455 1109.49 660.224 1109.96 660.224C1110.43 660.224 1110.73 660.447 1110.82 660.744V660.751H1111.62V660.748C1111.55 660.056 1110.93 659.572 1109.96 659.572C1109 659.572 1108.31 660.103 1108.31 660.841V660.845C1108.31 661.466 1108.68 661.83 1109.48 662.013L1110.16 662.169C1110.65 662.283 1110.85 662.462 1110.85 662.728V662.736C1110.85 663.083 1110.49 663.322 1109.96 663.322C1109.46 663.322 1109.15 663.107 1109.05 662.787L1109.04 662.783H1108.2V662.787C1108.28 663.498 1108.93 663.978 1109.95 663.978ZM1113.42 663.896H1114.28L1115.16 660.732H1115.22L1116.1 663.896H1116.97L1118.14 659.654H1117.3L1116.54 662.927H1116.48L1115.6 659.654H1114.8L1113.92 662.927H1113.86L1113.1 659.654H1112.25L1113.42 663.896ZM1120.64 663.978C1121.88 663.978 1122.64 663.146 1122.64 661.779V661.771C1122.64 660.404 1121.88 659.572 1120.64 659.572C1119.4 659.572 1118.63 660.408 1118.63 661.771V661.779C1118.63 663.146 1119.39 663.978 1120.64 663.978ZM1120.64 663.271C1119.91 663.271 1119.5 662.72 1119.5 661.779V661.771C1119.5 660.83 1119.91 660.279 1120.64 660.279C1121.37 660.279 1121.78 660.83 1121.78 661.771V661.779C1121.78 662.716 1121.37 663.271 1120.64 663.271ZM1123.66 663.896H1124.5V661.361C1124.5 660.748 1124.95 660.349 1125.59 660.349C1125.75 660.349 1125.9 660.369 1126.05 660.4V659.619C1125.96 659.599 1125.82 659.58 1125.68 659.58C1125.11 659.58 1124.72 659.845 1124.57 660.294H1124.5V659.654H1123.66V663.896ZM1128.3 663.966C1128.89 663.966 1129.36 663.693 1129.6 663.228H1129.67V663.896H1130.51V657.99H1129.67V660.326H1129.6C1129.38 659.869 1128.88 659.58 1128.3 659.58C1127.22 659.58 1126.54 660.427 1126.54 661.771V661.779C1126.54 663.111 1127.23 663.966 1128.3 663.966ZM1128.54 663.244C1127.83 663.244 1127.4 662.689 1127.4 661.779V661.771C1127.4 660.861 1127.83 660.306 1128.54 660.306C1129.24 660.306 1129.68 660.865 1129.68 661.771V661.779C1129.68 662.685 1129.25 663.244 1128.54 663.244Z" fill="#928F9A"/>
<rect x="1086" y="700.896" width="112" height="20" rx="6" fill="#7958FF"/>
<path d="M1129.61 712.423C1129.68 713.396 1130.5 714.029 1131.7 714.029C1132.99 714.029 1133.8 713.369 1133.8 712.333C1133.8 711.505 1133.34 711.052 1132.17 710.759L1131.58 710.603C1130.8 710.404 1130.49 710.15 1130.49 709.708C1130.49 709.138 1130.99 708.763 1131.74 708.763C1132.44 708.763 1132.92 709.107 1133.02 709.685H1133.72C1133.66 708.775 1132.85 708.126 1131.76 708.126C1130.57 708.126 1129.77 708.775 1129.77 709.732C1129.77 710.533 1130.21 710.994 1131.23 711.251L1131.95 711.439C1132.73 711.634 1133.08 711.939 1133.08 712.419C1133.08 712.978 1132.52 713.388 1131.77 713.388C1130.96 713.388 1130.4 713.013 1130.32 712.423H1129.61ZM1134.91 713.896H1135.58V709.685H1134.91V713.896ZM1135.24 708.83C1135.5 708.83 1135.71 708.619 1135.71 708.361C1135.71 708.103 1135.5 707.892 1135.24 707.892C1134.98 707.892 1134.77 708.103 1134.77 708.361C1134.77 708.619 1134.98 708.83 1135.24 708.83ZM1138.56 713.24C1137.78 713.24 1137.34 712.646 1137.34 711.728C1137.34 710.81 1137.78 710.216 1138.56 710.216C1139.34 710.216 1139.81 710.81 1139.81 711.728C1139.81 712.646 1139.34 713.24 1138.56 713.24ZM1138.59 715.513C1139.74 715.513 1140.47 714.912 1140.47 713.97V709.685H1139.83V710.353H1139.77C1139.52 709.9 1139 709.611 1138.41 709.611C1137.33 709.611 1136.65 710.466 1136.65 711.728C1136.65 712.99 1137.32 713.833 1138.41 713.833C1138.99 713.833 1139.47 713.572 1139.73 713.107H1139.8V713.935C1139.8 714.556 1139.35 714.927 1138.59 714.927C1137.99 714.927 1137.61 714.705 1137.54 714.361H1136.83C1136.93 715.056 1137.58 715.513 1138.59 715.513ZM1141.73 713.896H1142.41V711.404C1142.41 710.666 1142.84 710.216 1143.51 710.216C1144.18 710.216 1144.5 710.576 1144.5 711.333V713.896H1145.18V711.169C1145.18 710.169 1144.65 709.611 1143.7 709.611C1143.06 709.611 1142.65 709.884 1142.44 710.349H1142.38V709.685H1141.73V713.896ZM1149.45 713.896V708.259H1148.75V713.896H1149.45ZM1150.8 713.896H1151.48V711.404C1151.48 710.666 1151.91 710.216 1152.58 710.216C1153.25 710.216 1153.57 710.576 1153.57 711.333V713.896H1154.25V711.169C1154.25 710.169 1153.72 709.611 1152.77 709.611C1152.13 709.611 1151.72 709.884 1151.51 710.349H1151.45V709.685H1150.8V713.896Z" fill="white"/>
<path d="M1096 691.896H1154.71M1183 691.896H1167.14" stroke="#D8D0E4" stroke-width="2" stroke-linecap="round"/>
<circle cx="1089" cy="691.896" r="2.2" fill="white" stroke="#CDC5DB" stroke-width="1.6"/>
<path d="M1112.52 809.045C1113.87 809.045 1114.87 808.294 1115.08 807.134V807.125H1114.28L1114.27 807.134C1114.07 807.863 1113.4 808.316 1112.52 808.316C1111.3 808.316 1110.53 807.318 1110.53 805.732V805.723C1110.53 804.137 1111.3 803.135 1112.51 803.135C1113.39 803.135 1114.06 803.649 1114.27 804.462L1114.28 804.471H1115.07L1115.08 804.462C1114.89 803.245 1113.85 802.405 1112.51 802.405C1110.79 802.405 1109.72 803.68 1109.72 805.723V805.732C1109.72 807.771 1110.79 809.045 1112.52 809.045ZM1116.31 808.896H1117.07V805.96C1117.07 805.266 1117.59 804.805 1118.32 804.805C1118.49 804.805 1118.63 804.822 1118.79 804.849V804.106C1118.72 804.093 1118.56 804.075 1118.41 804.075C1117.77 804.075 1117.32 804.365 1117.14 804.862H1117.07V804.159H1116.31V808.896ZM1121.54 808.979C1122.66 808.979 1123.33 808.347 1123.49 807.705L1123.5 807.67H1122.74L1122.72 807.709C1122.59 807.995 1122.2 808.298 1121.56 808.298C1120.71 808.298 1120.17 807.727 1120.15 806.747H1123.56V806.448C1123.56 805.033 1122.78 804.075 1121.49 804.075C1120.2 804.075 1119.37 805.077 1119.37 806.541V806.545C1119.37 808.03 1120.19 808.979 1121.54 808.979ZM1121.49 804.756C1122.19 804.756 1122.7 805.2 1122.78 806.136H1120.16C1120.25 805.235 1120.78 804.756 1121.49 804.756ZM1126.05 808.979C1126.69 808.979 1127.18 808.703 1127.48 808.197H1127.55V808.896H1128.32V805.653C1128.32 804.668 1127.67 804.075 1126.51 804.075C1125.5 804.075 1124.78 804.576 1124.66 805.319L1124.65 805.345H1125.42L1125.42 805.332C1125.55 804.963 1125.92 804.752 1126.49 804.752C1127.19 804.752 1127.55 805.068 1127.55 805.653V806.083L1126.19 806.167C1125.09 806.233 1124.47 806.721 1124.47 807.564V807.573C1124.47 808.435 1125.15 808.979 1126.05 808.979ZM1125.25 807.556V807.547C1125.25 807.077 1125.56 806.822 1126.29 806.778L1127.55 806.699V807.129C1127.55 807.806 1126.98 808.316 1126.21 808.316C1125.66 808.316 1125.25 808.035 1125.25 807.556ZM1131.4 808.931C1131.55 808.931 1131.69 808.914 1131.84 808.887V808.237C1131.7 808.25 1131.62 808.254 1131.49 808.254C1131 808.254 1130.8 808.03 1130.8 807.472V804.792H1131.84V804.159H1130.8V802.933H1130.01V804.159H1129.26V804.792H1130.01V807.666C1130.01 808.571 1130.42 808.931 1131.4 808.931ZM1134.85 808.979C1135.96 808.979 1136.64 808.347 1136.8 807.705L1136.81 807.67H1136.05L1136.03 807.709C1135.9 807.995 1135.5 808.298 1134.86 808.298C1134.02 808.298 1133.48 807.727 1133.46 806.747H1136.87V806.448C1136.87 805.033 1136.08 804.075 1134.8 804.075C1133.51 804.075 1132.67 805.077 1132.67 806.541V806.545C1132.67 808.03 1133.49 808.979 1134.85 808.979ZM1134.79 804.756C1135.49 804.756 1136.01 805.2 1136.09 806.136H1133.47C1133.55 805.235 1134.09 804.756 1134.79 804.756ZM1140.18 808.896H1141.01L1141.64 807.081H1144.17L1144.8 808.896H1145.63L1143.3 802.555H1142.51L1140.18 808.896ZM1142.87 803.579H1142.94L1143.93 806.409H1141.88L1142.87 803.579ZM1148.32 808.979C1149.46 808.979 1150.1 808.369 1150.29 807.512L1150.3 807.463L1149.55 807.468L1149.54 807.494C1149.36 808.021 1148.96 808.303 1148.32 808.303C1147.48 808.303 1146.93 807.604 1146.93 806.514V806.505C1146.93 805.438 1147.47 804.752 1148.32 804.752C1149 804.752 1149.42 805.13 1149.54 805.596L1149.55 805.609H1150.31L1150.3 805.583C1150.16 804.739 1149.47 804.075 1148.32 804.075C1146.99 804.075 1146.15 805.033 1146.15 806.505V806.514C1146.15 808.017 1147 808.979 1148.32 808.979ZM1153.36 808.979C1154.5 808.979 1155.14 808.369 1155.33 807.512L1155.34 807.463L1154.58 807.468L1154.57 807.494C1154.4 808.021 1153.99 808.303 1153.36 808.303C1152.51 808.303 1151.97 807.604 1151.97 806.514V806.505C1151.97 805.438 1152.5 804.752 1153.36 804.752C1154.04 804.752 1154.46 805.13 1154.58 805.596L1154.58 805.609H1155.34L1155.34 805.583C1155.2 804.739 1154.51 804.075 1153.36 804.075C1152.03 804.075 1151.18 805.033 1151.18 806.505V806.514C1151.18 808.017 1152.03 808.979 1153.36 808.979ZM1158.4 808.979C1159.75 808.979 1160.59 808.048 1160.59 806.532V806.523C1160.59 805.002 1159.75 804.075 1158.4 804.075C1157.06 804.075 1156.22 805.002 1156.22 806.523V806.532C1156.22 808.048 1157.06 808.979 1158.4 808.979ZM1158.4 808.303C1157.51 808.303 1157 807.648 1157 806.532V806.523C1157 805.402 1157.51 804.752 1158.4 804.752C1159.3 804.752 1159.81 805.402 1159.81 806.523V806.532C1159.81 807.648 1159.3 808.303 1158.4 808.303ZM1163.36 808.979C1164.06 808.979 1164.54 808.694 1164.77 808.188H1164.84V808.896H1165.6V804.159H1164.84V806.962C1164.84 807.793 1164.39 808.303 1163.56 808.303C1162.8 808.303 1162.5 807.894 1162.5 807.042V804.159H1161.73V807.226C1161.73 808.347 1162.29 808.979 1163.36 808.979ZM1167.03 808.896H1167.8V806.092C1167.8 805.262 1168.27 804.752 1169.03 804.752C1169.79 804.752 1170.14 805.161 1170.14 806.013V808.896H1170.9V805.829C1170.9 804.704 1170.31 804.075 1169.25 804.075C1168.55 804.075 1168.1 804.37 1167.87 804.871H1167.8V804.159H1167.03V808.896ZM1173.97 808.931C1174.12 808.931 1174.26 808.914 1174.41 808.887V808.237C1174.27 808.25 1174.2 808.254 1174.06 808.254C1173.57 808.254 1173.38 808.03 1173.38 807.472V804.792H1174.41V804.159H1173.38V802.933H1172.59V804.159H1171.84V804.792H1172.59V807.666C1172.59 808.571 1172.99 808.931 1173.97 808.931Z" fill="#7958FF"/>
<circle cx="804" cy="512.896" r="8" fill="#FF897A"/>
<circle cx="832" cy="512.896" r="8" fill="#F4E560"/>
<circle cx="860" cy="512.896" r="8" fill="#83DA85"/>
<path d="M797.237 593.896H801.291C803.396 593.896 804.661 592.843 804.661 591.114V591.1C804.661 589.815 803.772 588.872 802.439 588.728V588.612C803.41 588.448 804.169 587.525 804.169 586.5V586.486C804.169 584.975 803.055 584.032 801.202 584.032H797.237V593.896ZM800.847 585.283C801.981 585.283 802.645 585.823 802.645 586.752V586.766C802.645 587.723 801.94 588.229 800.587 588.229H798.769V585.283H800.847ZM800.895 589.398C802.337 589.398 803.096 589.945 803.096 591.004V591.018C803.096 592.078 802.364 592.645 800.983 592.645H798.769V589.398H800.895ZM806.459 593.896H807.942V589.459C807.942 588.386 808.715 587.689 809.85 587.689C810.13 587.689 810.383 587.723 810.649 587.778V586.411C810.499 586.376 810.239 586.342 810 586.342C809.009 586.342 808.318 586.807 808.052 587.593H807.942V586.472H806.459V593.896ZM814.047 594.019C815.031 594.019 815.811 593.595 816.248 592.843H816.364V593.896H817.834V588.817C817.834 587.258 816.781 586.329 814.915 586.329C813.227 586.329 812.058 587.142 811.88 588.359L811.873 588.407H813.302L813.309 588.379C813.486 587.853 814.026 587.552 814.847 587.552C815.852 587.552 816.364 588.003 816.364 588.817V589.473L814.354 589.589C812.584 589.699 811.586 590.471 811.586 591.797V591.811C811.586 593.158 812.632 594.019 814.047 594.019ZM813.062 591.75V591.736C813.062 591.066 813.527 590.697 814.553 590.635L816.364 590.519V591.155C816.364 592.112 815.551 592.836 814.443 592.836C813.644 592.836 813.062 592.433 813.062 591.75ZM819.926 593.896H821.409V589.542C821.409 588.345 822.086 587.6 823.173 587.6C824.26 587.6 824.772 588.208 824.772 589.439V593.896H826.249V589.09C826.249 587.32 825.333 586.329 823.672 586.329C822.592 586.329 821.881 586.807 821.519 587.6H821.409V586.472H819.926V593.896ZM831.027 594.019C832.066 594.019 832.88 593.541 833.311 592.727H833.427V593.896H834.903V583.56H833.427V587.648H833.311C832.914 586.848 832.046 586.342 831.027 586.342C829.141 586.342 827.951 587.826 827.951 590.177V590.191C827.951 592.522 829.161 594.019 831.027 594.019ZM831.451 592.754C830.207 592.754 829.462 591.784 829.462 590.191V590.177C829.462 588.584 830.207 587.614 831.451 587.614C832.682 587.614 833.447 588.591 833.447 590.177V590.191C833.447 591.777 832.688 592.754 831.451 592.754ZM844.063 594.04C845.902 594.04 846.962 593.048 847.229 591.606L847.242 591.544H845.82L845.807 591.579C845.567 592.378 844.993 592.802 844.063 592.802C842.84 592.802 842.081 591.804 842.081 590.164V590.15C842.081 588.55 842.826 587.566 844.063 587.566C845.048 587.566 845.649 588.113 845.813 588.844L845.82 588.865L847.242 588.858V588.824C847.037 587.381 845.923 586.329 844.057 586.329C841.89 586.329 840.57 587.798 840.57 590.15V590.164C840.57 592.563 841.896 594.04 844.063 594.04ZM852.068 594.04C854.242 594.04 855.575 592.583 855.575 590.191V590.177C855.575 587.785 854.235 586.329 852.068 586.329C849.895 586.329 848.555 587.792 848.555 590.177V590.191C848.555 592.583 849.888 594.04 852.068 594.04ZM852.068 592.802C850.79 592.802 850.072 591.838 850.072 590.191V590.177C850.072 588.53 850.79 587.566 852.068 587.566C853.34 587.566 854.064 588.53 854.064 590.177V590.191C854.064 591.832 853.34 592.802 852.068 592.802ZM857.414 593.896H858.897V583.56H857.414V593.896ZM864.25 594.04C866.424 594.04 867.757 592.583 867.757 590.191V590.177C867.757 587.785 866.417 586.329 864.25 586.329C862.076 586.329 860.736 587.792 860.736 590.177V590.191C860.736 592.583 862.069 594.04 864.25 594.04ZM864.25 592.802C862.972 592.802 862.254 591.838 862.254 590.191V590.177C862.254 588.53 862.972 587.566 864.25 587.566C865.521 587.566 866.246 588.53 866.246 590.177V590.191C866.246 591.832 865.521 592.802 864.25 592.802ZM869.527 593.896H871.011V589.459C871.011 588.386 871.783 587.689 872.918 587.689C873.198 587.689 873.451 587.723 873.718 587.778V586.411C873.567 586.376 873.308 586.342 873.068 586.342C872.077 586.342 871.387 586.807 871.12 587.593H871.011V586.472H869.527V593.896Z" fill="#191C1D"/>
<rect x="796.5" y="602.396" width="243" height="37" rx="5.5" fill="#BFB5D0"/>
<rect x="804" y="608.896" width="24" height="24" rx="4" fill="#7958FF"/>
<rect x="796.5" y="602.396" width="243" height="37" rx="5.5" stroke="#B5AAC8"/>
<rect x="843" y="612.896" width="68" height="12" rx="4" fill="#F7F8F8"/>
<rect x="843" y="612.896" width="68" height="12" rx="4" fill="#78767F" fill-opacity="0.02"/>
<rect x="843" y="612.896" width="68" height="12" rx="4" fill="#5D34F2" fill-opacity="0.16"/>
<path d="M797.237 666.896H803.499V665.577H798.769V662.507H803.246V661.236H798.769V658.351H803.499V657.032H797.237V666.896ZM805.543 666.896H807.026V662.542C807.026 661.345 807.703 660.6 808.79 660.6C809.877 660.6 810.39 661.208 810.39 662.439V666.896H811.866V662.09C811.866 660.32 810.95 659.329 809.289 659.329C808.209 659.329 807.498 659.807 807.136 660.6H807.026V659.472H805.543V666.896ZM815.975 667.019C816.959 667.019 817.738 666.595 818.176 665.843H818.292V666.896H819.762V661.817C819.762 660.258 818.709 659.329 816.843 659.329C815.154 659.329 813.985 660.142 813.808 661.359L813.801 661.407H815.229L815.236 661.379C815.414 660.853 815.954 660.552 816.774 660.552C817.779 660.552 818.292 661.003 818.292 661.817V662.473L816.282 662.589C814.512 662.699 813.514 663.471 813.514 664.797V664.811C813.514 666.158 814.56 667.019 815.975 667.019ZM814.99 664.75V664.736C814.99 664.066 815.455 663.697 816.48 663.635L818.292 663.519V664.155C818.292 665.112 817.479 665.836 816.371 665.836C815.571 665.836 814.99 665.433 814.99 664.75ZM825.798 667.019C827.671 667.019 828.874 665.522 828.874 663.191V663.177C828.874 660.826 827.685 659.342 825.798 659.342C824.779 659.342 823.911 659.848 823.515 660.648H823.405V656.56H821.922V666.896H823.405V665.727H823.515C823.945 666.541 824.759 667.019 825.798 667.019ZM825.381 665.754C824.144 665.754 823.378 664.777 823.378 663.191V663.177C823.378 661.591 824.144 660.614 825.381 660.614C826.618 660.614 827.363 661.584 827.363 663.177V663.191C827.363 664.784 826.618 665.754 825.381 665.754ZM830.713 666.896H832.196V656.56H830.713V666.896ZM837.521 667.04C839.422 667.04 840.447 665.946 840.693 664.968L840.707 664.907L839.278 664.914L839.251 664.968C839.073 665.351 838.506 665.823 837.556 665.823C836.332 665.823 835.553 664.996 835.525 663.574H840.789V663.054C840.789 660.826 839.518 659.329 837.446 659.329C835.375 659.329 834.035 660.88 834.035 663.198V663.205C834.035 665.556 835.348 667.04 837.521 667.04ZM837.453 660.545C838.458 660.545 839.203 661.188 839.319 662.514H835.546C835.676 661.236 836.441 660.545 837.453 660.545ZM846.552 666.896H850.113C853.053 666.896 854.755 665.078 854.755 661.947V661.933C854.755 658.836 853.039 657.032 850.113 657.032H846.552V666.896ZM848.083 665.577V658.351H849.942C851.986 658.351 853.196 659.684 853.196 661.954V661.967C853.196 664.257 852.007 665.577 849.942 665.577H848.083ZM858.672 667.019C859.656 667.019 860.436 666.595 860.873 665.843H860.989V666.896H862.459V661.817C862.459 660.258 861.406 659.329 859.54 659.329C857.852 659.329 856.683 660.142 856.505 661.359L856.498 661.407H857.927L857.934 661.379C858.111 660.853 858.651 660.552 859.472 660.552C860.477 660.552 860.989 661.003 860.989 661.817V662.473L858.979 662.589C857.209 662.699 856.211 663.471 856.211 664.797V664.811C856.211 666.158 857.257 667.019 858.672 667.019ZM857.688 664.75V664.736C857.688 664.066 858.152 663.697 859.178 663.635L860.989 663.519V664.155C860.989 665.112 860.176 665.836 859.068 665.836C858.269 665.836 857.688 665.433 857.688 664.75ZM864.551 666.896H866.034V662.459C866.034 661.386 866.807 660.689 867.941 660.689C868.222 660.689 868.475 660.723 868.741 660.778V659.411C868.591 659.376 868.331 659.342 868.092 659.342C867.101 659.342 866.41 659.807 866.144 660.593H866.034V659.472H864.551V666.896ZM870.225 666.896H871.708V664.196L872.344 663.56L874.9 666.896H876.705L873.403 662.603L876.5 659.472H874.764L871.817 662.603H871.708V656.56H870.225V666.896ZM882.058 666.896H883.452V659.657H883.562L886.453 666.896H887.588L890.486 659.657H890.589V666.896H891.983V657.032H890.22L887.075 664.9H886.966L883.821 657.032H882.058V666.896ZM897.432 667.04C899.605 667.04 900.938 665.583 900.938 663.191V663.177C900.938 660.785 899.599 659.329 897.432 659.329C895.258 659.329 893.918 660.792 893.918 663.177V663.191C893.918 665.583 895.251 667.04 897.432 667.04ZM897.432 665.802C896.153 665.802 895.436 664.838 895.436 663.191V663.177C895.436 661.53 896.153 660.566 897.432 660.566C898.703 660.566 899.428 661.53 899.428 663.177V663.191C899.428 664.832 898.703 665.802 897.432 665.802ZM905.416 667.019C906.455 667.019 907.269 666.541 907.699 665.727H907.815V666.896H909.292V656.56H907.815V660.648H907.699C907.303 659.848 906.435 659.342 905.416 659.342C903.529 659.342 902.34 660.826 902.34 663.177V663.191C902.34 665.522 903.55 667.019 905.416 667.019ZM905.84 665.754C904.596 665.754 903.851 664.784 903.851 663.191V663.177C903.851 661.584 904.596 660.614 905.84 660.614C907.07 660.614 907.836 661.591 907.836 663.177V663.191C907.836 664.777 907.077 665.754 905.84 665.754ZM914.617 667.04C916.518 667.04 917.543 665.946 917.789 664.968L917.803 664.907L916.374 664.914L916.347 664.968C916.169 665.351 915.602 665.823 914.651 665.823C913.428 665.823 912.648 664.996 912.621 663.574H917.885V663.054C917.885 660.826 916.613 659.329 914.542 659.329C912.471 659.329 911.131 660.88 911.131 663.198V663.205C911.131 665.556 912.443 667.04 914.617 667.04ZM914.549 660.545C915.554 660.545 916.299 661.188 916.415 662.514H912.642C912.771 661.236 913.537 660.545 914.549 660.545Z" fill="#191C1D"/>
<rect x="813" y="695.896" width="161" height="16" rx="4" fill="#F7F8F8"/>
<rect x="813" y="695.896" width="161" height="16" rx="4" fill="#78767F" fill-opacity="0.02"/>
<rect x="813" y="695.896" width="161" height="16" rx="4" fill="#BFB5D0"/>
<g clip-path="url(#clip0_6227_219220)">
<rect x="982" y="691.896" width="39.5098" height="24" rx="12" fill="#ADAAB4"/>
<g filter="url(#filter6_d_6227_219220)">
<rect x="983.95" y="693.896" width="19.5" height="20" rx="9.75" fill="white"/>
</g>
</g>
<rect x="797.5" y="676.396" width="241" height="55" rx="7.5" stroke="#B5AAC8"/>
<rect x="460" y="754.896" width="96" height="96" rx="19.2" fill="#646073"/>
<path d="M508 770.896H512.8C517.218 770.896 520.8 774.478 520.8 778.896V778.896C520.8 783.314 517.218 786.896 512.8 786.896H508V770.896Z" fill="#DD9EE1"/>
<path fill-rule="evenodd" clip-rule="evenodd" d="M479.2 754.896C468.596 754.896 460 763.492 460 774.096V802.896H476V798.096C476 793.678 479.582 790.096 484 790.096C488.418 790.096 492 793.678 492 798.096V802.896H508V754.896H479.2Z" fill="#DD9EE1"/>
<path fill-rule="evenodd" clip-rule="evenodd" d="M508.001 802.896H524.001V807.696C524.001 812.114 527.583 815.696 532.001 815.696C536.419 815.696 540.001 812.114 540.001 807.696V802.896H556.001V831.696C556.001 842.3 547.405 850.896 536.801 850.896H508.001V834.896H503.201C498.783 834.896 495.201 831.314 495.201 826.896C495.201 822.478 498.783 818.896 503.201 818.896H508.001V802.896Z" fill="#AF9EFF"/>
<path d="M679 790.896C648.2 791.296 634.833 831.063 632 850.896H900C888 840.063 858.9 821.496 838.5 833.896C813 849.396 815.5 827.896 781.5 812.396C747.5 796.896 746 827.896 731.5 827.896C717 827.896 717.5 790.396 679 790.896Z" fill="url(#paint10_linear_6227_219220)"/>
<g filter="url(#filter7_b_6227_219220)">
<rect x="1018" y="203.896" width="128" height="128" rx="32" fill="#191C1D"/>
<rect x="1018" y="203.896" width="128" height="128" rx="32" fill="#C4C7C7" fill-opacity="0.02"/>
<rect x="1018" y="203.896" width="128" height="128" rx="32" fill="#CABEFF" fill-opacity="0.16"/>
</g>
<path fill-rule="evenodd" clip-rule="evenodd" d="M1093.23 260.064C1092.96 260.049 1092.69 260.046 1092.42 260.046C1082.84 260.046 1075.07 266.559 1075.07 274.597C1075.07 275.913 1075.28 277.187 1075.67 278.399C1075.25 278.421 1074.82 278.438 1074.39 278.438C1072.28 278.438 1070.25 278.153 1068.36 277.626C1068.25 277.594 1068.04 277.532 1068.04 277.532L1061.15 281.041L1062.99 275.274C1062.99 275.274 1062.87 275.2 1062.81 275.163C1058.27 272.251 1055.33 267.663 1055.33 262.501C1055.33 253.699 1063.86 246.563 1074.39 246.563C1083.92 246.563 1091.82 252.415 1093.23 260.064ZM1067.76 259.604C1066.28 259.604 1065.08 258.442 1065.08 257.012C1065.08 255.58 1066.28 254.422 1067.76 254.422C1069.24 254.422 1070.44 255.58 1070.44 257.012C1070.44 258.442 1069.24 259.604 1067.76 259.604ZM1081.02 254.422C1082.5 254.422 1083.7 255.58 1083.7 257.012C1083.7 258.442 1082.5 259.604 1081.02 259.604C1079.54 259.604 1078.35 258.442 1078.35 257.012C1078.35 255.58 1079.54 254.422 1081.02 254.422Z" fill="#58C457"/>
<path fill-rule="evenodd" clip-rule="evenodd" d="M1092.57 288.159C1083.68 288.159 1076.47 282.13 1076.47 274.692C1076.47 267.258 1083.68 261.229 1092.57 261.229C1101.46 261.229 1108.67 267.258 1108.67 274.692C1108.67 279.055 1106.19 282.93 1102.35 285.39L1102.2 285.482L1103.75 290.357L1097.94 287.39C1097.94 287.39 1097.75 287.445 1097.66 287.469C1096.06 287.916 1094.35 288.159 1092.57 288.159ZM1084.71 270.053C1084.71 268.847 1085.72 267.867 1086.97 267.867C1088.22 267.867 1089.23 268.847 1089.23 270.053C1089.23 271.265 1088.22 272.247 1086.97 272.247C1085.72 272.247 1084.71 271.265 1084.71 270.053ZM1095.91 270.053C1095.91 268.847 1096.92 267.867 1098.17 267.867C1099.42 267.867 1100.43 268.847 1100.43 270.053C1100.43 271.265 1099.42 272.247 1098.17 272.247C1096.92 272.247 1095.91 271.265 1095.91 270.053Z" fill="#58C457"/>
<path d="M1251 315.075C1242.71 315.075 1238.78 307.568 1238.78 301C1238.78 307.568 1235.29 315.075 1227 315.075C1235.29 315.075 1238.78 319.704 1238.78 330.714C1238.78 319.704 1242.71 315.075 1251 315.075Z" fill="#AF9EFF"/>
<path d="M1005 418.474C992.564 418.474 986.673 407.021 986.673 397C986.673 407.021 981.436 418.474 969 418.474C981.436 418.474 986.673 425.536 986.673 442.333C986.673 425.536 992.564 418.474 1005 418.474Z" fill="#ADAAB4"/>
<defs>
<filter id="filter0_b_6227_219220" x="817" y="275.896" width="424" height="424" filterUnits="userSpaceOnUse" color-interpolation-filters="sRGB">
<feFlood flood-opacity="0" result="BackgroundImageFix"/>
<feGaussianBlur in="BackgroundImage" stdDeviation="6"/>
<feComposite in2="SourceAlpha" operator="in" result="effect1_backgroundBlur_6227_219220"/>
<feBlend mode="normal" in="SourceGraphic" in2="effect1_backgroundBlur_6227_219220" result="shape"/>
</filter>
<filter id="filter1_d_6227_219220" x="699.125" y="630.396" width="3.25" height="3.25" filterUnits="userSpaceOnUse" color-interpolation-filters="sRGB">
<feFlood flood-opacity="0" result="BackgroundImageFix"/>
<feColorMatrix in="SourceAlpha" type="matrix" values="0 0 0 0 0 0 0 0 0 0 0 0 0 0 0 0 0 0 127 0" result="hardAlpha"/>
<feOffset dy="0.125"/>
<feGaussianBlur stdDeviation="0.0625"/>
<feComposite in2="hardAlpha" operator="out"/>
<feColorMatrix type="matrix" values="0 0 0 0 0.104304 0 0 0 0 0.0825 0 0 0 0 0.2 0 0 0 0.02 0"/>
<feBlend mode="normal" in2="BackgroundImageFix" result="effect1_dropShadow_6227_219220"/>
<feBlend mode="normal" in="SourceGraphic" in2="effect1_dropShadow_6227_219220" result="shape"/>
</filter>
<filter id="filter2_d_6227_219220" x="699.5" y="631.271" width="2.25" height="4.875" filterUnits="userSpaceOnUse" color-interpolation-filters="sRGB">
<feFlood flood-opacity="0" result="BackgroundImageFix"/>
<feColorMatrix in="SourceAlpha" type="matrix" values="0 0 0 0 0 0 0 0 0 0 0 0 0 0 0 0 0 0 127 0" result="hardAlpha"/>
<feOffset dx="-0.125" dy="0.5"/>
<feGaussianBlur stdDeviation="0.1875"/>
<feComposite in2="hardAlpha" operator="out"/>
<feColorMatrix type="matrix" values="0 0 0 0 0.104304 0 0 0 0 0.0825 0 0 0 0 0.2 0 0 0 0.08 0"/>
<feBlend mode="normal" in2="BackgroundImageFix" result="effect1_dropShadow_6227_219220"/>
<feBlend mode="normal" in="SourceGraphic" in2="effect1_dropShadow_6227_219220" result="shape"/>
</filter>
<filter id="filter3_b_6227_219220" x="1138" y="354.896" width="272" height="512" filterUnits="userSpaceOnUse" color-interpolation-filters="sRGB">
<feFlood flood-opacity="0" result="BackgroundImageFix"/>
<feGaussianBlur in="BackgroundImage" stdDeviation="8"/>
<feComposite in2="SourceAlpha" operator="in" result="effect1_backgroundBlur_6227_219220"/>
<feBlend mode="normal" in="SourceGraphic" in2="effect1_backgroundBlur_6227_219220" result="shape"/>
</filter>
<filter id="filter4_d_6227_219220" x="1274.16" y="450.021" width="4.0625" height="4.0625" filterUnits="userSpaceOnUse" color-interpolation-filters="sRGB">
<feFlood flood-opacity="0" result="BackgroundImageFix"/>
<feColorMatrix in="SourceAlpha" type="matrix" values="0 0 0 0 0 0 0 0 0 0 0 0 0 0 0 0 0 0 127 0" result="hardAlpha"/>
<feOffset dy="0.15625"/>
<feGaussianBlur stdDeviation="0.078125"/>
<feComposite in2="hardAlpha" operator="out"/>
<feColorMatrix type="matrix" values="0 0 0 0 0.104304 0 0 0 0 0.0825 0 0 0 0 0.2 0 0 0 0.02 0"/>
<feBlend mode="normal" in2="BackgroundImageFix" result="effect1_dropShadow_6227_219220"/>
<feBlend mode="normal" in="SourceGraphic" in2="effect1_dropShadow_6227_219220" result="shape"/>
</filter>
<filter id="filter5_d_6227_219220" x="1274.62" y="451.115" width="2.8125" height="6.09375" filterUnits="userSpaceOnUse" color-interpolation-filters="sRGB">
<feFlood flood-opacity="0" result="BackgroundImageFix"/>
<feColorMatrix in="SourceAlpha" type="matrix" values="0 0 0 0 0 0 0 0 0 0 0 0 0 0 0 0 0 0 127 0" result="hardAlpha"/>
<feOffset dx="-0.15625" dy="0.625"/>
<feGaussianBlur stdDeviation="0.234375"/>
<feComposite in2="hardAlpha" operator="out"/>
<feColorMatrix type="matrix" values="0 0 0 0 0.104304 0 0 0 0 0.0825 0 0 0 0 0.2 0 0 0 0.08 0"/>
<feBlend mode="normal" in2="BackgroundImageFix" result="effect1_dropShadow_6227_219220"/>
<feBlend mode="normal" in="SourceGraphic" in2="effect1_dropShadow_6227_219220" result="shape"/>
</filter>
<filter id="filter6_d_6227_219220" x="976.95" y="689.896" width="33.5" height="34" filterUnits="userSpaceOnUse" color-interpolation-filters="sRGB">
<feFlood flood-opacity="0" result="BackgroundImageFix"/>
<feColorMatrix in="SourceAlpha" type="matrix" values="0 0 0 0 0 0 0 0 0 0 0 0 0 0 0 0 0 0 127 0" result="hardAlpha"/>
<feOffset dy="3"/>
<feGaussianBlur stdDeviation="3.5"/>
<feColorMatrix type="matrix" values="0 0 0 0 0 0 0 0 0 0 0 0 0 0 0 0 0 0 0.12 0"/>
<feBlend mode="normal" in2="BackgroundImageFix" result="effect1_dropShadow_6227_219220"/>
<feBlend mode="normal" in="SourceGraphic" in2="effect1_dropShadow_6227_219220" result="shape"/>
</filter>
<filter id="filter7_b_6227_219220" x="1014" y="199.896" width="136" height="136" filterUnits="userSpaceOnUse" color-interpolation-filters="sRGB">
<feFlood flood-opacity="0" result="BackgroundImageFix"/>
<feGaussianBlur in="BackgroundImage" stdDeviation="2"/>
<feComposite in2="SourceAlpha" operator="in" result="effect1_backgroundBlur_6227_219220"/>
<feBlend mode="normal" in="SourceGraphic" in2="effect1_backgroundBlur_6227_219220" result="shape"/>
</filter>
<linearGradient id="paint0_linear_6227_219220" x1="1424.5" y1="713.896" x2="225.5" y2="820.396" gradientUnits="userSpaceOnUse">
<stop stop-color="#323145"/>
<stop offset="0.786458" stop-color="#44445B" stop-opacity="0.649583"/>
<stop offset="1" stop-color="#363541" stop-opacity="0"/>
</linearGradient>
<linearGradient id="paint1_linear_6227_219220" x1="1083" y1="270.396" x2="931.5" y2="560.896" gradientUnits="userSpaceOnUse">
<stop stop-color="#3C3D52"/>
<stop offset="1" stop-color="#2A2C32"/>
</linearGradient>
<linearGradient id="paint2_linear_6227_219220" x1="687.813" y1="632.771" x2="711.078" y2="625.328" gradientUnits="userSpaceOnUse">
<stop stop-color="#FFF06A"/>
<stop offset="1" stop-color="#EC78FF"/>
</linearGradient>
<linearGradient id="paint3_linear_6227_219220" x1="685.813" y1="634.083" x2="706.125" y2="629.708" gradientUnits="userSpaceOnUse">
<stop stop-color="#492EF3"/>
<stop offset="1" stop-color="#CF69FF"/>
</linearGradient>
<linearGradient id="paint4_linear_6227_219220" x1="700.75" y1="630.396" x2="700.125" y2="633.396" gradientUnits="userSpaceOnUse">
<stop stop-color="#E1BFFF"/>
<stop offset="1" stop-color="#AF68EE"/>
</linearGradient>
<linearGradient id="paint5_linear_6227_219220" x1="700.75" y1="631.271" x2="698.978" y2="634.46" gradientUnits="userSpaceOnUse">
<stop stop-color="#F8F2FF"/>
<stop offset="1" stop-color="#D185F5"/>
</linearGradient>
<linearGradient id="paint6_linear_6227_219220" x1="1260.02" y1="452.99" x2="1289.1" y2="443.686" gradientUnits="userSpaceOnUse">
<stop stop-color="#FFF06A"/>
<stop offset="1" stop-color="#EC78FF"/>
</linearGradient>
<linearGradient id="paint7_linear_6227_219220" x1="1257.52" y1="454.63" x2="1282.91" y2="449.162" gradientUnits="userSpaceOnUse">
<stop stop-color="#492EF3"/>
<stop offset="1" stop-color="#CF69FF"/>
</linearGradient>
<linearGradient id="paint8_linear_6227_219220" x1="1276.19" y1="450.021" x2="1275.41" y2="453.771" gradientUnits="userSpaceOnUse">
<stop stop-color="#E1BFFF"/>
<stop offset="1" stop-color="#AF68EE"/>
</linearGradient>
<linearGradient id="paint9_linear_6227_219220" x1="1276.19" y1="451.115" x2="1273.97" y2="455.101" gradientUnits="userSpaceOnUse">
<stop stop-color="#F8F2FF"/>
<stop offset="1" stop-color="#D185F5"/>
</linearGradient>
<linearGradient id="paint10_linear_6227_219220" x1="707.5" y1="820.896" x2="921.5" y2="846.396" gradientUnits="userSpaceOnUse">
<stop stop-color="#8A85AB"/>
<stop offset="1" stop-color="#ADA6D9" stop-opacity="0"/>
</linearGradient>
<clipPath id="clip0_6227_219220">
<path d="M982 703.896C982 697.269 987.373 691.896 994 691.896H1009C1015.63 691.896 1021 697.269 1021 703.896V703.896C1021 710.523 1015.63 715.896 1009 715.896H994C987.373 715.896 982 710.523 982 703.896V703.896Z" fill="white"/>
</clipPath>
</defs>
</svg>
