<svg width="40" height="40" viewBox="0 0 40 40" fill="none" xmlns="http://www.w3.org/2000/svg">
<path d="M29.6869 37.5024C29.5381 37.5812 29.5506 37.6062 29.6931 37.5337C29.7394 37.5149 29.7781 37.4887 29.8119 37.4574C29.8119 37.4312 29.8119 37.4312 29.6869 37.5024ZM29.9869 37.3399C29.9156 37.3987 29.9156 37.3987 30.0006 37.3599C30.0456 37.3337 30.0856 37.3087 30.0856 37.3012C30.0856 37.2674 30.0656 37.2749 29.9869 37.3399ZM30.1819 37.2224C30.1106 37.2812 30.1106 37.2812 30.1956 37.2424C30.2419 37.2162 30.2806 37.1887 30.2806 37.1824C30.2806 37.1512 30.2606 37.1574 30.1819 37.2224ZM30.3794 37.1062C30.3081 37.1649 30.3081 37.1649 30.3906 37.1249C30.4369 37.0999 30.4756 37.0737 30.4756 37.0662C30.4756 37.0349 30.4556 37.0412 30.3794 37.1062ZM30.6456 36.9299C30.5094 37.0212 30.4619 37.0799 30.5869 37.0149C30.6706 36.9637 30.8131 36.8512 30.7881 36.8512C30.7344 36.8712 30.6894 36.9049 30.6444 36.9299H30.6456ZM18.6916 0.00918773C18.6004 0.0154379 18.3266 0.0404384 18.0866 0.0604388C12.4015 0.575449 7.08265 3.63551 3.71133 8.34936C1.84754 10.9332 0.637513 13.9345 0.181254 17.0858C0.0200004 18.1858 0 18.5108 0 20.0021C0 21.4921 0.0200004 21.8121 0.181254 22.9121C1.27003 30.4261 6.61514 36.7337 13.8603 39.0712C15.1641 39.4875 16.5303 39.775 18.0866 39.9512C18.6916 40.0163 21.3079 40.0163 21.913 39.9512C24.603 39.6512 26.8743 38.9875 29.1219 37.8412C29.4669 37.6662 29.5319 37.62 29.4856 37.5812C28.3856 36.1299 27.3056 34.6774 26.2243 33.2124L23.028 28.896L19.0241 22.9646C17.6891 20.9796 16.3491 18.9996 14.9878 17.0345C14.9741 17.0345 14.9566 19.6708 14.9491 22.8859C14.9353 28.5173 14.9353 28.746 14.8641 28.876C14.7928 29.0323 14.6753 29.1623 14.5191 29.2348C14.3953 29.2935 14.284 29.306 13.6928 29.306H13.0165L12.8403 29.196C12.7303 29.1248 12.639 29.026 12.5803 28.9098L12.4953 28.7335L12.5015 20.8946L12.5153 13.0557L12.639 12.8994C12.7178 12.8032 12.8153 12.7244 12.9253 12.6657C13.089 12.5869 13.154 12.5744 13.8303 12.5744C14.6241 12.5744 14.7553 12.6057 14.9641 12.8344C16.5841 15.2495 18.1991 17.6708 19.7879 20.0996C22.3867 24.0397 25.9343 29.416 27.6781 32.0536L30.8494 36.8524L31.0056 36.7487C32.5294 35.7324 33.9157 34.5224 35.112 33.1424C37.632 30.2573 39.2671 26.7085 39.8208 22.9209C39.9821 21.8209 40.0021 21.4946 40.0021 20.0046C40.0021 18.5133 39.9821 18.1945 39.8208 17.0945C38.7321 9.58063 33.3869 3.273 26.1418 0.934207C24.7868 0.505448 23.393 0.212942 21.9817 0.0629388C21.6029 0.024188 19.0179 -0.0220629 18.6929 0.0116878L18.6916 0.00918773ZM26.8756 12.1057C27.0643 12.1957 27.2068 12.3657 27.2718 12.5607C27.3056 12.6657 27.3118 14.8395 27.3056 19.7358L27.2918 26.766L26.0555 24.8659L24.8118 22.9646V17.8608C24.8118 14.552 24.8255 12.6969 24.843 12.6057C24.9018 12.3969 25.0443 12.2219 25.2343 12.1119C25.3893 12.0332 25.4493 12.0269 26.068 12.0269C26.6468 12.0269 26.7443 12.0332 26.8743 12.1057H26.8756Z" fill="black"/>
</svg>
