<svg width="128" height="58" viewBox="0 0 128 58" fill="none" xmlns="http://www.w3.org/2000/svg">
<path d="M56.1209 35.7069C56.3741 35.7069 56.5007 35.5803 56.5007 35.3271V34.061C56.5007 33.8077 56.3741 33.6811 56.1209 33.6811H48.904V20.8933C48.904 20.64 48.7773 20.5134 48.5241 20.5134H46.4983C46.2451 20.5134 46.1185 20.64 46.1185 20.8933V35.3271C46.1185 35.5803 46.2451 35.7069 46.4983 35.7069H56.1209Z" fill="#F7F8F8"/>
<path d="M66.6332 20.2602H63.3413C60.387 20.2602 58.9098 21.7373 58.9098 24.6916V31.5287C58.9098 34.483 60.387 35.9602 63.3413 35.9602H66.6332C69.5875 35.9602 71.0646 34.483 71.0646 31.5287V24.6916C71.0646 21.7373 69.5875 20.2602 66.6332 20.2602ZM68.2792 31.5287C68.2792 33.1325 67.4773 33.9344 65.8735 33.9344H64.1009C62.4972 33.9344 61.6953 33.1325 61.6953 31.5287V24.6916C61.6953 23.0879 62.4972 22.286 64.1009 22.286H65.8735C67.4773 22.286 68.2792 23.0879 68.2792 24.6916V31.5287Z" fill="#F7F8F8"/>
<path d="M85.6193 26.844H80.5548C80.3016 26.844 80.175 26.9707 80.175 27.2239V28.49C80.175 28.7432 80.3016 28.8699 80.5548 28.8699H83.2137V31.5287C83.2137 33.1325 82.4118 33.9344 80.808 33.9344H79.2887C77.6849 33.9344 76.883 33.1325 76.883 31.5287V24.9449C76.883 23.3411 77.6849 22.5392 79.2887 22.5392H84.6064C84.8596 22.5392 84.9863 22.4126 84.9863 22.1594V20.8933C84.9863 20.64 84.8596 20.5134 84.6064 20.5134H78.529C75.5747 20.5134 74.0976 21.9906 74.0976 24.9449V31.5287C74.0976 34.483 75.5747 35.9602 78.529 35.9602H81.5677C84.522 35.9602 85.9992 34.483 85.9992 31.5287V27.2239C85.9992 26.9707 85.8725 26.844 85.6193 26.844Z" fill="#F7F8F8"/>
<path d="M99.8031 20.5134H88.6612C88.4079 20.5134 88.2813 20.64 88.2813 20.8933V22.1594C88.2813 22.4126 88.4079 22.5392 88.6612 22.5392H92.8394V35.3271C92.8394 35.5803 92.966 35.7069 93.2192 35.7069H95.245C95.4982 35.7069 95.6249 35.5803 95.6249 35.3271V22.5392H99.8031C100.056 22.5392 100.183 22.4126 100.183 22.1594V20.8933C100.183 20.64 100.056 20.5134 99.8031 20.5134Z" fill="#F7F8F8"/>
<path d="M110.321 20.2602H107.029C104.075 20.2602 102.598 21.7373 102.598 24.6916V31.5287C102.598 34.483 104.075 35.9602 107.029 35.9602H110.321C113.275 35.9602 114.753 34.483 114.753 31.5287V24.6916C114.753 21.7373 113.275 20.2602 110.321 20.2602ZM111.967 31.5287C111.967 33.1325 111.165 33.9344 109.561 33.9344H107.789C106.185 33.9344 105.383 33.1325 105.383 31.5287V24.6916C105.383 23.0879 106.185 22.286 107.789 22.286H109.561C111.165 22.286 111.967 23.0879 111.967 24.6916V31.5287Z" fill="#F7F8F8"/>
<path d="M13.2474 17.8077C13.2474 16.7238 14.126 15.8452 15.2099 15.8452H34.3442C35.4281 15.8452 36.3067 16.7238 36.3067 17.8076V38.4139C36.3067 39.4977 35.4281 40.3764 34.3442 40.3764H15.2099C14.126 40.3764 13.2474 39.4977 13.2474 38.4139V17.8077Z" fill="url(#paint0_linear_6070_2779)"/>
<path d="M39.6184 44.6079L17.2337 40.1923L49.5536 40.5603L39.6184 44.6079Z" fill="url(#paint1_linear_6070_2779)"/>
<path d="M13.2474 17.5472C13.2474 16.5706 13.9655 15.7426 14.9323 15.6044L28.1792 13.712C29.3615 13.5431 30.4192 14.4605 30.4192 15.6548V40.5667C30.4192 41.761 29.3615 42.6784 28.1792 42.5095L14.9323 40.6171C13.9655 40.4789 13.2474 39.6509 13.2474 38.6743V17.5472Z" fill="url(#paint2_linear_6070_2779)"/>
<g filter="url(#filter0_d_6070_2779)">
<circle cx="26.4947" cy="28.1105" r="1.47187" fill="url(#paint3_linear_6070_2779)"/>
</g>
<g filter="url(#filter1_d_6070_2779)">
<rect x="25.7591" y="27.4975" width="1.47187" height="3.92499" rx="0.735936" fill="url(#paint4_linear_6070_2779)"/>
</g>
<defs>
<filter id="filter0_d_6070_2779" x="24.9001" y="26.6386" width="3.18905" height="3.18904" filterUnits="userSpaceOnUse" color-interpolation-filters="sRGB">
<feFlood flood-opacity="0" result="BackgroundImageFix"/>
<feColorMatrix in="SourceAlpha" type="matrix" values="0 0 0 0 0 0 0 0 0 0 0 0 0 0 0 0 0 0 127 0" result="hardAlpha"/>
<feOffset dy="0.122656"/>
<feGaussianBlur stdDeviation="0.061328"/>
<feComposite in2="hardAlpha" operator="out"/>
<feColorMatrix type="matrix" values="0 0 0 0 0.104304 0 0 0 0 0.0825 0 0 0 0 0.2 0 0 0 0.02 0"/>
<feBlend mode="normal" in2="BackgroundImageFix" result="effect1_dropShadow_6070_2779"/>
<feBlend mode="normal" in="SourceGraphic" in2="effect1_dropShadow_6070_2779" result="shape"/>
</filter>
<filter id="filter1_d_6070_2779" x="25.2685" y="27.4975" width="2.20781" height="4.78358" filterUnits="userSpaceOnUse" color-interpolation-filters="sRGB">
<feFlood flood-opacity="0" result="BackgroundImageFix"/>
<feColorMatrix in="SourceAlpha" type="matrix" values="0 0 0 0 0 0 0 0 0 0 0 0 0 0 0 0 0 0 127 0" result="hardAlpha"/>
<feOffset dx="-0.122656" dy="0.490624"/>
<feGaussianBlur stdDeviation="0.183984"/>
<feComposite in2="hardAlpha" operator="out"/>
<feColorMatrix type="matrix" values="0 0 0 0 0.104304 0 0 0 0 0.0825 0 0 0 0 0.2 0 0 0 0.08 0"/>
<feBlend mode="normal" in2="BackgroundImageFix" result="effect1_dropShadow_6070_2779"/>
<feBlend mode="normal" in="SourceGraphic" in2="effect1_dropShadow_6070_2779" result="shape"/>
</filter>
<linearGradient id="paint0_linear_6070_2779" x1="13.7993" y1="28.9693" x2="36.6289" y2="21.6658" gradientUnits="userSpaceOnUse">
<stop stop-color="#FFF06A"/>
<stop offset="1" stop-color="#EC78FF"/>
</linearGradient>
<linearGradient id="paint1_linear_6070_2779" x1="26.8009" y1="40.9283" x2="40.661" y2="43.7493" gradientUnits="userSpaceOnUse">
<stop stop-color="#ECB6FF"/>
<stop offset="1" stop-color="#FFF4F4" stop-opacity="0"/>
</linearGradient>
<linearGradient id="paint2_linear_6070_2779" x1="11.8368" y1="30.2572" x2="31.7684" y2="25.9643" gradientUnits="userSpaceOnUse">
<stop stop-color="#492EF3"/>
<stop offset="1" stop-color="#CF69FF"/>
</linearGradient>
<linearGradient id="paint3_linear_6070_2779" x1="26.4947" y1="26.6386" x2="25.8814" y2="29.5824" gradientUnits="userSpaceOnUse">
<stop stop-color="#E1BFFF"/>
<stop offset="1" stop-color="#AF68EE"/>
</linearGradient>
<linearGradient id="paint4_linear_6070_2779" x1="26.495" y1="27.4975" x2="24.7565" y2="30.627" gradientUnits="userSpaceOnUse">
<stop stop-color="#F8F2FF"/>
<stop offset="1" stop-color="#D185F5"/>
</linearGradient>
</defs>
</svg>

