<svg width="48" height="48" viewBox="0 0 48 48" fill="none" xmlns="http://www.w3.org/2000/svg">
<path d="M11.8767 26.0912C12.9499 26.0912 13.7512 25.8902 14.2581 25.4938C14.7597 25.1016 15.1061 24.422 15.2876 23.4741C15.4569 22.588 15.3924 21.9694 15.096 21.6355C14.7929 21.2945 14.1377 21.1215 13.1485 21.1215H11.4333L10.4825 26.0912H11.8767ZM6.2668 32.2129C6.18718 32.2129 6.11157 32.1768 6.06095 32.1143C6.01024 32.0518 5.9897 31.9696 6.00491 31.8902L8.52487 18.7205C8.54925 18.5931 8.65911 18.5012 8.78685 18.5012H14.218C15.9249 18.5012 17.1954 18.9719 17.994 19.9005C18.7968 20.834 19.0447 22.1389 18.7308 23.7788C18.6031 24.4469 18.3833 25.0674 18.0778 25.6229C17.7718 26.179 17.3675 26.6936 16.8759 27.1526C16.2873 27.7121 15.6212 28.1178 14.8978 28.3566C14.1859 28.5921 13.2716 28.7116 12.1804 28.7116H9.98119L9.35315 31.9935C9.32878 32.121 9.219 32.2129 9.09126 32.2129H6.2668Z" fill="#6082BB"/>
<path d="M25.4279 28.7118C25.3492 28.7118 25.2746 28.6756 25.2247 28.6131C25.1745 28.5507 25.1543 28.4685 25.1693 28.389L26.2697 22.5619C26.3744 22.0078 26.3486 21.61 26.1971 21.442C26.1043 21.3392 25.8258 21.1669 25.0022 21.1669H23.0085L21.625 28.4924C21.6009 28.6198 21.4925 28.7118 21.3664 28.7118H18.6001C18.5215 28.7118 18.4469 28.6756 18.3968 28.6131C18.3468 28.5507 18.3265 28.4684 18.3415 28.389L20.8292 15.2193C20.8532 15.092 20.9617 15 21.0878 15H23.854C23.9327 15 24.0073 15.0361 24.0573 15.0986C24.1074 15.1611 24.1277 15.2432 24.1127 15.3228L23.5123 18.5014H25.657C27.2908 18.5014 28.3987 18.7977 29.044 19.4075C29.7018 20.0295 29.907 21.0241 29.6541 22.3639L28.4966 28.4924C28.4726 28.6198 28.3642 28.7118 28.238 28.7118H25.4279Z" fill="#6082BB"/>
<path d="M34.7462 26.0912C35.8606 26.0912 36.6926 25.8902 37.219 25.4938C37.7398 25.1017 38.0995 24.4221 38.2881 23.4741C38.4639 22.588 38.3969 21.9694 38.0891 21.6355C37.7744 21.2945 37.094 21.1215 36.0668 21.1215H34.2858L33.2985 26.0912H34.7462ZM28.9212 32.2129C28.8385 32.2129 28.76 32.1768 28.7074 32.1143C28.6548 32.0518 28.6333 31.9696 28.6491 31.8902L31.2658 18.7205C31.2912 18.5931 31.4052 18.5012 31.5379 18.5012H37.1774C38.9499 18.5012 40.269 18.9719 41.0983 19.9005C41.9319 20.8339 42.1893 22.1388 41.8634 23.7788C41.7306 24.4469 41.5025 25.0674 41.1852 25.6229C40.8675 26.179 40.4477 26.6936 39.9372 27.1526C39.3261 27.7121 38.6344 28.1178 37.8833 28.3566C37.144 28.5921 36.1946 28.7116 35.0615 28.7116H32.7779L32.126 31.9935C32.1006 32.121 31.9866 32.2129 31.8539 32.2129H28.9212Z" fill="#6082BB"/>
</svg>
