<svg width="40" height="40" viewBox="0 0 40 40" fill="none" xmlns="http://www.w3.org/2000/svg">
<g clip-path="url(#clip0_9126_88173)">
<path d="M6.52964 22.7615C7.72215 22.7615 8.61241 22.5381 9.17571 22.0978C9.73297 21.662 10.1179 20.9069 10.3196 19.8536C10.5077 18.8691 10.436 18.1817 10.1067 17.8107C9.76994 17.4318 9.04188 17.2396 7.94276 17.2396H6.03702L4.98051 22.7615H6.52964ZM0.296441 29.5634C0.207979 29.5634 0.123964 29.5233 0.067724 29.4538C0.0113822 29.3844 -0.0114472 29.2931 0.00545325 29.2048L2.80542 14.5718C2.8325 14.4303 2.95457 14.3281 3.0965 14.3281H9.13113C11.0277 14.3281 12.4393 14.8512 13.3266 15.883C14.2187 16.9202 14.4941 18.37 14.1453 20.1921C14.0034 20.9345 13.7593 21.6239 13.4197 22.2411C13.0798 22.8591 12.6306 23.4309 12.0843 23.9409C11.4304 24.5625 10.6902 25.0133 9.88647 25.2786C9.09545 25.5403 8.07956 25.673 6.86708 25.673H4.42354L3.72572 29.3197C3.69864 29.4612 3.57667 29.5634 3.43474 29.5634H0.296441Z" fill="#6082BB"/>
<path d="M21.5866 25.6728C21.4992 25.6728 21.4164 25.6326 21.3609 25.5632C21.3051 25.4938 21.2826 25.4025 21.2993 25.3142L22.522 18.8397C22.6383 18.2239 22.6096 17.782 22.4413 17.5952C22.3383 17.4811 22.0288 17.2896 21.1136 17.2896H18.8985L17.3612 25.429C17.3345 25.5706 17.214 25.6728 17.0738 25.6728H14.0003C13.9128 25.6728 13.83 25.6326 13.7744 25.5632C13.7188 25.4938 13.6962 25.4024 13.7129 25.3142L16.477 10.6812C16.5037 10.5397 16.6242 10.4375 16.7643 10.4375H19.8379C19.9254 10.4375 20.0082 10.4777 20.0638 10.547C20.1194 10.6165 20.142 10.7078 20.1253 10.7961L19.4583 14.3279H21.8412C23.6566 14.3279 24.8876 14.6572 25.6046 15.3347C26.3354 16.0258 26.5634 17.1309 26.2824 18.6196L24.9964 25.429C24.9696 25.5706 24.8492 25.6728 24.709 25.6728H21.5866Z" fill="#6082BB"/>
<path d="M31.9401 22.7615C33.1784 22.7615 34.1028 22.5381 34.6877 22.0978C35.2663 21.6621 35.666 20.907 35.8755 19.8536C36.0709 18.8691 35.9965 18.1817 35.6544 17.8107C35.3047 17.4318 34.5487 17.2396 33.4074 17.2396H31.4286L30.3315 22.7615H31.9401ZM25.4678 29.5634C25.376 29.5634 25.2887 29.5233 25.2303 29.4538C25.1718 29.3844 25.148 29.2931 25.1656 29.2048L28.073 14.5718C28.1012 14.4303 28.2278 14.3281 28.3753 14.3281H34.6414C36.6108 14.3281 38.0765 14.8512 38.998 15.883C39.9242 16.9201 40.2102 18.3699 39.8481 20.1921C39.7005 20.9345 39.4471 21.6239 39.0945 22.2411C38.7416 22.8591 38.2751 23.4309 37.7079 23.9409C37.0288 24.5625 36.2603 25.0133 35.4257 25.2786C34.6043 25.5403 33.5495 25.673 32.2905 25.673H29.7531L29.0288 29.3197C29.0006 29.4612 28.8739 29.5634 28.7264 29.5634H25.4678Z" fill="#6082BB"/>
</g>
<defs>
<clipPath id="clip0_9126_88173">
<rect width="40" height="40" fill="white"/>
</clipPath>
</defs>
</svg>
