<svg width="40" height="40" viewBox="0 0 40 40" fill="none" xmlns="http://www.w3.org/2000/svg">
<g clip-path="url(#clip0_10248_20647)">
<path d="M39.9276 30.7686C39.9158 30.6844 39.904 30.6121 39.8907 30.5264C39.8065 30.0302 39.709 29.5354 39.5879 29.0391C39.385 28.1907 39.1224 27.3576 38.8022 26.546C38.5349 25.8548 38.2336 25.1902 37.8939 24.5477C37.4582 23.7251 36.9737 22.9261 36.4302 22.164C35.7641 21.232 35.0257 20.3724 34.2266 19.5616C33.8884 19.2234 33.5369 18.897 33.1736 18.5942C32.3878 17.9163 31.5519 17.2989 30.6687 16.7539C30.6805 16.7421 30.6805 16.7303 30.6923 16.717C31.0926 16.0155 31.5032 15.3257 31.9034 14.6242C32.3022 13.9463 32.6891 13.2683 33.0894 12.5786C33.3671 12.0942 33.658 11.5979 33.9357 11.1135C34.0095 10.9924 34.0568 10.8846 34.0937 10.7502C34.203 10.4119 34.2148 10.0486 34.1173 9.7104C34.0937 9.62473 34.0701 9.54055 34.0332 9.46818C33.9962 9.38251 33.9608 9.31015 33.912 9.23778C33.7673 8.98374 33.5487 8.76515 33.2711 8.6086C33.0288 8.46386 32.763 8.3782 32.4838 8.35456C32.3627 8.34275 32.2534 8.34275 32.1323 8.35456C32.0363 8.36638 31.9389 8.3782 31.8547 8.4033C31.5164 8.48749 31.2137 8.66915 30.9715 8.935C30.8858 9.03248 30.8016 9.14177 30.7411 9.24959C30.4634 9.73403 30.1724 10.2303 29.8948 10.7147L28.7088 12.7603C28.3085 13.4618 27.8965 14.1516 27.4977 14.8531C27.449 14.927 27.4135 15.0111 27.3648 15.0835C27.3042 15.0599 27.2437 15.0348 27.1831 15.0111C24.9559 14.1634 22.547 13.704 20.0185 13.704H19.8117C17.6274 13.7254 15.461 14.1015 13.3973 14.8177C13.1684 14.9018 12.938 14.9875 12.7076 15.0717C12.6722 14.9993 12.6234 14.927 12.5865 14.8531C12.1877 14.1516 11.7757 13.4618 11.3769 12.7603C10.9766 12.0824 10.5897 11.4044 10.1909 10.7147C9.91175 10.2303 9.62227 9.73403 9.34313 9.24959C9.27076 9.12848 9.19839 9.03248 9.11273 8.935C8.87584 8.6762 8.56909 8.49153 8.22952 8.4033C8.13352 8.3782 8.03604 8.36638 7.95185 8.35456C7.83074 8.34275 7.72145 8.34275 7.60034 8.35456C7.32267 8.3782 7.05535 8.46386 6.81461 8.6086C6.55251 8.76301 6.33199 8.97896 6.17214 9.23778C6.1234 9.31015 6.08795 9.38251 6.05103 9.46818C6.01558 9.55236 5.99047 9.62473 5.96684 9.7104C5.88118 10.0486 5.88118 10.4001 5.99047 10.7502C6.0274 10.8713 6.08795 10.9924 6.14851 11.1135C6.42617 11.5979 6.71713 12.0942 6.9948 12.5786C7.39505 13.2565 7.782 13.9344 8.18078 14.6242C8.58103 15.3257 8.99162 16.0155 9.39187 16.717L9.40369 16.7303C8.59285 17.2384 7.81893 17.7952 7.08046 18.4125C6.64476 18.7759 6.22088 19.1628 5.82062 19.5616C5.00978 20.3606 4.28461 21.232 3.61851 22.164C3.07352 22.9261 2.58908 23.7133 2.15486 24.5477C1.81516 25.1902 1.51239 25.8548 1.24654 26.5446C0.931951 27.3554 0.666101 28.1914 0.459329 29.0391C0.33822 29.5221 0.242219 30.0183 0.156557 30.5264C0.144741 30.6121 0.132925 30.6844 0.121109 30.7686C0.0723701 31.0596 0.0354466 31.3505 0 31.6533H40C40 31.3505 39.9646 31.0596 39.9276 30.7686Z" fill="#34A853"/>
<path d="M30.4384 26.1094C31.2374 25.5777 31.3585 24.343 30.6924 23.3623C30.0396 22.3698 28.8536 22.0079 28.0546 22.5396C27.2556 23.0728 27.1345 24.3061 27.8006 25.2867C28.4549 26.2792 29.6408 26.6426 30.4384 26.1094ZM12.3089 25.2986C12.9618 24.3061 12.8539 23.0846 12.0549 22.5514C11.2559 22.0197 10.0699 22.3831 9.41562 23.3756C8.76281 24.3666 8.8721 25.5895 9.66965 26.1227C10.4687 26.6544 11.6428 26.2792 12.3089 25.2986Z" fill="#202124"/>
</g>
<defs>
<clipPath id="clip0_10248_20647">
<rect width="40" height="40" fill="white"/>
</clipPath>
</defs>
</svg>
