<svg width="48" height="48" viewBox="0 0 48 48" fill="none" xmlns="http://www.w3.org/2000/svg">
<path d="M42.9312 34.3018C42.92 34.2218 42.9088 34.153 42.8962 34.0717C42.8162 33.6002 42.7236 33.1302 42.6085 32.6588C42.4157 31.8527 42.1663 31.0613 41.8621 30.2903C41.6081 29.6337 41.3219 29.0023 40.9992 28.3919C40.5853 27.6104 40.1251 26.8513 39.6087 26.1274C38.9759 25.242 38.2744 24.4254 37.5153 23.6551C37.194 23.3338 36.8601 23.0237 36.5149 22.7361C35.7685 22.0921 34.9743 21.5056 34.1353 20.9878C34.1465 20.9766 34.1465 20.9654 34.1577 20.9527C34.5379 20.2863 34.928 19.631 35.3082 18.9646C35.6871 18.3205 36.0547 17.6765 36.4349 17.0213C36.6987 16.5611 36.9751 16.0896 37.2389 15.6294C37.309 15.5143 37.354 15.4119 37.389 15.2842C37.4929 14.9629 37.5041 14.6178 37.4115 14.2965C37.389 14.2151 37.3666 14.1351 37.3315 14.0664C37.2964 13.985 37.2627 13.9162 37.2164 13.8475C37.0789 13.6061 36.8713 13.3985 36.6075 13.2498C36.3774 13.1122 36.1248 13.0309 35.8597 13.0084C35.7446 12.9972 35.6408 12.9972 35.5257 13.0084C35.4345 13.0196 35.3419 13.0309 35.2619 13.0547C34.9406 13.1347 34.653 13.3073 34.4229 13.5598C34.3415 13.6524 34.2615 13.7563 34.204 13.8587C33.9402 14.3189 33.6638 14.7903 33.4 15.2506L32.2733 17.1938C31.8931 17.8603 31.5016 18.5156 31.1228 19.182C31.0765 19.2522 31.0428 19.3322 30.9965 19.4009C30.939 19.3785 30.8815 19.3546 30.8239 19.3322C28.7081 18.5268 26.4196 18.0904 24.0175 18.0904H23.8211C21.746 18.1107 19.688 18.468 17.7275 19.1484C17.51 19.2283 17.2911 19.3097 17.0722 19.3897C17.0385 19.3209 16.9922 19.2522 16.9572 19.182C16.5783 18.5156 16.1869 17.8603 15.808 17.1938C15.4278 16.5498 15.0602 15.9058 14.6814 15.2506C14.4162 14.7903 14.1412 14.3189 13.876 13.8587C13.8072 13.7436 13.7385 13.6524 13.6571 13.5598C13.4321 13.314 13.1406 13.1385 12.818 13.0547C12.7268 13.0309 12.6342 13.0196 12.5543 13.0084C12.4392 12.9972 12.3354 12.9972 12.2203 13.0084C11.9565 13.0309 11.7026 13.1122 11.4739 13.2498C11.2249 13.3964 11.0154 13.6016 10.8635 13.8475C10.8172 13.9162 10.7836 13.985 10.7485 14.0664C10.7148 14.1463 10.691 14.2151 10.6685 14.2965C10.5871 14.6178 10.5871 14.9517 10.691 15.2842C10.726 15.3993 10.7836 15.5143 10.8411 15.6294C11.1049 16.0896 11.3813 16.5611 11.6451 17.0213C12.0253 17.6653 12.3929 18.3093 12.7717 18.9646C13.152 19.631 13.542 20.2863 13.9223 20.9527L13.9335 20.9654C13.1632 21.448 12.428 21.977 11.7264 22.5635C11.3125 22.9087 10.9098 23.2763 10.5296 23.6551C9.75929 24.4142 9.07038 25.242 8.43758 26.1274C7.91984 26.8513 7.45962 27.5992 7.04712 28.3919C6.7244 29.0023 6.43677 29.6337 6.18421 30.2889C5.88535 31.0592 5.6328 31.8534 5.43636 32.6588C5.32131 33.1176 5.23011 33.589 5.14873 34.0717C5.1375 34.153 5.12628 34.2218 5.11505 34.3018C5.06875 34.5782 5.03367 34.8546 5 35.1422H43C43 34.8546 42.9663 34.5782 42.9312 34.3018Z" fill="#34A853"/>
<path d="M33.9165 29.8757C34.6756 29.3706 34.7907 28.1976 34.1579 27.2659C33.5377 26.3231 32.411 25.9793 31.6519 26.4844C30.8929 26.9909 30.7778 28.1625 31.4106 29.0942C32.0322 30.0371 33.1589 30.3822 33.9165 29.8757ZM16.6935 29.1054C17.3137 28.1625 17.2113 27.0022 16.4522 26.4957C15.6931 25.9905 14.5665 26.3357 13.9449 27.2786C13.3247 28.2201 13.4285 29.3818 14.1862 29.8883C14.9453 30.3934 16.0607 30.0371 16.6935 29.1054Z" fill="#202124"/>
</svg>
