<svg width="40" height="40" viewBox="0 0 40 40" fill="none" xmlns="http://www.w3.org/2000/svg">
<g clip-path="url(#clip0_9094_17610)">
<path d="M32.888 13.741C32.4623 13.595 32.033 13.4597 31.6005 13.3352C31.6731 13.0384 31.74 12.7451 31.7994 12.457C32.7741 7.72556 32.1369 3.91384 29.9605 2.65884C27.8737 1.45571 24.4611 2.71025 21.0145 5.70978C20.6749 6.00592 20.3427 6.3106 20.0184 6.62353C19.8013 6.41544 19.5804 6.2114 19.3558 6.0115C15.7436 2.80431 12.123 1.45259 9.94891 2.71118C7.86406 3.91806 7.24672 7.50134 8.12422 11.9854C8.21152 12.4295 8.31009 12.8713 8.41984 13.3104C7.90734 13.456 7.41281 13.611 6.93953 13.776C2.70453 15.2526 0 17.5665 0 19.9667C0 22.4456 2.90344 24.932 7.31437 26.4396C7.67198 26.5613 8.03256 26.6741 8.39578 26.7779C8.27782 27.2508 8.17309 27.7269 8.08172 28.2057C7.24516 32.612 7.89844 36.1106 9.97766 37.3098C12.1252 38.5482 15.7295 37.2754 19.2391 34.2074C19.5236 33.958 19.802 33.7015 20.0737 33.4382C20.4249 33.7771 20.7855 34.106 21.155 34.4248C24.5547 37.3501 27.9122 38.5313 29.9894 37.3288C32.1348 36.0868 32.8322 32.3284 31.9269 27.7557C31.8556 27.3975 31.7756 27.041 31.687 26.6867C31.9402 26.6117 32.1886 26.5345 32.4308 26.4542C37.0164 24.9349 40 22.4787 40 19.9667C40 17.5577 37.2081 15.2282 32.888 13.741ZM31.8934 24.8323C31.6747 24.9046 31.4503 24.9745 31.2216 25.0424C30.7153 23.4398 30.0322 21.7357 29.1961 19.9749C29.9939 18.2562 30.6508 16.5738 31.1428 14.9817C31.552 15.1001 31.9491 15.2249 32.3319 15.3567C36.0334 16.631 38.2912 18.5149 38.2912 19.9667C38.2912 21.5129 35.8528 23.5202 31.8934 24.8323ZM30.2506 28.0876C30.6509 30.1095 30.708 31.9376 30.4428 33.3668C30.2047 34.651 29.7256 35.5071 29.1331 35.8501C27.8727 36.5798 25.1769 35.6313 22.2695 33.1295C21.9258 32.8331 21.5904 32.5273 21.2638 32.2123C22.3909 30.9796 23.5173 29.5467 24.6167 27.9551C26.5505 27.7835 28.3773 27.5029 30.0341 27.1199C30.1156 27.4492 30.1881 27.772 30.2506 28.0876ZM13.6369 35.724C12.4053 36.1588 11.4244 36.1713 10.8314 35.8295C9.56969 35.1018 9.04516 32.2926 9.76062 28.5245C9.84567 28.0792 9.94306 27.6364 10.0527 27.1965C11.6911 27.559 13.5047 27.8196 15.443 27.9768C16.5498 29.5342 17.7087 30.9656 18.8767 32.219C18.6285 32.4592 18.3744 32.6932 18.1147 32.9209C16.5627 34.2774 15.0075 35.2399 13.6369 35.724ZM7.86719 24.8227C5.91672 24.156 4.30594 23.2896 3.20188 22.3442C2.20969 21.4946 1.70891 20.651 1.70891 19.9667C1.70891 18.5101 3.88031 16.6523 7.50203 15.3896C7.94156 15.2365 8.40156 15.092 8.87891 14.9563C9.37953 16.5845 10.0361 18.2868 10.8284 20.0082C10.0258 21.7551 9.35984 23.4846 8.85437 25.132C8.52283 25.037 8.19367 24.9339 7.86719 24.8227ZM9.80125 11.6571C9.04953 7.8154 9.54875 4.91743 10.8052 4.19009C12.1433 3.4154 15.1023 4.51993 18.2212 7.28931C18.4246 7.47031 18.6247 7.65497 18.8214 7.84321C17.6592 9.09118 16.5109 10.512 15.4139 12.0601C13.5327 12.2345 11.7319 12.5145 10.0763 12.8896C9.97425 12.4812 9.88255 12.0701 9.80125 11.6571ZM27.0555 15.9177C26.6644 15.2423 26.2589 14.5753 25.8391 13.9173C27.1153 14.0787 28.3381 14.2929 29.4864 14.5548C29.1417 15.6598 28.712 16.8149 28.2063 17.9993C27.8366 17.2979 27.4529 16.6039 27.0555 15.9177ZM20.0192 9.06447C20.8073 9.91837 21.5967 10.8717 22.3731 11.906C20.7981 11.8316 19.2205 11.8313 17.6455 11.9051C18.4227 10.8802 19.2188 9.92822 20.0192 9.06447ZM12.9378 15.9295C12.5454 16.6101 12.1689 17.2997 11.8086 17.9979C11.3111 16.8177 10.8853 15.6573 10.5377 14.5367C11.6789 14.2813 12.8959 14.0726 14.1641 13.9142C13.7396 14.5762 13.3307 15.2482 12.9378 15.9295ZM14.2005 26.1407C12.8903 25.9945 11.655 25.7965 10.5141 25.5481C10.8672 24.4074 11.3023 23.2223 11.8106 22.0168C12.1723 22.7155 12.5504 23.4056 12.9445 24.0865C13.3498 24.7865 13.7695 25.4721 14.2005 26.1407ZM20.0664 30.9892C19.2564 30.1154 18.4486 29.1487 17.6597 28.109C18.4256 28.139 19.2064 28.1543 20 28.1543C20.8153 28.1543 21.6213 28.136 22.4145 28.1007C21.6356 29.1592 20.8492 30.1273 20.0664 30.9892ZM28.2223 21.9552C28.757 23.174 29.2077 24.3529 29.5655 25.474C28.4058 25.7387 27.1536 25.9518 25.8342 26.1101C26.257 25.4399 26.6664 24.7613 27.0622 24.0748C27.4646 23.377 27.8514 22.6703 28.2223 21.9552ZM25.582 23.221C24.9761 24.2736 24.3361 25.3062 23.6631 26.3171C22.444 26.4035 21.2222 26.4464 20 26.4457C18.7552 26.4457 17.5444 26.407 16.3784 26.3313C15.6878 25.3227 15.0357 24.2883 14.4233 23.2304C13.8138 22.1781 13.2446 21.103 12.7167 20.0074C13.2433 18.9116 13.8109 17.836 14.4183 16.7829L14.4181 16.7831C15.0253 15.7297 15.6723 14.6997 16.3577 13.6954C17.5472 13.6054 18.767 13.5585 19.9998 13.5585C21.2383 13.5585 22.4598 13.6059 23.6491 13.6965C24.3275 14.6993 24.9704 15.7257 25.5764 16.7738C26.1858 17.8247 26.7609 18.895 27.3008 19.9832C26.7665 21.0826 26.1932 22.1625 25.582 23.221ZM29.107 4.13915C30.4464 4.91165 30.9673 8.02681 30.1258 12.112C30.072 12.3726 30.0117 12.6381 29.9461 12.9073C28.2864 12.5242 26.4844 12.2393 24.5977 12.0623C23.4986 10.4971 22.3597 9.07415 21.2164 7.84228C21.516 7.55345 21.8228 7.27211 22.1364 6.99853C25.0895 4.42868 27.8495 3.414 29.107 4.13915ZM20 16.3948C21.9727 16.3948 23.5719 17.994 23.5719 19.9667C23.5719 21.9393 21.9727 23.5385 20 23.5385C18.0273 23.5385 16.4281 21.9393 16.4281 19.9667C16.4281 17.994 18.0273 16.3948 20 16.3948Z" fill="#00D8FF"/>
</g>
<defs>
<clipPath id="clip0_9094_17610">
<rect width="40" height="40" fill="white"/>
</clipPath>
</defs>
</svg>
