<svg width="48" height="48" viewBox="0 0 48 48" fill="none" xmlns="http://www.w3.org/2000/svg">
<path d="M34.3106 19.228C33.97 19.1111 33.6266 19.0029 33.2806 18.9034C33.3387 18.6659 33.3922 18.4312 33.4397 18.2007C34.2195 14.4156 33.7097 11.3662 31.9686 10.3622C30.2992 9.39973 27.569 10.4034 24.8118 12.803C24.54 13.0399 24.2743 13.2836 24.0149 13.534C23.8412 13.3675 23.6645 13.2043 23.4847 13.0444C20.595 10.4786 17.6985 9.39723 15.9592 10.4041C14.2913 11.3696 13.7974 14.2362 14.4994 17.8235C14.5693 18.1788 14.6481 18.5322 14.7359 18.8835C14.3259 19 13.9303 19.124 13.5517 19.256C10.1636 20.4372 8 22.2884 8 24.2085C8 26.1916 10.3228 28.1807 13.8515 29.3869C14.1376 29.4842 14.4261 29.5745 14.7167 29.6575C14.6223 30.0358 14.5385 30.4167 14.4654 30.7997C13.7962 34.3247 14.3188 37.1236 15.9822 38.083C17.7002 39.0737 20.5837 38.0555 23.3914 35.6011C23.619 35.4016 23.8417 35.1964 24.0591 34.9857C24.3401 35.2568 24.6285 35.52 24.9241 35.775C27.6439 38.1152 30.3299 39.0602 31.9917 38.0982C33.7081 37.1046 34.266 34.0979 33.5417 30.4397C33.4846 30.1531 33.4207 29.868 33.3498 29.5845C33.5523 29.5245 33.7511 29.4627 33.9448 29.3985C37.6134 28.1831 40.0003 26.2181 40.0003 24.2085C40.0003 22.2814 37.7667 20.4177 34.3106 19.228ZM33.5149 28.101C33.3399 28.1589 33.1604 28.2147 32.9774 28.2691C32.5724 26.987 32.0259 25.6237 31.3571 24.2151C31.9953 22.8401 32.5208 21.4942 32.9144 20.2205C33.2418 20.3152 33.5595 20.4151 33.8657 20.5205C36.827 21.54 38.6332 23.0471 38.6332 24.2085C38.6332 25.4455 36.6825 27.0514 33.5149 28.101ZM32.2007 30.7052C32.5209 32.3227 32.5666 33.7852 32.3544 34.9286C32.1639 35.956 31.7807 36.6409 31.3067 36.9152C30.2983 37.499 28.1417 36.7402 25.8158 34.7387C25.5408 34.5017 25.2725 34.257 25.0111 34.005C25.9129 33.0189 26.814 31.8725 27.6935 30.5992C29.2405 30.462 30.7021 30.2375 32.0274 29.9311C32.0927 30.1945 32.1507 30.4527 32.2007 30.7052ZM18.9096 36.8144C17.9243 37.1622 17.1396 37.1722 16.6652 36.8987C15.6558 36.3166 15.2362 34.0692 15.8086 31.0547C15.8766 30.6985 15.9545 30.3443 16.0422 29.9924C17.3529 30.2824 18.8038 30.4909 20.3545 30.6166C21.24 31.8625 22.1671 33.0076 23.1015 34.0104C22.9029 34.2025 22.6997 34.3897 22.4919 34.5719C21.2502 35.6571 20.0061 36.4271 18.9096 36.8144ZM14.2938 28.0934C12.7334 27.56 11.4448 26.8669 10.5615 26.1105C9.76776 25.4309 9.36714 24.756 9.36714 24.2085C9.36714 23.0432 11.1043 21.557 14.0017 20.5469C14.3533 20.4244 14.7213 20.3087 15.1032 20.2002C15.5037 21.5027 16.0289 22.8646 16.6628 24.2417C16.0207 25.6392 15.4879 27.0229 15.0836 28.3407C14.8183 28.2648 14.555 28.1823 14.2938 28.0934ZM15.8411 17.5609C15.2397 14.4875 15.6391 12.1691 16.6442 11.5872C17.7147 10.9675 20.082 11.8511 22.5771 14.0666C22.7398 14.2114 22.8999 14.3591 23.0572 14.5097C22.1275 15.5081 21.2089 16.6447 20.3312 17.8832C18.8262 18.0227 17.3856 18.2467 16.0611 18.5469C15.9795 18.2201 15.9061 17.8913 15.8411 17.5609ZM29.6445 20.9694C29.3317 20.429 29.0072 19.8954 28.6714 19.369C29.6924 19.4981 30.6707 19.6695 31.5893 19.879C31.3136 20.763 30.9698 21.6871 30.5652 22.6346C30.2694 22.0734 29.9625 21.5183 29.6445 20.9694ZM24.0155 15.4867C24.646 16.1699 25.2775 16.9325 25.8986 17.76C24.6386 17.7005 23.3765 17.7002 22.1165 17.7592C22.7382 16.9394 23.3751 16.1777 24.0155 15.4867ZM18.3503 20.9787C18.0364 21.5232 17.7352 22.0749 17.4469 22.6335C17.0489 21.6894 16.7083 20.761 16.4302 19.8645C17.3432 19.6602 18.3168 19.4932 19.3313 19.3665C18.9918 19.8961 18.6647 20.4338 18.3503 20.9787ZM19.3605 29.1477C18.3123 29.0307 17.3241 28.8724 16.4113 28.6736C16.6938 27.7611 17.0419 26.813 17.4486 25.8486C17.7379 26.4076 18.0404 26.9596 18.3557 27.5044C18.68 28.0644 19.0157 28.6129 19.3605 29.1477ZM24.0533 33.0265C23.4052 32.3275 22.759 31.5541 22.1279 30.7224C22.7406 30.7464 23.3652 30.7586 24.0001 30.7586C24.6524 30.7586 25.2971 30.744 25.9318 30.7157C25.3086 31.5625 24.6795 32.337 24.0533 33.0265ZM30.5781 25.7994C31.0058 26.7744 31.3663 27.7175 31.6526 28.6144C30.7248 28.8261 29.723 28.9966 28.6675 29.1232C29.0058 28.587 29.3333 28.0442 29.6499 27.495C29.9718 26.9367 30.2813 26.3714 30.5781 25.7994ZM28.4658 26.812C27.9811 27.654 27.4691 28.4801 26.9306 29.2889C25.9553 29.3579 24.9779 29.3922 24.0001 29.3917C23.0042 29.3917 22.0356 29.3607 21.1029 29.3002C20.5504 28.4933 20.0286 27.6658 19.5387 26.8195C19.0511 25.9776 18.5958 25.1175 18.1735 24.2411C18.5947 23.3645 19.0488 22.504 19.5347 21.6615L19.5346 21.6616C20.0203 20.8189 20.5379 19.9949 21.0862 19.1915C22.0379 19.1195 23.0137 19.082 24 19.082C24.9908 19.082 25.968 19.1199 26.9194 19.1924C27.4622 19.9946 27.9764 20.8157 28.4613 21.6542C28.9488 22.4949 29.4089 23.3512 29.8408 24.2217C29.4134 25.1012 28.9547 25.9652 28.4658 26.812ZM31.2858 11.5465C32.3573 12.1645 32.7741 14.6566 32.1008 17.9247C32.0578 18.1332 32.0096 18.3456 31.9571 18.561C30.6293 18.2545 29.1877 18.0266 27.6783 17.885C26.799 16.6329 25.8879 15.4945 24.9733 14.509C25.213 14.2779 25.4584 14.0528 25.7093 13.834C28.0718 11.7781 30.2798 10.9664 31.2858 11.5465ZM24.0001 21.351C25.5783 21.351 26.8576 22.6304 26.8576 24.2085C26.8576 25.7866 25.5783 27.066 24.0001 27.066C22.422 27.066 21.1426 25.7866 21.1426 24.2085C21.1426 22.6304 22.422 21.351 24.0001 21.351Z" fill="#00D8FF"/>
</svg>
