<svg width="40" height="40" viewBox="0 0 40 40" fill="none"
  xmlns="http://www.w3.org/2000/svg">
  <rect width="40" height="40" rx="6" fill="#F7F8F8"/>
  <rect width="40" height="40" rx="6" fill="#78767F" fill-opacity="0.02"/>
  <rect width="40" height="40" rx="6" fill="#5D34F2" fill-opacity="0.16"/>
  <path fill-rule="evenodd" clip-rule="evenodd" d="M20.1449 8.3335C17.6236 8.3335 15.5796 10.3774 15.5796 12.8987V13.9132C15.5796 16.4345 17.6236 18.4784 20.1449 18.4784C22.6662 18.4784 24.7101 16.4345 24.7101 13.9132V12.8987C24.7101 10.3774 22.6662 8.3335 20.1449 8.3335ZM20.1449 31.6668C30.2899 31.6668 30.2899 28.369 30.2899 28.369C30.2899 24.0916 28.1669 20.1045 22.6812 20.0002C22.6579 19.9997 22.4995 20.1538 22.2699 20.3772C21.6671 20.9635 20.5736 22.0272 20.1449 22.0272C19.7162 22.0272 18.6227 20.9635 18.02 20.3772C17.7904 20.1538 17.6319 19.9997 17.6087 20.0002C12.123 20.1045 10 24.0916 10 28.369C10 28.369 10 31.6668 20.1449 31.6668Z" fill="#947DFF"/>
</svg>
