<svg width="20" height="20" viewBox="0 0 20 20" fill="none" xmlns="http://www.w3.org/2000/svg">
<path d="M10 16.6666H4.16666C3.94565 16.6666 3.73369 16.5788 3.57741 16.4225C3.42113 16.2663 3.33333 16.0543 3.33333 15.8333V4.16663C3.33333 3.94561 3.42113 3.73365 3.57741 3.57737C3.73369 3.42109 3.94565 3.33329 4.16666 3.33329H8.33333V5.83329C8.33333 6.49633 8.59672 7.13222 9.06556 7.60106C9.5344 8.0699 10.1703 8.33329 10.8333 8.33329H13.3333V9.16663C13.3333 9.38764 13.4211 9.5996 13.5774 9.75588C13.7337 9.91216 13.9457 9.99996 14.1667 9.99996C14.3877 9.99996 14.5996 9.91216 14.7559 9.75588C14.9122 9.5996 15 9.38764 15 9.16663V7.49996C15 7.49996 15 7.49996 15 7.44996C14.9913 7.3734 14.9746 7.29799 14.95 7.22496V7.14996C14.9099 7.06428 14.8565 6.98551 14.7917 6.91663L9.79166 1.91663C9.72278 1.85181 9.64401 1.79836 9.55833 1.75829C9.53346 1.75476 9.50821 1.75476 9.48333 1.75829C9.39868 1.70974 9.30518 1.67858 9.20833 1.66663H4.16666C3.50362 1.66663 2.86774 1.93002 2.3989 2.39886C1.93006 2.8677 1.66666 3.50358 1.66666 4.16663V15.8333C1.66666 16.4963 1.93006 17.1322 2.3989 17.6011C2.86774 18.0699 3.50362 18.3333 4.16666 18.3333H10C10.221 18.3333 10.433 18.2455 10.5893 18.0892C10.7455 17.9329 10.8333 17.721 10.8333 17.5C10.8333 17.2789 10.7455 17.067 10.5893 16.9107C10.433 16.7544 10.221 16.6666 10 16.6666ZM10 4.50829L12.1583 6.66663H10.8333C10.6123 6.66663 10.4004 6.57883 10.2441 6.42255C10.0878 6.26627 10 6.05431 10 5.83329V4.50829ZM5.83333 6.66663C5.61232 6.66663 5.40036 6.75442 5.24408 6.9107C5.0878 7.06698 5 7.27895 5 7.49996C5 7.72097 5.0878 7.93293 5.24408 8.08922C5.40036 8.2455 5.61232 8.33329 5.83333 8.33329H6.66666C6.88768 8.33329 7.09964 8.2455 7.25592 8.08922C7.4122 7.93293 7.5 7.72097 7.5 7.49996C7.5 7.27895 7.4122 7.06698 7.25592 6.9107C7.09964 6.75442 6.88768 6.66663 6.66666 6.66663H5.83333ZM18.0917 16.9083L17.1167 15.9416C17.4283 15.3977 17.553 14.7666 17.4718 14.1449C17.3905 13.5233 17.1077 12.9455 16.6667 12.5C16.2609 12.0797 15.7379 11.7914 15.1659 11.6726C14.5938 11.5538 13.9993 11.61 13.4597 11.8339C12.9201 12.0579 12.4605 12.4391 12.1406 12.928C11.8208 13.4169 11.6557 13.9908 11.6667 14.575C11.6638 15.0776 11.7924 15.5723 12.0397 16.0099C12.287 16.4475 12.6444 16.8129 13.0764 17.0698C13.5085 17.3267 14.0002 17.4661 14.5028 17.4744C15.0054 17.4826 15.5014 17.3593 15.9417 17.1166L16.9083 18.0916C16.9858 18.1697 17.078 18.2317 17.1795 18.274C17.2811 18.3163 17.39 18.3381 17.5 18.3381C17.61 18.3381 17.7189 18.3163 17.8205 18.274C17.922 18.2317 18.0142 18.1697 18.0917 18.0916C18.1698 18.0142 18.2318 17.922 18.2741 17.8204C18.3164 17.7189 18.3382 17.61 18.3382 17.5C18.3382 17.3899 18.3164 17.281 18.2741 17.1795C18.2318 17.0779 18.1698 16.9858 18.0917 16.9083ZM15.45 15.45C15.212 15.6738 14.8976 15.7984 14.5708 15.7984C14.2441 15.7984 13.9297 15.6738 13.6917 15.45C13.4623 15.2165 13.3336 14.9023 13.3333 14.575C13.3316 14.4106 13.3632 14.2476 13.4262 14.0958C13.4892 13.9439 13.5824 13.8065 13.7 13.6916C13.9222 13.4707 14.2201 13.3425 14.5333 13.3333C14.7018 13.3229 14.8706 13.3475 15.0291 13.4055C15.1877 13.4634 15.3325 13.5535 15.4546 13.6701C15.5766 13.7867 15.6733 13.9273 15.7385 14.083C15.8037 14.2387 15.8359 14.4062 15.8333 14.575C15.8264 14.9059 15.6886 15.2205 15.45 15.45ZM10.8333 9.99996H5.83333C5.61232 9.99996 5.40036 10.0878 5.24408 10.244C5.0878 10.4003 5 10.6123 5 10.8333C5 11.0543 5.0878 11.2663 5.24408 11.4225C5.40036 11.5788 5.61232 11.6666 5.83333 11.6666H10.8333C11.0543 11.6666 11.2663 11.5788 11.4226 11.4225C11.5789 11.2663 11.6667 11.0543 11.6667 10.8333C11.6667 10.6123 11.5789 10.4003 11.4226 10.244C11.2663 10.0878 11.0543 9.99996 10.8333 9.99996ZM9.16666 15C9.38768 15 9.59964 14.9122 9.75592 14.7559C9.9122 14.5996 10 14.3876 10 14.1666C10 13.9456 9.9122 13.7337 9.75592 13.5774C9.59964 13.4211 9.38768 13.3333 9.16666 13.3333H5.83333C5.61232 13.3333 5.40036 13.4211 5.24408 13.5774C5.0878 13.7337 5 13.9456 5 14.1666C5 14.3876 5.0878 14.5996 5.24408 14.7559C5.40036 14.9122 5.61232 15 5.83333 15H9.16666Z" fill="currentColor"/>
</svg>
