<svg width="20" height="20" viewBox="0 0 20 20" fill="none"
  xmlns="http://www.w3.org/2000/svg">
  <path d="M11.6665 6.66699H12.4998C12.7209 6.66699 12.9328 6.5792 13.0891 6.42291C13.2454 6.26663 13.3332 6.05467 13.3332 5.83366C13.3332 5.61265 13.2454 5.40068 13.0891 5.2444C12.9328 5.08812 12.7209 5.00033 12.4998 5.00033H11.6665C11.4455 5.00033 11.2335 5.08812 11.0772 5.2444C10.921 5.40068 10.8332 5.61265 10.8332 5.83366C10.8332 6.05467 10.921 6.26663 11.0772 6.42291C11.2335 6.5792 11.4455 6.66699 11.6665 6.66699ZM11.6665 10.0003H12.4998C12.7209 10.0003 12.9328 9.91253 13.0891 9.75625C13.2454 9.59997 13.3332 9.38801 13.3332 9.16699C13.3332 8.94598 13.2454 8.73402 13.0891 8.57774C12.9328 8.42146 12.7209 8.33366 12.4998 8.33366H11.6665C11.4455 8.33366 11.2335 8.42146 11.0772 8.57774C10.921 8.73402 10.8332 8.94598 10.8332 9.16699C10.8332 9.38801 10.921 9.59997 11.0772 9.75625C11.2335 9.91253 11.4455 10.0003 11.6665 10.0003ZM7.49984 6.66699H8.33317C8.55418 6.66699 8.76615 6.5792 8.92243 6.42291C9.07871 6.26663 9.1665 6.05467 9.1665 5.83366C9.1665 5.61265 9.07871 5.40068 8.92243 5.2444C8.76615 5.08812 8.55418 5.00033 8.33317 5.00033H7.49984C7.27882 5.00033 7.06686 5.08812 6.91058 5.2444C6.7543 5.40068 6.6665 5.61265 6.6665 5.83366C6.6665 6.05467 6.7543 6.26663 6.91058 6.42291C7.06686 6.5792 7.27882 6.66699 7.49984 6.66699ZM7.49984 10.0003H8.33317C8.55418 10.0003 8.76615 9.91253 8.92243 9.75625C9.07871 9.59997 9.1665 9.38801 9.1665 9.16699C9.1665 8.94598 9.07871 8.73402 8.92243 8.57774C8.76615 8.42146 8.55418 8.33366 8.33317 8.33366H7.49984C7.27882 8.33366 7.06686 8.42146 6.91058 8.57774C6.7543 8.73402 6.6665 8.94598 6.6665 9.16699C6.6665 9.38801 6.7543 9.59997 6.91058 9.75625C7.06686 9.91253 7.27882 10.0003 7.49984 10.0003ZM17.4998 16.667H16.6665V2.50033C16.6665 2.27931 16.5787 2.06735 16.4224 1.91107C16.2661 1.75479 16.0542 1.66699 15.8332 1.66699H4.1665C3.94549 1.66699 3.73353 1.75479 3.57725 1.91107C3.42097 2.06735 3.33317 2.27931 3.33317 2.50033V16.667H2.49984C2.27882 16.667 2.06686 16.7548 1.91058 16.9111C1.7543 17.0674 1.6665 17.2793 1.6665 17.5003C1.6665 17.7213 1.7543 17.9333 1.91058 18.0896C2.06686 18.2459 2.27882 18.3337 2.49984 18.3337H17.4998C17.7209 18.3337 17.9328 18.2459 18.0891 18.0896C18.2454 17.9333 18.3332 17.7213 18.3332 17.5003C18.3332 17.2793 18.2454 17.0674 18.0891 16.9111C17.9328 16.7548 17.7209 16.667 17.4998 16.667ZM10.8332 16.667H9.1665V13.3337H10.8332V16.667ZM14.9998 16.667H12.4998V12.5003C12.4998 12.2793 12.412 12.0674 12.2558 11.9111C12.0995 11.7548 11.8875 11.667 11.6665 11.667H8.33317C8.11216 11.667 7.9002 11.7548 7.74392 11.9111C7.58764 12.0674 7.49984 12.2793 7.49984 12.5003V16.667H4.99984V3.33366H14.9998V16.667Z" fill="currentcolor"/>
</svg>
