<svg width="36" height="36" viewBox="0 0 36 36" fill="none"
  xmlns="http://www.w3.org/2000/svg">
  <path d="M0 30.1483C0 26.1948 3.77151 11.4452 11.5694 1.56152C6.065 11.9521 2.86307 18.9874 5.19857 24.4715C7.03336 28.7797 16.4621 27.4112 21.5588 25.6879C12.4868 29.7935 3.17691 30.351 0 30.1483Z" fill="#C1272D"/>
  <path d="M16.8907 1.125C20.3335 3.10174 31.292 13.7247 36 25.3825C29.7038 15.4466 25.1783 9.17124 19.2349 8.4407C14.5658 7.86678 11.0431 16.6716 9.99548 21.9228C10.9563 12.0567 15.1257 3.75976 16.8907 1.125Z" fill="#C1272D"/>
  <path d="M33.798 30.1136C30.3552 32.0903 15.6253 36.2169 3.11938 34.4428C14.9199 33.9881 22.6474 33.2282 26.2552 28.4747C29.0896 24.7403 23.1835 17.304 19.1345 13.7761C27.2457 19.5367 32.3861 27.2761 33.798 30.1136Z" fill="#C1272D"/>
</svg>
