<svg width="24" height="24" viewBox="0 0 24 24" fill="none" xmlns="http://www.w3.org/2000/svg">
<path d="M3.2633 4.58495C2.16941 4.80996 0.994516 5.68373 0.506258 6.6415C0.0180004 7.59927 0 7.83478 0 11.8665C0 14.0179 0.0360005 15.7898 0.0900013 16.0666C0.411006 17.7076 1.69428 18.9909 3.3353 19.3119C3.83256 19.4019 10.3048 19.4477 10.3048 19.3479C10.3048 19.2755 9.75353 17.1061 9.72615 17.0791C9.71715 17.0611 8.56888 16.808 7.17686 16.5091C3.93156 15.8041 4.02681 15.8311 3.75981 15.5056L3.52468 15.2254V8.66279L3.75981 8.37779C4.03094 8.05228 3.93156 8.07966 7.17686 7.37426L9.72615 6.80425C9.7539 6.7855 10.3052 4.6157 10.3052 4.54745C10.3052 4.4612 3.69756 4.50245 3.2633 4.59245V4.58495ZM13.7402 4.59845C13.7492 4.76121 14.2555 6.74988 14.3102 6.80425C14.3282 6.83125 15.5665 7.11176 17.0493 7.42789C18.532 7.74402 19.8517 8.06541 19.9691 8.13291C20.1281 8.22516 20.2616 8.35566 20.3579 8.51242C20.5027 8.76555 20.5207 9.03668 20.5207 11.9475C20.5207 14.8583 20.5027 15.1294 20.3579 15.3826C20.2594 15.5374 20.1263 15.6673 19.9691 15.7621C19.8517 15.8258 18.544 16.1416 17.0493 16.4671L14.3102 17.0952C14.2558 17.1496 13.7496 19.1383 13.7402 19.301C13.7402 19.4004 14.3912 19.4184 17.2476 19.391C21.1852 19.355 21.234 19.346 22.2375 18.668C22.9582 18.1719 23.5027 17.4597 23.7922 16.634C24 16.0283 24 15.974 24 11.9512C24 7.92853 24 7.87415 23.7922 7.26851C23.5026 6.44288 22.9582 5.73061 22.2375 5.23447C21.234 4.5572 21.189 4.54745 17.2476 4.51183C14.3912 4.48483 13.7402 4.49833 13.7402 4.60183V4.59845ZM9.70515 11.7619C9.67618 11.8585 9.67002 11.9606 9.68715 12.06C9.71415 12.21 9.8769 12.2227 12.0009 12.2497L14.2791 12.2677V11.6351H12.0227C10.1334 11.6351 9.74453 11.6531 9.7089 11.7615L9.70515 11.7619Z" fill="#FF6A00"/>
</svg>
