<svg width="24" height="24" viewBox="0 0 24 24" fill="none" xmlns="http://www.w3.org/2000/svg">
<path fill-rule="evenodd" clip-rule="evenodd" d="M16.21 9.06286C16.1105 9.05736 16.0104 9.05636 15.9094 9.05636C12.3153 9.05636 9.39968 11.4987 9.39968 14.5129C9.39968 15.0062 9.48023 15.484 9.62681 15.9387C9.46772 15.9468 9.30763 15.9533 9.14654 15.9533C8.35659 15.9533 7.59516 15.8462 6.88526 15.6486C6.84474 15.6366 6.76369 15.6136 6.76369 15.6136L4.18023 16.9293L4.87062 14.7666L4.80509 14.7251C3.09962 13.6329 2 11.9125 2 9.97688C2 6.67601 5.19931 4 9.14654 4C12.7216 4 15.6837 6.19474 16.21 9.06286ZM6.65896 8.8903C6.10465 8.8903 5.65539 8.45456 5.65539 7.91825C5.65539 7.38145 6.10465 6.9472 6.65896 6.9472C7.21327 6.9472 7.66353 7.38145 7.66353 7.91825C7.66353 8.45456 7.21327 8.8903 6.65896 8.8903ZM11.6336 6.9472C12.1879 6.9472 12.6367 7.38145 12.6367 7.91825C12.6367 8.45456 12.1879 8.8903 11.6336 8.8903C11.0788 8.8903 10.6305 8.45456 10.6305 7.91825C10.6305 7.38145 11.0788 6.9472 11.6336 6.9472Z" fill="#1AAD19"/>
<path fill-rule="evenodd" clip-rule="evenodd" d="M15.9627 19.5983C12.6279 19.5983 9.92383 17.3376 9.92383 14.5485C9.92383 11.7604 12.6279 9.49963 15.9627 9.49963C19.2961 9.49963 21.9992 11.7604 21.9992 14.5485C21.9992 16.1844 21.0696 17.6377 19.6293 18.5603L19.5738 18.5948L20.1571 20.4228L17.9754 19.3102C17.9754 19.3102 17.9068 19.3307 17.8723 19.3397C17.273 19.5073 16.6296 19.5983 15.9627 19.5983ZM13.0136 12.8089C13.0136 12.3566 13.3938 11.9889 13.8616 11.9889C14.3304 11.9889 14.7101 12.3566 14.7101 12.8089C14.7101 13.2631 14.3304 13.6313 13.8616 13.6313C13.3938 13.6313 13.0136 13.2631 13.0136 12.8089ZM17.2143 12.8089C17.2143 12.3566 17.5935 11.9889 18.0617 11.9889C18.5305 11.9889 18.9097 12.3566 18.9097 12.8089C18.9097 13.2631 18.5305 13.6313 18.0617 13.6313C17.5935 13.6313 17.2143 13.2631 17.2143 12.8089Z" fill="#1AAD19"/>
</svg>
