<svg width="40" height="40" viewBox="0 0 40 40" fill="none" xmlns="http://www.w3.org/2000/svg">
<g clip-path="url(#clip0_9122_88152)">
<path d="M19.8563 0.104492C9.70125 0.104492 10.335 4.50824 10.335 4.50824L10.3475 9.07075H20.0375V10.4395H6.49625C6.49625 10.4395 0 9.702 0 19.9495C0 30.1945 5.67125 29.832 5.67125 29.832H9.05625V25.077C9.05625 25.077 8.87375 19.4057 14.6375 19.4057H24.2475C24.2475 19.4057 29.6475 19.4933 29.6475 14.187V5.41324C29.6475 5.41324 30.4675 0.104492 19.8563 0.104492ZM14.5125 3.17199C15.4763 3.17199 16.2563 3.95199 16.2563 4.91575C16.2563 5.8795 15.4763 6.65949 14.5125 6.65949C14.2834 6.65982 14.0565 6.61494 13.8448 6.52743C13.6331 6.43991 13.4407 6.31148 13.2788 6.14949C13.1168 5.98751 12.9883 5.79515 12.9008 5.58344C12.8133 5.37173 12.7684 5.14483 12.7688 4.91575C12.7688 3.95199 13.5488 3.17199 14.5125 3.17199Z" fill="url(#paint0_linear_9122_88152)"/>
<path d="M20.1438 39.8958C30.2988 39.8958 29.6651 35.4921 29.6651 35.4921L29.6526 30.9296H19.9626V29.5608H33.5026C33.5026 29.5608 40.0001 30.2983 40.0001 20.0521C40.0001 9.80582 34.3288 10.1696 34.3288 10.1696H30.9438V14.9233C30.9438 14.9233 31.1263 20.5946 25.3626 20.5946H15.7526C15.7526 20.5946 10.3526 20.5071 10.3526 25.8133V34.5871C10.3526 34.5871 9.53259 39.8958 20.1438 39.8958ZM25.4876 36.8283C25.2585 36.8287 25.0316 36.7838 24.8199 36.6963C24.6082 36.6087 24.4158 36.4803 24.2538 36.3183C24.0919 36.1563 23.9634 35.964 23.8759 35.7523C23.7884 35.5406 23.7435 35.3137 23.7438 35.0846C23.7438 34.1221 24.5238 33.3421 25.4876 33.3421C26.4513 33.3421 27.2313 34.1208 27.2313 35.0846C27.2313 36.0496 26.4513 36.8283 25.4876 36.8283Z" fill="url(#paint1_linear_9122_88152)"/>
</g>
<defs>
<linearGradient id="paint0_linear_9122_88152" x1="3.84375" y1="3.58199" x2="23.6225" y2="23.427" gradientUnits="userSpaceOnUse">
<stop stop-color="#387EB8"/>
<stop offset="1" stop-color="#366994"/>
</linearGradient>
<linearGradient id="paint1_linear_9122_88152" x1="16.0113" y1="16.2071" x2="37.2538" y2="36.5583" gradientUnits="userSpaceOnUse">
<stop stop-color="#FFE052"/>
<stop offset="1" stop-color="#FFC331"/>
</linearGradient>
<clipPath id="clip0_9122_88152">
<rect width="40" height="40" fill="white"/>
</clipPath>
</defs>
</svg>
