<svg viewBox="0 0 20 20"  xmlns="http://www.w3.org/2000/svg">
  <path d="M10.5916 12.9499L15.2999 8.23328C15.378 8.15581 15.44 8.06364 15.4823 7.96209C15.5246 7.86054 15.5464 7.75162 15.5464 7.64161C15.5464 7.5316 15.5246 7.42268 15.4823 7.32113C15.44 7.21958 15.378 7.12741 15.2999 7.04994C15.1438 6.89474 14.9325 6.80762 14.7124 6.80762C14.4922 6.80762 14.281 6.89474 14.1249 7.04994L9.95822 11.1749L5.83322 7.04994C5.67709 6.89474 5.46588 6.80762 5.24572 6.80762C5.02557 6.80762 4.81436 6.89474 4.65822 7.04994C4.57948 7.12712 4.51684 7.21916 4.47393 7.32072C4.43101 7.42229 4.40868 7.53136 4.40822 7.64161C4.40868 7.75187 4.43101 7.86094 4.47393 7.9625C4.51684 8.06406 4.57948 8.1561 4.65822 8.23328L9.36655 12.9499C9.44459 13.0345 9.5393 13.102 9.64472 13.1482C9.75013 13.1944 9.86397 13.2182 9.97905 13.2182C10.0941 13.2182 10.208 13.1944 10.3134 13.1482C10.4188 13.102 10.5135 13.0345 10.5916 12.9499Z" fill="currentcolor"/>
</svg>
