<svg width="22" height="22" viewBox="0 0 22 22" fill="none" xmlns="http://www.w3.org/2000/svg">
<path d="M14.2448 10.3488L9.05651 5.16959C8.97129 5.08367 8.86991 5.01547 8.7582 4.96894C8.6465 4.9224 8.52669 4.89844 8.40567 4.89844C8.28466 4.89844 8.16485 4.9224 8.05315 4.96894C7.94144 5.01547 7.84006 5.08367 7.75484 5.16959C7.58411 5.34133 7.48828 5.57367 7.48828 5.81584C7.48828 6.05801 7.58411 6.29034 7.75484 6.46209L12.2923 11.0454L7.75484 15.5829C7.58411 15.7547 7.48828 15.987 7.48828 16.2292C7.48828 16.4713 7.58411 16.7037 7.75484 16.8754C7.83974 16.962 7.94098 17.0309 8.0527 17.0781C8.16442 17.1253 8.28439 17.1499 8.40567 17.1504C8.52696 17.1499 8.64693 17.1253 8.75865 17.0781C8.87037 17.0309 8.97161 16.962 9.05651 16.8754L14.2448 11.6963C14.3379 11.6104 14.4121 11.5062 14.4629 11.3903C14.5137 11.2743 14.5399 11.1491 14.5399 11.0225C14.5399 10.8959 14.5137 10.7707 14.4629 10.6547C14.4121 10.5388 14.3379 10.4346 14.2448 10.3488Z" fill="currentcolor"/>
</svg>
