<svg width="20" height="20" viewBox="0 0 20 20" fill="none"
  xmlns="http://www.w3.org/2000/svg">
  <path d="M13.575 11.9083L9.99999 15.4916L6.42499 11.9083C6.26807 11.7514 6.05524 11.6632 5.83333 11.6632C5.61141 11.6632 5.39858 11.7514 5.24166 11.9083C5.08474 12.0652 4.99658 12.278 4.99658 12.4999C4.99658 12.7219 5.08474 12.9347 5.24166 13.0916L9.40833 17.2583C9.48579 17.3364 9.57796 17.3984 9.67951 17.4407C9.78106 17.483 9.88998 17.5048 9.99999 17.5048C10.11 17.5048 10.2189 17.483 10.3205 17.4407C10.422 17.3984 10.5142 17.3364 10.5917 17.2583L14.7583 13.0916C14.836 13.0139 14.8977 12.9217 14.9397 12.8202C14.9818 12.7186 15.0034 12.6098 15.0034 12.4999C15.0034 12.3901 14.9818 12.2813 14.9397 12.1797C14.8977 12.0782 14.836 11.986 14.7583 11.9083C14.6806 11.8306 14.5884 11.7689 14.4869 11.7269C14.3853 11.6848 14.2765 11.6632 14.1667 11.6632C14.0568 11.6632 13.948 11.6848 13.8465 11.7269C13.7449 11.7689 13.6527 11.8306 13.575 11.9083ZM6.42499 8.09162L9.99999 4.50828L13.575 8.09162C13.6525 8.16972 13.7446 8.23172 13.8462 8.27402C13.9477 8.31633 14.0566 8.33811 14.1667 8.33811C14.2767 8.33811 14.3856 8.31633 14.4871 8.27402C14.5887 8.23172 14.6809 8.16972 14.7583 8.09162C14.8364 8.01415 14.8984 7.92198 14.9407 7.82043C14.983 7.71888 15.0048 7.60996 15.0048 7.49995C15.0048 7.38994 14.983 7.28102 14.9407 7.17947C14.8984 7.07792 14.8364 6.98575 14.7583 6.90828L10.5917 2.74162C10.5142 2.66351 10.422 2.60151 10.3205 2.55921C10.2189 2.5169 10.11 2.49512 9.99999 2.49512C9.88998 2.49512 9.78106 2.5169 9.67951 2.55921C9.57796 2.60151 9.48579 2.66351 9.40833 2.74162L5.24166 6.90828C5.08474 7.0652 4.99658 7.27803 4.99658 7.49995C4.99658 7.72187 5.08474 7.9347 5.24166 8.09162C5.39858 8.24854 5.61141 8.33669 5.83333 8.33669C6.05524 8.33669 6.26807 8.24854 6.42499 8.09162Z" fill="currentcolor" />
</svg>
