<svg width="21" height="21" viewBox="0 0 21 21" fill="none" xmlns="http://www.w3.org/2000/svg">
<path d="M11.1837 14.045L11.0587 13.945C11.0122 13.9135 10.9618 13.8882 10.9087 13.87L10.7587 13.8033C10.6235 13.7751 10.4835 13.7808 10.3511 13.8201C10.2187 13.8594 10.0982 13.9309 10.0003 14.0283C9.92672 14.1093 9.86754 14.2023 9.82533 14.3033C9.76227 14.4552 9.74553 14.6223 9.77721 14.7836C9.8089 14.9449 9.8876 15.0933 10.0034 15.21C10.1192 15.3267 10.267 15.4065 10.4281 15.4394C10.5891 15.4724 10.7564 15.4569 10.9087 15.395C11.0082 15.3467 11.1008 15.285 11.1837 15.2117C11.2993 15.0945 11.3776 14.9457 11.4088 14.784C11.4399 14.6223 11.4225 14.4551 11.3587 14.3033C11.3171 14.207 11.2577 14.1193 11.1837 14.045ZM13.9253 2.13666H7.25867C6.59563 2.13666 5.95974 2.40005 5.4909 2.86889C5.02206 3.33773 4.75867 3.97362 4.75867 4.63666V16.3033C4.75867 16.9664 5.02206 17.6023 5.4909 18.0711C5.95974 18.5399 6.59563 18.8033 7.25867 18.8033H13.9253C14.5884 18.8033 15.2243 18.5399 15.6931 18.0711C16.1619 17.6023 16.4253 16.9664 16.4253 16.3033V4.63666C16.4253 3.97362 16.1619 3.33773 15.6931 2.86889C15.2243 2.40005 14.5884 2.13666 13.9253 2.13666ZM14.7587 16.3033C14.7587 16.5243 14.6709 16.7363 14.5146 16.8926C14.3583 17.0489 14.1463 17.1367 13.9253 17.1367H7.25867C7.03765 17.1367 6.82569 17.0489 6.66941 16.8926C6.51313 16.7363 6.42533 16.5243 6.42533 16.3033V4.63666C6.42533 4.41564 6.51313 4.20368 6.66941 4.0474C6.82569 3.89112 7.03765 3.80332 7.25867 3.80332H13.9253C14.1463 3.80332 14.3583 3.89112 14.5146 4.0474C14.6709 4.20368 14.7587 4.41564 14.7587 4.63666V16.3033Z" fill="currentColor"/>
</svg>
