<svg width="21" height="20" viewBox="0 0 21 20" fill="none" xmlns="http://www.w3.org/2000/svg">
<path d="M11.8357 16.8714C11.941 17.4135 11.5865 17.9451 11.0355 17.9821C9.9048 18.0579 8.7669 17.8929 7.69834 17.4934C6.31639 16.9767 5.10425 16.0879 4.19591 14.9253C3.28758 13.7627 2.71844 12.3715 2.55143 10.9056C2.38441 9.43973 2.62602 7.9562 3.24954 6.61905C3.87306 5.28191 4.85421 4.14323 6.0845 3.32891C7.3148 2.5146 8.74632 2.05636 10.2208 2.00487C11.6953 1.95338 13.1553 2.31064 14.4394 3.03715C15.4323 3.59891 16.2901 4.36452 16.9588 5.27942C17.2847 5.72531 17.1054 6.33858 16.6223 6.60633C16.1393 6.87408 15.5366 6.69278 15.1924 6.26086C14.7154 5.66218 14.1262 5.15785 13.4545 4.77787C12.4915 4.23298 11.3965 3.96504 10.2906 4.00366C9.18474 4.04227 8.1111 4.38595 7.18838 4.99669C6.26565 5.60742 5.52979 6.46143 5.06215 7.46429C4.59451 8.46715 4.41331 9.5798 4.53857 10.6792C4.66383 11.7786 5.09069 12.822 5.77194 13.694C6.45319 14.5659 7.3623 15.2325 8.39876 15.62C9.12154 15.8903 9.88663 16.0175 10.6519 15.9981C11.204 15.9841 11.7303 16.3293 11.8357 16.8714Z" fill="currentColor"/>
</svg>
