<svg width="24" height="24" viewBox="0 0 24 24" fill="none" xmlns="http://www.w3.org/2000/svg">
<g clip-path="url(#clip0_2715_3966)">
<path d="M1 19.5172V16.6506C1 15.878 1.19167 15.2173 1.575 14.6684C1.95833 14.1194 2.45263 13.7027 3.05789 13.418C4.40963 12.8081 5.70592 12.3507 6.94671 12.0457C8.1875 11.7408 9.43331 11.5883 10.6842 11.5883C11.2088 11.5883 11.7182 11.6137 12.2125 11.6645C12.7068 11.7154 13.2162 11.7916 13.7408 11.8933C13.6399 13.0724 13.8568 14.1855 14.3914 15.2325C14.9261 16.2796 15.7079 17.0978 16.7368 17.6874V19.5172H1ZM20.3684 24L18.5526 22.1703V16.4981C17.6649 16.2338 16.9386 15.7306 16.3737 14.9886C15.8088 14.2465 15.5263 13.3875 15.5263 12.4117C15.5263 11.2325 15.9399 10.2262 16.7671 9.39263C17.5943 8.55906 18.593 8.14231 19.7632 8.14231C20.9333 8.14231 21.932 8.55906 22.7592 9.39263C23.5864 10.2262 24 11.2325 24 12.4117C24 13.3266 23.7428 14.1398 23.2283 14.8513C22.7138 15.5629 22.0632 16.0712 21.2763 16.3761L22.7895 17.9009L20.9737 19.7306L22.7895 21.5604L20.3684 24ZM10.6842 9.14867C9.41316 9.14867 8.33882 8.70648 7.46118 7.82211C6.58355 6.93774 6.14474 5.85515 6.14474 4.57433C6.14474 3.29352 6.58355 2.21093 7.46118 1.32656C8.33882 0.442186 9.41316 0 10.6842 0C11.9553 0 13.0296 0.442186 13.9072 1.32656C14.7849 2.21093 15.2237 3.29352 15.2237 4.57433C15.2237 5.85515 14.7849 6.93774 13.9072 7.82211C13.0296 8.70648 11.9553 9.14867 10.6842 9.14867ZM19.7632 13.0216C20.1062 13.0216 20.3937 12.9047 20.6257 12.6709C20.8577 12.4371 20.9737 12.1474 20.9737 11.8018C20.9737 11.4561 20.8577 11.1664 20.6257 10.9327C20.3937 10.6989 20.1062 10.582 19.7632 10.582C19.4202 10.582 19.1327 10.6989 18.9007 10.9327C18.6687 11.1664 18.5526 11.4561 18.5526 11.8018C18.5526 12.1474 18.6687 12.4371 18.9007 12.6709C19.1327 12.9047 19.4202 13.0216 19.7632 13.0216Z" fill="currentColor"/>
</g>
</svg>
