<svg width="20" height="20" viewBox="0 0 20 20" fill="none" xmlns="http://www.w3.org/2000/svg">
<path d="M11.3357 16.8714C11.441 17.4135 11.0865 17.9451 10.5355 17.9821C9.4048 18.0579 8.2669 17.8929 7.19834 17.4934C5.81639 16.9767 4.60425 16.0879 3.69591 14.9253C2.78758 13.7627 2.21844 12.3715 2.05143 10.9056C1.88441 9.43973 2.12602 7.9562 2.74954 6.61905C3.37306 5.28191 4.35421 4.14323 5.5845 3.32891C6.8148 2.5146 8.24632 2.05636 9.7208 2.00487C11.1953 1.95338 12.6553 2.31064 13.9394 3.03715C14.9323 3.59891 15.7901 4.36452 16.4588 5.27942C16.7847 5.72531 16.6054 6.33858 16.1223 6.60633C15.6393 6.87408 15.0366 6.69278 14.6924 6.26086C14.2154 5.66218 13.6262 5.15785 12.9545 4.77787C11.9915 4.23298 10.8965 3.96504 9.7906 4.00366C8.68474 4.04227 7.6111 4.38595 6.68838 4.99669C5.76565 5.60742 5.02979 6.46143 4.56215 7.46429C4.09451 8.46715 3.91331 9.5798 4.03857 10.6792C4.16383 11.7786 4.59069 12.822 5.27194 13.694C5.95319 14.5659 6.8623 15.2325 7.89876 15.62C8.62154 15.8903 9.38663 16.0175 10.1519 15.9981C10.704 15.9841 11.2303 16.3293 11.3357 16.8714Z" fill="currentColor"/>
</svg>
