<svg width="16" height="17" viewBox="0 0 16 17" fill="none" xmlns="http://www.w3.org/2000/svg">
  <path fill-rule="evenodd" clip-rule="evenodd" d="M6 10.5C3.791 10.5 2 8.709 2 6.5C2 4.291 3.791 2.5 6 2.5C8.209 2.5 10 4.291 10 6.5C10 8.709 8.209 10.5 6 10.5ZM15.707 14.793L10.887 9.973C11.585 8.992 12 7.796 12 6.5C12 3.187 9.313 0.5 6 0.5C2.687 0.5 0 3.187 0 6.5C0 9.813 2.687 12.5 6 12.5C7.296 12.5 8.492 12.085 9.473 11.387L14.293 16.207C14.488 16.402 14.744 16.5 15 16.5C15.256 16.5 15.512 16.402 15.707 16.207C16.098 15.816 16.098 15.184 15.707 14.793Z" fill="currentcolor"/>
</svg>
