<svg width="48" height="48" viewBox="0 0 48 48" fill="none" xmlns="http://www.w3.org/2000/svg">
<g clip-path="url(#clip0_76_12976)">
<mask id="mask0_76_12976" style="mask-type:luminance" maskUnits="userSpaceOnUse" x="8" y="7" width="32" height="34">
<path d="M40 7H8V40.1852H40V7Z" fill="white"/>
</mask>
<g mask="url(#mask0_76_12976)">
<path d="M39.4938 18.2997C40.4432 15.3253 39.8727 9.38478 38.0309 7.19292C37.7905 6.90613 37.3382 6.9471 37.1386 7.26257L34.869 10.8433C34.3066 11.5603 33.2961 11.7241 32.5382 11.2243C30.0771 9.60601 27.1352 8.66372 23.9732 8.66372C20.8113 8.66372 17.8693 9.60601 15.4082 11.2243C14.6503 11.7241 13.6398 11.5562 13.0775 10.8433L10.8079 7.26257C10.6082 6.9471 10.1559 6.90613 9.91549 7.19292C8.07373 9.38478 7.50327 15.3253 8.45267 18.2997C8.76643 19.2871 8.85607 20.3318 8.66863 21.3519C8.48527 22.3598 8.29784 23.5806 8.29784 24.4246C8.29784 33.1265 15.3186 40.1855 23.9732 40.1855C32.632 40.1855 39.6486 33.1306 39.6486 24.4246C39.6486 23.5766 39.4652 22.3598 39.2778 21.3519C39.0904 20.3318 39.18 19.2871 39.4938 18.2997ZM23.9732 36.6622C17.2826 36.6622 11.8388 31.1887 11.8388 24.4615C11.8388 24.2403 11.8469 24.0231 11.8551 23.806C12.0995 19.2215 14.8663 15.3007 18.7861 13.4325C20.359 12.6787 22.1192 12.2608 23.9732 12.2608C25.8272 12.2608 27.5875 12.6828 29.1644 13.4366C33.0842 15.3049 35.851 19.2256 36.0954 23.806C36.1077 24.0231 36.1118 24.2403 36.1118 24.4615C36.1077 31.1887 30.6639 36.6622 23.9732 36.6622Z" fill="#1EB4D4"/>
<path d="M29.2294 29.1563L26.1286 23.7524L23.4678 19.2458C23.4067 19.1393 23.2926 19.0737 23.1663 19.0737H20.6236C20.4973 19.0737 20.3832 19.1434 20.3221 19.2499C20.261 19.3605 20.261 19.4957 20.3262 19.6022L22.8688 23.904L19.4542 29.1399C19.3849 29.2464 19.3768 29.3857 19.4379 29.5004C19.499 29.6151 19.6172 29.6848 19.7435 29.6848H22.3024C22.4206 29.6848 22.5306 29.6233 22.5958 29.525L24.4416 26.6244L26.096 29.5086C26.1571 29.6192 26.2752 29.6848 26.3975 29.6848H28.9197C29.046 29.6848 29.1601 29.6192 29.2213 29.5086C29.2946 29.398 29.2946 29.2669 29.2294 29.1563Z" fill="#1EB4D4"/>
</g>
</g>
<defs>
<clipPath id="clip0_76_12976">
<rect width="32" height="33.1852" fill="white" transform="translate(8 7)"/>
</clipPath>
</defs>
</svg>
