<svg width="24" height="24" viewBox="0 0 24 24" fill="none" xmlns="http://www.w3.org/2000/svg">
<path d="M4.71942 6.071C3.80784 6.2585 2.82876 6.98664 2.42188 7.78477C2.015 8.58291 2 8.77916 2 12.1389C2 13.9317 2.03 15.4083 2.075 15.639C2.34251 17.0065 3.4119 18.0759 4.77942 18.3434C5.1938 18.4184 10.5873 18.4565 10.5873 18.3734C10.5873 18.3131 10.1279 16.5052 10.1051 16.4827C10.0976 16.4677 9.14074 16.2568 7.98072 16.0077C5.2763 15.4202 5.35568 15.4427 5.13317 15.1715L4.93723 14.938V9.46918L5.13317 9.23167C5.35911 8.96042 5.2763 8.98323 7.98072 8.39541L10.1051 7.9204C10.1283 7.90478 10.5876 6.09662 10.5876 6.03975C10.5876 5.96787 5.0813 6.00225 4.71942 6.07725V6.071ZM13.4502 6.08225C13.4577 6.21787 13.8796 7.87509 13.9252 7.9204C13.9402 7.9429 14.9721 8.17665 16.2077 8.4401C17.4434 8.70354 18.5431 8.97135 18.6409 9.02761C18.7734 9.10448 18.8846 9.21323 18.965 9.34386C19.0856 9.5548 19.1006 9.78074 19.1006 12.2064C19.1006 14.6321 19.0856 14.858 18.965 15.0689C18.8828 15.198 18.7719 15.3062 18.6409 15.3852C18.5431 15.4383 17.4534 15.7015 16.2077 15.9727L13.9252 16.4962C13.8799 16.5415 13.458 18.1987 13.4502 18.3343C13.4502 18.4171 13.9927 18.4321 16.373 18.4093C19.6543 18.3793 19.695 18.3718 20.5312 17.8068C21.1319 17.3934 21.5856 16.7999 21.8269 16.1118C22 15.6071 22 15.5618 22 12.2095C22 8.85729 22 8.81198 21.8269 8.30728C21.5855 7.61926 21.1318 7.02571 20.5312 6.61226C19.695 6.04787 19.6575 6.03975 16.373 6.01006C13.9927 5.98756 13.4502 5.99881 13.4502 6.08506V6.08225ZM10.0876 12.0517C10.0635 12.1323 10.0584 12.2173 10.0726 12.3002C10.0951 12.4252 10.2308 12.4358 12.0008 12.4583L13.8992 12.4733V11.9461H12.0189C10.4445 11.9461 10.1204 11.9611 10.0908 12.0514L10.0876 12.0517Z" fill="#FF6A00"/>
</svg>
