<svg width="160" height="160" viewBox="0 0 160 160" fill="none" xmlns="http://www.w3.org/2000/svg">
<g clip-path="url(#clip0_1383_9230)">
<rect width="160" height="160" fill="#7958FF"/>
<rect x="34" y="56" width="4" height="28" fill="#F4E560"/>
<rect x="38" y="48" width="4" height="36" fill="#F4E560"/>
<rect x="42" y="40" width="4" height="36" fill="#F4E560"/>
<rect x="46" y="36" width="4" height="44" fill="black"/>
<rect x="46" y="36" width="4" height="18" fill="#F4E560"/>
<rect x="50" y="32" width="4" height="32" fill="#F4E560"/>
<rect x="54" y="28" width="4" height="40" fill="#F4E560"/>
<rect x="58" y="24" width="4" height="24" fill="#F4E560"/>
<rect x="62" y="20" width="4" height="24" fill="#F4E560"/>
<rect x="66" y="20" width="4" height="20" fill="#F4E560"/>
<rect x="70" y="20" width="4" height="20" fill="#F4E560"/>
<rect x="74" y="20" width="4" height="20" fill="#F4E560"/>
<rect x="78" y="20" width="4" height="20" fill="#F4E560"/>
<rect x="82" y="24" width="4" height="16" fill="#F4E560"/>
<rect x="86" y="24" width="4" height="16" fill="#F4E560"/>
<rect x="90" y="24" width="4" height="12" fill="#F4E560"/>
<rect x="94" y="24" width="4" height="16" fill="#F4E560"/>
<rect x="98" y="20" width="4" height="20" fill="#F4E560"/>
<rect x="102" y="20" width="4" height="20" fill="#F4E560"/>
<rect x="106" y="20" width="4" height="20" fill="#F4E560"/>
<rect x="110" y="20" width="4" height="24" fill="#F4E560"/>
<rect x="114" y="24" width="4" height="28" fill="#F4E560"/>
<rect x="118" y="28" width="4" height="28" fill="#F4E560"/>
<rect x="122" y="32" width="4" height="36" fill="#F4E560"/>
<rect x="126" y="44" width="4" height="36" fill="black"/>
<rect x="126" y="44" width="4" height="12" fill="#F4E560"/>
<rect x="130" y="52" width="4" height="24" fill="#F4E560"/>
<rect x="50" y="68" width="4" height="40" fill="#FFDAD4"/>
<rect x="46" y="80" width="4" height="24" fill="#FFDAD4"/>
<rect x="46" y="96" width="4" height="8" fill="#FFDAD4"/>
<rect x="42" y="80" width="4" height="20" fill="#FFDAD4"/>
<rect x="54" y="72" width="4" height="44" fill="#FFDAD4"/>
<rect x="58" y="48" width="4" height="92" fill="#FFDAD4"/>
<rect x="62" y="44" width="4" height="100" fill="#FFDAD4"/>
<rect x="66" y="44" width="4" height="84" fill="#FFDAD4"/>
<rect x="70" y="44" width="4" height="84" fill="#FFDAD4"/>
<rect x="74" y="36" width="4" height="96" fill="#FFDAD4"/>
<rect x="78" y="38" width="4" height="98" fill="#FFDAD4"/>
<rect x="82" y="38" width="4" height="98" fill="#FFDAD4"/>
<rect x="86" y="40" width="4" height="96" fill="#FFDAD4"/>
<rect x="90" y="36" width="4" height="100" fill="#FFDAD4"/>
<rect x="94" y="40" width="4" height="96" fill="#FFDAD4"/>
<rect x="98" y="40" width="4" height="92" fill="#FFDAD4"/>
<rect x="102" y="40" width="4" height="88" fill="#FFDAD4"/>
<rect x="106" y="40" width="4" height="84" fill="#FFDAD4"/>
<rect x="110" y="44" width="4" height="80" fill="#FFDAD4"/>
<rect x="114" y="48" width="4" height="68" fill="#FFDAD4"/>
<rect x="118" y="64" width="4" height="48" fill="#FFDAD4"/>
<rect x="122" y="68" width="4" height="36" fill="#FFDAD4"/>
<rect x="106" y="124" width="4" height="24" fill="#FFDAD4"/>
<rect x="102" y="128" width="4" height="32" fill="#FFDAD4"/>
<rect x="98" y="132" width="4" height="28" fill="#FFDAD4"/>
<rect x="94" y="136" width="4" height="24" fill="#FFDAD4"/>
<rect x="90" y="136" width="4" height="24" fill="#FFDAD4"/>
<rect x="86" y="136" width="4" height="24" fill="#FFDAD4"/>
<rect x="82" y="136" width="4" height="24" fill="#FFDAD4"/>
<rect x="78" y="136" width="4" height="24" fill="#FFDAD4"/>
<rect x="74" y="132" width="4" height="24" fill="#FFDAD4"/>
<rect x="70" y="128" width="4" height="24" fill="#FFDAD4"/>
<rect x="66" y="128" width="4" height="20" fill="#FFDAD4"/>
<rect x="126" y="76" width="4" height="24" fill="#FFDAD4"/>
<rect x="82" y="140" width="4" height="4" fill="#FFB4A9"/>
<rect x="78" y="140" width="4" height="4" fill="#FFB4A9"/>
<rect x="74" y="140" width="4" height="4" fill="#FFB4A9"/>
<rect x="70" y="136" width="4" height="4" fill="#FFB4A9"/>
<rect x="66" y="132" width="4" height="4" fill="#FFB4A9"/>
<rect x="86" y="140" width="4" height="4" fill="#FFB4A9"/>
<rect x="90" y="140" width="4" height="4" fill="#FFB4A9"/>
<rect x="94" y="140" width="4" height="4" fill="#FFB4A9"/>
<rect x="98" y="140" width="4" height="4" fill="#FFB4A9"/>
<rect x="102" y="136" width="4" height="4" fill="#FFB4A9"/>
<rect x="106" y="132" width="4" height="4" fill="#FFB4A9"/>
<rect x="82" y="144" width="4" height="4" fill="#FFB4A9"/>
<rect x="86" y="144" width="4" height="4" fill="#FFB4A9"/>
<rect x="90" y="144" width="4" height="4" fill="#FFB4A9"/>
<rect x="74" y="16" width="4" height="4" fill="black"/>
<rect x="70" y="16" width="4" height="4" fill="black"/>
<rect x="66" y="16" width="4" height="4" fill="black"/>
<rect x="62" y="16" width="4" height="4" fill="black"/>
<rect x="58" y="20" width="4" height="4" fill="black"/>
<rect x="54" y="24" width="4" height="4" fill="black"/>
<rect x="50" y="28" width="4" height="4" fill="black"/>
<rect x="46" y="32" width="4" height="4" fill="black"/>
<rect x="42" y="36" width="4" height="4" fill="black"/>
<rect x="38" y="40" width="4" height="4" fill="black"/>
<rect x="38" y="44" width="4" height="4" fill="black"/>
<rect x="38" y="48" width="4" height="4" fill="black"/>
<rect x="34" y="52" width="4" height="4" fill="black"/>
<rect x="34" y="56" width="4" height="4" fill="black"/>
<rect x="34" y="60" width="4" height="4" fill="black"/>
<rect x="30" y="64" width="4" height="4" fill="black"/>
<rect x="30" y="68" width="4" height="4" fill="black"/>
<rect x="30" y="72" width="4" height="4" fill="black"/>
<rect x="30" y="76" width="4" height="4" fill="black"/>
<rect x="34" y="80" width="4" height="4" fill="black"/>
<rect x="38" y="84" width="4" height="4" fill="black"/>
<rect x="38" y="72" width="4" height="4" fill="black"/>
<rect x="42" y="76" width="4" height="4" fill="black"/>
<rect x="46" y="80" width="4" height="4" fill="black"/>
<rect x="42" y="80" width="4" height="4" fill="black"/>
<rect x="38" y="88" width="4" height="4" fill="black"/>
<rect x="38" y="92" width="4" height="4" fill="black"/>
<rect x="38" y="96" width="4" height="4" fill="black"/>
<rect x="42" y="100" width="4" height="4" fill="black"/>
<rect x="46" y="104" width="4" height="4" fill="black"/>
<rect x="46" y="84" width="4" height="4" fill="black"/>
<rect x="46" y="88" width="4" height="4" fill="black"/>
<rect x="46" y="92" width="4" height="4" fill="black"/>
<rect x="46" y="96" width="4" height="4" fill="black"/>
<rect x="50" y="100" width="4" height="4" fill="black"/>
<rect x="50" y="104" width="4" height="4" fill="black"/>
<rect x="50" y="108" width="4" height="4" fill="black"/>
<rect x="54" y="112" width="4" height="4" fill="black"/>
<rect x="54" y="116" width="4" height="4" fill="black"/>
<rect x="58" y="120" width="4" height="4" fill="black"/>
<rect x="62" y="124" width="4" height="4" fill="black"/>
<rect x="66" y="128" width="4" height="4" fill="black"/>
<rect x="70" y="132" width="4" height="4" fill="black"/>
<rect x="74" y="136" width="4" height="4" fill="black"/>
<rect x="78" y="136" width="4" height="4" fill="black"/>
<rect x="82" y="136" width="4" height="4" fill="black"/>
<rect x="86" y="136" width="4" height="4" fill="black"/>
<rect x="90" y="136" width="4" height="4" fill="black"/>
<rect x="94" y="136" width="4" height="4" fill="black"/>
<rect x="98" y="136" width="4" height="4" fill="black"/>
<rect x="102" y="132" width="4" height="4" fill="black"/>
<rect x="106" y="128" width="4" height="4" fill="black"/>
<rect x="110" y="124" width="4" height="4" fill="black"/>
<rect x="114" y="120" width="4" height="4" fill="black"/>
<rect x="114" y="116" width="4" height="4" fill="black"/>
<rect x="118" y="112" width="4" height="4" fill="black"/>
<rect x="118" y="108" width="4" height="4" fill="black"/>
<rect x="122" y="104" width="4" height="4" fill="black"/>
<rect x="122" y="100" width="4" height="4" fill="black"/>
<rect x="122" y="96" width="4" height="4" fill="black"/>
<rect x="126" y="100" width="4" height="4" fill="black"/>
<rect x="130" y="96" width="4" height="4" fill="black"/>
<rect x="130" y="92" width="4" height="4" fill="black"/>
<rect x="130" y="88" width="4" height="4" fill="black"/>
<rect x="130" y="84" width="4" height="4" fill="black"/>
<rect x="50" y="72" width="4" height="4" fill="black"/>
<rect x="50" y="68" width="4" height="4" fill="black"/>
<rect x="50" y="64" width="4" height="4" fill="black"/>
<rect x="46" y="60" width="4" height="4" fill="black"/>
<rect x="46" y="56" width="4" height="4" fill="black"/>
<rect x="46" y="52" width="4" height="4" fill="black"/>
<rect x="50" y="48" width="4" height="4" fill="black"/>
<rect x="50" y="44" width="4" height="4" fill="black"/>
<rect x="54" y="40" width="4" height="4" fill="black"/>
<rect x="54" y="68" width="4" height="4" fill="black"/>
<rect x="58" y="64" width="4" height="4" fill="black"/>
<rect x="70" y="66" width="4" height="4" fill="black"/>
<rect x="72" y="72" width="4" height="4" fill="black"/>
<rect x="74" y="66" width="4" height="4" fill="black"/>
<rect x="78" y="66" width="4" height="4" fill="black"/>
<rect opacity="0.4" x="82" y="66" width="4" height="4" fill="black"/>
<rect opacity="0.4" x="86" y="66" width="4" height="4" fill="black"/>
<rect opacity="0.4" x="90" y="66" width="4" height="4" fill="black"/>
<rect x="94" y="66" width="4" height="4" fill="black"/>
<rect x="98" y="66" width="4" height="4" fill="black"/>
<rect x="102" y="66" width="4" height="4" fill="black"/>
<rect x="102" y="72" width="4" height="4" fill="black"/>
<rect x="106" y="66" width="4" height="4" fill="black"/>
<rect x="110" y="66" width="4" height="4" fill="black"/>
<rect x="114" y="70" width="4" height="4" fill="black"/>
<rect x="118" y="74" width="4" height="4" fill="black"/>
<rect x="118" y="78" width="4" height="4" fill="black"/>
<rect x="118" y="82" width="4" height="4" fill="black"/>
<rect x="118" y="86" width="4" height="4" fill="black"/>
<rect x="114" y="90" width="4" height="4" fill="black"/>
<rect x="110" y="90" width="4" height="4" fill="black"/>
<rect x="106" y="90" width="4" height="4" fill="black"/>
<rect x="102" y="90" width="4" height="4" fill="black"/>
<rect x="98" y="90" width="4" height="4" fill="black"/>
<rect x="94" y="86" width="4" height="4" fill="black"/>
<rect x="90" y="82" width="4" height="4" fill="black"/>
<rect x="90" y="92" width="4" height="4" fill="black"/>
<rect x="86" y="92" width="4" height="4" fill="black"/>
<rect x="86" y="108" width="4" height="4" fill="black"/>
<rect x="82" y="108" width="4" height="4" fill="black"/>
<rect x="78" y="108" width="4" height="4" fill="black"/>
<rect x="74" y="104" width="4" height="4" fill="black"/>
<rect x="90" y="108" width="4" height="4" fill="black"/>
<rect x="94" y="108" width="4" height="4" fill="black"/>
<rect x="82" y="92" width="4" height="4" fill="black"/>
<rect x="90" y="78" width="4" height="4" fill="black"/>
<rect x="90" y="74" width="4" height="4" fill="black"/>
<rect x="90" y="70" width="4" height="4" fill="black"/>
<rect x="82" y="70" width="4" height="4" fill="black"/>
<rect x="82" y="74" width="4" height="4" fill="black"/>
<rect opacity="0.4" x="86" y="74" width="4" height="4" fill="black"/>
<rect x="82" y="78" width="4" height="4" fill="black"/>
<rect x="82" y="82" width="4" height="4" fill="black"/>
<rect x="78" y="86" width="4" height="4" fill="black"/>
<rect x="74" y="90" width="4" height="4" fill="black"/>
<rect x="70" y="90" width="4" height="4" fill="black"/>
<rect x="66" y="90" width="4" height="4" fill="black"/>
<rect x="62" y="86" width="4" height="4" fill="black"/>
<rect x="58" y="82" width="4" height="4" fill="black"/>
<rect x="58" y="78" width="4" height="4" fill="black"/>
<rect x="58" y="74" width="4" height="4" fill="black"/>
<rect x="62" y="70" width="4" height="4" fill="black"/>
<rect x="66" y="66" width="4" height="4" fill="black"/>
<rect x="58" y="60" width="4" height="4" fill="black"/>
<rect x="58" y="56" width="4" height="4" fill="black"/>
<rect x="58" y="52" width="4" height="4" fill="black"/>
<rect x="58" y="48" width="4" height="4" fill="black"/>
<rect x="62" y="44" width="4" height="4" fill="black"/>
<rect x="66" y="40" width="4" height="4" fill="black"/>
<rect x="70" y="36" width="4" height="4" fill="black"/>
<rect x="74" y="32" width="4" height="4" fill="black"/>
<rect x="74" y="36" width="4" height="4" fill="black"/>
<rect x="74" y="40" width="4" height="4" fill="black"/>
<rect x="70" y="40" width="4" height="4" fill="black"/>
<rect x="66" y="44" width="4" height="4" fill="black"/>
<rect x="62" y="48" width="4" height="4" fill="black"/>
<rect x="78" y="32" width="4" height="4" fill="black"/>
<rect x="78" y="36" width="4" height="4" fill="black"/>
<rect x="82" y="36" width="4" height="4" fill="black"/>
<rect x="82" y="32" width="4" height="4" fill="black"/>
<rect x="86" y="36" width="4" height="4" fill="black"/>
<rect x="90" y="32" width="4" height="4" fill="black"/>
<rect x="94" y="32" width="4" height="4" fill="black"/>
<rect x="98" y="32" width="4" height="4" fill="black"/>
<rect x="98" y="36" width="4" height="4" fill="black"/>
<rect x="94" y="36" width="4" height="4" fill="black"/>
<rect x="102" y="32" width="4" height="4" fill="black"/>
<rect x="102" y="36" width="4" height="4" fill="black"/>
<rect x="102" y="40" width="4" height="4" fill="black"/>
<rect x="106" y="40" width="4" height="4" fill="black"/>
<rect x="110" y="44" width="4" height="4" fill="black"/>
<rect x="114" y="52" width="4" height="4" fill="black"/>
<rect x="106" y="36" width="4" height="4" fill="black"/>
<rect x="110" y="40" width="4" height="4" fill="black"/>
<rect x="114" y="44" width="4" height="4" fill="black"/>
<rect x="114" y="48" width="4" height="4" fill="black"/>
<rect x="118" y="52" width="4" height="4" fill="black"/>
<rect x="118" y="56" width="4" height="4" fill="black"/>
<rect x="118" y="60" width="4" height="4" fill="black"/>
<rect x="118" y="64" width="4" height="4" fill="black"/>
<rect x="122" y="68" width="4" height="4" fill="black"/>
<rect x="126" y="64" width="4" height="4" fill="black"/>
<rect x="126" y="60" width="4" height="4" fill="black"/>
<rect x="126" y="56" width="4" height="4" fill="black"/>
<rect x="78" y="16" width="4" height="4" fill="black"/>
<rect x="82" y="20" width="4" height="4" fill="black"/>
<rect x="86" y="24" width="4" height="4" fill="black"/>
<rect x="90" y="24" width="4" height="4" fill="black"/>
<rect x="94" y="20" width="4" height="4" fill="black"/>
<rect x="98" y="16" width="4" height="4" fill="black"/>
<rect x="102" y="16" width="4" height="4" fill="black"/>
<rect x="106" y="16" width="4" height="4" fill="black"/>
<rect x="110" y="16" width="4" height="4" fill="black"/>
<rect x="114" y="20" width="4" height="4" fill="black"/>
<rect x="118" y="24" width="4" height="4" fill="black"/>
<rect x="122" y="28" width="4" height="4" fill="black"/>
<rect x="126" y="32" width="4" height="4" fill="black"/>
<rect x="126" y="36" width="4" height="4" fill="black"/>
<rect x="126" y="40" width="4" height="4" fill="black"/>
<rect x="130" y="44" width="4" height="4" fill="black"/>
<rect x="130" y="48" width="4" height="4" fill="black"/>
<rect x="134" y="52" width="4" height="4" fill="black"/>
<rect x="134" y="56" width="4" height="4" fill="black"/>
<rect x="134" y="60" width="4" height="4" fill="black"/>
<rect x="134" y="64" width="4" height="4" fill="black"/>
<rect x="134" y="68" width="4" height="4" fill="black"/>
<rect x="134" y="72" width="4" height="4" fill="black"/>
<rect x="130" y="76" width="4" height="4" fill="black"/>
<rect x="130" y="80" width="4" height="4" fill="black"/>
<rect x="126" y="80" width="4" height="4" fill="black"/>
<rect x="54" y="120" width="4" height="4" fill="black"/>
<rect x="54" y="124" width="4" height="4" fill="black"/>
<rect x="54" y="128" width="4" height="4" fill="black"/>
<rect x="54" y="132" width="4" height="4" fill="black"/>
<rect x="50" y="128" width="4" height="4" fill="black"/>
<rect x="54" y="136" width="4" height="4" fill="black"/>
<rect x="58" y="140" width="4" height="4" fill="black"/>
<rect x="62" y="144" width="4" height="4" fill="black"/>
<rect x="66" y="148" width="4" height="4" fill="black"/>
<rect x="70" y="152" width="4" height="4" fill="black"/>
<rect x="74" y="156" width="4" height="4" fill="black"/>
<rect x="42" y="156" width="4" height="4" fill="black"/>
<rect x="38" y="152" width="4" height="4" fill="black"/>
<rect x="34" y="148" width="4" height="4" fill="black"/>
<rect x="30" y="144" width="4" height="4" fill="black"/>
<rect x="118" y="156" width="4" height="4" fill="black"/>
<rect x="118" y="152" width="4" height="4" fill="black"/>
<rect x="114" y="148" width="4" height="4" fill="black"/>
<rect x="110" y="128" width="4" height="4" fill="black"/>
<rect x="110" y="132" width="4" height="4" fill="black"/>
<rect x="110" y="136" width="4" height="4" fill="black"/>
<rect x="114" y="136" width="4" height="4" fill="black"/>
<rect x="118" y="136" width="4" height="4" fill="black"/>
<rect x="122" y="136" width="4" height="4" fill="black"/>
<rect x="126" y="140" width="4" height="4" fill="black"/>
<rect x="130" y="144" width="4" height="4" fill="black"/>
<rect x="130" y="148" width="4" height="4" fill="black"/>
<rect x="130" y="152" width="4" height="4" fill="black"/>
<rect x="130" y="156" width="4" height="4" fill="black"/>
<rect x="110" y="140" width="4" height="4" fill="black"/>
<rect x="106" y="144" width="4" height="4" fill="black"/>
<rect x="106" y="148" width="4" height="4" fill="black"/>
<rect x="106" y="152" width="4" height="4" fill="black"/>
<rect x="106" y="156" width="4" height="4" fill="black"/>
<rect x="46" y="128" width="4" height="4" fill="black"/>
<rect x="42" y="132" width="4" height="4" fill="black"/>
<rect x="38" y="132" width="4" height="4" fill="black"/>
<rect x="34" y="132" width="4" height="4" fill="black"/>
<rect x="30" y="132" width="4" height="4" fill="black"/>
<rect x="26" y="136" width="4" height="4" fill="black"/>
<rect x="22" y="140" width="4" height="4" fill="black"/>
<rect x="26" y="144" width="4" height="4" fill="black"/>
<rect x="22" y="144" width="4" height="4" fill="black"/>
<rect x="18" y="148" width="4" height="4" fill="black"/>
<rect x="14" y="152" width="4" height="4" fill="black"/>
<rect x="10" y="156" width="4" height="4" fill="black"/>
</g>
<defs>
<clipPath id="clip0_1383_9230">
<rect width="160" height="160" fill="white"/>
</clipPath>
</defs>
</svg>
