<svg width="160" height="160" viewBox="0 0 160 160" fill="none" xmlns="http://www.w3.org/2000/svg">
<g clip-path="url(#clip0_1383_9620)">
<rect width="160" height="160" fill="#FFB4A9"/>
<rect x="36" y="52" width="4" height="28" fill="#EB9918"/>
<rect x="40" y="44" width="4" height="20" fill="#EB9918"/>
<rect x="44" y="36" width="4" height="124" fill="#EB9918"/>
<rect x="40" y="64" width="4" height="96" fill="#EB9918"/>
<rect x="36" y="80" width="4" height="80" fill="#EB9918"/>
<rect x="32" y="84" width="4" height="76" fill="#EB9918"/>
<rect x="28" y="120" width="4" height="40" fill="#EB9918"/>
<rect x="24" y="136" width="4" height="24" fill="#EB9918"/>
<rect x="48" y="32" width="4" height="36" fill="#EB9918"/>
<rect x="52" y="28" width="4" height="28" fill="#EB9918"/>
<rect x="56" y="24" width="4" height="24" fill="#EB9918"/>
<rect x="60" y="24" width="4" height="20" fill="#EB9918"/>
<rect x="64" y="20" width="4" height="22" fill="#EB9918"/>
<rect x="68" y="20" width="4" height="22" fill="#EB9918"/>
<rect x="72" y="20" width="4" height="20" fill="#EB9918"/>
<rect x="76" y="20" width="4" height="20" fill="#EB9918"/>
<rect x="80" y="20" width="4" height="20" fill="#EB9918"/>
<rect x="84" y="20" width="4" height="22" fill="#EB9918"/>
<rect x="88" y="24" width="4" height="18" fill="#EB9918"/>
<rect x="92" y="24" width="4" height="20" fill="#EB9918"/>
<rect x="96" y="24" width="4" height="24" fill="#EB9918"/>
<rect x="100" y="24" width="4" height="40" fill="#EB9918"/>
<rect x="104" y="24" width="4" height="44" fill="#EB9918"/>
<rect x="108" y="28" width="4" height="64" fill="#EB9918"/>
<rect x="112" y="32" width="4" height="128" fill="#EB9918"/>
<rect x="116" y="36" width="4" height="124" fill="#EB9918"/>
<rect x="120" y="60" width="4" height="100" fill="#EB9918"/>
<rect x="124" y="76" width="4" height="84" fill="#EB9918"/>
<rect x="128" y="128" width="4" height="32" fill="#EB9918"/>
<rect x="108" y="116" width="4" height="44" fill="#EB9918"/>
<rect x="48" y="112" width="4" height="48" fill="#EB9918"/>
<rect x="52" y="156" width="4" height="4" fill="#EB9918"/>
<rect x="56" y="156" width="4" height="4" fill="#A76900"/>
<rect x="104" y="132" width="4" height="28" fill="#EB9918"/>
<rect x="132" y="140" width="4" height="20" fill="#EB9918"/>
<rect x="52" y="68" width="4" height="44" fill="#FFDAD4"/>
<rect x="56" y="48" width="4" height="68" fill="#FFDAD4"/>
<rect x="60" y="44" width="4" height="76" fill="#FFDAD4"/>
<rect x="64" y="40" width="4" height="84" fill="#FFDAD4"/>
<rect x="68" y="40" width="4" height="84" fill="#FFDAD4"/>
<rect x="72" y="40" width="4" height="88" fill="#FFDAD4"/>
<rect x="76" y="36" width="4" height="92" fill="#FFDAD4"/>
<rect x="80" y="36" width="4" height="92" fill="#FFDAD4"/>
<rect x="84" y="40" width="4" height="88" fill="#FFDAD4"/>
<rect x="88" y="40" width="4" height="88" fill="#FFDAD4"/>
<rect x="92" y="44" width="4" height="80" fill="#FFDAD4"/>
<rect x="96" y="48" width="4" height="112" fill="#FFDAD4"/>
<rect x="100" y="64" width="4" height="60" fill="#FFDAD4"/>
<rect x="104" y="68" width="4" height="53" fill="#FFDAD4"/>
<rect x="108" y="92" width="4" height="24" fill="#FFDAD4"/>
<rect x="100" y="124" width="4" height="16" fill="#FFDAD4"/>
<rect x="96" y="128" width="4" height="16" fill="#FFDAD4"/>
<rect x="92" y="124" width="4" height="32" fill="#FFDAD4"/>
<rect x="88" y="128" width="4" height="28" fill="#FFDAD4"/>
<rect x="84" y="132" width="4" height="28" fill="#FFDAD4"/>
<rect x="80" y="132" width="4" height="28" fill="#FFDAD4"/>
<rect x="76" y="132" width="4" height="28" fill="#FFDAD4"/>
<rect x="72" y="128" width="4" height="32" fill="#FFDAD4"/>
<rect x="68" y="124" width="4" height="36" fill="#FFDAD4"/>
<rect x="64" y="124" width="4" height="32" fill="#FFDAD4"/>
<rect x="60" y="124" width="4" height="16" fill="#FFDAD4"/>
<rect x="72" y="132" width="4" height="4" fill="#FFB4A9"/>
<rect x="68" y="132" width="4" height="4" fill="#FFB4A9"/>
<rect x="64" y="128" width="4" height="4" fill="#FFB4A9"/>
<rect x="60" y="124" width="4" height="4" fill="#FFB4A9"/>
<rect x="76" y="132" width="4" height="4" fill="#FFB4A9"/>
<rect x="80" y="132" width="4" height="4" fill="#FFB4A9"/>
<rect x="84" y="132" width="4" height="4" fill="#FFB4A9"/>
<rect x="88" y="128" width="4" height="4" fill="#FFB4A9"/>
<rect x="92" y="124" width="4" height="4" fill="#FFB4A9"/>
<rect x="96" y="120" width="4" height="4" fill="#FFB4A9"/>
<rect x="72" y="136" width="4" height="4" fill="#FFB4A9"/>
<rect x="76" y="136" width="4" height="4" fill="#FFB4A9"/>
<rect x="80" y="136" width="4" height="4" fill="#FFB4A9"/>
<rect x="88" y="24" width="4" height="4" fill="black"/>
<rect x="84" y="40" width="4" height="4" fill="black"/>
<rect x="88" y="40" width="4" height="4" fill="black"/>
<rect x="92" y="44" width="4" height="4" fill="black"/>
<rect x="96" y="48" width="4" height="4" fill="black"/>
<rect x="96" y="52" width="4" height="4" fill="black"/>
<rect x="96" y="56" width="4" height="4" fill="black"/>
<rect x="96" y="60" width="4" height="4" fill="black"/>
<rect x="100" y="64" width="4" height="4" fill="black"/>
<rect x="104" y="68" width="4" height="4" fill="black"/>
<rect x="104" y="72" width="4" height="4" fill="black"/>
<rect x="104" y="76" width="4" height="4" fill="black"/>
<rect x="104" y="80" width="4" height="4" fill="black"/>
<rect x="104" y="84" width="4" height="4" fill="black"/>
<rect x="104" y="88" width="4" height="4" fill="black"/>
<rect x="108" y="92" width="4" height="4" fill="black"/>
<rect x="108" y="96" width="4" height="4" fill="black"/>
<rect x="108" y="100" width="4" height="4" fill="black"/>
<rect x="108" y="104" width="4" height="4" fill="black"/>
<rect x="108" y="108" width="4" height="4" fill="#A76900"/>
<rect x="108" y="112" width="4" height="4" fill="#A76900"/>
<rect x="104" y="116" width="4" height="4" fill="#A76900"/>
<rect x="100" y="116" width="4" height="4" fill="black"/>
<rect x="104" y="112" width="4" height="4" fill="#A76900"/>
<rect x="104" y="120" width="4" height="4" fill="#A76900"/>
<rect x="100" y="120" width="4" height="4" fill="black"/>
<rect x="80" y="36" width="4" height="4" fill="black"/>
<rect x="76" y="36" width="4" height="4" fill="black"/>
<rect x="72" y="36" width="4" height="4" fill="black"/>
<rect x="68" y="40" width="4" height="4" fill="black"/>
<rect x="64" y="40" width="4" height="4" fill="black"/>
<rect x="60" y="44" width="4" height="4" fill="black"/>
<rect x="56" y="48" width="4" height="4" fill="black"/>
<rect x="56" y="52" width="4" height="4" fill="black"/>
<rect x="52" y="56" width="4" height="4" fill="black"/>
<rect x="52" y="60" width="4" height="4" fill="black"/>
<rect x="52" y="64" width="4" height="4" fill="black"/>
<rect x="48" y="68" width="4" height="4" fill="black"/>
<rect x="58" y="69" width="4" height="4" fill="black"/>
<rect x="62" y="76" width="4" height="4" fill="black"/>
<rect x="60" y="86" width="4" height="4" fill="#FF897A"/>
<rect x="92" y="86" width="4" height="4" fill="#FF897A"/>
<rect x="73" y="94" width="4" height="4" fill="black"/>
<rect x="73" y="106" width="4" height="4" fill="black"/>
<rect x="69" y="106" width="4" height="4" fill="black"/>
<rect x="65" y="102" width="4" height="4" fill="black"/>
<rect x="77" y="106" width="4" height="4" fill="black"/>
<rect x="81" y="106" width="4" height="4" fill="black"/>
<rect x="85" y="102" width="4" height="4" fill="black"/>
<rect x="77" y="94" width="4" height="4" fill="black"/>
<rect x="62" y="69" width="4" height="4" fill="black"/>
<rect x="66" y="69" width="4" height="4" fill="black"/>
<rect x="86" y="69" width="4" height="4" fill="black"/>
<rect x="90" y="69" width="4" height="4" fill="black"/>
<rect x="94" y="69" width="4" height="4" fill="black"/>
<rect x="90" y="76" width="4" height="4" fill="black"/>
<rect x="48" y="72" width="4" height="4" fill="black"/>
<rect x="48" y="76" width="4" height="4" fill="black"/>
<rect x="48" y="80" width="4" height="4" fill="black"/>
<rect x="48" y="84" width="4" height="4" fill="black"/>
<rect x="48" y="88" width="4" height="4" fill="black"/>
<rect x="48" y="92" width="4" height="4" fill="black"/>
<rect x="48" y="96" width="4" height="4" fill="black"/>
<rect x="48" y="100" width="4" height="4" fill="black"/>
<rect x="48" y="104" width="4" height="4" fill="black"/>
<rect x="48" y="108" width="4" height="4" fill="black"/>
<rect x="52" y="112" width="4" height="4" fill="black"/>
<rect x="56" y="116" width="4" height="4" fill="black"/>
<rect x="60" y="120" width="4" height="4" fill="black"/>
<rect x="64" y="124" width="4" height="4" fill="black"/>
<rect x="68" y="128" width="4" height="4" fill="black"/>
<rect x="72" y="128" width="4" height="4" fill="black"/>
<rect x="76" y="128" width="4" height="4" fill="black"/>
<rect x="80" y="128" width="4" height="4" fill="black"/>
<rect x="84" y="128" width="4" height="4" fill="black"/>
<rect x="88" y="124" width="4" height="4" fill="black"/>
<rect x="92" y="120" width="4" height="4" fill="black"/>
<rect x="96" y="116" width="4" height="4" fill="black"/>
<rect x="100" y="112" width="4" height="4" fill="black"/>
<rect x="104" y="108" width="4" height="4" fill="black"/>
<rect x="52" y="116" width="4" height="4" fill="#A76900"/>
<rect x="52" y="120" width="4" height="4" fill="#A76900"/>
<rect x="56" y="120" width="4" height="4" fill="black"/>
<rect x="52" y="124" width="4" height="4" fill="#A76900"/>
<rect x="56" y="124" width="4" height="4" fill="black"/>
<rect x="56" y="128" width="4" height="4" fill="black"/>
<rect x="56" y="132" width="4" height="4" fill="black"/>
<rect x="56" y="136" width="4" height="4" fill="black"/>
<rect x="60" y="140" width="4" height="4" fill="black"/>
<rect x="60" y="144" width="4" height="4" fill="black"/>
<rect x="60" y="148" width="4" height="4" fill="black"/>
<rect x="60" y="152" width="4" height="4" fill="black"/>
<rect x="56" y="140" width="4" height="4" fill="#A76900"/>
<rect x="56" y="144" width="4" height="4" fill="#A76900"/>
<rect x="56" y="148" width="4" height="4" fill="#A76900"/>
<rect x="52" y="128" width="4" height="4" fill="#A76900"/>
<rect x="52" y="132" width="4" height="4" fill="#A76900"/>
<rect x="52" y="136" width="4" height="4" fill="#A76900"/>
<rect x="52" y="140" width="4" height="4" fill="#A76900"/>
<rect x="52" y="144" width="4" height="4" fill="#A76900"/>
<rect x="52" y="148" width="4" height="4" fill="#A76900"/>
<rect x="52" y="152" width="4" height="4" fill="#A76900"/>
<rect x="56" y="152" width="4" height="4" fill="#A76900"/>
<rect x="60" y="156" width="4" height="4" fill="black"/>
<rect x="64" y="156" width="4" height="4" fill="black"/>
<rect x="88" y="156" width="4" height="4" fill="black"/>
<rect x="96" y="152" width="4" height="4" fill="black"/>
<rect x="92" y="156" width="4" height="4" fill="black"/>
<rect x="92" y="24" width="4" height="4" fill="black"/>
<rect x="96" y="24" width="4" height="4" fill="black"/>
<rect x="100" y="24" width="4" height="4" fill="black"/>
<rect x="104" y="24" width="4" height="4" fill="black"/>
<rect x="108" y="28" width="4" height="4" fill="black"/>
<rect x="112" y="32" width="4" height="4" fill="black"/>
<rect x="116" y="36" width="4" height="4" fill="black"/>
<rect x="116" y="40" width="4" height="4" fill="black"/>
<rect x="120" y="44" width="4" height="4" fill="black"/>
<rect x="120" y="48" width="4" height="4" fill="black"/>
<rect x="120" y="52" width="4" height="4" fill="black"/>
<rect x="120" y="56" width="4" height="4" fill="black"/>
<rect x="124" y="60" width="4" height="4" fill="black"/>
<rect x="124" y="64" width="4" height="4" fill="black"/>
<rect x="124" y="68" width="4" height="4" fill="black"/>
<rect x="124" y="72" width="4" height="4" fill="black"/>
<rect x="128" y="76" width="4" height="4" fill="black"/>
<rect x="128" y="80" width="4" height="4" fill="black"/>
<rect x="128" y="84" width="4" height="4" fill="black"/>
<rect x="128" y="88" width="4" height="4" fill="black"/>
<rect x="128" y="92" width="4" height="4" fill="black"/>
<rect x="128" y="96" width="4" height="4" fill="black"/>
<rect x="128" y="100" width="4" height="4" fill="black"/>
<rect x="128" y="104" width="4" height="4" fill="black"/>
<rect x="128" y="108" width="4" height="4" fill="black"/>
<rect x="128" y="112" width="4" height="4" fill="black"/>
<rect x="128" y="116" width="4" height="4" fill="black"/>
<rect x="128" y="120" width="4" height="4" fill="black"/>
<rect x="128" y="124" width="4" height="4" fill="black"/>
<rect x="132" y="128" width="4" height="4" fill="black"/>
<rect x="132" y="132" width="4" height="4" fill="black"/>
<rect x="132" y="136" width="4" height="4" fill="black"/>
<rect x="136" y="140" width="4" height="4" fill="black"/>
<rect x="136" y="144" width="4" height="4" fill="black"/>
<rect x="136" y="148" width="4" height="4" fill="black"/>
<rect x="136" y="152" width="4" height="4" fill="black"/>
<rect x="136" y="156" width="4" height="4" fill="black"/>
<rect x="100" y="156" width="4" height="4" fill="#A76900"/>
<rect x="96" y="156" width="4" height="4" fill="#A76900"/>
<rect x="100" y="152" width="4" height="4" fill="#A76900"/>
<rect x="100" y="148" width="4" height="4" fill="#A76900"/>
<rect x="100" y="144" width="4" height="4" fill="#A76900"/>
<rect x="100" y="140" width="4" height="4" fill="#A76900"/>
<rect x="100" y="136" width="4" height="4" fill="#A76900"/>
<rect x="100" y="132" width="4" height="4" fill="#A76900"/>
<rect x="104" y="128" width="4" height="4" fill="#A76900"/>
<rect x="100" y="128" width="4" height="4" fill="#A76900"/>
<rect x="96" y="128" width="4" height="4" fill="black"/>
<rect x="96" y="132" width="4" height="4" fill="black"/>
<rect x="96" y="136" width="4" height="4" fill="black"/>
<rect x="96" y="140" width="4" height="4" fill="black"/>
<rect x="96" y="144" width="4" height="4" fill="black"/>
<rect x="96" y="148" width="4" height="4" fill="black"/>
<rect x="104" y="124" width="4" height="4" fill="#A76900"/>
<rect x="100" y="124" width="4" height="4" fill="black"/>
<rect x="84" y="20" width="4" height="4" fill="black"/>
<rect x="80" y="16" width="4" height="4" fill="black"/>
<rect x="76" y="16" width="4" height="4" fill="black"/>
<rect x="72" y="16" width="4" height="4" fill="black"/>
<rect x="68" y="16" width="4" height="4" fill="black"/>
<rect x="64" y="16" width="4" height="4" fill="black"/>
<rect x="60" y="20" width="4" height="4" fill="black"/>
<rect x="56" y="20" width="4" height="4" fill="black"/>
<rect x="52" y="24" width="4" height="4" fill="black"/>
<rect x="48" y="28" width="4" height="4" fill="black"/>
<rect x="44" y="32" width="4" height="4" fill="black"/>
<rect x="40" y="36" width="4" height="4" fill="black"/>
<rect x="40" y="40" width="4" height="4" fill="black"/>
<rect x="36" y="44" width="4" height="4" fill="black"/>
<rect x="36" y="48" width="4" height="4" fill="black"/>
<rect x="36" y="52" width="4" height="4" fill="black"/>
<rect x="32" y="56" width="4" height="4" fill="black"/>
<rect x="32" y="60" width="4" height="4" fill="black"/>
<rect x="32" y="64" width="4" height="4" fill="black"/>
<rect x="32" y="68" width="4" height="4" fill="black"/>
<rect x="32" y="72" width="4" height="4" fill="black"/>
<rect x="32" y="76" width="4" height="4" fill="black"/>
<rect x="32" y="80" width="4" height="4" fill="black"/>
<rect x="28" y="84" width="4" height="4" fill="black"/>
<rect x="28" y="88" width="4" height="4" fill="black"/>
<rect x="28" y="92" width="4" height="4" fill="black"/>
<rect x="28" y="96" width="4" height="4" fill="black"/>
<rect x="28" y="100" width="4" height="4" fill="black"/>
<rect x="28" y="104" width="4" height="4" fill="black"/>
<rect x="28" y="108" width="4" height="4" fill="black"/>
<rect x="28" y="112" width="4" height="4" fill="black"/>
<rect x="28" y="116" width="4" height="4" fill="black"/>
<rect x="24" y="120" width="4" height="4" fill="black"/>
<rect x="24" y="124" width="4" height="4" fill="black"/>
<rect x="24" y="128" width="4" height="4" fill="black"/>
<rect x="24" y="132" width="4" height="4" fill="black"/>
<rect x="20" y="136" width="4" height="4" fill="black"/>
<rect x="20" y="140" width="4" height="4" fill="black"/>
<rect x="20" y="144" width="4" height="4" fill="black"/>
<rect x="20" y="148" width="4" height="4" fill="black"/>
<rect x="20" y="152" width="4" height="4" fill="black"/>
<rect x="20" y="156" width="4" height="4" fill="black"/>
</g>
<defs>
<clipPath id="clip0_1383_9620">
<rect width="160" height="160" fill="white"/>
</clipPath>
</defs>
</svg>
