<svg width="160" height="160" viewBox="0 0 160 160" fill="none" xmlns="http://www.w3.org/2000/svg">
<g clip-path="url(#clip0_1383_8636)">
<rect width="160" height="160" fill="#AF9EFF"/>
<rect x="26" y="128" width="4" height="34" fill="#191C1D"/>
<rect x="22" y="132" width="4" height="30" fill="#191C1D"/>
<rect x="18" y="136" width="4" height="24" fill="#191C1D"/>
<rect x="14" y="140" width="4" height="20" fill="#191C1D"/>
<rect x="10" y="144" width="4" height="16" fill="#191C1D"/>
<rect x="6" y="148" width="4" height="12" fill="#191C1D"/>
<rect x="2" y="152" width="4" height="8" fill="#191C1D"/>
<rect x="-2" y="156" width="4" height="8" fill="#191C1D"/>
<rect x="30" y="128" width="4" height="34" fill="#191C1D"/>
<rect x="34" y="124" width="4" height="38" fill="#191C1D"/>
<rect x="38" y="120" width="4" height="42" fill="#191C1D"/>
<rect x="42" y="120" width="4" height="42" fill="#191C1D"/>
<rect x="138" y="132" width="4" height="28" fill="#191C1D"/>
<rect x="142" y="136" width="4" height="24" fill="#191C1D"/>
<rect x="146" y="140" width="4" height="20" fill="#191C1D"/>
<rect x="150" y="148" width="4" height="12" fill="#191C1D"/>
<rect x="134" y="128" width="4" height="32" fill="#191C1D"/>
<rect x="130" y="124" width="4" height="36" fill="#191C1D"/>
<rect x="126" y="120" width="4" height="40" fill="#191C1D"/>
<rect x="122" y="116" width="4" height="46" fill="#191C1D"/>
<rect x="118" y="112" width="4" height="50" fill="#191C1D"/>
<rect x="114" y="112" width="4" height="50" fill="#191C1D"/>
<rect x="110" y="112" width="4" height="50" fill="#191C1D"/>
<rect x="106" y="112" width="4" height="50" fill="#191C1D"/>
<rect x="102" y="136" width="4" height="24" fill="#191C1D"/>
<rect x="98" y="148" width="4" height="12" fill="#191C1D"/>
<rect x="94" y="144" width="4" height="16" fill="#C9C5D0"/>
<rect x="90" y="144" width="4" height="16" fill="#C9C5D0"/>
<rect x="86" y="148" width="4" height="12" fill="#C9C5D0"/>
<rect x="82" y="152" width="4" height="8" fill="#C9C5D0"/>
<rect x="78" y="144" width="4" height="16" fill="#C9C5D0"/>
<rect x="74" y="144" width="4" height="16" fill="#C9C5D0"/>
<rect x="70" y="144" width="4" height="16" fill="#C9C5D0"/>
<rect x="66" y="152" width="4" height="8" fill="#C9C5D0"/>
<rect x="62" y="148" width="4" height="12" fill="#C9C5D0"/>
<rect x="58" y="144" width="4" height="16" fill="#C9C5D0"/>
<rect x="46" y="124" width="4" height="38" fill="#191C1D"/>
<rect x="50" y="124" width="4" height="38" fill="#191C1D"/>
<rect x="34" y="52" width="4" height="28" fill="#191C1D"/>
<rect x="38" y="44" width="4" height="20" fill="#191C1D"/>
<rect x="42" y="36" width="4" height="20" fill="#191C1D"/>
<rect x="46" y="32" width="4" height="20" fill="#191C1D"/>
<rect x="50" y="28" width="4" height="20" fill="#191C1D"/>
<rect x="54" y="24" width="4" height="20" fill="#191C1D"/>
<rect x="58" y="24" width="4" height="18" fill="#191C1D"/>
<rect x="62" y="20" width="4" height="22" fill="#191C1D"/>
<rect x="66" y="20" width="4" height="22" fill="#191C1D"/>
<rect x="70" y="20" width="4" height="22" fill="#191C1D"/>
<rect x="74" y="20" width="4" height="22" fill="#191C1D"/>
<rect x="78" y="20" width="4" height="22" fill="#191C1D"/>
<rect x="82" y="20" width="4" height="22" fill="#191C1D"/>
<rect x="86" y="20" width="4" height="22" fill="#191C1D"/>
<rect x="90" y="20" width="4" height="22" fill="#191C1D"/>
<rect x="94" y="20" width="4" height="22" fill="#191C1D"/>
<rect x="98" y="24" width="4" height="22" fill="#191C1D"/>
<rect x="102" y="24" width="4" height="20" fill="#191C1D"/>
<rect x="106" y="28" width="4" height="32" fill="#191C1D"/>
<rect x="110" y="32" width="4" height="32" fill="#191C1D"/>
<rect x="114" y="36" width="4" height="32" fill="#191C1D"/>
<rect x="42" y="60" width="4" height="48" fill="#FFDDB5"/>
<rect x="38" y="60" width="4" height="44" fill="#FFDDB5"/>
<rect x="38" y="96" width="4" height="8" fill="#FFDDB5"/>
<rect x="34" y="80" width="4" height="20" fill="#FFDDB5"/>
<rect x="46" y="52" width="4" height="64" fill="#FFDDB5"/>
<rect x="50" y="48" width="4" height="72" fill="#FFDDB5"/>
<rect x="54" y="44" width="4" height="80" fill="#FFDDB5"/>
<rect x="58" y="44" width="4" height="84" fill="#FFDDB5"/>
<rect x="62" y="44" width="4" height="84" fill="#FFDDB5"/>
<rect x="66" y="36" width="4" height="96" fill="#FFDDB5"/>
<rect x="70" y="38" width="4" height="94" fill="#FFDDB5"/>
<rect x="74" y="38" width="4" height="94" fill="#FFDDB5"/>
<rect x="78" y="40" width="4" height="92" fill="#FFDDB5"/>
<rect x="82" y="40" width="4" height="92" fill="#FFDDB5"/>
<rect x="86" y="40" width="4" height="92" fill="#FFDDB5"/>
<rect x="90" y="40" width="4" height="92" fill="#FFDDB5"/>
<rect x="94" y="40" width="4" height="88" fill="#FFDDB5"/>
<rect x="98" y="40" width="4" height="84" fill="#FFDDB5"/>
<rect x="102" y="44" width="4" height="76" fill="#FFDDB5"/>
<rect x="106" y="60" width="4" height="56" fill="#FFDDB5"/>
<rect x="110" y="64" width="4" height="48" fill="#FFDDB5"/>
<rect x="114" y="68" width="4" height="36" fill="#FFDDB5"/>
<rect x="98" y="124" width="4" height="24" fill="#FFDDB5"/>
<rect x="94" y="128" width="4" height="16" fill="#FFDDB5"/>
<rect x="90" y="132" width="4" height="16" fill="#FFDDB5"/>
<rect x="86" y="136" width="4" height="16" fill="#FFDDB5"/>
<rect x="82" y="136" width="4" height="18" fill="#FFDDB5"/>
<rect x="78" y="136" width="4" height="20" fill="#FFDDB5"/>
<rect x="74" y="136" width="4" height="20" fill="#FFDDB5"/>
<rect x="70" y="136" width="4" height="20" fill="#FFDDB5"/>
<rect x="66" y="132" width="4" height="20" fill="#FFDDB5"/>
<rect x="62" y="128" width="4" height="20" fill="#FFDDB5"/>
<rect x="58" y="128" width="4" height="20" fill="#FFDDB5"/>
<rect x="118" y="76" width="4" height="20" fill="#FFDDB5"/>
<rect x="70" y="136" width="4" height="4" fill="#FFB95A"/>
<rect x="66" y="136" width="4" height="4" fill="#FFB95A"/>
<rect x="74" y="136" width="4" height="4" fill="#FFB95A"/>
<rect x="78" y="136" width="4" height="4" fill="#FFB95A"/>
<rect x="82" y="136" width="4" height="4" fill="#FFB95A"/>
<rect x="70" y="140" width="4" height="4" fill="#FFB95A"/>
<rect x="74" y="140" width="4" height="4" fill="#FFB95A"/>
<rect x="78" y="140" width="4" height="4" fill="#FFB95A"/>
<rect x="94" y="36" width="4" height="4" fill="black"/>
<rect x="98" y="40" width="4" height="4" fill="black"/>
<rect x="102" y="44" width="4" height="4" fill="black"/>
<rect x="102" y="48" width="4" height="4" fill="black"/>
<rect x="102" y="52" width="4" height="4" fill="black"/>
<rect x="102" y="56" width="4" height="4" fill="black"/>
<rect x="106" y="60" width="4" height="4" fill="black"/>
<rect x="110" y="64" width="4" height="4" fill="black"/>
<rect x="114" y="68" width="4" height="4" fill="black"/>
<rect x="87" y="76" width="4" height="4" fill="black"/>
<rect x="56" y="76" width="4" height="4" fill="black"/>
<rect x="56" y="67" width="4" height="4" fill="black"/>
<rect x="52" y="67" width="4" height="4" fill="black"/>
<rect x="60" y="67" width="4" height="4" fill="black"/>
<rect x="82" y="67" width="4" height="4" fill="black"/>
<rect x="86" y="67" width="4" height="4" fill="black"/>
<rect x="90" y="67" width="4" height="4" fill="black"/>
<rect x="94" y="67" width="4" height="4" fill="black"/>
<rect x="68" y="96" width="4" height="4" fill="black"/>
<rect x="72" y="96" width="4" height="4" fill="black"/>
<rect x="72" y="109" width="4" height="4" fill="black"/>
<rect x="68" y="109" width="4" height="4" fill="black"/>
<rect x="64" y="109" width="4" height="4" fill="black"/>
<rect x="76" y="109" width="4" height="4" fill="black"/>
<rect x="80" y="109" width="4" height="4" fill="black"/>
<rect x="84" y="105" width="4" height="4" fill="black"/>
<rect x="76" y="96" width="4" height="4" fill="black"/>
<rect x="48" y="67" width="4" height="4" fill="black"/>
<rect x="114" y="76" width="4" height="4" fill="black"/>
<rect x="114" y="72" width="4" height="4" fill="black"/>
<rect x="122" y="76" width="4" height="4" fill="black"/>
<rect x="122" y="80" width="4" height="4" fill="black"/>
<rect x="122" y="84" width="4" height="4" fill="black"/>
<rect x="122" y="88" width="4" height="4" fill="black"/>
<rect x="118" y="92" width="4" height="4" fill="black"/>
<rect x="116" y="86" width="4" height="4" fill="#5D34F2"/>
<rect x="114" y="96" width="4" height="4" fill="black"/>
<rect x="114" y="100" width="4" height="4" fill="black"/>
<rect x="110" y="104" width="4" height="4" fill="black"/>
<rect x="90" y="36" width="4" height="4" fill="black"/>
<rect x="86" y="36" width="4" height="4" fill="black"/>
<rect x="82" y="36" width="4" height="4" fill="black"/>
<rect x="78" y="36" width="4" height="4" fill="black"/>
<rect x="74" y="36" width="4" height="4" fill="black"/>
<rect x="74" y="40" width="4" height="4" fill="black"/>
<rect x="70" y="44" width="4" height="4" fill="black"/>
<rect x="70" y="36" width="4" height="4" fill="black"/>
<rect x="66" y="36" width="4" height="4" fill="black"/>
<rect x="62" y="40" width="4" height="4" fill="black"/>
<rect x="58" y="40" width="4" height="4" fill="black"/>
<rect x="54" y="44" width="4" height="4" fill="black"/>
<rect x="50" y="48" width="4" height="4" fill="black"/>
<rect x="46" y="48" width="4" height="4" fill="black"/>
<rect x="42" y="52" width="4" height="4" fill="black"/>
<rect x="42" y="56" width="4" height="4" fill="black"/>
<rect x="38" y="60" width="4" height="4" fill="black"/>
<rect x="34" y="64" width="4" height="4" fill="black"/>
<rect x="34" y="68" width="4" height="4" fill="black"/>
<rect x="34" y="72" width="4" height="4" fill="black"/>
<rect x="34" y="76" width="4" height="4" fill="black"/>
<rect x="30" y="68" width="4" height="4" fill="black"/>
<rect x="30" y="72" width="4" height="4" fill="black"/>
<rect x="30" y="76" width="4" height="4" fill="black"/>
<rect x="30" y="64" width="4" height="4" fill="black"/>
<rect x="30" y="60" width="4" height="4" fill="black"/>
<rect x="30" y="56" width="4" height="4" fill="black"/>
<rect x="30" y="52" width="4" height="4" fill="black"/>
<rect x="34" y="48" width="4" height="4" fill="black"/>
<rect x="34" y="44" width="4" height="4" fill="black"/>
<rect x="38" y="40" width="4" height="4" fill="black"/>
<rect x="38" y="36" width="4" height="4" fill="black"/>
<rect x="42" y="32" width="4" height="4" fill="black"/>
<rect x="46" y="28" width="4" height="4" fill="black"/>
<rect x="50" y="24" width="4" height="4" fill="black"/>
<rect x="54" y="20" width="4" height="4" fill="black"/>
<rect x="58" y="20" width="4" height="4" fill="black"/>
<rect x="62" y="16" width="4" height="4" fill="black"/>
<rect x="66" y="16" width="4" height="4" fill="black"/>
<rect x="70" y="16" width="4" height="4" fill="black"/>
<rect x="74" y="16" width="4" height="4" fill="black"/>
<rect x="78" y="16" width="4" height="4" fill="black"/>
<rect x="82" y="16" width="4" height="4" fill="black"/>
<rect x="86" y="16" width="4" height="4" fill="black"/>
<rect x="90" y="20" width="4" height="4" fill="black"/>
<rect x="94" y="20" width="4" height="4" fill="black"/>
<rect x="98" y="24" width="4" height="4" fill="black"/>
<rect x="102" y="24" width="4" height="4" fill="black"/>
<rect x="106" y="28" width="4" height="4" fill="black"/>
<rect x="110" y="32" width="4" height="4" fill="black"/>
<rect x="114" y="36" width="4" height="4" fill="black"/>
<rect x="114" y="40" width="4" height="4" fill="black"/>
<rect x="118" y="44" width="4" height="4" fill="black"/>
<rect x="118" y="48" width="4" height="4" fill="black"/>
<rect x="118" y="52" width="4" height="4" fill="black"/>
<rect x="118" y="56" width="4" height="4" fill="black"/>
<rect x="118" y="60" width="4" height="4" fill="black"/>
<rect x="118" y="64" width="4" height="4" fill="black"/>
<rect x="118" y="68" width="4" height="4" fill="black"/>
<rect x="118" y="72" width="4" height="4" fill="black"/>
<rect x="118" y="72" width="4" height="4" fill="black"/>
<rect x="30" y="80" width="4" height="4" fill="black"/>
<rect x="30" y="84" width="4" height="4" fill="black"/>
<rect x="38" y="100" width="4" height="4" fill="black"/>
<rect x="30" y="92" width="4" height="4" fill="black"/>
<path d="M34 96H38V100H34V96Z" fill="black"/>
<rect x="38" y="104" width="4" height="4" fill="black"/>
<rect x="42" y="108" width="4" height="4" fill="black"/>
<rect x="42" y="112" width="4" height="4" fill="black"/>
<rect x="46" y="116" width="4" height="4" fill="black"/>
<rect x="50" y="120" width="4" height="4" fill="black"/>
<rect x="54" y="124" width="4" height="4" fill="black"/>
<rect x="58" y="128" width="4" height="4" fill="black"/>
<rect x="62" y="132" width="4" height="4" fill="black"/>
<rect x="66" y="132" width="4" height="4" fill="black"/>
<rect x="70" y="132" width="4" height="4" fill="black"/>
<rect x="74" y="132" width="4" height="4" fill="black"/>
<rect x="78" y="132" width="4" height="4" fill="black"/>
<rect x="82" y="132" width="4" height="4" fill="black"/>
<rect x="86" y="132" width="4" height="4" fill="black"/>
<rect x="90" y="128" width="4" height="4" fill="black"/>
<rect x="94" y="124" width="4" height="4" fill="black"/>
<rect x="98" y="120" width="4" height="4" fill="black"/>
<rect x="102" y="116" width="4" height="4" fill="black"/>
<rect x="106" y="112" width="4" height="4" fill="black"/>
<rect x="110" y="108" width="4" height="4" fill="black"/>
<rect x="30" y="88" width="4" height="4" fill="black"/>
<rect x="114" y="108" width="4" height="4" fill="black"/>
<rect x="102" y="120" width="4" height="4" fill="black"/>
<rect x="102" y="124" width="4" height="4" fill="black"/>
<rect x="102" y="128" width="4" height="4" fill="black"/>
<rect x="102" y="132" width="4" height="4" fill="black"/>
<rect x="98" y="136" width="4" height="4" fill="black"/>
<rect x="98" y="140" width="4" height="4" fill="black"/>
<rect x="98" y="144" width="4" height="4" fill="black"/>
<rect x="98" y="148" width="4" height="4" fill="black"/>
<rect x="98" y="152" width="4" height="4" fill="black"/>
<rect x="98" y="156" width="4" height="4" fill="black"/>
<rect x="118" y="112" width="4" height="4" fill="black"/>
<rect x="122" y="116" width="4" height="4" fill="black"/>
<rect x="122" y="120" width="4" height="4" fill="black"/>
<rect x="126" y="124" width="4" height="4" fill="black"/>
<rect x="126" y="128" width="4" height="4" fill="black"/>
<rect x="130" y="132" width="4" height="4" fill="black"/>
<rect x="130" y="136" width="4" height="4" fill="black"/>
<rect x="130" y="140" width="4" height="4" fill="black"/>
<rect x="134" y="144" width="4" height="4" fill="black"/>
<rect x="130" y="148" width="4" height="4" fill="black"/>
<rect x="126" y="152" width="4" height="4" fill="black"/>
<rect x="122" y="156" width="4" height="4" fill="black"/>
<rect x="46" y="120" width="4" height="4" fill="black"/>
<rect x="42" y="116" width="4" height="4" fill="black"/>
<rect x="54" y="128" width="4" height="4" fill="black"/>
<rect x="54" y="132" width="4" height="4" fill="black"/>
<rect x="54" y="136" width="4" height="4" fill="black"/>
<rect x="54" y="140" width="4" height="4" fill="black"/>
<rect x="54" y="144" width="4" height="4" fill="black"/>
<rect x="54" y="148" width="4" height="4" fill="black"/>
<rect x="58" y="144" width="4" height="4" fill="black"/>
<rect x="62" y="148" width="4" height="4" fill="black"/>
<rect x="66" y="152" width="4" height="4" fill="black"/>
<rect x="70" y="156" width="4" height="4" fill="black"/>
<rect x="74" y="156" width="4" height="4" fill="black"/>
<rect x="78" y="156" width="4" height="4" fill="black"/>
<rect x="82" y="152" width="4" height="4" fill="black"/>
<rect x="86" y="148" width="4" height="4" fill="black"/>
<rect x="90" y="144" width="4" height="4" fill="black"/>
<rect x="94" y="140" width="4" height="4" fill="black"/>
<rect x="54" y="152" width="4" height="4" fill="black"/>
<rect x="54" y="156" width="4" height="4" fill="black"/>
<rect x="38" y="116" width="4" height="4" fill="black"/>
<rect x="34" y="120" width="4" height="4" fill="black"/>
<rect x="30" y="124" width="4" height="4" fill="black"/>
<rect x="26" y="128" width="4" height="4" fill="black"/>
<rect x="22" y="128" width="4" height="4" fill="black"/>
<rect x="18" y="132" width="4" height="4" fill="black"/>
<rect x="14" y="136" width="4" height="4" fill="black"/>
<rect x="10" y="140" width="4" height="4" fill="black"/>
<rect x="14" y="144" width="4" height="4" fill="black"/>
<rect x="18" y="148" width="4" height="4" fill="black"/>
<rect x="22" y="148" width="4" height="4" fill="black"/>
<rect x="26" y="152" width="4" height="4" fill="black"/>
<rect x="30" y="156" width="4" height="4" fill="black"/>
<rect x="6" y="144" width="4" height="4" fill="black"/>
<rect x="2" y="148" width="4" height="4" fill="black"/>
<rect x="-2" y="152" width="4" height="4" fill="black"/>
<rect x="126" y="120" width="4" height="4" fill="black"/>
<rect x="130" y="120" width="4" height="4" fill="black"/>
<rect x="134" y="124" width="4" height="4" fill="black"/>
<rect x="138" y="128" width="4" height="4" fill="black"/>
<rect x="142" y="132" width="4" height="4" fill="black"/>
<rect x="146" y="136" width="4" height="4" fill="black"/>
<rect x="150" y="140" width="4" height="4" fill="black"/>
<rect x="150" y="144" width="4" height="4" fill="black"/>
<rect x="154" y="148" width="4" height="4" fill="black"/>
<rect x="154" y="152" width="4" height="4" fill="black"/>
<rect x="154" y="156" width="4" height="4" fill="black"/>
</g>
<defs>
<clipPath id="clip0_1383_8636">
<rect width="160" height="160" fill="white"/>
</clipPath>
</defs>
</svg>
