<svg width="160" height="160" viewBox="0 0 160 160" fill="none" xmlns="http://www.w3.org/2000/svg">
<g clip-path="url(#clip0_1383_10659)">
<rect width="160" height="160" fill="#C9C5D0"/>
<rect x="46" y="130" width="4" height="32" fill="#7958FF"/>
<rect x="112" y="122" width="4" height="38" fill="#7958FF"/>
<rect x="110" y="122" width="4" height="38" fill="#7958FF"/>
<rect x="106" y="122" width="4" height="38" fill="#7958FF"/>
<rect x="102" y="122" width="4" height="38" fill="#7958FF"/>
<rect x="116" y="118" width="4" height="42" fill="#7958FF"/>
<rect x="120" y="118" width="4" height="42" fill="#7958FF"/>
<rect x="124" y="118" width="4" height="42" fill="#7958FF"/>
<rect x="128" y="118" width="4" height="42" fill="#7958FF"/>
<rect x="132" y="122" width="4" height="38" fill="#7958FF"/>
<rect x="136" y="126" width="4" height="34" fill="#7958FF"/>
<rect x="140" y="130" width="4" height="30" fill="#7958FF"/>
<rect x="42" y="134" width="4" height="26" fill="#7958FF"/>
<rect x="38" y="134" width="4" height="26" fill="#7958FF"/>
<rect x="34" y="134" width="4" height="26" fill="#7958FF"/>
<rect x="30" y="138" width="4" height="22" fill="#7958FF"/>
<rect x="26" y="154" width="4" height="8" fill="#7958FF"/>
<rect x="22" y="150" width="4" height="12" fill="#7958FF"/>
<rect x="18" y="150" width="4" height="10" fill="#7958FF"/>
<rect x="14" y="154" width="4" height="6" fill="#7958FF"/>
<rect x="50" y="130" width="4" height="32" fill="#7958FF"/>
<rect x="144" y="134" width="4" height="26" fill="#7958FF"/>
<rect x="148" y="150" width="4" height="10" fill="#7958FF"/>
<rect x="152" y="154" width="4" height="6" fill="#7958FF"/>
<rect x="156" y="158" width="4" height="2" fill="#7958FF"/>
<rect x="34" y="46" width="4" height="40" fill="#7958FF"/>
<rect x="38" y="42" width="4" height="28" fill="#7958FF"/>
<rect x="42" y="38" width="4" height="22" fill="#7958FF"/>
<rect x="46" y="34" width="4" height="22" fill="#7958FF"/>
<rect x="50" y="30" width="4" height="22" fill="#7958FF"/>
<rect x="54" y="26" width="4" height="24" fill="#7958FF"/>
<rect x="58" y="22" width="4" height="28" fill="#7958FF"/>
<rect x="62" y="22" width="4" height="26" fill="#7958FF"/>
<rect x="66" y="22" width="4" height="26" fill="#7958FF"/>
<rect x="70" y="22" width="4" height="26" fill="#7958FF"/>
<rect x="74" y="22" width="4" height="26" fill="#7958FF"/>
<rect x="78" y="22" width="4" height="26" fill="#7958FF"/>
<rect x="82" y="22" width="4" height="26" fill="#7958FF"/>
<rect x="86" y="22" width="4" height="26" fill="#7958FF"/>
<rect x="90" y="26" width="4" height="22" fill="#7958FF"/>
<rect x="94" y="26" width="4" height="22" fill="#7958FF"/>
<rect x="98" y="30" width="4" height="22" fill="#7958FF"/>
<rect x="102" y="30" width="4" height="20" fill="#7958FF"/>
<rect x="106" y="34" width="4" height="20" fill="#7958FF"/>
<rect x="110" y="38" width="4" height="20" fill="#7958FF"/>
<rect x="114" y="42" width="4" height="24" fill="#7958FF"/>
<rect x="118" y="46" width="4" height="32" fill="#7958FF"/>
<rect x="120" y="58" width="4" height="20" fill="#7958FF"/>
<rect x="38" y="66" width="4" height="48" fill="#FFD5FF"/>
<rect x="34" y="102" width="4" height="8" fill="#FFD5FF"/>
<rect x="30" y="86" width="4" height="20" fill="#FFD5FF"/>
<rect x="42" y="58" width="4" height="64" fill="#FFD5FF"/>
<rect x="46" y="54" width="4" height="72" fill="#FFD5FF"/>
<rect x="50" y="50" width="4" height="80" fill="#FFD5FF"/>
<rect x="54" y="50" width="4" height="108" fill="#FFD5FF"/>
<rect x="58" y="50" width="4" height="110" fill="#FFD5FF"/>
<rect x="62" y="46" width="4" height="114" fill="#FFD5FF"/>
<rect x="66" y="42" width="4" height="118" fill="#FFD5FF"/>
<rect x="70" y="42" width="4" height="118" fill="#FFD5FF"/>
<rect x="74" y="42" width="4" height="118" fill="#FFD5FF"/>
<rect x="78" y="42" width="4" height="118" fill="#FFD5FF"/>
<rect x="82" y="40" width="4" height="120" fill="#FFD5FF"/>
<rect x="86" y="38" width="4" height="122" fill="#FFD5FF"/>
<rect x="90" y="38" width="4" height="122" fill="#FFD5FF"/>
<rect x="94" y="42" width="4" height="118" fill="#FFD5FF"/>
<rect x="98" y="46" width="4" height="112" fill="#FFD5FF"/>
<rect x="102" y="50" width="4" height="104" fill="#FFD5FF"/>
<rect x="106" y="54" width="4" height="96" fill="#FFD5FF"/>
<rect x="110" y="58" width="4" height="64" fill="#FFD5FF"/>
<rect x="114" y="66" width="4" height="52" fill="#FFD5FF"/>
<rect x="120" y="78" width="4" height="24" fill="#FFD5FF"/>
<rect x="124" y="78" width="4" height="12" fill="#FFD5FF"/>
<rect x="40" y="70" width="4" height="4" fill="black"/>
<rect x="76" y="70" width="4" height="4" fill="black"/>
<rect x="44" y="70" width="4" height="4" fill="black"/>
<rect x="80" y="70" width="4" height="4" fill="black"/>
<rect x="80" y="65" width="4" height="4" fill="black"/>
<rect x="84" y="65" width="4" height="4" fill="black"/>
<rect x="88" y="65" width="4" height="4" fill="black"/>
<rect x="92" y="65" width="4" height="4" fill="black"/>
<rect x="48" y="70" width="4" height="4" fill="black"/>
<rect x="84" y="70" width="4" height="4" fill="black"/>
<rect x="84" y="76" width="4" height="4" fill="black"/>
<rect x="52" y="70" width="4" height="4" fill="black"/>
<rect x="52" y="76" width="4" height="4" fill="black"/>
<rect x="88" y="70" width="4" height="4" fill="black"/>
<rect x="56" y="70" width="4" height="4" fill="black"/>
<rect x="56" y="65" width="4" height="4" fill="black"/>
<rect x="52" y="65" width="4" height="4" fill="black"/>
<rect x="48" y="65" width="4" height="4" fill="black"/>
<rect x="44" y="65" width="4" height="4" fill="black"/>
<rect x="92" y="70" width="4" height="4" fill="black"/>
<rect x="60" y="70" width="4" height="4" fill="black"/>
<rect x="96" y="70" width="4" height="4" fill="black"/>
<rect x="100" y="70" width="4" height="4" fill="black"/>
<rect x="104" y="70" width="4" height="4" fill="black"/>
<rect x="108" y="70" width="4" height="4" fill="black"/>
<rect x="112" y="70" width="4" height="4" fill="black"/>
<rect x="116" y="74" width="4" height="4" fill="black"/>
<rect x="120" y="74" width="4" height="4" fill="black"/>
<rect x="124" y="74" width="4" height="4" fill="black"/>
<rect x="128" y="78" width="4" height="4" fill="black"/>
<rect x="128" y="82" width="4" height="4" fill="black"/>
<rect x="128" y="86" width="4" height="4" fill="black"/>
<rect x="124" y="90" width="4" height="4" fill="black"/>
<rect x="124" y="94" width="4" height="4" fill="black"/>
<rect x="124" y="98" width="4" height="4" fill="black"/>
<rect x="120" y="102" width="4" height="4" fill="black"/>
<rect x="116" y="78" width="4" height="4" fill="black"/>
<rect x="116" y="82" width="4" height="4" fill="black"/>
<rect x="116" y="86" width="4" height="4" fill="black"/>
<rect x="116" y="90" width="4" height="4" fill="black"/>
<rect x="116" y="94" width="4" height="4" fill="black"/>
<rect x="116" y="98" width="4" height="4" fill="black"/>
<rect x="116" y="102" width="4" height="4" fill="black"/>
<rect x="116" y="106" width="4" height="4" fill="black"/>
<rect x="116" y="110" width="4" height="4" fill="black"/>
<rect x="112" y="114" width="4" height="4" fill="black"/>
<rect x="116" y="114" width="4" height="4" fill="black"/>
<rect x="120" y="114" width="4" height="4" fill="black"/>
<rect x="124" y="114" width="4" height="4" fill="black"/>
<rect x="128" y="118" width="4" height="4" fill="black"/>
<rect x="132" y="122" width="4" height="4" fill="black"/>
<rect x="136" y="122" width="4" height="4" fill="black"/>
<rect x="140" y="126" width="4" height="4" fill="black"/>
<rect x="144" y="130" width="4" height="4" fill="black"/>
<rect x="148" y="134" width="4" height="4" fill="black"/>
<rect x="148" y="138" width="4" height="4" fill="black"/>
<rect x="148" y="142" width="4" height="4" fill="black"/>
<rect x="152" y="150" width="4" height="4" fill="black"/>
<rect x="156" y="154" width="4" height="4" fill="black"/>
<rect x="148" y="146" width="4" height="4" fill="black"/>
<rect x="144" y="150" width="4" height="4" fill="black"/>
<rect x="140" y="154" width="4" height="4" fill="black"/>
<rect x="136" y="158" width="4" height="4" fill="black"/>
<rect x="112" y="118" width="4" height="4" fill="black"/>
<rect x="108" y="122" width="4" height="4" fill="black"/>
<rect x="108" y="126" width="4" height="4" fill="black"/>
<rect x="108" y="130" width="4" height="4" fill="black"/>
<rect x="116" y="70" width="4" height="4" fill="black"/>
<rect x="64" y="74" width="4" height="4" fill="black"/>
<rect x="68" y="74" width="4" height="4" fill="black"/>
<rect x="100" y="74" width="4" height="4" fill="black"/>
<rect x="64" y="78" width="4" height="4" fill="black"/>
<rect x="100" y="78" width="4" height="4" fill="black"/>
<rect x="64" y="82" width="4" height="4" fill="black"/>
<rect x="100" y="82" width="4" height="4" fill="black"/>
<rect x="56" y="90" width="4" height="4" fill="black"/>
<rect x="92" y="90" width="4" height="4" fill="black"/>
<rect x="52" y="90" width="4" height="4" fill="black"/>
<rect x="88" y="90" width="4" height="4" fill="black"/>
<rect x="48" y="90" width="4" height="4" fill="black"/>
<rect x="84" y="90" width="4" height="4" fill="black"/>
<rect x="44" y="90" width="4" height="4" fill="black"/>
<rect x="80" y="90" width="4" height="4" fill="black"/>
<rect x="72" y="91" width="4" height="4" fill="black"/>
<rect x="68" y="104" width="4" height="4" fill="black"/>
<rect x="64" y="104" width="4" height="4" fill="black"/>
<rect x="72" y="104" width="4" height="4" fill="black"/>
<rect x="76" y="104" width="4" height="4" fill="black"/>
<rect x="68" y="91" width="4" height="4" fill="black"/>
<rect x="64" y="91" width="4" height="4" fill="black"/>
<rect x="40" y="86" width="4" height="4" fill="black"/>
<rect x="34" y="86" width="4" height="4" fill="black"/>
<rect x="34" y="90" width="4" height="4" fill="black"/>
<rect x="34" y="94" width="4" height="4" fill="black"/>
<rect x="34" y="98" width="4" height="4" fill="black"/>
<rect x="34" y="102" width="4" height="4" fill="black"/>
<rect x="34" y="106" width="4" height="4" fill="black"/>
<rect x="30" y="106" width="4" height="4" fill="black"/>
<rect x="26" y="102" width="4" height="4" fill="black"/>
<rect x="26" y="98" width="4" height="4" fill="black"/>
<rect x="26" y="94" width="4" height="4" fill="black"/>
<rect x="26" y="90" width="4" height="4" fill="black"/>
<rect x="26" y="86" width="4" height="4" fill="black"/>
<rect x="26" y="82" width="4" height="4" fill="black"/>
<rect x="34" y="110" width="4" height="4" fill="black"/>
<rect x="38" y="114" width="4" height="4" fill="black"/>
<rect x="38" y="118" width="4" height="4" fill="black"/>
<rect x="42" y="122" width="4" height="4" fill="black"/>
<rect x="46" y="126" width="4" height="4" fill="black"/>
<rect x="42" y="130" width="4" height="4" fill="black"/>
<rect x="38" y="130" width="4" height="4" fill="black"/>
<rect x="34" y="134" width="4" height="4" fill="black"/>
<rect x="30" y="138" width="4" height="4" fill="black"/>
<rect x="26" y="142" width="4" height="4" fill="black"/>
<rect x="26" y="146" width="4" height="4" fill="black"/>
<rect x="22" y="146" width="4" height="4" fill="black"/>
<rect x="18" y="150" width="4" height="4" fill="black"/>
<rect x="14" y="154" width="4" height="4" fill="black"/>
<rect x="10" y="158" width="4" height="4" fill="black"/>
<rect x="26" y="150" width="4" height="4" fill="black"/>
<rect x="30" y="154" width="4" height="4" fill="black"/>
<rect x="34" y="158" width="4" height="4" fill="black"/>
<rect x="50" y="126" width="4" height="4" fill="black"/>
<rect x="50" y="130" width="4" height="4" fill="black"/>
<rect x="62" y="126" width="4" height="4" fill="black"/>
<rect x="66" y="130" width="4" height="4" fill="black"/>
<rect x="70" y="130" width="4" height="4" fill="black"/>
<rect x="70" y="142" width="4" height="4" fill="black"/>
<rect x="74" y="142" width="4" height="4" fill="black"/>
<rect x="78" y="142" width="4" height="4" fill="black"/>
<rect x="74" y="130" width="4" height="4" fill="black"/>
<rect x="78" y="130" width="4" height="4" fill="black"/>
<rect x="82" y="126" width="4" height="4" fill="black"/>
<rect x="86" y="122" width="4" height="4" fill="black"/>
<rect x="54" y="134" width="4" height="4" fill="black"/>
<rect x="54" y="138" width="4" height="4" fill="black"/>
<rect x="54" y="142" width="4" height="4" fill="black"/>
<rect x="54" y="146" width="4" height="4" fill="black"/>
<rect x="50" y="150" width="4" height="4" fill="black"/>
<rect x="50" y="154" width="4" height="4" fill="black"/>
<rect x="54" y="158" width="4" height="4" fill="black"/>
<rect x="98" y="158" width="4" height="4" fill="black"/>
<rect x="102" y="154" width="4" height="4" fill="black"/>
<rect x="106" y="150" width="4" height="4" fill="black"/>
<rect x="110" y="146" width="4" height="4" fill="black"/>
<rect x="114" y="146" width="4" height="4" fill="black"/>
<rect x="118" y="142" width="4" height="4" fill="black"/>
<rect x="122" y="138" width="4" height="4" fill="black"/>
<rect x="126" y="134" width="4" height="4" fill="black"/>
<rect x="126" y="130" width="4" height="4" fill="black"/>
<rect x="122" y="126" width="4" height="4" fill="black"/>
<rect x="118" y="126" width="4" height="4" fill="black"/>
<rect x="110" y="142" width="4" height="4" fill="black"/>
<rect x="108" y="138" width="4" height="4" fill="black"/>
<rect x="108" y="134" width="4" height="4" fill="black"/>
<rect x="76" y="86" width="4" height="4" fill="black"/>
<rect x="36" y="82" width="4" height="4" fill="black"/>
<rect x="30" y="82" width="4" height="4" fill="black"/>
<rect x="30" y="78" width="4" height="4" fill="black"/>
<rect x="30" y="74" width="4" height="4" fill="black"/>
<rect x="30" y="70" width="4" height="4" fill="black"/>
<rect x="30" y="66" width="4" height="4" fill="black"/>
<rect x="36" y="66" width="4" height="4" fill="black"/>
<rect x="40" y="62" width="4" height="4" fill="black"/>
<rect x="40" y="58" width="4" height="4" fill="black"/>
<rect x="44" y="54" width="4" height="4" fill="black"/>
<rect x="48" y="50" width="4" height="4" fill="black"/>
<rect x="52" y="46" width="4" height="4" fill="black"/>
<rect x="56" y="50" width="4" height="4" fill="black"/>
<rect x="60" y="46" width="4" height="4" fill="black"/>
<rect x="64" y="42" width="4" height="4" fill="black"/>
<rect x="68" y="38" width="4" height="4" fill="black"/>
<rect x="72" y="42" width="4" height="4" fill="black"/>
<rect x="68" y="46" width="4" height="4" fill="black"/>
<rect x="76" y="42" width="4" height="4" fill="black"/>
<rect x="80" y="38" width="4" height="4" fill="black"/>
<rect x="84" y="38" width="4" height="4" fill="black"/>
<rect x="88" y="34" width="4" height="4" fill="black"/>
<rect x="92" y="38" width="4" height="4" fill="black"/>
<rect x="96" y="42" width="4" height="4" fill="black"/>
<rect x="100" y="46" width="4" height="4" fill="black"/>
<rect x="104" y="50" width="4" height="4" fill="black"/>
<rect x="108" y="54" width="4" height="4" fill="black"/>
<rect x="112" y="58" width="4" height="4" fill="black"/>
<rect x="112" y="62" width="4" height="4" fill="black"/>
<rect x="116" y="66" width="4" height="4" fill="black"/>
<rect x="30" y="62" width="4" height="4" fill="black"/>
<rect x="30" y="58" width="4" height="4" fill="black"/>
<rect x="30" y="54" width="4" height="4" fill="black"/>
<rect x="30" y="50" width="4" height="4" fill="black"/>
<rect x="30" y="46" width="4" height="4" fill="black"/>
<rect x="34" y="42" width="4" height="4" fill="black"/>
<rect x="38" y="38" width="4" height="4" fill="black"/>
<rect x="42" y="34" width="4" height="4" fill="black"/>
<rect x="46" y="30" width="4" height="4" fill="black"/>
<rect x="50" y="26" width="4" height="4" fill="black"/>
<rect x="54" y="22" width="4" height="4" fill="black"/>
<rect x="58" y="18" width="4" height="4" fill="black"/>
<rect x="62" y="18" width="4" height="4" fill="black"/>
<rect x="66" y="18" width="4" height="4" fill="black"/>
<rect x="70" y="18" width="4" height="4" fill="black"/>
<rect x="74" y="18" width="4" height="4" fill="black"/>
<rect x="78" y="18" width="4" height="4" fill="black"/>
<rect x="82" y="18" width="4" height="4" fill="black"/>
<rect x="86" y="18" width="4" height="4" fill="black"/>
<rect x="90" y="22" width="4" height="4" fill="black"/>
<rect x="94" y="26" width="4" height="4" fill="black"/>
<rect x="98" y="26" width="4" height="4" fill="black"/>
<rect x="102" y="26" width="4" height="4" fill="black"/>
<rect x="106" y="30" width="4" height="4" fill="black"/>
<rect x="110" y="34" width="4" height="4" fill="black"/>
<rect x="114" y="38" width="4" height="4" fill="black"/>
<rect x="118" y="42" width="4" height="4" fill="black"/>
<rect x="118" y="46" width="4" height="4" fill="black"/>
<rect x="122" y="50" width="4" height="4" fill="black"/>
<rect x="122" y="54" width="4" height="4" fill="black"/>
<rect x="122" y="58" width="4" height="4" fill="black"/>
<rect x="122" y="62" width="4" height="4" fill="black"/>
<rect x="122" y="66" width="4" height="4" fill="black"/>
<rect x="120" y="70" width="4" height="4" fill="black"/>
<rect x="72" y="82" width="4" height="4" fill="black"/>
<rect x="36" y="78" width="4" height="4" fill="black"/>
<rect x="72" y="78" width="4" height="4" fill="black"/>
<rect x="36" y="74" width="4" height="4" fill="black"/>
<rect x="72" y="74" width="4" height="4" fill="black"/>
<rect x="60" y="86" width="4" height="4" fill="black"/>
<rect x="96" y="86" width="4" height="4" fill="black"/>
</g>
<defs>
<clipPath id="clip0_1383_10659">
<rect width="160" height="160" fill="white"/>
</clipPath>
</defs>
</svg>
