<svg width="160" height="160" viewBox="0 0 160 160" fill="none" xmlns="http://www.w3.org/2000/svg">
<g clip-path="url(#clip0_1383_10298)">
<rect width="160" height="160" fill="#83DA85"/>
<rect x="26" y="137" width="4" height="25" fill="#5D34F2"/>
<rect x="22" y="137" width="4" height="25" fill="#5D34F2"/>
<rect x="18" y="141" width="4" height="19" fill="#5D34F2"/>
<rect x="14" y="141" width="4" height="19" fill="#5D34F2"/>
<rect x="10" y="149" width="4" height="11" fill="#5D34F2"/>
<rect x="6" y="149" width="4" height="11" fill="#5D34F2"/>
<rect x="2" y="152" width="4" height="8" fill="#5D34F2"/>
<rect x="-2" y="153" width="4" height="8" fill="#5D34F2"/>
<rect x="30" y="137" width="4" height="25" fill="#5D34F2"/>
<rect x="34" y="124" width="4" height="38" fill="#5D34F2"/>
<rect x="38" y="120" width="4" height="42" fill="#5D34F2"/>
<rect x="42" y="120" width="4" height="42" fill="#5D34F2"/>
<rect x="138" y="149" width="4" height="11" fill="#5D34F2"/>
<rect x="142" y="153" width="4" height="7" fill="#5D34F2"/>
<rect x="146" y="157" width="4" height="3" fill="#5D34F2"/>
<rect x="134" y="149" width="4" height="11" fill="#5D34F2"/>
<rect x="106" y="137" width="4" height="25" fill="#5D34F2"/>
<rect x="110" y="141" width="4" height="19" fill="#5D34F2"/>
<rect x="114" y="145" width="4" height="15" fill="#5D34F2"/>
<rect x="118" y="145" width="4" height="15" fill="#5D34F2"/>
<rect x="122" y="145" width="4" height="15" fill="#5D34F2"/>
<rect x="126" y="145" width="4" height="15" fill="#5D34F2"/>
<rect x="130" y="145" width="4" height="15" fill="#5D34F2"/>
<rect x="102" y="136" width="4" height="24" fill="#5D34F2"/>
<rect x="98" y="149" width="4" height="11" fill="#5D34F2"/>
<rect x="94" y="157" width="4" height="3" fill="#5D34F2"/>
<rect x="90" y="144" width="4" height="16" fill="#C9C5D0"/>
<rect x="86" y="148" width="4" height="12" fill="#C9C5D0"/>
<rect x="82" y="152" width="4" height="8" fill="#C9C5D0"/>
<rect x="78" y="144" width="4" height="16" fill="#C9C5D0"/>
<rect x="74" y="144" width="4" height="16" fill="#C9C5D0"/>
<rect x="70" y="144" width="4" height="16" fill="#C9C5D0"/>
<rect x="66" y="152" width="4" height="8" fill="#C9C5D0"/>
<rect x="62" y="148" width="4" height="12" fill="#C9C5D0"/>
<rect x="58" y="144" width="4" height="16" fill="#C9C5D0"/>
<rect x="46" y="124" width="4" height="38" fill="#5D34F2"/>
<rect x="50" y="124" width="4" height="38" fill="#5D34F2"/>
<rect x="34" y="41" width="4" height="28" fill="#5D34F2"/>
<rect x="38" y="37" width="4" height="28" fill="#5D34F2"/>
<rect x="42" y="33" width="4" height="24" fill="#5D34F2"/>
<rect x="46" y="29" width="4" height="22" fill="#5D34F2"/>
<rect x="50" y="29" width="4" height="16" fill="#5D34F2"/>
<rect x="54" y="25" width="4" height="18" fill="#5D34F2"/>
<rect x="58" y="25" width="4" height="16" fill="#5D34F2"/>
<rect x="62" y="21" width="4" height="20" fill="#5D34F2"/>
<rect x="66" y="21" width="4" height="20" fill="#5D34F2"/>
<rect x="70" y="21" width="4" height="22" fill="#5D34F2"/>
<rect x="74" y="21" width="4" height="22" fill="#5D34F2"/>
<rect x="78" y="21" width="4" height="22" fill="#5D34F2"/>
<rect x="82" y="21" width="4" height="22" fill="#5D34F2"/>
<rect x="86" y="21" width="4" height="22" fill="#5D34F2"/>
<rect x="90" y="21" width="4" height="22" fill="#5D34F2"/>
<rect x="94" y="25" width="4" height="18" fill="#5D34F2"/>
<rect x="98" y="25" width="4" height="20" fill="#5D34F2"/>
<rect x="102" y="25" width="4" height="20" fill="#5D34F2"/>
<rect x="106" y="29" width="4" height="20" fill="#5D34F2"/>
<rect x="110" y="33" width="4" height="24" fill="#5D34F2"/>
<rect x="114" y="45" width="4" height="20" fill="#5D34F2"/>
<rect x="34" y="73" width="4" height="36" fill="#F07EFF"/>
<rect x="30" y="61" width="4" height="44" fill="#F07EFF"/>
<rect x="30" y="97" width="4" height="8" fill="#F07EFF"/>
<rect x="26" y="81" width="4" height="20" fill="#F07EFF"/>
<rect x="38" y="65" width="4" height="84" fill="#F07EFF"/>
<rect x="42" y="57" width="4" height="100" fill="#F07EFF"/>
<rect x="46" y="45" width="4" height="115" fill="#F07EFF"/>
<rect x="50" y="45" width="4" height="84" fill="#F07EFF"/>
<rect x="54" y="45" width="4" height="84" fill="#F07EFF"/>
<rect x="58" y="37" width="4" height="96" fill="#F07EFF"/>
<rect x="62" y="39" width="4" height="94" fill="#F07EFF"/>
<rect x="66" y="39" width="4" height="94" fill="#F07EFF"/>
<rect x="70" y="41" width="4" height="96" fill="#F07EFF"/>
<rect x="74" y="41" width="4" height="96" fill="#F07EFF"/>
<rect x="78" y="41" width="4" height="96" fill="#F07EFF"/>
<rect x="82" y="41" width="4" height="92" fill="#F07EFF"/>
<rect x="86" y="41" width="4" height="88" fill="#F07EFF"/>
<rect x="90" y="41" width="4" height="84" fill="#F07EFF"/>
<rect x="94" y="45" width="4" height="104" fill="#F07EFF"/>
<rect x="98" y="45" width="4" height="92" fill="#F07EFF"/>
<rect x="102" y="45" width="4" height="88" fill="#F07EFF"/>
<rect x="106" y="49" width="4" height="76" fill="#F07EFF"/>
<rect x="90" y="125" width="4" height="32" fill="#F07EFF"/>
<rect x="86" y="129" width="4" height="31" fill="#F07EFF"/>
<rect x="82" y="133" width="4" height="27" fill="#F07EFF"/>
<rect x="78" y="137" width="4" height="23" fill="#F07EFF"/>
<rect x="74" y="137" width="4" height="23" fill="#F07EFF"/>
<rect x="70" y="137" width="4" height="23" fill="#F07EFF"/>
<rect x="66" y="137" width="4" height="23" fill="#F07EFF"/>
<rect x="62" y="137" width="4" height="23" fill="#F07EFF"/>
<rect x="58" y="133" width="4" height="27" fill="#F07EFF"/>
<rect x="54" y="129" width="4" height="31" fill="#F07EFF"/>
<rect x="50" y="129" width="4" height="31" fill="#F07EFF"/>
<rect x="110" y="57" width="4" height="60" fill="#F07EFF"/>
<rect x="114" y="65" width="4" height="36" fill="#F07EFF"/>
<rect x="74" y="141" width="4" height="4" fill="#B545CA"/>
<rect x="70" y="141" width="4" height="4" fill="#B545CA"/>
<rect x="66" y="137" width="4" height="4" fill="#D361E7"/>
<rect x="62" y="137" width="4" height="4" fill="#D361E7"/>
<rect x="62" y="133" width="4" height="4" fill="#D361E7"/>
<rect x="58" y="129" width="4" height="4" fill="#D361E7"/>
<rect x="54" y="125" width="4" height="4" fill="#D361E7"/>
<rect x="78" y="141" width="4" height="4" fill="#B545CA"/>
<rect x="82" y="141" width="4" height="4" fill="#B545CA"/>
<rect x="86" y="141" width="4" height="4" fill="#B545CA"/>
<rect x="90" y="141" width="4" height="4" fill="#B545CA"/>
<rect x="94" y="141" width="4" height="4" fill="#B545CA"/>
<rect x="74" y="145" width="4" height="4" fill="#D361E7"/>
<rect x="78" y="145" width="4" height="4" fill="#D361E7"/>
<rect x="82" y="145" width="4" height="4" fill="#D361E7"/>
<rect x="86" y="145" width="4" height="4" fill="#D361E7"/>
<rect x="90" y="145" width="4" height="4" fill="#D361E7"/>
<rect x="94" y="145" width="4" height="4" fill="#D361E7"/>
<rect x="86" y="149" width="4" height="4" fill="#D361E7"/>
<rect x="82" y="149" width="4" height="4" fill="#D361E7"/>
<rect x="54" y="25" width="4" height="4" fill="black"/>
<rect x="50" y="25" width="4" height="4" fill="black"/>
<rect x="46" y="25" width="4" height="4" fill="black"/>
<rect x="42" y="29" width="4" height="4" fill="black"/>
<rect x="38" y="33" width="4" height="4" fill="black"/>
<rect x="34" y="37" width="4" height="4" fill="black"/>
<rect x="30" y="41" width="4" height="4" fill="black"/>
<rect x="30" y="45" width="4" height="4" fill="black"/>
<rect x="30" y="49" width="4" height="4" fill="black"/>
<rect x="30" y="53" width="4" height="4" fill="black"/>
<rect x="30" y="57" width="4" height="4" fill="black"/>
<rect x="30" y="61" width="4" height="4" fill="black"/>
<rect x="30" y="65" width="4" height="4" fill="black"/>
<rect x="30" y="69" width="4" height="4" fill="black"/>
<rect x="30" y="73" width="4" height="4" fill="black"/>
<rect x="26" y="77" width="4" height="4" fill="black"/>
<rect x="68" y="77" width="4" height="4" fill="black"/>
<rect x="70" y="68" width="4" height="4" fill="black"/>
<rect x="66" y="68" width="4" height="4" fill="black"/>
<rect x="62" y="68" width="4" height="4" fill="black"/>
<rect x="58" y="68" width="4" height="4" fill="black"/>
<rect x="54" y="72" width="4" height="4" fill="black"/>
<rect x="50" y="72" width="4" height="4" fill="black"/>
<rect x="46" y="72" width="4" height="4" fill="black"/>
<rect x="42" y="72" width="4" height="4" fill="black"/>
<rect x="38" y="76" width="4" height="4" fill="black"/>
<rect x="34" y="76" width="4" height="4" fill="black"/>
<rect x="54" y="76" width="4" height="4" fill="black"/>
<rect x="54" y="80" width="4" height="4" fill="black"/>
<rect x="58" y="84" width="4" height="4" fill="black"/>
<rect x="62" y="88" width="4" height="4" fill="black"/>
<rect x="66" y="88" width="4" height="4" fill="black"/>
<rect x="70" y="88" width="4" height="4" fill="black"/>
<rect x="74" y="88" width="4" height="4" fill="black"/>
<rect x="78" y="88" width="4" height="4" fill="black"/>
<rect x="82" y="96" width="4" height="4" fill="black"/>
<rect x="86" y="96" width="4" height="4" fill="black"/>
<rect x="82" y="110" width="4" height="4" fill="black"/>
<rect x="78" y="110" width="4" height="4" fill="black"/>
<rect x="74" y="106" width="4" height="4" fill="black"/>
<rect x="86" y="110" width="4" height="4" fill="black"/>
<rect x="86" y="137" width="4" height="4" fill="black"/>
<rect x="90" y="137" width="4" height="4" fill="black"/>
<rect x="82" y="137" width="4" height="4" fill="black"/>
<rect x="78" y="137" width="4" height="4" fill="black"/>
<rect x="90" y="110" width="4" height="4" fill="black"/>
<rect x="94" y="110" width="4" height="4" fill="black"/>
<rect x="90" y="96" width="4" height="4" fill="black"/>
<rect x="94" y="96" width="4" height="4" fill="black"/>
<rect x="82" y="84" width="4" height="4" fill="black"/>
<rect x="82" y="80" width="4" height="4" fill="black"/>
<rect x="82" y="76" width="4" height="4" fill="black"/>
<rect x="86" y="76" width="4" height="4" fill="black"/>
<rect x="90" y="76" width="4" height="4" fill="black"/>
<rect x="94" y="72" width="4" height="4" fill="black"/>
<rect x="94" y="76" width="4" height="4" fill="black"/>
<rect x="94" y="80" width="4" height="4" fill="black"/>
<rect x="94" y="84" width="4" height="4" fill="black"/>
<rect x="98" y="88" width="4" height="4" fill="black"/>
<rect x="102" y="88" width="4" height="4" fill="black"/>
<rect x="106" y="88" width="4" height="4" fill="black"/>
<rect x="110" y="88" width="4" height="4" fill="black"/>
<rect x="114" y="84" width="4" height="4" fill="black"/>
<rect x="114" y="76" width="4" height="4" fill="black"/>
<rect x="114" y="80" width="4" height="4" fill="black"/>
<rect x="98" y="68" width="4" height="4" fill="black"/>
<rect x="102" y="68" width="4" height="4" fill="black"/>
<rect x="102" y="62" width="4" height="4" fill="black"/>
<rect x="98" y="62" width="4" height="4" fill="black"/>
<rect x="106" y="62" width="4" height="4" fill="black"/>
<rect x="106" y="68" width="4" height="4" fill="black"/>
<rect x="110" y="68" width="4" height="4" fill="black"/>
<rect x="114" y="72" width="4" height="4" fill="black"/>
<rect x="82" y="72" width="4" height="4" fill="black"/>
<rect x="78" y="68" width="4" height="4" fill="black"/>
<rect x="74" y="68" width="4" height="4" fill="black"/>
<rect x="74" y="62" width="4" height="4" fill="black"/>
<rect x="70" y="62" width="4" height="4" fill="black"/>
<rect x="66" y="62" width="4" height="4" fill="black"/>
<rect x="100" y="77" width="4" height="4" fill="black"/>
<rect x="30" y="81" width="4" height="4" fill="black"/>
<rect x="34" y="85" width="4" height="4" fill="black"/>
<rect x="34" y="89" width="4" height="4" fill="black"/>
<rect x="22" y="81" width="4" height="4" fill="black"/>
<rect x="22" y="85" width="4" height="4" fill="black"/>
<rect x="22" y="89" width="4" height="4" fill="black"/>
<rect x="22" y="93" width="4" height="4" fill="black"/>
<rect x="22" y="97" width="4" height="4" fill="black"/>
<rect x="26" y="101" width="4" height="4" fill="black"/>
<rect x="30" y="105" width="4" height="4" fill="black"/>
<rect x="58" y="21" width="4" height="4" fill="black"/>
<rect x="58" y="37" width="4" height="4" fill="black"/>
<rect x="54" y="41" width="4" height="4" fill="black"/>
<rect x="50" y="41" width="4" height="4" fill="black"/>
<rect x="46" y="45" width="4" height="4" fill="black"/>
<rect x="46" y="49" width="4" height="4" fill="black"/>
<rect x="46" y="53" width="4" height="4" fill="black"/>
<rect x="42" y="57" width="4" height="4" fill="black"/>
<rect x="42" y="61" width="4" height="4" fill="black"/>
<rect x="38" y="65" width="4" height="4" fill="black"/>
<rect x="34" y="69" width="4" height="4" fill="black"/>
<rect x="62" y="37" width="4" height="4" fill="black"/>
<rect x="66" y="37" width="4" height="4" fill="black"/>
<rect x="70" y="41" width="4" height="4" fill="black"/>
<rect x="74" y="41" width="4" height="4" fill="black"/>
<rect x="78" y="41" width="4" height="4" fill="black"/>
<rect x="82" y="41" width="4" height="4" fill="black"/>
<rect x="86" y="41" width="4" height="4" fill="black"/>
<rect x="90" y="41" width="4" height="4" fill="black"/>
<rect x="94" y="41" width="4" height="4" fill="black"/>
<rect x="98" y="41" width="4" height="4" fill="black"/>
<rect x="102" y="41" width="4" height="4" fill="black"/>
<rect x="106" y="45" width="4" height="4" fill="black"/>
<rect x="110" y="49" width="4" height="4" fill="black"/>
<rect x="110" y="53" width="4" height="4" fill="black"/>
<rect x="114" y="57" width="4" height="4" fill="black"/>
<rect x="114" y="61" width="4" height="4" fill="black"/>
<rect x="62" y="17" width="4" height="4" fill="black"/>
<rect x="66" y="17" width="4" height="4" fill="black"/>
<rect x="70" y="17" width="4" height="4" fill="black"/>
<rect x="74" y="17" width="4" height="4" fill="black"/>
<rect x="78" y="17" width="4" height="4" fill="black"/>
<rect x="82" y="17" width="4" height="4" fill="black"/>
<rect x="86" y="17" width="4" height="4" fill="black"/>
<rect x="90" y="21" width="4" height="4" fill="black"/>
<rect x="94" y="25" width="4" height="4" fill="black"/>
<rect x="98" y="25" width="4" height="4" fill="black"/>
<rect x="102" y="25" width="4" height="4" fill="black"/>
<rect x="106" y="29" width="4" height="4" fill="black"/>
<rect x="110" y="33" width="4" height="4" fill="black"/>
<rect x="114" y="37" width="4" height="4" fill="black"/>
<rect x="114" y="41" width="4" height="4" fill="black"/>
<rect x="118" y="45" width="4" height="4" fill="black"/>
<rect x="118" y="49" width="4" height="4" fill="black"/>
<rect x="118" y="53" width="4" height="4" fill="black"/>
<rect x="118" y="57" width="4" height="4" fill="black"/>
<rect x="118" y="61" width="4" height="4" fill="black"/>
<rect x="118" y="65" width="4" height="4" fill="black"/>
<rect x="118" y="69" width="4" height="4" fill="black"/>
<rect x="118" y="73" width="4" height="4" fill="black"/>
<rect x="118" y="77" width="4" height="4" fill="black"/>
<rect x="122" y="77" width="4" height="4" fill="black"/>
<rect x="122" y="81" width="4" height="4" fill="black"/>
<rect x="122" y="85" width="4" height="4" fill="black"/>
<rect x="122" y="89" width="4" height="4" fill="black"/>
<rect x="122" y="93" width="4" height="4" fill="black"/>
<rect x="118" y="81" width="4" height="4" fill="black"/>
<rect x="118" y="85" width="4" height="4" fill="black"/>
<rect x="118" y="89" width="4" height="4" fill="black"/>
<rect x="118" y="93" width="4" height="4" fill="black"/>
<rect x="118" y="97" width="4" height="4" fill="black"/>
<rect x="114" y="101" width="4" height="4" fill="black"/>
<rect x="114" y="105" width="4" height="4" fill="black"/>
<rect x="114" y="109" width="4" height="4" fill="black"/>
<rect x="114" y="113" width="4" height="4" fill="black"/>
<rect x="110" y="117" width="4" height="4" fill="black"/>
<rect x="110" y="121" width="4" height="4" fill="black"/>
<rect x="106" y="125" width="4" height="4" fill="black"/>
<rect x="106" y="129" width="4" height="4" fill="black"/>
<rect x="102" y="133" width="4" height="4" fill="black"/>
<rect x="98" y="137" width="4" height="4" fill="black"/>
<rect x="94" y="137" width="4" height="4" fill="black"/>
<rect x="114" y="141" width="4" height="4" fill="black"/>
<rect x="110" y="137" width="4" height="4" fill="black"/>
<rect x="106" y="133" width="4" height="4" fill="black"/>
<rect x="118" y="141" width="4" height="4" fill="black"/>
<rect x="122" y="141" width="4" height="4" fill="black"/>
<rect x="126" y="141" width="4" height="4" fill="black"/>
<rect x="130" y="141" width="4" height="4" fill="black"/>
<rect x="134" y="145" width="4" height="4" fill="black"/>
<rect x="138" y="145" width="4" height="4" fill="black"/>
<rect x="142" y="149" width="4" height="4" fill="black"/>
<rect x="146" y="153" width="4" height="4" fill="black"/>
<rect x="150" y="157" width="4" height="4" fill="black"/>
<rect x="98" y="141" width="4" height="4" fill="black"/>
<rect x="98" y="145" width="4" height="4" fill="black"/>
<rect x="94" y="149" width="4" height="4" fill="black"/>
<rect x="94" y="153" width="4" height="4" fill="black"/>
<rect x="90" y="157" width="4" height="4" fill="black"/>
<rect x="42" y="157" width="4" height="4" fill="black"/>
<rect x="38" y="153" width="4" height="4" fill="black"/>
<rect x="38" y="149" width="4" height="4" fill="black"/>
<rect x="34" y="145" width="4" height="4" fill="black"/>
<rect x="34" y="141" width="4" height="4" fill="black"/>
<rect x="34" y="137" width="4" height="4" fill="black"/>
<rect x="34" y="133" width="4" height="4" fill="black"/>
<rect x="30" y="137" width="4" height="4" fill="black"/>
<rect x="26" y="137" width="4" height="4" fill="black"/>
<rect x="22" y="137" width="4" height="4" fill="black"/>
<rect x="18" y="141" width="4" height="4" fill="black"/>
<rect x="14" y="141" width="4" height="4" fill="black"/>
<rect x="10" y="145" width="4" height="4" fill="black"/>
<rect x="6" y="145" width="4" height="4" fill="black"/>
<rect x="2" y="149" width="4" height="4" fill="black"/>
<rect x="-2" y="149" width="4" height="4" fill="black"/>
<rect x="34" y="129" width="4" height="4" fill="black"/>
<rect x="34" y="125" width="4" height="4" fill="black"/>
<rect x="34" y="121" width="4" height="4" fill="black"/>
<rect x="34" y="117" width="4" height="4" fill="black"/>
<rect x="34" y="113" width="4" height="4" fill="black"/>
<rect x="34" y="109" width="4" height="4" fill="black"/>
<rect x="50" y="117" width="4" height="4" fill="black"/>
<rect x="46" y="113" width="4" height="4" fill="black"/>
<rect x="46" y="109" width="4" height="4" fill="black"/>
<rect x="54" y="121" width="4" height="4" fill="black"/>
<rect x="58" y="125" width="4" height="4" fill="black"/>
<rect x="62" y="129" width="4" height="4" fill="black"/>
<rect x="66" y="133" width="4" height="4" fill="black"/>
<rect x="70" y="137" width="4" height="4" fill="black"/>
<rect x="74" y="137" width="4" height="4" fill="black"/>
</g>
<defs>
<clipPath id="clip0_1383_10298">
<rect width="160" height="160" fill="white"/>
</clipPath>
</defs>
</svg>
