<svg width="160" height="160" viewBox="0 0 160 160" fill="none" xmlns="http://www.w3.org/2000/svg">
<g clip-path="url(#clip0_1383_9987)">
<rect width="160" height="160" fill="#C9C5D0"/>
<rect x="44" y="148" width="4" height="12" fill="#1B1B22"/>
<rect x="40" y="148" width="4" height="12" fill="#1B1B22"/>
<rect x="36" y="152" width="4" height="8" fill="#1B1B22"/>
<rect x="32" y="156" width="4" height="8" fill="#1B1B22"/>
<rect x="136" y="148" width="4" height="12" fill="#1B1B22"/>
<rect x="140" y="152" width="4" height="8" fill="#1B1B22"/>
<rect x="144" y="152" width="4" height="8" fill="#1B1B22"/>
<rect x="148" y="156" width="4" height="4" fill="#1B1B22"/>
<rect x="112" y="136" width="4" height="26" fill="#1B1B22"/>
<rect x="116" y="136" width="4" height="26" fill="#1B1B22"/>
<rect x="120" y="136" width="4" height="26" fill="#1B1B22"/>
<rect x="124" y="136" width="4" height="26" fill="#1B1B22"/>
<rect x="128" y="140" width="4" height="22" fill="#1B1B22"/>
<rect x="132" y="144" width="4" height="22" fill="#1B1B22"/>
<rect x="108" y="152" width="4" height="10" fill="#1B1B22"/>
<rect x="104" y="136" width="4" height="24" fill="#1B1B22"/>
<rect x="98" y="148" width="4" height="12" fill="#1B1B22"/>
<rect x="94" y="144" width="4" height="16" fill="#C9C5D0"/>
<rect x="90" y="144" width="4" height="16" fill="#C9C5D0"/>
<rect x="86" y="148" width="4" height="12" fill="#C9C5D0"/>
<rect x="82" y="152" width="4" height="8" fill="#C9C5D0"/>
<rect x="78" y="144" width="4" height="16" fill="#C9C5D0"/>
<rect x="74" y="144" width="4" height="16" fill="#C9C5D0"/>
<rect x="70" y="144" width="4" height="16" fill="#C9C5D0"/>
<rect x="66" y="152" width="4" height="8" fill="#C9C5D0"/>
<rect x="62" y="148" width="4" height="12" fill="#C9C5D0"/>
<rect x="58" y="144" width="4" height="16" fill="#C9C5D0"/>
<rect x="50" y="124" width="4" height="38" fill="#1B1B22"/>
<rect x="32" y="48" width="4" height="28" fill="black"/>
<rect x="36" y="40" width="4" height="20" fill="black"/>
<rect x="40" y="32" width="4" height="18" fill="black"/>
<rect x="44" y="28" width="4" height="18" fill="black"/>
<rect x="48" y="24" width="4" height="18" fill="black"/>
<rect x="52" y="20" width="4" height="18" fill="black"/>
<rect x="56" y="20" width="4" height="18" fill="black"/>
<rect x="60" y="16" width="4" height="24" fill="black"/>
<rect x="64" y="16" width="4" height="28" fill="black"/>
<rect x="68" y="16" width="4" height="24" fill="black"/>
<rect x="72" y="16" width="4" height="24" fill="black"/>
<rect x="76" y="16" width="4" height="24" fill="black"/>
<rect x="80" y="16" width="4" height="24" fill="black"/>
<rect x="84" y="16" width="4" height="22" fill="black"/>
<rect x="88" y="16" width="4" height="22" fill="black"/>
<rect x="92" y="16" width="4" height="22" fill="black"/>
<rect x="96" y="20" width="4" height="22" fill="black"/>
<rect x="100" y="20" width="4" height="24" fill="black"/>
<rect x="104" y="24" width="4" height="24" fill="black"/>
<rect x="108" y="28" width="4" height="28" fill="black"/>
<rect x="112" y="32" width="4" height="32" fill="black"/>
<rect x="116" y="36" width="4" height="36" fill="black"/>
<rect x="36" y="64" width="4" height="48" fill="#FFDDB5"/>
<rect x="32" y="64" width="4" height="44" fill="#FFDDB5"/>
<rect x="32" y="100" width="4" height="8" fill="#FFDDB5"/>
<rect x="28" y="84" width="4" height="20" fill="#FFDDB5"/>
<rect x="40" y="52" width="4" height="68" fill="#FFDDB5"/>
<rect x="44" y="48" width="4" height="76" fill="#FFDDB5"/>
<rect x="48" y="44" width="4" height="84" fill="#FFDDB5"/>
<rect x="52" y="40" width="4" height="92" fill="#FFDDB5"/>
<rect x="56" y="40" width="4" height="92" fill="#FFDDB5"/>
<rect x="60" y="40" width="4" height="96" fill="#FFDDB5"/>
<rect x="64" y="48" width="4" height="88" fill="#FFDDB5"/>
<rect x="68" y="42" width="4" height="94" fill="#FFDDB5"/>
<rect x="72" y="44" width="4" height="92" fill="#FFDDB5"/>
<rect x="76" y="44" width="4" height="92" fill="#FFDDB5"/>
<rect x="80" y="44" width="4" height="92" fill="#FFDDB5"/>
<rect x="84" y="40" width="4" height="96" fill="#FFDDB5"/>
<rect x="88" y="40" width="4" height="92" fill="#FFDDB5"/>
<rect x="92" y="40" width="4" height="88" fill="#FFDDB5"/>
<rect x="96" y="44" width="4" height="116" fill="#FFDDB5"/>
<rect x="100" y="48" width="4" height="108" fill="#FFDDB5"/>
<rect x="104" y="52" width="4" height="100" fill="#FFDDB5"/>
<rect x="108" y="56" width="4" height="60" fill="#FFDDB5"/>
<rect x="92" y="128" width="4" height="32" fill="#FFDDB5"/>
<rect x="88" y="132" width="4" height="28" fill="#FFDDB5"/>
<rect x="84" y="136" width="4" height="24" fill="#FFDDB5"/>
<rect x="80" y="140" width="4" height="20" fill="#FFDDB5"/>
<rect x="76" y="140" width="4" height="20" fill="#FFDDB5"/>
<rect x="72" y="140" width="4" height="20" fill="#FFDDB5"/>
<rect x="68" y="140" width="4" height="20" fill="#FFDDB5"/>
<rect x="64" y="140" width="4" height="20" fill="#FFDDB5"/>
<rect x="60" y="136" width="4" height="24" fill="#FFDDB5"/>
<rect x="56" y="132" width="4" height="28" fill="#FFDDB5"/>
<rect x="52" y="132" width="4" height="28" fill="#FFDDB5"/>
<rect x="112" y="72" width="4" height="36" fill="#FFDDB5"/>
<rect x="116" y="72" width="4" height="36" fill="#FFDDB5"/>
<rect x="120" y="84" width="4" height="16" fill="#FFDDB5"/>
<rect x="68" y="140" width="4" height="4" fill="#FFB95A"/>
<rect x="64" y="140" width="4" height="4" fill="#FFB95A"/>
<rect x="60" y="140" width="4" height="4" fill="#FFB95A"/>
<rect x="56" y="136" width="4" height="4" fill="#FFB95A"/>
<rect x="72" y="140" width="4" height="4" fill="#FFB95A"/>
<rect x="76" y="140" width="4" height="4" fill="#FFB95A"/>
<rect x="80" y="140" width="4" height="4" fill="#FFB95A"/>
<rect x="84" y="140" width="4" height="4" fill="#FFB95A"/>
<rect x="88" y="140" width="4" height="4" fill="#FFB95A"/>
<rect x="92" y="136" width="4" height="4" fill="#FFB95A"/>
<rect x="100" y="132" width="4" height="4" fill="#FFB95A"/>
<rect x="68" y="144" width="4" height="4" fill="#FFB95A"/>
<rect x="72" y="144" width="4" height="4" fill="#FFB95A"/>
<rect x="76" y="144" width="4" height="4" fill="#FFB95A"/>
<rect x="72" y="16" width="4" height="4" fill="black"/>
<rect x="72" y="40" width="4" height="4" fill="black"/>
<rect x="76" y="40" width="4" height="4" fill="black"/>
<rect x="80" y="40" width="4" height="4" fill="black"/>
<rect x="84" y="36" width="4" height="4" fill="black"/>
<rect x="88" y="36" width="4" height="4" fill="black"/>
<rect x="92" y="36" width="4" height="4" fill="black"/>
<rect x="96" y="40" width="4" height="4" fill="black"/>
<rect x="100" y="44" width="4" height="4" fill="black"/>
<rect x="104" y="48" width="4" height="4" fill="black"/>
<rect x="108" y="52" width="4" height="4" fill="black"/>
<rect x="112" y="56" width="4" height="4" fill="black"/>
<rect x="112" y="60" width="4" height="4" fill="black"/>
<rect x="112" y="64" width="4" height="4" fill="black"/>
<rect x="112" y="68" width="4" height="4" fill="black"/>
<rect x="116" y="72" width="4" height="4" fill="black"/>
<rect x="68" y="40" width="4" height="4" fill="black"/>
<rect x="64" y="44" width="4" height="4" fill="black"/>
<rect x="60" y="40" width="4" height="4" fill="black"/>
<rect x="56" y="83" width="4" height="4" fill="black"/>
<rect x="56" y="77" width="4" height="4" fill="black"/>
<rect x="52" y="77" width="4" height="4" fill="black"/>
<rect x="48" y="77" width="4" height="4" fill="black"/>
<rect x="44" y="77" width="4" height="4" fill="black"/>
<rect x="40" y="81" width="4" height="4" fill="black"/>
<rect x="40" y="85" width="4" height="4" fill="black"/>
<rect x="40" y="89" width="4" height="4" fill="black"/>
<rect x="32" y="89" width="4" height="4" fill="black"/>
<rect x="32" y="93" width="4" height="4" fill="black"/>
<rect x="44" y="93" width="4" height="4" fill="black"/>
<rect x="48" y="93" width="4" height="4" fill="black"/>
<rect x="52" y="93" width="4" height="4" fill="black"/>
<rect x="56" y="93" width="4" height="4" fill="black"/>
<rect x="60" y="93" width="4" height="4" fill="black"/>
<rect x="64" y="93" width="4" height="4" fill="black"/>
<rect x="68" y="89" width="4" height="4" fill="black"/>
<rect x="72" y="101" width="4" height="4" fill="black"/>
<rect x="68" y="101" width="4" height="4" fill="black"/>
<rect x="68" y="113" width="4" height="4" fill="black"/>
<rect x="64" y="113" width="4" height="4" fill="black"/>
<rect x="72" y="113" width="4" height="4" fill="black"/>
<rect x="76" y="113" width="4" height="4" fill="black"/>
<rect x="80" y="113" width="4" height="4" fill="black"/>
<rect x="76" y="101" width="4" height="4" fill="black"/>
<rect x="68" y="85" width="4" height="4" fill="black"/>
<rect x="68" y="81" width="4" height="4" fill="black"/>
<rect x="72" y="81" width="4" height="4" fill="black"/>
<rect x="76" y="81" width="4" height="4" fill="black"/>
<rect x="80" y="77" width="4" height="4" fill="black"/>
<rect x="84" y="77" width="4" height="4" fill="black"/>
<rect x="88" y="77" width="4" height="4" fill="black"/>
<rect x="92" y="77" width="4" height="4" fill="black"/>
<rect x="96" y="77" width="4" height="4" fill="black"/>
<rect x="100" y="77" width="4" height="4" fill="black"/>
<rect x="104" y="81" width="4" height="4" fill="black"/>
<rect x="104" y="85" width="4" height="4" fill="black"/>
<rect x="104" y="89" width="4" height="4" fill="black"/>
<rect x="116" y="89" width="4" height="4" fill="black"/>
<rect x="116" y="93" width="4" height="4" fill="black"/>
<rect x="100" y="93" width="4" height="4" fill="black"/>
<rect x="96" y="93" width="4" height="4" fill="black"/>
<rect x="92" y="93" width="4" height="4" fill="black"/>
<rect x="88" y="93" width="4" height="4" fill="black"/>
<rect x="84" y="93" width="4" height="4" fill="black"/>
<rect x="80" y="93" width="4" height="4" fill="black"/>
<rect x="76" y="89" width="4" height="4" fill="black"/>
<rect x="76" y="85" width="4" height="4" fill="black"/>
<rect x="64" y="77" width="4" height="4" fill="black"/>
<rect x="60" y="77" width="4" height="4" fill="black"/>
<rect x="52" y="67" width="4" height="4" fill="black"/>
<rect x="48" y="67" width="4" height="4" fill="black"/>
<rect x="56" y="67" width="4" height="4" fill="black"/>
<rect x="60" y="71" width="4" height="4" fill="black"/>
<rect x="84" y="71" width="4" height="4" fill="black"/>
<rect x="88" y="67" width="4" height="4" fill="black"/>
<rect x="92" y="67" width="4" height="4" fill="black"/>
<rect x="96" y="67" width="4" height="4" fill="black"/>
<rect x="88" y="83" width="4" height="4" fill="black"/>
<rect x="56" y="36" width="4" height="4" fill="black"/>
<rect x="52" y="36" width="4" height="4" fill="black"/>
<rect x="48" y="40" width="4" height="4" fill="black"/>
<rect x="44" y="44" width="4" height="4" fill="black"/>
<rect x="40" y="48" width="4" height="4" fill="black"/>
<rect x="36" y="52" width="4" height="4" fill="black"/>
<rect x="36" y="56" width="4" height="4" fill="black"/>
<rect x="36" y="60" width="4" height="4" fill="black"/>
<rect x="36" y="64" width="4" height="4" fill="black"/>
<rect x="32" y="68" width="4" height="4" fill="black"/>
<rect x="32" y="72" width="4" height="4" fill="black"/>
<rect x="32" y="76" width="4" height="4" fill="black"/>
<rect x="68" y="16" width="4" height="4" fill="black"/>
<rect x="64" y="16" width="4" height="4" fill="black"/>
<rect x="60" y="16" width="4" height="4" fill="black"/>
<rect x="56" y="16" width="4" height="4" fill="black"/>
<rect x="48" y="20" width="4" height="4" fill="black"/>
<rect x="52" y="20" width="4" height="4" fill="black"/>
<rect x="44" y="24" width="4" height="4" fill="black"/>
<rect x="40" y="28" width="4" height="4" fill="black"/>
<rect x="36" y="32" width="4" height="4" fill="black"/>
<rect x="36" y="36" width="4" height="4" fill="black"/>
<rect x="32" y="40" width="4" height="4" fill="black"/>
<rect x="32" y="44" width="4" height="4" fill="black"/>
<rect x="28" y="48" width="4" height="4" fill="black"/>
<rect x="28" y="52" width="4" height="4" fill="black"/>
<rect x="28" y="56" width="4" height="4" fill="black"/>
<rect x="28" y="60" width="4" height="4" fill="black"/>
<rect x="28" y="64" width="4" height="4" fill="black"/>
<rect x="28" y="68" width="4" height="4" fill="black"/>
<rect x="28" y="72" width="4" height="4" fill="black"/>
<rect x="28" y="76" width="4" height="4" fill="black"/>
<rect x="28" y="80" width="4" height="4" fill="black"/>
<rect x="24" y="84" width="4" height="4" fill="black"/>
<rect x="24" y="88" width="4" height="4" fill="black"/>
<rect x="24" y="92" width="4" height="4" fill="black"/>
<rect x="24" y="96" width="4" height="4" fill="black"/>
<rect x="28" y="100" width="4" height="4" fill="black"/>
<rect x="32" y="104" width="4" height="4" fill="black"/>
<rect x="36" y="112" width="4" height="4" fill="black"/>
<rect x="36" y="108" width="4" height="4" fill="black"/>
<rect x="40" y="116" width="4" height="4" fill="black"/>
<rect x="40" y="120" width="4" height="4" fill="black"/>
<rect x="44" y="124" width="4" height="4" fill="black"/>
<rect x="56" y="132" width="4" height="4" fill="black"/>
<rect x="52" y="132" width="4" height="4" fill="black"/>
<rect x="48" y="136" width="4" height="4" fill="black"/>
<rect x="48" y="132" width="4" height="4" fill="black"/>
<rect x="48" y="128" width="4" height="4" fill="black"/>
<rect x="48" y="144" width="4" height="4" fill="black"/>
<rect x="48" y="152" width="4" height="4" fill="black"/>
<rect x="48" y="156" width="4" height="4" fill="black"/>
<rect x="48" y="148" width="4" height="4" fill="black"/>
<rect x="44" y="148" width="4" height="4" fill="black"/>
<rect x="40" y="148" width="4" height="4" fill="black"/>
<rect x="36" y="152" width="4" height="4" fill="black"/>
<rect x="32" y="152" width="4" height="4" fill="black"/>
<rect x="28" y="156" width="4" height="4" fill="black"/>
<rect x="100" y="156" width="4" height="4" fill="black"/>
<rect x="104" y="152" width="4" height="4" fill="black"/>
<rect x="108" y="148" width="4" height="4" fill="black"/>
<rect x="108" y="144" width="4" height="4" fill="black"/>
<rect x="108" y="140" width="4" height="4" fill="black"/>
<rect x="108" y="136" width="4" height="4" fill="black"/>
<rect x="48" y="140" width="4" height="4" fill="black"/>
<rect x="60" y="136" width="4" height="4" fill="black"/>
<rect x="64" y="136" width="4" height="4" fill="black"/>
<rect x="68" y="136" width="4" height="4" fill="black"/>
<rect x="72" y="136" width="4" height="4" fill="black"/>
<rect x="76" y="136" width="4" height="4" fill="black"/>
<rect x="80" y="136" width="4" height="4" fill="black"/>
<rect x="84" y="136" width="4" height="4" fill="black"/>
<rect x="88" y="136" width="4" height="4" fill="black"/>
<rect x="92" y="132" width="4" height="4" fill="black"/>
<rect x="100" y="128" width="4" height="4" fill="black"/>
<rect x="96" y="132" width="4" height="4" fill="black"/>
<rect x="104" y="124" width="4" height="4" fill="black"/>
<rect x="104" y="120" width="4" height="4" fill="black"/>
<rect x="108" y="124" width="4" height="4" fill="black"/>
<rect x="108" y="128" width="4" height="4" fill="black"/>
<rect x="108" y="132" width="4" height="4" fill="black"/>
<rect x="112" y="136" width="4" height="4" fill="black"/>
<rect x="116" y="136" width="4" height="4" fill="black"/>
<rect x="120" y="136" width="4" height="4" fill="black"/>
<rect x="124" y="136" width="4" height="4" fill="black"/>
<rect x="128" y="140" width="4" height="4" fill="black"/>
<rect x="132" y="140" width="4" height="4" fill="black"/>
<rect x="136" y="144" width="4" height="4" fill="black"/>
<rect x="140" y="148" width="4" height="4" fill="black"/>
<rect x="144" y="148" width="4" height="4" fill="black"/>
<rect x="148" y="152" width="4" height="4" fill="black"/>
<rect x="152" y="156" width="4" height="4" fill="black"/>
<rect x="108" y="116" width="4" height="4" fill="black"/>
<rect x="76" y="16" width="4" height="4" fill="black"/>
<rect x="80" y="16" width="4" height="4" fill="black"/>
<rect x="84" y="16" width="4" height="4" fill="black"/>
<rect x="88" y="16" width="4" height="4" fill="black"/>
<rect x="92" y="16" width="4" height="4" fill="black"/>
<rect x="96" y="20" width="4" height="4" fill="black"/>
<rect x="100" y="20" width="4" height="4" fill="black"/>
<rect x="104" y="24" width="4" height="4" fill="black"/>
<rect x="108" y="28" width="4" height="4" fill="black"/>
<rect x="112" y="32" width="4" height="4" fill="black"/>
<rect x="116" y="36" width="4" height="4" fill="black"/>
<rect x="116" y="40" width="4" height="4" fill="black"/>
<rect x="120" y="44" width="4" height="4" fill="black"/>
<rect x="120" y="48" width="4" height="4" fill="black"/>
<rect x="120" y="52" width="4" height="4" fill="black"/>
<rect x="120" y="56" width="4" height="4" fill="black"/>
<rect x="120" y="60" width="4" height="4" fill="black"/>
<rect x="120" y="64" width="4" height="4" fill="black"/>
<rect x="120" y="68" width="4" height="4" fill="black"/>
<rect x="120" y="72" width="4" height="4" fill="black"/>
<rect x="120" y="75" width="4" height="5" fill="black"/>
<rect x="116" y="76" width="4" height="4" fill="black"/>
<rect x="120" y="80" width="4" height="4" fill="black"/>
<rect x="124" y="84" width="4" height="4" fill="black"/>
<rect x="124" y="88" width="4" height="4" fill="black"/>
<rect x="124" y="92" width="4" height="4" fill="black"/>
<rect x="124" y="96" width="4" height="4" fill="black"/>
<rect x="120" y="100" width="4" height="4" fill="black"/>
<rect x="112" y="108" width="4" height="4" fill="black"/>
<rect x="116" y="104" width="4" height="4" fill="black"/>
<rect x="112" y="112" width="4" height="4" fill="black"/>
<rect x="108" y="120" width="4" height="4" fill="black"/>
</g>
<defs>
<clipPath id="clip0_1383_9987">
<rect width="160" height="160" fill="white"/>
</clipPath>
</defs>
</svg>
