<svg width="160" height="160" viewBox="0 0 160 160" fill="none" xmlns="http://www.w3.org/2000/svg">
<g clip-path="url(#clip0_1383_8289)">
<rect width="160" height="160" fill="#8E9192"/>
<rect x="38" y="126" width="4" height="34" fill="#C9C5D0"/>
<rect x="42" y="126" width="4" height="34" fill="#C9C5D0"/>
<rect x="46" y="126" width="4" height="34" fill="#C9C5D0"/>
<rect x="50" y="122" width="4" height="38" fill="#C9C5D0"/>
<rect x="54" y="122" width="4" height="38" fill="#C9C5D0"/>
<rect x="150" y="126" width="4" height="24" fill="#C9C5D0"/>
<rect x="146" y="126" width="4" height="24" fill="#C9C5D0"/>
<rect x="142" y="122" width="4" height="32" fill="#C9C5D0"/>
<rect x="138" y="118" width="4" height="40" fill="#C9C5D0"/>
<rect x="134" y="114" width="4" height="46" fill="#C9C5D0"/>
<rect x="130" y="110" width="4" height="50" fill="#C9C5D0"/>
<rect x="126" y="110" width="4" height="50" fill="#C9C5D0"/>
<rect x="122" y="110" width="4" height="50" fill="#C9C5D0"/>
<rect x="118" y="110" width="4" height="50" fill="#C9C5D0"/>
<rect x="114" y="156" width="4" height="4" fill="#C9C5D0"/>
<rect x="58" y="142" width="4" height="18" fill="#C9C5D0"/>
<rect x="62" y="150" width="4" height="10" fill="#C9C5D0"/>
<rect x="66" y="158" width="4" height="4" fill="#C9C5D0"/>
<rect x="36" y="54" width="4" height="28" fill="#222222"/>
<rect x="40" y="46" width="4" height="20" fill="#222222"/>
<rect x="44" y="38" width="4" height="18" fill="#222222"/>
<rect x="48" y="34" width="4" height="18" fill="#222222"/>
<rect x="52" y="30" width="4" height="18" fill="#222222"/>
<rect x="56" y="26" width="4" height="18" fill="#222222"/>
<rect x="60" y="26" width="4" height="18" fill="#222222"/>
<rect x="64" y="22" width="4" height="22" fill="#222222"/>
<rect x="68" y="22" width="4" height="22" fill="#222222"/>
<rect x="72" y="22" width="4" height="22" fill="#222222"/>
<rect x="76" y="22" width="4" height="22" fill="#222222"/>
<rect x="80" y="22" width="4" height="22" fill="#222222"/>
<rect x="84" y="22" width="4" height="22" fill="#222222"/>
<rect x="88" y="22" width="4" height="22" fill="#222222"/>
<rect x="92" y="22" width="4" height="22" fill="#222222"/>
<rect x="96" y="22" width="4" height="22" fill="#222222"/>
<rect x="100" y="26" width="4" height="22" fill="#222222"/>
<rect x="104" y="26" width="4" height="18" fill="#222222"/>
<rect x="108" y="30" width="4" height="18" fill="#222222"/>
<rect x="112" y="34" width="4" height="14" fill="#222222"/>
<rect x="116" y="38" width="4" height="10" fill="#222222"/>
<rect x="120" y="42" width="4" height="32" fill="#222222"/>
<rect x="122" y="54" width="4" height="20" fill="#222222"/>
<rect x="42" y="66" width="4" height="44" fill="#FFDDB5"/>
<rect x="38" y="102" width="4" height="8" fill="#FFDDB5"/>
<rect x="34" y="86" width="4" height="16" fill="#FFDDB5"/>
<rect x="46" y="50" width="4" height="68" fill="#FFDDB5"/>
<rect x="50" y="46" width="4" height="76" fill="#FFDDB5"/>
<rect x="54" y="42" width="4" height="84" fill="#FFDDB5"/>
<rect x="58" y="42" width="4" height="88" fill="#FFDDB5"/>
<rect x="62" y="38" width="4" height="96" fill="#FFDDB5"/>
<rect x="66" y="42" width="4" height="96" fill="#FFDDB5"/>
<rect x="70" y="44" width="4" height="94" fill="#FFDDB5"/>
<rect x="74" y="44" width="4" height="94" fill="#FFDDB5"/>
<rect x="78" y="40" width="4" height="98" fill="#FFDDB5"/>
<rect x="82" y="40" width="4" height="98" fill="#FFDDB5"/>
<rect x="86" y="40" width="4" height="98" fill="#FFDDB5"/>
<rect x="90" y="40" width="4" height="98" fill="#FFDDB5"/>
<rect x="94" y="40" width="4" height="94" fill="#FFDDB5"/>
<rect x="98" y="40" width="4" height="90" fill="#FFDDB5"/>
<rect x="102" y="40" width="4" height="86" fill="#FFDDB5"/>
<rect x="106" y="44" width="4" height="78" fill="#FFDDB5"/>
<rect x="110" y="44" width="4" height="78" fill="#FFDDB5"/>
<rect x="114" y="48" width="4" height="106" fill="#FFDDB5"/>
<rect x="118" y="138" width="4" height="16" fill="#FFDDB5"/>
<rect x="110" y="122" width="4" height="36" fill="#FFDDB5"/>
<rect x="106" y="126" width="4" height="34" fill="#FFDDB5"/>
<rect x="102" y="130" width="4" height="30" fill="#FFDDB5"/>
<rect x="98" y="134" width="4" height="26" fill="#FFDDB5"/>
<rect x="94" y="138" width="4" height="22" fill="#FFDDB5"/>
<rect x="90" y="142" width="4" height="18" fill="#FFDDB5"/>
<rect x="86" y="142" width="4" height="18" fill="#FFDDB5"/>
<rect x="82" y="142" width="4" height="18" fill="#FFDDB5"/>
<rect x="78" y="142" width="4" height="18" fill="#FFDDB5"/>
<rect x="74" y="142" width="4" height="18" fill="#FFDDB5"/>
<rect x="70" y="142" width="4" height="18" fill="#FFDDB5"/>
<rect x="66" y="138" width="4" height="18" fill="#FFDDB5"/>
<rect x="62" y="134" width="4" height="16" fill="#FFDDB5"/>
<rect x="122" y="82" width="4" height="20" fill="#FFDDB5"/>
<rect x="78" y="142" width="4" height="4" fill="#EB9918"/>
<rect x="74" y="142" width="4" height="4" fill="#EB9918"/>
<rect x="70" y="142" width="4" height="4" fill="#EB9918"/>
<rect x="66" y="138" width="4" height="4" fill="#EB9918"/>
<rect x="62" y="134" width="4" height="4" fill="#EB9918"/>
<rect x="82" y="142" width="4" height="4" fill="#EB9918"/>
<rect x="86" y="142" width="4" height="4" fill="#EB9918"/>
<rect x="90" y="142" width="4" height="4" fill="#EB9918"/>
<rect x="94" y="138" width="4" height="4" fill="#EB9918"/>
<rect x="98" y="134" width="4" height="4" fill="#EB9918"/>
<rect x="102" y="130" width="4" height="4" fill="#EB9918"/>
<rect x="56" y="38" width="4" height="4" fill="black"/>
<rect x="52" y="42" width="4" height="4" fill="black"/>
<rect x="48" y="46" width="4" height="4" fill="black"/>
<rect x="44" y="50" width="4" height="4" fill="black"/>
<rect x="44" y="54" width="4" height="4" fill="black"/>
<rect x="42" y="58" width="4" height="4" fill="black"/>
<rect x="60" y="38" width="4" height="4" fill="black"/>
<rect x="64" y="38" width="4" height="4" fill="black"/>
<rect x="68" y="42" width="4" height="4" fill="black"/>
<rect x="72" y="44" width="4" height="4" fill="black"/>
<rect x="76" y="40" width="4" height="4" fill="black"/>
<rect x="80" y="40" width="4" height="4" fill="black"/>
<rect x="84" y="36" width="4" height="4" fill="black"/>
<rect x="88" y="40" width="4" height="4" fill="black"/>
<rect x="92" y="44" width="4" height="4" fill="black"/>
<rect x="92" y="40" width="4" height="4" fill="black"/>
<rect x="96" y="36" width="4" height="4" fill="black"/>
<rect x="100" y="36" width="4" height="4" fill="black"/>
<rect x="104" y="40" width="4" height="4" fill="black"/>
<rect x="108" y="44" width="4" height="4" fill="black"/>
<rect x="112" y="44" width="4" height="4" fill="black"/>
<rect x="116" y="52" width="4" height="4" fill="black"/>
<rect x="116" y="48" width="4" height="4" fill="black"/>
<rect x="118" y="56" width="4" height="4" fill="black"/>
<rect x="118" y="64" width="4" height="4" fill="black"/>
<rect x="118" y="60" width="4" height="4" fill="black"/>
<rect x="42" y="62" width="4" height="4" fill="black"/>
<rect x="118" y="68" width="4" height="4" fill="black"/>
<rect x="118" y="71" width="4" height="4" fill="black"/>
<rect x="118" y="74" width="4" height="4" fill="black"/>
<rect x="126" y="70" width="4" height="4" fill="black"/>
<rect x="122" y="74" width="4" height="4" fill="black"/>
<rect x="126" y="66" width="4" height="4" fill="black"/>
<rect x="126" y="62" width="4" height="4" fill="black"/>
<rect x="126" y="58" width="4" height="4" fill="black"/>
<rect x="126" y="54" width="4" height="4" fill="black"/>
<rect x="118" y="78" width="4" height="4" fill="black"/>
<rect x="118" y="82" width="4" height="4" fill="black"/>
<rect x="122" y="78" width="4" height="4" fill="black"/>
<rect x="126" y="86" width="4" height="4" fill="black"/>
<rect x="126" y="82" width="4" height="4" fill="black"/>
<rect x="126" y="90" width="4" height="4" fill="black"/>
<rect x="126" y="94" width="4" height="4" fill="black"/>
<rect x="126" y="98" width="4" height="4" fill="black"/>
<rect x="122" y="102" width="4" height="4" fill="black"/>
<rect x="118" y="86" width="4" height="4" fill="black"/>
<rect x="118" y="90" width="4" height="4" fill="black"/>
<rect x="118" y="94" width="4" height="4" fill="black"/>
<rect x="118" y="98" width="4" height="4" fill="black"/>
<rect x="118" y="102" width="4" height="4" fill="black"/>
<rect x="118" y="106" width="4" height="4" fill="black"/>
<rect x="114" y="110" width="4" height="4" fill="black"/>
<rect x="114" y="114" width="4" height="4" fill="black"/>
<rect x="114" y="118" width="4" height="4" fill="black"/>
<rect x="114" y="122" width="4" height="4" fill="black"/>
<rect x="118" y="126" width="4" height="4" fill="black"/>
<rect x="118" y="130" width="4" height="4" fill="black"/>
<rect x="122" y="106" width="4" height="4" fill="black"/>
<rect x="126" y="106" width="4" height="4" fill="black"/>
<rect x="130" y="110" width="4" height="4" fill="black"/>
<rect x="134" y="114" width="4" height="4" fill="black"/>
<rect x="138" y="114" width="4" height="4" fill="black"/>
<rect x="142" y="118" width="4" height="4" fill="black"/>
<rect x="146" y="122" width="4" height="4" fill="black"/>
<rect x="150" y="126" width="4" height="4" fill="black"/>
<rect x="154" y="130" width="4" height="4" fill="black"/>
<rect x="154" y="134" width="4" height="4" fill="black"/>
<rect x="154" y="138" width="4" height="4" fill="black"/>
<path d="M154 142H158V146H154V142Z" fill="black"/>
<rect x="150" y="146" width="4" height="4" fill="black"/>
<rect x="146" y="150" width="4" height="4" fill="black"/>
<rect x="142" y="154" width="4" height="4" fill="black"/>
<rect x="138" y="158" width="4" height="4" fill="black"/>
<rect x="110" y="118" width="4" height="4" fill="black"/>
<rect x="106" y="122" width="4" height="4" fill="black"/>
<rect x="38" y="66" width="4" height="4" fill="black"/>
<rect x="38" y="70" width="4" height="4" fill="black"/>
<rect x="38" y="74" width="4" height="4" fill="black"/>
<rect x="38" y="78" width="4" height="4" fill="black"/>
<rect x="34" y="78" width="4" height="4" fill="black"/>
<rect x="32" y="74" width="4" height="4" fill="black"/>
<rect x="32" y="70" width="4" height="4" fill="black"/>
<rect x="32" y="66" width="4" height="4" fill="black"/>
<rect x="32" y="62" width="4" height="4" fill="black"/>
<rect x="32" y="58" width="4" height="4" fill="black"/>
<rect x="32" y="54" width="4" height="4" fill="black"/>
<rect x="36" y="50" width="4" height="4" fill="black"/>
<rect x="36" y="46" width="4" height="4" fill="black"/>
<rect x="40" y="42" width="4" height="4" fill="black"/>
<rect x="44" y="38" width="4" height="4" fill="black"/>
<rect x="44" y="34" width="4" height="4" fill="black"/>
<rect x="48" y="30" width="4" height="4" fill="black"/>
<rect x="52" y="26" width="4" height="4" fill="black"/>
<rect x="56" y="22" width="4" height="4" fill="black"/>
<rect x="60" y="22" width="4" height="4" fill="black"/>
<rect x="64" y="18" width="4" height="4" fill="black"/>
<rect x="68" y="18" width="4" height="4" fill="black"/>
<rect x="72" y="18" width="4" height="4" fill="black"/>
<rect x="76" y="18" width="4" height="4" fill="black"/>
<rect x="80" y="18" width="4" height="4" fill="black"/>
<rect x="84" y="18" width="4" height="4" fill="black"/>
<rect x="88" y="18" width="4" height="4" fill="black"/>
<rect x="92" y="18" width="4" height="4" fill="black"/>
<rect x="96" y="18" width="4" height="4" fill="black"/>
<rect x="100" y="22" width="4" height="4" fill="black"/>
<rect x="104" y="22" width="4" height="4" fill="black"/>
<rect x="108" y="26" width="4" height="4" fill="black"/>
<rect x="112" y="30" width="4" height="4" fill="black"/>
<rect x="116" y="34" width="4" height="4" fill="black"/>
<rect x="120" y="38" width="4" height="4" fill="black"/>
<rect x="122" y="42" width="4" height="4" fill="black"/>
<rect x="122" y="46" width="4" height="4" fill="black"/>
<rect x="122" y="50" width="4" height="4" fill="black"/>
<rect x="46" y="78" width="4" height="4" fill="black"/>
<rect x="50" y="74" width="4" height="4" fill="black"/>
<rect x="54" y="72" width="4" height="4" fill="black"/>
<rect x="58" y="72" width="4" height="4" fill="black"/>
<rect x="62" y="72" width="4" height="4" fill="black"/>
<rect x="62" y="66" width="4" height="4" fill="black"/>
<rect x="66" y="66" width="4" height="4" fill="black"/>
<rect x="58" y="66" width="4" height="4" fill="black"/>
<rect x="54" y="66" width="4" height="4" fill="black"/>
<rect x="66" y="72" width="4" height="4" fill="black"/>
<rect x="70" y="72" width="4" height="4" fill="black"/>
<rect x="74" y="72" width="4" height="4" fill="black"/>
<rect x="78" y="72" width="4" height="4" fill="black"/>
<rect x="82" y="72" width="4" height="4" fill="black"/>
<rect x="86" y="72" width="4" height="4" fill="black"/>
<rect x="90" y="72" width="4" height="4" fill="black"/>
<rect x="94" y="72" width="4" height="4" fill="black"/>
<rect x="94" y="66" width="4" height="4" fill="black"/>
<rect x="98" y="66" width="4" height="4" fill="black"/>
<rect x="102" y="66" width="4" height="4" fill="black"/>
<rect x="90" y="66" width="4" height="4" fill="black"/>
<rect x="98" y="72" width="4" height="4" fill="black"/>
<rect x="102" y="72" width="4" height="4" fill="black"/>
<rect x="106" y="72" width="4" height="4" fill="black"/>
<rect x="110" y="74" width="4" height="4" fill="black"/>
<rect x="110" y="78" width="4" height="4" fill="black"/>
<rect x="110" y="82" width="4" height="4" fill="black"/>
<rect x="110" y="86" width="4" height="4" fill="black"/>
<rect x="106" y="94" width="4" height="4" fill="black"/>
<rect x="110" y="90" width="4" height="4" fill="black"/>
<rect x="102" y="94" width="4" height="4" fill="black"/>
<rect x="98" y="94" width="4" height="4" fill="black"/>
<rect x="94" y="94" width="4" height="4" fill="black"/>
<rect x="90" y="90" width="4" height="4" fill="black"/>
<rect x="81" y="98" width="4" height="4" fill="black"/>
<rect x="78" y="108" width="4" height="4" fill="black"/>
<rect x="74" y="108" width="4" height="4" fill="black"/>
<rect x="70" y="108" width="4" height="4" fill="black"/>
<rect x="82" y="108" width="4" height="4" fill="black"/>
<rect x="86" y="108" width="4" height="4" fill="black"/>
<rect x="90" y="104" width="4" height="4" fill="black"/>
<rect x="77" y="98" width="4" height="4" fill="black"/>
<rect x="73" y="98" width="4" height="4" fill="black"/>
<rect x="86" y="86" width="4" height="4" fill="black"/>
<rect x="84" y="82" width="4" height="4" fill="black"/>
<rect x="74" y="78" width="4" height="4" fill="black"/>
<rect x="74" y="76" width="4" height="4" fill="black"/>
<rect x="72" y="82" width="4" height="4" fill="black"/>
<rect x="70" y="86" width="4" height="4" fill="black"/>
<rect x="66" y="90" width="4" height="4" fill="black"/>
<rect x="62" y="94" width="4" height="4" fill="black"/>
<rect x="58" y="94" width="4" height="4" fill="black"/>
<rect x="54" y="94" width="4" height="4" fill="black"/>
<rect x="50" y="94" width="4" height="4" fill="black"/>
<rect x="46" y="90" width="4" height="4" fill="black"/>
<rect x="46" y="86" width="4" height="4" fill="black"/>
<rect x="46" y="82" width="4" height="4" fill="black"/>
<rect x="60" y="78" width="4" height="4" fill="black"/>
<rect x="96" y="78" width="4" height="4" fill="black"/>
<rect x="78" y="78" width="4" height="4" fill="black"/>
<rect x="82" y="78" width="4" height="4" fill="black"/>
<rect x="82" y="76" width="4" height="4" fill="black"/>
<rect x="38" y="82" width="4" height="4" fill="black"/>
<rect x="38" y="86" width="4" height="4" fill="black"/>
<rect x="34" y="82" width="4" height="4" fill="black"/>
<rect x="30" y="90" width="4" height="4" fill="black"/>
<rect x="30" y="86" width="4" height="4" fill="black"/>
<rect x="30" y="94" width="4" height="4" fill="black"/>
<rect x="30" y="98" width="4" height="4" fill="black"/>
<rect x="34" y="102" width="4" height="4" fill="black"/>
<rect x="38" y="106" width="4" height="4" fill="black"/>
<rect x="38" y="110" width="4" height="4" fill="black"/>
<rect x="38" y="90" width="4" height="4" fill="black"/>
<rect x="38" y="94" width="4" height="4" fill="black"/>
<rect x="38" y="98" width="4" height="4" fill="black"/>
<rect x="42" y="102" width="4" height="4" fill="black"/>
<rect x="42" y="106" width="4" height="4" fill="black"/>
<rect x="46" y="110" width="4" height="4" fill="black"/>
<rect x="46" y="114" width="4" height="4" fill="black"/>
<rect x="50" y="118" width="4" height="4" fill="black"/>
<rect x="54" y="122" width="4" height="4" fill="black"/>
<rect x="58" y="126" width="4" height="4" fill="black"/>
<rect x="62" y="130" width="4" height="4" fill="black"/>
<rect x="66" y="134" width="4" height="4" fill="black"/>
<rect x="70" y="138" width="4" height="4" fill="black"/>
<rect x="74" y="138" width="4" height="4" fill="black"/>
<rect x="78" y="138" width="4" height="4" fill="black"/>
<rect x="82" y="138" width="4" height="4" fill="black"/>
<rect x="86" y="138" width="4" height="4" fill="black"/>
<rect x="90" y="138" width="4" height="4" fill="black"/>
<rect x="94" y="134" width="4" height="4" fill="black"/>
<rect x="98" y="130" width="4" height="4" fill="black"/>
<rect x="102" y="126" width="4" height="4" fill="black"/>
<rect x="58" y="130" width="4" height="4" fill="black"/>
<rect x="58" y="134" width="4" height="4" fill="black"/>
<rect x="58" y="138" width="4" height="4" fill="black"/>
<rect x="46" y="122" width="4" height="4" fill="black"/>
<rect x="42" y="122" width="4" height="4" fill="black"/>
<rect x="38" y="126" width="4" height="4" fill="black"/>
<rect x="34" y="130" width="4" height="4" fill="black"/>
<rect x="34" y="134" width="4" height="4" fill="black"/>
<path d="M34 138H38V142H34V138Z" fill="black"/>
<rect x="38" y="142" width="4" height="4" fill="black"/>
<rect x="38" y="146" width="4" height="4" fill="black"/>
<rect x="38" y="150" width="4" height="4" fill="black"/>
<rect x="38" y="154" width="4" height="4" fill="black"/>
<rect x="34" y="158" width="4" height="4" fill="black"/>
<rect x="62" y="142" width="4" height="4" fill="black"/>
<rect x="62" y="146" width="4" height="4" fill="black"/>
<rect x="66" y="150" width="4" height="4" fill="black"/>
<rect x="66" y="154" width="4" height="4" fill="black"/>
<rect x="70" y="158" width="4" height="4" fill="black"/>
<rect x="110" y="158" width="4" height="4" fill="black"/>
<rect x="114" y="154" width="4" height="4" fill="black"/>
<rect x="118" y="150" width="4" height="4" fill="black"/>
<rect x="122" y="146" width="4" height="4" fill="black"/>
<rect x="126" y="142" width="4" height="4" fill="black"/>
<rect x="126" y="138" width="4" height="4" fill="black"/>
<rect x="126" y="134" width="4" height="4" fill="black"/>
<rect x="130" y="130" width="4" height="4" fill="black"/>
<rect x="130" y="126" width="4" height="4" fill="black"/>
<rect x="130" y="122" width="4" height="4" fill="black"/>
<rect x="126" y="118" width="4" height="4" fill="black"/>
<rect x="122" y="114" width="4" height="4" fill="black"/>
<rect x="118" y="134" width="4" height="4" fill="black"/>
<rect x="122" y="138" width="4" height="4" fill="black"/>
<rect x="122" y="142" width="4" height="4" fill="black"/>
</g>
<defs>
<clipPath id="clip0_1383_8289">
<rect width="160" height="160" fill="white"/>
</clipPath>
</defs>
</svg>
