<svg width="160" height="160" viewBox="0 0 160 160" fill="none" xmlns="http://www.w3.org/2000/svg">
<g clip-path="url(#clip0_1383_7685)">
<rect width="160" height="160" fill="#ADAAB4"/>
<rect x="36" y="83" width="4" height="16" fill="#FFDDB5"/>
<rect x="116" y="83" width="4" height="16" fill="#FFDDB5"/>
<rect x="36" y="51" width="4" height="28" fill="#1B1B22"/>
<rect x="24" y="137" width="4" height="20" fill="#1B1B22"/>
<rect x="28" y="129" width="4" height="31" fill="#1B1B22"/>
<rect x="32" y="125" width="4" height="35" fill="#1B1B22"/>
<rect x="36" y="121" width="4" height="39" fill="#1B1B22"/>
<rect x="40" y="117" width="4" height="43" fill="#1B1B22"/>
<rect x="44" y="121" width="4" height="39" fill="#1B1B22"/>
<rect x="48" y="121" width="4" height="39" fill="#1B1B22"/>
<rect x="40" y="43" width="4" height="14" fill="#1B1B22"/>
<rect x="44" y="35" width="4" height="18" fill="#1B1B22"/>
<rect x="48" y="31" width="4" height="18" fill="#1B1B22"/>
<rect x="52" y="27" width="4" height="18" fill="#1B1B22"/>
<rect x="56" y="23" width="4" height="18" fill="#1B1B22"/>
<rect x="60" y="23" width="4" height="18" fill="#1B1B22"/>
<rect x="64" y="23" width="4" height="18" fill="#1B1B22"/>
<rect x="68" y="23" width="4" height="18" fill="#1B1B22"/>
<rect x="72" y="23" width="4" height="18" fill="#1B1B22"/>
<rect x="76" y="23" width="4" height="18" fill="#1B1B22"/>
<rect x="80" y="23" width="4" height="18" fill="#1B1B22"/>
<rect x="84" y="23" width="4" height="18" fill="#1B1B22"/>
<rect x="88" y="23" width="4" height="18" fill="#1B1B22"/>
<rect x="92" y="23" width="4" height="18" fill="#1B1B22"/>
<rect x="96" y="23" width="4" height="18" fill="#1B1B22"/>
<rect x="100" y="27" width="4" height="18" fill="#1B1B22"/>
<rect x="104" y="31" width="4" height="18" fill="#1B1B22"/>
<rect x="108" y="35" width="4" height="18" fill="#1B1B22"/>
<rect x="112" y="39" width="4" height="22" fill="#1B1B22"/>
<rect x="116" y="43" width="4" height="36" fill="#1B1B22"/>
<rect x="120" y="47" width="4" height="32" fill="#1B1B22"/>
<rect x="116" y="103" width="4" height="54" fill="#1B1B22"/>
<rect x="120" y="107" width="4" height="53" fill="#1B1B22"/>
<rect x="124" y="107" width="4" height="53" fill="#1B1B22"/>
<rect x="128" y="111" width="4" height="49" fill="#1B1B22"/>
<rect x="132" y="115" width="4" height="49" fill="#1B1B22"/>
<rect x="136" y="131" width="4" height="29" fill="#1B1B22"/>
<rect x="112" y="121" width="4" height="36" fill="#1B1B22"/>
<rect x="108" y="124" width="4" height="36" fill="#1B1B22"/>
<rect x="104" y="153" width="4" height="10" fill="#1B1B22"/>
<rect x="44" y="57" width="4" height="56" fill="#FFDDB5"/>
<rect x="48" y="53" width="4" height="68" fill="#FFDDB5"/>
<rect x="52" y="49" width="4" height="76" fill="#FFDDB5"/>
<rect x="56" y="45" width="4" height="115" fill="#FFDDB5"/>
<rect x="60" y="41" width="4" height="119" fill="#FFDDB5"/>
<rect x="64" y="37" width="4" height="123" fill="#FFDDB5"/>
<rect x="68" y="37" width="4" height="123" fill="#FFDDB5"/>
<rect x="72" y="37" width="4" height="123" fill="#FFDDB5"/>
<rect x="76" y="37" width="4" height="124" fill="#FFDDB5"/>
<rect x="80" y="37" width="4" height="123" fill="#FFDDB5"/>
<rect x="84" y="37" width="4" height="123" fill="#FFDDB5"/>
<rect x="88" y="37" width="4" height="123" fill="#FFDDB5"/>
<rect x="92" y="37" width="4" height="123" fill="#FFDDB5"/>
<rect x="96" y="41" width="4" height="119" fill="#FFDDB5"/>
<rect x="100" y="45" width="4" height="108" fill="#FFDDB5"/>
<rect x="104" y="49" width="4" height="88" fill="#FFDDB5"/>
<rect x="108" y="53" width="4" height="68" fill="#FFDDB5"/>
<g style="mix-blend-mode:multiply">
<rect x="76" y="141" width="4" height="4" fill="#FFDDB5"/>
<rect x="76" y="145" width="4" height="4" fill="#FFDDB5"/>
<rect x="72" y="145" width="4" height="4" fill="#FFDDB5"/>
<rect x="80" y="145" width="4" height="4" fill="#FFDDB5"/>
<rect x="72" y="141" width="4" height="4" fill="#FFDDB5"/>
<rect x="68" y="141" width="4" height="4" fill="#FFDDB5"/>
<rect x="64" y="141" width="4" height="4" fill="#FFDDB5"/>
<rect x="60" y="137" width="4" height="4" fill="#FFDDB5"/>
<rect x="80" y="141" width="4" height="4" fill="#FFDDB5"/>
<rect x="84" y="141" width="4" height="4" fill="#FFDDB5"/>
<rect x="88" y="141" width="4" height="4" fill="#FFDDB5"/>
<rect x="92" y="137" width="4" height="4" fill="#FFDDB5"/>
<rect x="96" y="133" width="4" height="4" fill="#FFDDB5"/>
</g>
<rect x="58" y="80" width="4" height="4" fill="black"/>
<rect x="60" y="71" width="4" height="4" fill="black"/>
<rect x="56" y="71" width="4" height="4" fill="black"/>
<rect x="52" y="71" width="4" height="4" fill="black"/>
<rect x="48" y="75" width="4" height="4" fill="black"/>
<rect x="48" y="79" width="4" height="4" fill="black"/>
<rect x="48" y="83" width="4" height="4" fill="black"/>
<rect x="48" y="87" width="4" height="4" fill="black"/>
<rect x="52" y="91" width="4" height="4" fill="black"/>
<rect x="56" y="95" width="4" height="4" fill="black"/>
<rect x="60" y="95" width="4" height="4" fill="black"/>
<rect x="64" y="95" width="4" height="4" fill="black"/>
<rect x="72" y="79" width="4" height="4" fill="black"/>
<rect x="72" y="83" width="4" height="4" fill="black"/>
<rect x="72" y="87" width="4" height="4" fill="black"/>
<rect x="68" y="91" width="4" height="4" fill="black"/>
<rect x="72" y="75" width="4" height="4" fill="black"/>
<rect x="80" y="79" width="4" height="4" fill="black"/>
<rect x="80" y="75" width="4" height="4" fill="black"/>
<rect x="76" y="75" width="4" height="4" fill="black"/>
<rect x="84" y="71" width="4" height="4" fill="black"/>
<rect x="88" y="71" width="4" height="4" fill="black"/>
<rect x="88" y="65" width="4" height="4" fill="black"/>
<rect x="92" y="65" width="4" height="4" fill="black"/>
<rect x="92" y="71" width="4" height="4" fill="black"/>
<rect x="96" y="71" width="4" height="4" fill="black"/>
<rect x="100" y="71" width="4" height="4" fill="black"/>
<rect x="104" y="75" width="4" height="4" fill="black"/>
<rect x="104" y="79" width="4" height="4" fill="black"/>
<rect x="104" y="83" width="4" height="4" fill="black"/>
<rect x="104" y="87" width="4" height="4" fill="black"/>
<rect x="100" y="91" width="4" height="4" fill="black"/>
<rect x="96" y="95" width="4" height="4" fill="black"/>
<rect x="92" y="95" width="4" height="4" fill="black"/>
<rect x="88" y="95" width="4" height="4" fill="black"/>
<rect x="76" y="112" width="4" height="4" fill="black"/>
<rect x="72" y="112" width="4" height="4" fill="black"/>
<rect x="68" y="112" width="4" height="4" fill="black"/>
<rect x="80" y="112" width="4" height="4" fill="black"/>
<rect x="81" y="101" width="4" height="4" fill="black"/>
<rect x="77" y="101" width="4" height="4" fill="black"/>
<rect x="73" y="101" width="4" height="4" fill="black"/>
<rect x="84" y="112" width="4" height="4" fill="black"/>
<rect x="88" y="108" width="4" height="4" fill="black"/>
<rect x="84" y="91" width="4" height="4" fill="black"/>
<rect x="80" y="87" width="4" height="4" fill="black"/>
<rect x="80" y="83" width="4" height="4" fill="black"/>
<rect x="64" y="71" width="4" height="4" fill="black"/>
<rect x="64" y="65" width="4" height="4" fill="black"/>
<rect x="60" y="65" width="4" height="4" fill="black"/>
<rect x="56" y="65" width="4" height="4" fill="black"/>
<rect x="68" y="71" width="4" height="4" fill="black"/>
<rect x="32" y="75" width="4" height="4" fill="black"/>
<rect x="32" y="71" width="4" height="4" fill="black"/>
<rect x="32" y="67" width="4" height="4" fill="black"/>
<rect x="32" y="63" width="4" height="4" fill="black"/>
<rect x="32" y="59" width="4" height="4" fill="black"/>
<rect x="32" y="55" width="4" height="4" fill="black"/>
<rect x="32" y="51" width="4" height="4" fill="black"/>
<rect x="36" y="47" width="4" height="4" fill="black"/>
<rect x="40" y="39" width="4" height="4" fill="black"/>
<rect x="36" y="43" width="4" height="4" fill="black"/>
<rect x="40" y="35" width="4" height="4" fill="black"/>
<rect x="44" y="31" width="4" height="4" fill="black"/>
<rect x="48" y="27" width="4" height="4" fill="black"/>
<rect x="52" y="23" width="4" height="4" fill="black"/>
<rect x="60" y="19" width="4" height="4" fill="black"/>
<rect x="56" y="23" width="4" height="4" fill="black"/>
<rect x="64" y="19" width="4" height="4" fill="black"/>
<rect x="68" y="19" width="4" height="4" fill="black"/>
<rect x="72" y="19" width="4" height="4" fill="black"/>
<rect x="76" y="19" width="4" height="4" fill="black"/>
<rect x="80" y="23" width="4" height="4" fill="black"/>
<rect x="84" y="19" width="4" height="4" fill="black"/>
<rect x="88" y="19" width="4" height="4" fill="black"/>
<rect x="92" y="19" width="4" height="4" fill="black"/>
<rect x="96" y="19" width="4" height="4" fill="black"/>
<rect x="100" y="23" width="4" height="4" fill="black"/>
<rect x="104" y="27" width="4" height="4" fill="black"/>
<rect x="108" y="31" width="4" height="4" fill="black"/>
<rect x="112" y="35" width="4" height="4" fill="black"/>
<rect x="116" y="39" width="4" height="4" fill="black"/>
<rect x="120" y="43" width="4" height="4" fill="black"/>
<rect x="120" y="47" width="4" height="4" fill="black"/>
<rect x="124" y="51" width="4" height="4" fill="black"/>
<rect x="124" y="55" width="4" height="4" fill="black"/>
<rect x="124" y="59" width="4" height="4" fill="black"/>
<rect x="124" y="63" width="4" height="4" fill="black"/>
<rect x="124" y="67" width="4" height="4" fill="black"/>
<rect x="120" y="71" width="4" height="4" fill="black"/>
<rect x="120" y="75" width="4" height="4" fill="black"/>
<rect x="120" y="83" width="4" height="4" fill="black"/>
<rect x="116" y="79" width="4" height="4" fill="black"/>
<rect x="120" y="87" width="4" height="4" fill="black"/>
<rect x="120" y="91" width="4" height="4" fill="black"/>
<rect x="120" y="95" width="4" height="4" fill="black"/>
<rect x="116" y="99" width="4" height="4" fill="black"/>
<rect x="44" y="53" width="4" height="4" fill="black"/>
<rect x="40" y="57" width="4" height="4" fill="black"/>
<rect x="40" y="61" width="4" height="4" fill="black"/>
<rect x="40" y="65" width="4" height="4" fill="black"/>
<rect x="40" y="69" width="4" height="4" fill="black"/>
<rect x="40" y="73" width="4" height="4" fill="black"/>
<rect x="40" y="77" width="4" height="4" fill="black"/>
<rect x="40" y="81" width="4" height="4" fill="black"/>
<rect x="40" y="85" width="4" height="4" fill="black"/>
<rect x="40" y="89" width="4" height="4" fill="black"/>
<rect x="40" y="93" width="4" height="4" fill="black"/>
<rect x="40" y="97" width="4" height="4" fill="black"/>
<rect x="40" y="101" width="4" height="4" fill="black"/>
<rect x="40" y="105" width="4" height="4" fill="black"/>
<rect x="40" y="109" width="4" height="4" fill="black"/>
<rect x="44" y="113" width="4" height="4" fill="black"/>
<rect x="44" y="117" width="4" height="4" fill="black"/>
<rect x="48" y="121" width="4" height="4" fill="black"/>
<rect x="52" y="125" width="4" height="4" fill="black"/>
<rect x="56" y="129" width="4" height="4" fill="black"/>
<rect x="60" y="133" width="4" height="4" fill="black"/>
<rect x="64" y="137" width="4" height="4" fill="black"/>
<rect x="68" y="137" width="4" height="4" fill="black"/>
<rect x="72" y="137" width="4" height="4" fill="black"/>
<rect x="76" y="137" width="4" height="4" fill="black"/>
<rect x="80" y="137" width="4" height="4" fill="black"/>
<rect x="84" y="137" width="4" height="4" fill="black"/>
<rect x="88" y="137" width="4" height="4" fill="black"/>
<rect x="92" y="133" width="4" height="4" fill="black"/>
<rect x="100" y="125" width="4" height="4" fill="black"/>
<rect x="96" y="129" width="4" height="4" fill="black"/>
<rect x="104" y="121" width="4" height="4" fill="black"/>
<rect x="108" y="117" width="4" height="4" fill="black"/>
<rect x="108" y="113" width="4" height="4" fill="black"/>
<rect x="48" y="49" width="4" height="4" fill="black"/>
<rect x="52" y="45" width="4" height="4" fill="black"/>
<rect x="56" y="41" width="4" height="4" fill="black"/>
<rect x="64" y="37" width="4" height="4" fill="black"/>
<rect x="60" y="41" width="4" height="4" fill="black"/>
<rect x="68" y="37" width="4" height="4" fill="black"/>
<rect x="72" y="37" width="4" height="4" fill="black"/>
<rect x="76" y="33" width="4" height="4" fill="black"/>
<rect x="80" y="33" width="4" height="4" fill="black"/>
<rect x="84" y="37" width="4" height="4" fill="black"/>
<rect x="88" y="37" width="4" height="4" fill="black"/>
<rect x="92" y="37" width="4" height="4" fill="black"/>
<rect x="96" y="41" width="4" height="4" fill="black"/>
<rect x="100" y="45" width="4" height="4" fill="black"/>
<rect x="104" y="49" width="4" height="4" fill="black"/>
<rect x="108" y="53" width="4" height="4" fill="black"/>
<rect x="108" y="57" width="4" height="4" fill="black"/>
<rect x="112" y="61" width="4" height="4" fill="black"/>
<rect x="112" y="65" width="4" height="4" fill="black"/>
<rect x="112" y="69" width="4" height="4" fill="black"/>
<rect x="32" y="87" width="4" height="4" fill="black"/>
<rect x="32" y="83" width="4" height="4" fill="black"/>
<rect x="36" y="79" width="4" height="4" fill="black"/>
<rect x="32" y="91" width="4" height="4" fill="black"/>
<rect x="32" y="95" width="4" height="4" fill="black"/>
<rect x="36" y="99" width="4" height="4" fill="black"/>
<rect x="112" y="109" width="4" height="4" fill="black"/>
<rect x="112" y="105" width="4" height="4" fill="black"/>
<rect x="112" y="101" width="4" height="4" fill="black"/>
<rect x="112" y="97" width="4" height="4" fill="black"/>
<rect x="112" y="93" width="4" height="4" fill="black"/>
<rect x="112" y="89" width="4" height="4" fill="black"/>
<rect x="112" y="85" width="4" height="4" fill="black"/>
<rect x="112" y="81" width="4" height="4" fill="black"/>
<rect x="112" y="77" width="4" height="4" fill="black"/>
<rect x="112" y="73" width="4" height="4" fill="black"/>
<rect x="91" y="80" width="4" height="4" fill="black"/>
<rect x="120" y="103" width="4" height="4" fill="black"/>
<rect x="140" y="159" width="4" height="4" fill="black"/>
<rect x="140" y="155" width="4" height="4" fill="black"/>
<rect x="140" y="151" width="4" height="4" fill="black"/>
<rect x="140" y="147" width="4" height="4" fill="black"/>
<rect x="140" y="143" width="4" height="4" fill="black"/>
<rect x="140" y="139" width="4" height="4" fill="black"/>
<rect x="140" y="135" width="4" height="4" fill="black"/>
<rect x="140" y="131" width="4" height="4" fill="black"/>
<rect x="136" y="127" width="4" height="4" fill="black"/>
<rect x="136" y="123" width="4" height="4" fill="black"/>
<rect x="136" y="119" width="4" height="4" fill="black"/>
<rect x="136" y="115" width="4" height="4" fill="black"/>
<rect x="132" y="111" width="4" height="4" fill="black"/>
<rect x="128" y="107" width="4" height="4" fill="black"/>
<rect x="124" y="103" width="4" height="4" fill="black"/>
<rect x="40" y="113" width="4" height="4" fill="black"/>
<rect x="36" y="117" width="4" height="4" fill="black"/>
<rect x="32" y="121" width="4" height="4" fill="black"/>
<rect x="28" y="125" width="4" height="4" fill="black"/>
<rect x="24" y="129" width="4" height="4" fill="black"/>
<rect x="24" y="133" width="4" height="4" fill="black"/>
<rect x="20" y="137" width="4" height="4" fill="black"/>
<rect x="20" y="141" width="4" height="4" fill="black"/>
<rect x="20" y="145" width="4" height="4" fill="black"/>
<rect x="20" y="149" width="4" height="4" fill="black"/>
<rect x="20" y="153" width="4" height="4" fill="black"/>
<rect x="24" y="157" width="4" height="4" fill="black"/>
<rect x="52" y="129" width="4" height="4" fill="black"/>
<rect x="52" y="133" width="4" height="4" fill="black"/>
<rect x="52" y="137" width="4" height="4" fill="black"/>
<rect x="52" y="141" width="4" height="4" fill="black"/>
<rect x="52" y="145" width="4" height="4" fill="black"/>
<rect x="52" y="149" width="4" height="4" fill="black"/>
<rect x="52" y="153" width="4" height="4" fill="black"/>
<rect x="52" y="157" width="4" height="4" fill="black"/>
<rect x="108" y="121" width="4" height="4" fill="black"/>
<rect x="112" y="117" width="4" height="4" fill="black"/>
<rect x="112" y="113" width="4" height="4" fill="black"/>
<rect x="104" y="141" width="4" height="4" fill="black"/>
<rect x="108" y="133" width="4" height="4" fill="black"/>
<rect x="104" y="137" width="4" height="4" fill="black"/>
<rect x="108" y="129" width="4" height="4" fill="black"/>
<rect x="108" y="125" width="4" height="4" fill="black"/>
<rect x="104" y="145" width="4" height="4" fill="black"/>
<rect x="104" y="149" width="4" height="4" fill="black"/>
<rect x="100" y="153" width="4" height="4" fill="black"/>
<rect x="100" y="153" width="4" height="4" fill="black"/>
<rect x="100" y="157" width="4" height="4" fill="black"/>
<rect x="116" y="157" width="4" height="4" fill="black"/>
<rect x="112" y="157" width="4" height="4" fill="black"/>
</g>
<defs>
<clipPath id="clip0_1383_7685">
<rect width="160" height="160" fill="white"/>
</clipPath>
</defs>
</svg>
