<svg width="48" height="48" viewBox="0 0 48 48" fill="none" xmlns="http://www.w3.org/2000/svg">
<g clip-path="url(#clip0_129_35385)">
<path fill-rule="evenodd" clip-rule="evenodd" d="M35.9908 32.1354C36.261 35.6016 36.261 37.2264 36.261 39H28.2352C28.2352 38.6138 28.2421 38.2602 28.249 37.902C28.2708 36.7878 28.2934 35.6262 28.1128 33.2802C27.8742 29.8456 26.394 29.0825 23.6725 29.0825H21.2614H11.0498V22.8335H24.0544C27.4921 22.8335 29.211 21.7886 29.211 19.0219C29.211 16.5891 27.4921 15.1148 24.0544 15.1148H11.0498V9H25.4868C33.2694 9 37.1368 12.673 37.1368 18.5404C37.1368 22.9289 34.4154 25.791 30.7389 26.268C33.8424 26.8883 35.6568 28.6532 35.9908 32.1354Z" fill="black"/>
<path d="M11.0498 39.0002V34.3418H19.5358C20.9533 34.3418 21.261 35.3924 21.261 36.0188V39.0002H11.0498Z" fill="black"/>
</g>
<defs>
<clipPath id="clip0_129_35385">
<rect width="30" height="30" fill="white" transform="translate(9 9)"/>
</clipPath>
</defs>
</svg>
