<svg width="48" height="48" viewBox="0 0 48 48" fill="none" xmlns="http://www.w3.org/2000/svg">
<path d="M20.4001 7.20005C20.4001 5.87457 21.4747 4.80005 22.8002 4.80005H39.6003C40.9258 4.80005 42.0003 5.87457 42.0003 7.20005V19.2C42.0003 20.5255 40.9258 21.6 39.6003 21.6H22.8002C21.4747 21.6 20.4001 20.5255 20.4001 19.2V7.20005Z" fill="url(#paint0_linear_134_42614)"/>
<rect x="20.4001" y="9.6001" width="21.6002" height="1.2" fill="#D361E7"/>
<path d="M32.4001 7.79995C32.4001 7.46858 32.6688 7.19995 33.0002 7.19995H39.0002C39.3316 7.19995 39.6002 7.46858 39.6002 7.79995C39.6002 8.13132 39.3316 8.39995 39.0002 8.39995H33.0002C32.6688 8.39995 32.4001 8.13132 32.4001 7.79995Z" fill="#B545CA"/>
<rect x="22.8" y="7.19995" width="1.20001" height="1.2" rx="0.6" fill="#F4E560"/>
<path d="M32.4001 13.8C32.4001 13.4686 32.6688 13.2 33.0002 13.2H39.0002C39.3316 13.2 39.6002 13.4686 39.6002 13.8C39.6002 14.1313 39.3316 14.4 39.0002 14.4H33.0002C32.6688 14.4 32.4001 14.1313 32.4001 13.8Z" fill="#B545CA"/>
<rect x="22.8" y="13.2" width="1.20001" height="1.2" rx="0.6" fill="#7958FF"/>
<rect x="25.2" y="13.2" width="1.20001" height="1.2" rx="0.6" fill="#F4E560"/>
<path d="M32.4001 19.8C32.4001 19.4686 32.6688 19.2 33.0002 19.2H39.0002C39.3316 19.2 39.6002 19.4686 39.6002 19.8C39.6002 20.1313 39.3316 20.4 39.0002 20.4H33.0002C32.6688 20.4 32.4001 20.1313 32.4001 19.8Z" fill="#B545CA"/>
<rect x="22.8" y="19.2" width="1.20001" height="1.2" rx="0.599999" fill="#F4E560"/>
<rect x="25.2" y="19.2" width="1.20001" height="1.2" rx="0.599999" fill="#F4E560"/>
<rect x="20.4001" y="15.6001" width="21.6002" height="1.2" fill="#D361E7"/>
<path d="M6 28.7999C6 27.4744 7.07452 26.3999 8.40002 26.3999H25.2001C26.5256 26.3999 27.6002 27.4744 27.6002 28.7999V40.7999C27.6002 42.1254 26.5256 43.1999 25.2001 43.1999H8.40002C7.07452 43.1999 6 42.1254 6 40.7999V28.7999Z" fill="url(#paint1_linear_134_42614)"/>
<rect x="6" y="31.2" width="21.6002" height="1.2" fill="#947DFF"/>
<path d="M18 29.3998C18 29.0684 18.2686 28.7998 18.6 28.7998H24.6C24.9314 28.7998 25.2001 29.0684 25.2001 29.3998C25.2001 29.7312 24.9314 29.9998 24.6 29.9998H18.6C18.2686 29.9998 18 29.7312 18 29.3998Z" fill="#7958FF"/>
<rect x="8.3999" y="28.7998" width="1.20001" height="1.2" rx="0.6" fill="#FFEAFE"/>
<path d="M18 35.3998C18 35.0684 18.2686 34.7998 18.6 34.7998H24.6C24.9314 34.7998 25.2001 35.0684 25.2001 35.3998C25.2001 35.7312 24.9314 35.9998 24.6 35.9998H18.6C18.2686 35.9998 18 35.7312 18 35.3998Z" fill="#7958FF"/>
<rect x="8.3999" y="34.7998" width="1.20001" height="1.2" rx="0.6" fill="#FFEAFE"/>
<rect x="10.7998" y="34.7998" width="1.20001" height="1.2" rx="0.6" fill="#FFEAFE"/>
<path d="M18 41.3998C18 41.0684 18.2686 40.7998 18.6 40.7998H24.6C24.9314 40.7998 25.2001 41.0684 25.2001 41.3998C25.2001 41.7312 24.9314 41.9998 24.6 41.9998H18.6C18.2686 41.9998 18 41.7312 18 41.3998Z" fill="#7958FF"/>
<rect x="8.3999" y="40.7998" width="1.20001" height="1.2" rx="0.6" fill="#FFEAFE"/>
<rect x="10.7998" y="40.7998" width="1.20001" height="1.2" rx="0.6" fill="#FFEAFE"/>
<rect x="6" y="37.2" width="21.6002" height="1.2" fill="#947DFF"/>
<g style="mix-blend-mode:multiply">
<path d="M24.0002 32.3999C29.3022 32.3999 33.6003 28.1018 33.6003 22.7999M14.4001 23.9999C14.4001 18.698 18.6982 14.3999 24.0002 14.3999" stroke="#C9C5D0" stroke-width="2"/>
</g>
<defs>
<linearGradient id="paint0_linear_134_42614" x1="15.0001" y1="16" x2="43.6975" y2="11.975" gradientUnits="userSpaceOnUse">
<stop stop-color="#E4A3FB"/>
<stop offset="1" stop-color="#EC78FF"/>
</linearGradient>
<linearGradient id="paint1_linear_134_42614" x1="4.2257" y1="36.0249" x2="25.6354" y2="25.8611" gradientUnits="userSpaceOnUse">
<stop stop-color="#492EF3"/>
<stop offset="1" stop-color="#CF69FF"/>
</linearGradient>
</defs>
</svg>
