<svg width="40" height="40" viewBox="0 0 40 40" fill="none" xmlns="http://www.w3.org/2000/svg">
<path d="M16.25 2.5C16.25 1.11929 17.3693 0 18.75 0H36.25C37.6307 0 38.75 1.11929 38.75 2.5V15C38.75 16.3807 37.6307 17.5 36.25 17.5H18.75C17.3693 17.5 16.25 16.3807 16.25 15V2.5Z" fill="url(#paint0_linear_11273_21909)"/>
<rect x="16.25" y="5" width="22.5" height="1.25" fill="#D361E7"/>
<path d="M28.75 3.125C28.75 2.77982 29.0298 2.5 29.375 2.5H35.625C35.9702 2.5 36.25 2.77982 36.25 3.125C36.25 3.47018 35.9702 3.75 35.625 3.75H29.375C29.0298 3.75 28.75 3.47018 28.75 3.125Z" fill="#B545CA"/>
<rect x="18.75" y="2.5" width="1.25" height="1.25" rx="0.625" fill="#F4E560"/>
<path d="M28.75 9.375C28.75 9.02982 29.0298 8.75 29.375 8.75H35.625C35.9702 8.75 36.25 9.02982 36.25 9.375C36.25 9.72018 35.9702 10 35.625 10H29.375C29.0298 10 28.75 9.72018 28.75 9.375Z" fill="#B545CA"/>
<rect x="18.75" y="8.75" width="1.25" height="1.25" rx="0.625" fill="#7958FF"/>
<rect x="21.25" y="8.75" width="1.25" height="1.25" rx="0.625" fill="#F4E560"/>
<path d="M28.75 15.625C28.75 15.2798 29.0298 15 29.375 15H35.625C35.9702 15 36.25 15.2798 36.25 15.625C36.25 15.9702 35.9702 16.25 35.625 16.25H29.375C29.0298 16.25 28.75 15.9702 28.75 15.625Z" fill="#B545CA"/>
<rect x="18.75" y="15" width="1.25" height="1.25" rx="0.625" fill="#F4E560"/>
<rect x="21.25" y="15" width="1.25" height="1.25" rx="0.625" fill="#F4E560"/>
<rect x="16.25" y="11.25" width="22.5" height="1.25" fill="#D361E7"/>
<path d="M1.25 25C1.25 23.6193 2.36929 22.5 3.75 22.5H21.25C22.6307 22.5 23.75 23.6193 23.75 25V37.5C23.75 38.8807 22.6307 40 21.25 40H3.75C2.36929 40 1.25 38.8807 1.25 37.5V25Z" fill="url(#paint1_linear_11273_21909)"/>
<rect x="1.25" y="27.5" width="22.5" height="1.25" fill="#947DFF"/>
<path d="M13.75 25.625C13.75 25.2798 14.0298 25 14.375 25H20.625C20.9702 25 21.25 25.2798 21.25 25.625C21.25 25.9702 20.9702 26.25 20.625 26.25H14.375C14.0298 26.25 13.75 25.9702 13.75 25.625Z" fill="#7958FF"/>
<rect x="3.75" y="25" width="1.25" height="1.25" rx="0.625" fill="#FFEAFE"/>
<path d="M13.75 31.875C13.75 31.5298 14.0298 31.25 14.375 31.25H20.625C20.9702 31.25 21.25 31.5298 21.25 31.875C21.25 32.2202 20.9702 32.5 20.625 32.5H14.375C14.0298 32.5 13.75 32.2202 13.75 31.875Z" fill="#7958FF"/>
<rect x="3.75" y="31.25" width="1.25" height="1.25" rx="0.625" fill="#FFEAFE"/>
<rect x="6.25" y="31.25" width="1.25" height="1.25" rx="0.625" fill="#FFEAFE"/>
<path d="M13.75 38.125C13.75 37.7798 14.0298 37.5 14.375 37.5H20.625C20.9702 37.5 21.25 37.7798 21.25 38.125C21.25 38.4702 20.9702 38.75 20.625 38.75H14.375C14.0298 38.75 13.75 38.4702 13.75 38.125Z" fill="#7958FF"/>
<rect x="3.75" y="37.5" width="1.25" height="1.25" rx="0.625" fill="#FFEAFE"/>
<rect x="6.25" y="37.5" width="1.25" height="1.25" rx="0.625" fill="#FFEAFE"/>
<rect x="1.25" y="33.75" width="22.5" height="1.25" fill="#947DFF"/>
<path opacity="0.4" fill-rule="evenodd" clip-rule="evenodd" d="M20 11.249C15.1675 11.249 11.25 15.1665 11.25 19.999H8.75C8.75 13.7858 13.7868 8.74902 20 8.74902V11.249ZM31.25 18.749C31.25 24.9622 26.2132 29.999 20 29.999V27.499C24.8325 27.499 28.75 23.5815 28.75 18.749H31.25Z" fill="#C9C5D0"/>
<defs>
<linearGradient id="paint0_linear_11273_21909" x1="10.625" y1="11.6667" x2="40.5179" y2="7.47396" gradientUnits="userSpaceOnUse">
<stop stop-color="#E4A3FB"/>
<stop offset="1" stop-color="#EC78FF"/>
</linearGradient>
<linearGradient id="paint1_linear_11273_21909" x1="-0.598214" y1="32.526" x2="21.7034" y2="21.9389" gradientUnits="userSpaceOnUse">
<stop stop-color="#492EF3"/>
<stop offset="1" stop-color="#CF69FF"/>
</linearGradient>
</defs>
</svg>
