<svg width="24" height="24" viewBox="0 0 24 24" fill="none" xmlns="http://www.w3.org/2000/svg">
<path fill-rule="evenodd" clip-rule="evenodd" d="M11.9824 0C5.37628 0 0 5.38413 0 11.9999C0 18.6157 5.37628 23.9998 11.9824 23.9998C18.6237 24.035 24 18.6509 24 11.9999C24 5.34894 18.6237 0 11.9824 0ZM11.9824 20.8679C7.13323 20.8679 3.16252 16.8914 3.16252 11.9999C3.16252 7.14364 7.13323 3.16713 11.9824 3.16713C16.8668 3.16713 20.8375 7.14364 20.8375 11.9999C20.8375 16.8914 16.8668 20.8679 11.9824 20.8679ZM14.9707 11.5072C16.3485 11.5072 17.4655 10.3886 17.4655 9.00872C17.4655 7.62883 16.3485 6.51021 14.9707 6.51021C13.5928 6.51021 12.4758 7.62883 12.4758 9.00872C12.4758 10.3886 13.5928 11.5072 14.9707 11.5072ZM17.4655 14.9911C17.4655 16.371 16.3485 17.4897 14.9707 17.4897C13.5928 17.4897 12.4758 16.371 12.4758 14.9911C12.4758 13.6112 13.5928 12.4926 14.9707 12.4926C16.3485 12.4926 17.4655 13.6112 17.4655 14.9911ZM8.99644 17.4896C10.3743 17.4896 11.4913 16.371 11.4913 14.9911C11.4913 13.6112 10.3743 12.4926 8.99644 12.4926C7.61855 12.4926 6.50156 13.6112 6.50156 14.9911C6.50156 16.371 7.61855 17.4896 8.99644 17.4896ZM11.4913 9.00877C11.4913 10.3887 10.3743 11.5073 8.99644 11.5073C7.61855 11.5073 6.50156 10.3887 6.50156 9.00877C6.50156 7.62888 7.61855 6.51025 8.99644 6.51025C10.3743 6.51025 11.4913 7.62888 11.4913 9.00877Z" fill="#E31E26"/>
</svg>
