<svg xmlns="http://www.w3.org/2000/svg" viewBox="4.62846 4.6265 37.03 22.69">
  <path d="M 12.209 9.059 c 6.038 -5.91 15.829 -5.91 21.867 0 l 0.727 0.711 a 0.745 0.745 0 0 1 0 1.07 l -2.486 2.433 a 0.393 0.393 0 0 1 -0.547 0 l -1 -0.979 c -4.212 -4.122 -11.042 -4.122 -15.255 0 l -1.071 1.048 a 0.393 0.393 0 0 1 -0.547 0 l -2.486 -2.433 a 0.745 0.745 0 0 1 0 -1.07 l 0.798 -0.78 Z m 27.009 5.031 l 2.212 2.166 a 0.745 0.745 0 0 1 0 1.07 l -9.976 9.764 a 0.785 0.785 0 0 1 -1.094 0 l -7.08 -6.93 a 0.196 0.196 0 0 0 -0.274 0 l -7.08 6.93 a 0.785 0.785 0 0 1 -1.094 0 l -9.977 -9.764 a 0.745 0.745 0 0 1 0 -1.07 l 2.213 -2.166 a 0.785 0.785 0 0 1 1.093 0 l 7.08 6.93 a 0.196 0.196 0 0 0 0.274 0 l 7.08 -6.93 a 0.785 0.785 0 0 1 1.094 0 l 7.081 6.93 a 0.196 0.196 0 0 0 0.274 0 l 7.08 -6.93 Z Z Z Z Z Z Z Z Z Z Z Z Z Z Z Z Z Z" fill="#fff"/>
</svg>