<svg width="40" height="40" viewBox="0 0 40 40" fill="none" xmlns="http://www.w3.org/2000/svg">
<g clip-path="url(#clip0_9121_88096)">
<path d="M40 31.0011C38.545 31.3711 37.645 31.0174 36.8375 29.8049L31.095 21.8599L30.265 20.7599L23.5588 29.8311C22.7925 30.9224 21.9888 31.3974 20.5588 31.0111L29.1462 19.4836L21.1512 9.07112C22.5262 8.80362 23.4762 8.93986 24.32 10.1711L30.2763 18.2149L36.2762 10.2149C37.045 9.12362 37.8712 8.70862 39.2512 9.11112L36.1512 13.2211L31.9513 18.6899C31.4513 19.3149 31.52 19.7424 31.98 20.3461L40 31.0011ZM0.01 19.2911L0.7125 15.8361C2.625 8.99862 10.4625 6.15737 15.8675 10.3824C19.0263 12.8674 19.8112 16.3824 19.655 20.3199H1.85C1.5825 27.4074 6.68375 31.6849 13.1875 29.5024C15.4688 28.7361 16.8125 26.9499 17.485 24.7149C17.8262 23.5949 18.3913 23.4199 19.4438 23.7399C18.9063 26.5349 17.6937 28.8699 15.1312 30.3311C11.3025 32.5186 5.8375 31.8111 2.9625 28.7711C1.25 27.0074 0.5425 24.7724 0.225 22.3824C0.175 21.9874 0.075 21.6111 0 21.2324C0.00666667 20.5857 0.01 19.939 0.01 19.2924V19.2911ZM1.8825 18.8161H17.9725C17.8675 13.6911 14.6762 10.0511 10.315 10.0199C5.5275 9.98237 2.09 13.5361 1.8825 18.8161Z" fill="black"/>
</g>
<defs>
<clipPath id="clip0_9121_88096">
<rect width="40" height="40" fill="white"/>
</clipPath>
</defs>
</svg>
