<svg width="36" height="36" viewBox="0 0 36 36" fill="none"
  xmlns="http://www.w3.org/2000/svg">
  <g clip-path="url(#clip0_983_7215)">
    <path d="M36 20.7003L35.1 12.6003L32.49 14.3103C30.06 12.7803 27 11.7003 23.58 11.1603C23.58 11.1603 21.87 10.8003 19.62 10.8003C17.37 10.8003 15.3 11.0703 15.3 11.0703C6.57 12.1503 0 17.1003 0 23.0403C0 29.1603 6.75 34.2003 17.1 35.1003V31.5903C9.99 30.6003 5.49 27.2703 5.49 23.0403C5.49 19.0803 9.63 15.7503 15.3 14.6703C15.3 14.6703 19.71 13.6803 23.58 14.8503C25.47 15.3003 27.18 15.9303 28.62 16.8303L25.2 18.9003L36 20.7003Z" fill="#9E9E9E"/>
    <path d="M17.0999 3.60015V35.1001L22.4999 32.4001V0.900146L17.0999 3.60015Z" fill="#FF9800"/>
  </g>
  <defs>
    <clipPath id="clip0_983_7215">
      <rect width="36" height="36" fill="white"/>
    </clipPath>
  </defs>
</svg>
