<svg width="48" height="48" viewBox="0 0 48 48" fill="none"
  xmlns="http://www.w3.org/2000/svg">
  <g clip-path="url(#clip0_10270_21072)">
    <path d="M41 26.5512L40.15 18.9012L37.685 20.5162C35.39 19.0712 32.5 18.0512 29.27 17.5412C29.27 17.5412 27.655 17.2012 25.53 17.2012C23.405 17.2012 21.45 17.4562 21.45 17.4562C13.205 18.4762 7 23.1512 7 28.7612C7 34.5412 13.375 39.3012 23.15 40.1512V36.8362C16.435 35.9012 12.185 32.7562 12.185 28.7612C12.185 25.0212 16.095 21.8762 21.45 20.8562C21.45 20.8562 25.615 19.9212 29.27 21.0262C31.055 21.4512 32.67 22.0462 34.03 22.8962L30.8 24.8512L41 26.5512Z" fill="#9E9E9E"/>
    <path d="M23.1499 10.4006V40.1506L28.2499 37.6006V7.85059L23.1499 10.4006Z" fill="#FF9800"/>
  </g>
  <defs>
    <clipPath id="clip0_10270_21072">
      <rect width="34" height="34" fill="white" transform="translate(7 7)"/>
    </clipPath>
  </defs>
</svg>
