<svg width="40" height="40" viewBox="0 0 40 40" fill="none" xmlns="http://www.w3.org/2000/svg">
<g clip-path="url(#clip0_10270_21072)">
<path d="M40 23L39 14L36.1 15.9C33.4 14.2 30 13 26.2 12.4C26.2 12.4 24.3 12 21.8 12C19.3 12 17 12.3 17 12.3C7.3 13.5 0 19 0 25.6C0 32.4 7.5 38 19 39V35.1C11.1 34 6.1 30.3 6.1 25.6C6.1 21.2 10.7 17.5 17 16.3C17 16.3 21.9 15.2 26.2 16.5C28.3 17 30.2 17.7 31.8 18.7L28 21L40 23Z" fill="#9E9E9E"/>
<path d="M18.9998 3.99902V38.999L24.9998 35.999V0.999023L18.9998 3.99902Z" fill="#FF9800"/>
</g>
<defs>
<clipPath id="clip0_10270_21072">
<rect width="40" height="40" fill="white"/>
</clipPath>
</defs>
</svg>
