<svg width="24" height="25" viewBox="0 0 24 25" fill="none" xmlns="http://www.w3.org/2000/svg">
<path d="M0 9.64966C0 8.86651 0.382104 8.13262 1.02369 7.68351L11.3118 0.48172C11.725 0.192485 12.275 0.192485 12.6882 0.48172L22.9763 7.68351C23.6179 8.13262 24 8.86651 24 9.64967V19.2002C24 21.8512 21.851 24.0003 19.2 24.0003H4.80003C2.14904 24.0003 0 21.8512 0 19.2002V9.64966Z" fill="#F7F8F8"/>
<path d="M0 9.64966C0 8.86651 0.382104 8.13262 1.02369 7.68351L11.3118 0.48172C11.725 0.192485 12.275 0.192485 12.6882 0.48172L22.9763 7.68351C23.6179 8.13262 24 8.86651 24 9.64967V19.2002C24 21.8512 21.851 24.0003 19.2 24.0003H4.80003C2.14904 24.0003 0 21.8512 0 19.2002V9.64966Z" fill="#78767F" fill-opacity="0.02"/>
<path d="M0 9.64966C0 8.86651 0.382104 8.13262 1.02369 7.68351L11.3118 0.48172C11.725 0.192485 12.275 0.192485 12.6882 0.48172L22.9763 7.68351C23.6179 8.13262 24 8.86651 24 9.64967V19.2002C24 21.8512 21.851 24.0003 19.2 24.0003H4.80003C2.14904 24.0003 0 21.8512 0 19.2002V9.64966Z" fill="#5D34F2" fill-opacity="0.16"/>
<path fill-rule="evenodd" clip-rule="evenodd" d="M7.33352 5.66668C7.0992 5.901 7.0992 6.2809 7.33352 6.51522L9.10295 8.28468L6.59959 8.28468C6.26822 8.28468 5.99959 8.55331 5.99959 8.88468V10.0847C5.99959 10.4161 6.26822 10.6847 6.59959 10.6847L9.10323 10.6847L7.333 12.455C7.09868 12.6893 7.09868 13.0692 7.333 13.3035L8.18152 14.152C8.41584 14.3864 8.79574 14.3864 9.03005 14.152L10.7996 12.3824L10.7996 14.8845C10.7996 15.2159 11.0683 15.4845 11.3996 15.4845L12.5996 15.4845C12.931 15.4845 13.1996 15.2159 13.1996 14.8845L13.1996 12.3825L14.9691 14.152C15.2034 14.3864 15.5833 14.3864 15.8176 14.152L16.6662 13.3035C16.9005 13.0692 16.9005 12.6893 16.6662 12.455L14.8959 10.6847H17.3996C17.731 10.6847 17.9996 10.4161 17.9996 10.0847V8.88468C17.9996 8.55331 17.731 8.28468 17.3996 8.28468L14.897 8.28468L16.6664 6.51522C16.9007 6.2809 16.9007 5.901 16.6664 5.66668L15.8179 4.81815C15.5835 4.58383 15.2036 4.58383 14.9693 4.81815L13.1996 6.58786V4.08451C13.1996 3.75314 12.931 3.48451 12.5996 3.48451L11.3996 3.48451C11.0683 3.48451 10.7996 3.75314 10.7996 4.08451L10.7996 6.58723L9.03057 4.81815C8.79626 4.58383 8.41636 4.58383 8.18205 4.81815L7.33352 5.66668ZM12.9931 7.08455L11.0068 7.08455L9.59959 8.49182V10.4789L11.0051 11.8845L12.994 11.8845L14.3996 10.4789V8.49108L12.9931 7.08455Z" fill="#E67EF7"/>
<path fill-rule="evenodd" clip-rule="evenodd" d="M12 14.2847C14.6509 14.2847 16.8 12.1356 16.8 9.48462C16.8 6.83363 14.6509 4.68457 12 4.68457C9.34898 4.68457 7.19995 6.83363 7.19995 9.48462C7.19995 12.1356 9.34898 14.2847 12 14.2847ZM11.9999 11.885C13.3253 11.885 14.3999 10.8105 14.3999 9.48499C14.3999 8.15949 13.3253 7.08496 11.9999 7.08496C10.6744 7.08496 9.59985 8.15949 9.59985 9.48499C9.59985 10.8105 10.6744 11.885 11.9999 11.885Z" fill="#F099FE"/>
<path d="M0 8.93156C0 8.09371 0.836852 7.51377 1.62136 7.80796L11.5786 11.5419C11.8503 11.6438 12.1497 11.6438 12.4214 11.5419L22.3786 7.80796C23.1631 7.51377 24 8.09371 24 8.93156V22.0001C24 23.1047 23.1046 24.0001 22 24.0001H2C0.89543 24.0001 0 23.1047 0 22.0001V8.93156Z" fill="#7958FF"/>
<path d="M0 22.0654H24C24 23.17 23.1046 24.0654 22 24.0654H2C0.89543 24.0654 0 23.17 0 22.0654Z" fill="#957BFF"/>
<path d="M18.1231 17.6615V16.7422H19.2772C19.5352 16.7422 19.7358 16.6772 19.8791 16.5471C20.0246 16.417 20.0974 16.2285 20.0974 15.9816V15.975C20.0974 15.7259 20.0246 15.5374 19.8791 15.4095C19.7358 15.2816 19.5352 15.2177 19.2772 15.2177H18.1231V14.2852H19.5716C19.9265 14.2852 20.2351 14.3557 20.4975 14.4968C20.7598 14.6357 20.9627 14.8319 21.106 15.0854C21.2515 15.3368 21.3242 15.6333 21.3242 15.975V15.9816C21.3242 16.3211 21.2515 16.6176 21.106 16.8712C20.9627 17.1225 20.7598 17.3176 20.4975 17.4565C20.2351 17.5932 19.9265 17.6615 19.5716 17.6615H18.1231ZM17.5146 19.057V14.2852H18.7283V19.057H17.5146Z" fill="white"/>
<path d="M14.0651 19.057V15.2607H12.6895V14.2852H16.6545V15.2607H15.2788V19.057H14.0651Z" fill="white"/>
<path d="M9.23994 19.057V15.2607H7.86426V14.2852H11.8293V15.2607H10.4536V19.057H9.23994Z" fill="white"/>
<path d="M2.67554 19.057V14.2852H3.88918V16.1569H5.79066V14.2852H7.0043V19.057H5.79066V17.1324H3.88918V19.057H2.67554Z" fill="white"/>
</svg>
