<svg width="24" height="24" viewBox="0 0 24 24" fill="none" xmlns="http://www.w3.org/2000/svg">
<g clip-path="url(#clip0_865_12433)">
<path d="M24 13.7998L23.4 8.39983L21.66 9.53983C20.04 8.51983 18 7.79983 15.72 7.43983C15.72 7.43983 14.58 7.19983 13.08 7.19983C11.58 7.19983 10.2 7.37983 10.2 7.37983C4.38 8.09983 0 11.3998 0 15.3598C0 19.4398 4.5 22.7998 11.4 23.3998V21.0598C6.66 20.3998 3.66 18.1798 3.66 15.3598C3.66 12.7198 6.42 10.4998 10.2 9.77983C10.2 9.77983 13.14 9.11983 15.72 9.89983C16.98 10.1998 18.12 10.6198 19.08 11.2198L16.8 12.5998L24 13.7998Z" fill="#9E9E9E"/>
<path d="M11.3998 2.39985V23.3999L14.9998 21.5999V0.599854L11.3998 2.39985Z" fill="#FF9800"/>
</g>
<defs>
<clipPath id="clip0_865_12433">
<rect width="24" height="24" fill="white"/>
</clipPath>
</defs>
</svg>
