<svg width="20" height="20" viewBox="0 0 20 20" fill="none" xmlns="http://www.w3.org/2000/svg">
  <path d="M7.5 2.5H12.5C13.1904 2.5 13.75 3.05964 13.75 3.75V4.375H16.875C17.2202 4.375 17.5 4.65482 17.5 5C17.5 5.34518 17.2202 5.625 16.875 5.625H16.1701L15.5198 15.3796C15.4536 16.3736 14.6276 17.1475 13.6314 17.1475H6.36862C5.37235 17.1475 4.54641 16.3736 4.48014 15.3796L3.82992 5.625H3.125C2.77982 5.625 2.5 5.34518 2.5 5C2.5 4.65482 2.77982 4.375 3.125 4.375H6.25V3.75C6.25 3.05964 6.80964 2.5 7.5 2.5ZM12.5 3.75H7.5V4.375H12.5V3.75ZM5.08236 5.625L5.72731 15.2997C5.7494 15.631 6.02471 15.8895 6.36862 15.8895H13.6314C13.9753 15.8895 14.2506 15.631 14.2727 15.2997L14.9176 5.625H5.08236ZM8.125 8.125C8.47018 8.125 8.75 8.40482 8.75 8.75V12.5C8.75 12.8452 8.47018 13.125 8.125 13.125C7.77982 13.125 7.5 12.8452 7.5 12.5V8.75C7.5 8.40482 7.77982 8.125 8.125 8.125ZM11.875 8.125C12.2202 8.125 12.5 8.40482 12.5 8.75V12.5C12.5 12.8452 12.2202 13.125 11.875 13.125C11.5298 13.125 11.25 12.8452 11.25 12.5V8.75C11.25 8.40482 11.5298 8.125 11.875 8.125Z" fill="currentColor"/>
</svg>
