<svg width="21" height="21" viewBox="0 0 21 21" fill="none" xmlns="http://www.w3.org/2000/svg">
<path d="M16.4253 3.80328H4.75867C4.09563 3.80328 3.45974 4.06668 2.9909 4.53552C2.52206 5.00436 2.25867 5.64024 2.25867 6.30328V14.6366C2.25867 15.2997 2.52206 15.9355 2.9909 16.4044C3.45974 16.8732 4.09563 17.1366 4.75867 17.1366H16.4253C17.0884 17.1366 17.7243 16.8732 18.1931 16.4044C18.6619 15.9355 18.9253 15.2997 18.9253 14.6366V6.30328C18.9253 5.64024 18.6619 5.00436 18.1931 4.53552C17.7243 4.06668 17.0884 3.80328 16.4253 3.80328ZM16.0837 5.46995L11.1837 10.37C11.1062 10.4481 11.014 10.5101 10.9125 10.5524C10.8109 10.5947 10.702 10.6164 10.592 10.6164C10.482 10.6164 10.3731 10.5947 10.2715 10.5524C10.17 10.5101 10.0778 10.4481 10.0003 10.37L5.10033 5.46995H16.0837ZM17.2587 14.6366C17.2587 14.8576 17.1709 15.0696 17.0146 15.2259C16.8583 15.3822 16.6463 15.4699 16.4253 15.4699H4.75867C4.53765 15.4699 4.32569 15.3822 4.16941 15.2259C4.01313 15.0696 3.92533 14.8576 3.92533 14.6366V6.64495L8.82533 11.545C9.29409 12.0131 9.9295 12.2761 10.592 12.2761C11.2545 12.2761 11.8899 12.0131 12.3587 11.545L17.2587 6.64495V14.6366Z" fill="currentColor"/>
</svg>
