<svg width="20" height="20" viewBox="0 0 20 20" fill="none" xmlns="http://www.w3.org/2000/svg">
<path d="M17.5001 1.66663H12.5001C12.2791 1.66663 12.0671 1.75442 11.9108 1.9107C11.7545 2.06698 11.6667 2.27895 11.6667 2.49996C11.6667 2.72097 11.7545 2.93293 11.9108 3.08922C12.0671 3.2455 12.2791 3.33329 12.5001 3.33329H16.6667V7.49996C16.6667 7.72097 16.7545 7.93293 16.9108 8.08922C17.0671 8.2455 17.2791 8.33329 17.5001 8.33329C17.7211 8.33329 17.9331 8.2455 18.0893 8.08922C18.2456 7.93293 18.3334 7.72097 18.3334 7.49996V2.49996C18.3334 2.27895 18.2456 2.06698 18.0893 1.9107C17.9331 1.75442 17.7211 1.66663 17.5001 1.66663ZM17.5001 11.6666C17.2791 11.6666 17.0671 11.7544 16.9108 11.9107C16.7545 12.067 16.6667 12.2789 16.6667 12.5V16.6666H12.5001C12.2791 16.6666 12.0671 16.7544 11.9108 16.9107C11.7545 17.067 11.6667 17.2789 11.6667 17.5C11.6667 17.721 11.7545 17.9329 11.9108 18.0892C12.0671 18.2455 12.2791 18.3333 12.5001 18.3333H17.5001C17.7211 18.3333 17.9331 18.2455 18.0893 18.0892C18.2456 17.9329 18.3334 17.721 18.3334 17.5V12.5C18.3334 12.2789 18.2456 12.067 18.0893 11.9107C17.9331 11.7544 17.7211 11.6666 17.5001 11.6666ZM10.0001 4.99996C9.33704 4.99996 8.70116 5.26335 8.23231 5.73219C7.76347 6.20103 7.50008 6.83692 7.50008 7.49996V8.33329C7.05805 8.33329 6.63413 8.50889 6.32157 8.82145C6.00901 9.13401 5.83342 9.55793 5.83342 9.99996V13.3333C5.83342 13.7753 6.00901 14.1992 6.32157 14.5118C6.63413 14.8244 7.05805 15 7.50008 15H12.5001C12.9421 15 13.366 14.8244 13.6786 14.5118C13.9912 14.1992 14.1667 13.7753 14.1667 13.3333V9.99996C14.1667 9.55793 13.9912 9.13401 13.6786 8.82145C13.366 8.50889 12.9421 8.33329 12.5001 8.33329V7.49996C12.5001 6.83692 12.2367 6.20103 11.7678 5.73219C11.299 5.26335 10.6631 4.99996 10.0001 4.99996ZM9.16675 7.49996C9.16675 7.27895 9.25455 7.06698 9.41083 6.9107C9.56711 6.75442 9.77907 6.66663 10.0001 6.66663C10.2211 6.66663 10.4331 6.75442 10.5893 6.9107C10.7456 7.06698 10.8334 7.27895 10.8334 7.49996V8.33329H9.16675V7.49996ZM12.5001 13.3333H7.50008V9.99996H12.5001V13.3333ZM2.50008 8.33329C2.7211 8.33329 2.93306 8.2455 3.08934 8.08922C3.24562 7.93293 3.33341 7.72097 3.33341 7.49996V3.33329H7.50008C7.7211 3.33329 7.93306 3.2455 8.08934 3.08922C8.24562 2.93293 8.33342 2.72097 8.33342 2.49996C8.33342 2.27895 8.24562 2.06698 8.08934 1.9107C7.93306 1.75442 7.7211 1.66663 7.50008 1.66663H2.50008C2.27907 1.66663 2.06711 1.75442 1.91083 1.9107C1.75455 2.06698 1.66675 2.27895 1.66675 2.49996V7.49996C1.66675 7.72097 1.75455 7.93293 1.91083 8.08922C2.06711 8.2455 2.27907 8.33329 2.50008 8.33329ZM7.50008 16.6666H3.33341V12.5C3.33341 12.2789 3.24562 12.067 3.08934 11.9107C2.93306 11.7544 2.7211 11.6666 2.50008 11.6666C2.27907 11.6666 2.06711 11.7544 1.91083 11.9107C1.75455 12.067 1.66675 12.2789 1.66675 12.5V17.5C1.66675 17.721 1.75455 17.9329 1.91083 18.0892C2.06711 18.2455 2.27907 18.3333 2.50008 18.3333H7.50008C7.7211 18.3333 7.93306 18.2455 8.08934 18.0892C8.24562 17.9329 8.33342 17.721 8.33342 17.5C8.33342 17.2789 8.24562 17.067 8.08934 16.9107C7.93306 16.7544 7.7211 16.6666 7.50008 16.6666Z" fill="currentColor"/>
</svg>
