<svg width="20" height="20" viewBox="0 0 20 20" fill="none" xmlns="http://www.w3.org/2000/svg">
<path d="M17.5003 3.66675L18.0837 3.08341C18.417 2.75008 18.417 2.25008 18.0837 1.91675C17.7503 1.58341 17.2503 1.58341 16.917 1.91675L8.16699 10.6667C7.50033 10.2501 6.66699 10.0001 5.83366 10.0001C3.50033 10.0001 1.66699 11.8334 1.66699 14.1667C1.66699 16.5001 3.50033 18.3334 5.83366 18.3334C8.16699 18.3334 10.0003 16.5001 10.0003 14.1667C10.0003 13.3334 9.75033 12.5001 9.33366 11.8334L14.0003 7.16675L15.7503 8.91675C16.0837 9.25008 16.5837 9.25008 16.917 8.91675C17.2503 8.58341 17.2503 8.08341 16.917 7.75008L15.167 6.00008L16.3337 4.83341L16.917 5.41675C17.2503 5.75008 17.7503 5.75008 18.0837 5.41675C18.417 5.08341 18.417 4.58341 18.0837 4.25008L17.5003 3.66675ZM5.83366 16.6667C4.41699 16.6667 3.33366 15.5834 3.33366 14.1667C3.33366 12.7501 4.41699 11.6667 5.83366 11.6667C7.25033 11.6667 8.33366 12.7501 8.33366 14.1667C8.33366 15.5834 7.25033 16.6667 5.83366 16.6667Z" fill="currentColor"/>
</svg>
