<svg width="198" height="242" viewBox="0 0 198 242" fill="none" xmlns="http://www.w3.org/2000/svg">
<path fill-rule="evenodd" clip-rule="evenodd" d="M101.542 201.807C145.724 201.807 181.542 165.989 181.542 121.807C181.542 77.6239 145.724 41.8066 101.542 41.8066C57.3587 41.8066 21.5415 77.6239 21.5415 121.807C21.5415 165.989 57.3587 201.807 101.542 201.807ZM101.542 161.807C123.633 161.807 141.542 143.898 141.542 121.807C141.542 99.7152 123.633 81.8066 101.542 81.8066C79.4501 81.8066 61.5415 99.7152 61.5415 121.807C61.5415 143.898 79.4501 161.807 101.542 161.807Z" fill="#CABEFF" fill-opacity="0.16"/>
<path fill-rule="evenodd" clip-rule="evenodd" d="M101.612 43.8066C101.286 43.8066 100.961 43.8086 100.636 43.8126L100.612 41.8128C100.945 41.8087 101.278 41.8066 101.612 41.8066C129.035 41.8066 153.237 55.5824 167.666 76.5817L166.017 77.7143C151.946 57.2351 128.349 43.8066 101.612 43.8066ZM37.2068 77.7143C31.8584 85.4984 27.8873 94.2999 25.6438 103.768L23.6977 103.307C25.9993 93.5935 30.0731 84.565 35.5584 76.5817L37.2068 77.7143ZM24.8252 135.945C31.4818 172.273 63.3294 199.807 101.612 199.807C125.195 199.807 146.334 189.36 160.65 172.842L162.161 174.152C147.482 191.09 125.799 201.807 101.612 201.807C62.3478 201.807 29.6857 173.567 22.8579 136.306L24.8252 135.945Z" fill="#47464E"/>
<path d="M44.8618 76.0273L48.5909 71.7736C50.6504 69.4243 50.4154 65.8503 48.0662 63.7908C45.7169 61.7313 45.482 58.1573 47.5415 55.8081C49.601 53.4588 49.3661 49.8848 47.0168 47.8253C44.6675 45.7658 44.4326 42.1918 46.4921 39.8425L50.2212 35.5888" stroke="#FAABFF" stroke-width="4" stroke-linecap="round" stroke-linejoin="round"/>
<rect x="82.5415" y="57.9629" width="16" height="16" rx="4" transform="rotate(-30.6488 82.5415 57.9629)" fill="#FAABFF"/>
<rect x="190.615" y="66.3828" width="8" height="8" rx="2" transform="rotate(35.5802 190.615 66.3828)" fill="#928F9A"/>
<rect x="115.541" y="121.807" width="24" height="24" rx="4" fill="#FAABFF"/>
<path fill-rule="evenodd" clip-rule="evenodd" d="M78.2038 80.1404C78.2038 79.9561 78.3533 79.8066 78.5376 79.8066H84.5456C84.7299 79.8066 84.8794 79.9561 84.8794 80.1404V90.7149L94.0364 85.4281C94.1961 85.3359 94.4002 85.3906 94.4924 85.5503L97.4964 90.7533C97.5885 90.913 97.5338 91.1171 97.3742 91.2093L88.2166 96.4964L97.3735 101.783C97.5331 101.875 97.5878 102.079 97.4957 102.239L94.4917 107.442C94.3995 107.602 94.1954 107.656 94.0357 107.564L84.8794 102.278V112.851C84.8794 113.035 84.7299 113.184 84.5456 113.184H78.5376C78.3533 113.184 78.2038 113.035 78.2038 112.851V102.277L69.0464 107.564C68.8868 107.656 68.6826 107.602 68.5905 107.442L65.5865 102.239C65.4943 102.079 65.549 101.875 65.7087 101.783L74.8655 96.4964L65.708 91.2093C65.5483 91.1171 65.4936 90.913 65.5858 90.7533L68.5898 85.5503C68.6819 85.3906 68.8861 85.3359 69.0457 85.4281L78.2038 90.7155V80.1404Z" fill="#AF9EFF"/>
<path fill-rule="evenodd" clip-rule="evenodd" d="M125.741 118.206C136.344 118.206 144.94 109.61 144.94 99.0063C144.94 88.4026 136.344 79.8066 125.741 79.8066C115.137 79.8066 106.541 88.4026 106.541 99.0063C106.541 109.61 115.137 118.206 125.741 118.206ZM125.741 108.606C131.043 108.606 135.341 104.308 135.341 99.0063C135.341 93.7045 131.043 89.4065 125.741 89.4065C120.439 89.4065 116.141 93.7045 116.141 99.0063C116.141 104.308 120.439 108.606 125.741 108.606Z" fill="#FFB95A"/>
<path fill-rule="evenodd" clip-rule="evenodd" d="M13.541 57.8066C17.9593 57.8066 21.541 54.2249 21.541 49.8066C21.541 45.3884 17.9593 41.8066 13.541 41.8066C9.12274 41.8066 5.54102 45.3884 5.54102 49.8066C5.54102 54.2249 9.12274 57.8066 13.541 57.8066ZM13.541 53.8066C15.7502 53.8066 17.541 52.0158 17.541 49.8066C17.541 47.5975 15.7502 45.8066 13.541 45.8066C11.3319 45.8066 9.54102 47.5975 9.54102 49.8066C9.54102 52.0158 11.3319 53.8066 13.541 53.8066Z" fill="#928F9A"/>
<path fill-rule="evenodd" clip-rule="evenodd" d="M191.541 34.8066C193.75 34.8066 195.541 33.0158 195.541 30.8066C195.541 28.5975 193.75 26.8066 191.541 26.8066C189.332 26.8066 187.541 28.5975 187.541 30.8066C187.541 33.0158 189.332 34.8066 191.541 34.8066ZM191.541 32.8066C192.646 32.8066 193.541 31.9112 193.541 30.8066C193.541 29.7021 192.646 28.8066 191.541 28.8066C190.436 28.8066 189.541 29.7021 189.541 30.8066C189.541 31.9112 190.436 32.8066 191.541 32.8066Z" fill="#AEA090"/>
<path d="M42.775 212.185C42.4495 215.597 46.2849 217.811 49.0768 215.823L142.552 149.272C144.924 147.583 144.754 144.005 142.232 142.549L59.6546 94.8731C57.1324 93.4169 53.9492 95.0581 53.6726 97.9573L42.775 212.185Z" fill="url(#paint0_linear_5321_35721)"/>
<mask id="mask0_5321_35721" style="mask-type:alpha" maskUnits="userSpaceOnUse" x="42" y="94" width="103" height="123">
<path d="M42.7755 212.185C42.45 215.597 46.2854 217.811 49.0773 215.823L142.552 149.272C144.925 147.583 144.755 144.005 142.233 142.549L59.655 94.8731C57.1329 93.4169 53.9497 95.0581 53.6731 97.9573L42.7755 212.185Z" fill="#AF9EFF"/>
</mask>
<g mask="url(#mask0_5321_35721)">
<path d="M30.7969 118.835C30.7969 118.128 31.37 117.555 32.0769 117.555H157.517C158.224 117.555 158.797 118.128 158.797 118.835V132.275C158.797 132.982 158.224 133.555 157.517 133.555H32.0769C31.3699 133.555 30.7969 132.982 30.7969 132.275V118.835Z" fill="#E0A1E9"/>
<path d="M10.7969 153.476C10.7969 152.769 11.37 152.196 12.0769 152.196H137.517C138.224 152.196 138.797 152.769 138.797 153.476V166.916C138.797 167.623 138.224 168.196 137.517 168.196H12.0769C11.3699 168.196 10.7969 167.623 10.7969 166.916V153.476Z" fill="#E0A1E9"/>
<path d="M-9.20264 188.117C-9.20264 187.41 -8.62956 186.837 -7.92264 186.837H117.517C118.224 186.837 118.797 187.41 118.797 188.117V201.557C118.797 202.264 118.224 202.837 117.517 202.837H-7.92264C-8.62956 202.837 -9.20264 202.264 -9.20264 201.557V188.117Z" fill="#E0A1E9"/>
</g>
<path fill-rule="evenodd" clip-rule="evenodd" d="M137.073 55.7451C136.357 54.9042 136.458 53.6419 137.299 52.9258L141.606 49.2583C143.144 47.9489 143.329 45.6409 142.019 44.1032C139.278 40.8836 139.665 36.0511 142.885 33.3095L147.192 29.642C148.033 28.9259 149.295 29.0271 150.011 29.8681C150.727 30.709 150.626 31.9713 149.785 32.6874L145.478 36.3549C143.941 37.6643 143.756 39.9723 145.065 41.5099C147.807 44.7296 147.419 49.5621 144.199 52.3037L139.892 55.9712C139.052 56.6873 137.789 56.5861 137.073 55.7451Z" fill="#928F9A"/>
<path d="M142.542 76.2285L148.152 76.9544C151.25 77.3554 154.087 75.1687 154.488 72.0703C154.889 68.9719 157.725 66.7852 160.824 67.1861C163.922 67.5871 166.759 65.4004 167.16 62.302C167.561 59.2036 170.397 57.0169 173.496 57.4178L179.106 58.1438" stroke="#B0A7D9" stroke-width="4" stroke-linecap="round" stroke-linejoin="round"/>
<path fill-rule="evenodd" clip-rule="evenodd" d="M96.2093 29.3748C97.2813 29.1083 97.9342 28.0233 97.6678 26.9513L96.3031 21.4616C95.8159 19.5016 97.0098 17.5177 98.9697 17.0305C103.074 16.0104 105.573 11.8565 104.553 7.75264L103.189 2.26287C102.922 1.19092 101.837 0.537955 100.765 0.804425C99.6932 1.0709 99.0403 2.1559 99.3067 3.22784L100.671 8.71762C101.159 10.6776 99.9647 12.6614 98.0048 13.1487C93.9009 14.1688 91.4011 18.3227 92.4212 22.4265L93.7859 27.9163C94.0524 28.9883 95.1374 29.6412 96.2093 29.3748Z" fill="#78767F"/>
<path fill-rule="evenodd" clip-rule="evenodd" d="M162.164 149.316C162.948 150.094 164.214 150.09 164.992 149.306L168.977 145.291C170.4 143.857 172.715 143.849 174.149 145.271C177.15 148.25 181.998 148.232 184.977 145.23L188.962 141.215C189.74 140.431 189.735 139.165 188.951 138.387C188.167 137.609 186.901 137.614 186.123 138.398L182.138 142.413C180.715 143.846 178.4 143.855 176.966 142.432C173.965 139.453 169.117 139.471 166.138 142.473L162.153 146.488C161.375 147.272 161.38 148.538 162.164 149.316Z" fill="#928F9A"/>
<defs>
<linearGradient id="paint0_linear_5321_35721" x1="41.0421" y1="217.307" x2="146.592" y2="148.96" gradientUnits="userSpaceOnUse">
<stop stop-color="#5E49DC"/>
<stop offset="1" stop-color="#D279FC"/>
</linearGradient>
</defs>
</svg>
