<svg width="48" height="48" viewBox="0 0 48 48" fill="none" xmlns="http://www.w3.org/2000/svg">
<path d="M12.9828 14.7643L8.03882 19.7145L15.6633 27.3618L8 35.0481L12.9285 40.0005L20.6073 32.3121L28.2444 39.9456L33.1884 34.9953L12.9828 14.7643Z" fill="#53B9FF"/>
<path d="M25.5647 27.362L20.6074 32.3122L28.2445 39.9458L33.1885 34.9955L25.5647 27.362Z" fill="#119EFF"/>
<path d="M25.5647 27.362L20.6074 32.3122L22.5157 34.2099L25.5647 27.362Z" fill="black" fill-opacity="0.2"/>
<path d="M32.3213 20.6231L40.0001 12.9347L35.0539 8L27.3774 15.6729L19.7397 8.03887L14.7957 12.9891L35.0013 33.2201L39.9453 28.2699L32.3213 20.6231Z" fill="#53B9FF"/>
<path d="M22.4201 20.6233L27.3774 15.673L19.7397 8.03897L14.7957 12.9892L22.4201 20.6233Z" fill="#119EFF"/>
<path d="M22.4199 20.6232L27.3773 15.673L25.4685 13.7748L22.4199 20.6232Z" fill="black" fill-opacity="0.2"/>
</svg>
