<svg width="24" height="24" viewBox="0 0 24 24" fill="none" xmlns="http://www.w3.org/2000/svg">
<path d="M18.797 2H5.20356C3.43362 2 2 3.44594 2 5.2314V18.9389C2 20.7228 3.43362 22.1698 5.20356 22.1698H18.797C20.5669 22.1698 21.9995 20.7228 21.9995 18.9389V5.2314C21.9995 3.44594 20.5669 2 18.797 2Z" fill="#1677FF"/>
<path d="M7.40468 17.5112C4.29324 17.5112 3.37319 15.0391 4.91124 13.6875C5.42428 13.2301 6.362 13.0073 6.86165 12.957C8.70977 12.7728 10.4208 13.484 12.4398 14.4779C11.0206 16.3448 9.21318 17.5112 7.40468 17.5112ZM18.4672 14.6653C17.6666 14.3949 16.5928 13.9815 15.397 13.545C16.1146 12.2854 16.6887 10.8513 17.0657 9.29287H13.1236V7.86086H17.9531V7.06077H13.1236V4.67444H11.1529C10.8069 4.67444 10.8069 5.01825 10.8069 5.01825V7.06131H5.92286V7.86086H10.8069V9.29287H6.77436V10.0919H14.5953C14.3194 11.0548 13.9418 11.9856 13.4691 12.8686C10.9306 12.0241 8.22298 11.3397 6.52159 11.7606C5.43392 12.0311 4.73291 12.5136 4.32162 13.0191C2.43173 15.338 3.78716 18.8591 7.77741 18.8591C10.1364 18.8591 12.4098 17.5326 14.1711 15.346C16.7985 16.6206 22.0006 18.8071 22.0006 18.8071V15.6903C22.0006 15.6903 21.3473 15.6379 18.4672 14.6653Z" fill="white"/>
</svg>
