<svg width="24" height="24" viewBox="0 0 24 24" fill="none" xmlns="http://www.w3.org/2000/svg">
<g clip-path="url(#clip0_865_12254)">
<path d="M11.9999 0.296021C9.15054 0.296139 6.39414 1.31016 4.22396 3.15665C2.05378 5.00314 0.61143 7.5616 0.154992 10.3742C-0.301447 13.1869 0.257812 16.0702 1.7327 18.5082C3.20759 20.9462 5.50186 22.7799 8.205 23.6811C8.80499 23.7861 9.02999 23.4261 9.02999 23.1111C9.02999 22.8261 9.01498 21.8811 9.01498 20.8761C5.99999 21.4311 5.22 20.1411 4.98 19.4661C4.71369 18.8096 4.29153 18.2279 3.75001 17.7711C3.33001 17.5461 2.73001 16.9911 3.73499 16.9761C4.11874 17.0178 4.48679 17.1513 4.80796 17.3654C5.12913 17.5795 5.39395 17.8679 5.57999 18.2061C5.74412 18.5009 5.96481 18.7605 6.22942 18.9699C6.49403 19.1793 6.79736 19.3344 7.12202 19.4264C7.44669 19.5183 7.78631 19.5453 8.12143 19.5058C8.45655 19.4663 8.78058 19.3611 9.07494 19.1961C9.12689 18.586 9.39877 18.0156 9.83996 17.5911C7.16998 17.2911 4.38 16.2561 4.38 11.6661C4.36314 10.4735 4.80322 9.31959 5.60999 8.44109C5.24313 7.40455 5.28606 6.26702 5.72999 5.26108C5.72999 5.26108 6.73495 4.94606 9.02997 6.49108C10.9935 5.95105 13.0664 5.95105 15.0299 6.49108C17.3249 4.93108 18.3299 5.26108 18.3299 5.26108C18.7739 6.26701 18.8168 7.40456 18.4499 8.44109C19.2591 9.31808 19.6996 10.473 19.6799 11.6661C19.6799 16.2711 16.8749 17.2911 14.2049 17.5911C14.4913 17.8814 14.7119 18.2299 14.8516 18.6129C14.9914 18.996 15.0471 19.4046 15.0149 19.8111C15.0149 21.4162 14.9999 22.7061 14.9999 23.1112C14.9999 23.4262 15.2249 23.8012 15.8249 23.6812C18.5233 22.7726 20.811 20.9346 22.2796 18.4954C23.7482 16.0561 24.3021 13.1743 23.8425 10.3643C23.3829 7.55442 21.9397 4.99929 19.7705 3.15505C17.6012 1.31081 14.8472 0.297502 11.9999 0.296021Z" fill="black"/>
</g>
<defs>
<clipPath id="clip0_865_12254">
<rect width="24" height="24" fill="white"/>
</clipPath>
</defs>
</svg>
