<svg width="24" height="24" viewBox="0 0 24 24" fill="none" xmlns="http://www.w3.org/2000/svg">
<g clip-path="url(#clip0_865_12456)">
<path d="M11.9999 0.300049C9.15054 0.300167 6.39414 1.31419 4.22396 3.16068C2.05378 5.00717 0.61143 7.56562 0.154992 10.3783C-0.301447 13.1909 0.257812 16.0742 1.7327 18.5122C3.20759 20.9503 5.50186 22.7839 8.205 23.6851C8.80499 23.7902 9.02999 23.4302 9.02999 23.1151C9.02999 22.8301 9.01498 21.8851 9.01498 20.8801C5.99999 21.4351 5.22 20.1452 4.98 19.4702C4.71369 18.8137 4.29153 18.2319 3.75001 17.7751C3.33001 17.5501 2.73001 16.9951 3.73499 16.9801C4.11874 17.0218 4.48679 17.1553 4.80796 17.3694C5.12913 17.5835 5.39395 17.8719 5.57999 18.2101C5.74412 18.505 5.96481 18.7645 6.22942 18.9739C6.49403 19.1833 6.79736 19.3384 7.12202 19.4304C7.44669 19.5224 7.78631 19.5494 8.12143 19.5099C8.45655 19.4703 8.78058 19.3651 9.07494 19.2001C9.12689 18.5901 9.39877 18.0197 9.83996 17.5952C7.16998 17.2952 4.38 16.2601 4.38 11.6701C4.36314 10.4775 4.80322 9.32362 5.60999 8.44512C5.24313 7.40858 5.28606 6.27105 5.72999 5.26511C5.72999 5.26511 6.73495 4.95009 9.02997 6.49511C10.9935 5.95508 13.0664 5.95508 15.0299 6.49511C17.3249 4.9351 18.3299 5.26511 18.3299 5.26511C18.7739 6.27104 18.8168 7.40859 18.4499 8.44512C19.2591 9.32211 19.6996 10.477 19.6799 11.6701C19.6799 16.2751 16.8749 17.2952 14.2049 17.5952C14.4913 17.8854 14.7119 18.2339 14.8516 18.617C14.9914 19 15.0471 19.4087 15.0149 19.8152C15.0149 21.4202 14.9999 22.7102 14.9999 23.1152C14.9999 23.4302 15.2249 23.8052 15.8249 23.6852C18.5233 22.7766 20.811 20.9387 22.2796 18.4994C23.7482 16.0601 24.3021 13.1783 23.8425 10.3684C23.3829 7.55845 21.9397 5.00331 19.7705 3.15907C17.6012 1.31483 14.8472 0.301531 11.9999 0.300049Z" fill="white"/>
</g>
<defs>
<clipPath id="clip0_865_12456">
<rect width="24" height="24" fill="white"/>
</clipPath>
</defs>
</svg>
