<?xml version="1.0" encoding="UTF-8" standalone="no"?>
<!DOCTYPE svg PUBLIC "-//W3C//DTD SVG 1.1//EN" "http://www.w3.org/Graphics/SVG/1.1/DTD/svg11.dtd">
<svg width="100%" height="100%" viewBox="0 0 96 39" version="1.1" xmlns="http://www.w3.org/2000/svg" xmlns:xlink="http://www.w3.org/1999/xlink" xml:space="preserve" xmlns:serif="http://www.serif.com/" style="fill-rule:evenodd;clip-rule:evenodd;stroke-linejoin:round;stroke-miterlimit:2;">
    <path d="M54.6,38.2C54.2,38.2 53.8,38.1 53.5,37.8C52.8,37.3 52.6,36.3 53.1,35.5C53.2,35.3 64.4,16.7 58.6,7.5C57.4,5.6 56.1,4.5 54.6,4.5C51.8,4.4 48.7,7.5 47.7,8.8C47.1,9.6 46,9.7 45.2,9.1C44.4,8.5 44.3,7.4 44.9,6.6C45.1,6.4 49.5,0.7 54.7,1C57.4,1.1 59.7,2.7 61.5,5.7C65.8,12.6 62.8,23 59.8,29.9C62.9,27.7 66.8,25.6 70.4,25C71.4,24.9 72.3,25.5 72.4,26.5C72.5,27.5 71.9,28.4 70.9,28.5C64,29.6 55.8,37.6 55.7,37.7C55.5,38.1 55,38.2 54.6,38.2Z" style="fill:rgb(171,211,255);fill-rule:nonzero;"/>
    <g>
        <path d="M11.5,23.5C11.5,24.4 11.3,25.3 10.8,26C10.3,26.7 9.6,27.3 8.7,27.7C7.8,28.1 6.7,28.3 5.4,28.3C4.4,28.3 3.5,28.2 2.8,28.1C2.1,28 1.4,27.7 0.6,27.4L0.6,23.8C1.4,24.2 2.2,24.5 3.1,24.7C3.9,24.9 4.7,25 5.4,25C6,25 6.5,24.9 6.8,24.7C7.1,24.5 7.2,24.2 7.2,23.9C7.2,23.7 7.1,23.5 7,23.4C7,23.2 6.8,23 6.5,22.9C6.2,22.7 5.5,22.4 4.4,21.9C3.4,21.5 2.6,21 2.1,20.6C1.6,20.2 1.2,19.7 1,19.2C0.8,18.7 0.6,18 0.6,17.3C0.6,15.9 1.1,14.8 2.2,14.1C3.2,13.3 4.7,12.9 6.5,12.9C8.1,12.9 9.8,13.3 11.4,14L10.2,17C8.7,16.4 7.5,16 6.4,16C5.9,16 5.5,16.1 5.2,16.3C5,16.5 4.8,16.8 4.8,17C4.8,17.3 5,17.6 5.3,17.8C5.6,18 6.5,18.5 7.9,19.1C9.2,19.7 10.2,20.3 10.7,21C11.2,21.7 11.5,22.5 11.5,23.5ZM20.3,28.1L17.1,17.2L17,17.2C17.1,19.1 17.2,20.5 17.2,21.5L17.2,28L13.5,28L13.5,13L19.1,13L22.4,23.7L22.5,23.7L25.6,13L31.2,13L31.2,28.1L27.3,28.1L27.3,20.4C27.3,20.4 27.4,19 27.4,17.3L27.3,17.3L24.2,28.1L20.3,28.1ZM40.6,28.1L36.4,28.1L36.4,16.3L32.6,16.3L32.6,13L44.4,13L44.4,16.3L40.6,16.3L40.6,28.1ZM57.5,17.8C57.5,19.5 57,20.8 56,21.7C55,22.6 53.5,23.1 51.6,23.1L50.4,23.1L50.4,28.1L46.2,28.1L46.2,13L51.6,13C53.6,13 55.1,13.4 56,14.2C57,15.1 57.5,16.3 57.5,17.8ZM50.4,19.8L51.2,19.8C51.8,19.8 52.3,19.6 52.7,19.3C53.1,19 53.3,18.5 53.3,17.9C53.3,16.9 52.7,16.4 51.5,16.4L50.4,16.4L50.4,19.8ZM72,19.3L78.7,19.3L78.7,27.4C76.9,28 74.9,28.3 72.7,28.3C70.3,28.3 68.4,27.6 67.1,26.3C65.8,25 65.1,23 65.1,20.5C65.1,18.1 65.8,16.2 67.3,14.8C68.7,13.4 70.8,12.8 73.3,12.8C74.3,12.8 75.2,12.9 76.1,13.1C77,13.3 77.7,13.5 78.4,13.8L77,16.9C75.9,16.4 74.6,16.1 73.3,16.1C72.1,16.1 71.1,16.5 70.4,17.3C69.7,18.1 69.4,19.2 69.4,20.6C69.4,22 69.7,23.1 70.3,23.8C70.9,24.5 71.8,24.9 72.9,24.9C73.5,24.9 74.1,24.8 74.6,24.7L74.6,22.3L72,22.3L72,19.3ZM95.6,20.5C95.6,23 95,25 93.7,26.3C92.4,27.6 90.5,28.3 88,28.3C85.6,28.3 83.7,27.6 82.4,26.3C81.1,25 80.4,23 80.4,20.5C80.4,18 81.1,16.1 82.3,14.7C83.5,13.3 85.5,12.7 88,12.7C90.5,12.7 92.4,13.4 93.6,14.7C94.8,16 95.6,18 95.6,20.5ZM84.9,20.5C84.9,23.4 86,24.9 88.1,24.9C89.2,24.9 90,24.5 90.5,23.8C91,23.1 91.3,22 91.3,20.5C91.3,19 91,17.9 90.5,17.2C90,16.5 89.2,16.1 88.2,16.1C85.9,16.1 84.9,17.6 84.9,20.5Z" style="fill:rgb(0,0,3);fill-rule:nonzero;"/>
    </g>
</svg>
