<svg width="48" height="48" viewBox="0 0 48 48" fill="none" xmlns="http://www.w3.org/2000/svg">
<g clip-path="url(#clip0_99_2179)">
<path d="M24 33.9956C29.5228 33.9956 34 29.5185 34 23.9956C34 18.4728 29.5228 13.9956 24 13.9956C18.4772 13.9956 14 18.4728 14 23.9956C14 29.5185 18.4772 33.9956 24 33.9956Z" fill="white"/>
<path d="M24 14H41.3177C39.5628 10.9595 37.0384 8.43462 33.9982 6.67921C30.958 4.9238 27.5093 3.99976 23.9987 4C20.4881 4.00024 17.0395 4.92477 13.9995 6.6806C10.9596 8.43644 8.43551 10.9617 6.68109 14.0025L15.3399 29L15.3477 28.998C14.4668 27.4791 14.002 25.7548 14 23.9989C13.9981 22.2431 14.459 20.5177 15.3364 18.9968C16.2138 17.4759 17.4767 16.2131 18.9977 15.3359C20.5187 14.4586 22.2441 13.9979 24 14Z" fill="url(#paint0_linear_99_2179)"/>
<path d="M24 31.9166C28.3723 31.9166 31.9167 28.3722 31.9167 23.9999C31.9167 19.6277 28.3723 16.0833 24 16.0833C19.6278 16.0833 16.0833 19.6277 16.0833 23.9999C16.0833 28.3722 19.6278 31.9166 24 31.9166Z" fill="#1A73E8"/>
<path d="M32.6594 29.0025L24.0006 44.0001C27.5112 44.0006 30.96 43.0768 34.0003 41.3216C37.0406 39.5664 39.5652 37.0417 41.3202 34.0013C43.0753 30.961 43.999 27.5121 43.9983 24.0015C43.9977 20.491 43.0728 17.0424 41.3167 14.0027H23.9991L23.997 14.0104C25.7529 14.007 27.4786 14.4666 29.0002 15.3428C30.5218 16.219 31.7856 17.4809 32.664 19.0013C33.5425 20.5216 34.0046 22.2466 34.0038 24.0025C34.003 25.7584 33.5393 27.483 32.6594 29.0025Z" fill="url(#paint1_linear_99_2179)"/>
<path d="M15.3405 29.0025L6.68167 14.0049C4.92594 17.0449 4.00153 20.4936 4.0014 24.0041C4.00127 27.5147 4.92542 30.9635 6.68092 34.0036C8.43643 37.0437 10.9614 39.5681 14.002 41.3228C17.0425 43.0776 20.4915 44.0009 24.0021 43.9999L32.6609 29.0023L32.6553 28.9966C31.7803 30.5189 30.5194 31.7836 28.9998 32.6633C27.4802 33.5429 25.7555 34.0064 23.9996 34.007C22.2437 34.0076 20.5187 33.5453 18.9985 32.6667C17.4783 31.788 16.2166 30.5242 15.3405 29.0025Z" fill="url(#paint2_linear_99_2179)"/>
</g>
<defs>
<linearGradient id="paint0_linear_99_2179" x1="6.68109" y1="16.5" x2="41.3177" y2="16.5" gradientUnits="userSpaceOnUse">
<stop stop-color="#D93025"/>
<stop offset="1" stop-color="#EA4335"/>
</linearGradient>
<linearGradient id="paint1_linear_99_2179" x1="21.2683" y1="43.7327" x2="38.5866" y2="13.7365" gradientUnits="userSpaceOnUse">
<stop stop-color="#FCC934"/>
<stop offset="1" stop-color="#FBBC04"/>
</linearGradient>
<linearGradient id="paint2_linear_99_2179" x1="26.1651" y1="42.7511" x2="8.84675" y2="12.7549" gradientUnits="userSpaceOnUse">
<stop stop-color="#1E8E3E"/>
<stop offset="1" stop-color="#34A853"/>
</linearGradient>
<clipPath id="clip0_99_2179">
<rect width="40" height="40" fill="white" transform="translate(4 4)"/>
</clipPath>
</defs>
</svg>
