<svg width="40" height="40" viewBox="0 0 40 40" fill="none" xmlns="http://www.w3.org/2000/svg">
<path d="M20 29.9941C25.5228 29.9941 30 25.517 30 19.9941C30 14.4713 25.5228 9.99414 20 9.99414C14.4772 9.99414 10 14.4713 10 19.9941C10 25.517 14.4772 29.9941 20 29.9941Z" fill="white"/>
<path d="M20.0001 10H37.3177C35.5629 6.95952 33.0385 4.43462 29.9983 2.67921C26.9581 0.923795 23.5093 -0.000244892 19.9987 4.86832e-08C16.4882 0.000244989 13.0395 0.924766 9.99958 2.6806C6.95964 4.43644 4.43557 6.96169 2.68115 10.0025L11.34 25L11.3477 24.998C10.4669 23.4791 10.0021 21.7548 10.0001 19.9989C9.99812 18.2431 10.4591 16.5177 11.3365 14.9968C12.2139 13.4759 13.4768 12.2131 14.9978 11.3359C16.5188 10.4586 18.2442 9.99787 20.0001 10Z" fill="url(#paint0_linear_10767_21341)"/>
<path d="M19.9999 27.9173C24.3722 27.9173 27.9166 24.3729 27.9166 20.0007C27.9166 15.6284 24.3722 12.084 19.9999 12.084C15.6277 12.084 12.0833 15.6284 12.0833 20.0007C12.0833 24.3729 15.6277 27.9173 19.9999 27.9173Z" fill="#1A73E8"/>
<path d="M28.6595 25.0018L20.0007 39.9994C23.5112 39.9999 26.96 39.0761 30.0003 37.3209C33.0406 35.5657 35.5652 33.041 37.3203 30.0006C39.0754 26.9602 39.999 23.5114 39.9984 20.0008C39.9978 16.4902 39.0729 13.0417 37.3167 10.002H19.9992L19.9971 10.0097C21.7529 10.0063 23.4787 10.4659 25.0003 11.3421C26.5219 12.2183 27.7856 13.4802 28.6641 15.0005C29.5425 16.5209 30.0046 18.2459 30.0038 20.0018C30.003 21.7576 29.5393 23.4823 28.6595 25.0018Z" fill="url(#paint1_linear_10767_21341)"/>
<path d="M11.3406 25.0025L2.68173 10.0049C0.926001 13.0449 0.00159569 16.4936 0.00146486 20.0041C0.00133403 23.5147 0.925482 26.9635 2.68099 30.0036C4.43649 33.0437 6.96147 35.5681 10.002 37.3228C13.0426 39.0776 16.4916 40.0009 20.0021 39.9999L28.661 25.0023L28.6554 24.9966C27.7804 26.5189 26.5195 27.7836 24.9999 28.6633C23.4802 29.5429 21.7555 30.0064 19.9997 30.007C18.2438 30.0076 16.5188 29.5453 14.9986 28.6667C13.4784 27.788 12.2166 26.5242 11.3406 25.0025Z" fill="url(#paint2_linear_10767_21341)"/>
<defs>
<linearGradient id="paint0_linear_10767_21341" x1="2.68115" y1="12.5" x2="37.3177" y2="12.5" gradientUnits="userSpaceOnUse">
<stop stop-color="#D93025"/>
<stop offset="1" stop-color="#EA4335"/>
</linearGradient>
<linearGradient id="paint1_linear_10767_21341" x1="17.2683" y1="39.732" x2="34.5867" y2="9.73579" gradientUnits="userSpaceOnUse">
<stop stop-color="#FCC934"/>
<stop offset="1" stop-color="#FBBC04"/>
</linearGradient>
<linearGradient id="paint2_linear_10767_21341" x1="22.1651" y1="38.7511" x2="4.84681" y2="8.75488" gradientUnits="userSpaceOnUse">
<stop stop-color="#1E8E3E"/>
<stop offset="1" stop-color="#34A853"/>
</linearGradient>
</defs>
</svg>
