<svg width="24" height="24" viewBox="0 0 24 24" xmlns="http://www.w3.org/2000/svg">
  <symbol width="24" height="24" viewBox="0 0 24 24" id="down">
    <path d="M14.2941 9.29409L12.0041 11.5941L9.71409 9.29409C9.62085 9.20085 9.51016 9.12689 9.38834 9.07643C9.26652 9.02597 9.13595 9 9.00409 9C8.87223 9 8.74166 9.02597 8.61984 9.07643C8.49802 9.12689 8.38733 9.20085 8.29409 9.29409C8.20085 9.38733 8.12689 9.49802 8.07643 9.61984C8.02597 9.74166 8 9.87223 8 10.0041C8 10.136 8.02597 10.2665 8.07643 10.3883C8.12689 10.5102 8.20085 10.6209 8.29409 10.7141L11.2941 13.7141C11.3871 13.8078 11.4977 13.8822 11.6195 13.933C11.7414 13.9838 11.8721 14.0099 12.0041 14.0099C12.1361 14.0099 12.2668 13.9838 12.3887 13.933C12.5105 13.8822 12.6211 13.8078 12.7141 13.7141L15.7141 10.7141C15.9024 10.5258 16.0082 10.2704 16.0082 10.0041C16.0082 9.73779 15.9024 9.48239 15.7141 9.29409C15.5258 9.10579 15.2704 9 15.0041 9C14.7378 9 14.4824 9.10579 14.2941 9.29409Z" />
  </symbol>
</svg>
