<svg width="24" height="24" viewBox="0 0 24 24" xmlns="http://www.w3.org/2000/svg">
  <path d="M8.49054 12.7642L14.1505 18.4142C14.2435 18.5079 14.3541 18.5823 14.476 18.6331C14.5978 18.6838 14.7285 18.71 14.8605 18.71C14.9925 18.71 15.1233 18.6838 15.2451 18.6331C15.367 18.5823 15.4776 18.5079 15.5705 18.4142C15.7568 18.2268 15.8613 17.9733 15.8613 17.7092C15.8613 17.445 15.7568 17.1915 15.5705 17.0042L10.6205 12.0042L15.5705 7.05416C15.7568 6.8668 15.8613 6.61335 15.8613 6.34916C15.8613 6.08498 15.7568 5.83153 15.5705 5.64416C15.4779 5.54967 15.3675 5.4745 15.2456 5.42301C15.1237 5.37151 14.9928 5.34471 14.8605 5.34416C14.7282 5.34471 14.5973 5.37151 14.4755 5.42301C14.3536 5.4745 14.2432 5.54967 14.1505 5.64416L8.49054 11.2942C8.38903 11.3878 8.30802 11.5015 8.25261 11.628C8.19721 11.7545 8.1686 11.8911 8.1686 12.0292C8.1686 12.1673 8.19721 12.3039 8.25261 12.4304C8.30802 12.5569 8.38903 12.6705 8.49054 12.7642Z" fill="currentcolor"/>
</svg>
