<svg width="24" height="24" viewBox="0 0 24 24" xmlns="http://www.w3.org/2000/svg">
  <symbol width="24" height="24" viewBox="0 0 24 24" id="down">
    <path d="M14.2941 9.29409L12.0041 11.5941L9.71409 9.29409C9.62085 9.20085 9.51016 9.12689 9.38834 9.07643C9.26652 9.02597 9.13595 9 9.00409 9C8.87223 9 8.74166 9.02597 8.61984 9.07643C8.49802 9.12689 8.38733 9.20085 8.29409 9.29409C8.20085 9.38733 8.12689 9.49802 8.07643 9.61984C8.02597 9.74166 8 9.87223 8 10.0041C8 10.136 8.02597 10.2665 8.07643 10.3883C8.12689 10.5102 8.20085 10.6209 8.29409 10.7141L11.2941 13.7141C11.3871 13.8078 11.4977 13.8822 11.6195 13.933C11.7414 13.9838 11.8721 14.0099 12.0041 14.0099C12.1361 14.0099 12.2668 13.9838 12.3887 13.933C12.5105 13.8822 12.6211 13.8078 12.7141 13.7141L15.7141 10.7141C15.9024 10.5258 16.0082 10.2704 16.0082 10.0041C16.0082 9.73779 15.9024 9.48239 15.7141 9.29409C15.5258 9.10579 15.2704 9 15.0041 9C14.7378 9 14.4824 9.10579 14.2941 9.29409Z" />
  </symbol>
  <symbol width="24" height="24" viewBox="0 0 24 24" id="prev">
    <path d="M8.49054 12.7642L14.1505 18.4142C14.2435 18.5079 14.3541 18.5823 14.476 18.6331C14.5978 18.6838 14.7285 18.71 14.8605 18.71C14.9925 18.71 15.1233 18.6838 15.2451 18.6331C15.367 18.5823 15.4776 18.5079 15.5705 18.4142C15.7568 18.2268 15.8613 17.9733 15.8613 17.7092C15.8613 17.445 15.7568 17.1915 15.5705 17.0042L10.6205 12.0042L15.5705 7.05416C15.7568 6.8668 15.8613 6.61335 15.8613 6.34916C15.8613 6.08498 15.7568 5.83153 15.5705 5.64416C15.4779 5.54967 15.3675 5.4745 15.2456 5.42301C15.1237 5.37151 14.9928 5.34471 14.8605 5.34416C14.7282 5.34471 14.5973 5.37151 14.4755 5.42301C14.3536 5.4745 14.2432 5.54967 14.1505 5.64416L8.49054 11.2942C8.38903 11.3878 8.30802 11.5015 8.25261 11.628C8.19721 11.7545 8.1686 11.8911 8.1686 12.0292C8.1686 12.1673 8.19721 12.3039 8.25261 12.4304C8.30802 12.5569 8.38903 12.6705 8.49054 12.7642Z" />
  </symbol>
  <symbol width="24" height="24" viewBox="0 0 24 24" id="next">
    <path d="M15.5397 11.29L9.87974 5.64004C9.78677 5.54631 9.67617 5.47191 9.55431 5.42115C9.43246 5.37038 9.30175 5.34424 9.16974 5.34424C9.03773 5.34424 8.90702 5.37038 8.78516 5.42115C8.6633 5.47191 8.5527 5.54631 8.45974 5.64004C8.27349 5.8274 8.16895 6.08085 8.16895 6.34504C8.16895 6.60922 8.27349 6.86267 8.45974 7.05004L13.4097 12.05L8.45974 17C8.27349 17.1874 8.16895 17.4409 8.16895 17.705C8.16895 17.9692 8.27349 18.2227 8.45974 18.41C8.55235 18.5045 8.6628 18.5797 8.78467 18.6312C8.90655 18.6827 9.03743 18.7095 9.16974 18.71C9.30204 18.7095 9.43293 18.6827 9.5548 18.6312C9.67668 18.5797 9.78712 18.5045 9.87974 18.41L15.5397 12.76C15.6412 12.6664 15.7223 12.5527 15.7777 12.4262C15.8331 12.2997 15.8617 12.1631 15.8617 12.025C15.8617 11.8869 15.8331 11.7503 15.7777 11.6238C15.7223 11.4973 15.6412 11.3837 15.5397 11.29Z" />
  </symbol>
</svg>
