<svg width="18" height="18" id="clear" viewBox="0 0 18 18" fill="none" xmlns="http://www.w3.org/2000/svg">
  <path fill-rule="evenodd" clip-rule="evenodd" d="M9 18C13.9706 18 18 13.9706 18 9C18 4.02944 13.9706 0 9 0C4.02944 0 0 4.02944 0 9C0 13.9706 4.02944 18 9 18ZM5.46447 6.87868C5.07394 6.48816 5.07394 5.85499 5.46447 5.46447C5.85499 5.07394 6.48816 5.07394 6.87868 5.46447L9 7.58579L11.1213 5.46447C11.5118 5.07394 12.145 5.07394 12.5355 5.46447C12.9261 5.85499 12.9261 6.48815 12.5355 6.87868L10.4142 9L12.5355 11.1213C12.9261 11.5118 12.9261 12.145 12.5355 12.5355C12.145 12.9261 11.5118 12.9261 11.1213 12.5355L9 10.4142L6.87868 12.5355C6.48816 12.9261 5.85499 12.9261 5.46447 12.5355C5.07394 12.145 5.07394 11.5118 5.46447 11.1213L7.58579 9L5.46447 6.87868Z" fill="#747778"/>
</svg>
