<svg width="194" height="196" viewBox="0 0 194 196" fill="none" xmlns="http://www.w3.org/2000/svg">
<rect x="34" y="46" width="140" height="108" rx="12" fill="#928F9A"/>
<mask id="mask0_1266_17280" style="mask-type:alpha" maskUnits="userSpaceOnUse" x="34" y="46" width="140" height="108">
<rect x="34" y="46" width="140" height="108" rx="12.1905" fill="#928F9A"/>
</mask>
<g mask="url(#mask0_1266_17280)">
</g>
<path d="M34 58C34 51.3726 39.3726 46 46 46H162C168.627 46 174 51.3726 174 58V62H34V58Z" fill="#78767F"/>
<path fill-rule="evenodd" clip-rule="evenodd" d="M77.6858 96.686C76.1238 98.2481 76.1238 100.781 77.6858 102.343L83.3434 108L77.6872 113.657C76.1251 115.219 76.1251 117.751 77.6872 119.313C79.2493 120.876 81.782 120.876 83.3441 119.313L89.0002 113.657L94.6564 119.313C96.2185 120.875 98.7512 120.875 100.313 119.313C101.875 117.751 101.875 115.219 100.313 113.657L94.6571 108L100.315 102.343C101.877 100.781 101.877 98.2481 100.315 96.686C98.7525 95.1239 96.2199 95.1239 94.6578 96.686L89.0002 102.344L83.3427 96.686C81.7806 95.1239 79.2479 95.1239 77.6858 96.686Z" fill="#CABEFF"/>
<path fill-rule="evenodd" clip-rule="evenodd" d="M125.686 96.686C124.124 98.2481 124.124 100.781 125.686 102.343L131.343 108L125.687 113.657C124.125 115.219 124.125 117.751 125.687 119.313C127.249 120.876 129.782 120.876 131.344 119.313L137 113.657L142.656 119.313C144.219 120.875 146.751 120.875 148.313 119.313C149.875 117.751 149.875 115.219 148.313 113.657L142.657 108L148.315 102.343C149.877 100.781 149.877 98.2481 148.315 96.686C146.753 95.1239 144.22 95.1239 142.658 96.686L137 102.344L131.343 96.686C129.781 95.1239 127.248 95.1239 125.686 96.686Z" fill="#CABEFF"/>
<circle cx="48" cy="54" r="2" fill="#5F5D67"/>
<circle cx="58" cy="54" r="2" fill="#ADAAB4"/>
<circle cx="68" cy="54" r="2" fill="#ADAAB4"/>
<rect x="50" y="74" width="64" height="4" rx="2" fill="#ADAAB4"/>
<rect x="50" y="81" width="14" height="4" rx="2" fill="#ADAAB4"/>
<rect x="148" y="81" width="10" height="4" rx="2" fill="#ADAAB4"/>
<rect x="68" y="81" width="74" height="4" rx="2" fill="#ADAAB4"/>
<rect x="122" y="74" width="10" height="4" rx="2" fill="#ADAAB4"/>
<rect x="135" y="74" width="23" height="4" rx="2" fill="#ADAAB4"/>
<mask id="mask1_1266_17280" style="mask-type:alpha" maskUnits="userSpaceOnUse" x="1" y="65" width="92" height="99">
<path d="M92 70.5V66H1.5V163.5H39C52.2548 163.5 63 152.755 63 139.5V99.5C63 91.4919 69.4919 85 77.5 85C85.5081 85 92 78.5081 92 70.5Z" fill="white" stroke="#F7F8F8" stroke-opacity="0.16" stroke-linecap="round" stroke-linejoin="round"/>
</mask>
<g mask="url(#mask1_1266_17280)">
<path d="M-28 62L-24 64C-21.4819 65.2591 -18.5181 65.259 -16 64V64C-13.482 62.7409 -10.518 62.7409 -7.99999 64V64C-5.48195 65.259 -2.51804 65.259 8.58307e-06 64V64C2.51805 62.7409 5.48197 62.7409 8.00001 64V64C10.518 65.259 13.482 65.2591 16 64V64C18.5181 62.741 21.4951 62.7476 24.0131 64.0066V64.0066C26.5181 65.2591 29.4764 65.281 31.9943 64.0547L32.3036 63.9041C34.7646 62.7055 37.6464 62.7363 40.0813 63.987V63.987C42.5446 65.2524 45.4634 65.2683 47.9404 64.0298L48.0271 63.9865C50.5281 62.736 53.4854 62.7427 55.9864 63.9932V63.9932C58.5045 65.2522 61.4849 65.2576 64.0029 63.9986V63.9986C66.5181 62.741 69.5108 62.751 72.0289 64.0027V64.0027C74.5398 65.2509 77.522 65.2603 80.0284 64.0034V64.0034C82.5424 62.7427 85.5043 62.7416 88.019 64.0008V64.0008C90.5321 65.2591 93.4913 65.2591 96.0044 64.0008L100 62" stroke="#F7F8F8" stroke-opacity="0.16" stroke-width="0.8"/>
<path d="M-28 66L-24 68C-21.4819 69.2591 -18.5181 69.259 -16 68V68C-13.482 66.7409 -10.518 66.7409 -7.99999 68V68C-5.48195 69.259 -2.51804 69.259 8.58307e-06 68V68C2.51805 66.7409 5.48197 66.7409 8.00001 68V68C10.518 69.259 13.482 69.2591 16 68V68C18.5181 66.741 21.4951 66.7476 24.0131 68.0066V68.0066C26.5181 69.2591 29.4764 69.281 31.9943 68.0547L32.3036 67.9041C34.7646 66.7055 37.6464 66.7363 40.0813 67.987V67.987C42.5446 69.2524 45.4634 69.2683 47.9404 68.0298L48.0271 67.9865C50.5281 66.736 53.4854 66.7427 55.9864 67.9932V67.9932C58.5045 69.2522 61.4849 69.2576 64.0029 67.9986V67.9986C66.5181 66.741 69.5108 66.751 72.0289 68.0027V68.0027C74.5398 69.2509 77.522 69.2603 80.0284 68.0034V68.0034C82.5424 66.7427 85.5043 66.7416 88.019 68.0008V68.0008C90.5321 69.2591 93.4913 69.2591 96.0044 68.0008L100 66" stroke="#F7F8F8" stroke-opacity="0.16" stroke-width="0.8"/>
<path d="M-28 70L-24 72C-21.4819 73.2591 -18.5181 73.259 -16 72V72C-13.482 70.7409 -10.518 70.7409 -7.99999 72V72C-5.48195 73.259 -2.51804 73.259 8.58307e-06 72V72C2.51805 70.7409 5.48197 70.7409 8.00001 72V72C10.518 73.259 13.482 73.2591 16 72V72C18.5181 70.741 21.4951 70.7476 24.0131 72.0066V72.0066C26.5181 73.2591 29.4764 73.281 31.9943 72.0547L32.3036 71.9041C34.7646 70.7055 37.6464 70.7363 40.0813 71.987V71.987C42.5446 73.2524 45.4634 73.2683 47.9404 72.0298L48.0271 71.9865C50.5281 70.736 53.4854 70.7427 55.9864 71.9932V71.9932C58.5045 73.2522 61.4849 73.2576 64.0029 71.9986V71.9986C66.5181 70.741 69.5108 70.751 72.0289 72.0027V72.0027C74.5398 73.2509 77.522 73.2603 80.0284 72.0034V72.0034C82.5424 70.7427 85.5043 70.7416 88.019 72.0008V72.0008C90.5321 73.2591 93.4913 73.2591 96.0044 72.0008L100 70" stroke="#F7F8F8" stroke-opacity="0.16" stroke-width="0.8"/>
<path d="M-28 74L-24 76C-21.4819 77.2591 -18.5181 77.259 -16 76V76C-13.482 74.7409 -10.518 74.7409 -7.99999 76V76C-5.48195 77.259 -2.51804 77.259 8.58307e-06 76V76C2.51805 74.7409 5.48197 74.7409 8.00001 76V76C10.518 77.259 13.482 77.2591 16 76V76C18.5181 74.741 21.4951 74.7476 24.0131 76.0066V76.0066C26.5181 77.2591 29.4764 77.281 31.9943 76.0547L32.3036 75.9041C34.7646 74.7055 37.6464 74.7363 40.0813 75.987V75.987C42.5446 77.2524 45.4634 77.2683 47.9404 76.0298L48.0271 75.9865C50.5281 74.736 53.4854 74.7427 55.9864 75.9932V75.9932C58.5045 77.2522 61.4849 77.2576 64.0029 75.9986V75.9986C66.5181 74.741 69.5108 74.751 72.0289 76.0027V76.0027C74.5398 77.2509 77.522 77.2603 80.0284 76.0034V76.0034C82.5424 74.7427 85.5043 74.7416 88.019 76.0008V76.0008C90.5321 77.2591 93.4913 77.2591 96.0044 76.0008L100 74" stroke="#F7F8F8" stroke-opacity="0.16" stroke-width="0.8"/>
<path d="M-28 78L-24 80C-21.4819 81.2591 -18.5181 81.259 -16 80V80C-13.482 78.7409 -10.518 78.7409 -7.99999 80V80C-5.48195 81.259 -2.51804 81.259 8.58307e-06 80V80C2.51805 78.7409 5.48197 78.7409 8.00001 80V80C10.518 81.259 13.482 81.2591 16 80V80C18.5181 78.741 21.4951 78.7476 24.0131 80.0066V80.0066C26.5181 81.2591 29.4764 81.281 31.9943 80.0547L32.3036 79.9041C34.7646 78.7055 37.6464 78.7363 40.0813 79.987V79.987C42.5446 81.2524 45.4634 81.2683 47.9404 80.0298L48.0271 79.9865C50.5281 78.736 53.4854 78.7427 55.9864 79.9932V79.9932C58.5045 81.2522 61.4849 81.2576 64.0029 79.9986V79.9986C66.5181 78.741 69.5108 78.751 72.0289 80.0027V80.0027C74.5398 81.2509 77.522 81.2603 80.0284 80.0034V80.0034C82.5424 78.7427 85.5043 78.7416 88.019 80.0008V80.0008C90.5321 81.2591 93.4913 81.2591 96.0044 80.0008L100 78" stroke="#F7F8F8" stroke-opacity="0.16" stroke-width="0.8"/>
<path d="M-28 82L-24 84C-21.4819 85.2591 -18.5181 85.259 -16 84V84C-13.482 82.7409 -10.518 82.7409 -7.99999 84V84C-5.48195 85.259 -2.51804 85.259 8.58307e-06 84V84C2.51805 82.7409 5.48197 82.7409 8.00001 84V84C10.518 85.259 13.482 85.2591 16 84V84C18.5181 82.741 21.4951 82.7476 24.0131 84.0066V84.0066C26.5181 85.2591 29.4764 85.281 31.9943 84.0547L32.3036 83.9041C34.7646 82.7055 37.6464 82.7363 40.0813 83.987V83.987C42.5446 85.2524 45.4634 85.2683 47.9404 84.0298L48.0271 83.9865C50.5281 82.736 53.4854 82.7427 55.9864 83.9932V83.9932C58.5045 85.2522 61.4849 85.2576 64.0029 83.9986V83.9986C66.5181 82.741 69.5108 82.751 72.0289 84.0027V84.0027C74.5398 85.2509 77.522 85.2603 80.0284 84.0034V84.0034C82.5424 82.7427 85.5043 82.7416 88.019 84.0008V84.0008C90.5321 85.2591 93.4913 85.2591 96.0044 84.0008L100 82" stroke="#F7F8F8" stroke-opacity="0.16" stroke-width="0.8"/>
<path d="M-28 86L-24 88C-21.4819 89.2591 -18.5181 89.259 -16 88V88C-13.482 86.7409 -10.518 86.7409 -7.99999 88V88C-5.48195 89.259 -2.51804 89.259 8.58307e-06 88V88C2.51805 86.7409 5.48197 86.7409 8.00001 88V88C10.518 89.259 13.482 89.2591 16 88V88C18.5181 86.741 21.4951 86.7476 24.0131 88.0066V88.0066C26.5181 89.2591 29.4764 89.281 31.9943 88.0547L32.3036 87.9041C34.7646 86.7055 37.6464 86.7363 40.0813 87.987V87.987C42.5446 89.2524 45.4634 89.2683 47.9404 88.0298L48.0271 87.9865C50.5281 86.736 53.4854 86.7427 55.9864 87.9932V87.9932C58.5045 89.2522 61.4849 89.2576 64.0029 87.9986V87.9986C66.5181 86.741 69.5108 86.751 72.0289 88.0027V88.0027C74.5398 89.2509 77.522 89.2603 80.0284 88.0034V88.0034C82.5424 86.7427 85.5043 86.7416 88.019 88.0008V88.0008C90.5321 89.2591 93.4913 89.2591 96.0044 88.0008L100 86" stroke="#F7F8F8" stroke-opacity="0.16" stroke-width="0.8"/>
<path d="M-28 90L-24 92C-21.4819 93.2591 -18.5181 93.259 -16 92V92C-13.482 90.7409 -10.518 90.7409 -7.99999 92V92C-5.48195 93.259 -2.51804 93.259 8.58307e-06 92V92C2.51805 90.7409 5.48197 90.7409 8.00001 92V92C10.518 93.259 13.482 93.2591 16 92V92C18.5181 90.741 21.4951 90.7476 24.0131 92.0066V92.0066C26.5181 93.2591 29.4764 93.281 31.9943 92.0547L32.3036 91.9041C34.7646 90.7055 37.6464 90.7363 40.0813 91.987V91.987C42.5446 93.2524 45.4634 93.2683 47.9404 92.0298L48.0271 91.9865C50.5281 90.736 53.4854 90.7427 55.9864 91.9932V91.9932C58.5045 93.2522 61.4849 93.2576 64.0029 91.9986V91.9986C66.5181 90.741 69.5108 90.751 72.0289 92.0027V92.0027C74.5398 93.2509 77.522 93.2603 80.0284 92.0034V92.0034C82.5424 90.7427 85.5043 90.7416 88.019 92.0008V92.0008C90.5321 93.2591 93.4913 93.2591 96.0044 92.0008L100 90" stroke="#F7F8F8" stroke-opacity="0.16" stroke-width="0.8"/>
<path d="M-28 94L-24 96C-21.4819 97.2591 -18.5181 97.259 -16 96V96C-13.482 94.7409 -10.518 94.7409 -7.99999 96V96C-5.48195 97.259 -2.51804 97.259 8.58307e-06 96V96C2.51805 94.7409 5.48197 94.7409 8.00001 96V96C10.518 97.259 13.482 97.2591 16 96V96C18.5181 94.741 21.4951 94.7476 24.0131 96.0066V96.0066C26.5181 97.2591 29.4764 97.281 31.9943 96.0547L32.3036 95.9041C34.7646 94.7055 37.6464 94.7363 40.0813 95.987V95.987C42.5446 97.2524 45.4634 97.2683 47.9404 96.0298L48.0271 95.9865C50.5281 94.736 53.4854 94.7427 55.9864 95.9932V95.9932C58.5045 97.2522 61.4849 97.2576 64.0029 95.9986V95.9986C66.5181 94.741 69.5108 94.751 72.0289 96.0027V96.0027C74.5398 97.2509 77.522 97.2603 80.0284 96.0034V96.0034C82.5424 94.7427 85.5043 94.7416 88.019 96.0008V96.0008C90.5321 97.2591 93.4913 97.2591 96.0044 96.0008L100 94" stroke="#F7F8F8" stroke-opacity="0.16" stroke-width="0.8"/>
<path d="M-28 98L-24 100C-21.4819 101.259 -18.5181 101.259 -16 100V100C-13.482 98.7409 -10.518 98.7409 -7.99999 100V100C-5.48195 101.259 -2.51804 101.259 8.58307e-06 100V100C2.51805 98.7409 5.48197 98.7409 8.00001 100V100C10.518 101.259 13.482 101.259 16 100V100C18.5181 98.741 21.4951 98.7476 24.0131 100.007V100.007C26.5181 101.259 29.4764 101.281 31.9943 100.055L32.3036 99.9041C34.7646 98.7055 37.6464 98.7363 40.0813 99.987V99.987C42.5446 101.252 45.4634 101.268 47.9404 100.03L48.0271 99.9865C50.5281 98.736 53.4854 98.7427 55.9864 99.9932V99.9932C58.5045 101.252 61.4849 101.258 64.0029 99.9986V99.9986C66.5181 98.741 69.5108 98.751 72.0289 100.003V100.003C74.5398 101.251 77.522 101.26 80.0284 100.003V100.003C82.5424 98.7427 85.5043 98.7416 88.019 100.001V100.001C90.5321 101.259 93.4913 101.259 96.0044 100.001L100 98" stroke="#F7F8F8" stroke-opacity="0.16" stroke-width="0.8"/>
<path d="M-28 102L-24 104C-21.4819 105.259 -18.5181 105.259 -16 104V104C-13.482 102.741 -10.518 102.741 -7.99999 104V104C-5.48195 105.259 -2.51804 105.259 8.58307e-06 104V104C2.51805 102.741 5.48197 102.741 8.00001 104V104C10.518 105.259 13.482 105.259 16 104V104C18.5181 102.741 21.4951 102.748 24.0131 104.007V104.007C26.5181 105.259 29.4764 105.281 31.9943 104.055L32.3036 103.904C34.7646 102.706 37.6464 102.736 40.0813 103.987V103.987C42.5446 105.252 45.4634 105.268 47.9404 104.03L48.0271 103.986C50.5281 102.736 53.4854 102.743 55.9864 103.993V103.993C58.5045 105.252 61.4849 105.258 64.0029 103.999V103.999C66.5181 102.741 69.5108 102.751 72.0289 104.003V104.003C74.5398 105.251 77.522 105.26 80.0284 104.003V104.003C82.5424 102.743 85.5043 102.742 88.019 104.001V104.001C90.5321 105.259 93.4913 105.259 96.0044 104.001L100 102" stroke="#F7F8F8" stroke-opacity="0.16" stroke-width="0.8"/>
<path d="M-28 106L-24 108C-21.4819 109.259 -18.5181 109.259 -16 108V108C-13.482 106.741 -10.518 106.741 -7.99999 108V108C-5.48195 109.259 -2.51804 109.259 8.58307e-06 108V108C2.51805 106.741 5.48197 106.741 8.00001 108V108C10.518 109.259 13.482 109.259 16 108V108C18.5181 106.741 21.4951 106.748 24.0131 108.007V108.007C26.5181 109.259 29.4764 109.281 31.9943 108.055L32.3036 107.904C34.7646 106.706 37.6464 106.736 40.0813 107.987V107.987C42.5446 109.252 45.4634 109.268 47.9404 108.03L48.0271 107.986C50.5281 106.736 53.4854 106.743 55.9864 107.993V107.993C58.5045 109.252 61.4849 109.258 64.0029 107.999V107.999C66.5181 106.741 69.5108 106.751 72.0289 108.003V108.003C74.5398 109.251 77.522 109.26 80.0284 108.003V108.003C82.5424 106.743 85.5043 106.742 88.019 108.001V108.001C90.5321 109.259 93.4913 109.259 96.0044 108.001L100 106" stroke="#F7F8F8" stroke-opacity="0.16" stroke-width="0.8"/>
<path d="M-28 110L-24 112C-21.4819 113.259 -18.5181 113.259 -16 112V112C-13.482 110.741 -10.518 110.741 -7.99999 112V112C-5.48195 113.259 -2.51804 113.259 8.58307e-06 112V112C2.51805 110.741 5.48197 110.741 8.00001 112V112C10.518 113.259 13.482 113.259 16 112V112C18.5181 110.741 21.4951 110.748 24.0131 112.007V112.007C26.5181 113.259 29.4764 113.281 31.9943 112.055L32.3036 111.904C34.7646 110.706 37.6464 110.736 40.0813 111.987V111.987C42.5446 113.252 45.4634 113.268 47.9404 112.03L48.0271 111.986C50.5281 110.736 53.4854 110.743 55.9864 111.993V111.993C58.5045 113.252 61.4849 113.258 64.0029 111.999V111.999C66.5181 110.741 69.5108 110.751 72.0289 112.003V112.003C74.5398 113.251 77.522 113.26 80.0284 112.003V112.003C82.5424 110.743 85.5043 110.742 88.019 112.001V112.001C90.5321 113.259 93.4913 113.259 96.0044 112.001L100 110" stroke="#F7F8F8" stroke-opacity="0.16" stroke-width="0.8"/>
<path d="M-28 114L-24 116C-21.4819 117.259 -18.5181 117.259 -16 116V116C-13.482 114.741 -10.518 114.741 -7.99999 116V116C-5.48195 117.259 -2.51804 117.259 8.58307e-06 116V116C2.51805 114.741 5.48197 114.741 8.00001 116V116C10.518 117.259 13.482 117.259 16 116V116C18.5181 114.741 21.4951 114.748 24.0131 116.007V116.007C26.5181 117.259 29.4764 117.281 31.9943 116.055L32.3036 115.904C34.7646 114.706 37.6464 114.736 40.0813 115.987V115.987C42.5446 117.252 45.4634 117.268 47.9404 116.03L48.0271 115.986C50.5281 114.736 53.4854 114.743 55.9864 115.993V115.993C58.5045 117.252 61.4849 117.258 64.0029 115.999V115.999C66.5181 114.741 69.5108 114.751 72.0289 116.003V116.003C74.5398 117.251 77.522 117.26 80.0284 116.003V116.003C82.5424 114.743 85.5043 114.742 88.019 116.001V116.001C90.5321 117.259 93.4913 117.259 96.0044 116.001L100 114" stroke="#F7F8F8" stroke-opacity="0.16" stroke-width="0.8"/>
<path d="M-28 118L-24 120C-21.4819 121.259 -18.5181 121.259 -16 120V120C-13.482 118.741 -10.518 118.741 -7.99999 120V120C-5.48195 121.259 -2.51804 121.259 8.58307e-06 120V120C2.51805 118.741 5.48197 118.741 8.00001 120V120C10.518 121.259 13.482 121.259 16 120V120C18.5181 118.741 21.4951 118.748 24.0131 120.007V120.007C26.5181 121.259 29.4764 121.281 31.9943 120.055L32.3036 119.904C34.7646 118.706 37.6464 118.736 40.0813 119.987V119.987C42.5446 121.252 45.4634 121.268 47.9404 120.03L48.0271 119.986C50.5281 118.736 53.4854 118.743 55.9864 119.993V119.993C58.5045 121.252 61.4849 121.258 64.0029 119.999V119.999C66.5181 118.741 69.5108 118.751 72.0289 120.003V120.003C74.5398 121.251 77.522 121.26 80.0284 120.003V120.003C82.5424 118.743 85.5043 118.742 88.019 120.001V120.001C90.5321 121.259 93.4913 121.259 96.0044 120.001L100 118" stroke="#F7F8F8" stroke-opacity="0.16" stroke-width="0.8"/>
<path d="M-28 122L-24 124C-21.4819 125.259 -18.5181 125.259 -16 124V124C-13.482 122.741 -10.518 122.741 -7.99999 124V124C-5.48195 125.259 -2.51804 125.259 8.58307e-06 124V124C2.51805 122.741 5.48197 122.741 8.00001 124V124C10.518 125.259 13.482 125.259 16 124V124C18.5181 122.741 21.4951 122.748 24.0131 124.007V124.007C26.5181 125.259 29.4764 125.281 31.9943 124.055L32.3036 123.904C34.7646 122.706 37.6464 122.736 40.0813 123.987V123.987C42.5446 125.252 45.4634 125.268 47.9404 124.03L48.0271 123.986C50.5281 122.736 53.4854 122.743 55.9864 123.993V123.993C58.5045 125.252 61.4849 125.258 64.0029 123.999V123.999C66.5181 122.741 69.5108 122.751 72.0289 124.003V124.003C74.5398 125.251 77.522 125.26 80.0284 124.003V124.003C82.5424 122.743 85.5043 122.742 88.019 124.001V124.001C90.5321 125.259 93.4913 125.259 96.0044 124.001L100 122" stroke="#F7F8F8" stroke-opacity="0.16" stroke-width="0.8"/>
<path d="M-28 126L-24 128C-21.4819 129.259 -18.5181 129.259 -16 128V128C-13.482 126.741 -10.518 126.741 -7.99999 128V128C-5.48195 129.259 -2.51804 129.259 8.58307e-06 128V128C2.51805 126.741 5.48197 126.741 8.00001 128V128C10.518 129.259 13.482 129.259 16 128V128C18.5181 126.741 21.4951 126.748 24.0131 128.007V128.007C26.5181 129.259 29.4764 129.281 31.9943 128.055L32.3036 127.904C34.7646 126.706 37.6464 126.736 40.0813 127.987V127.987C42.5446 129.252 45.4634 129.268 47.9404 128.03L48.0271 127.986C50.5281 126.736 53.4854 126.743 55.9864 127.993V127.993C58.5045 129.252 61.4849 129.258 64.0029 127.999V127.999C66.5181 126.741 69.5108 126.751 72.0289 128.003V128.003C74.5398 129.251 77.522 129.26 80.0284 128.003V128.003C82.5424 126.743 85.5043 126.742 88.019 128.001V128.001C90.5321 129.259 93.4913 129.259 96.0044 128.001L100 126" stroke="#F7F8F8" stroke-opacity="0.16" stroke-width="0.8"/>
<path d="M-28 130L-24 132C-21.4819 133.259 -18.5181 133.259 -16 132V132C-13.482 130.741 -10.518 130.741 -7.99999 132V132C-5.48195 133.259 -2.51804 133.259 8.58307e-06 132V132C2.51805 130.741 5.48197 130.741 8.00001 132V132C10.518 133.259 13.482 133.259 16 132V132C18.5181 130.741 21.4951 130.748 24.0131 132.007V132.007C26.5181 133.259 29.4764 133.281 31.9943 132.055L32.3036 131.904C34.7646 130.706 37.6464 130.736 40.0813 131.987V131.987C42.5446 133.252 45.4634 133.268 47.9404 132.03L48.0271 131.986C50.5281 130.736 53.4854 130.743 55.9864 131.993V131.993C58.5045 133.252 61.4849 133.258 64.0029 131.999V131.999C66.5181 130.741 69.5108 130.751 72.0289 132.003V132.003C74.5398 133.251 77.522 133.26 80.0284 132.003V132.003C82.5424 130.743 85.5043 130.742 88.019 132.001V132.001C90.5321 133.259 93.4913 133.259 96.0044 132.001L100 130" stroke="#F7F8F8" stroke-opacity="0.16" stroke-width="0.8"/>
<path d="M-28 134L-24 136C-21.4819 137.259 -18.5181 137.259 -16 136V136C-13.482 134.741 -10.518 134.741 -7.99999 136V136C-5.48195 137.259 -2.51804 137.259 8.58307e-06 136V136C2.51805 134.741 5.48197 134.741 8.00001 136V136C10.518 137.259 13.482 137.259 16 136V136C18.5181 134.741 21.4951 134.748 24.0131 136.007V136.007C26.5181 137.259 29.4764 137.281 31.9943 136.055L32.3036 135.904C34.7646 134.706 37.6464 134.736 40.0813 135.987V135.987C42.5446 137.252 45.4634 137.268 47.9404 136.03L48.0271 135.986C50.5281 134.736 53.4854 134.743 55.9864 135.993V135.993C58.5045 137.252 61.4849 137.258 64.0029 135.999V135.999C66.5181 134.741 69.5108 134.751 72.0289 136.003V136.003C74.5398 137.251 77.522 137.26 80.0284 136.003V136.003C82.5424 134.743 85.5043 134.742 88.019 136.001V136.001C90.5321 137.259 93.4913 137.259 96.0044 136.001L100 134" stroke="#F7F8F8" stroke-opacity="0.16" stroke-width="0.8"/>
<path d="M-28 138L-24 140C-21.4819 141.259 -18.5181 141.259 -16 140V140C-13.482 138.741 -10.518 138.741 -7.99999 140V140C-5.48195 141.259 -2.51804 141.259 8.58307e-06 140V140C2.51805 138.741 5.48197 138.741 8.00001 140V140C10.518 141.259 13.482 141.259 16 140V140C18.5181 138.741 21.4951 138.748 24.0131 140.007V140.007C26.5181 141.259 29.4764 141.281 31.9943 140.055L32.3036 139.904C34.7646 138.706 37.6464 138.736 40.0813 139.987V139.987C42.5446 141.252 45.4634 141.268 47.9404 140.03L48.0271 139.986C50.5281 138.736 53.4854 138.743 55.9864 139.993V139.993C58.5045 141.252 61.4849 141.258 64.0029 139.999V139.999C66.5181 138.741 69.5108 138.751 72.0289 140.003V140.003C74.5398 141.251 77.522 141.26 80.0284 140.003V140.003C82.5424 138.743 85.5043 138.742 88.019 140.001V140.001C90.5321 141.259 93.4913 141.259 96.0044 140.001L100 138" stroke="#F7F8F8" stroke-opacity="0.16" stroke-width="0.8"/>
<path d="M-28 142L-24 144C-21.4819 145.259 -18.5181 145.259 -16 144V144C-13.482 142.741 -10.518 142.741 -7.99999 144V144C-5.48195 145.259 -2.51804 145.259 8.58307e-06 144V144C2.51805 142.741 5.48197 142.741 8.00001 144V144C10.518 145.259 13.482 145.259 16 144V144C18.5181 142.741 21.4951 142.748 24.0131 144.007V144.007C26.5181 145.259 29.4764 145.281 31.9943 144.055L32.3036 143.904C34.7646 142.706 37.6464 142.736 40.0813 143.987V143.987C42.5446 145.252 45.4634 145.268 47.9404 144.03L48.0271 143.986C50.5281 142.736 53.4854 142.743 55.9864 143.993V143.993C58.5045 145.252 61.4849 145.258 64.0029 143.999V143.999C66.5181 142.741 69.5108 142.751 72.0289 144.003V144.003C74.5398 145.251 77.522 145.26 80.0284 144.003V144.003C82.5424 142.743 85.5043 142.742 88.019 144.001V144.001C90.5321 145.259 93.4913 145.259 96.0044 144.001L100 142" stroke="#F7F8F8" stroke-opacity="0.16" stroke-width="0.8"/>
<path d="M-28 146L-24 148C-21.4819 149.259 -18.5181 149.259 -16 148V148C-13.482 146.741 -10.518 146.741 -7.99999 148V148C-5.48195 149.259 -2.51804 149.259 8.58307e-06 148V148C2.51805 146.741 5.48197 146.741 8.00001 148V148C10.518 149.259 13.482 149.259 16 148V148C18.5181 146.741 21.4951 146.748 24.0131 148.007V148.007C26.5181 149.259 29.4764 149.281 31.9943 148.055L32.3036 147.904C34.7646 146.706 37.6464 146.736 40.0813 147.987V147.987C42.5446 149.252 45.4634 149.268 47.9404 148.03L48.0271 147.986C50.5281 146.736 53.4854 146.743 55.9864 147.993V147.993C58.5045 149.252 61.4849 149.258 64.0029 147.999V147.999C66.5181 146.741 69.5108 146.751 72.0289 148.003V148.003C74.5398 149.251 77.522 149.26 80.0284 148.003V148.003C82.5424 146.743 85.5043 146.742 88.019 148.001V148.001C90.5321 149.259 93.4913 149.259 96.0044 148.001L100 146" stroke="#F7F8F8" stroke-opacity="0.16" stroke-width="0.8"/>
<path d="M-28 150L-24 152C-21.4819 153.259 -18.5181 153.259 -16 152V152C-13.482 150.741 -10.518 150.741 -7.99999 152V152C-5.48195 153.259 -2.51804 153.259 8.58307e-06 152V152C2.51805 150.741 5.48197 150.741 8.00001 152V152C10.518 153.259 13.482 153.259 16 152V152C18.5181 150.741 21.4951 150.748 24.0131 152.007V152.007C26.5181 153.259 29.4764 153.281 31.9943 152.055L32.3036 151.904C34.7646 150.706 37.6464 150.736 40.0813 151.987V151.987C42.5446 153.252 45.4634 153.268 47.9404 152.03L48.0271 151.986C50.5281 150.736 53.4854 150.743 55.9864 151.993V151.993C58.5045 153.252 61.4849 153.258 64.0029 151.999V151.999C66.5181 150.741 69.5108 150.751 72.0289 152.003V152.003C74.5398 153.251 77.522 153.26 80.0284 152.003V152.003C82.5424 150.743 85.5043 150.742 88.019 152.001V152.001C90.5321 153.259 93.4913 153.259 96.0044 152.001L100 150" stroke="#F7F8F8" stroke-opacity="0.16" stroke-width="0.8"/>
<path d="M-28 154L-24 156C-21.4819 157.259 -18.5181 157.259 -16 156V156C-13.482 154.741 -10.518 154.741 -7.99999 156V156C-5.48195 157.259 -2.51804 157.259 8.58307e-06 156V156C2.51805 154.741 5.48197 154.741 8.00001 156V156C10.518 157.259 13.482 157.259 16 156V156C18.5181 154.741 21.4951 154.748 24.0131 156.007V156.007C26.5181 157.259 29.4764 157.281 31.9943 156.055L32.3036 155.904C34.7646 154.706 37.6464 154.736 40.0813 155.987V155.987C42.5446 157.252 45.4634 157.268 47.9404 156.03L48.0271 155.986C50.5281 154.736 53.4854 154.743 55.9864 155.993V155.993C58.5045 157.252 61.4849 157.258 64.0029 155.999V155.999C66.5181 154.741 69.5108 154.751 72.0289 156.003V156.003C74.5398 157.251 77.522 157.26 80.0284 156.003V156.003C82.5424 154.743 85.5043 154.742 88.019 156.001V156.001C90.5321 157.259 93.4913 157.259 96.0044 156.001L100 154" stroke="#F7F8F8" stroke-opacity="0.16" stroke-width="0.8"/>
<path d="M-28 158L-24 160C-21.4819 161.259 -18.5181 161.259 -16 160V160C-13.482 158.741 -10.518 158.741 -7.99999 160V160C-5.48195 161.259 -2.51804 161.259 8.58307e-06 160V160C2.51805 158.741 5.48197 158.741 8.00001 160V160C10.518 161.259 13.482 161.259 16 160V160C18.5181 158.741 21.4951 158.748 24.0131 160.007V160.007C26.5181 161.259 29.4764 161.281 31.9943 160.055L32.3036 159.904C34.7646 158.706 37.6464 158.736 40.0813 159.987V159.987C42.5446 161.252 45.4634 161.268 47.9404 160.03L48.0271 159.986C50.5281 158.736 53.4854 158.743 55.9864 159.993V159.993C58.5045 161.252 61.4849 161.258 64.0029 159.999V159.999C66.5181 158.741 69.5108 158.751 72.0289 160.003V160.003C74.5398 161.251 77.522 161.26 80.0284 160.003V160.003C82.5424 158.743 85.5043 158.742 88.019 160.001V160.001C90.5321 161.259 93.4913 161.259 96.0044 160.001L100 158" stroke="#F7F8F8" stroke-opacity="0.16" stroke-width="0.8"/>
<path d="M-28 162L-24 164C-21.4819 165.259 -18.5181 165.259 -16 164V164C-13.482 162.741 -10.518 162.741 -7.99999 164V164C-5.48195 165.259 -2.51804 165.259 8.58307e-06 164V164C2.51805 162.741 5.48197 162.741 8.00001 164V164C10.518 165.259 13.482 165.259 16 164V164C18.5181 162.741 21.4951 162.748 24.0131 164.007V164.007C26.5181 165.259 29.4764 165.281 31.9943 164.055L32.3036 163.904C34.7646 162.706 37.6464 162.736 40.0813 163.987V163.987C42.5446 165.252 45.4634 165.268 47.9404 164.03L48.0271 163.986C50.5281 162.736 53.4854 162.743 55.9864 163.993V163.993C58.5045 165.252 61.4849 165.258 64.0029 163.999V163.999C66.5181 162.741 69.5108 162.751 72.0289 164.003V164.003C74.5398 165.251 77.522 165.26 80.0284 164.003V164.003C82.5424 162.743 85.5043 162.742 88.019 164.001V164.001C90.5321 165.259 93.4913 165.259 96.0044 164.001L100 162" stroke="#F7F8F8" stroke-opacity="0.16" stroke-width="0.8"/>
</g>
<rect x="143.453" y="24" width="24" height="24" rx="4" transform="rotate(50.249 143.453 24)" fill="#F7F8F8" fill-opacity="0.16"/>
<path fill-rule="evenodd" clip-rule="evenodd" d="M181.914 0.208615C181.914 0.0934007 182.008 0 182.123 0H185.878C185.993 0 186.087 0.0933997 186.087 0.208614V6.81728L191.81 3.513C191.91 3.45539 192.037 3.48958 192.095 3.58936L193.972 6.84133C194.03 6.94111 193.996 7.06869 193.896 7.1263L188.172 10.4308L193.896 13.7351C193.995 13.7927 194.03 13.9203 193.972 14.0201L192.094 17.272C192.037 17.3718 191.909 17.406 191.81 17.3484L186.087 14.0443V20.6528C186.087 20.768 185.993 20.8614 185.878 20.8614H182.123C182.008 20.8614 181.914 20.768 181.914 20.6528V14.0439L176.191 17.3484C176.091 17.406 175.963 17.3718 175.906 17.272L174.028 14.0201C173.971 13.9203 174.005 13.7927 174.105 13.7351L179.828 10.4308L174.104 7.1263C174.005 7.06869 173.97 6.94111 174.028 6.84133L175.906 3.58936C175.963 3.48958 176.091 3.45539 176.19 3.513L181.914 6.8177V0.208615Z" fill="#CABEFF" fill-opacity="0.16"/>
<path fill-rule="evenodd" clip-rule="evenodd" d="M8 25C12.4183 25 16 21.4183 16 17C16 12.5817 12.4183 9 8 9C3.58172 9 0 12.5817 0 17C0 21.4183 3.58172 25 8 25ZM8 21C10.2091 21 12 19.2091 12 17C12 14.7909 10.2091 13 8 13C5.79086 13 4 14.7909 4 17C4 19.2091 5.79086 21 8 21Z" fill="#F7F8F8" fill-opacity="0.16"/>
<path fill-rule="evenodd" clip-rule="evenodd" d="M170 162C176.627 162 182 156.627 182 150C182 143.373 176.627 138 170 138C163.373 138 158 143.373 158 150C158 156.627 163.373 162 170 162ZM170 156C173.314 156 176 153.314 176 150C176 146.686 173.314 144 170 144C166.686 144 164 146.686 164 150C164 153.314 166.686 156 170 156Z" fill="#ADAAB4"/>
<path d="M52.3049 25.602C51.2391 22.7131 53.7004 19.7538 56.7351 20.2753L61.2872 21.0576C64.3219 21.5791 65.6541 25.1902 63.6851 27.5576L60.7316 31.1087C58.7626 33.4761 54.9692 32.8242 53.9034 29.9353L52.3049 25.602Z" fill="#F7F8F8" fill-opacity="0.12"/>
<rect x="51" y="192" width="80" height="4" rx="2" fill="#CABEFF" fill-opacity="0.12"/>
<rect x="143" y="192" width="19" height="4" rx="2" fill="#CABEFF" fill-opacity="0.12"/>
</svg>
