<svg id="loading" width="32" height="32" viewBox="0 0 32 32" fill="none" xmlns="http://www.w3.org/2000/svg">
<rect x="15" width="2" height="8" rx="1" fill="white" fill-opacity="0.44"/>
<rect x="15" y="24" width="2" height="8" rx="1" fill="white"/>
<rect y="17" width="2" height="8" rx="1" transform="rotate(-90 0 17)" fill="white" fill-opacity="0.76"/>
<rect x="24" y="17" width="2" height="8" rx="1" transform="rotate(-90 24 17)" fill="white" fill-opacity="0.2"/>
<rect x="29.3564" y="7.13403" width="2" height="8" rx="1" transform="rotate(60 29.3564 7.13403)" fill="white" fill-opacity="0.28"/>
<rect x="8.57227" y="19.134" width="2" height="8" rx="1" transform="rotate(60 8.57227 19.134)" fill="white" fill-opacity="0.84"/>
<rect x="1.64355" y="8.86597" width="2" height="8" rx="1" transform="rotate(-60 1.64355 8.86597)" fill="white" fill-opacity="0.64"/>
<rect x="22.4277" y="20.866" width="2" height="8" rx="1" transform="rotate(-60 22.4277 20.866)" fill="white" fill-opacity="0.16"/>
<rect x="23.1338" y="1.64355" width="2" height="8" rx="1" transform="rotate(30 23.1338 1.64355)" fill="white" fill-opacity="0.36"/>
<rect x="11.1338" y="22.4282" width="2" height="8" rx="1" transform="rotate(30 11.1338 22.4282)" fill="white" fill-opacity="0.96"/>
<rect x="7.13379" y="2.64355" width="2" height="8" rx="1" transform="rotate(-30 7.13379 2.64355)" fill="white" fill-opacity="0.52"/>
<rect x="19.1338" y="23.4282" width="2" height="8" rx="1" transform="rotate(-30 19.1338 23.4282)" fill="white" fill-opacity="0.04"/>
</svg>
