<svg width="52" height="18" viewBox="0 0 52 18" fill="none" xmlns="http://www.w3.org/2000/svg">
<g clip-path="url(#clip0_1251_17480)">
<path fill-rule="evenodd" clip-rule="evenodd" d="M1 4.5299C1 4.15639 1 3.96963 1.06856 3.81931C1.12899 3.68684 1.22616 3.57457 1.34851 3.49586C1.48735 3.40655 1.67193 3.38004 2.0411 3.32702L7.3061 2.57085C7.784 2.50221 8.02295 2.46789 8.20864 2.54035C8.37165 2.60396 8.50768 2.72206 8.59369 2.87463C8.69167 3.04844 8.69167 3.2902 8.69167 3.77374V14.2263C8.69167 14.7098 8.69167 14.9516 8.59369 15.1254C8.50768 15.2779 8.37165 15.396 8.20864 15.4596C8.02296 15.5321 7.784 15.4978 7.30611 15.4291H7.3061L2.0411 14.673L2.04108 14.673L2.04106 14.673C1.67192 14.62 1.48734 14.5934 1.34851 14.5041C1.22616 14.4254 1.12899 14.3132 1.06856 14.1807C1 14.0304 1 13.8436 1 13.4701V4.5299ZM6.30838 8.07075C6.30838 7.959 6.30838 7.90312 6.32939 7.85895C6.3479 7.82005 6.37758 7.78756 6.41464 7.76561C6.45672 7.74068 6.51237 7.73562 6.62366 7.7255L7.12199 7.6802H7.122C7.25312 7.66828 7.31868 7.66232 7.3693 7.68419C7.41378 7.7034 7.45053 7.73696 7.47369 7.77951C7.50005 7.82795 7.50005 7.89378 7.50005 8.02544V9.97456C7.50005 10.1062 7.50005 10.1721 7.47369 10.2205C7.45053 10.263 7.41378 10.2966 7.3693 10.3158C7.31868 10.3377 7.25312 10.3317 7.12199 10.3198L6.62366 10.2745C6.51237 10.2644 6.45672 10.2593 6.41464 10.2344C6.37758 10.2124 6.3479 10.1799 6.32939 10.141C6.30838 10.0969 6.30838 10.041 6.30838 9.92925V8.07075ZM10.1866 3.58339H9.44997V14.4167H10.1866C10.6113 14.4167 10.8237 14.4167 10.9859 14.3341C11.1286 14.2614 11.2446 14.1454 11.3173 14.0027C11.4 13.8405 11.4 13.6281 11.4 13.2034V4.79673C11.4 4.37202 11.4 4.15967 11.3173 3.99745C11.2446 3.85476 11.1286 3.73875 10.9859 3.66605C10.8237 3.58339 10.6113 3.58339 10.1866 3.58339Z" fill="#C9C5D0"/>
<path fill-rule="evenodd" clip-rule="evenodd" d="M1 4.5299C1 4.15639 1 3.96963 1.06856 3.81931C1.12899 3.68684 1.22616 3.57457 1.34851 3.49586C1.48735 3.40655 1.67193 3.38004 2.0411 3.32702L7.3061 2.57085C7.784 2.50221 8.02295 2.46789 8.20864 2.54035C8.37165 2.60396 8.50768 2.72206 8.59369 2.87463C8.69167 3.04844 8.69167 3.2902 8.69167 3.77374V14.2263C8.69167 14.7098 8.69167 14.9516 8.59369 15.1254C8.50768 15.2779 8.37165 15.396 8.20864 15.4596C8.02296 15.5321 7.784 15.4978 7.30611 15.4291H7.3061L2.0411 14.673L2.04108 14.673L2.04106 14.673C1.67192 14.62 1.48734 14.5934 1.34851 14.5041C1.22616 14.4254 1.12899 14.3132 1.06856 14.1807C1 14.0304 1 13.8436 1 13.4701V4.5299ZM6.30838 8.07075C6.30838 7.959 6.30838 7.90312 6.32939 7.85895C6.3479 7.82005 6.37758 7.78756 6.41464 7.76561C6.45672 7.74068 6.51237 7.73562 6.62366 7.7255L7.12199 7.6802H7.122C7.25312 7.66828 7.31868 7.66232 7.3693 7.68419C7.41378 7.7034 7.45053 7.73696 7.47369 7.77951C7.50005 7.82795 7.50005 7.89378 7.50005 8.02544V9.97456C7.50005 10.1062 7.50005 10.1721 7.47369 10.2205C7.45053 10.263 7.41378 10.2966 7.3693 10.3158C7.31868 10.3377 7.25312 10.3317 7.12199 10.3198L6.62366 10.2745C6.51237 10.2644 6.45672 10.2593 6.41464 10.2344C6.37758 10.2124 6.3479 10.1799 6.32939 10.141C6.30838 10.0969 6.30838 10.041 6.30838 9.92925V8.07075ZM10.1866 3.58339H9.44997V14.4167H10.1866C10.6113 14.4167 10.8237 14.4167 10.9859 14.3341C11.1286 14.2614 11.2446 14.1454 11.3173 14.0027C11.4 13.8405 11.4 13.6281 11.4 13.2034V4.79673C11.4 4.37202 11.4 4.15967 11.3173 3.99745C11.2446 3.85476 11.1286 3.73875 10.9859 3.66605C10.8237 3.58339 10.6113 3.58339 10.1866 3.58339Z" fill="url(#paint0_linear_1251_17480)"/>
</g>
<path d="M25.3044 13.8727C24.5567 13.8727 23.911 13.7173 23.3673 13.4066C22.8236 13.0959 22.406 12.6638 22.1147 12.1104C21.8235 11.5472 21.6778 10.8967 21.6778 10.1588C21.6778 9.4014 21.8283 8.746 22.1293 8.19255C22.4303 7.6391 22.8527 7.20702 23.3964 6.89632C23.9499 6.58561 24.5956 6.43025 25.3335 6.43025C26.0811 6.43025 26.722 6.58561 27.256 6.89632C27.7997 7.20702 28.2221 7.6391 28.5231 8.19255C28.8241 8.746 28.9746 9.39655 28.9746 10.1442C28.9746 10.8821 28.8193 11.5327 28.5085 12.0958C28.2075 12.659 27.7852 13.0959 27.2414 13.4066C26.6977 13.7076 26.052 13.863 25.3044 13.8727ZM25.3189 12.4599C25.7267 12.4599 26.0763 12.358 26.3676 12.1541C26.6589 11.9502 26.8822 11.6735 27.0375 11.3239C27.2026 10.9744 27.2851 10.5811 27.2851 10.1442C27.2851 9.69755 27.2075 9.29945 27.0521 8.9499C26.8967 8.60036 26.6734 8.32849 26.3821 8.13429C26.0908 7.93039 25.7413 7.82844 25.3335 7.82844C24.9451 7.82844 24.6004 7.93039 24.2994 8.13429C23.9984 8.3382 23.7654 8.61492 23.6003 8.96447C23.445 9.31402 23.3624 9.70726 23.3527 10.1442C23.3527 10.5908 23.4304 10.9889 23.5858 11.3385C23.7411 11.688 23.9693 11.9647 24.2703 12.1686C24.5713 12.3628 24.9208 12.4599 25.3189 12.4599Z" fill="#E5E1EC"/>
<path d="M36.4995 6.69557C36.4995 6.65361 36.4655 6.61959 36.4236 6.61959H34.9297C34.8878 6.61959 34.8538 6.65361 34.8538 6.69557V14.1494C34.8538 14.6446 34.6693 14.9522 34.3003 15.224C33.941 15.4959 33.537 15.5848 32.9641 15.5945C32.566 15.5848 32.1925 15.5493 31.8624 15.4425C31.5527 15.3514 31.2138 15.2176 30.8605 15.0411C30.822 15.0219 30.7751 15.0379 30.7568 15.0768L30.2199 16.2213C30.2044 16.2544 30.2145 16.2939 30.2447 16.3144C30.4085 16.4259 30.6001 16.5256 30.8194 16.6133C31.0621 16.7104 31.3097 16.7881 31.5622 16.8463C31.8243 16.9143 32.0952 16.971 32.3282 17.0001C32.571 17.0292 32.8002 17.0332 32.9458 17.0332C33.6837 17.0332 34.3149 16.9167 34.8392 16.6836C35.3732 16.4506 35.781 16.1205 36.0626 15.6932C36.3539 15.266 36.4995 14.7563 36.4995 14.164V6.69557ZM35.3105 11.5198C35.2882 11.4671 35.2179 11.4569 35.1804 11.5C34.8944 11.8287 34.6044 12.0616 34.3294 12.2123C34.0381 12.3774 33.7032 12.4599 33.3245 12.4599C32.9361 12.4599 32.5963 12.3628 32.305 12.1686C32.0234 11.9647 31.8098 11.688 31.6641 11.3385C31.5185 10.9889 31.4457 10.586 31.4457 10.1296C31.4457 9.69269 31.5185 9.30431 31.6641 8.96447C31.8098 8.61492 32.0234 8.3382 32.305 8.13429C32.5963 7.93039 32.941 7.82844 33.3391 7.82844C33.708 7.82844 33.9993 7.90612 34.3003 8.06147C34.5813 8.20197 34.8804 8.52282 35.1377 8.85792C35.1736 8.90461 35.2469 8.89592 35.2699 8.84172L35.6832 7.86653C35.6933 7.84278 35.6907 7.81558 35.676 7.79442C35.1545 7.04603 34.2723 6.43025 33.268 6.43025C32.5398 6.43025 31.9651 6.58561 31.4311 6.89632C30.8971 7.20702 30.4844 7.6391 30.1931 8.19255C29.9115 8.746 29.7708 9.39169 29.7708 10.1296C29.7708 10.887 29.9115 11.5472 30.1931 12.1104C30.4747 12.6638 30.8777 13.0959 31.402 13.4066C31.936 13.7173 32.5671 13.8727 33.2954 13.8727C33.5672 13.8727 33.8488 13.8193 34.1401 13.7125C34.4411 13.6154 34.7324 13.4697 35.014 13.2755C35.2834 13.0898 35.5217 12.8684 35.7288 12.6115C35.7462 12.59 35.7501 12.5606 35.7393 12.5352L35.3105 11.5198Z" fill="#E5E1EC"/>
<path d="M41.9865 6.75383C41.9865 6.71187 41.9524 6.67785 41.9105 6.67785H40.2856C40.2436 6.67785 40.2096 6.64383 40.2096 6.60187V4.61531C40.2096 4.57334 40.1756 4.53933 40.1336 4.53933H38.6544C38.6124 4.53933 38.5784 4.57334 38.5784 4.61531V6.60187C38.5784 6.64383 38.5444 6.67785 38.5024 6.67785H37.5128C37.4706 6.67785 37.4364 6.71236 37.4368 6.75463L37.4498 7.98629C37.4503 8.02794 37.4841 8.06147 37.5258 8.06147H38.5024C38.5444 8.06147 38.5784 8.09549 38.5784 8.13745V11.5715C38.5784 12.0861 38.6803 12.5231 38.8842 12.8823C39.0979 13.2319 39.3891 13.4989 39.7581 13.6834C40.1271 13.8678 40.5737 13.9601 41.098 13.9601C41.2437 13.9601 41.399 13.9407 41.5641 13.9018C41.7389 13.863 41.9077 13.8221 42.0534 13.7638C42.1834 13.7151 42.4367 13.588 42.5659 13.5131C42.6003 13.4932 42.6109 13.4498 42.5915 13.4151L41.9904 12.3556C41.9716 12.3219 41.9306 12.3079 41.8945 12.3216C41.7974 12.3587 41.6969 12.3892 41.5932 12.4131C41.467 12.4422 41.3408 12.4568 41.2146 12.4568C40.8747 12.4568 40.6223 12.4211 40.4572 12.1978C40.2921 11.9647 40.2096 11.6686 40.2096 11.3093V8.13745C40.2096 8.09549 40.2436 8.06147 40.2856 8.06147H41.9105C41.9524 8.06147 41.9865 8.02745 41.9865 7.98549V6.75383Z" fill="#E5E1EC"/>
<path d="M46.4062 13.8727C45.6586 13.8727 45.0129 13.7173 44.4691 13.4066C43.9254 13.0959 43.5079 12.6638 43.2166 12.1104C42.9253 11.5472 42.7797 10.8967 42.7797 10.1588C42.7797 9.4014 42.9302 8.746 43.2312 8.19255C43.5322 7.6391 43.9545 7.20702 44.4983 6.89632C45.0517 6.58561 45.6974 6.43025 46.4353 6.43025C47.183 6.43025 47.8238 6.58561 48.3578 6.89632C48.9016 7.20702 49.324 7.6391 49.625 8.19255C49.9259 8.746 50.0765 9.39655 50.0765 10.1442C50.0765 10.8821 49.9211 11.5327 49.6104 12.0958C49.3094 12.659 48.887 13.0959 48.3433 13.4066C47.7995 13.7076 47.1539 13.863 46.4062 13.8727ZM46.4208 12.4599C46.8286 12.4599 47.1781 12.358 47.4694 12.1541C47.7607 11.9502 47.984 11.6735 48.1394 11.3239C48.3044 10.9744 48.387 10.5811 48.387 10.1442C48.387 9.69755 48.3093 9.29945 48.1539 8.9499C47.9986 8.60036 47.7753 8.32849 47.484 8.13429C47.1927 7.93039 46.8431 7.82844 46.4353 7.82844C46.0469 7.82844 45.7023 7.93039 45.4013 8.13429C45.1003 8.3382 44.8672 8.61492 44.7022 8.96447C44.5468 9.31402 44.4643 9.70726 44.4546 10.1442C44.4546 10.5908 44.5322 10.9889 44.6876 11.3385C44.843 11.688 45.0711 11.9647 45.3721 12.1686C45.6731 12.3628 46.0227 12.4599 46.4208 12.4599Z" fill="#E5E1EC"/>
<path d="M21.0535 12.4017C21.0535 12.3597 21.0195 12.3257 20.9776 12.3257H17.0673C17.0253 12.3257 16.9913 12.2917 16.9913 12.2497V4.2354C16.9913 4.19344 16.9573 4.15942 16.9153 4.15942H15.4506C15.4087 4.15942 15.3746 4.19344 15.3746 4.2354V13.7967C15.3746 13.8387 15.4087 13.8727 15.4506 13.8727H20.9776C21.0195 13.8727 21.0535 13.8387 21.0535 13.7967V12.4017Z" fill="#E5E1EC"/>
<defs>
<linearGradient id="paint0_linear_1251_17480" x1="-2.21904" y1="11.4904" x2="10.7367" y2="6.40599" gradientUnits="userSpaceOnUse">
<stop stop-color="#4B2EFB"/>
<stop offset="1" stop-color="#E65FFC"/>
</linearGradient>
<clipPath id="clip0_1251_17480">
<rect width="10.4" height="13" fill="white" transform="translate(1 2.5)"/>
</clipPath>
</defs>
</svg>
