<svg viewBox="0 0 48 48" fill="none" xmlns="http://www.w3.org/2000/svg">
  <circle cx="24" cy="24" r="19" stroke="currentcolor" stroke-width="2"/>
  <path fill-rule="evenodd" clip-rule="evenodd" d="M17 24C17 25.1046 16.1046 26 15 26C13.8954 26 13 25.1046 13 24C13 22.8954 13.8954 22 15 22C16.1046 22 17 22.8954 17 24ZM26 24C26 25.1046 25.1046 26 24 26C22.8954 26 22 25.1046 22 24C22 22.8954 22.8954 22 24 22C25.1046 22 26 22.8954 26 24ZM33 26C34.1046 26 35 25.1046 35 24C35 22.8954 34.1046 22 33 22C31.8954 22 31 22.8954 31 24C31 25.1046 31.8954 26 33 26Z" fill="currentcolor"/>
</svg>
