<svg xmlns="http://www.w3.org/2000/svg" >
  <symbol id="hide" width="24" height="24" viewBox="0 0 24 24">
    <path
      fillRule="evenodd"
      clipRule="evenodd"
      d="M5.4215 6.7492C4.07018 8.00321 2.9206 9.64733 2.07958 11.6C2.02452 11.7262 1.99609 11.8623 1.99609 12C1.99609 12.1377 2.02452 12.2738 2.07958 12.4C4.09958 17.09 7.89958 20 11.9996 20C13.796 20 15.5347 19.4414 17.0915 18.4192L15.6372 16.9649C14.498 17.6367 13.2623 18 11.9996 18C8.82958 18 5.82958 15.71 4.09958 12C4.81964 10.4558 5.75972 9.15764 6.8405 8.16819L5.4215 6.7492ZM8.58647 9.91417C8.4785 10.0908 8.38397 10.2764 8.30406 10.4693C8.00131 11.2002 7.9221 12.0044 8.07644 12.7804C8.23078 13.5563 8.61174 14.269 9.17115 14.8284C9.73056 15.3878 10.4433 15.7688 11.2192 15.9231C11.9951 16.0775 12.7994 15.9983 13.5303 15.6955C13.7232 15.6156 13.9087 15.5211 14.0854 15.4131L12.5848 13.9125C12.3968 13.97 12.1997 14 11.9996 14C11.604 14 11.2173 13.8827 10.8884 13.6629C10.5595 13.4432 10.3032 13.1308 10.1518 12.7654C10.0004 12.3999 9.96084 11.9978 10.038 11.6098C10.0511 11.5438 10.0675 11.4787 10.0871 11.4148L8.58647 9.91417ZM15.9847 11.6556L12.344 8.01485C13.2787 8.09559 14.1595 8.50304 14.828 9.17157C15.4965 9.84011 15.904 10.7209 15.9847 11.6556ZM18.5754 14.2463C19.0711 13.5734 19.5165 12.8215 19.8996 12C18.1696 8.29 15.1696 6 11.9996 6C11.494 6 10.9928 6.05824 10.5004 6.1712L8.89645 4.56729C9.89345 4.19567 10.9364 4 11.9996 4C16.0996 4 19.8996 6.91 21.9196 11.6C21.9746 11.7262 22.0031 11.8623 22.0031 12C22.0031 12.1377 21.9746 12.2738 21.9196 12.4C21.3941 13.62 20.7482 14.7195 20.0079 15.6788L18.5754 14.2463Z"
    />
    <rect
      x="3.30762"
      y="3.22266"
      width="2"
      height="24"
      rx="1"
      transform="rotate(-45 3.30762 3.22266)"
    />
  </symbol>
  <symbol id="show" width="24" height="24" viewBox="0 0 24 24" >
    <path d="M21.9196 11.6C19.8996 6.91 16.0996 4 11.9996 4C7.89958 4 4.09958 6.91 2.07958 11.6C2.02452 11.7262 1.99609 11.8623 1.99609 12C1.99609 12.1377 2.02452 12.2738 2.07958 12.4C4.09958 17.09 7.89958 20 11.9996 20C16.0996 20 19.8996 17.09 21.9196 12.4C21.9746 12.2738 22.0031 12.1377 22.0031 12C22.0031 11.8623 21.9746 11.7262 21.9196 11.6ZM11.9996 18C8.82958 18 5.82958 15.71 4.09958 12C5.82958 8.29 8.82958 6 11.9996 6C15.1696 6 18.1696 8.29 19.8996 12C18.1696 15.71 15.1696 18 11.9996 18ZM11.9996 8C11.2085 8 10.4351 8.2346 9.7773 8.67412C9.1195 9.11365 8.60681 9.73836 8.30406 10.4693C8.00131 11.2002 7.9221 12.0044 8.07644 12.7804C8.23078 13.5563 8.61174 14.269 9.17115 14.8284C9.73056 15.3878 10.4433 15.7688 11.2192 15.9231C11.9951 16.0775 12.7994 15.9983 13.5303 15.6955C14.2612 15.3928 14.8859 14.8801 15.3255 14.2223C15.765 13.5645 15.9996 12.7911 15.9996 12C15.9996 10.9391 15.5782 9.92172 14.828 9.17157C14.0779 8.42143 13.0604 8 11.9996 8ZM11.9996 14C11.604 14 11.2173 13.8827 10.8884 13.6629C10.5595 13.4432 10.3032 13.1308 10.1518 12.7654C10.0004 12.3999 9.96084 11.9978 10.038 11.6098C10.1152 11.2219 10.3057 10.8655 10.5854 10.5858C10.8651 10.3061 11.2214 10.1156 11.6094 10.0384C11.9974 9.96126 12.3995 10.0009 12.7649 10.1522C13.1304 10.3036 13.4428 10.56 13.6625 10.8889C13.8823 11.2178 13.9996 11.6044 13.9996 12C13.9996 12.5304 13.7889 13.0391 13.4138 13.4142C13.0387 13.7893 12.53 14 11.9996 14Z" />
  </symbol>
</svg>
