<svg xmlns="http://www.w3.org/2000/svg" >
  <symbol id="hide" width="24" height="24" viewBox="0 0 24 24">
    <path fill-rule="evenodd" clip-rule="evenodd" d="M4.92879 3.92888C4.53826 4.3194 4.53826 4.95257 4.92879 5.34309L6.50507 6.91938C3.79112 8.79701 2 11.4523 2 12C2 12.866 6.47715 19 12 19C13.8197 19 15.5259 18.3341 16.9958 17.4101L17.6567 18.071C18.0472 18.4615 18.6804 18.4615 19.0709 18.071C19.4614 17.6805 19.4614 17.0473 19.0709 16.6568L6.343 3.92888C5.95248 3.53836 5.31931 3.53836 4.92879 3.92888ZM14.6137 15.028L8.97197 9.38628C8.36632 10.0873 8 11.0009 8 12C8 14.2091 9.79086 16 12 16C12.9991 16 13.9127 15.6337 14.6137 15.028ZM13.5568 8.31427C14.5141 8.7191 15.2809 9.48594 15.6857 10.4432L20.0754 14.8329C21.2856 13.5325 22 12.3459 22 12C22 11.134 17.5228 5 12 5C11.4584 5 10.9269 5.05898 10.4087 5.16619L13.5568 8.31427Z" />
  </symbol>
  <symbol id="show" width="24" height="24" viewBox="0 0 24 24" >
    <path fill-rule="evenodd" clip-rule="evenodd" d="M22 12C22 12.866 17.5228 19 12 19C6.47715 19 2 12.866 2 12C2 11.134 6.47715 5 12 5C17.5228 5 22 11.134 22 12ZM16 12C16 14.2091 14.2091 16 12 16C9.79086 16 8 14.2091 8 12C8 9.79086 9.79086 8 12 8C14.2091 8 16 9.79086 16 12ZM11 14C12.1046 14 13 13.1046 13 12C13 10.8954 12.1046 10 11 10C9.89543 10 9 10.8954 9 12C9 13.1046 9.89543 14 11 14Z" />
  </symbol>
</svg>
