<svg width="28" height="28" viewBox="0 0 28 28" fill="none" xmlns="http://www.w3.org/2000/svg">
<path fill-rule="evenodd" clip-rule="evenodd" d="M1.75 4.15407C1.75 3.55071 1.75 3.24902 1.867 3.0062C1.9701 2.79221 2.13592 2.61084 2.3447 2.4837C2.58161 2.33943 2.89658 2.2966 3.52653 2.21095L12.5107 0.989449C13.3262 0.878573 13.7339 0.823136 14.0508 0.940188C14.3289 1.04294 14.5611 1.23371 14.7078 1.48018C14.875 1.76094 14.875 2.15148 14.875 2.93257V19.8174C14.875 20.5985 14.875 20.9891 14.7078 21.2698C14.5611 21.5163 14.3289 21.7071 14.0508 21.8098C13.7339 21.9269 13.3262 21.8714 12.5107 21.7605L3.52653 20.539C2.89658 20.4534 2.58161 20.4106 2.3447 20.2663C2.13592 20.1392 1.9701 19.9578 1.867 19.7438C1.75 19.501 1.75 19.1993 1.75 18.5959V4.15407ZM11.375 9.84718C11.375 9.66345 11.375 9.57158 11.4059 9.49896C11.433 9.43501 11.4766 9.38158 11.531 9.34549C11.5928 9.30451 11.6746 9.29619 11.838 9.27956H11.838L12.5698 9.20507C12.7624 9.18547 12.8587 9.17567 12.933 9.21163C12.9983 9.24321 13.0523 9.29839 13.0863 9.36835C13.125 9.44798 13.125 9.55622 13.125 9.7727V12.9773C13.125 13.1938 13.125 13.302 13.0863 13.3816C13.0523 13.4516 12.9983 13.5068 12.933 13.5384C12.8587 13.5743 12.7624 13.5645 12.5698 13.5449H12.5698L11.838 13.4704H11.838C11.6746 13.4538 11.5928 13.4455 11.531 13.4045C11.4766 13.3684 11.433 13.315 11.4059 13.251C11.375 13.1784 11.375 13.0866 11.375 12.9028V9.84718ZM17.3444 3.0625H16.1875V20.125H17.3444C18.0115 20.125 18.345 20.125 18.5997 19.9948C18.8238 19.8803 19.006 19.6976 19.1202 19.4729C19.25 19.2174 19.25 18.8829 19.25 18.214V4.9735C19.25 4.30459 19.25 3.97013 19.1202 3.71464C19.006 3.4899 18.8238 3.30719 18.5997 3.19268C18.345 3.0625 18.0115 3.0625 17.3444 3.0625Z" fill="url(#paint0_linear_7527_106179)"/>
<path d="M12.25 17.5C12.25 15.567 13.817 14 15.75 14H24.5C26.433 14 28 15.567 28 17.5V21.875C28 23.808 26.433 25.375 24.5 25.375H17.5944C16.9601 25.375 16.3377 25.5474 15.7937 25.8738L13.5752 27.2049C12.992 27.5548 12.25 27.1347 12.25 26.4546V17.5Z" fill="url(#paint1_linear_7527_106179)"/>
<path d="M15.8175 21.725C16.7916 21.725 17.3735 21.243 17.3735 20.4868V20.4843C17.3735 19.887 17.0146 19.5717 16.2277 19.4178L15.8457 19.3435C15.4458 19.264 15.2766 19.1487 15.2766 18.9385V18.9359C15.2766 18.7155 15.4766 18.5642 15.8149 18.5642C16.1559 18.5642 16.3866 18.718 16.425 18.9487L16.4302 18.9795H17.3018L17.2992 18.9487C17.2428 18.295 16.7378 17.8259 15.8098 17.8259C14.9587 17.8259 14.3435 18.2925 14.3409 19.0179V19.0205C14.3409 19.5973 14.6793 19.9664 15.4612 20.1177L15.8431 20.192C16.2764 20.2766 16.4404 20.374 16.4404 20.5817V20.5842C16.4404 20.8201 16.1995 20.9867 15.8329 20.9867C15.4535 20.9867 15.1997 20.8226 15.1741 20.5945L15.1715 20.5714H14.2743L14.2769 20.6176C14.3153 21.3046 14.8947 21.725 15.8175 21.725ZM17.9812 21.625H18.8092V19.2692H18.8605L19.7013 21.625H20.237L21.0779 19.2692H21.1317V21.625H21.9571V17.9259H20.8882L19.9961 20.4355H19.9474L19.0527 17.9259H17.9812V21.625ZM24.108 21.725C25.0821 21.725 25.664 21.243 25.664 20.4868V20.4843C25.664 19.887 25.3051 19.5717 24.5181 19.4178L24.1362 19.3435C23.7363 19.264 23.5671 19.1487 23.5671 18.9385V18.9359C23.5671 18.7155 23.7671 18.5642 24.1054 18.5642C24.4464 18.5642 24.6771 18.718 24.7155 18.9487L24.7207 18.9795H25.5922L25.5897 18.9487C25.5333 18.295 25.0283 17.8259 24.1003 17.8259C23.2492 17.8259 22.634 18.2925 22.6314 19.0179V19.0205C22.6314 19.5973 22.9698 19.9664 23.7517 20.1177L24.1336 20.192C24.5669 20.2766 24.7309 20.374 24.7309 20.5817V20.5842C24.7309 20.8201 24.49 20.9867 24.1234 20.9867C23.744 20.9867 23.4902 20.8226 23.4646 20.5945L23.462 20.5714H22.5648L22.5673 20.6176C22.6058 21.3046 23.1851 21.725 24.108 21.725Z" fill="#FFEAFE"/>
<defs>
<linearGradient id="paint0_linear_7527_106179" x1="-3.66667" y1="15.3979" x2="17.8892" y2="6.58598" gradientUnits="userSpaceOnUse">
<stop stop-color="#4B2EFB"/>
<stop offset="1" stop-color="#E65FFC"/>
</linearGradient>
<linearGradient id="paint1_linear_7527_106179" x1="31.5" y1="12.6875" x2="11.8125" y2="27.125" gradientUnits="userSpaceOnUse">
<stop stop-color="#F085F2"/>
<stop offset="1" stop-color="#FAC89E"/>
</linearGradient>
</defs>
</svg>
