<?xml version="1.0" encoding="UTF-8" standalone="no"?><!DOCTYPE svg PUBLIC "-//W3C//DTD SVG 1.1//EN" "http://www.w3.org/Graphics/SVG/1.1/DTD/svg11.dtd"><svg width="100%" height="100%" viewBox="0 0 100 100" version="1.1" xmlns="http://www.w3.org/2000/svg" xmlns:xlink="http://www.w3.org/1999/xlink" xml:space="preserve" xmlns:serif="http://www.serif.com/" style="fill-rule:evenodd;clip-rule:evenodd;"><g><g><path d="M95.833,17.917l0,64.167c0,7.589 -6.161,13.75 -13.75,13.75l-64.167,0c-7.589,0 -13.75,-6.161 -13.75,-13.75l-0,-64.167c0,-7.589 6.161,-13.75 13.75,-13.75l64.167,-0c7.589,0 13.75,6.161 13.75,13.75Z" style="fill:#25d366;"/><path d="M26.188,74.528l2.507,-11.637c-2.508,-3.956 -3.84,-8.545 -3.84,-13.23c0,-13.554 11.153,-24.707 24.707,-24.707c13.554,0 24.707,11.153 24.707,24.707c0,13.554 -11.153,24.707 -24.707,24.707c-4.166,0 -8.265,-1.054 -11.915,-3.063l-11.458,3.223Z" style="fill:#25d366;fill-rule:nonzero;stroke:#fff;stroke-width:4.65px;"/><path d="M59.31,53.044c-0.537,-0.358 -1.074,-0.537 -1.611,0.179l-2.148,2.865c-0.537,0.358 -0.895,0.537 -1.611,0.179c-2.686,-1.432 -6.445,-3.044 -9.668,-8.415c-0.179,-0.716 0.179,-1.074 0.537,-1.432l1.611,-2.507c0.358,-0.358 0.179,-0.716 0,-1.074l-2.148,-5.192c-0.537,-1.432 -1.074,-1.253 -1.611,-1.253l-1.432,0c-0.358,0 -1.074,0.179 -1.79,0.895c-3.939,3.939 -2.327,9.489 0.537,13.07c0.537,0.716 4.118,7.161 11.816,10.563c5.729,2.507 6.982,2.148 8.594,1.79c1.969,-0.179 3.939,-1.79 4.834,-3.402c0.179,-0.537 1.074,-2.865 0.358,-3.223" style="fill:#fff;fill-rule:nonzero;"/></g></g></svg>