<svg  viewBox="0 0 18 18" fill="none" xmlns="http://www.w3.org/2000/svg">
 <path fill-rule="evenodd" clip-rule="evenodd" d="M14.2463 2.20996H3.75244C2.90015 2.20996 2.20923 2.90088 2.20923 3.75317V14.247C2.20923 15.0993 2.90015 15.7902 3.75244 15.7902H14.2463C15.0986 15.7902 15.7895 15.0993 15.7895 14.247V3.75317C15.7895 2.90088 15.0986 2.20996 14.2463 2.20996ZM3.75244 0.666748C2.04785 0.666748 0.666016 2.04859 0.666016 3.75317V14.247C0.666016 15.9516 2.04786 17.3334 3.75244 17.3334H14.2463C15.9508 17.3334 17.3327 15.9516 17.3327 14.247V3.75317C17.3327 2.04859 15.9508 0.666748 14.2463 0.666748H3.75244Z" fill="currentcolor"/>
  <rect width="18" height="18" rx="4" fill="currentcolor"/>
  <path fill-rule="evenodd" clip-rule="evenodd" d="M7.31476 12.858L4.13295 9.441C3.95568 9.253 3.95568 8.947 4.13295 8.757L4.77568 8.074C4.95295 7.886 5.24113 7.886 5.4184 8.074L7.63657 10.466L12.5811 5.141C12.7584 4.953 13.0465 4.953 13.2238 5.141L13.8665 5.825C14.0438 6.013 14.0438 6.32 13.8665 6.507L7.95748 12.858C7.78021 13.046 7.49203 13.046 7.31476 12.858Z" fill="white"/>
</svg>
