<svg width="24" height="24" viewBox="0 0 24 24" fill="none" xmlns="http://www.w3.org/2000/svg">
<path d="M0 4.8C0 2.14903 2.14903 0 4.8 0H19.2C21.851 0 24 2.14903 24 4.8V19.2C24 21.851 21.851 24 19.2 24H4.8C2.14903 24 0 21.851 0 19.2V4.8Z" fill="#5865F2"/>
<path d="M17.8219 7.06149C16.7511 6.57017 15.6029 6.20819 14.4023 6.00087C14.3804 5.99687 14.3586 6.00687 14.3473 6.02687C14.1997 6.28952 14.0361 6.63217 13.9215 6.90149C12.6303 6.70817 11.3456 6.70817 10.0808 6.90149C9.96623 6.62618 9.79671 6.28952 9.64838 6.02687C9.63711 6.00754 9.61527 5.99754 9.59341 6.00087C8.39351 6.20753 7.24527 6.56951 6.17383 7.06149C6.16455 7.06549 6.1566 7.07216 6.15133 7.08082C3.97335 10.3347 3.37671 13.5085 3.6694 16.6431C3.67073 16.6584 3.67933 16.6731 3.69125 16.6824C5.12822 17.7377 6.52017 18.3783 7.88627 18.803C7.90813 18.8096 7.9313 18.8016 7.94521 18.7836C8.26836 18.3423 8.55643 17.877 8.80341 17.3877C8.81798 17.359 8.80407 17.325 8.77428 17.3137C8.31737 17.1404 7.8823 16.9291 7.46379 16.6891C7.43068 16.6697 7.42803 16.6224 7.45849 16.5997C7.54656 16.5337 7.63465 16.4651 7.71874 16.3957C7.73396 16.3831 7.75516 16.3804 7.77305 16.3884C10.5225 17.6437 13.4991 17.6437 16.216 16.3884C16.2339 16.3797 16.2551 16.3824 16.271 16.3951C16.3551 16.4644 16.4432 16.5337 16.5319 16.5997C16.5624 16.6224 16.5604 16.6697 16.5273 16.6891C16.1088 16.9337 15.6737 17.1404 15.2161 17.313C15.1863 17.3244 15.1731 17.359 15.1877 17.3877C15.44 17.8763 15.728 18.3417 16.0452 18.783C16.0585 18.8016 16.0823 18.8096 16.1041 18.803C17.4769 18.3783 18.8688 17.7377 20.3058 16.6824C20.3184 16.6731 20.3263 16.6591 20.3276 16.6437C20.6779 13.0199 19.7409 9.87203 17.8437 7.08148C17.8391 7.07216 17.8312 7.06549 17.8219 7.06149ZM9.21399 14.7345C8.38622 14.7345 7.70417 13.9745 7.70417 13.0412C7.70417 12.1079 8.373 11.348 9.21399 11.348C10.0616 11.348 10.737 12.1146 10.7238 13.0412C10.7238 13.9745 10.055 14.7345 9.21399 14.7345ZM14.7963 14.7345C13.9686 14.7345 13.2865 13.9745 13.2865 13.0412C13.2865 12.1079 13.9553 11.348 14.7963 11.348C15.6439 11.348 16.3194 12.1146 16.3061 13.0412C16.3061 13.9745 15.6439 14.7345 14.7963 14.7345Z" fill="white"/>
</svg>
