<svg width="48" height="48" viewBox="0 0 48 48" fill="none" xmlns="http://www.w3.org/2000/svg">
<g clip-path="url(#clip0_129_35349)">
<path d="M19.3484 33.2862C19.3484 33.2862 18.0415 34.081 20.2568 34.3084C22.9237 34.6484 24.3443 34.5921 27.2959 34.0247C27.8891 34.388 28.5165 34.6922 29.1691 34.9331C22.5285 37.7721 14.1252 34.7631 19.3484 33.2862ZM18.4984 29.5962C18.4984 29.5962 17.0789 30.6746 19.2932 30.9031C22.1885 31.1867 24.459 31.2431 28.3775 30.4494C28.7586 30.8359 29.2252 31.1274 29.7397 31.3004C21.7348 33.6847 12.7652 31.5267 18.4984 29.5962ZM34.1671 36.0668C34.1671 36.0668 35.1319 36.8616 33.0887 37.4863C29.2849 38.6232 17.1363 38.9632 13.7299 37.4863C12.5378 36.9763 14.8083 36.2379 15.5362 36.1242C16.2746 35.9542 16.673 35.9542 16.673 35.9542C15.3662 35.0457 7.9871 37.8274 12.9267 38.6211C26.4948 40.8353 37.6787 37.6563 34.1586 36.0668H34.1671ZM19.9625 25.7351C19.9625 25.7351 13.7745 27.2119 17.7483 27.7219C19.4515 27.9493 22.8005 27.8919 25.9232 27.6656C28.4774 27.4382 31.0338 26.9856 31.0338 26.9856C31.0338 26.9856 30.1253 27.383 29.5006 27.7804C23.2 29.4272 11.1066 28.6888 14.5703 26.9856C17.522 25.5661 19.9636 25.7372 19.9636 25.7372L19.9625 25.7351ZM31.0338 31.9231C37.3918 28.6293 34.4402 25.4524 32.3959 25.8487C31.8859 25.9624 31.6575 26.0761 31.6575 26.0761C31.6575 26.0761 31.8275 25.7361 32.2248 25.6224C36.256 24.2029 39.435 29.8799 30.918 32.0931C30.918 32.0931 30.9743 32.0367 31.0317 31.9231H31.0338ZM20.5894 40.8927C26.72 41.2901 36.0881 40.6653 36.3144 37.7689C36.3144 37.7689 35.8607 38.9058 31.2622 39.7558C26.039 40.7206 19.5673 40.6058 15.7635 39.9832C15.7635 39.9832 16.5583 40.6642 20.5894 40.8927Z" fill="#4E7896"/>
<path d="M27.1834 7.00104C27.1834 7.00104 30.7034 10.5774 23.8344 15.9707C18.3274 20.3418 22.5859 22.8397 23.8344 25.6787C20.598 22.7834 18.2711 20.2281 19.8606 17.8449C22.1875 14.3238 28.6029 12.6312 27.1834 7.00104ZM25.3771 23.2945C27.024 25.1677 24.9234 26.8708 24.9234 26.8708C24.9234 26.8708 29.1245 24.714 27.194 22.045C25.4345 19.4907 24.0702 18.2412 31.4514 13.9838C31.4514 13.9838 19.8139 16.8791 25.3771 23.2945Z" fill="#F58219"/>
</g>
<defs>
<clipPath id="clip0_129_35349">
<rect width="34" height="34" fill="white" transform="translate(7 7)"/>
</clipPath>
</defs>
</svg>
