<svg width="48" height="48" viewBox="0 0 48 48" fill="none" xmlns="http://www.w3.org/2000/svg">
<path d="M23.885 8C15.761 8 16.268 11.523 16.268 11.523L16.278 15.173H24.03V16.268H13.197C13.197 16.268 8 15.678 8 23.876C8 32.072 12.537 31.782 12.537 31.782H15.245V27.978C15.245 27.978 15.099 23.441 19.71 23.441H27.398C27.398 23.441 31.718 23.511 31.718 19.266V12.247C31.718 12.247 32.374 8 23.885 8ZM19.61 10.454C20.381 10.454 21.005 11.078 21.005 11.849C21.005 12.62 20.381 13.244 19.61 13.244C19.4267 13.2443 19.2452 13.2084 19.0758 13.1383C18.9065 13.0683 18.7526 12.9656 18.623 12.836C18.4934 12.7064 18.3907 12.5525 18.3207 12.3832C18.2506 12.2138 18.2147 12.0323 18.215 11.849C18.215 11.078 18.839 10.454 19.61 10.454Z" fill="url(#paint0_linear_129_42168)"/>
<path d="M24.115 39.833C32.239 39.833 31.732 36.31 31.732 36.31L31.722 32.66H23.97V31.565H34.802C34.802 31.565 40 32.155 40 23.958C40 15.761 35.463 16.052 35.463 16.052H32.755V19.855C32.755 19.855 32.901 24.392 28.29 24.392H20.602C20.602 24.392 16.282 24.322 16.282 28.567V35.586C16.282 35.586 15.626 39.833 24.115 39.833ZM28.39 37.379C28.2068 37.3793 28.0252 37.3434 27.8559 37.2734C27.6865 37.2033 27.5326 37.1006 27.403 36.971C27.2734 36.8414 27.1707 36.6875 27.1007 36.5182C27.0307 36.3488 26.9948 36.1673 26.995 35.984C26.995 35.214 27.619 34.59 28.39 34.59C29.161 34.59 29.785 35.213 29.785 35.984C29.785 36.756 29.161 37.379 28.39 37.379Z" fill="url(#paint1_linear_129_42168)"/>
<defs>
<linearGradient id="paint0_linear_129_42168" x1="11.075" y1="10.782" x2="26.898" y2="26.658" gradientUnits="userSpaceOnUse">
<stop stop-color="#387EB8"/>
<stop offset="1" stop-color="#366994"/>
</linearGradient>
<linearGradient id="paint1_linear_129_42168" x1="20.809" y1="20.882" x2="37.803" y2="37.163" gradientUnits="userSpaceOnUse">
<stop stop-color="#FFE052"/>
<stop offset="1" stop-color="#FFC331"/>
</linearGradient>
</defs>
</svg>
