<svg width="40" height="40" viewBox="0 0 40 40" fill="none" xmlns="http://www.w3.org/2000/svg">
<g clip-path="url(#clip0_9133_88406)">
<path d="M36.3779 2.13434C35.8181 3.47644 35.1014 4.74754 34.2428 5.92112C32.3684 4.03887 30.1385 2.54803 27.6828 1.53527C25.227 0.522503 22.5945 0.00802741 19.9381 0.0217519C17.2818 0.0354764 14.6547 0.577127 12.2096 1.61521C9.76445 2.6533 7.55008 4.1671 5.69521 6.06862C3.84034 7.97013 2.38198 10.2214 1.40494 12.6916C0.427886 15.1617 -0.0483634 17.8015 0.00387615 20.4573C0.0561157 23.1132 0.635802 25.7321 1.70923 28.162C2.78266 30.5918 4.32842 32.784 6.25663 34.6111L6.99725 35.2649C9.82352 37.6463 13.2535 39.1995 16.9077 39.7526C20.5619 40.3057 24.2978 39.8371 27.7023 38.3988C31.1067 36.9604 34.0469 34.6083 36.1975 31.6027C38.3481 28.597 39.6254 25.0551 39.888 21.3686C40.4344 16.2667 38.9363 9.80968 36.3785 2.13497L36.3779 2.13434ZM9.10732 34.7272C8.89406 34.9907 8.60743 35.1851 8.28369 35.2856C7.95995 35.3862 7.61365 35.3885 7.28861 35.2922C6.96358 35.1959 6.67441 35.0054 6.45769 34.7447C6.24097 34.484 6.10644 34.1649 6.07112 33.8278C6.03581 33.4906 6.10129 33.1505 6.25929 32.8506C6.41729 32.5507 6.6607 32.3044 6.95873 32.1428C7.25676 31.9812 7.59601 31.9117 7.93356 31.943C8.27112 31.9743 8.5918 32.1051 8.85504 32.3187C9.20764 32.6048 9.43226 33.0191 9.47956 33.4707C9.52686 33.9223 9.39298 34.3743 9.10732 34.7272ZM36.2954 28.7261C31.3496 35.3142 20.7899 33.0911 14.0194 33.4108C14.0194 33.4108 12.8192 33.4814 11.6108 33.6794C11.6108 33.6794 12.0667 33.4858 12.6493 33.2653C17.404 31.6105 19.6515 31.292 22.5396 29.8058C27.9775 27.0413 33.3567 20.987 34.4745 14.6937C32.4056 20.7479 26.1235 25.9541 20.4052 28.0685C16.486 29.5129 9.40582 30.9198 9.40582 30.9198L9.12044 30.7668C4.30329 28.4251 4.15466 17.9921 12.9153 14.6275C16.7514 13.15 20.4214 13.9612 24.5642 12.9726C28.9879 11.9216 34.106 8.60758 36.1887 4.28251C38.5179 11.2016 41.3243 22.0312 36.2923 28.7305L36.2954 28.7261Z" fill="#68BD45"/>
</g>
<defs>
<clipPath id="clip0_9133_88406">
<rect width="40" height="40" fill="white"/>
</clipPath>
</defs>
</svg>
