<?xml version="1.0" encoding="UTF-8"?>
<svg xmlns="http://www.w3.org/2000/svg" viewBox="0 0 1000 1000">
  <rect width="1000" height="1000" rx="180" fill="#1f7ae0" />
  <path
    fill="#fff"
    d="M250 270h500c70 0 125 55 125 125v210c0 70-55 125-125 125H430L282 845c-27 21-67 2-67-32V730h-10c-70 0-125-55-125-125V395c0-70 55-125 125-125h45Zm0 95h-45c-18 0-30 12-30 30v210c0 18 12 30 30 30h105v76l87-76h353c18 0 30-12 30-30V395c0-18-12-30-30-30H250Zm60 95h380c26 0 47 21 47 47s-21 47-47 47H310c-26 0-47-21-47-47s21-47 47-47Z"
  />
</svg>
