<svg width="24" height="24" viewBox="0 0 24 24" fill="none" xmlns="http://www.w3.org/2000/svg">
<path d="M2 10.0413C2 9.38868 2.31842 8.7771 2.85308 8.40285L11.4265 2.40142C11.7709 2.1604 12.2291 2.1604 12.5735 2.40142L21.1469 8.40285C21.6816 8.7771 22 9.38868 22 10.0413V18C22 20.2091 20.2091 22 18 22H6C3.79086 22 2 20.2091 2 18V10.0413Z" fill="#F7F8F8"/>
<path d="M2 10.0413C2 9.38868 2.31842 8.7771 2.85308 8.40285L11.4265 2.40142C11.7709 2.1604 12.2291 2.1604 12.5735 2.40142L21.1469 8.40285C21.6816 8.7771 22 9.38868 22 10.0413V18C22 20.2091 20.2091 22 18 22H6C3.79086 22 2 20.2091 2 18V10.0413Z" fill="#78767F" fill-opacity="0.02"/>
<path d="M2 10.0413C2 9.38868 2.31842 8.7771 2.85308 8.40285L11.4265 2.40142C11.7709 2.1604 12.2291 2.1604 12.5735 2.40142L21.1469 8.40285C21.6816 8.7771 22 9.38868 22 10.0413V18C22 20.2091 20.2091 22 18 22H6C3.79086 22 2 20.2091 2 18V10.0413Z" fill="#5D34F2" fill-opacity="0.16"/>
<path fill-rule="evenodd" clip-rule="evenodd" d="M11 6.5C11 6.22386 11.2239 6 11.5 6H12.5C12.7761 6 13 6.22386 13 6.5V9H11V6.5ZM11 15.5C11 15.7761 11.2239 16 11.5 16H12.5C12.7761 16 13 15.7761 13 15.5V13H11V15.5ZM7.5 12C7.22386 12 7 11.7761 7 11.5V10.5C7 10.2239 7.22386 10 7.5 10H10V12H7.5ZM16.5 12C16.7761 12 17 11.7761 17 11.5V10.5C17 10.2239 16.7761 10 16.5 10H14V12H16.5Z" fill="#E67EF7"/>
<path fill-rule="evenodd" clip-rule="evenodd" d="M8.11167 8.52513C7.91641 8.32986 7.91641 8.01328 8.11167 7.81802L8.81877 7.11091C9.01404 6.91565 9.33062 6.91565 9.52588 7.11091L11.2936 8.87868L9.87943 10.2929L8.11167 8.52513ZM14.4756 14.8891C14.6709 15.0843 14.9875 15.0843 15.1827 14.8891L15.8898 14.182C16.0851 13.9867 16.0851 13.6701 15.8898 13.4749L14.1221 11.7071L12.7079 13.1213L14.4756 14.8891ZM9.52588 14.8891C9.33062 15.0843 9.01404 15.0843 8.81877 14.8891L8.11167 14.182C7.91641 13.9867 7.91641 13.6701 8.11167 13.4749L9.87943 11.7071L11.2936 13.1213L9.52588 14.8891ZM15.8898 8.52513C16.0851 8.32986 16.0851 8.01328 15.8898 7.81802L15.1827 7.11091C14.9875 6.91565 14.6709 6.91565 14.4756 7.11091L12.7079 8.87868L14.1221 10.2929L15.8898 8.52513Z" fill="#E67EF7"/>
<path fill-rule="evenodd" clip-rule="evenodd" d="M12 15C14.2091 15 16 13.2091 16 11C16 8.79086 14.2091 7 12 7C9.79086 7 8 8.79086 8 11C8 13.2091 9.79086 15 12 15ZM12 13C13.1046 13 14 12.1046 14 11C14 9.89543 13.1046 9 12 9C10.8954 9 10 9.89543 10 11C10 12.1046 10.8954 13 12 13Z" fill="#F099FE"/>
<path d="M2 9.92066C2 9.11163 2.91069 8.63748 3.57346 9.10142L11.4265 14.5986C11.7709 14.8396 12.2291 14.8396 12.5735 14.5986L20.4265 9.10142C21.0893 8.63748 22 9.11163 22 9.92066V20C22 21.1046 21.1046 22 20 22H4C2.89543 22 2 21.1046 2 20V9.92066Z" fill="#7958FF"/>
<path d="M3.58661 22C2.67257 22 2.23761 20.8749 2.91393 20.2601L11.3273 12.6115C11.7087 12.2648 12.2913 12.2648 12.6727 12.6115L21.0861 20.2601C21.7624 20.8749 21.3274 22 20.4134 22H3.58661Z" fill="#957BFF"/>
</svg>
