<svg width="40" height="40" viewBox="0 0 40 40" fill="none" xmlns="http://www.w3.org/2000/svg">
<mask id="mask0_11277_22271" style="mask-type:luminance" maskUnits="userSpaceOnUse" x="8" y="8" width="32" height="32">
<path fill-rule="evenodd" clip-rule="evenodd" d="M8.1521 39.9442L37.7226 37.9374L40 8.12012L30.9897 26.3832L8.1521 39.9442Z" fill="white"/>
</mask>
<g mask="url(#mask0_11277_22271)">
<path fill-rule="evenodd" clip-rule="evenodd" d="M8.1521 39.9442L37.7226 37.9374L40 8.12012L30.9897 26.3832L8.1521 39.9442Z" fill="url(#paint0_linear_11277_22271)"/>
</g>
<mask id="mask1_11277_22271" style="mask-type:luminance" maskUnits="userSpaceOnUse" x="28" y="20" width="10" height="18">
<path fill-rule="evenodd" clip-rule="evenodd" d="M28.3066 29.5157L37.7711 37.9164L35.2294 20.374L28.3066 29.5157Z" fill="white"/>
</mask>
<g mask="url(#mask1_11277_22271)">
<path fill-rule="evenodd" clip-rule="evenodd" d="M28.3066 29.5147L37.7711 37.9154L35.2294 20.373L28.3066 29.5147Z" fill="url(#paint1_linear_11277_22271)"/>
</g>
<mask id="mask2_11277_22271" style="mask-type:luminance" maskUnits="userSpaceOnUse" x="8" y="36" width="30" height="4">
<path fill-rule="evenodd" clip-rule="evenodd" d="M8.25122 39.9074L37.8057 37.9188L19.1855 36.457L8.25122 39.9074Z" fill="white"/>
</mask>
<g mask="url(#mask2_11277_22271)">
<path fill-rule="evenodd" clip-rule="evenodd" d="M8.25122 39.9074L37.8057 37.9188L19.1855 36.457L8.25122 39.9074Z" fill="url(#paint2_linear_11277_22271)"/>
</g>
<mask id="mask3_11277_22271" style="mask-type:luminance" maskUnits="userSpaceOnUse" x="2" y="24" width="11" height="16">
<path fill-rule="evenodd" clip-rule="evenodd" d="M2.69312 26.8594L8.27737 39.9096L12.9288 24.6709L2.69312 26.8594Z" fill="white"/>
</mask>
<g mask="url(#mask3_11277_22271)">
<path fill-rule="evenodd" clip-rule="evenodd" d="M2.69312 26.8584L8.27737 39.9087L12.9288 24.6699L2.69312 26.8584Z" fill="url(#paint3_linear_11277_22271)"/>
</g>
<mask id="mask4_11277_22271" style="mask-type:luminance" maskUnits="userSpaceOnUse" x="11" y="12" width="18" height="18">
<path fill-rule="evenodd" clip-rule="evenodd" d="M11.7761 24.2843L28.3047 29.5678L24.0248 12.8027L11.7761 24.2843Z" fill="white"/>
</mask>
<g mask="url(#mask4_11277_22271)">
<path fill-rule="evenodd" clip-rule="evenodd" d="M11.7761 24.2853L28.3047 29.5688L24.0248 12.8037L11.7761 24.2853Z" fill="url(#paint4_linear_11277_22271)"/>
</g>
<mask id="mask5_11277_22271" style="mask-type:luminance" maskUnits="userSpaceOnUse" x="24" y="3" width="16" height="12">
<path fill-rule="evenodd" clip-rule="evenodd" d="M24.2263 14.0076L39.0287 13.0405L27.4504 3.58398L24.2263 14.0076Z" fill="white"/>
</mask>
<g mask="url(#mask5_11277_22271)">
<path fill-rule="evenodd" clip-rule="evenodd" d="M24.2263 14.0086L39.0287 13.0415L27.4504 3.58496L24.2263 14.0086Z" fill="url(#paint5_linear_11277_22271)"/>
</g>
<mask id="mask6_11277_22271" style="mask-type:luminance" maskUnits="userSpaceOnUse" x="22" y="0" width="12" height="4">
<path fill-rule="evenodd" clip-rule="evenodd" d="M22.5085 0.161133L33.6145 0.211606L26.8048 3.97489L22.5085 0.161133Z" fill="white"/>
</mask>
<g mask="url(#mask6_11277_22271)">
<path fill-rule="evenodd" clip-rule="evenodd" d="M22.5085 0.161133L33.6145 0.211606L26.8048 3.97489L22.5085 0.161133Z" fill="url(#paint6_linear_11277_22271)"/>
</g>
<mask id="mask7_11277_22271" style="mask-type:luminance" maskUnits="userSpaceOnUse" x="0" y="20" width="3" height="12">
<path fill-rule="evenodd" clip-rule="evenodd" d="M0.545039 20.5723L0 31.973L2.85266 26.7703L0.545039 20.5723Z" fill="white"/>
</mask>
<g mask="url(#mask7_11277_22271)">
<path fill-rule="evenodd" clip-rule="evenodd" d="M0.545039 20.5723L0 31.973L2.85266 26.7703L0.545039 20.5723Z" fill="url(#paint7_linear_11277_22271)"/>
</g>
<path fill-rule="evenodd" clip-rule="evenodd" d="M0.391602 20.376L2.71332 26.9617L12.8016 24.6985L24.3194 13.9942L27.5698 3.6695L22.4519 0.0556641L13.7505 3.31215C11.0089 5.86211 5.68909 10.9073 5.49736 11.0023C5.3076 11.0992 1.98443 17.38 0.391602 20.376Z" fill="white"/>
<mask id="mask8_11277_22271" style="mask-type:luminance" maskUnits="userSpaceOnUse" x="1" y="1" width="26" height="25">
<path fill-rule="evenodd" clip-rule="evenodd" d="M8.54401 8.54622C14.4856 2.6551 22.1452 -0.825559 25.0847 2.14021C28.0222 5.10608 24.907 12.3135 18.9655 18.2027C13.0239 24.0919 5.4592 27.7643 2.52167 24.7985C-0.41783 21.8348 2.60241 14.4355 8.54401 8.54622Z" fill="white"/>
</mask>
<g mask="url(#mask8_11277_22271)">
<path fill-rule="evenodd" clip-rule="evenodd" d="M8.54401 8.54622C14.4856 2.6551 22.1452 -0.825559 25.0847 2.14021C28.0222 5.10608 24.907 12.3135 18.9655 18.2027C13.0239 24.0919 5.4592 27.7643 2.52167 24.7985C-0.41783 21.8348 2.60241 14.4355 8.54401 8.54622Z" fill="url(#paint8_linear_11277_22271)"/>
</g>
<mask id="mask9_11277_22271" style="mask-type:luminance" maskUnits="userSpaceOnUse" x="8" y="24" width="21" height="16">
<path fill-rule="evenodd" clip-rule="evenodd" d="M8.27734 39.9053L12.8925 24.6182L28.2198 29.5422C22.6779 34.7389 16.5143 39.1321 8.27734 39.9053Z" fill="white"/>
</mask>
<g mask="url(#mask9_11277_22271)">
<path fill-rule="evenodd" clip-rule="evenodd" d="M8.27734 39.9053L12.8925 24.6182L28.2198 29.5422C22.6779 34.7389 16.5143 39.1321 8.27734 39.9053Z" fill="url(#paint9_linear_11277_22271)"/>
</g>
<mask id="mask10_11277_22271" style="mask-type:luminance" maskUnits="userSpaceOnUse" x="24" y="12" width="16" height="18">
<path fill-rule="evenodd" clip-rule="evenodd" d="M24.3396 13.9629L28.2743 29.5488C32.9037 24.6812 37.0586 19.4482 39.0935 12.9756L24.3396 13.9629Z" fill="white"/>
</mask>
<g mask="url(#mask10_11277_22271)">
<path fill-rule="evenodd" clip-rule="evenodd" d="M24.3396 13.9629L28.2743 29.5488C32.9037 24.6812 37.0586 19.4482 39.0935 12.9756L24.3396 13.9629Z" fill="url(#paint10_linear_11277_22271)"/>
</g>
<mask id="mask11_11277_22271" style="mask-type:luminance" maskUnits="userSpaceOnUse" x="27" y="0" width="13" height="14">
<path fill-rule="evenodd" clip-rule="evenodd" d="M39.0533 13.055C40.628 8.30249 40.9913 1.48461 33.5659 0.21875L27.4729 3.58426L39.0533 13.055Z" fill="white"/>
</mask>
<g mask="url(#mask11_11277_22271)">
<path fill-rule="evenodd" clip-rule="evenodd" d="M39.0533 13.055C40.628 8.30249 40.9913 1.48461 33.5659 0.21875L27.4729 3.58426L39.0533 13.055Z" fill="url(#paint11_linear_11277_22271)"/>
</g>
<path fill-rule="evenodd" clip-rule="evenodd" d="M0 31.9043C0.217956 39.7478 5.87694 39.8649 8.28747 39.9335L2.71938 26.9297L0 31.9043Z" fill="#9E1209"/>
<mask id="mask12_11277_22271" style="mask-type:luminance" maskUnits="userSpaceOnUse" x="24" y="13" width="15" height="8">
<path fill-rule="evenodd" clip-rule="evenodd" d="M24.3618 13.9878C27.919 16.1742 35.0881 20.5654 35.2335 20.6462C35.4596 20.7734 38.3243 15.8149 38.9745 13.0127L24.3618 13.9878Z" fill="white"/>
</mask>
<g mask="url(#mask12_11277_22271)">
<path fill-rule="evenodd" clip-rule="evenodd" d="M24.3618 13.9878C27.919 16.1742 35.0881 20.5654 35.2335 20.6462C35.4596 20.7734 38.3243 15.8149 38.9745 13.0127L24.3618 13.9878Z" fill="url(#paint12_radial_11277_22271)"/>
</g>
<mask id="mask13_11277_22271" style="mask-type:luminance" maskUnits="userSpaceOnUse" x="12" y="24" width="17" height="13">
<path fill-rule="evenodd" clip-rule="evenodd" d="M12.8865 24.6182L19.0562 36.5217C22.7044 34.5431 25.5611 32.1325 28.1775 29.5503L12.8865 24.6182Z" fill="white"/>
</mask>
<g mask="url(#mask13_11277_22271)">
<path fill-rule="evenodd" clip-rule="evenodd" d="M12.8865 24.6182L19.0562 36.5217C22.7044 34.5431 25.5611 32.1325 28.1775 29.5503L12.8865 24.6182Z" fill="url(#paint13_radial_11277_22271)"/>
</g>
<mask id="mask14_11277_22271" style="mask-type:luminance" maskUnits="userSpaceOnUse" x="1" y="26" width="8" height="14">
<path fill-rule="evenodd" clip-rule="evenodd" d="M2.69514 26.944L1.82104 37.3535C3.47045 39.6067 5.73963 39.8024 8.1199 39.6269C6.39783 35.3407 2.95765 26.7704 2.69514 26.944Z" fill="white"/>
</mask>
<g mask="url(#mask14_11277_22271)">
<path fill-rule="evenodd" clip-rule="evenodd" d="M2.69514 26.943L1.82104 37.3526C3.47045 39.6057 5.73963 39.8015 8.1199 39.6259C6.39783 35.3398 2.95765 26.7694 2.69514 26.943Z" fill="url(#paint14_linear_11277_22271)"/>
</g>
<mask id="mask15_11277_22271" style="mask-type:luminance" maskUnits="userSpaceOnUse" x="27" y="0" width="13" height="6">
<path fill-rule="evenodd" clip-rule="evenodd" d="M27.4365 3.60978L39.6931 5.3299C39.039 2.55793 37.0303 0.769204 33.6062 0.209961L27.4365 3.60978Z" fill="white"/>
</mask>
<g mask="url(#mask15_11277_22271)">
<path fill-rule="evenodd" clip-rule="evenodd" d="M27.4365 3.6088L39.6931 5.32892C39.039 2.55696 37.0303 0.768227 33.6062 0.208984L27.4365 3.6088Z" fill="url(#paint15_linear_11277_22271)"/>
</g>
<defs>
<linearGradient id="paint0_linear_11277_22271" x1="35.1426" y1="43.5712" x2="26.7035" y2="28.6717" gradientUnits="userSpaceOnUse">
<stop stop-color="#FB7655"/>
<stop offset="0.41" stop-color="#E42B1E"/>
<stop offset="0.99001" stop-color="#990000"/>
<stop offset="1" stop-color="#990000"/>
</linearGradient>
<linearGradient id="paint1_linear_11277_22271" x1="39.3467" y1="31.0544" x2="28.4711" y2="23.7563" gradientUnits="userSpaceOnUse">
<stop stop-color="#871101"/>
<stop offset="0.99001" stop-color="#911209"/>
<stop offset="1" stop-color="#911209"/>
</linearGradient>
<linearGradient id="paint2_linear_11277_22271" x1="30.6454" y1="44.0246" x2="19.7698" y2="36.7265" gradientUnits="userSpaceOnUse">
<stop stop-color="#871101"/>
<stop offset="0.99001" stop-color="#911209"/>
<stop offset="1" stop-color="#911209"/>
</linearGradient>
<linearGradient id="paint3_linear_11277_22271" x1="7.81228" y1="25.7725" x2="9.49829" y2="36.7298" gradientUnits="userSpaceOnUse">
<stop stop-color="white"/>
<stop offset="0.23" stop-color="#E57252"/>
<stop offset="0.46001" stop-color="#DE3B20"/>
<stop offset="0.99001" stop-color="#A60003"/>
<stop offset="1" stop-color="#A60003"/>
</linearGradient>
<linearGradient id="paint4_linear_11277_22271" x1="19.408" y1="15.5435" x2="20.0293" y2="26.7263" gradientUnits="userSpaceOnUse">
<stop stop-color="white"/>
<stop offset="0.23" stop-color="#E4714E"/>
<stop offset="0.56" stop-color="#BE1A0D"/>
<stop offset="0.99001" stop-color="#A80D00"/>
<stop offset="1" stop-color="#A80D00"/>
</linearGradient>
<linearGradient id="paint5_linear_11277_22271" x1="29.6983" y1="5.21084" x2="31.5579" y2="13.2249" gradientUnits="userSpaceOnUse">
<stop stop-color="white"/>
<stop offset="0.17999" stop-color="#E46342"/>
<stop offset="0.39999" stop-color="#C82410"/>
<stop offset="0.99001" stop-color="#A80D00"/>
<stop offset="1" stop-color="#A80D00"/>
</linearGradient>
<linearGradient id="paint6_linear_11277_22271" x1="24.0199" y1="2.38647" x2="32.0337" y2="-1.62037" gradientUnits="userSpaceOnUse">
<stop stop-color="white"/>
<stop offset="0.53999" stop-color="#C81F11"/>
<stop offset="0.99001" stop-color="#BF0905"/>
<stop offset="1" stop-color="#BF0905"/>
</linearGradient>
<linearGradient id="paint7_linear_11277_22271" x1="0.788131" y1="22.9819" x2="1.44773" y2="29.5857" gradientUnits="userSpaceOnUse">
<stop stop-color="white"/>
<stop offset="0.31" stop-color="#DE4024"/>
<stop offset="0.99001" stop-color="#BF190B"/>
<stop offset="1" stop-color="#BF190B"/>
</linearGradient>
<linearGradient id="paint8_linear_11277_22271" x1="-3.74701" y1="31.372" x2="27.2583" y2="-0.509651" gradientUnits="userSpaceOnUse">
<stop stop-color="#BD0012"/>
<stop offset="0.07001" stop-color="white"/>
<stop offset="0.27" stop-color="#C82F1C"/>
<stop offset="0.33" stop-color="#820C01"/>
<stop offset="0.46001" stop-color="#A31601"/>
<stop offset="0.72" stop-color="#B31301"/>
<stop offset="0.99001" stop-color="#E82609"/>
<stop offset="1" stop-color="#E82609"/>
</linearGradient>
<linearGradient id="paint9_linear_11277_22271" x1="20.0023" y1="34.5862" x2="10.6642" y2="32.2815" gradientUnits="userSpaceOnUse">
<stop stop-color="#8C0C01"/>
<stop offset="0.53999" stop-color="#990C00"/>
<stop offset="0.99001" stop-color="#A80D0E"/>
<stop offset="1" stop-color="#A80D0E"/>
</linearGradient>
<linearGradient id="paint10_linear_11277_22271" x1="36.0421" y1="23.3757" x2="27.7456" y2="15.94" gradientUnits="userSpaceOnUse">
<stop stop-color="#7E110B"/>
<stop offset="0.99001" stop-color="#9E0C00"/>
<stop offset="1" stop-color="#9E0C00"/>
</linearGradient>
<linearGradient id="paint11_linear_11277_22271" x1="39.0901" y1="9.73317" x2="34.9574" y2="5.31505" gradientUnits="userSpaceOnUse">
<stop stop-color="#79130D"/>
<stop offset="0.99001" stop-color="#9E120B"/>
<stop offset="1" stop-color="#9E120B"/>
</linearGradient>
<radialGradient id="paint12_radial_11277_22271" cx="0" cy="0" r="1" gradientUnits="userSpaceOnUse" gradientTransform="translate(29.0375 16.0835) scale(10.1671 10.1672)">
<stop stop-color="#A80D00"/>
<stop offset="0.99001" stop-color="#7E0E08"/>
<stop offset="1" stop-color="#7E0E08"/>
</radialGradient>
<radialGradient id="paint13_radial_11277_22271" cx="0" cy="0" r="1" gradientUnits="userSpaceOnUse" gradientTransform="translate(14.9579 29.4817) scale(13.5158 13.516)">
<stop stop-color="#A30C00"/>
<stop offset="0.99001" stop-color="#800E08"/>
<stop offset="1" stop-color="#800E08"/>
</radialGradient>
<linearGradient id="paint14_linear_11277_22271" x1="5.38455" y1="39.8941" x2="2.01654" y2="28.4677" gradientUnits="userSpaceOnUse">
<stop stop-color="#8B2114"/>
<stop offset="0.42999" stop-color="#9E100A"/>
<stop offset="0.99001" stop-color="#B3100C"/>
<stop offset="1" stop-color="#B3100C"/>
</linearGradient>
<linearGradient id="paint15_linear_11277_22271" x1="31.2204" y1="2.03172" x2="38.7711" y2="5.36466" gradientUnits="userSpaceOnUse">
<stop stop-color="#B31000"/>
<stop offset="0.44" stop-color="#910F08"/>
<stop offset="0.99001" stop-color="#791C12"/>
<stop offset="1" stop-color="#791C12"/>
</linearGradient>
</defs>
</svg>
