<?xml version="1.0" encoding="UTF-8"?>
<svg version="1.1" xmlns="http://www.w3.org/2000/svg" width="512" height="512">
<path d="M0 0 C3.15802016 1.49492079 5.05502034 3.0926671 7 6 C8.14533399 14.0232281 6.54213278 22.28916224 5.09989929 30.18049622 C4.79302404 31.93004648 4.79302404 31.93004648 4.4799493 33.7149412 C3.91572674 36.91964385 3.34239506 40.12255363 2.76501405 43.32490647 C2.14173422 46.79494918 1.53049708 50.26711562 0.91773987 53.73902893 C-0.14612306 59.75747605 -1.21747813 65.77454999 -2.29397011 71.7907505 C-3.86259045 80.55751077 -5.41942654 89.3263329 -6.97354903 98.0956734 C-9.51188868 112.41685298 -12.05929102 126.73640479 -14.61254883 141.05493164 C-17.06374785 154.801247 -19.5113313 168.54819661 -21.95336914 182.29614258 C-22.10247348 183.1355462 -22.25157781 183.97494981 -22.40520046 184.8397899 C-23.30412221 189.90061216 -24.20288085 194.96146337 -25.10156919 200.02232708 C-26.43436621 207.52782404 -27.76730479 215.03329586 -29.10038757 222.53874207 C-29.2450212 223.35308203 -29.38965482 224.167422 -29.53867128 225.00643893 C-31.49746337 236.03465746 -33.45924311 247.06234012 -35.42372154 258.08954709 C-36.21957404 262.55736264 -37.01498341 267.0252571 -37.81034841 271.49315946 C-38.45433194 275.1105829 -39.09854654 278.72796482 -39.7433182 282.34524786 C-42.44994403 297.53196513 -45.13463016 312.72203848 -47.75863702 327.92327226 C-48.14586644 330.16588496 -48.53373336 332.40838647 -48.92180771 334.6508531 C-49.17479371 336.11310471 -49.42776471 337.57535891 -49.68072033 339.03761578 C-49.80424525 339.75163469 -49.92777017 340.46565361 -50.05503827 341.20130947 C-50.77729559 345.37986896 -51.49427956 349.55929111 -52.20721886 353.73944995 C-52.74608876 356.89131121 -53.29174231 360.04200043 -53.83610535 363.19291687 C-54.02682267 364.32252205 -54.21753999 365.45212723 -54.41403663 366.61596286 C-54.5944494 367.65372336 -54.77486217 368.69148386 -54.960742 369.76069164 C-55.1141652 370.65751288 -55.2675884 371.55433411 -55.42566079 372.47833174 C-56.52267901 377.29485126 -57.90817957 381.06228276 -62 384 C-69.56937856 386.25867427 -75.29694695 383.81561126 -82.21484375 380.69921875 C-83.28816956 380.23551376 -84.36149536 379.77180878 -85.46734619 379.29405212 C-88.96598316 377.77744518 -92.451404 376.23268721 -95.9375 374.6875 C-98.35043495 373.63582886 -100.7642624 372.58620322 -103.17895508 371.53857422 C-108.08002834 369.40934058 -112.97643917 367.2699694 -117.86914062 365.12158203 C-127.37135337 360.95397021 -136.91002962 356.87240577 -146.45144653 352.79556274 C-149.14931617 351.64133614 -151.84533808 350.48290115 -154.54077148 349.32299805 C-155.36841003 348.96726212 -156.19604858 348.61152618 -157.04876709 348.24501038 C-158.57806557 347.58761138 -160.10702172 346.92941516 -161.63555908 346.27024841 C-164.40373895 345.0820116 -167.14052453 343.95315849 -170 343 C-170.27440918 343.58144775 -170.54881836 344.16289551 -170.83154297 344.76196289 C-171.97291512 346.94812221 -173.2305454 348.82745021 -174.6953125 350.80859375 C-175.23800781 351.54464844 -175.78070313 352.28070313 -176.33984375 353.0390625 C-176.92894531 353.83054687 -177.51804687 354.62203125 -178.125 355.4375 C-178.74246094 356.27152344 -179.35992187 357.10554688 -179.99609375 357.96484375 C-185.27645436 365.07587047 -190.64599105 372.11771349 -196.02905273 379.15112305 C-200.47762996 384.97279089 -204.85646562 390.84046064 -209.1875 396.75 C-213.78472405 403.01661807 -218.41909983 409.25195429 -223.125 415.4375 C-223.92393677 416.49372559 -223.92393677 416.49372559 -224.73901367 417.57128906 C-231.58424892 426.52808297 -231.58424892 426.52808297 -235.8125 427.9375 C-239.99955246 428.01959907 -242.37325522 427.08202015 -246 425 C-250.28498924 419.75192934 -252.03761825 413.70705021 -254.12597656 407.33496094 C-254.51670349 406.1668689 -254.90743042 404.99877686 -255.30999756 403.79528809 C-256.37420112 400.60764639 -257.4303431 397.41755316 -258.48273945 394.22600842 C-259.58700724 390.88303085 -260.7010613 387.54331671 -261.81390381 384.20318604 C-263.67917183 378.60001176 -265.53767562 372.99463198 -267.39160156 367.38769531 C-269.77283813 360.18610209 -272.16525446 352.98827492 -274.56119156 345.79156113 C-276.62132412 339.60321238 -278.67634145 333.41316717 -280.73053265 327.22284412 C-281.39132855 325.23225562 -282.05282975 323.24190253 -282.71442413 321.25157928 C-283.94393708 317.55145639 -285.16811522 313.84958122 -286.39160156 310.14746094 C-286.75934692 309.04198914 -287.12709229 307.93651733 -287.50598145 306.79754639 C-287.83676697 305.79376953 -288.16755249 304.78999268 -288.50836182 303.75579834 C-288.7981403 302.88051357 -289.08791878 302.00522881 -289.38647842 301.10342026 C-290 299 -290 299 -290 297 C-291.25005325 296.74499222 -292.50010651 296.48998444 -293.78804016 296.22724915 C-299.44651074 294.96599574 -304.8937867 293.19053695 -310.39135742 291.36401367 C-311.49494095 291.0011174 -312.59852448 290.63822113 -313.73554993 290.264328 C-317.36052394 289.0705273 -320.98316965 287.86985969 -324.60546875 286.66796875 C-326.49448232 286.04259795 -328.38349606 285.41722765 -330.27253133 284.79192239 C-335.52750414 283.05203592 -340.78120632 281.30836586 -346.0336954 279.56099623 C-352.80641308 277.30791154 -359.58290103 275.0666807 -366.3628971 272.83559626 C-371.62237298 271.10408393 -376.8783268 269.36215808 -382.13174516 267.6123541 C-385.26185847 266.5700278 -388.39366021 265.53339504 -391.52837181 264.50496483 C-395.02223244 263.35740726 -398.51001126 262.19293175 -401.99682617 261.02416992 C-403.0270993 260.68996033 -404.05737244 260.35575073 -405.11886597 260.01141357 C-410.72549666 258.10982253 -414.83856796 256.26865305 -419 252 C-420.23534045 248.29397865 -420.45528745 245.90246386 -420 242 C-416.06793937 235.06425357 -408.97142522 231.78281281 -402.1875 228.1875 C-399.91850558 226.95192511 -397.65027683 225.71494311 -395.3828125 224.4765625 C-394.28227539 223.88004883 -393.18173828 223.28353516 -392.04785156 222.66894531 C-388.17046243 220.54576107 -384.35812971 218.32771112 -380.5625 216.0625 C-373.55394234 211.90019355 -366.50195363 207.81669322 -359.4375 203.75 C-350.94343701 198.85854676 -342.4623443 193.94612699 -334 189 C-320.26957662 180.97710742 -306.48921851 173.04141636 -292.70898438 165.10449219 C-281.12318234 158.43043688 -269.54446647 151.74535916 -258 145 C-244.26944812 136.97732489 -230.48922034 129.04141741 -216.70898438 121.10449219 C-205.12318234 114.43043688 -193.54446647 107.74535916 -182 101 C-168.26944812 92.97732489 -154.48922034 85.04141741 -140.70898438 77.10449219 C-129.12318234 70.43043688 -117.54446647 63.74535916 -106 57 C-92.26944812 48.97732489 -78.48922034 41.04141741 -64.70898438 33.10449219 C-61.4306894 31.21601508 -58.15273634 29.32694652 -54.875 27.4375 C-53.80838135 26.82277832 -52.7417627 26.20805664 -51.64282227 25.57470703 C-43.1336808 20.66566147 -34.64671431 15.7191355 -26.17724609 10.74194336 C-21.49132333 7.99711883 -16.78620687 5.28924109 -12.04296875 2.64453125 C-11.16535889 2.1544458 -10.28774902 1.66436035 -9.38354492 1.15942383 C-5.92643639 -0.52221178 -3.75574819 -0.86671112 0 0 Z " fill="#2095F2" transform="translate(505,21)"/>
<path d="M0 0 C1.08221483 3.24664449 0.92747256 4.48695561 0.34167099 7.78467178 C0.16930916 8.7759112 -0.00305268 9.76715062 -0.1806376 10.78842759 C-0.37837643 11.88065432 -0.57611527 12.97288105 -0.77984619 14.09820557 C-0.98357527 15.25688259 -1.18730434 16.41555961 -1.39720702 17.60934806 C-1.9657383 20.83398856 -2.54094038 24.05735809 -3.11892033 27.28031588 C-3.74074142 30.75703408 -4.35400402 34.23526233 -4.96829224 37.71331787 C-6.03677407 43.75613745 -7.11069692 49.79796991 -8.18824005 55.83917999 C-9.75839065 64.64233927 -11.32010693 73.44697871 -12.87980697 82.25199482 C-15.42650116 96.62767737 -17.9797149 111.002194 -20.53710938 125.37597656 C-22.99383515 139.18404765 -25.44809125 152.99255311 -27.8984375 166.80175781 C-28.04780456 167.64352594 -28.19717162 168.48529407 -28.35106495 169.35257033 C-29.40084683 175.26887677 -30.4504526 181.18521445 -31.5 187.1015625 C-32.68597132 193.78693399 -33.87197124 200.47230039 -35.05804443 207.15765381 C-35.20295278 207.97446632 -35.34786113 208.79127882 -35.49716064 209.63284323 C-37.46146419 220.7048063 -39.4281486 231.77634369 -41.39683065 242.84752902 C-42.19514845 247.33750716 -42.99302607 251.82756353 -43.79084517 256.31763031 C-44.43682962 259.95308278 -45.08304505 263.58849383 -45.72982454 267.22380495 C-48.43985122 282.45766257 -51.12927447 297.69468193 -53.76075402 312.94232526 C-54.14805721 315.18571684 -54.5360092 317.42899522 -54.92418361 319.6722362 C-55.17717671 321.13459648 -55.43015966 322.59695852 -55.68313217 324.05932236 C-55.80664918 324.77327008 -55.93016619 325.4872178 -56.05742614 326.2228003 C-56.77948652 330.39992915 -57.49631639 334.57791376 -58.20912778 338.7566303 C-58.74775306 341.90647636 -59.29318558 345.05514593 -59.83734131 348.20404053 C-60.02794679 349.33263914 -60.21855227 350.46123775 -60.41493368 351.62403631 C-60.59523453 352.66078953 -60.77553538 353.69754275 -60.9612999 354.76571274 C-61.11461706 355.66157963 -61.26793422 356.55744651 -61.42589736 357.48046088 C-62.52318708 362.29608825 -63.90889553 366.06279679 -68 369 C-75.56937856 371.25867427 -81.29694695 368.81561126 -88.21484375 365.69921875 C-89.28816956 365.23551376 -90.36149536 364.77180878 -91.46734619 364.29405212 C-94.96598316 362.77744518 -98.451404 361.23268721 -101.9375 359.6875 C-104.35043495 358.63582886 -106.7642624 357.58620322 -109.17895508 356.53857422 C-114.08002834 354.40934058 -118.97643917 352.2699694 -123.86914062 350.12158203 C-133.37135337 345.95397021 -142.91002962 341.87240577 -152.45144653 337.79556274 C-155.14931617 336.64133614 -157.84533808 335.48290115 -160.54077148 334.32299805 C-161.36841003 333.96726212 -162.19604858 333.61152618 -163.04876709 333.24501038 C-164.57806557 332.58761138 -166.10702172 331.92941516 -167.63555908 331.27024841 C-170.40373895 330.0820116 -173.14052453 328.95315849 -176 328 C-176.27440918 328.58144775 -176.54881836 329.16289551 -176.83154297 329.76196289 C-177.97291512 331.94812221 -179.2305454 333.82745021 -180.6953125 335.80859375 C-181.23800781 336.54464844 -181.78070313 337.28070313 -182.33984375 338.0390625 C-182.92894531 338.83054687 -183.51804687 339.62203125 -184.125 340.4375 C-184.74246094 341.27152344 -185.35992187 342.10554688 -185.99609375 342.96484375 C-191.27584697 350.07505249 -196.6452789 357.11566804 -202.02685547 364.14892578 C-207.078767 370.76147133 -212.03977703 377.43588076 -216.96142578 384.14575195 C-222.58254372 391.80788073 -228.283247 399.40907339 -234 407 C-235.37666327 404.24667347 -234.69277653 402.86544036 -234.01147461 399.87719727 C-233.77078751 398.79631332 -233.5301004 397.71542938 -233.28211975 396.60179138 C-233.01241867 395.41448929 -232.74271759 394.22718719 -232.46484375 393.00390625 C-231.89731032 390.43707016 -231.33227164 387.86988835 -230.77294922 385.30126953 C-230.62621671 384.62782847 -230.4794842 383.95438742 -230.32830524 383.26053905 C-228.82839938 376.31285372 -227.50981106 369.33410245 -226.21287918 362.34614182 C-225.8147715 360.20605593 -225.41225325 358.06684799 -225.00814819 355.92788696 C-224.87386099 355.21701242 -224.73957378 354.50613789 -224.60121727 353.77372169 C-224.32933944 352.33487535 -224.05744944 350.8960313 -223.78554726 349.45718956 C-223.09673705 345.80341955 -222.4168359 342.1483284 -221.75268555 338.48999023 C-221.09210954 334.85501421 -220.40813031 331.22510896 -219.70887566 327.5973835 C-219.32984873 325.59824472 -218.97508401 323.59455288 -218.62123108 321.59080505 C-216.96033148 313.0908416 -214.12315882 306.95819866 -209 300 C-208.05891217 298.63829562 -207.11964748 297.27532603 -206.18359375 295.91015625 C-205.27070049 294.62584396 -204.35527272 293.34332997 -203.4375 292.0625 C-202.38893345 290.58751638 -201.34077314 289.1122439 -200.29296875 287.63671875 C-199.48351807 286.49855713 -199.48351807 286.49855713 -198.65771484 285.33740234 C-195.8381808 281.36181781 -193.04372584 277.36874461 -190.25 273.375 C-189.37855347 272.12952393 -189.37855347 272.12952393 -188.48950195 270.85888672 C-181.98662735 261.55895311 -175.50909094 252.24139701 -169.03222656 242.92333984 C-165.02470701 237.1585586 -161.01455202 231.39561037 -157.00488281 225.63232422 C-153.64560511 220.80367052 -150.28698241 215.97456382 -146.9296875 211.14453125 C-140.06410311 201.26865217 -133.18631358 191.4016399 -126.28417969 181.55126953 C-119.84465798 172.35740695 -113.43875575 163.14020802 -107.03222656 153.92333984 C-103.02470701 148.1585586 -99.01455202 142.39561037 -95.00488281 136.63232422 C-91.64560511 131.80367052 -88.28698241 126.97456382 -84.9296875 122.14453125 C-78.06410311 112.26865217 -71.18631358 102.4016399 -64.28417969 92.55126953 C-57.84465798 83.35740695 -51.43875575 74.14020802 -45.03222656 64.92333984 C-42.3538398 61.0705043 -39.6741792 57.21855576 -36.99438477 53.36669922 C-35.66665277 51.45823685 -34.33901578 49.54970839 -33.01147461 47.64111328 C-29.61709159 42.76108965 -26.22159577 37.88184608 -22.82421875 33.00390625 C-15.18052058 22.0268458 -7.55963646 11.03514729 0 0 Z " fill="#2195F2" transform="translate(511,36)"/>
<path d="M0 0 C4.72184731 3.45058072 4.72184731 3.45058072 5.34277344 6.9465332 C5.69013178 13.07557975 4.03773775 16.52317464 0.3671875 21.28515625 C-0.65266132 22.68596677 -1.6721771 24.0870198 -2.69140625 25.48828125 C-3.50520752 26.58366211 -3.50520752 26.58366211 -4.33544922 27.70117188 C-7.19957285 31.59136258 -9.93720237 35.56949194 -12.6953125 39.53515625 C-13.8887182 41.23870504 -15.08274186 42.94182107 -16.27734375 44.64453125 C-22.19982347 53.09671336 -28.08508197 61.57483717 -33.97558594 70.04931641 C-37.98310549 75.81409765 -41.99326048 81.57704588 -46.00292969 87.34033203 C-49.36220739 92.16898573 -52.72083009 96.99809243 -56.078125 101.828125 C-62.94370939 111.70400408 -69.82149892 121.57101635 -76.72363281 131.42138672 C-83.16315452 140.6152493 -89.56905675 149.83244823 -95.97558594 159.04931641 C-99.98310549 164.81409765 -103.99326048 170.57704588 -108.00292969 176.34033203 C-111.36220739 181.16898573 -114.72083009 185.99809243 -118.078125 190.828125 C-124.94370939 200.70400408 -131.82149892 210.57101635 -138.72363281 220.42138672 C-145.16315452 229.6152493 -151.56905675 238.83244823 -157.97558594 248.04931641 C-161.98310549 253.81409765 -165.99326048 259.57704588 -170.00292969 265.34033203 C-173.36220739 270.16898573 -176.72083009 274.99809243 -180.078125 279.828125 C-181.42967497 281.77214413 -182.78123739 283.7161546 -184.1328125 285.66015625 C-185.11858276 287.07856812 -185.11858276 287.07856812 -186.12426758 288.52563477 C-189.38816075 293.2189702 -192.66025944 297.9062206 -195.94921875 302.58203125 C-196.58005371 303.47962158 -197.21088867 304.37721191 -197.86083984 305.30200195 C-199.04031499 306.97891611 -200.22149075 308.6546361 -201.40478516 310.32885742 C-201.93765137 311.08658447 -202.47051758 311.84431152 -203.01953125 312.625 C-203.47803467 313.27460693 -203.93653809 313.92421387 -204.40893555 314.59350586 C-204.93656494 315.37862549 -205.46419434 316.16374512 -206.0078125 316.97265625 C-206.588704 317.79467152 -206.588704 317.79467152 -207.18133068 318.63329315 C-210.58103586 323.68066083 -212.11141911 328.17007247 -213.18017578 334.12329102 C-213.35165131 335.0007901 -213.52312683 335.87828918 -213.69979858 336.78237915 C-214.25785004 339.65690352 -214.79277329 342.53523269 -215.328125 345.4140625 C-215.71568311 347.42642466 -216.10494215 349.43845991 -216.49581909 351.45018005 C-217.51809164 356.73019621 -218.5218851 362.01353855 -219.52038574 367.2980957 C-221.12120954 375.75945615 -222.7452841 384.21631947 -224.37859726 392.67146111 C-224.94397023 395.61637713 -225.49846056 398.56319157 -226.05178833 401.51039124 C-226.39891801 403.32413388 -226.74638358 405.13781228 -227.09423828 406.95141602 C-227.24391052 407.76459793 -227.39358276 408.57777985 -227.54779053 409.41560364 C-228.62405593 414.95642339 -230.03656626 420.15659019 -233.3203125 424.84765625 C-235.93008426 426.58750409 -237.87565303 426.85218858 -241.0078125 426.97265625 C-245.71327575 425.59346874 -248.36327361 424.11840277 -250.97948074 419.95416641 C-253.22577648 415.6257405 -254.63462933 410.95678255 -256.16552734 406.33935547 C-256.55946686 405.17447601 -256.95340637 404.00959656 -257.35928345 402.80941772 C-258.43196292 399.63003489 -259.4964697 396.44816279 -260.55641508 393.2645278 C-261.44312711 390.60415168 -262.33505006 387.94553428 -263.22682536 385.286852 C-265.32942589 379.01744134 -267.42225398 372.74482642 -269.50927734 366.47021484 C-271.66240193 359.99752999 -273.83322098 353.53097043 -276.01253736 347.06706226 C-277.88491178 341.51126553 -279.74570504 335.95168166 -281.59735262 330.38894284 C-282.70266834 327.06885767 -283.81247598 323.75044708 -284.93369675 320.43569565 C-286.18146901 316.74504481 -287.40509019 313.04664388 -288.62646484 309.34716797 C-289.18886871 307.69974609 -289.18886871 307.69974609 -289.76263428 306.01904297 C-290.09067047 305.01251678 -290.41870667 304.0059906 -290.75668335 302.96896362 C-291.04830542 302.09552244 -291.33992748 301.22208126 -291.64038658 300.32217216 C-292.08896698 297.45371152 -291.58522467 296.36577945 -290.0078125 293.97265625 C-288.6589683 292.51117944 -287.25717482 291.09769145 -285.8203125 289.72265625 C-282.9635823 286.93405157 -280.21782817 284.13958752 -277.6328125 281.09765625 C-274.7456645 277.72707882 -271.66534252 274.58761761 -268.5078125 271.47265625 C-265.39201755 268.39875434 -262.34903992 265.30563457 -259.5078125 261.97265625 C-256.66658449 258.63967724 -253.62359627 255.54656824 -250.5078125 252.47265625 C-247.41289748 249.41927674 -244.38846973 246.3494194 -241.5703125 243.03515625 C-238.07070753 238.9283909 -234.24799241 235.18540819 -230.41259766 231.39697266 C-227.05736693 228.06699296 -223.91063375 224.63343136 -220.84765625 221.03125 C-218.05014383 217.90112463 -215.04156744 214.98579967 -212.05444336 212.03881836 C-209.42741248 209.43344255 -206.90780682 206.7880342 -204.5078125 203.97265625 C-201.2248047 200.12143556 -197.65376738 196.58976765 -194.0546875 193.0390625 C-191.42757692 190.43360393 -188.90788166 187.788122 -186.5078125 184.97265625 C-183.66658449 181.63967724 -180.62359627 178.54656824 -177.5078125 175.47265625 C-174.41289748 172.41927674 -171.38846973 169.3494194 -168.5703125 166.03515625 C-165.07070753 161.9283909 -161.24799241 158.18540819 -157.41259766 154.39697266 C-154.05736693 151.06699296 -150.91063375 147.63343136 -147.84765625 144.03125 C-145.05014383 140.90112463 -142.04156744 137.98579967 -139.05444336 135.03881836 C-136.42741248 132.43344255 -133.90780682 129.7880342 -131.5078125 126.97265625 C-128.66658449 123.63967724 -125.62359627 120.54656824 -122.5078125 117.47265625 C-119.41289748 114.41927674 -116.38846973 111.3494194 -113.5703125 108.03515625 C-110.07070753 103.9283909 -106.24799241 100.18540819 -102.41259766 96.39697266 C-99.05736693 93.06699296 -95.91063375 89.63343136 -92.84765625 86.03125 C-90.05014383 82.90112463 -87.04156744 79.98579967 -84.05444336 77.03881836 C-81.42741248 74.43344255 -78.90780682 71.7880342 -76.5078125 68.97265625 C-73.2248047 65.12143556 -69.65376738 61.58976765 -66.0546875 58.0390625 C-63.42757692 55.43360393 -60.90788166 52.788122 -58.5078125 49.97265625 C-55.66658449 46.63967724 -52.62359627 43.54656824 -49.5078125 40.47265625 C-46.41289748 37.41927674 -43.38846973 34.3494194 -40.5703125 31.03515625 C-37.5542574 27.49583376 -34.31312118 24.23796502 -31.0078125 20.97265625 C-25.92969136 15.95017502 -21.06558907 10.82064474 -16.6171875 5.22265625 C-12.21661489 -0.29131426 -7.11260033 -3.63932663 0 0 Z " fill="#1976D2" transform="translate(507.0078125,22.02734375)"/>
<path d="M0 0 C8.98707378 3.40315237 17.891116 6.96251159 26.75 10.6875 C27.92304688 11.17283203 29.09609375 11.65816406 30.3046875 12.15820312 C31.41585937 12.62548828 32.52703125 13.09277344 33.671875 13.57421875 C34.6731543 13.99276123 35.67443359 14.41130371 36.70605469 14.8425293 C39 16 39 16 40 18 C32.75990678 27.90542109 25.45762368 37.75701949 18 47.5 C12.33817421 54.89906188 6.75875103 62.35125094 1.24951172 69.86450195 C-5.42730447 78.96427889 -12.21324287 87.98207853 -19 97 C-20.37359694 94.25280611 -19.70005049 92.88205017 -19.0246582 89.89916992 C-18.78587448 88.82145828 -18.54709076 87.74374664 -18.30107117 86.63337708 C-18.03285049 85.44854233 -17.76462982 84.26370758 -17.48828125 83.04296875 C-16.92268764 80.47758323 -16.35909699 77.91186495 -15.79931641 75.34521484 C-15.65181914 74.6704992 -15.50432188 73.99578356 -15.352355 73.30062199 C-13.65934101 65.50999936 -12.12855537 57.68857675 -10.60546875 49.86328125 C-10.32175788 48.41038011 -10.03799517 46.9574891 -9.75418091 45.50460815 C-8.59853865 39.58243151 -7.44857609 33.65915578 -6.30004883 27.7355957 C-5.58311507 24.03930311 -4.86248987 20.34374555 -4.1396122 16.64861107 C-3.73725647 14.58558439 -3.33931274 12.52173744 -2.94145203 10.45783997 C-2.70062393 9.22692123 -2.45979584 7.9960025 -2.21166992 6.7277832 C-2.00104416 5.64197464 -1.7904184 4.55616608 -1.57341003 3.43745422 C-1 1 -1 1 0 0 Z " fill="#63B4F5" transform="translate(296,346)"/>
<path d="M0 0 C5.03197029 0.56273912 10.06882494 0.89647046 15.125 1.16015625 C17.77676701 1.51533966 19.44774069 2.06438631 21.69140625 3.50390625 C24.5371975 7.62539702 25.16570699 10.78455246 24.34375 15.60546875 C23.04227473 19.39299559 20.18909546 21.75506164 16.69140625 23.50390625 C-17.82300617 25.14381756 -17.82300617 25.14381756 -29.80859375 16.75390625 C-31.9127149 13.59772453 -32.24340707 11.28473351 -32.30859375 7.50390625 C-27.18557014 -6.51700047 -11.83132853 -1.34270398 0 0 Z " fill="#1976D2" transform="translate(163.30859375,467.49609375)"/>
<path d="M0 0 C3.43383593 1.46779368 6.49305413 3.41469643 9.625 5.4375 C10.92800049 6.25250977 10.92800049 6.25250977 12.25732422 7.08398438 C14.01370454 8.18605232 15.76525831 9.29585263 17.51171875 10.41357422 C19.77394179 11.85587458 22.05253884 13.26455169 24.34375 14.66015625 C34.6752533 21.0415307 34.6752533 21.0415307 36 25 C36.47157696 29.24419266 36.26364623 31.48247222 34.3125 35.3125 C31.78625836 38.24840244 30.79344591 39.32560962 27 40 C20.03960601 39.24171751 14.53741989 36.45465307 8.625 32.875 C7.79935547 32.38435059 6.97371094 31.89370117 6.12304688 31.38818359 C-11.62742142 20.71353923 -11.62742142 20.71353923 -15 14 C-15.4898067 10.63257892 -15.7490388 8.24007534 -13.9453125 5.25390625 C-9.86229881 0.21657871 -6.37533032 -1.02301812 0 0 Z " fill="#1976D2" transform="translate(70,431)"/>
<path d="M0 0 C6.65714679 0.09480114 10.4399456 4.1862004 15.0625 8.5625 C15.98160156 9.42617188 16.90070312 10.28984375 17.84765625 11.1796875 C26.80580037 19.86715388 26.80580037 19.86715388 27.4375 26.5 C27.3374291 29.48544866 26.9953862 30.69113478 25.5625 33.4375 C22.35462207 36.16419624 19.32183521 37.62054886 15.0625 37.5625 C9.55380444 35.7388883 6.46688005 33.40403905 2.4375 29.125 C-0.17706241 26.37184331 -2.6777943 23.76944128 -5.6484375 21.40234375 C-8.28309491 19.28472662 -9.76188087 17.65318721 -10.30859375 14.2578125 C-10.48949094 7.25602708 -10.48949094 7.25602708 -7.5 3.5 C-6.654375 2.860625 -5.80875 2.22125 -4.9375 1.5625 C-3.9375 0.5625 -3.9375 0.5625 0 0 Z " fill="#1875D2" transform="translate(9.9375,383.4375)"/>
<path d="M0 0 C3.09710563 1.53973752 5.43804969 3.87609938 7 7 C7.69710654 13.9710654 7.69710654 13.9710654 4.96484375 18.00390625 C1.89015972 21.45448184 -1.66634837 23.26459054 -5.8125 25.1875 C-6.48603516 25.51685547 -7.15957031 25.84621094 -7.85351562 26.18554688 C-20.42428477 32.23635728 -20.42428477 32.23635728 -25.75 31.4375 C-29.20136681 29.91093391 -30.90885934 29.13671099 -33 26 C-34.31615433 21.51311026 -34.63728775 18.40203305 -32.671875 14.078125 C-29.38664625 9.54144927 -24.1615233 7.50321128 -19.25 5.125 C-17.80367187 4.37863281 -17.80367187 4.37863281 -16.328125 3.6171875 C-10.6100738 0.78923826 -6.38989107 -0.85293318 0 0 Z " fill="#1875D1" transform="translate(249,448)"/>
</svg>
