<svg width="48" height="48" viewBox="0 0 48 48" fill="none" xmlns="http://www.w3.org/2000/svg">
<path d="M39.8578 16.6581C39.8575 16.0587 39.7293 15.529 39.4701 15.0745C39.2154 14.6274 38.8341 14.2527 38.3225 13.9565C34.0999 11.5217 29.8731 9.0943 25.6518 6.65702C24.5138 6.00001 23.4104 6.02409 22.2808 6.69053C20.6001 7.68162 12.1852 12.5027 9.67765 13.9551C8.64498 14.553 8.14249 15.4679 8.14224 16.657C8.14062 21.5535 8.14224 26.45 8.14062 31.3465C8.14062 31.9328 8.26361 32.4523 8.51145 32.9C8.76623 33.3605 9.15294 33.7455 9.67629 34.0484C12.1839 35.5008 20.5999 40.3215 22.2803 41.313C23.4104 41.9798 24.5138 42.0036 25.6522 41.3465C29.8736 38.9091 34.1006 36.4817 38.3239 34.0469C38.8472 33.7441 39.2339 33.3589 39.4887 32.8987C39.7362 32.4509 39.8594 31.9316 39.8594 31.3452C39.8594 31.3452 39.8594 21.5547 39.8578 16.6581Z" fill="#A179DC"/>
<path d="M24.0483 23.954L8.51123 32.9C8.76602 33.3605 9.15272 33.7455 9.67607 34.0484C12.1837 35.5008 20.5997 40.3215 22.2801 41.313C23.4102 41.9798 24.5136 42.0036 25.652 41.3465C29.8734 38.9091 34.1004 36.4817 38.3236 34.0469C38.847 33.7441 39.2337 33.3589 39.4885 32.8987L24.0483 23.954Z" fill="#280068"/>
<path d="M39.8576 16.6581C39.8573 16.0587 39.7291 15.529 39.4699 15.0745L24.0483 23.9542L39.4885 32.8987C39.736 32.451 39.859 31.9316 39.8592 31.3452C39.8592 31.3452 39.8592 21.5547 39.8576 16.6581Z" fill="#390091"/>
<path d="M33.1961 20.6097V22.2819H34.8683V20.6097H35.7044V22.2819H37.3766V23.1179H35.7044V24.79H37.3766V25.6261H35.7044V27.2983H34.8683V25.6261H33.1961V27.2983H32.36V25.6261H30.688V24.79H32.36V23.1179H30.688V22.2819H32.36V20.6097H33.1961ZM34.8683 23.1178H33.1961V24.79H34.8683V23.1178Z" fill="white"/>
<path d="M24.0825 12.2119C28.444 12.2119 32.2519 14.5806 34.2915 18.1014L34.2717 18.0675L29.14 21.0222C28.129 19.3104 26.2757 18.1551 24.1494 18.1313L24.0824 18.1309C20.8402 18.1309 18.2116 20.7595 18.2116 24.0017C18.2106 25.0236 18.4775 26.0279 18.9859 26.9144C19.9979 28.681 21.9002 29.8726 24.0825 29.8726C26.2783 29.8726 28.1915 28.6659 29.1982 26.8804L29.1737 26.9232L34.2976 29.8915C32.2803 33.3826 28.5246 35.7439 24.2138 35.791L24.0825 35.7917C19.7072 35.7917 15.8885 33.4084 13.854 29.869C12.8608 28.1411 12.2925 26.1379 12.2925 24.0017C12.2925 17.4904 17.5709 12.2118 24.0824 12.2118L24.0825 12.2119Z" fill="white"/>
</svg>
