<svg width="40" height="48" viewBox="0 0 42 48" fill="none" xmlns="http://www.w3.org/2000/svg">
<path fill-rule="evenodd" clip-rule="evenodd" d="M2 7.49503C2 6.1159 2 5.42633 2.26742 4.87131C2.50309 4.38219 2.8821 3.96763 3.35931 3.67702C3.90082 3.34726 4.62076 3.24937 6.06063 3.05361L26.5958 0.261598C28.4598 0.00816784 29.3918 -0.118547 30.1161 0.149002C30.7518 0.383867 31.2824 0.81992 31.6179 1.38326C32 2.025 32 2.91768 32 4.70302V43.297C32 45.0823 32 45.975 31.6179 46.6167C31.2824 47.1801 30.7518 47.6161 30.1161 47.851C29.3918 48.1185 28.4598 47.9918 26.5959 47.7384H26.5959H26.5958L6.06063 44.9464L6.06057 44.9464C4.62074 44.7506 3.90081 44.6527 3.35931 44.323C2.8821 44.0324 2.50309 43.6178 2.26742 43.1287C2 42.5737 2 41.8841 2 40.505V7.49503ZM24 20.5078C24 20.0879 24 19.8779 24.0705 19.7119C24.1326 19.5657 24.2323 19.4436 24.3567 19.3611C24.4979 19.2674 24.6847 19.2484 25.0583 19.2104L26.731 19.0402C27.1712 18.9954 27.3912 18.973 27.5611 19.0552C27.7104 19.1273 27.8338 19.2535 27.9115 19.4134C28 19.5954 28 19.8428 28 20.3376V27.6624C28 28.1572 28 28.4046 27.9115 28.5866C27.8338 28.7465 27.7104 28.8727 27.5611 28.9448C27.3912 29.027 27.1712 29.0046 26.731 28.9598L25.0583 28.7896C24.6847 28.7516 24.4979 28.7326 24.3567 28.6389C24.2323 28.5564 24.1326 28.4343 24.0705 28.2881C24 28.1221 24 27.9121 24 27.4922V20.5078ZM37.6444 5H35V44H37.6444C39.169 44 39.9313 44 40.5136 43.7024C41.0259 43.4407 41.4423 43.0231 41.7033 42.5094C42 41.9254 42 41.1609 42 39.632V9.368C42 7.83906 42 7.07458 41.7033 6.49061C41.4423 5.97692 41.0259 5.55929 40.5136 5.29755C39.9313 5 39.169 5 37.6444 5Z" fill="url(#paint0_linear)"/>
<defs>
<linearGradient id="paint0_linear" x1="-10.381" y1="33.1953" x2="38.8896" y2="13.0537" gradientUnits="userSpaceOnUse">
<stop stop-color="#4B2EFB"/>
<stop offset="1" stop-color="#E65FFC"/>
</linearGradient>
</defs>
</svg>
