<svg width="24" height="24" viewBox="0 0 24 24" fill="none" xmlns="http://www.w3.org/2000/svg">
<path d="M22 12C22 6.47658 17.5234 2 12 2C6.47658 2 2 6.47658 2 12C2 16.9922 5.65625 21.1289 10.4375 21.8789V14.8906H7.89842V12H10.4375V9.79688C10.4375 7.291 11.9297 5.90625 14.2148 5.90625C15.3086 5.90625 16.4531 6.10156 16.4531 6.10156V8.5625H15.1914C13.9492 8.5625 13.5625 9.334 13.5625 10.125V12H16.3359L15.8926 14.8906H13.5625V21.8789C18.3438 21.1289 22 16.9922 22 12Z" fill="#1877F2"/>
<path d="M15.8926 14.8906L16.3359 12H13.5625V10.125C13.5625 9.334 13.9492 8.5625 15.1914 8.5625H16.4531V6.10156C16.4531 6.10156 15.3086 5.90625 14.2149 5.90625C11.9297 5.90625 10.4375 7.291 10.4375 9.79687V12H7.89844V14.8906H10.4375V21.8789C10.9473 21.959 11.4688 22 12 22C12.5313 22 13.0528 21.959 13.5625 21.8789V14.8906H15.8926Z" fill="white"/>
</svg>
