<svg width="64" height="64" viewBox="0 0 64 64" fill="none" xmlns="http://www.w3.org/2000/svg">
  <path d="m 49.744746,25.318983 c -1.83073,-0.575613 -2.776154,-0.381576 -4.696415,-0.591412 -2.968549,-0.323783 -4.151237,-1.483967 -4.652915,-4.469891 -0.280761,-1.666856 0.05075,-4.107382 -0.66603,-5.618339 -1.370774,-2.881011 -4.578229,-4.173123 -7.800661,-3.435631 -2.720687,0.623569 -4.984426,3.342696 -5.109862,6.133775 -0.143357,3.186799 1.672463,5.905913 4.79032,6.844293 1.4813,0.446688 3.055138,0.671503 4.602167,0.785449 2.837094,0.206827 3.055138,1.783948 3.822667,3.082086 0.483826,0.818416 0.952675,1.624861 0.952675,4.065197 0,2.440335 -0.471858,3.246782 -0.952675,4.065196 -0.767529,1.295129 -1.714254,2.143501 -4.551348,2.353338 -1.547029,0.113946 -3.123876,0.338829 -4.602167,0.785516 -3.117856,0.941322 -4.933676,3.657426 -4.79032,6.844225 0.125435,2.791065 2.389175,5.510247 5.109862,6.133805 3.222432,0.740445 6.429887,-0.554615 7.800661,-3.435621 0.719721,-1.510982 1.11395,-3.222774 1.394711,-4.88963 0.504687,-2.985991 1.687307,-4.146176 4.652915,-4.469958 1.920261,-0.209836 3.907683,0 5.707158,-1.022301 1.901519,-1.389377 3.600383,-3.474605 3.600383,-6.36457 0,-2.890033 -1.83073,-5.920139 -4.611126,-6.795527 z" fill="#f44250"/>
  <path d="m 19.287199,38.88733 c -3.74203,0 -6.794432,-3.05808 -6.794432,-6.807086 0,-3.749007 3.052402,-6.807086 6.794432,-6.807086 3.742031,0 6.794433,3.058079 6.794433,6.807086 0,3.745997 -3.055412,6.807086 -6.794433,6.807086 z" fill="#121212"/>
  <path d="M 6.7704261,52.720981 C 3.0344217,52.711953 -0.00895551,49.641836 1.9801107e-5,45.889821 0.00903492,42.143892 3.0734001,39.09484 6.8183984,39.106809 c 3.7389936,0.009 6.7823686,3.079146 6.7703986,6.831093 -0.009,3.742987 -3.0734,6.792039 -6.8183709,6.783079 z" fill="#121212"/>
  <path d="m 57.256028,52.720845 c -3.747913,0.02093 -6.824185,-3.016018 -6.845319,-6.755927 -0.02086,-3.754888 3.010477,-6.836906 6.743341,-6.85804 3.747913,-0.02093 6.824253,3.016016 6.845319,6.755926 0.02086,3.751879 -3.010408,6.836906 -6.743341,6.858041 z" fill="#121212"/>
</svg>
