<svg width="40" height="40" viewBox="0 0 40 40" fill="none" xmlns="http://www.w3.org/2000/svg">
<g clip-path="url(#clip0_11470_21298)">
<path fill-rule="evenodd" clip-rule="evenodd" d="M39.0115 5.25065C39.3141 5.25496 39.5628 5.49988 39.5628 5.80249V24.1589C39.5628 30.7003 31.1501 38.1656 23.566 40.161C23.394 40.2063 23.2162 40.2063 23.0442 40.161C15.4601 38.1656 7.04736 30.7003 7.04736 24.1589V5.80249C7.04736 5.49988 7.29612 5.25496 7.59871 5.25065C16.1854 5.12836 20.9913 2.16331 22.7972 0.213738C23.0612 -0.0712458 23.549 -0.0712458 23.813 0.213737C25.6189 2.16331 30.4248 5.12836 39.0115 5.25065ZM26.6825 16.5744C26.6825 17.9009 25.8776 19.039 24.7306 19.5246L26.5349 24.2234C26.676 24.5911 26.4047 24.986 26.0109 24.986H20.4701C20.0548 24.986 19.7833 24.5505 19.9661 24.1776L22.2475 19.5246C21.1005 19.039 20.2955 17.9009 20.2955 16.5744C20.2955 14.8065 21.7253 13.3733 23.489 13.3733C25.2527 13.3733 26.6825 14.8065 26.6825 16.5744Z" fill="url(#paint0_linear_11470_21298)"/>
<mask id="path-3-inside-1_11470_21298" fill="white">
<path fill-rule="evenodd" clip-rule="evenodd" d="M22.7972 0.213737C22.9292 0.0712637 23.1171 1.78196e-05 23.305 0V13.3785C21.6269 13.4741 20.2955 14.8684 20.2955 16.5744C20.2955 17.9009 21.1005 19.039 22.2475 19.5246L19.9661 24.1776C19.7833 24.5505 20.0548 24.986 20.4701 24.986H23.305V40.195C23.2176 40.195 23.1301 40.1837 23.0442 40.161C15.4601 38.1656 7.04736 30.7003 7.04736 24.1589V5.80249C7.04736 5.49988 7.29612 5.25496 7.59871 5.25065C16.1854 5.12836 20.9913 2.16331 22.7972 0.213737Z"/>
</mask>
<path fill-rule="evenodd" clip-rule="evenodd" d="M22.7972 0.213737C22.9292 0.0712637 23.1171 1.78196e-05 23.305 0V13.3785C21.6269 13.4741 20.2955 14.8684 20.2955 16.5744C20.2955 17.9009 21.1005 19.039 22.2475 19.5246L19.9661 24.1776C19.7833 24.5505 20.0548 24.986 20.4701 24.986H23.305V40.195C23.2176 40.195 23.1301 40.1837 23.0442 40.161C15.4601 38.1656 7.04736 30.7003 7.04736 24.1589V5.80249C7.04736 5.49988 7.29612 5.25496 7.59871 5.25065C16.1854 5.12836 20.9913 2.16331 22.7972 0.213737Z" fill="url(#paint1_linear_11470_21298)"/>
<path fill-rule="evenodd" clip-rule="evenodd" d="M22.7972 0.213737C22.9292 0.0712637 23.1171 1.78196e-05 23.305 0V13.3785C21.6269 13.4741 20.2955 14.8684 20.2955 16.5744C20.2955 17.9009 21.1005 19.039 22.2475 19.5246L19.9661 24.1776C19.7833 24.5505 20.0548 24.986 20.4701 24.986H23.305V40.195C23.2176 40.195 23.1301 40.1837 23.0442 40.161C15.4601 38.1656 7.04736 30.7003 7.04736 24.1589V5.80249C7.04736 5.49988 7.29612 5.25496 7.59871 5.25065C16.1854 5.12836 20.9913 2.16331 22.7972 0.213737Z" fill="#4300DA"/>
<path d="M23.305 0H36.5651V-13.2613L23.3038 -13.26L23.305 0ZM22.7972 0.213737L13.0692 -8.79712L13.0692 -8.79711L22.7972 0.213737ZM23.305 13.3785L24.0589 26.6171L36.5651 25.905V13.3785H23.305ZM22.2475 19.5246L34.1535 25.362L40.3233 12.778L27.4172 7.31382L22.2475 19.5246ZM19.9661 24.1776L8.06011 18.3401L8.06011 18.3401L19.9661 24.1776ZM23.305 24.986H36.5651V11.7259H23.305V24.986ZM23.305 40.195L23.3039 53.455L36.5651 53.4562V40.195H23.305ZM23.0442 40.161L26.4183 27.3375L26.4182 27.3374L23.0442 40.161ZM7.59871 5.25065L7.78753 18.5093L7.78754 18.5093L7.59871 5.25065ZM23.3038 -13.26C19.8812 -13.2597 16.0055 -11.967 13.0692 -8.79712L32.5252 9.2246C29.8529 12.1095 26.353 13.2598 23.3063 13.26L23.3038 -13.26ZM36.5651 13.3785V0H10.045V13.3785H36.5651ZM22.5512 0.139928C13.867 0.634423 7.03551 7.82492 7.03551 16.5744H33.5556C33.5556 21.9118 29.3869 26.3137 24.0589 26.6171L22.5512 0.139928ZM7.03551 16.5744C7.03551 23.3982 11.1866 29.2411 17.0777 31.7353L27.4172 7.31382C31.0143 8.83676 33.5556 12.4036 33.5556 16.5744H7.03551ZM10.3414 13.6871L8.06011 18.3401L31.8721 30.015L34.1535 25.362L10.3414 13.6871ZM8.06011 18.3401C3.55766 27.5233 10.2426 38.246 20.4701 38.246V11.7259C29.8669 11.7259 36.0089 21.5777 31.8721 30.015L8.06011 18.3401ZM20.4701 38.246H23.305V11.7259H20.4701V38.246ZM36.5651 40.195V24.986H10.045V40.195H36.5651ZM19.6701 52.9846C20.8482 53.2946 22.069 53.4549 23.3039 53.455L23.3062 26.9349C24.3661 26.935 25.4121 27.0727 26.4183 27.3375L19.6701 52.9846ZM-6.21268 24.1589C-6.21268 32.7287 -1.09566 39.4747 3.01175 43.4236C7.46385 47.7039 13.4063 51.3366 19.6702 52.9846L26.4182 27.3374C25.8572 27.1898 25.0166 26.8629 24.0287 26.2863C23.0545 25.7177 22.1379 25.0232 21.3917 24.3058C20.6243 23.568 20.2377 23.0005 20.1014 22.7525C19.9478 22.4728 20.3074 22.9773 20.3074 24.1589H-6.21268ZM-6.21268 5.80249V24.1589H20.3074V5.80249H-6.21268ZM7.40989 -8.00805C0.0881227 -7.90378 -6.21268 -1.97747 -6.21268 5.80249H20.3074C20.3074 12.9772 14.5041 18.4137 7.78753 18.5093L7.40989 -8.00805ZM13.0692 -8.79711C13.7187 -9.4983 13.8105 -9.29199 12.816 -8.89418C11.9313 -8.5403 10.201 -8.0478 7.40987 -8.00805L7.78754 18.5093C19.2291 18.3464 27.7748 14.353 32.5252 9.22458L13.0692 -8.79711Z" fill="#9C85FD" mask="url(#path-3-inside-1_11470_21298)"/>
<rect y="25.7119" width="4.35475" height="4.35475" rx="0.5" fill="url(#paint2_linear_11470_21298)"/>
<rect y="8.29297" width="4.35475" height="4.35475" rx="0.5" fill="url(#paint3_linear_11470_21298)"/>
<path fill-rule="evenodd" clip-rule="evenodd" d="M12.0964 21.737C12.2209 21.6105 12.1313 21.3967 11.9539 21.3967L0.512293 21.3965C0.234484 21.3965 0.00927773 21.1713 0.0092777 20.8935L0.00927739 17.3835C0.00927736 17.1057 0.234491 16.8804 0.512305 16.8804L11.9477 16.8806C12.126 16.8806 12.2152 16.6648 12.0889 16.5389L9.04317 13.5027C8.72714 13.1876 8.95079 12.6478 9.39703 12.6486L12.8315 12.6544C13.111 12.6549 13.3775 12.7723 13.5665 12.9782L18.8991 18.7881C19.185 19.0996 19.1791 19.5798 18.8857 19.8842L13.565 25.4046C13.3765 25.6001 13.1166 25.7106 12.845 25.7106L9.37825 25.7107C8.93468 25.7107 8.71074 25.176 9.02193 24.8599L12.0964 21.737Z" fill="#F7F8F8" fill-opacity="0.14"/>
<path fill-rule="evenodd" clip-rule="evenodd" d="M12.0964 21.737C12.2209 21.6105 12.1313 21.3967 11.9539 21.3967L0.512293 21.3965C0.234484 21.3965 0.00927773 21.1713 0.0092777 20.8935L0.00927739 17.3835C0.00927736 17.1057 0.234491 16.8804 0.512305 16.8804L11.9477 16.8806C12.126 16.8806 12.2152 16.6648 12.0889 16.5389L9.04317 13.5027C8.72714 13.1876 8.95079 12.6478 9.39703 12.6486L12.8315 12.6544C13.111 12.6549 13.3775 12.7723 13.5665 12.9782L18.8991 18.7881C19.185 19.0996 19.1791 19.5798 18.8857 19.8842L13.565 25.4046C13.3765 25.6001 13.1166 25.7106 12.845 25.7106L9.37825 25.7107C8.93468 25.7107 8.71074 25.176 9.02193 24.8599L12.0964 21.737Z" fill="url(#paint4_linear_11470_21298)"/>
<path fill-rule="evenodd" clip-rule="evenodd" d="M12.0964 21.737C12.2209 21.6105 12.1313 21.3967 11.9539 21.3967L0.512293 21.3965C0.234484 21.3965 0.00927773 21.1713 0.0092777 20.8935L0.00927739 17.3835C0.00927736 17.1057 0.234491 16.8804 0.512305 16.8804L11.9477 16.8806C12.126 16.8806 12.2152 16.6648 12.0889 16.5389L9.04317 13.5027C8.72714 13.1876 8.95079 12.6478 9.39703 12.6486L12.8315 12.6544C13.111 12.6549 13.3775 12.7723 13.5665 12.9782L18.8991 18.7881C19.185 19.0996 19.1791 19.5798 18.8857 19.8842L13.565 25.4046C13.3765 25.6001 13.1166 25.7106 12.845 25.7106L9.37825 25.7107C8.93468 25.7107 8.71074 25.176 9.02193 24.8599L12.0964 21.737Z" fill="url(#paint5_linear_11470_21298)"/>
</g>
<defs>
<linearGradient id="paint0_linear_11470_21298" x1="4.37645" y1="22.7996" x2="40.7275" y2="12.1142" gradientUnits="userSpaceOnUse">
<stop stop-color="#492EF3"/>
<stop offset="1" stop-color="#CF69FF"/>
</linearGradient>
<linearGradient id="paint1_linear_11470_21298" x1="5.71191" y1="23.0284" x2="25.027" y2="20.1438" gradientUnits="userSpaceOnUse">
<stop stop-color="#492EF3"/>
<stop offset="1" stop-color="#CF69FF"/>
</linearGradient>
<linearGradient id="paint2_linear_11470_21298" x1="9.76044" y1="26.73" x2="-3.69309" y2="29.1027" gradientUnits="userSpaceOnUse">
<stop stop-color="#FFF06A"/>
<stop offset="1" stop-color="#EC78FF"/>
</linearGradient>
<linearGradient id="paint3_linear_11470_21298" x1="9.76044" y1="9.3111" x2="-3.69309" y2="11.6838" gradientUnits="userSpaceOnUse">
<stop stop-color="#FFF06A"/>
<stop offset="1" stop-color="#EC78FF"/>
</linearGradient>
<linearGradient id="paint4_linear_11470_21298" x1="-25.2091" y1="23.334" x2="19.7357" y2="10.6593" gradientUnits="userSpaceOnUse">
<stop stop-color="#FFF06A"/>
<stop offset="1" stop-color="#EC78FF"/>
</linearGradient>
<linearGradient id="paint5_linear_11470_21298" x1="-8.55895" y1="24.3039" x2="32.2319" y2="9.9529" gradientUnits="userSpaceOnUse">
<stop stop-color="#EC78FF"/>
<stop offset="1" stop-color="#FFF06A"/>
</linearGradient>
<clipPath id="clip0_11470_21298">
<rect width="40" height="40" rx="8" fill="white"/>
</clipPath>
</defs>
</svg>
