<svg width="24" height="24" viewBox="0 0 24 24" fill="none" xmlns="http://www.w3.org/2000/svg">
  <path fill-rule="evenodd" clip-rule="evenodd" d="M11.9854 2C6.48023 2 2 6.48677 2 11.9999C2 17.5131 6.48023 21.9999 11.9854 21.9999C17.5198 22.0292 22 17.5424 22 11.9999C22 6.45745 17.5198 2 11.9854 2ZM11.9854 19.3899C7.94436 19.3899 4.63543 16.0761 4.63543 11.9999C4.63543 7.95304 7.94436 4.63928 11.9854 4.63928C16.0556 4.63928 19.3646 7.95304 19.3646 11.9999C19.3646 16.0761 16.0556 19.3899 11.9854 19.3899ZM14.4749 11.5894C15.6231 11.5894 16.554 10.6572 16.554 9.50731C16.554 8.3574 15.6231 7.42521 14.4749 7.42521C13.3267 7.42521 12.3958 8.3574 12.3958 9.50731C12.3958 10.6572 13.3267 11.5894 14.4749 11.5894ZM16.554 14.4926C16.554 15.6425 15.6231 16.5747 14.4749 16.5747C13.3267 16.5747 12.3958 15.6425 12.3958 14.4926C12.3958 13.3427 13.3267 12.4105 14.4749 12.4105C15.6231 12.4105 16.554 13.3427 16.554 14.4926ZM9.49703 16.5747C10.6453 16.5747 11.5761 15.6425 11.5761 14.4926C11.5761 13.3427 10.6453 12.4105 9.49703 12.4105C8.3488 12.4105 7.41797 13.3427 7.41797 14.4926C7.41797 15.6425 8.3488 16.5747 9.49703 16.5747ZM11.5761 9.50731C11.5761 10.6572 10.6453 11.5894 9.49703 11.5894C8.3488 11.5894 7.41797 10.6572 7.41797 9.50731C7.41797 8.3574 8.3488 7.42521 9.49703 7.42521C10.6453 7.42521 11.5761 8.3574 11.5761 9.50731Z" style="fill: rgb(70, 72, 148);"/>
</svg>
