<svg width="512.000000" height="512.000000" viewBox="0 0 512 512" fill="none" xmlns="http://www.w3.org/2000/svg" xmlns:xlink="http://www.w3.org/1999/xlink">
	<g>
		<rect rx="64.000000" width="512.000000" height="512.000000" fill="#87EB00" fill-opacity="1.000000"/>
		<rect x="125.000000" y="110.000000" width="265.000000" height="264.000000" fill="#FFFFFF" fill-opacity="1.000000"/>
		<path d="M122.6 86.68C122.15 88.25 109.37 147.98 94.35 219.56L67 349.54L78.65 371.01L90.31 392.71L156.9 392.71L223.49 392.71L239.4 422.47L255.1 452L272.81 452L290.3 452L295.68 427.39C298.37 413.74 301.28 400.54 301.96 397.86C303.08 392.94 303.75 392.71 346.12 392.27L389.17 391.59L417.19 259.61L445 127.62L433.34 105.7L421.45 84L272.59 84C155.33 84 123.27 84.67 122.6 86.68ZM249.72 118.67C250.39 119.34 248.6 131.2 245.46 144.84C242.54 158.49 240.53 170.57 240.75 171.69C241.2 173.03 252.63 161.17 266.08 145.74L290.52 117.55L324.82 117.55C363.84 117.55 361.37 115.99 356.66 137.91C354.42 148.65 350.61 153.57 315.41 193.61L276.62 237.68L297.7 277.06L319 316.43L316.08 328.28L313.17 340.14L281.33 340.81L249.49 341.48L236.04 316.2C215.64 277.73 217.21 278.4 211.16 306.81C203.08 345.06 207.79 341.26 168.78 341.26C150.4 341.26 134.7 340.59 134.25 339.47C133.81 338.58 142.77 293.61 154.21 239.47C165.64 185.34 176.18 135.67 177.53 129.18L179.99 117.55L214.29 117.55C233.13 117.55 249.05 118 249.72 118.67Z" fill="#000000" fill-opacity="1.000000" fill-rule="nonzero"/>
		<path d="M94.35 219.56L67 349.54L78.65 371.01L90.31 392.71L156.9 392.71L223.49 392.71L239.4 422.47L255.1 452L272.81 452L290.3 452L295.68 427.39C298.37 413.74 301.28 400.54 301.96 397.86C303.08 392.94 303.75 392.71 346.12 392.27L389.17 391.59L417.19 259.61L445 127.62L433.34 105.7L421.45 84L272.59 84C155.33 84 123.27 84.67 122.6 86.68C122.15 88.25 109.37 147.98 94.35 219.56ZM245.46 144.84C242.54 158.49 240.53 170.57 240.75 171.69C241.2 173.03 252.63 161.17 266.08 145.74L290.52 117.55L324.82 117.55C363.84 117.55 361.37 115.99 356.66 137.91C354.42 148.65 350.61 153.57 315.41 193.61L276.62 237.68L297.7 277.06L319 316.43L316.08 328.28L313.17 340.14L281.33 340.81L249.49 341.48L236.04 316.2C215.64 277.73 217.21 278.4 211.16 306.81C203.08 345.06 207.79 341.26 168.78 341.26C150.4 341.26 134.7 340.59 134.25 339.47C133.81 338.58 142.77 293.61 154.21 239.47C165.64 185.34 176.18 135.67 177.53 129.18L179.99 117.55L214.29 117.55C233.13 117.55 249.05 118 249.72 118.67C250.39 119.34 248.6 131.2 245.46 144.84Z" stroke="#000000" stroke-opacity="0" stroke-width="0.133333"/>
	</g>
</svg>
