<svg width="40" height="40" viewBox="0 0 40 40" fill="none" xmlns="http://www.w3.org/2000/svg">
<path d="M34.5202 5.29301C30.8061 -0.0231135 23.4705 -1.59983 18.1666 1.78022L8.8517 7.71725C7.59326 8.50892 6.51387 9.55448 5.68254 10.7871C4.85121 12.0197 4.28624 13.4122 4.02374 14.8756C3.57927 17.3403 3.96955 19.8828 5.13282 22.1007C4.33546 23.3102 3.79179 24.669 3.5347 26.0947C3.26932 27.5874 3.30468 29.1181 3.63871 30.597C3.97275 32.0759 4.59873 33.4732 5.47995 34.707C9.19403 40.0236 16.5305 41.5998 21.8335 38.2194L31.1484 32.2823C32.4069 31.4908 33.4864 30.4453 34.3178 29.2128C35.1492 27.9803 35.7142 26.5878 35.9768 25.1244C36.421 22.6596 36.0307 20.117 34.8677 17.8989C35.6648 16.6894 36.2083 15.3308 36.4654 13.9053C36.7309 12.4126 36.6956 10.8818 36.3615 9.40288C36.0274 7.92395 35.4016 6.52665 34.5202 5.29301Z" fill="#FF3E00"/>
<path d="M17.2584 35.208C15.7924 35.5891 14.2448 35.5112 12.8245 34.9848C11.4042 34.4583 10.1797 33.5087 9.3163 32.2641C8.78637 31.5223 8.40989 30.6821 8.20895 29.7929C8.008 28.9036 7.98664 27.9832 8.1461 27.0856C8.20024 26.7913 8.27447 26.5005 8.36879 26.2162L8.54388 25.6804L9.02157 26.0306C10.1233 26.8408 11.3553 27.4569 12.6645 27.8523L13.0103 27.9571L12.9784 28.3029C12.936 28.7945 13.069 29.2852 13.3539 29.6879C13.6139 30.0631 13.9828 30.3493 14.4108 30.508C14.8387 30.6667 15.305 30.6901 15.7467 30.5752C15.949 30.5216 16.1419 30.4374 16.3187 30.3254L25.6341 24.3867C25.862 24.2431 26.0575 24.0537 26.2082 23.8304C26.3588 23.6071 26.4613 23.3549 26.5091 23.0898C26.5569 22.8193 26.5503 22.5419 26.4897 22.2739C26.4291 22.0058 26.3158 21.7526 26.1563 21.5288C25.8963 21.1537 25.5274 20.8674 25.0995 20.7086C24.6716 20.5498 24.2053 20.5261 23.7635 20.6407C23.5612 20.6943 23.3683 20.7785 23.1915 20.8905L19.6372 23.1566C19.0523 23.5283 18.4139 23.8083 17.7444 23.9871C16.2785 24.3682 14.7309 24.2902 13.3107 23.7638C11.8905 23.2374 10.6661 22.2878 9.80272 21.0433C9.2727 20.3015 8.89617 19.4613 8.69522 18.5721C8.49428 17.6828 8.47296 16.7623 8.63252 15.8647C8.7909 14.9847 9.1312 14.1475 9.63164 13.4065C10.1321 12.6655 10.7817 12.0372 11.5388 11.5616L20.8533 5.62457C21.4381 5.2523 22.0764 4.97178 22.7461 4.79277C24.212 4.41164 25.7596 4.48957 27.1798 5.01602C28.6 5.54247 29.8245 6.49208 30.6878 7.73661C31.2177 8.47845 31.5942 9.31864 31.7951 10.2079C31.9961 11.0971 32.0174 12.0176 31.858 12.9152C31.8034 13.2102 31.7287 13.5011 31.6344 13.7859L31.4584 14.3225L30.9812 13.9732C29.8796 13.1629 28.6478 12.5469 27.3387 12.1515L26.992 12.0467L27.0243 11.7009C27.0664 11.2094 26.9334 10.7188 26.6488 10.3159C26.3889 9.94109 26.0203 9.65506 25.5928 9.4964C25.1652 9.33774 24.6992 9.31407 24.2578 9.4286C24.0555 9.48218 23.8626 9.56641 23.6858 9.67836L14.3704 15.6145C14.1425 15.758 13.947 15.9475 13.7964 16.1707C13.6459 16.394 13.5435 16.6463 13.4958 16.9113C13.4479 17.1819 13.4543 17.4592 13.5147 17.7273C13.5751 17.9953 13.6884 18.2486 13.8478 18.4723C14.1078 18.8474 14.4767 19.1337 14.9046 19.2925C15.3325 19.4513 15.7988 19.475 16.2406 19.3605C16.4428 19.3067 16.6357 19.2225 16.8126 19.1107L20.3664 16.8454C20.9511 16.4731 21.5895 16.1927 22.2593 16.014C23.7247 15.6331 25.2718 15.7109 26.6917 16.237C28.1115 16.7631 29.3358 17.7122 30.1992 18.9561C30.7292 19.6979 31.1057 20.5381 31.3067 21.4274C31.5076 22.3167 31.5289 23.2371 31.3694 24.1347C31.2114 25.0148 30.8716 25.8523 30.3716 26.5936C29.8716 27.335 29.2225 27.9638 28.4657 28.44L19.1508 34.3757C18.5662 34.748 17.928 35.0285 17.2584 35.2075" fill="white"/>
</svg>
