<svg width="40" height="40" viewBox="0 0 40 40" fill="none" xmlns="http://www.w3.org/2000/svg">
<path d="M18.9545 15.237C19.2816 14.7549 19.6397 14.6936 19.9302 14.6936C20.2207 14.6936 20.7046 14.7549 21.0319 15.237C23.6103 18.7786 27.8665 25.8337 31.0061 31.0379C33.0535 34.4318 34.6261 37.0384 34.9487 37.3701C36.1598 38.6154 37.8209 37.8393 38.786 36.4268C39.7363 35.0362 40 34.0597 40 33.018C40 32.3084 26.2336 6.7055 24.8472 4.57437C23.5139 2.52459 23.0797 2.00684 20.7977 2.00684H19.0901C16.8149 2.00684 16.4862 2.52459 15.1527 4.57437C13.7665 6.7055 0 32.3084 0 33.018C0 34.0597 0.263794 35.0362 1.21403 36.4268C2.17922 37.8393 3.84023 38.6154 5.05133 37.3701C5.374 37.0384 6.94655 34.4318 8.99399 31.0379C12.1335 25.8337 16.376 18.7786 18.9545 15.237Z" fill="black"/>
</svg>
