<svg width="24" height="24" viewBox="0 0 24 24" fill="none" xmlns="http://www.w3.org/2000/svg">
<g clip-path="url(#clip0_865_12361)">
<path d="M20.7433 17.3199C20.358 17.6932 19.5875 18.2532 18.2392 18.2532C17.6613 18.2532 16.9871 18.2532 16.6982 18.2532C16.3129 18.2532 13.4236 18.2532 9.95641 18.2532C12.4605 15.9199 14.5793 13.9599 14.772 13.7732C14.9646 13.5866 15.4461 13.1199 15.9277 12.7466C16.8908 11.9066 17.6613 11.8132 18.3355 11.8132C19.2986 11.8132 20.0691 12.1866 20.7433 12.7466C22.0916 13.9599 22.0916 16.1066 20.7433 17.3199ZM22.3805 11.2532C21.4174 10.2266 19.9728 9.57324 18.4318 9.57324C17.0834 9.57324 15.9277 10.0399 14.8683 10.7866C14.483 11.1599 13.9052 11.5332 13.4236 12.0932C13.0384 12.4666 4.75562 20.3066 4.75562 20.3066C5.23717 20.3999 5.81504 20.3999 6.29659 20.3999C6.77815 20.3999 16.4093 20.3999 16.7945 20.3999C17.565 20.3999 18.1429 20.3999 18.7207 20.3066C19.9728 20.2132 21.2248 19.7466 22.2842 18.8132C24.4994 16.7599 24.4994 13.3066 22.3805 11.2532Z" fill="#00A3FF"/>
<path d="M8.89694 10.6932C7.83751 9.94658 6.77809 9.57324 5.52605 9.57324C3.98507 9.57324 2.54041 10.2266 1.57729 11.2532C-0.541549 13.3999 -0.541549 16.7599 1.67361 18.9066C2.63672 19.7466 3.59983 20.2132 4.75556 20.3066L6.97071 18.2532C6.58547 18.2532 6.10391 18.2532 5.71867 18.2532C4.46663 18.1599 3.69614 17.7866 3.21458 17.3199C1.86623 16.0132 1.86623 13.9599 3.11827 12.6532C3.79245 11.9999 4.56294 11.7199 5.52605 11.7199C6.10391 11.7199 6.97071 11.8132 7.83751 12.6532C8.22276 13.0266 9.28218 13.7732 9.66742 14.1466H9.76374L11.2084 12.7466V12.6532C10.5342 11.9999 9.4748 11.1599 8.89694 10.6932Z" fill="#00C8DC"/>
<path d="M19.0097 8.35985C17.9502 5.55985 15.1572 3.59985 11.9789 3.59985C8.22281 3.59985 5.23717 6.30652 4.6593 9.66652C4.94823 9.66652 5.23717 9.57319 5.62241 9.57319C6.00766 9.57319 6.48921 9.66652 6.87446 9.66652C7.35601 7.33319 9.47485 5.65319 11.9789 5.65319C14.0978 5.65319 15.9277 6.86652 16.7945 8.63985C16.7945 8.63985 16.8908 8.73319 16.8908 8.63985C17.565 8.54652 18.3355 8.35985 19.0097 8.35985C19.0097 8.45319 19.0097 8.45319 19.0097 8.35985Z" fill="#006EFF"/>
</g>
<defs>
<clipPath id="clip0_865_12361">
<rect width="24" height="16.8" fill="white" transform="translate(0 3.59998)"/>
</clipPath>
</defs>
</svg>
