<svg width="24" height="24" viewBox="0 0 24 24" fill="none" xmlns="http://www.w3.org/2000/svg">
<g clip-path="url(#clip0_865_12381)">
<path d="M11.1371 0.0348288C16.4531 -0.33295 19.9779 2.26262 21.9934 5.42503C23.0039 7.01065 23.9954 9.4189 24 11.8933C24.0049 14.5818 23.1319 16.9099 21.9934 18.6182C20.8231 20.374 19.3095 21.8242 17.4142 22.7764C14.246 24.3681 9.81822 24.4117 6.91806 22.8791C3.68823 21.1723 1.20492 18.7361 0.280825 14.5114C-0.0889881 12.8207 -0.131495 10.6361 0.383725 8.76184C0.50463 8.32217 0.724345 7.85944 0.898264 7.42713C1.73405 5.34961 3.15664 3.54305 4.91147 2.29355C5.61661 1.7915 6.47205 1.29217 7.2268 0.958836C8.16589 0.544125 9.747 0.130975 11.1371 0.0348288Z" fill="white"/>
<path d="M21.221 12.1925C21.221 17.2053 17.1481 21.2688 12.1239 21.2688C7.09982 21.2688 3.02698 17.2053 3.02698 12.1925C3.02698 7.17973 7.09982 3.11597 12.1239 3.11597C17.148 3.11597 21.221 7.17973 21.221 12.1925Z" fill="black"/>
<path d="M11.1371 0.0348288C16.4531 -0.33295 19.9779 2.26262 21.9934 5.42503C23.0039 7.01065 23.9954 9.4189 24 11.8933C24.0049 14.5818 23.1319 16.9099 21.9934 18.6182C20.8231 20.374 19.3095 21.8242 17.4142 22.7764C14.246 24.3681 9.81822 24.4117 6.91806 22.8791C3.68823 21.1723 1.20492 18.7361 0.280825 14.5114C-0.0889881 12.8207 -0.131495 10.6361 0.383725 8.76184C0.50463 8.32217 0.724345 7.85944 0.898264 7.42713C1.73405 5.34961 3.15664 3.54305 4.91147 2.29355C5.61661 1.7915 6.47205 1.29217 7.2268 0.958836C8.16589 0.544125 9.747 0.130975 11.1371 0.0348288ZM9.33628 0.907542C7.36174 1.41832 5.91397 2.3334 4.65423 3.32031C2.83768 4.74341 1.67964 6.72934 1.00116 9.12118C0.246338 11.7822 0.731202 15.0024 1.77295 17.0268C2.85324 19.1263 4.30374 20.7559 6.35211 21.9037C8.34494 23.0203 11.1479 23.7373 14.0699 23.1871C16.666 22.6982 18.6378 21.5698 20.2441 19.9016C22.3932 17.6696 24.1204 13.5585 22.971 9.22385C22.6638 8.06534 22.2621 6.85789 21.6332 5.8357C21.2935 5.28347 20.795 4.74021 20.2955 4.19298C18.4105 2.12759 15.3639 0.347792 11.4458 0.5995C10.7002 0.647393 10.0449 0.724213 9.33628 0.907542Z" fill="black"/>
<path d="M12.7024 23.1059L23.2145 12.6179L23.1577 12.5613L12.6457 23.0494L12.7024 23.1059Z" fill="white"/>
<path d="M11.7833 22.2757L22.3412 11.7419L22.2845 11.6853L11.7266 22.2192L11.7833 22.2757Z" fill="white"/>
<path d="M10.8643 21.4456L21.4681 10.8659L21.4114 10.8093L10.8076 21.389L10.8643 21.4456Z" fill="white"/>
<path d="M9.94532 20.6149L20.595 9.98945L20.5383 9.93286L9.88861 20.5583L9.94532 20.6149Z" fill="white"/>
<path d="M9.02632 19.7841L19.7219 9.11286L19.6652 9.05627L8.9696 19.7275L9.02632 19.7841Z" fill="white"/>
<path d="M8.10731 18.9535L18.8487 8.23627L18.792 8.17969L8.0506 18.8969L8.10731 18.9535Z" fill="white"/>
<path d="M7.18836 18.1231L17.9757 7.36029L17.919 7.30371L7.13165 18.0665L7.18836 18.1231Z" fill="white"/>
<path d="M6.26936 17.2923L17.1025 6.48371L17.0458 6.42712L6.21265 17.2357L6.26936 17.2923Z" fill="white"/>
<path d="M5.35029 16.4615L16.2291 5.60712L16.1724 5.55054L5.29358 16.4049L5.35029 16.4615Z" fill="white"/>
<path d="M4.43135 15.6313L15.3562 4.73114L15.2995 4.67456L4.37463 15.5747L4.43135 15.6313Z" fill="white"/>
<path d="M3.51234 14.8006L14.4831 3.85468L14.4264 3.7981L3.45563 14.744L3.51234 14.8006Z" fill="white"/>
<path d="M2.59327 13.9698L13.61 2.97809L13.5532 2.92151L2.53656 13.9132L2.59327 13.9698Z" fill="white"/>
<path d="M1.67445 13.1396L12.737 2.10212L12.6803 2.04553L1.61774 13.083L1.67445 13.1396Z" fill="white"/>
<path d="M0.755381 12.3088L11.8638 1.22553L11.8071 1.16895L0.698669 12.2522L0.755381 12.3088Z" fill="white"/>
<path d="M0.695068 12.4145L11.4172 23.1129L11.4739 23.0563L0.751781 12.3579L0.695068 12.4145Z" fill="white"/>
<path d="M1.56458 11.5345L12.3075 22.2537L12.3642 22.1971L1.62129 11.4779L1.56458 11.5345Z" fill="white"/>
<path d="M2.43427 10.655L13.1981 21.395L13.2548 21.3384L2.49098 10.5984L2.43427 10.655Z" fill="white"/>
<path d="M3.30377 9.77484L14.0885 20.5357L14.1452 20.4791L3.36049 9.71826L3.30377 9.77484Z" fill="white"/>
<path d="M4.1731 8.89484L14.9787 19.6764L15.0354 19.6199L4.22981 8.83826L4.1731 8.89484Z" fill="white"/>
<path d="M5.04266 8.01471L15.8692 18.8171L15.9259 18.7605L5.09938 7.95813L5.04266 8.01471Z" fill="white"/>
<path d="M5.91211 7.13471L16.7595 17.9579L16.8162 17.9013L5.96882 7.07812L5.91211 7.13471Z" fill="white"/>
<path d="M6.78162 6.25519L17.6499 17.0992L17.7066 17.0426L6.83833 6.19861L6.78162 6.25519Z" fill="white"/>
<path d="M7.65106 5.37506L18.5402 16.2399L18.5969 16.1833L7.70777 5.31848L7.65106 5.37506Z" fill="white"/>
<path d="M8.52069 4.49506L19.4306 15.3806L19.4873 15.324L8.5774 4.43848L8.52069 4.49506Z" fill="white"/>
<path d="M9.39014 3.61493L20.321 14.5213L20.3777 14.4647L9.44685 3.55835L9.39014 3.61493Z" fill="white"/>
<path d="M10.2596 2.73481L21.2113 13.662L21.268 13.6054L10.3163 2.67822L10.2596 2.73481Z" fill="white"/>
<path d="M11.1292 1.85541L22.1017 12.8034L22.1584 12.7468L11.1859 1.79883L11.1292 1.85541Z" fill="white"/>
<path d="M11.9987 0.975285L22.9921 11.944L23.0488 11.8874L12.0554 0.918701L11.9987 0.975285Z" fill="white"/>
<path d="M19.6782 4.24481C18.7321 3.30083 17.5689 2.45021 16.1795 1.93471C14.7393 1.40036 13.1102 0.949964 11.1887 1.11333C8.12795 1.37364 5.97892 2.7438 4.34564 4.34747C3.20163 5.47069 2.3411 6.8471 1.77306 8.45429C0.939039 10.8142 0.989646 13.5996 1.92741 16.0006C2.72731 18.0486 4.03654 19.7005 5.88917 20.9801C7.63081 22.1831 10.1305 23.1161 12.938 22.8796C16.3575 22.5914 18.8595 20.841 20.5014 18.8241C20.9215 18.3081 21.3392 17.7249 21.5818 17.0273C21.8196 16.5248 21.936 16.1831 22.0449 16.0006C22.5009 14.9811 22.7426 13.9053 22.8167 12.7152C23.0446 9.05453 21.633 6.19521 19.6782 4.24481ZM18.6704 15.3977C18.6639 15.4116 18.658 15.4246 18.6512 15.439C18.4816 15.9233 18.1894 16.3283 17.8957 16.6866C16.7474 18.0871 14.9978 19.3026 12.6065 19.5027C10.6431 19.6669 8.89508 19.0191 7.67717 18.1838C6.61882 17.4579 5.81431 16.5593 5.25016 15.4794C5.21575 15.4144 4.88813 14.6613 4.88716 14.6282C4.44024 13.2451 4.40146 11.021 4.86018 9.68638C5.16631 8.79562 5.67652 7.83185 6.35226 7.06828C7.28526 6.01396 8.21894 5.33838 9.69663 4.86085C10.3713 4.64279 10.9753 4.42085 11.8061 4.39885C13.832 4.34503 15.895 5.2526 17.0027 6.2469C18.0206 7.16063 19.1808 8.9405 19.4724 10.6104C19.7726 12.3291 19.4523 14.0072 18.6704 15.3977Z" fill="black"/>
<path d="M15.149 17.0455C14.6502 17.0455 14.2124 16.7303 14.0596 16.2612L13.5039 14.572H10.7243L10.2081 16.2458C10.0522 16.724 9.61112 17.0442 9.10969 17.0442C8.98931 17.0442 8.86973 17.0252 8.75427 16.9878C8.15492 16.8083 7.81466 16.1647 7.99829 15.5539L10.3444 8.13895C10.4968 7.66726 10.9453 7.33826 11.4352 7.33826H12.6828C13.1754 7.33826 13.6239 7.66166 13.7733 8.12475L16.2407 15.5369C16.438 16.1429 16.1112 16.7934 15.5128 16.9878C15.3944 17.0261 15.2721 17.0455 15.149 17.0455Z" fill="white"/>
<path d="M15.149 16.8856C14.7021 16.8856 14.3106 16.6038 14.174 16.1842L13.6182 14.4947L13.5911 14.4121H13.5039H10.7243H10.6355L10.6093 14.4968L10.0931 16.1706C9.95397 16.5974 9.55917 16.8843 9.10967 16.8843C9.00202 16.8843 8.89496 16.8673 8.79138 16.8338C8.25322 16.6726 7.94893 16.0959 8.1135 15.5485L10.4591 8.13521C10.5953 7.71368 10.9976 7.41841 11.4352 7.41841H12.6827C13.1234 7.41841 13.5254 7.70836 13.6587 8.12164L16.1265 15.5348C16.3031 16.0773 16.0106 16.66 15.4755 16.8338C15.3693 16.8682 15.2595 16.8856 15.149 16.8856ZM15.149 17.1257C15.2847 17.1257 15.4196 17.1043 15.5499 17.0621C16.2121 16.847 16.5727 16.1285 16.355 15.4599L13.8874 8.04703C13.7223 7.53522 13.2275 7.17834 12.6827 7.17834H11.4352C10.8927 7.17834 10.3982 7.54129 10.2299 8.06226L7.88354 15.4778C7.68058 16.1529 8.05582 16.8641 8.71966 17.0629C8.84462 17.1034 8.97673 17.1244 9.10967 17.1244C9.66351 17.1244 10.1506 16.7704 10.3225 16.243L10.8393 14.5674L10.7243 14.6521H13.5039L13.3896 14.5695L13.9453 16.2587C14.1141 16.7771 14.5982 17.1257 15.149 17.1257Z" fill="black"/>
<path d="M5.93518 4.97546L5.93225 4.9715C5.63967 4.57143 5.72553 4.01176 6.15642 3.698C6.5873 3.38427 7.14082 3.47234 7.4334 3.87236L7.43633 3.87632C7.72891 4.27639 7.64305 4.8361 7.21216 5.14982C6.78127 5.46355 6.22776 5.37552 5.93518 4.97546ZM7.04426 4.16792L7.04133 4.16396C6.89432 3.96295 6.62059 3.89381 6.40717 4.04921C6.19572 4.20317 6.17927 4.47744 6.32629 4.6785L6.32921 4.68246C6.47626 4.88347 6.74996 4.95261 6.96141 4.79865C7.17487 4.64325 7.19131 4.36897 7.04426 4.16792Z" fill="white"/>
<path d="M8.75598 2.35316L9.19569 2.2124L10.4284 3.64214L9.93925 3.79871L9.72503 3.54384L9.09011 3.74709L9.06685 4.07802L8.58716 4.23158L8.75598 2.35316ZM9.47941 3.23171L9.14585 2.82353L9.1102 3.34991L9.47941 3.23171Z" fill="white"/>
<path d="M11.2202 2.78356L11.2241 1.81519L11.7106 1.81711L11.7068 2.77564C11.7058 3.02451 11.8312 3.14326 12.0239 3.14406C12.2165 3.14482 12.3429 3.03199 12.3439 2.79053L12.3478 1.81971L12.8343 1.82163L12.8304 2.77768C12.8282 3.33455 12.5087 3.57726 12.0172 3.5753C11.5258 3.5733 11.2181 3.32319 11.2202 2.78356Z" fill="white"/>
<path d="M14.5912 2.61417L14.0953 2.46313L14.2178 2.0625L15.668 2.5041L15.5455 2.90473L15.0495 2.75372L14.6674 4.0027L14.2092 3.86318L14.5912 2.61417Z" fill="white"/>
<path d="M16.9635 3.06323L17.3623 3.32806L17.0039 3.86549L17.5158 4.20542L17.8743 3.66795L18.2731 3.93279L17.3154 5.36873L16.9165 5.1039L17.2805 4.55823L16.7685 4.2183L16.4046 4.76397L16.0057 4.49914L16.9635 3.06323Z" fill="white"/>
<path d="M18.372 18.7606L18.3751 18.7645C18.6828 19.1531 18.6184 19.7158 18.1998 20.0457C17.7812 20.3756 17.2247 20.3087 16.917 19.9201L16.9139 19.9162C16.6062 19.5276 16.6706 18.965 17.0892 18.635C17.5078 18.3052 18.0643 18.372 18.372 18.7606ZM17.2945 19.6099L17.2976 19.6138C17.4522 19.8091 17.7284 19.8678 17.9358 19.7043C18.1412 19.5424 18.1471 19.2677 17.9925 19.0724L17.9894 19.0685C17.8348 18.8732 17.5586 18.8146 17.3532 18.9765C17.1458 19.1399 17.1399 19.4146 17.2945 19.6099Z" fill="white"/>
<path d="M15.6677 21.4929L15.2346 21.6528L13.9401 20.2786L14.4218 20.1007L14.6471 20.3459L15.2724 20.115L15.281 19.7834L15.7535 19.6089L15.6677 21.4929ZM14.9062 20.647L15.2575 21.0401L15.2699 20.5126L14.9062 20.647Z" fill="white"/>
<path d="M13.1886 21.1655L13.2314 22.1329L12.7454 22.1543L12.703 21.1967C12.692 20.9481 12.561 20.8355 12.3685 20.844C12.1761 20.8525 12.0553 20.9713 12.0659 21.2125L12.1088 22.1823L11.6228 22.2037L11.5805 21.2487C11.5559 20.6923 11.8634 20.4346 12.3544 20.413C12.8454 20.3913 13.1648 20.6264 13.1886 21.1655Z" fill="white"/>
<path d="M9.81148 21.482L10.3122 21.6169L10.2028 22.0213L8.73865 21.627L8.84808 21.2225L9.34883 21.3574L9.68997 20.0964L10.1526 20.221L9.81148 21.482Z" fill="white"/>
<path d="M7.44462 21.1302L7.03362 20.8845L7.36626 20.3307L6.83881 20.0153L6.50617 20.5691L6.09521 20.3233L6.98402 18.8438L7.39498 19.0895L7.05724 19.6518L7.58473 19.9672L7.92247 19.405L8.33342 19.6508L7.44462 21.1302Z" fill="white"/>
</g>
<defs>
<clipPath id="clip0_865_12381">
<rect width="24" height="24" fill="white"/>
</clipPath>
</defs>
</svg>
