<svg viewBox="0 0 60 40" fill="none" xmlns="http://www.w3.org/2000/svg">
  <g clip-path="url(#clip0_11580_24708)">
    <path d="M0 0H60V40H0V0Z" fill="#2B55A6" />
    <path
      d="M3.51562 0L14.9531 7.54167L26.3438 0H30V2.58333L18.75 10.0417L30 17.4583V20H26.25L15 12.5417L3.79688 20H0V17.5L11.2031 10.0833L0 2.66667V0H3.51562Z"
      fill="white" />
    <path
      d="M19.875 11.7083L30 18.3333V20L17.2969 11.7083H19.875ZM11.25 12.5417L11.5312 14L2.53125 20H0L11.25 12.5417ZM30 0V0.125L18.3281 7.95833L18.4219 6.125L27.6562 0H30ZM0 0L11.2031 7.33333H8.39062L0 1.75V0Z"
      fill="#FF0000" />
    <path d="M11.2969 0V20H18.7969V0H11.2969ZM0 6.66667V13.3333H30V6.66667H0Z" fill="white" />
    <path d="M0 8.04167V12.0417H30V8.04167H0ZM12.7969 0V20H17.2969V0H12.7969Z" fill="#FF0000" />
    <path
      d="M47.9416 33.0585L46.2333 33.2752L46.4166 34.9835L45.1833 33.7835L43.9583 34.9919L44.125 33.2835L42.4166 33.0835L43.8583 32.1502L42.9499 30.6919L44.5833 31.2335L45.1583 29.6085L45.75 31.2252L47.375 30.6669L46.4833 32.1335L47.9416 33.0585ZM47.6333 23.2919L47.8583 22.2085L47.0416 21.4585L48.1416 21.3335L48.5999 20.3252L49.0583 21.3335L50.1583 21.4585L49.3416 22.2085L49.5666 23.2919L48.5999 22.7419L47.6333 23.2919ZM38.9583 18.2919L37.2666 18.4752L37.4166 20.1669L36.2166 18.9585L34.9833 20.1335L35.1833 18.4419L33.5 18.2169L34.9416 17.3169L34.0666 15.8585L35.6749 16.4252L36.2749 14.8335L36.8333 16.4419L38.4499 15.9169L37.5416 17.3585L38.9666 18.2919H38.9583ZM55.9416 15.5585L54.1999 15.7835L54.3916 17.5252L53.1333 16.3002L51.8833 17.5335L52.0583 15.7835L50.3166 15.5835L51.7916 14.6252L50.8666 13.1335L52.5333 13.6919L53.1166 12.0419L53.7166 13.6919L55.375 13.1169L54.4583 14.6169L55.9416 15.5585ZM47.9333 8.60019L46.2083 8.79186L46.3666 10.5252L45.1416 9.29186L43.8833 10.4919L44.0833 8.76686L42.3583 8.53353L43.8333 7.61686L42.9416 6.1252L44.5833 6.7002L45.1916 5.0752L45.7583 6.71686L47.4083 6.1752L46.4833 7.64186L47.9333 8.60019ZM21.525 32.1419L17.7083 32.5919L18.0916 36.4169L15.3583 33.7169L12.6083 36.4002L13.0166 32.5752L9.19995 32.0919L12.4416 30.0252L10.4416 26.7419L14.075 27.9919L15.3916 24.3752L16.6833 28.0002L20.325 26.7752L18.3 30.0419L21.5333 32.1335L21.525 32.1419Z"
      fill="white" />
  </g>
  <defs>
    <clipPath id="clip0_11580_24708">
      <rect width="60" height="40" rx="2" fill="white" />
    </clipPath>
  </defs>
</svg>
  
