<svg width="19" height="12" viewBox="0 0 19 12" fill="none" xmlns="http://www.w3.org/2000/svg">
  <g clip-path="url(#clip0_1692_21495)">
    <path d="M0.333984 0H18.334V12H0.333984V0Z" fill="#00008B" />
    <path
      d="M1.38867 0L4.81992 2.2625L8.23711 0H9.33398V0.775L5.95898 3.0125L9.33398 5.2375V6H8.20898L4.83398 3.7625L1.47305 6H0.333984V5.25L3.69492 3.025L0.333984 0.8V0H1.38867Z"
      fill="white" />
    <path
      d="M6.29648 3.5125L9.33398 5.5V6L5.52305 3.5125H6.29648ZM3.70898 3.7625L3.79336 4.2L1.09336 6H0.333984L3.70898 3.7625ZM9.33398 0V0.0375L5.83242 2.3875L5.86055 1.8375L8.63086 0H9.33398ZM0.333984 0L3.69492 2.2H2.85117L0.333984 0.525V0Z"
      fill="#FF0000" />
    <path d="M3.72305 0V6H5.97305V0H3.72305ZM0.333984 2V4H9.33398V2H0.333984Z" fill="white" />
    <path d="M0.333984 2.4125V3.6125H9.33398V2.4125H0.333984ZM4.17305 0V6H5.52305V0H4.17305Z"
      fill="#FF0000" />
    <path
      d="M14.7162 9.91746L14.2037 9.98246L14.2587 10.495L13.8887 10.135L13.5212 10.4975L13.5712 9.98496L13.0587 9.92496L13.4912 9.64496L13.2187 9.20746L13.7087 9.36996L13.8812 8.88246L14.0587 9.36746L14.5462 9.19996L14.2787 9.63996L14.7162 9.91746ZM14.6237 6.98746L14.6912 6.66246L14.4462 6.43746L14.7762 6.39996L14.9137 6.09746L15.0512 6.39996L15.3812 6.43746L15.1362 6.66246L15.2037 6.98746L14.9137 6.82246L14.6237 6.98746ZM12.0212 5.48746L11.5137 5.54246L11.5587 6.04996L11.1987 5.68746L10.8287 6.03996L10.8887 5.53246L10.3837 5.46496L10.8162 5.19496L10.5537 4.75746L11.0362 4.92746L11.2162 4.44996L11.3837 4.93246L11.8687 4.77496L11.5962 5.20746L12.0237 5.48746H12.0212ZM17.1162 4.66746L16.5937 4.73496L16.6512 5.25746L16.2737 4.88996L15.8987 5.25996L15.9512 4.73496L15.4287 4.67496L15.8712 4.38746L15.5937 3.93996L16.0937 4.10746L16.2687 3.61246L16.4487 4.10746L16.9462 3.93496L16.6712 4.38496L17.1162 4.66746ZM14.7137 2.57996L14.1962 2.63746L14.2437 3.15746L13.8762 2.78746L13.4987 3.14746L13.5587 2.62996L13.0412 2.55996L13.4837 2.28496L13.2162 1.83746L13.7087 2.00996L13.8912 1.52246L14.0612 2.01496L14.5562 1.85246L14.2787 2.29246L14.7137 2.57996ZM6.79125 9.64246L5.64625 9.77746L5.76125 10.925L4.94125 10.115L4.11625 10.92L4.23875 9.77246L3.09375 9.62746L4.06625 9.00746L3.46625 8.02246L4.55625 8.39746L4.95125 7.31246L5.33875 8.39996L6.43125 8.03246L5.82375 9.01246L6.79375 9.63996L6.79125 9.64246Z"
      fill="white" />
  </g>
  <defs>
    <clipPath id="clip0_1692_21495">
      <rect x="0.333984" width="18" height="12" rx="1" fill="white" />
    </clipPath>
  </defs>
</svg>
  
