<svg width="19" height="12" viewBox="0 0 19 12" fill="none" xmlns="http://www.w3.org/2000/svg">
  <g clip-path="url(#clip0_1692_21196)">
    <path d="M18.5 0H0.5V12H18.5V0Z" fill="#003399" />
    <path d="M9.50195 1.33203L9.29594 1.96607L9.61296 2.06907L9.50195 1.33203Z" fill="#FFCC00" />
    <path d="M9.50195 1.33203L9.70796 1.96607L9.39095 2.06907L9.50195 1.33203Z" fill="#FFCC00" />
    <path d="M10.1357 1.79395L9.46908 1.79395L9.46908 2.12728L10.1357 1.79395Z" fill="#FFCC00" />
    <path d="M10.1357 1.79395L9.5964 2.1858L9.40047 1.91613L10.1357 1.79395Z" fill="#FFCC00" />
    <path d="M9.89355 2.53809L9.68754 1.90405L9.37052 2.00705L9.89355 2.53809Z" fill="#FFCC00" />
    <path d="M9.89355 2.53809L9.35421 2.14623L9.55014 1.87656L9.89355 2.53809Z" fill="#FFCC00" />
    <path d="M8.86816 1.79395L9.53483 1.79395L9.53483 2.12728L8.86816 1.79395Z" fill="#FFCC00" />
    <path d="M8.86816 1.79395L9.40751 2.1858L9.60344 1.91613L8.86816 1.79395Z" fill="#FFCC00" />
    <path d="M9.11035 2.53809L9.31636 1.90405L9.63338 2.00705L9.11035 2.53809Z" fill="#FFCC00" />
    <path d="M9.11035 2.53809L9.6497 2.14623L9.45377 1.87656L9.11035 2.53809Z" fill="#FFCC00" />
    <path d="M9.50195 9.33203L9.29594 9.96607L9.61296 10.0691L9.50195 9.33203Z" fill="#FFCC00" />
    <path d="M9.50195 9.33203L9.70796 9.96607L9.39095 10.0691L9.50195 9.33203Z" fill="#FFCC00" />
    <path d="M10.1357 9.79395L9.46908 9.79395L9.46908 10.1273L10.1357 9.79395Z" fill="#FFCC00" />
    <path d="M10.1357 9.79395L9.5964 10.1858L9.40047 9.91613L10.1357 9.79395Z" fill="#FFCC00" />
    <path d="M9.89355 10.5381L9.68754 9.90405L9.37052 10.0071L9.89355 10.5381Z" fill="#FFCC00" />
    <path d="M9.89355 10.5381L9.35421 10.1462L9.55014 9.87656L9.89355 10.5381Z" fill="#FFCC00" />
    <path d="M8.86816 9.79395L9.53483 9.79395L9.53483 10.1273L8.86816 9.79395Z" fill="#FFCC00" />
    <path d="M8.86816 9.79395L9.40751 10.1858L9.60344 9.91613L8.86816 9.79395Z" fill="#FFCC00" />
    <path d="M9.11035 10.5381L9.31636 9.90405L9.63338 10.0071L9.11035 10.5381Z" fill="#FFCC00" />
    <path d="M9.11035 10.5381L9.6497 10.1462L9.45377 9.87656L9.11035 10.5381Z" fill="#FFCC00" />
    <path d="M5.50195 5.33203L5.29594 5.96607L5.61296 6.06907L5.50195 5.33203Z" fill="#FFCC00" />
    <path d="M5.50195 5.33203L5.70796 5.96607L5.39095 6.06907L5.50195 5.33203Z" fill="#FFCC00" />
    <path d="M6.13574 5.79395L5.46908 5.79395L5.46908 6.12728L6.13574 5.79395Z" fill="#FFCC00" />
    <path d="M6.13574 5.79395L5.5964 6.1858L5.40047 5.91613L6.13574 5.79395Z" fill="#FFCC00" />
    <path d="M5.89355 6.53809L5.68754 5.90405L5.37052 6.00705L5.89355 6.53809Z" fill="#FFCC00" />
    <path d="M5.89355 6.53809L5.35421 6.14623L5.55014 5.87656L5.89355 6.53809Z" fill="#FFCC00" />
    <path d="M4.86816 5.79395L5.53483 5.79395L5.53483 6.12728L4.86816 5.79395Z" fill="#FFCC00" />
    <path d="M4.86816 5.79395L5.40751 6.1858L5.60344 5.91613L4.86816 5.79395Z" fill="#FFCC00" />
    <path d="M5.11035 6.53809L5.31636 5.90405L5.63338 6.00705L5.11035 6.53809Z" fill="#FFCC00" />
    <path d="M5.11035 6.53809L5.6497 6.14623L5.45377 5.87656L5.11035 6.53809Z" fill="#FFCC00" />
    <path d="M7.10938 3.07422L7.64872 2.68236L7.45279 2.41269L7.10938 3.07422Z" fill="#FFCC00" />
    <path d="M7.10938 3.07422L7.31539 2.44018L7.63241 2.54319L7.10938 3.07422Z" fill="#FFCC00" />
    <path d="M6.86719 2.32812L7.40653 2.71998L7.60246 2.45031L6.86719 2.32812Z" fill="#FFCC00" />
    <path d="M6.86719 2.32812L7.53385 2.32812L7.53385 2.66146L6.86719 2.32812Z" fill="#FFCC00" />
    <path d="M7.50195 1.86816L7.29594 2.5022L7.61296 2.60521L7.50195 1.86816Z" fill="#FFCC00" />
    <path d="M7.50195 1.86816L7.70796 2.5022L7.39095 2.60521L7.50195 1.86816Z" fill="#FFCC00" />
    <path d="M7.89258 3.07422L7.35323 2.68236L7.54916 2.41269L7.89258 3.07422Z" fill="#FFCC00" />
    <path d="M7.89258 3.07422L7.68657 2.44018L7.36955 2.54319L7.89258 3.07422Z" fill="#FFCC00" />
    <path d="M8.13574 2.33008L7.5964 2.72193L7.40047 2.45226L8.13574 2.33008Z" fill="#FFCC00" />
    <path d="M8.13574 2.33008L7.46908 2.33008L7.46908 2.66341L8.13574 2.33008Z" fill="#FFCC00" />
    <path d="M6.42969 4.53906L6.22368 3.90502L5.90666 4.00803L6.42969 4.53906Z" fill="#FFCC00" />
    <path d="M6.42969 4.53906L5.89034 4.14721L6.08627 3.87753L6.42969 4.53906Z" fill="#FFCC00" />
    <path d="M5.64648 4.53809L6.18583 4.14623L5.9899 3.87656L5.64648 4.53809Z" fill="#FFCC00" />
    <path d="M5.64648 4.53809L5.8525 3.90405L6.16951 4.00705L5.64648 4.53809Z" fill="#FFCC00" />
    <path d="M5.40332 3.79199L5.94267 4.18385L6.13859 3.91418L5.40332 3.79199Z" fill="#FFCC00" />
    <path d="M5.40332 3.79199H6.06999V4.12533L5.40332 3.79199Z" fill="#FFCC00" />
    <path d="M6.6709 3.79395L6.13155 4.1858L5.93563 3.91613L6.6709 3.79395Z" fill="#FFCC00" />
    <path d="M6.6709 3.79395L6.00423 3.79395L6.00423 4.12728L6.6709 3.79395Z" fill="#FFCC00" />
    <path d="M6.03711 3.33301L6.24312 3.96705L5.9261 4.07005L6.03711 3.33301Z" fill="#FFCC00" />
    <path d="M6.03711 3.33301L5.8311 3.96705L6.14812 4.07005L6.03711 3.33301Z" fill="#FFCC00" />
    <path d="M6.67285 7.79395L6.00619 7.79395L6.00619 8.12728L6.67285 7.79395Z" fill="#FFCC00" />
    <path d="M6.67285 7.79395L6.13351 8.1858L5.93758 7.91613L6.67285 7.79395Z" fill="#FFCC00" />
    <path d="M6.42969 8.53906L6.22368 7.90502L5.90666 8.00803L6.42969 8.53906Z" fill="#FFCC00" />
    <path d="M6.42969 8.53906L5.89034 8.14721L6.08627 7.87753L6.42969 8.53906Z" fill="#FFCC00" />
    <path d="M5.64648 8.53906L6.18583 8.14721L5.9899 7.87753L5.64648 8.53906Z" fill="#FFCC00" />
    <path d="M5.64648 8.53906L5.8525 7.90502L6.16951 8.00803L5.64648 8.53906Z" fill="#FFCC00" />
    <path d="M6.03906 7.33398L6.24507 7.96802L5.92805 8.07103L6.03906 7.33398Z" fill="#FFCC00" />
    <path d="M6.03906 7.33398L5.83305 7.96802L6.15007 8.07103L6.03906 7.33398Z" fill="#FFCC00" />
    <path d="M5.4043 7.79395L6.07096 7.79395L6.07096 8.12728L5.4043 7.79395Z" fill="#FFCC00" />
    <path d="M5.4043 7.79395L5.94364 8.1858L6.13957 7.91613L5.4043 7.79395Z" fill="#FFCC00" />
    <path d="M8.13477 9.25781L7.4681 9.25781L7.4681 9.59115L8.13477 9.25781Z" fill="#FFCC00" />
    <path d="M8.13477 9.25781L7.59542 9.64967L7.39949 9.38L8.13477 9.25781Z" fill="#FFCC00" />
    <path d="M7.89355 10.002L7.68754 9.36792L7.37052 9.47092L7.89355 10.002Z" fill="#FFCC00" />
    <path d="M7.89355 10.002L7.35421 9.6101L7.55014 9.34042L7.89355 10.002Z" fill="#FFCC00" />
    <path d="M7.10938 10.0029L7.64872 9.61107L7.45279 9.3414L7.10938 10.0029Z" fill="#FFCC00" />
    <path d="M7.10938 10.0029L7.31539 9.36889L7.6324 9.4719L7.10938 10.0029Z" fill="#FFCC00" />
    <path d="M7.5 8.79688L7.70601 9.43091L7.38899 9.53392L7.5 8.79688Z" fill="#FFCC00" />
    <path d="M7.5 8.79688L7.29399 9.43091L7.61101 9.53392L7.5 8.79688Z" fill="#FFCC00" />
    <path d="M6.86621 9.25684L7.53288 9.25684L7.53288 9.59017L6.86621 9.25684Z" fill="#FFCC00" />
    <path d="M6.86621 9.25684L7.40556 9.64869L7.60148 9.37902L6.86621 9.25684Z" fill="#FFCC00" />
    <path d="M13.5 5.33203L13.706 5.96607L13.389 6.06907L13.5 5.33203Z" fill="#FFCC00" />
    <path d="M13.5 5.33203L13.294 5.96607L13.611 6.06907L13.5 5.33203Z" fill="#FFCC00" />
    <path d="M12.8662 5.79395L13.5329 5.79395L13.5329 6.12728L12.8662 5.79395Z" fill="#FFCC00" />
    <path d="M12.8662 5.79395L13.4056 6.1858L13.6015 5.91613L12.8662 5.79395Z" fill="#FFCC00" />
    <path d="M13.1084 6.53809L13.3144 5.90405L13.6314 6.00705L13.1084 6.53809Z" fill="#FFCC00" />
    <path d="M13.1084 6.53809L13.6477 6.14623L13.4518 5.87656L13.1084 6.53809Z" fill="#FFCC00" />
    <path d="M14.1338 5.79395L13.4671 5.79395L13.4671 6.12728L14.1338 5.79395Z" fill="#FFCC00" />
    <path d="M14.1338 5.79395L13.5944 6.1858L13.3985 5.91613L14.1338 5.79395Z" fill="#FFCC00" />
    <path d="M13.8916 6.53809L13.6856 5.90405L13.3686 6.00705L13.8916 6.53809Z" fill="#FFCC00" />
    <path d="M13.8916 6.53809L13.3523 6.14623L13.5482 5.87656L13.8916 6.53809Z" fill="#FFCC00" />
    <path d="M11.8936 3.07422L11.3542 2.68236L11.5501 2.41269L11.8936 3.07422Z" fill="#FFCC00" />
    <path d="M11.8936 3.07422L11.6875 2.44018L11.3705 2.54319L11.8936 3.07422Z" fill="#FFCC00" />
    <path d="M12.1357 2.3291L11.5964 2.72096L11.4005 2.45129L12.1357 2.3291Z" fill="#FFCC00" />
    <path d="M12.1357 2.3291L11.4691 2.3291L11.4691 2.66243L12.1357 2.3291Z" fill="#FFCC00" />
    <path d="M11.501 1.86914L11.707 2.50318L11.39 2.60618L11.501 1.86914Z" fill="#FFCC00" />
    <path d="M11.501 1.86914L11.295 2.50318L11.612 2.60618L11.501 1.86914Z" fill="#FFCC00" />
    <path d="M11.1094 3.07422L11.6487 2.68236L11.4528 2.41269L11.1094 3.07422Z" fill="#FFCC00" />
    <path d="M11.1094 3.07422L11.3154 2.44018L11.6324 2.54319L11.1094 3.07422Z" fill="#FFCC00" />
    <path d="M10.8682 2.33008L11.4075 2.72193L11.6034 2.45226L10.8682 2.33008Z" fill="#FFCC00" />
    <path d="M10.8682 2.33008L11.5348 2.33008L11.5348 2.66341L10.8682 2.33008Z" fill="#FFCC00" />
    <path d="M12.5723 4.53809L12.7783 3.90405L13.0953 4.00705L12.5723 4.53809Z" fill="#FFCC00" />
    <path d="M12.5723 4.53809L13.1116 4.14623L12.9157 3.87656L12.5723 4.53809Z" fill="#FFCC00" />
    <path d="M13.3574 4.53809L12.8181 4.14623L13.014 3.87656L13.3574 4.53809Z" fill="#FFCC00" />
    <path d="M13.3574 4.53809L13.1514 3.90405L12.8344 4.00705L13.3574 4.53809Z" fill="#FFCC00" />
    <path d="M13.5996 3.79199L13.0603 4.18385L12.8643 3.91418L13.5996 3.79199Z" fill="#FFCC00" />
    <path d="M13.5996 3.79199L12.9329 3.79199L12.9329 4.12533L13.5996 3.79199Z" fill="#FFCC00" />
    <path d="M12.3301 3.79297L12.8694 4.18483L13.0654 3.91515L12.3301 3.79297Z" fill="#FFCC00" />
    <path d="M12.3301 3.79297L12.9967 3.79297L12.9967 4.1263L12.3301 3.79297Z" fill="#FFCC00" />
    <path d="M12.9648 3.33301L12.7588 3.96705L13.0759 4.07005L12.9648 3.33301Z" fill="#FFCC00" />
    <path d="M12.9648 3.33301L13.1709 3.96705L12.8538 4.07005L12.9648 3.33301Z" fill="#FFCC00" />
    <path d="M12.3301 7.79395L12.9967 7.79395L12.9967 8.12728L12.3301 7.79395Z" fill="#FFCC00" />
    <path d="M12.3301 7.79395L12.8694 8.1858L13.0654 7.91613L12.3301 7.79395Z" fill="#FFCC00" />
    <path d="M12.5732 8.53906L12.7793 7.90502L13.0963 8.00803L12.5732 8.53906Z" fill="#FFCC00" />
    <path d="M12.5732 8.53906L13.1126 8.14721L12.9167 7.87753L12.5732 8.53906Z" fill="#FFCC00" />
    <path d="M13.3574 8.53906L12.8181 8.14721L13.014 7.87753L13.3574 8.53906Z" fill="#FFCC00" />
    <path d="M13.3574 8.53906L13.1514 7.90502L12.8344 8.00803L13.3574 8.53906Z" fill="#FFCC00" />
    <path d="M12.9648 7.33203L12.7588 7.96607L13.0759 8.06907L12.9648 7.33203Z" fill="#FFCC00" />
    <path d="M12.9648 7.33203L13.1709 7.96607L12.8538 8.06907L12.9648 7.33203Z" fill="#FFCC00" />
    <path d="M13.5977 7.79297L12.931 7.79297L12.931 8.1263L13.5977 7.79297Z" fill="#FFCC00" />
    <path d="M13.5977 7.79297L13.0583 8.18483L12.8624 7.91515L13.5977 7.79297Z" fill="#FFCC00" />
    <path d="M10.8672 9.25684L11.5339 9.25684L11.5339 9.59017L10.8672 9.25684Z" fill="#FFCC00" />
    <path d="M10.8672 9.25684L11.4065 9.64869L11.6025 9.37902L10.8672 9.25684Z" fill="#FFCC00" />
    <path d="M11.1094 10.0029L11.3154 9.36889L11.6324 9.4719L11.1094 10.0029Z" fill="#FFCC00" />
    <path d="M11.1094 10.0029L11.6487 9.61107L11.4528 9.3414L11.1094 10.0029Z" fill="#FFCC00" />
    <path d="M11.8926 10.0029L11.3532 9.61107L11.5492 9.3414L11.8926 10.0029Z" fill="#FFCC00" />
    <path d="M11.8926 10.0029L11.6866 9.36889L11.3695 9.4719L11.8926 10.0029Z" fill="#FFCC00" />
    <path d="M11.501 8.79688L11.295 9.43091L11.612 9.53392L11.501 8.79688Z" fill="#FFCC00" />
    <path d="M11.501 8.79688L11.707 9.43091L11.39 9.53392L11.501 8.79688Z" fill="#FFCC00" />
    <path d="M12.1357 9.25781L11.4691 9.25781L11.4691 9.59115L12.1357 9.25781Z" fill="#FFCC00" />
    <path d="M12.1357 9.25781L11.5964 9.64967L11.4005 9.38L12.1357 9.25781Z" fill="#FFCC00" />
  </g>
  <defs>
    <clipPath id="clip0_1692_21196">
      <rect x="0.5" width="18" height="12" rx="1" fill="white" />
    </clipPath>
  </defs>
</svg>
  
