<svg viewBox="0 0 60 40" fill="none" xmlns="http://www.w3.org/2000/svg">
  <g clip-path="url(#clip0_11580_24707)">
    <path d="M60 0H0V40H60V0Z" fill="#2B55A6" />
    <path d="M29.9998 4L29.3032 6.16016L30.3751 6.5111L29.9998 4Z" fill="#FFCC00" />
    <path d="M29.9998 4L30.6963 6.16016L29.6244 6.5111L29.9998 4Z" fill="#FFCC00" />
    <path d="M32.144 5.56934L29.8899 5.56934L29.8899 6.705L32.144 5.56934Z" fill="#FFCC00" />
    <path d="M32.144 5.56934L30.3204 6.90439L29.6579 5.98562L32.144 5.56934Z" fill="#FFCC00" />
    <path d="M31.325 8.1084L30.6284 5.94824L29.5565 6.29918L31.325 8.1084Z" fill="#FFCC00" />
    <path d="M31.325 8.1084L29.5013 6.77335L30.1638 5.85457L31.325 8.1084Z" fill="#FFCC00" />
    <path d="M27.856 5.56934L30.1101 5.56934L30.1101 6.705L27.856 5.56934Z" fill="#FFCC00" />
    <path d="M27.856 5.56934L29.6796 6.90439L30.3421 5.98562L27.856 5.56934Z" fill="#FFCC00" />
    <path d="M28.675 8.1084L29.3716 5.94824L30.4435 6.29918L28.675 8.1084Z" fill="#FFCC00" />
    <path d="M28.675 8.1084L30.4987 6.77335L29.8362 5.85457L28.675 8.1084Z" fill="#FFCC00" />
    <path d="M29.9998 31.2568L29.3032 33.417L30.3751 33.7679L29.9998 31.2568Z" fill="#FFCC00" />
    <path d="M29.9998 31.2568L30.6963 33.417L29.6244 33.7679L29.9998 31.2568Z" fill="#FFCC00" />
    <path d="M32.144 32.8262L29.8899 32.8262L29.8899 33.9618L32.144 32.8262Z" fill="#FFCC00" />
    <path d="M32.144 32.8262L30.3204 34.1612L29.6579 33.2425L32.144 32.8262Z" fill="#FFCC00" />
    <path d="M31.3247 35.3652L30.6281 33.2051L29.5562 33.556L31.3247 35.3652Z" fill="#FFCC00" />
    <path d="M31.3247 35.3652L29.5011 34.0302L30.1635 33.1114L31.3247 35.3652Z" fill="#FFCC00" />
    <path d="M27.856 32.8262L30.1101 32.8262L30.1101 33.9618L27.856 32.8262Z" fill="#FFCC00" />
    <path d="M27.856 32.8262L29.6796 34.1612L30.3421 33.2425L27.856 32.8262Z" fill="#FFCC00" />
    <path d="M28.6753 35.3652L29.3719 33.2051L30.4438 33.556L28.6753 35.3652Z" fill="#FFCC00" />
    <path d="M28.6753 35.3652L30.4989 34.0302L29.8365 33.1114L28.6753 35.3652Z" fill="#FFCC00" />
    <path d="M16.4751 17.6279L15.7785 19.7881L16.8504 20.139L16.4751 17.6279Z" fill="#FFCC00" />
    <path d="M16.4751 17.6279L17.1717 19.7881L16.0998 20.139L16.4751 17.6279Z" fill="#FFCC00" />
    <path d="M18.6191 19.1973L16.365 19.1973L16.365 20.3329L18.6191 19.1973Z" fill="#FFCC00" />
    <path d="M18.6191 19.1973L16.7955 20.5323L16.133 19.6135L18.6191 19.1973Z" fill="#FFCC00" />
    <path d="M17.7998 21.7363L17.1032 19.5762L16.0313 19.9271L17.7998 21.7363Z" fill="#FFCC00" />
    <path d="M17.7998 21.7363L15.9762 20.4013L16.6386 19.4825L17.7998 21.7363Z" fill="#FFCC00" />
    <path d="M14.3311 19.1973L16.5852 19.1973L16.5852 20.3329L14.3311 19.1973Z" fill="#FFCC00" />
    <path d="M14.3311 19.1973L16.1547 20.5323L16.8172 19.6135L14.3311 19.1973Z" fill="#FFCC00" />
    <path d="M15.1504 21.7363L15.847 19.5762L16.9189 19.9271L15.1504 21.7363Z" fill="#FFCC00" />
    <path d="M15.1504 21.7363L16.974 20.4013L16.3116 19.4825L15.1504 21.7363Z" fill="#FFCC00" />
    <path d="M21.9126 9.93457L23.7362 8.59952L23.0738 7.68075L21.9126 9.93457Z" fill="#FFCC00" />
    <path d="M21.9126 9.93457L22.6092 7.77441L23.6811 8.12535L21.9126 9.93457Z" fill="#FFCC00" />
    <path d="M21.0942 7.39355L22.9179 8.72861L23.5804 7.80984L21.0942 7.39355Z" fill="#FFCC00" />
    <path d="M21.0942 7.39355L23.3484 7.39355L23.3484 8.52922L21.0942 7.39355Z" fill="#FFCC00" />
    <path d="M23.2375 5.82422L22.541 7.98438L23.6129 8.33532L23.2375 5.82422Z" fill="#FFCC00" />
    <path d="M23.2375 5.82422L23.9341 7.98438L22.8622 8.33532L23.2375 5.82422Z" fill="#FFCC00" />
    <path d="M24.5627 9.93457L22.7391 8.59952L23.4016 7.68075L24.5627 9.93457Z" fill="#FFCC00" />
    <path d="M24.5627 9.93457L23.8662 7.77441L22.7943 8.12535L24.5627 9.93457Z" fill="#FFCC00" />
    <path d="M25.3816 7.39453L23.5579 8.72958L22.8955 7.81081L25.3816 7.39453Z" fill="#FFCC00" />
    <path d="M25.3816 7.39453L23.1274 7.39453L23.1274 8.5302L25.3816 7.39453Z" fill="#FFCC00" />
    <path d="M19.6118 14.9229L18.9152 12.7627L17.8433 13.1136L19.6118 14.9229Z" fill="#FFCC00" />
    <path d="M19.6118 14.9229L17.7882 13.5878L18.4506 12.669L19.6118 14.9229Z" fill="#FFCC00" />
    <path d="M16.9619 14.9229L18.7856 13.5878L18.1231 12.669L16.9619 14.9229Z" fill="#FFCC00" />
    <path d="M16.9619 14.9229L17.6585 12.7627L18.7304 13.1136L16.9619 14.9229Z" fill="#FFCC00" />
    <path d="M16.1433 12.3838L17.967 13.7188L18.6294 12.8001L16.1433 12.3838Z" fill="#FFCC00" />
    <path d="M16.1433 12.3838L18.3975 12.3838L18.3975 13.5195L16.1433 12.3838Z" fill="#FFCC00" />
    <path d="M20.4304 12.3838L18.6068 13.7188L17.9443 12.8001L20.4304 12.3838Z" fill="#FFCC00" />
    <path d="M20.4304 12.3838L18.1763 12.3838L18.1763 13.5195L20.4304 12.3838Z" fill="#FFCC00" />
    <path d="M18.2871 10.8135L18.9837 12.9736L17.9118 13.3246L18.2871 10.8135Z" fill="#FFCC00" />
    <path d="M18.2871 10.8135L17.5905 12.9736L18.6625 13.3246L18.2871 10.8135Z" fill="#FFCC00" />
    <path d="M20.4309 26.0107L18.1768 26.0107L18.1768 27.1464L20.4309 26.0107Z" fill="#FFCC00" />
    <path d="M20.4309 26.0107L18.6073 27.3458L17.9448 26.427L20.4309 26.0107Z" fill="#FFCC00" />
    <path d="M19.6118 28.5508L18.9152 26.3906L17.8433 26.7416L19.6118 28.5508Z" fill="#FFCC00" />
    <path d="M19.6118 28.5508L17.7882 27.2157L18.4506 26.297L19.6118 28.5508Z" fill="#FFCC00" />
    <path d="M16.9619 28.5498L18.7856 27.2148L18.1231 26.296L16.9619 28.5498Z" fill="#FFCC00" />
    <path d="M16.9619 28.5498L17.6585 26.3896L18.7304 26.7406L16.9619 28.5498Z" fill="#FFCC00" />
    <path d="M18.2871 24.4414L18.9837 26.6016L17.9118 26.9525L18.2871 24.4414Z" fill="#FFCC00" />
    <path d="M18.2871 24.4414L17.5905 26.6016L18.6625 26.9525L18.2871 24.4414Z" fill="#FFCC00" />
    <path d="M16.1431 26.0107L18.3972 26.0107L18.3972 27.1464L16.1431 26.0107Z" fill="#FFCC00" />
    <path d="M16.1431 26.0107L17.9667 27.3458L18.6292 26.427L16.1431 26.0107Z" fill="#FFCC00" />
    <path d="M25.3813 31L23.1272 31L23.1272 32.1357L25.3813 31Z" fill="#FFCC00" />
    <path d="M25.3813 31L23.5577 32.3351L22.8952 31.4163L25.3813 31Z" fill="#FFCC00" />
    <path d="M24.5623 33.5391L23.8657 31.3789L22.7938 31.7298L24.5623 33.5391Z" fill="#FFCC00" />
    <path d="M24.5623 33.5391L22.7386 32.204L23.4011 31.2852L24.5623 33.5391Z" fill="#FFCC00" />
    <path d="M21.9124 33.5391L23.736 32.204L23.0735 31.2852L21.9124 33.5391Z" fill="#FFCC00" />
    <path d="M21.9124 33.5391L22.6089 31.3789L23.6808 31.7298L21.9124 33.5391Z" fill="#FFCC00" />
    <path d="M23.2375 29.4307L23.9341 31.5908L22.8622 31.9418L23.2375 29.4307Z" fill="#FFCC00" />
    <path d="M23.2375 29.4307L22.541 31.5908L23.6129 31.9418L23.2375 29.4307Z" fill="#FFCC00" />
    <path d="M21.0935 31L23.3477 31L23.3477 32.1357L21.0935 31Z" fill="#FFCC00" />
    <path d="M21.0935 31L22.9172 32.3351L23.5796 31.4163L21.0935 31Z" fill="#FFCC00" />
    <path d="M43.5249 17.627L44.2215 19.7871L43.1496 20.1381L43.5249 17.627Z" fill="#FFCC00" />
    <path d="M43.5249 17.627L42.8283 19.7871L43.9002 20.1381L43.5249 17.627Z" fill="#FFCC00" />
    <path d="M41.3809 19.1963L43.635 19.1963L43.635 20.332L41.3809 19.1963Z" fill="#FFCC00" />
    <path d="M41.3809 19.1963L43.2045 20.5313L43.867 19.6126L41.3809 19.1963Z" fill="#FFCC00" />
    <path d="M42.2 21.7354L42.8965 19.5752L43.9684 19.9261L42.2 21.7354Z" fill="#FFCC00" />
    <path d="M42.2 21.7354L44.0236 20.4003L43.3611 19.4815L42.2 21.7354Z" fill="#FFCC00" />
    <path d="M45.6689 19.1963L43.4148 19.1963L43.4148 20.332L45.6689 19.1963Z" fill="#FFCC00" />
    <path d="M45.6689 19.1963L43.8453 20.5313L43.1828 19.6126L45.6689 19.1963Z" fill="#FFCC00" />
    <path d="M44.8496 21.7354L44.153 19.5752L43.0811 19.9261L44.8496 21.7354Z" fill="#FFCC00" />
    <path d="M44.8496 21.7354L43.026 20.4003L43.6884 19.4815L44.8496 21.7354Z" fill="#FFCC00" />
    <path d="M38.0881 9.93359L36.2645 8.59854L36.927 7.67977L38.0881 9.93359Z" fill="#FFCC00" />
    <path d="M38.0881 9.93359L37.3916 7.77343L36.3196 8.12437L38.0881 9.93359Z" fill="#FFCC00" />
    <path d="M38.9065 7.39355L37.0828 8.72861L36.4204 7.80984L38.9065 7.39355Z" fill="#FFCC00" />
    <path d="M38.9065 7.39355L36.6523 7.39355L36.6523 8.52922L38.9065 7.39355Z" fill="#FFCC00" />
    <path d="M36.7629 5.82422L37.4595 7.98438L36.3876 8.33532L36.7629 5.82422Z" fill="#FFCC00" />
    <path d="M36.7629 5.82422L36.0664 7.98438L37.1383 8.33532L36.7629 5.82422Z" fill="#FFCC00" />
    <path d="M35.4377 9.93359L37.2614 8.59854L36.5989 7.67977L35.4377 9.93359Z" fill="#FFCC00" />
    <path d="M35.4377 9.93359L36.1343 7.77343L37.2062 8.12437L35.4377 9.93359Z" fill="#FFCC00" />
    <path d="M34.6189 7.39355L36.4425 8.72861L37.105 7.80984L34.6189 7.39355Z" fill="#FFCC00" />
    <path d="M34.6189 7.39355L36.8731 7.39355L36.8731 8.52922L34.6189 7.39355Z" fill="#FFCC00" />
    <path d="M40.3879 14.9219L41.0845 12.7617L42.1564 13.1127L40.3879 14.9219Z" fill="#FFCC00" />
    <path d="M40.3879 14.9219L42.2116 13.5868L41.5491 12.6681L40.3879 14.9219Z" fill="#FFCC00" />
    <path d="M43.0378 14.9219L41.2142 13.5868L41.8767 12.6681L43.0378 14.9219Z" fill="#FFCC00" />
    <path d="M43.0378 14.9219L42.3413 12.7617L41.2694 13.1127L43.0378 14.9219Z" fill="#FFCC00" />
    <path d="M43.8564 12.3828L42.0328 13.7179L41.3703 12.7991L43.8564 12.3828Z" fill="#FFCC00" />
    <path d="M43.8564 12.3828L41.6023 12.3828L41.6023 13.5185L43.8564 12.3828Z" fill="#FFCC00" />
    <path d="M39.5696 12.3828L41.3932 13.7179L42.0557 12.7991L39.5696 12.3828Z" fill="#FFCC00" />
    <path d="M39.5696 12.3828L41.8237 12.3828L41.8237 13.5185L39.5696 12.3828Z" fill="#FFCC00" />
    <path d="M41.7129 10.8125L41.0163 12.9727L42.0882 13.3236L41.7129 10.8125Z" fill="#FFCC00" />
    <path d="M41.7129 10.8125L42.4095 12.9727L41.3375 13.3236L41.7129 10.8125Z" fill="#FFCC00" />
    <path d="M39.5691 26.0098L41.8232 26.0098L41.8232 27.1454L39.5691 26.0098Z" fill="#FFCC00" />
    <path d="M39.5691 26.0098L41.3927 27.3448L42.0552 26.426L39.5691 26.0098Z" fill="#FFCC00" />
    <path d="M40.3882 28.5498L41.0848 26.3896L42.1567 26.7406L40.3882 28.5498Z" fill="#FFCC00" />
    <path d="M40.3882 28.5498L42.2118 27.2148L41.5494 26.296L40.3882 28.5498Z" fill="#FFCC00" />
    <path d="M43.0381 28.5488L41.2144 27.2138L41.8769 26.295L43.0381 28.5488Z" fill="#FFCC00" />
    <path d="M43.0381 28.5488L42.3415 26.3887L41.2696 26.7396L43.0381 28.5488Z" fill="#FFCC00" />
    <path d="M41.7129 24.4404L41.0163 26.6006L42.0882 26.9515L41.7129 24.4404Z" fill="#FFCC00" />
    <path d="M41.7129 24.4404L42.4095 26.6006L41.3375 26.9515L41.7129 24.4404Z" fill="#FFCC00" />
    <path d="M43.8569 26.0098L41.6028 26.0098L41.6028 27.1454L43.8569 26.0098Z" fill="#FFCC00" />
    <path d="M43.8569 26.0098L42.0333 27.3448L41.3708 26.426L43.8569 26.0098Z" fill="#FFCC00" />
    <path d="M34.6184 30.999L36.8726 30.999L36.8726 32.1347L34.6184 30.999Z" fill="#FFCC00" />
    <path d="M34.6184 30.999L36.4421 32.3341L37.1045 31.4153L34.6184 30.999Z" fill="#FFCC00" />
    <path d="M35.4377 33.5381L36.1343 31.3779L37.2062 31.7289L35.4377 33.5381Z" fill="#FFCC00" />
    <path d="M35.4377 33.5381L37.2614 32.203L36.5989 31.2843L35.4377 33.5381Z" fill="#FFCC00" />
    <path d="M38.0876 33.5381L36.264 32.203L36.9265 31.2843L38.0876 33.5381Z" fill="#FFCC00" />
    <path d="M38.0876 33.5381L37.3911 31.3779L36.3192 31.7289L38.0876 33.5381Z" fill="#FFCC00" />
    <path d="M36.7627 29.4287L36.0661 31.5889L37.138 31.9398L36.7627 29.4287Z" fill="#FFCC00" />
    <path d="M36.7627 29.4287L37.4593 31.5889L36.3874 31.9398L36.7627 29.4287Z" fill="#FFCC00" />
    <path d="M38.9067 30.998L36.6526 30.998L36.6526 32.1337L38.9067 30.998Z" fill="#FFCC00" />
    <path d="M38.9067 30.998L37.0831 32.3331L36.4206 31.4143L38.9067 30.998Z" fill="#FFCC00" />
  </g>
  <defs>
    <clipPath id="clip0_11580_24707">
      <rect width="60" height="40" rx="2" fill="white" />
    </clipPath>
  </defs>
</svg>
  
