<svg width="13" height="16" viewBox="0 0 13 16" fill="none" xmlns="http://www.w3.org/2000/svg">
<path d="M7.7998 0.0839844C8.39019 0.00284695 8.68551 -0.0376826 8.91504 0.0478516C9.11659 0.123112 9.28523 0.262859 9.3916 0.443359C9.5127 0.648972 9.5127 0.935032 9.5127 1.50684V13.877C9.5127 14.4487 9.51254 14.7348 9.3916 14.9404C9.28524 15.121 9.11661 15.2616 8.91504 15.3369C8.68554 15.4224 8.38999 15.3819 7.7998 15.3008L1.28809 14.4053C0.831823 14.3426 0.603306 14.3116 0.431641 14.2061C0.280415 14.113 0.159681 13.9799 0.0849609 13.8232C0.000253679 13.6454 9.06577e-09 13.4241 0 12.9824V2.40234C8.37517e-08 1.96076 0.00036594 1.73932 0.0849609 1.56152C0.15969 1.40481 0.280368 1.27183 0.431641 1.17871C0.603336 1.07305 0.831592 1.04125 1.28809 0.978516L7.7998 0.0839844ZM11.3027 1.60254C11.7861 1.60254 12.0283 1.60288 12.2129 1.69824C12.375 1.78215 12.5072 1.91563 12.5898 2.08008C12.6839 2.26719 12.6836 2.51223 12.6836 3.00195V12.7021C12.6836 13.1918 12.6837 13.4369 12.5898 13.624C12.5072 13.7885 12.3751 13.9229 12.2129 14.0068C12.0283 14.1022 11.7861 14.1025 11.3027 14.1025H10.4639V1.60254H11.3027ZM7.8418 6.10254L7.31152 6.15723C7.19332 6.16939 7.13361 6.17512 7.08887 6.20508C7.04968 6.23141 7.0187 6.27087 6.99902 6.31738C6.97667 6.37056 6.97656 6.43874 6.97656 6.57324V8.81152C6.97656 8.94589 6.97673 9.01325 6.99902 9.06641C7.01865 9.11302 7.04967 9.1523 7.08887 9.17871C7.13363 9.20871 7.19323 9.21537 7.31152 9.22754L7.8418 9.28223C7.98127 9.29658 8.0516 9.30362 8.10547 9.27734C8.15277 9.2542 8.19216 9.21334 8.2168 9.16211C8.24471 9.10383 8.24414 9.02436 8.24414 8.86621V6.51855C8.24414 6.36007 8.24485 6.28 8.2168 6.22168C8.19216 6.17062 8.15265 6.13053 8.10547 6.10742C8.0516 6.08112 7.98129 6.08819 7.8418 6.10254Z" fill="url(#paint0_linear_402_15225)"/>
<defs>
<linearGradient id="paint0_linear_402_15225" x1="-3.92587" y1="10.6393" x2="11.7449" y2="4.30137" gradientUnits="userSpaceOnUse">
<stop stop-color="#4B2EFB"/>
<stop offset="1" stop-color="#E65FFC"/>
</linearGradient>
</defs>
</svg>
