<svg viewBox="0 0 60 40" fill="none"
  xmlns="http://www.w3.org/2000/svg">
  <g clip-path="url(#clip0_12551_24346)">
    <path d="M0 0H60V40H0V0Z" fill="#314D90"/>
    <path d="M7.03125 0L29.9062 15.0833L52.6875 0H60V5.16667L37.5 20.0833L60 34.9167V40H52.5L30 25.0833L7.59375 40H0V35L22.4062 20.1667L0 5.33333V0H7.03125Z" fill="white"/>
    <path d="M39.75 23.4167L60 36.6667V40L34.5938 23.4167H39.75ZM22.5 25.0833L23.0625 28L5.0625 40H0L22.5 25.0833ZM60 0V0.25L36.6562 15.9167L36.8438 12.25L55.3125 0H60ZM0 0L22.4062 14.6667H16.7812L0 3.5V0Z" fill="#B3263D"/>
    <path d="M22.5938 0V40H37.5938V0H22.5938ZM0 13.3333V26.6667H60V13.3333H0Z" fill="white"/>
    <path d="M0 16.0833V24.0833H60V16.0833H0ZM25.5938 0V40H34.5938V0H25.5938Z" fill="#B3263D"/>
  </g>
  <defs>
    <clipPath id="clip0_12551_24346">
      <path d="M0 2C0 0.895431 0.895431 0 2 0H58C59.1046 0 60 0.895431 60 2V38C60 39.1046 59.1046 40 58 40H2C0.895432 40 0 39.1046 0 38V2Z" fill="white"/>
    </clipPath>
  </defs>
</svg>
