<svg width="19" height="12" viewBox="0 0 19 12" fill="none" xmlns="http://www.w3.org/2000/svg">
  <g clip-path="url(#clip0_1692_20889)">
    <path d="M23.467 0H0.666992V12H23.467V0Z" fill="#B22234" />
    <path
      d="M0.666992 1.38392H23.467ZM23.467 3.23008H0.666992ZM0.666992 5.07623H23.467ZM23.467 6.92239H0.666992ZM0.666992 8.76854H23.467ZM23.467 10.6147H0.666992Z"
      fill="black" />
    <path fill-rule="evenodd" clip-rule="evenodd"
      d="M23.467 1.93777H0.666992V0.830078H23.467V1.93777ZM0.666992 2.67623H23.467V3.78392H0.666992V2.67623ZM23.467 5.63008H0.666992V4.52239H23.467V5.63008ZM0.666992 6.36854H23.467V7.47623H0.666992V6.36854ZM23.467 9.32239H0.666992V8.21469H23.467V9.32239ZM0.666992 10.0608H23.467V11.1685H0.666992V10.0608Z"
      fill="white" />
    <path d="M9.78699 0H0.666992V6.46154H9.78699V0Z" fill="#3C3B6E" />
    <path
      d="M1.4244 0.274414L1.64143 0.942359L1.07324 0.529546H1.77556L1.20737 0.942359L1.4244 0.274414Z"
      fill="white" />
    <path
      d="M1.4244 1.56641L1.64143 2.23435L1.07324 1.82154H1.77556L1.20737 2.23435L1.4244 1.56641Z"
      fill="white" />
    <path
      d="M1.4244 2.85938L1.64143 3.52732L1.07324 3.11451H1.77556L1.20737 3.52732L1.4244 2.85938Z"
      fill="white" />
    <path d="M1.4244 4.15137L1.64143 4.81931L1.07324 4.4065H1.77556L1.20737 4.81931L1.4244 4.15137Z"
      fill="white" />
    <path
      d="M1.42538 5.44434L1.64241 6.11228L1.07422 5.69947H1.77654L1.20835 6.11228L1.42538 5.44434Z"
      fill="white" />
    <path
      d="M2.18514 0.921875L2.40217 1.58982L1.83398 1.17701H2.5363L1.96812 1.58982L2.18514 0.921875Z"
      fill="white" />
    <path
      d="M2.18514 2.21484L2.40217 2.88279L1.83398 2.46998H2.5363L1.96812 2.88279L2.18514 2.21484Z"
      fill="white" />
    <path d="M2.18514 3.50586L2.40217 4.1738L1.83398 3.76099H2.5363L1.96812 4.1738L2.18514 3.50586Z"
      fill="white" />
    <path
      d="M2.18514 4.79883L2.40217 5.46677L1.83398 5.05396H2.5363L1.96812 5.46677L2.18514 4.79883Z"
      fill="white" />
    <path
      d="M2.94589 0.274414L3.16291 0.942359L2.59473 0.529546H3.29705L2.72886 0.942359L2.94589 0.274414Z"
      fill="white" />
    <path
      d="M2.94589 1.56641L3.16291 2.23435L2.59473 1.82154H3.29705L2.72886 2.23435L2.94589 1.56641Z"
      fill="white" />
    <path
      d="M2.94589 2.85938L3.16291 3.52732L2.59473 3.11451H3.29705L2.72886 3.52732L2.94589 2.85938Z"
      fill="white" />
    <path
      d="M2.94589 4.15137L3.16291 4.81931L2.59473 4.4065H3.29705L2.72886 4.81931L2.94589 4.15137Z"
      fill="white" />
    <path
      d="M2.94589 5.44434L3.16291 6.11228L2.59473 5.69947H3.29705L2.72886 6.11228L2.94589 5.44434Z"
      fill="white" />
    <path
      d="M3.70663 0.921875L3.92366 1.58982L3.35547 1.17701H4.05779L3.4896 1.58982L3.70663 0.921875Z"
      fill="white" />
    <path
      d="M3.70663 2.21484L3.92366 2.88279L3.35547 2.46998H4.05779L3.4896 2.88279L3.70663 2.21484Z"
      fill="white" />
    <path d="M3.70663 3.50586L3.92366 4.1738L3.35547 3.76099H4.05779L3.4896 4.1738L3.70663 3.50586Z"
      fill="white" />
    <path
      d="M3.70663 4.79883L3.92366 5.46677L3.35547 5.05396H4.05779L3.4896 5.46677L3.70663 4.79883Z"
      fill="white" />
    <path
      d="M4.46835 0.274414L4.68538 0.942359L4.11719 0.529546H4.81951L4.25132 0.942359L4.46835 0.274414Z"
      fill="white" />
    <path
      d="M4.46835 1.56641L4.68538 2.23435L4.11719 1.82154H4.81951L4.25132 2.23435L4.46835 1.56641Z"
      fill="white" />
    <path
      d="M4.46835 2.85938L4.68538 3.52732L4.11719 3.11451H4.81951L4.25132 3.52732L4.46835 2.85938Z"
      fill="white" />
    <path
      d="M4.46835 4.15137L4.68538 4.81931L4.11719 4.4065H4.81951L4.25132 4.81931L4.46835 4.15137Z"
      fill="white" />
    <path
      d="M4.46835 5.44434L4.68538 6.11228L4.11719 5.69947H4.81951L4.25132 6.11228L4.46835 5.44434Z"
      fill="white" />
    <path
      d="M5.22811 0.921875L5.44514 1.58982L4.87695 1.17701H5.57927L5.01108 1.58982L5.22811 0.921875Z"
      fill="white" />
    <path
      d="M5.22811 2.21484L5.44514 2.88279L4.87695 2.46998H5.57927L5.01108 2.88279L5.22811 2.21484Z"
      fill="white" />
    <path
      d="M5.22811 3.50586L5.44514 4.1738L4.87695 3.76099H5.57927L5.01108 4.1738L5.22811 3.50586Z"
      fill="white" />
    <path
      d="M5.22811 4.79883L5.44514 5.46677L4.87695 5.05396H5.57927L5.01108 5.46677L5.22811 4.79883Z"
      fill="white" />
    <path
      d="M5.98788 0.274414L6.20491 0.942359L5.63672 0.529546H6.33904L5.77085 0.942359L5.98788 0.274414Z"
      fill="white" />
    <path
      d="M5.98788 1.56641L6.20491 2.23435L5.63672 1.82154H6.33904L5.77085 2.23435L5.98788 1.56641Z"
      fill="white" />
    <path
      d="M5.98788 2.85938L6.20491 3.52732L5.63672 3.11451H6.33904L5.77085 3.52732L5.98788 2.85938Z"
      fill="white" />
    <path
      d="M5.98788 4.15137L6.20491 4.81931L5.63672 4.4065H6.33904L5.77085 4.81931L5.98788 4.15137Z"
      fill="white" />
    <path
      d="M5.98788 5.44434L6.20491 6.11228L5.63672 5.69947H6.33904L5.77085 6.11228L5.98788 5.44434Z"
      fill="white" />
    <path
      d="M6.74764 0.921875L6.96467 1.58982L6.39648 1.17701H7.0988L6.53062 1.58982L6.74764 0.921875Z"
      fill="white" />
    <path
      d="M6.74764 2.21484L6.96467 2.88279L6.39648 2.46998H7.0988L6.53062 2.88279L6.74764 2.21484Z"
      fill="white" />
    <path d="M6.74764 3.50586L6.96467 4.1738L6.39648 3.76099H7.0988L6.53062 4.1738L6.74764 3.50586Z"
      fill="white" />
    <path
      d="M6.74764 4.79883L6.96467 5.46677L6.39648 5.05396H7.0988L6.53062 5.46677L6.74764 4.79883Z"
      fill="white" />
    <path
      d="M7.50546 0.275391L7.72248 0.943335L7.1543 0.530523H7.85662L7.28843 0.943335L7.50546 0.275391Z"
      fill="white" />
    <path d="M7.50546 1.56836L7.72248 2.2363L7.1543 1.82349H7.85662L7.28843 2.2363L7.50546 1.56836Z"
      fill="white" />
    <path
      d="M7.50546 2.85938L7.72248 3.52732L7.1543 3.11451H7.85662L7.28843 3.52732L7.50546 2.85938Z"
      fill="white" />
    <path
      d="M7.50546 4.15234L7.72248 4.82029L7.1543 4.40748H7.85662L7.28843 4.82029L7.50546 4.15234Z"
      fill="white" />
    <path
      d="M7.50546 5.44531L7.72248 6.11326L7.1543 5.70044H7.85662L7.28843 6.11326L7.50546 5.44531Z"
      fill="white" />
    <path
      d="M8.26717 0.921875L8.4842 1.58982L7.91602 1.17701H8.61833L8.05015 1.58982L8.26717 0.921875Z"
      fill="white" />
    <path
      d="M8.26717 2.21484L8.4842 2.88279L7.91602 2.46998H8.61833L8.05015 2.88279L8.26717 2.21484Z"
      fill="white" />
    <path d="M8.26717 3.50586L8.4842 4.1738L7.91602 3.76099H8.61833L8.05015 4.1738L8.26717 3.50586Z"
      fill="white" />
    <path
      d="M8.26717 4.79883L8.4842 5.46677L7.91602 5.05396H8.61833L8.05015 5.46677L8.26717 4.79883Z"
      fill="white" />
    <path
      d="M9.02694 0.275391L9.24397 0.943335L8.67578 0.530523H9.3781L8.80991 0.943335L9.02694 0.275391Z"
      fill="white" />
    <path d="M9.02694 1.56836L9.24397 2.2363L8.67578 1.82349H9.3781L8.80991 2.2363L9.02694 1.56836Z"
      fill="white" />
    <path
      d="M9.02694 2.85938L9.24397 3.52732L8.67578 3.11451H9.3781L8.80991 3.52732L9.02694 2.85938Z"
      fill="white" />
    <path
      d="M9.02694 4.15234L9.24397 4.82029L8.67578 4.40748H9.3781L8.80991 4.82029L9.02694 4.15234Z"
      fill="white" />
    <path
      d="M9.02694 5.44531L9.24397 6.11326L8.67578 5.70044H9.3781L8.80991 6.11326L9.02694 5.44531Z"
      fill="white" />
  </g>
  <defs>
    <clipPath id="clip0_1692_20889">
      <rect x="0.666992" width="18" height="12" rx="1" fill="white" />
    </clipPath>
  </defs>
</svg>
  
