<svg viewBox="0 0 60 40" fill="none" xmlns="http://www.w3.org/2000/svg">
  <g clip-path="url(#clip0_11580_24706)">
    <path d="M76 0H0V40H76V0Z" fill="#B22234" />
    <path
      d="M0 4.61569H76H0ZM76 10.7695H0H76ZM0 16.9234H76H0ZM76 23.0772H0H76ZM0 29.2311H76H0ZM76 35.3849H0H76Z"
      fill="black" />
    <path fill-rule="evenodd" clip-rule="evenodd"
      d="M76 6.46184H0V2.76953H76V6.46184ZM0 8.92338H76V12.6157H0V8.92338ZM76 18.7695H0V15.0772H76V18.7695ZM0 21.2311H76V24.9234H0V21.2311ZM76 31.0772H0V27.3849H76V31.0772ZM0 33.5388H76V37.2311H0V33.5388Z"
      fill="white" />
    <path d="M30.4 0H0V21.5385H30.4V0Z" fill="#3C3B6E" />
    <path
      d="M2.53332 0.922852L3.25675 3.14933L1.36279 1.77329H3.70386L1.8099 3.14933L2.53332 0.922852Z"
      fill="white" />
    <path
      d="M2.53332 5.23047L3.25675 7.45695L1.36279 6.08091H3.70386L1.8099 7.45695L2.53332 5.23047Z"
      fill="white" />
    <path
      d="M2.53332 9.53809L3.25675 11.7646L1.36279 10.3885H3.70386L1.8099 11.7646L2.53332 9.53809Z"
      fill="white" />
    <path
      d="M2.53332 13.8457L3.25675 16.0722L1.36279 14.6961H3.70386L1.8099 16.0722L2.53332 13.8457Z"
      fill="white" />
    <path
      d="M2.53332 18.1533L3.25675 20.3798L1.36279 19.0038H3.70386L1.8099 20.3798L2.53332 18.1533Z"
      fill="white" />
    <path
      d="M5.06677 3.07715L5.7902 5.30363L3.89624 3.92759H6.2373L4.34334 5.30363L5.06677 3.07715Z"
      fill="white" />
    <path
      d="M5.06677 7.38477L5.7902 9.61125L3.89624 8.23521H6.2373L4.34334 9.61125L5.06677 7.38477Z"
      fill="white" />
    <path
      d="M5.06677 11.6924L5.7902 13.9189L3.89624 12.5428H6.2373L4.34334 13.9189L5.06677 11.6924Z"
      fill="white" />
    <path d="M5.06677 16L5.7902 18.2265L3.89624 16.8504H6.2373L4.34334 18.2265L5.06677 16Z"
      fill="white" />
    <path
      d="M7.59997 0.922852L8.3234 3.14933L6.42944 1.77329H8.77051L6.87655 3.14933L7.59997 0.922852Z"
      fill="white" />
    <path
      d="M7.59997 5.23047L8.3234 7.45695L6.42944 6.08091H8.77051L6.87655 7.45695L7.59997 5.23047Z"
      fill="white" />
    <path
      d="M7.59997 9.53809L8.3234 11.7646L6.42944 10.3885H8.77051L6.87655 11.7646L7.59997 9.53809Z"
      fill="white" />
    <path
      d="M7.59997 13.8457L8.3234 16.0722L6.42944 14.6961H8.77051L6.87655 16.0722L7.59997 13.8457Z"
      fill="white" />
    <path
      d="M7.59997 18.1533L8.3234 20.3798L6.42944 19.0038H8.77051L6.87655 20.3798L7.59997 18.1533Z"
      fill="white" />
    <path
      d="M10.1334 3.07715L10.8568 5.30363L8.96289 3.92759H11.304L9.40999 5.30363L10.1334 3.07715Z"
      fill="white" />
    <path
      d="M10.1334 7.38477L10.8568 9.61125L8.96289 8.23521H11.304L9.40999 9.61125L10.1334 7.38477Z"
      fill="white" />
    <path
      d="M10.1334 11.6924L10.8568 13.9189L8.96289 12.5428H11.304L9.40999 13.9189L10.1334 11.6924Z"
      fill="white" />
    <path d="M10.1334 16L10.8568 18.2265L8.96289 16.8504H11.304L9.40999 18.2265L10.1334 16Z"
      fill="white" />
    <path
      d="M12.6666 0.922852L13.3901 3.14933L11.4961 1.77329H13.8372L11.9432 3.14933L12.6666 0.922852Z"
      fill="white" />
    <path
      d="M12.6666 5.23047L13.3901 7.45695L11.4961 6.08091H13.8372L11.9432 7.45695L12.6666 5.23047Z"
      fill="white" />
    <path
      d="M12.6666 9.53809L13.3901 11.7646L11.4961 10.3885H13.8372L11.9432 11.7646L12.6666 9.53809Z"
      fill="white" />
    <path
      d="M12.6666 13.8457L13.3901 16.0722L11.4961 14.6961H13.8372L11.9432 16.0722L12.6666 13.8457Z"
      fill="white" />
    <path
      d="M12.6666 18.1533L13.3901 20.3798L11.4961 19.0038H13.8372L11.9432 20.3798L12.6666 18.1533Z"
      fill="white" />
    <path
      d="M15.2001 3.07715L15.9235 5.30363L14.0295 3.92759H16.3706L14.4766 5.30363L15.2001 3.07715Z"
      fill="white" />
    <path
      d="M15.2001 7.38477L15.9235 9.61125L14.0295 8.23521H16.3706L14.4766 9.61125L15.2001 7.38477Z"
      fill="white" />
    <path
      d="M15.2001 11.6924L15.9235 13.9189L14.0295 12.5428H16.3706L14.4766 13.9189L15.2001 11.6924Z"
      fill="white" />
    <path d="M15.2001 16L15.9235 18.2265L14.0295 16.8504H16.3706L14.4766 18.2265L15.2001 16Z"
      fill="white" />
    <path
      d="M17.7333 0.922852L18.4567 3.14933L16.5627 1.77329H18.9038L17.0098 3.14933L17.7333 0.922852Z"
      fill="white" />
    <path
      d="M17.7333 5.23047L18.4567 7.45695L16.5627 6.08091H18.9038L17.0098 7.45695L17.7333 5.23047Z"
      fill="white" />
    <path
      d="M17.7333 9.53809L18.4567 11.7646L16.5627 10.3885H18.9038L17.0098 11.7646L17.7333 9.53809Z"
      fill="white" />
    <path
      d="M17.7333 13.8457L18.4567 16.0722L16.5627 14.6961H18.9038L17.0098 16.0722L17.7333 13.8457Z"
      fill="white" />
    <path
      d="M17.7333 18.1533L18.4567 20.3798L16.5627 19.0038H18.9038L17.0098 20.3798L17.7333 18.1533Z"
      fill="white" />
    <path
      d="M20.2667 3.07715L20.9902 5.30363L19.0962 3.92759H21.4373L19.5433 5.30363L20.2667 3.07715Z"
      fill="white" />
    <path
      d="M20.2667 7.38477L20.9902 9.61125L19.0962 8.23521H21.4373L19.5433 9.61125L20.2667 7.38477Z"
      fill="white" />
    <path
      d="M20.2667 11.6924L20.9902 13.9189L19.0962 12.5428H21.4373L19.5433 13.9189L20.2667 11.6924Z"
      fill="white" />
    <path d="M20.2667 16L20.9902 18.2265L19.0962 16.8504H21.4373L19.5433 18.2265L20.2667 16Z"
      fill="white" />
    <path
      d="M22.7999 0.922852L23.5234 3.14933L21.6294 1.77329H23.9705L22.0765 3.14933L22.7999 0.922852Z"
      fill="white" />
    <path
      d="M22.7999 5.23047L23.5234 7.45695L21.6294 6.08091H23.9705L22.0765 7.45695L22.7999 5.23047Z"
      fill="white" />
    <path
      d="M22.7999 9.53809L23.5234 11.7646L21.6294 10.3885H23.9705L22.0765 11.7646L22.7999 9.53809Z"
      fill="white" />
    <path
      d="M22.7999 13.8457L23.5234 16.0722L21.6294 14.6961H23.9705L22.0765 16.0722L22.7999 13.8457Z"
      fill="white" />
    <path
      d="M22.7999 18.1533L23.5234 20.3798L21.6294 19.0038H23.9705L22.0765 20.3798L22.7999 18.1533Z"
      fill="white" />
    <path
      d="M25.3334 3.07715L26.0568 5.30363L24.1628 3.92759H26.5039L24.6099 5.30363L25.3334 3.07715Z"
      fill="white" />
    <path
      d="M25.3334 7.38477L26.0568 9.61125L24.1628 8.23521H26.5039L24.6099 9.61125L25.3334 7.38477Z"
      fill="white" />
    <path
      d="M25.3334 11.6924L26.0568 13.9189L24.1628 12.5428H26.5039L24.6099 13.9189L25.3334 11.6924Z"
      fill="white" />
    <path d="M25.3334 16L26.0568 18.2265L24.1628 16.8504H26.5039L24.6099 18.2265L25.3334 16Z"
      fill="white" />
    <path
      d="M27.8668 0.922852L28.5902 3.14933L26.6963 1.77329H29.0374L27.1434 3.14933L27.8668 0.922852Z"
      fill="white" />
    <path
      d="M27.8668 5.23047L28.5902 7.45695L26.6963 6.08091H29.0374L27.1434 7.45695L27.8668 5.23047Z"
      fill="white" />
    <path
      d="M27.8668 9.53809L28.5902 11.7646L26.6963 10.3885H29.0374L27.1434 11.7646L27.8668 9.53809Z"
      fill="white" />
    <path
      d="M27.8668 13.8457L28.5902 16.0722L26.6963 14.6961H29.0374L27.1434 16.0722L27.8668 13.8457Z"
      fill="white" />
    <path
      d="M27.8668 18.1533L28.5902 20.3798L26.6963 19.0038H29.0374L27.1434 20.3798L27.8668 18.1533Z"
      fill="white" />
  </g>
  <defs>
    <clipPath id="clip0_11580_24706">
      <rect width="60" height="40" rx="2" fill="white" />
    </clipPath>
  </defs>
</svg>
  
