<svg width="20" height="20" viewBox="0 0 20 20" fill="none" xmlns="http://www.w3.org/2000/svg">
<path d="M15.8334 3.33331H4.16675C3.50371 3.33331 2.86782 3.59671 2.39898 4.06555C1.93014 4.53439 1.66675 5.17027 1.66675 5.83331V14.1666C1.66675 14.8297 1.93014 15.4656 2.39898 15.9344C2.86782 16.4033 3.50371 16.6666 4.16675 16.6666H15.8334C16.4965 16.6666 17.1323 16.4033 17.6012 15.9344C18.07 15.4656 18.3334 14.8297 18.3334 14.1666V5.83331C18.3334 5.17027 18.07 4.53439 17.6012 4.06555C17.1323 3.59671 16.4965 3.33331 15.8334 3.33331ZM4.16675 4.99998H15.8334C16.0544 4.99998 16.2664 5.08778 16.4227 5.24406C16.579 5.40034 16.6667 5.6123 16.6667 5.83331L10.0001 9.89998L3.33341 5.83331C3.33341 5.6123 3.42121 5.40034 3.57749 5.24406C3.73377 5.08778 3.94573 4.99998 4.16675 4.99998ZM16.6667 14.1666C16.6667 14.3877 16.579 14.5996 16.4227 14.7559C16.2664 14.9122 16.0544 15 15.8334 15H4.16675C3.94573 15 3.73377 14.9122 3.57749 14.7559C3.42121 14.5996 3.33341 14.3877 3.33341 14.1666V7.73331L9.56675 11.5416C9.69343 11.6148 9.83713 11.6533 9.98341 11.6533C10.1297 11.6533 10.2734 11.6148 10.4001 11.5416L16.6667 7.73331V14.1666Z" fill="currentColor"/>
</svg>
