<svg width="20" height="20" viewBox="0 0 20 20" fill="none" xmlns="http://www.w3.org/2000/svg">
<path d="M17.5001 3.66667L18.0834 3.08333C18.4167 2.75 18.4167 2.25 18.0834 1.91667C17.7501 1.58333 17.2501 1.58333 16.9167 1.91667L8.16675 10.6667C7.50008 10.25 6.66675 10 5.83342 10C3.50008 10 1.66675 11.8333 1.66675 14.1667C1.66675 16.5 3.50008 18.3333 5.83342 18.3333C8.16675 18.3333 10.0001 16.5 10.0001 14.1667C10.0001 13.3333 9.75008 12.5 9.33342 11.8333L14.0001 7.16667L15.7501 8.91667C16.0834 9.25 16.5834 9.25 16.9167 8.91667C17.2501 8.58333 17.2501 8.08333 16.9167 7.75L15.1667 6L16.3334 4.83333L16.9167 5.41667C17.2501 5.75 17.7501 5.75 18.0834 5.41667C18.4167 5.08333 18.4167 4.58333 18.0834 4.25L17.5001 3.66667ZM5.83342 16.6667C4.41675 16.6667 3.33341 15.5833 3.33341 14.1667C3.33341 12.75 4.41675 11.6667 5.83342 11.6667C7.25008 11.6667 8.33342 12.75 8.33342 14.1667C8.33342 15.5833 7.25008 16.6667 5.83342 16.6667Z" fill="currentColor"/>
</svg>
