<svg width="20" height="20" viewBox="0 0 20 20" fill="none" xmlns="http://www.w3.org/2000/svg">
<path d="M10.5917 13.575L10.4667 13.475C10.4203 13.4435 10.3699 13.4183 10.3167 13.4L10.1667 13.3334C10.0316 13.3051 9.89155 13.3109 9.75918 13.3501C9.62682 13.3894 9.50628 13.461 9.40841 13.5584C9.33481 13.6394 9.27562 13.7324 9.23341 13.8334C9.17035 13.9852 9.15361 14.1523 9.1853 14.3136C9.21698 14.4749 9.29568 14.6233 9.41149 14.74C9.52731 14.8567 9.67505 14.9365 9.83613 14.9695C9.99721 15.0024 10.1644 14.9869 10.3167 14.925C10.4163 14.8767 10.5088 14.815 10.5917 14.7417C10.7074 14.6245 10.7857 14.4757 10.8169 14.314C10.848 14.1524 10.8306 13.9851 10.7667 13.8334C10.7252 13.737 10.6658 13.6493 10.5917 13.575ZM13.3334 1.66669H6.66675C6.00371 1.66669 5.36782 1.93008 4.89898 2.39892C4.43014 2.86776 4.16675 3.50365 4.16675 4.16669V15.8334C4.16675 16.4964 4.43014 17.1323 4.89898 17.6011C5.36782 18.07 6.00371 18.3334 6.66675 18.3334H13.3334C13.9965 18.3334 14.6323 18.07 15.1012 17.6011C15.57 17.1323 15.8334 16.4964 15.8334 15.8334V4.16669C15.8334 3.50365 15.57 2.86776 15.1012 2.39892C14.6323 1.93008 13.9965 1.66669 13.3334 1.66669ZM14.1667 15.8334C14.1667 16.0544 14.079 16.2663 13.9227 16.4226C13.7664 16.5789 13.5544 16.6667 13.3334 16.6667H6.66675C6.44573 16.6667 6.23377 16.5789 6.07749 16.4226C5.92121 16.2663 5.83341 16.0544 5.83341 15.8334V4.16669C5.83341 3.94567 5.92121 3.73371 6.07749 3.57743C6.23377 3.42115 6.44573 3.33335 6.66675 3.33335H13.3334C13.5544 3.33335 13.7664 3.42115 13.9227 3.57743C14.079 3.73371 14.1667 3.94567 14.1667 4.16669V15.8334Z" fill="currentColor"/>
</svg>
