<svg width="20" height="20" viewBox="0 0 20 20" fill="none" xmlns="http://www.w3.org/2000/svg">
<path d="M10.0001 1.66669C8.38385 1.66976 6.80336 2.14278 5.45115 3.02814C4.09893 3.91349 3.03337 5.17297 2.38424 6.65316C1.73511 8.13335 1.53044 9.77037 1.79514 11.3648C2.05985 12.9593 2.78252 14.4423 3.87512 15.6334C4.65547 16.4792 5.60257 17.1543 6.65674 17.616C7.7109 18.0778 8.84927 18.3161 10.0001 18.3161C11.151 18.3161 12.2893 18.0778 13.3435 17.616C14.3977 17.1543 15.3448 16.4792 16.1251 15.6334C17.2177 14.4423 17.9404 12.9593 18.2051 11.3648C18.4698 9.77037 18.2651 8.13335 17.616 6.65316C16.9669 5.17297 15.9013 3.91349 14.5491 3.02814C13.1969 2.14278 11.6164 1.66976 10.0001 1.66669ZM10.0001 16.6667C8.27384 16.6641 6.61588 15.9919 5.37512 14.7917C5.75183 13.8746 6.39265 13.0903 7.21617 12.5383C8.03968 11.9863 9.00871 11.6915 10.0001 11.6915C10.9915 11.6915 11.9606 11.9863 12.7841 12.5383C13.6076 13.0903 14.2484 13.8746 14.6251 14.7917C13.3844 15.9919 11.7264 16.6641 10.0001 16.6667ZM8.33346 8.33335C8.33346 8.00372 8.4312 7.68149 8.61434 7.4074C8.79748 7.13332 9.05777 6.9197 9.36232 6.79355C9.66686 6.66741 10.002 6.6344 10.3253 6.69871C10.6486 6.76302 10.9455 6.92176 11.1786 7.15484C11.4117 7.38793 11.5705 7.6849 11.6348 8.0082C11.6991 8.33151 11.6661 8.66662 11.5399 8.97116C11.4138 9.2757 11.2002 9.536 10.9261 9.71914C10.652 9.90227 10.3298 10 10.0001 10C9.55809 10 9.13417 9.82443 8.82161 9.51187C8.50905 9.1993 8.33346 8.77538 8.33346 8.33335ZM15.7585 13.3334C15.0139 12.0598 13.868 11.0692 12.5001 10.5167C12.9244 10.0356 13.2009 9.44224 13.2963 8.80788C13.3918 8.17353 13.3022 7.52511 13.0382 6.94043C12.7743 6.35575 12.3473 5.85965 11.8084 5.51166C11.2695 5.16366 10.6416 4.97856 10.0001 4.97856C9.35863 4.97856 8.73076 5.16366 8.19187 5.51166C7.65297 5.85965 7.22593 6.35575 6.962 6.94043C6.69806 7.52511 6.60844 8.17353 6.7039 8.80788C6.79935 9.44224 7.07582 10.0356 7.50012 10.5167C6.13229 11.0692 4.98635 12.0598 4.24179 13.3334C3.64841 12.3226 3.33489 11.1721 3.33346 10C3.33346 8.23191 4.03583 6.53622 5.28608 5.28598C6.53632 4.03573 8.23201 3.33335 10.0001 3.33335C11.7682 3.33335 13.4639 4.03573 14.7142 5.28598C15.9644 6.53622 16.6668 8.23191 16.6668 10C16.6654 11.1721 16.3518 12.3226 15.7585 13.3334Z" fill="currentColor"/>
</svg>
