<svg width="40" height="40" viewBox="0 0 40 40" fill="none" xmlns="http://www.w3.org/2000/svg">
<g clip-path="url(#clip0_9094_17606)">
<g clip-path="url(#clip1_9094_17606)">
<path d="M36.1538 18.4629H23.8469L13.0789 29.2331L19.2302 35.3855L36.1538 18.4629Z" fill="#54C5F8"/>
<path d="M10.001 26.1559L3.84644 20.0013L23.8469 0.000976562H36.1538L10.001 26.1559Z" fill="#54C5F8"/>
<path d="M19.2302 35.3838L23.8469 40.0005H36.1538L25.3858 29.2314L19.2302 35.3838Z" fill="#01579B"/>
<path d="M19.2302 35.3838L28.358 32.2253L25.3858 29.2314L19.2302 35.3838Z" fill="url(#paint0_linear_9094_17606)"/>
<path d="M19.231 23.0771L13.0774 29.2308L19.231 35.3844L25.3845 29.2308L19.231 23.0771Z" fill="#29B6F6"/>
<path d="M36.1538 18.4625L25.3846 29.2315L36.1538 40.0006H23.8469L19.2312 35.3851L13.0766 29.2305L23.8457 18.4613L36.1538 18.4625ZM23.8469 0.000976562L3.84644 20.0013L10.001 26.1559L36.1538 0.000976562H23.8469Z" fill="url(#paint1_radial_9094_17606)"/>
</g>
</g>
<defs>
<linearGradient id="paint0_linear_9094_17606" x1="21.026" y1="36.5728" x2="25.6093" y2="31.9892" gradientUnits="userSpaceOnUse">
<stop stop-color="#1A237E" stop-opacity="0.4"/>
<stop offset="1" stop-color="#1A237E" stop-opacity="0"/>
</linearGradient>
<radialGradient id="paint1_radial_9094_17606" cx="0" cy="0" r="1" gradientUnits="userSpaceOnUse" gradientTransform="translate(4.75562 2.72798) scale(48.938)">
<stop stop-color="white" stop-opacity="0.1"/>
<stop offset="1" stop-color="white" stop-opacity="0"/>
</radialGradient>
<clipPath id="clip0_9094_17606">
<rect width="40" height="40" fill="white"/>
</clipPath>
<clipPath id="clip1_9094_17606">
<rect width="32.3073" height="40" fill="white" transform="translate(3.84644 0.000976562)"/>
</clipPath>
</defs>
</svg>
