<svg width="49" height="48" viewBox="0 0 49 48" fill="none" xmlns="http://www.w3.org/2000/svg">
<path d="M36.7944 22.6922H26.3335L17.1807 31.8469L22.4093 37.0765L36.7944 22.6922Z" fill="#54C5F8"/>
<path d="M14.5646 29.2317L9.33325 24.0003L26.3336 7H36.7945L14.5646 29.2317Z" fill="#54C5F8"/>
<path d="M22.4094 37.076L26.3336 41.0002H36.7945L27.6417 31.8465L22.4094 37.076Z" fill="#01579B"/>
<path d="M22.4094 37.076L30.1681 34.3913L27.6417 31.8465L22.4094 37.076Z" fill="url(#paint0_linear_129_35429)"/>
<path d="M22.4102 26.6155L17.1797 31.8462L22.4102 37.0767L27.6408 31.8462L22.4102 26.6155Z" fill="#29B6F6"/>
<path d="M36.7945 22.6923L27.6407 31.8459L36.7945 40.9997H26.3336L22.4103 37.0765L17.1789 31.8451L26.3327 22.6913L36.7945 22.6923ZM26.3336 7L9.33325 24.0003L14.5646 29.2317L36.7945 7H26.3336Z" fill="url(#paint1_radial_129_35429)"/>
<defs>
<linearGradient id="paint0_linear_129_35429" x1="23.9358" y1="38.0866" x2="27.8316" y2="34.1906" gradientUnits="userSpaceOnUse">
<stop stop-color="#1A237E" stop-opacity="0.4"/>
<stop offset="1" stop-color="#1A237E" stop-opacity="0"/>
</linearGradient>
<radialGradient id="paint1_radial_129_35429" cx="0" cy="0" r="1" gradientUnits="userSpaceOnUse" gradientTransform="translate(10.1061 9.31795) scale(41.5973)">
<stop stop-color="white" stop-opacity="0.1"/>
<stop offset="1" stop-color="white" stop-opacity="0"/>
</radialGradient>
</defs>
</svg>
