<svg width="48" height="48" viewBox="0 0 48 48" fill="none" xmlns="http://www.w3.org/2000/svg">
<path d="M40 32.7951C38.836 33.0911 38.116 32.8081 37.47 31.8381L32.876 25.4821L32.212 24.6021L26.847 31.8591C26.234 32.7321 25.591 33.1121 24.447 32.8031L31.317 23.5811L24.921 15.2511C26.021 15.0371 26.781 15.1461 27.456 16.1311L32.221 22.5661L37.021 16.1661C37.636 15.2931 38.297 14.9611 39.401 15.2831L36.921 18.5711L33.561 22.9461C33.161 23.4461 33.216 23.7881 33.584 24.2711L40 32.7951ZM8.008 23.4271L8.57 20.6631C10.1 15.1931 16.37 12.9201 20.694 16.3001C23.221 18.2881 23.849 21.1001 23.724 24.2501H9.48C9.266 29.9201 13.347 33.3421 18.55 31.5961C20.375 30.9831 21.45 29.5541 21.988 27.7661C22.261 26.8701 22.713 26.7301 23.555 26.9861C23.125 29.2221 22.155 31.0901 20.105 32.2591C17.042 34.0091 12.67 33.4431 10.37 31.0111C9 29.6001 8.434 27.8121 8.18 25.9001C8.14 25.5841 8.06 25.2831 8 24.9801C8.00533 24.4628 8.008 23.9455 8.008 23.4281V23.4271ZM9.506 23.0471H22.378C22.294 18.9471 19.741 16.0351 16.252 16.0101C12.422 15.9801 9.672 18.8231 9.506 23.0471Z" fill="black"/>
</svg>
