<svg width="24" height="24" viewBox="0 0 24 24" fill="none" xmlns="http://www.w3.org/2000/svg">
<path d="M6.76255 10.7123C6.76255 11.0077 6.79448 11.2472 6.85036 11.4228C6.91421 11.5984 6.99403 11.7899 7.10578 11.9975C7.1457 12.0613 7.16166 12.1252 7.16166 12.1811C7.16166 12.2609 7.11377 12.3407 7.01 12.4205L6.50712 12.7558C6.43528 12.8037 6.36344 12.8276 6.29959 12.8276C6.21977 12.8276 6.13994 12.7877 6.06012 12.7159C5.94837 12.5961 5.85259 12.4684 5.77277 12.3407C5.69294 12.205 5.61312 12.0533 5.52532 11.8698C4.90271 12.6041 4.12046 12.9713 3.17857 12.9713C2.50806 12.9713 1.97326 12.7797 1.58213 12.3966C1.19101 12.0134 0.991455 11.5026 0.991455 10.864C0.991455 10.1855 1.23092 9.63476 1.71783 9.21968C2.20474 8.80461 2.8513 8.59708 3.67346 8.59708C3.94485 8.59708 4.22423 8.62102 4.51957 8.66093C4.81491 8.70084 5.11823 8.7647 5.43752 8.83654V8.25384C5.43752 7.6472 5.3098 7.22415 5.06235 6.9767C4.80692 6.72925 4.37589 6.60952 3.76126 6.60952C3.48189 6.60952 3.19453 6.64145 2.89919 6.71329C2.60385 6.78513 2.31649 6.87293 2.03712 6.98468C1.9094 7.04056 1.81362 7.07248 1.75774 7.08845C1.70187 7.10441 1.66196 7.1124 1.63003 7.1124C1.51828 7.1124 1.4624 7.03257 1.4624 6.86495V6.47382C1.4624 6.34611 1.47837 6.25032 1.51828 6.19445C1.55819 6.13857 1.63003 6.0827 1.74178 6.02682C2.02115 5.88314 2.3564 5.76341 2.74753 5.66763C3.13865 5.56386 3.55373 5.51596 3.99274 5.51596C4.94262 5.51596 5.63707 5.73148 6.08407 6.16252C6.52309 6.59356 6.74659 7.24809 6.74659 8.12613V10.7123H6.76255ZM3.5218 11.9256C3.78521 11.9256 4.0566 11.8777 4.34396 11.782C4.63132 11.6862 4.88675 11.5106 5.10226 11.2711C5.22998 11.1194 5.32577 10.9518 5.37366 10.7602C5.42155 10.5687 5.45348 10.3372 5.45348 10.0658V9.73054C5.222 9.67467 4.97455 9.62677 4.71912 9.59485C4.46369 9.56292 4.21625 9.54695 3.9688 9.54695C3.43399 9.54695 3.04287 9.65072 2.77946 9.86624C2.51605 10.0818 2.38833 10.3851 2.38833 10.7842C2.38833 11.1593 2.48412 11.4387 2.68367 11.6303C2.87524 11.8298 3.15462 11.9256 3.5218 11.9256ZM9.93147 12.7877C9.78779 12.7877 9.692 12.7638 9.62815 12.7079C9.56429 12.66 9.50841 12.5482 9.46052 12.3966L7.58471 6.22638C7.53682 6.06673 7.51288 5.96297 7.51288 5.90709C7.51288 5.77938 7.57673 5.70754 7.70445 5.70754H8.4867C8.63836 5.70754 8.74213 5.73148 8.798 5.78736C8.86186 5.83525 8.90975 5.947 8.95765 6.09866L10.2986 11.3828L11.5439 6.09866C11.5838 5.93902 11.6317 5.83525 11.6955 5.78736C11.7594 5.73946 11.8711 5.70754 12.0148 5.70754H12.6534C12.805 5.70754 12.9088 5.73148 12.9727 5.78736C13.0365 5.83525 13.0924 5.947 13.1243 6.09866L14.3855 11.4467L15.7664 6.09866C15.8143 5.93902 15.8702 5.83525 15.9261 5.78736C15.9899 5.73946 16.0937 5.70754 16.2374 5.70754H16.9797C17.1074 5.70754 17.1793 5.77139 17.1793 5.90709C17.1793 5.947 17.1713 5.98691 17.1633 6.0348C17.1553 6.0827 17.1394 6.14655 17.1074 6.23436L15.1837 12.4046C15.1358 12.5642 15.08 12.668 15.0161 12.7159C14.9522 12.7638 14.8485 12.7957 14.7128 12.7957H14.0263C13.8747 12.7957 13.7709 12.7717 13.707 12.7159C13.6432 12.66 13.5873 12.5562 13.5554 12.3966L12.3181 7.24809L11.0889 12.3886C11.049 12.5482 11.0011 12.652 10.9372 12.7079C10.8734 12.7638 10.7616 12.7877 10.6179 12.7877H9.93147ZM20.1885 13.0032C19.7735 13.0032 19.3584 12.9553 18.9593 12.8595C18.5602 12.7638 18.2489 12.66 18.0413 12.5403C17.9136 12.4684 17.8258 12.3886 17.7939 12.3168C17.762 12.2449 17.746 12.1651 17.746 12.0933V11.6862C17.746 11.5185 17.8099 11.4387 17.9296 11.4387C17.9775 11.4387 18.0254 11.4467 18.0733 11.4627C18.1212 11.4786 18.193 11.5106 18.2728 11.5425C18.5442 11.6622 18.8396 11.758 19.1509 11.8219C19.4701 11.8857 19.7814 11.9177 20.1007 11.9177C20.6036 11.9177 20.9947 11.8298 21.2661 11.6542C21.5375 11.4786 21.6812 11.2232 21.6812 10.8959C21.6812 10.6724 21.6094 10.4888 21.4657 10.3372C21.322 10.1855 21.0506 10.0498 20.6595 9.92211L19.5021 9.56292C18.9194 9.37933 18.4883 9.10793 18.2249 8.74874C17.9615 8.39752 17.8258 8.0064 17.8258 7.59132C17.8258 7.25607 17.8977 6.96073 18.0413 6.70531C18.185 6.44988 18.3766 6.22638 18.6161 6.05077C18.8555 5.86718 19.1269 5.73148 19.4462 5.6357C19.7655 5.53991 20.1007 5.5 20.4519 5.5C20.6276 5.5 20.8111 5.50798 20.9868 5.53193C21.1703 5.55588 21.338 5.5878 21.5056 5.61973C21.6652 5.65964 21.8169 5.69955 21.9606 5.74745C22.1043 5.79534 22.216 5.84323 22.2958 5.89113C22.4076 5.95498 22.4874 6.01884 22.5353 6.09068C22.5832 6.15454 22.6071 6.24234 22.6071 6.35409V6.72925C22.6071 6.89688 22.5433 6.98468 22.4235 6.98468C22.3597 6.98468 22.2559 6.95275 22.1202 6.8889C21.6652 6.68136 21.1544 6.57759 20.5876 6.57759C20.1327 6.57759 19.7735 6.64943 19.526 6.80109C19.2786 6.95275 19.1509 7.18423 19.1509 7.5115C19.1509 7.735 19.2307 7.92658 19.3903 8.07824C19.55 8.2299 19.8453 8.38156 20.2684 8.51726L21.4018 8.87645C21.9765 9.06004 22.3916 9.31547 22.6391 9.64274C22.8865 9.97001 23.0062 10.3452 23.0062 10.7602C23.0062 11.1035 22.9344 11.4148 22.7987 11.6862C22.655 11.9576 22.4634 12.197 22.216 12.3886C21.9686 12.5882 21.6732 12.7318 21.33 12.8356C20.9708 12.9474 20.5956 13.0032 20.1885 13.0032Z" fill="white"/>
<path fill-rule="evenodd" clip-rule="evenodd" d="M21.6981 16.8824C19.0719 18.8221 15.2565 19.8518 11.9758 19.8518C7.37807 19.8518 3.23533 18.1516 0.106324 15.3259C-0.141123 15.1024 0.0823772 14.7991 0.377717 14.9747C3.76215 16.9383 7.93682 18.1276 12.2552 18.1276C15.1687 18.1276 18.3695 17.521 21.3149 16.2758C21.7539 16.0762 22.1291 16.5631 21.6981 16.8824Z" fill="#FF9900"/>
<path fill-rule="evenodd" clip-rule="evenodd" d="M22.792 15.6372C22.4568 15.2062 20.573 15.4297 19.7189 15.5335C19.4635 15.5654 19.4236 15.3419 19.655 15.1743C21.1557 14.1206 23.6222 14.4239 23.9095 14.7752C24.1969 15.1344 23.8297 17.6008 22.4248 18.7822C22.2093 18.9658 22.0018 18.87 22.0976 18.6305C22.4169 17.8403 23.1273 16.0603 22.792 15.6372Z" fill="#FF9900"/>
</svg>
