<svg width="24" height="24" viewBox="0 0 18 20" fill="none" xmlns="http://www.w3.org/2000/svg">
<path d="M14.4582 10.6254C14.467 9.85999 14.6699 9.10938 15.0479 8.44381C15.426 7.77824 15.9667 7.2195 16.6195 6.81989C16.2046 6.22904 15.6583 5.74242 15.0236 5.39821C14.3889 5.054 13.6831 4.86159 12.9615 4.83606C11.4039 4.67816 9.92216 5.75299 9.13292 5.75299C8.34318 5.75299 7.12392 4.85925 5.83207 4.88391C4.98424 4.90748 4.15708 5.1509 3.43163 5.59032C2.70618 6.02974 2.10733 6.65008 1.69375 7.39056C-0.0686383 10.4507 1.2439 14.9843 2.96139 17.4673C3.80184 18.6812 4.80367 20.0485 6.11916 19.9987C7.38686 19.9488 7.86532 19.1799 9.3959 19.1799C10.9269 19.1799 11.3575 19.9987 12.6967 19.9739C14.0596 19.9488 14.9247 18.735 15.7583 17.5165C16.355 16.6404 16.8212 15.6822 17.1424 14.6721C16.3489 14.3332 15.6718 13.7694 15.1949 13.0503C14.7179 12.3312 14.4618 11.4883 14.4582 10.6254ZM11.9413 3.1933C12.6961 2.30799 13.0701 1.16004 12.9816 0C11.842 0.110543 10.7879 0.652884 10.0354 1.51581C9.65997 1.93385 9.37253 2.4232 9.19025 2.9547C9.00797 3.4862 8.93456 4.04897 8.97442 4.60944C9.54453 4.61731 10.1088 4.49364 10.6233 4.24803C11.1379 4.00243 11.5889 3.64151 11.9413 3.1933Z" fill="#111111"/>
</svg>
