<svg width="24" height="24" viewBox="0 0 24 24" fill="none" xmlns="http://www.w3.org/2000/svg">
<path d="M16.9107 12.5628C16.9186 11.874 17.1013 11.1984 17.4415 10.5994C17.7817 10.0004 18.2684 9.49755 18.8559 9.13791C18.4824 8.60614 17.9908 8.16818 17.4196 7.85839C16.8484 7.54861 16.2131 7.37543 15.5637 7.35246C14.1618 7.21035 12.8283 8.1777 12.118 8.1777C11.4072 8.1777 10.3099 7.37333 9.14719 7.39552C8.38414 7.41674 7.6397 7.63582 6.98679 8.03129C6.33389 8.42677 5.79492 8.98507 5.4227 9.65151C3.83654 12.4057 5.01783 16.4858 6.56357 18.7206C7.31998 19.8131 8.22163 21.0436 9.40557 20.9988C10.5465 20.954 10.9771 20.2619 12.3546 20.2619C13.7325 20.2619 14.1201 20.9988 15.3253 20.9766C16.552 20.9539 17.3305 19.8615 18.0808 18.7649C18.6178 17.9764 19.0374 17.114 19.3265 16.2049C18.6123 15.8998 18.003 15.3925 17.5737 14.7453C17.1444 14.0981 16.9139 13.3394 16.9107 12.5628ZM14.6455 5.87397C15.3249 5.0772 15.6614 4.04404 15.5818 3C14.5561 3.09949 13.6074 3.5876 12.9302 4.36423C12.5923 4.74047 12.3336 5.18089 12.1696 5.65924C12.0055 6.13759 11.9394 6.64407 11.9753 7.1485C12.4884 7.15558 12.9962 7.04428 13.4593 6.82323C13.9224 6.60219 14.3283 6.27736 14.6455 5.87397Z" fill="black"/>
</svg>
