<svg width="48" height="48" viewBox="0 0 48 48" fill="none" xmlns="http://www.w3.org/2000/svg">
<path d="M39.998 16.8634C39.9961 16.5415 39.9926 16.2199 39.9837 15.8977C39.9649 15.1968 39.9235 14.4896 39.7989 13.7962C39.6725 13.092 39.4659 12.4373 39.1402 11.7976C38.8206 11.1694 38.4027 10.5946 37.9042 10.0961C37.4058 9.59755 36.8309 9.17971 36.2024 8.85988C35.5633 8.5346 34.9084 8.32802 34.2049 8.20162C33.5112 8.07667 32.8039 8.03551 32.1025 8.01654C31.7805 8.00781 31.4587 8.00415 31.1368 8.00216C30.7547 8 30.3723 8 29.9903 8H21.5193H18.01C17.6276 8 17.2457 8 16.8637 8.00221C16.5416 8.0042 16.2195 8.00787 15.898 8.0166C15.7226 8.02134 15.5469 8.02748 15.3711 8.03594C14.8437 8.06137 14.3155 8.10798 13.7955 8.20167C13.2678 8.2965 12.7675 8.43638 12.2807 8.63762C12.1185 8.70465 11.9577 8.77857 11.7979 8.85988C11.3266 9.09975 10.8853 9.39475 10.4839 9.73753C10.3501 9.85181 10.2208 9.97137 10.0962 10.096C9.59758 10.5945 9.17969 11.1693 8.86001 11.7975C8.53436 12.4372 8.32799 13.092 8.20148 13.7961C8.07702 14.4895 8.03564 15.1967 8.01678 15.8976C8.00794 16.2198 8.00422 16.5415 8.00212 16.8633C7.9997 17.2455 8.00002 17.6278 8.00002 18.0099V23.2266V29.9899C8.00002 30.3724 7.99964 30.7543 8.00212 31.1368C8.00422 31.4586 8.00794 31.7803 8.01678 32.102C8.03564 32.8032 8.07696 33.5106 8.20148 34.2037C8.32799 34.9076 8.53436 35.563 8.86001 36.2025C9.17969 36.8308 9.59758 37.4055 10.0962 37.9038C10.5944 38.4025 11.1694 38.8203 11.798 39.1403C12.4372 39.4657 13.092 39.672 13.7956 39.7984C14.489 39.9232 15.1968 39.9647 15.898 39.9834C16.2196 39.992 16.5417 39.9958 16.8637 39.9976C17.2457 40.0004 17.6277 40 18.0101 40H29.9903C30.3723 40 30.7547 40.0004 31.1367 39.9976C31.4587 39.9958 31.7804 39.992 32.1024 39.9834C32.8039 39.9647 33.5111 39.9231 34.2049 39.7984C34.9084 39.672 35.5633 39.4656 36.2024 39.1403C36.8309 38.8204 37.4057 38.4025 37.9041 37.9038C38.4026 37.4055 38.8206 36.8308 39.1402 36.2025C39.4658 35.563 39.6725 34.9077 39.7989 34.2037C39.9234 33.5106 39.9649 32.8032 39.9836 32.102C39.9925 31.7803 39.996 31.4587 39.998 31.1368C40.0004 30.7543 40.0002 30.3724 40.0002 29.9899V18.0099C40.0003 17.6278 40.0004 17.2455 39.998 16.8634Z" fill="#F05138"/>
<path d="M33.3562 27.753C33.3555 27.752 33.3548 27.7513 33.354 27.7504C33.3894 27.6299 33.4259 27.5102 33.4569 27.3867C34.785 22.0952 31.5435 15.8391 26.0583 12.5452C28.462 15.8038 29.5249 19.7507 28.5806 23.2024C28.4963 23.5103 28.3951 23.8058 28.2832 24.093C28.1617 24.0132 28.0087 23.9226 27.8032 23.8093C27.8032 23.8093 22.3468 20.4403 16.433 14.4814C16.2778 14.325 19.5865 19.2105 23.3415 23.1776C21.5723 22.1848 16.6421 18.5976 13.5209 15.7409C13.9044 16.3804 14.3605 16.9962 14.8618 17.5891C17.4683 20.8946 20.8674 24.973 24.9398 28.1048C22.0785 29.8558 18.0355 29.992 14.01 28.1067C13.0144 27.6401 12.0784 27.0771 11.2119 26.4374C12.9159 29.1629 15.5402 31.5145 18.7343 32.8873C22.5434 34.5242 26.3312 34.4132 29.1524 32.9141L29.1502 32.9174C29.1631 32.9092 29.1794 32.9003 29.1928 32.8921C29.3086 32.8298 29.4236 32.7664 29.5361 32.6994C30.8915 31.9959 33.5689 31.282 35.0059 34.0781C35.3578 34.7624 36.1057 31.136 33.3562 27.753Z" fill="white"/>
</svg>
