<svg width="40" height="40" viewBox="0 0 40 40" fill="none" xmlns="http://www.w3.org/2000/svg">
<g clip-path="url(#clip0_9094_17609)">
<path d="M39.9972 11.0792C39.9949 10.6769 39.9904 10.2748 39.9793 9.87209C39.9559 8.99599 39.9041 8.11195 39.7483 7.24522C39.5903 6.36502 39.3321 5.54658 38.925 4.74699C38.5254 3.96175 38.003 3.24319 37.3799 2.62007C36.7569 1.99694 36.0384 1.47464 35.2528 1.07485C34.4539 0.668251 33.6353 0.410029 32.7559 0.252025C31.8887 0.0958396 31.0047 0.0443839 30.1279 0.0206766C29.7253 0.00976581 29.3232 0.00518598 28.9208 0.00269402C28.4431 0 27.9651 0 27.4876 0H16.899H12.5125C12.0345 0 11.557 0 11.0795 0.00276137C10.677 0.00525333 10.2743 0.00983316 9.87238 0.0207439C9.65322 0.0266708 9.43359 0.0343487 9.21383 0.0449227C8.5546 0.0767121 7.89437 0.13497 7.2443 0.252093C6.58474 0.370629 5.95932 0.545471 5.35088 0.797025C5.14809 0.880809 4.94711 0.973213 4.74735 1.07485C4.15817 1.37469 3.60657 1.74343 3.10488 2.17192C2.93765 2.31477 2.77594 2.46422 2.62023 2.62C1.99697 3.24312 1.4746 3.96169 1.07501 4.74692C0.66794 5.54651 0.409988 6.36495 0.251849 7.24515C0.0962694 8.11189 0.0445443 8.99593 0.0209716 9.87202C0.00992618 10.2748 0.005279 10.6769 0.00265233 11.0791C-0.000378434 11.5569 2.5668e-05 12.0348 2.5668e-05 12.5124V19.0332V27.4874C2.5668e-05 27.9655 -0.000445785 28.4429 0.00265233 28.921C0.005279 29.3233 0.00992618 29.7254 0.0209716 30.1275C0.0445443 31.004 0.0962021 31.8883 0.251849 32.7546C0.409988 33.6345 0.66794 34.4537 1.07501 35.2531C1.4746 36.0385 1.99697 36.7569 2.62023 37.3797C3.24302 38.0031 3.96178 38.5254 4.74742 38.9254C5.5464 39.3321 6.36491 39.59 7.2445 39.748C8.11117 39.904 8.99588 39.9558 9.87245 39.9793C10.2744 39.99 10.677 39.9948 11.0796 39.9971C11.5571 40.0005 12.0345 40 12.5125 40H27.4876C27.9651 40 28.4431 40.0005 28.9207 39.9971C29.3231 39.9948 29.7253 39.99 30.1278 39.9793C31.0046 39.9558 31.8886 39.9039 32.7558 39.748C33.6352 39.59 34.4538 39.332 35.2527 38.9254C36.0383 38.5254 36.7568 38.0031 37.3798 37.3797C38.003 36.7568 38.5254 36.0385 38.9249 35.2531C39.332 34.4537 39.5903 33.6346 39.7483 32.7546C39.904 31.8883 39.9558 31.004 39.9792 30.1275C39.9903 29.7254 39.9947 29.3234 39.9971 28.921C40.0002 28.4429 40 27.9655 40 27.4874V12.5124C40 12.0348 40.0002 11.5569 39.9972 11.0792Z" fill="#F05138"/>
<path d="M31.6955 24.6905C31.6946 24.6892 31.6937 24.6884 31.6927 24.6872C31.737 24.5366 31.7826 24.387 31.8214 24.2326C33.4815 17.6182 29.4297 9.79813 22.5731 5.68066C25.5778 9.75395 26.9063 14.6876 25.7259 19.0022C25.6207 19.3871 25.4941 19.7564 25.3542 20.1154C25.2024 20.0157 25.0112 19.9024 24.7543 19.7608C24.7543 19.7608 17.9338 15.5496 10.5415 8.10097C10.3475 7.90545 14.4833 14.0123 19.1771 18.9713C16.9657 17.7302 10.8028 13.2462 6.90137 9.67535C7.3807 10.4747 7.95083 11.2445 8.57752 11.9855C11.8356 16.1174 16.0845 21.2155 21.1749 25.1302C17.5984 27.319 12.5446 27.4892 7.51278 25.1325C6.26821 24.5493 5.0982 23.8455 4.01514 23.046C6.14509 26.4529 9.42553 29.3923 13.4181 31.1083C18.1795 33.1545 22.9143 33.0158 26.4407 31.1419L26.438 31.1459C26.4541 31.1357 26.4745 31.1246 26.4912 31.1143C26.6361 31.0365 26.7798 30.9572 26.9203 30.8735C28.6147 29.994 31.9613 29.1018 33.7576 32.5968C34.1975 33.4522 35.1324 28.9192 31.6955 24.6905Z" fill="white"/>
</g>
<defs>
<clipPath id="clip0_9094_17609">
<rect width="40" height="40" fill="white"/>
</clipPath>
</defs>
</svg>
