<svg width="24" height="24" viewBox="0 0 24 24" fill="none" xmlns="http://www.w3.org/2000/svg">
<path d="M12 2.24658C9.62547 2.24668 7.32846 3.0917 5.51996 4.63043C3.71146 6.16916 2.5095 8.3012 2.12913 10.6451C1.74876 12.9889 2.21481 15.3917 3.4439 17.4233C4.67298 19.455 6.58488 20.9831 8.83752 21.7341C9.33752 21.8216 9.52502 21.5216 9.52502 21.2591C9.52502 21.0216 9.51251 20.2341 9.51251 19.3966C7 19.8591 6.35 18.7841 6.15 18.2216C5.92807 17.6745 5.57627 17.1897 5.125 16.8091C4.775 16.6216 4.275 16.1591 5.11249 16.1466C5.43227 16.1813 5.73898 16.2926 6.00663 16.471C6.27427 16.6494 6.49496 16.8897 6.65 17.1716C6.78677 17.4173 6.97068 17.6336 7.19119 17.8081C7.4117 17.9826 7.66447 18.1118 7.93503 18.1885C8.20559 18.2651 8.48861 18.2876 8.76788 18.2547C9.04714 18.2218 9.31717 18.134 9.56248 17.9966C9.60577 17.4882 9.83234 17.0129 10.2 16.6591C7.975 16.4091 5.65 15.5466 5.65 11.7216C5.63594 10.7278 6.00268 9.76619 6.675 9.03411C6.36928 8.17033 6.40505 7.2224 6.775 6.38411C6.775 6.38411 7.61247 6.1216 9.525 7.40911C11.1613 6.95909 12.8887 6.95909 14.525 7.40911C16.4375 6.10911 17.275 6.38411 17.275 6.38411C17.645 7.22238 17.6808 8.17034 17.375 9.03411C18.0493 9.76494 18.4164 10.7273 18.4 11.7216C18.4 15.5591 16.0625 16.4091 13.8375 16.6591C14.0761 16.901 14.2599 17.1914 14.3764 17.5106C14.4929 17.8298 14.5393 18.1704 14.5125 18.5091C14.5125 19.8466 14.5 20.9216 14.5 21.2591C14.5 21.5216 14.6875 21.8341 15.1875 21.7341C17.4362 20.977 19.3426 19.4453 20.5664 17.4126C21.7903 15.3799 22.2519 12.9784 21.8689 10.6368C21.4859 8.29523 20.2832 6.16595 18.4755 4.62909C16.6678 3.09223 14.3727 2.24782 12 2.24658Z" fill="white"/>
</svg>
