<svg width="24" height="24" viewBox="0 0 24 24" fill="none" xmlns="http://www.w3.org/2000/svg">
<path d="M12 2.2467C9.6255 2.2468 7.32849 3.09182 5.51999 4.63055C3.71149 6.16929 2.50953 8.30133 2.12916 10.6452C1.74879 12.989 2.21485 15.3918 3.44393 17.4235C4.67301 19.4551 6.58491 20.9832 8.83755 21.7342C9.33755 21.8217 9.52505 21.5217 9.52505 21.2592C9.52505 21.0217 9.51254 20.2342 9.51254 19.3967C7.00003 19.8592 6.35003 18.7842 6.15003 18.2217C5.9281 17.6747 5.5763 17.1899 5.12503 16.8092C4.77503 16.6217 4.27503 16.1592 5.11252 16.1467C5.4323 16.1814 5.73901 16.2927 6.00666 16.4711C6.2743 16.6495 6.49499 16.8899 6.65003 17.1717C6.7868 17.4174 6.97071 17.6337 7.19122 17.8082C7.41173 17.9827 7.6645 18.112 7.93506 18.1886C8.20562 18.2652 8.48864 18.2877 8.76791 18.2548C9.04717 18.2219 9.3172 18.1342 9.56251 17.9967C9.6058 17.4883 9.83237 17.013 10.2 16.6592C7.97503 16.4092 5.65003 15.5467 5.65003 11.7217C5.63597 10.7279 6.00271 9.76631 6.67503 9.03423C6.36931 8.17045 6.40508 7.22252 6.77503 6.38423C6.77503 6.38423 7.6125 6.12172 9.52503 7.40923C11.1613 6.95921 12.8887 6.95921 14.525 7.40923C16.4375 6.10923 17.275 6.38423 17.275 6.38423C17.645 7.22251 17.6808 8.17046 17.375 9.03423C18.0494 9.76506 18.4164 10.7275 18.4 11.7217C18.4 15.5592 16.0625 16.4092 13.8375 16.6592C14.0762 16.9011 14.26 17.1915 14.3764 17.5107C14.4929 17.83 14.5393 18.1705 14.5125 18.5092C14.5125 19.8468 14.5 20.9217 14.5 21.2592C14.5 21.5217 14.6875 21.8342 15.1875 21.7342C17.4362 20.9771 19.3426 19.4455 20.5664 17.4128C21.7903 15.38 22.2519 12.9785 21.8689 10.6369C21.4859 8.29535 20.2832 6.16608 18.4755 4.62922C16.6678 3.09235 14.3727 2.24794 12 2.2467Z" fill="black"/>
</svg>
