<svg width="24" height="24" viewBox="0 0 24 24" fill="none" xmlns="http://www.w3.org/2000/svg">
<g clip-path="url(#clip0_865_12256)">
<path fill-rule="evenodd" clip-rule="evenodd" d="M17.0523 8.36571C16.9328 8.35911 16.8127 8.35791 16.6915 8.35791C12.3784 8.35791 8.87951 11.2889 8.87951 14.9061C8.87951 15.498 8.97616 16.0714 9.15207 16.6171C8.96116 16.6267 8.76904 16.6345 8.57572 16.6345C7.62775 16.6345 6.71399 16.506 5.86207 16.2689C5.81344 16.2545 5.71618 16.2269 5.71618 16.2269L2.6159 17.8058L3.4444 15.2105L3.36576 15.1606C1.31911 13.85 -0.000488281 11.7854 -0.000488281 9.46257C-0.000488281 5.50138 3.83884 2.29004 8.57572 2.29004C12.8659 2.29004 16.4207 4.92383 17.0523 8.36571ZM5.59161 8.15847C4.9264 8.15847 4.38728 7.63555 4.38728 6.99196C4.38728 6.34777 4.9264 5.82666 5.59161 5.82666C6.25681 5.82666 6.79714 6.34777 6.79714 6.99196C6.79714 7.63555 6.25681 8.15847 5.59161 8.15847ZM11.5608 5.82666C12.226 5.82666 12.7645 6.34777 12.7645 6.99196C12.7645 7.63555 12.226 8.15847 11.5608 8.15847C10.895 8.15847 10.3571 7.63555 10.3571 6.99196C10.3571 6.34777 10.895 5.82666 11.5608 5.82666Z" fill="#1AAD19"/>
<path fill-rule="evenodd" clip-rule="evenodd" d="M16.7555 21.0087C12.7535 21.0087 9.50854 18.2957 9.50854 14.9486C9.50854 11.6028 12.7535 8.88977 16.7555 8.88977C20.7558 8.88977 23.9995 11.6028 23.9995 14.9486C23.9995 16.9118 22.8841 18.6559 21.1556 19.7629L21.089 19.8044L21.789 21.9981L19.1708 20.6629C19.1708 20.6629 19.0886 20.6875 19.0471 20.6983C18.3279 20.8994 17.5558 21.0087 16.7555 21.0087ZM18.2581 12.861C18.2581 12.3183 18.7132 11.877 19.2752 11.877C19.8377 11.877 20.2928 12.3183 20.2928 12.861C20.2928 13.4061 19.8377 13.848 19.2752 13.848C18.7132 13.848 18.2581 13.4061 18.2581 12.861ZM13.2164 12.861C13.2164 12.3183 13.6727 11.877 14.2341 11.877C14.7966 11.877 15.2523 12.3183 15.2523 12.861C15.2523 13.4061 14.7966 13.848 14.2341 13.848C13.6727 13.848 13.2164 13.4061 13.2164 12.861Z" fill="#1AAD19"/>
</g>
<defs>
<clipPath id="clip0_865_12256">
<rect width="24" height="24" fill="white"/>
</clipPath>
</defs>
</svg>
