<svg width="24" height="24" viewBox="0 0 24 24" fill="none" xmlns="http://www.w3.org/2000/svg">
<path d="M6.90875 10L5.10254 14.6058H6.63782L6.85595 13.9962H8.58713L8.80527 14.6058H10.3405L8.53434 10H6.90875ZM7.20668 12.8899L7.72155 11.4512L8.2364 12.8899H7.20668Z" fill="#03CF5D"/>
<path d="M16.73 12.8561H18.8297V11.7498H16.73V11.1289H18.8523V10H15.2625V14.6058H18.8974V13.477H16.73V12.8561Z" fill="#03CF5D"/>
<path d="M12.1693 13.0285L11.0856 10H9.55029L11.3565 14.6058H12.9821L14.7883 10H13.253L12.1693 13.0285Z" fill="#03CF5D"/>
<path d="M3.13829 12.4651L1.42239 10H0V14.6058H1.49012V12.1407L3.20602 14.6058H4.62841V10H3.13829V12.4651Z" fill="#03CF5D"/>
<path d="M22.8355 13.0258L22.9752 12.9673C23.5105 12.7433 23.7827 12.2585 23.7827 11.6432C23.7827 11.0614 23.5705 10.631 23.152 10.3639C22.7629 10.1156 22.2584 10 21.5642 10H19.6199V14.6058H21.0648V13.3189H21.5841L22.4647 14.6058H23.9999L22.8355 13.0258ZM21.8325 12.1449H21.0423V11.174H21.8325C22.1006 11.174 22.3179 11.3914 22.3179 11.6595C22.3179 11.9275 22.1006 12.1449 21.8325 12.1449Z" fill="#03CF5D"/>
</svg>
