<?xml version="1.0" encoding="UTF-8"?>
<svg xmlns="http://www.w3.org/2000/svg" viewBox="0 0 1000 1000">
  <path fill="#3363fe"
    d="M759.96,197.79c7.49,5.01,45.89,34.47,43.09,42.21-.75,2.09-2.7,2.88-4.8,2.73-10.38-8.49-21.16-16.2-32.35-23.13-32.52-17.36-67.36-30.96-104.34-35.45-112.89-13.71-245.06,47.72-260.53,170.28-21.9-14.71-44.76-26.08-70.95-31.14-57.56-11.13-124.06,6.22-168.97,44.01-142.52,119.92-40.88,305.7,137.29,264.19,129.29-30.12,200.64-189.22,293.95-269.18,109.37-93.72,323.64-75.27,359.35,82.93,32.34,143.27-106.65,264.28-240.35,272.03-9.53.55-44.43-3.54-48.6-1.01-1.46.89-11.57,23.12-14.23,27.41-74.07,119.23-282.01,141.14-394.2,68.8-24.36-14.32-46.88-32.44-63.45-55.52-.6-.7-1.39-1.27-1.98-1.98-5.08-7.68-13.98-24.59,0-11.9,3.11,3.7,4.28,4.82,7.93,7.93,5.73,5.45,11.68,10.74,17.85,15.86,14.73,9.91,32.06,20.84,48.24,28.1,127.57,57.3,310.97,3.75,336.46-147.07,2.75-1.89,28.2,15.59,34.3,18.22,124.32,53.63,302.59-55.7,268.47-197.08-24.89-103.12-152.35-126.67-239.06-89.54-60.41,25.86-122.86,120.6-165.81,171.28-59,69.61-129.67,131.66-224.11,142.72-159.74,18.71-282.41-116.51-206.62-270.08,39.5-80.03,132.23-134.89,220.54-140.34,17.07-1.05,33.67,2.41,50.63,1.05,67.56-151.6,296.6-175.17,422.27-86.33Z" />
  <path fill="#4c6eda"
    d="M823.42,265.2c4.23,7.92,1.09,8.58-3.97,1.98-14.67-18.96-35.29-32.46-53.54-47.59.67.36,3.43-.12,5.8,1.06,6.82,3.41,19.15,16.57,24.97,18.75,3.66,1.37,3.59-2.28,2.64-4.63-4.48-11.06-32.18-25.96-39.36-36.99,6.74,1.28,13.53,7.45,18.78,11.95,19.75,16.94,32.27,32.85,44.67,55.47Z" />
  <path fill="#748ede" d="M254.33,812.47c-23.97-12.33-50.04-31.75-63.45-55.52,17.47,20.4,40.84,40.94,63.45,55.52Z" />
  <path fill="#748ede"
    d="M188.9,743.07c-1.63-1.16-4.97-3.67-5.97-.97.12,4.28,7.76,6.96,5.97,12.87-8.89-10.66-19.39-23.26-19.81-37.67.82-1.11,16.29,18.75,17.92,20.8,1.44,1.82,1.47,4.48,1.89,4.97Z" />
  <path fill="#7c91d4"
    d="M823.42,265.2c3.49,6.37,10.8,12.93,9.89,21.81-6.86-3.75-10.1-14.96-13.86-19.83,4.05,2.53,4.3,3.31,3.97-1.98Z" />
  <path fill="#748ede" d="M214.68,766.87c-5.82-3.91-16.06-9.03-17.85-15.86,5.38,4.58,14.24,8.03,17.85,15.86Z" />
</svg>
