<svg width="40" height="40" viewBox="0 0 40 40" fill="none" xmlns="http://www.w3.org/2000/svg">
<path d="M39.7227 13.5009C38.858 18.9219 36.0985 23.8602 31.935 27.4374C27.7716 31.0146 22.4743 32.9987 16.9856 33.0368C15.8738 33.0795 14.7605 33.0119 13.6621 32.835C11.3649 32.4447 9.27091 31.2786 7.72945 29.5311C6.18799 27.7837 5.29222 25.5606 5.19153 23.2326C5.21372 20.6361 6.25593 18.1524 8.09324 16.3175C9.93046 14.4828 12.4155 13.4441 15.0119 13.4258C17.6083 13.4075 20.1078 14.4109 21.9708 16.2195C23.8338 18.0282 24.9111 20.4969 24.97 23.0928C25.0115 24.7324 24.3013 26.1705 22.8417 26.2121C21.2822 26.2121 20.5511 25.0992 20.5511 23.5995V19.4321C20.5517 18.7582 20.2858 18.1114 19.8113 17.6328C19.3369 17.1541 18.6925 16.8825 18.0186 16.8772H14.5254C13.5093 16.8701 12.5076 17.1179 11.612 17.5978C10.7164 18.0777 9.95529 18.7745 9.39836 19.6244C8.84136 20.4742 8.5062 21.4501 8.42349 22.4629C8.34079 23.4756 8.51318 24.4929 8.92491 25.4219C9.33664 26.3509 9.97459 27.1619 10.7805 27.7808C11.5864 28.3997 12.5345 28.8068 13.5382 28.9649C14.542 29.1229 15.5693 29.0268 16.5263 28.6854C17.4833 28.344 18.3395 27.7682 19.0166 27.0106L19.1388 26.8285L19.2611 27.0307C19.6812 27.6015 20.2359 28.0597 20.8758 28.3644C21.5157 28.6692 22.221 28.8111 22.929 28.7775C24.1909 28.6858 25.367 28.1044 26.2061 27.1574C27.0453 26.2105 27.481 24.973 27.4202 23.7092C27.4325 22.6247 27.3109 21.5428 27.0583 20.4881C26.4105 17.5085 24.6827 14.8741 22.208 13.0931C19.7333 11.3121 16.6869 10.5103 13.6561 10.8423C10.6253 11.1743 7.82473 12.6166 5.79428 14.8911C3.76368 17.1657 2.64693 20.1115 2.65927 23.1607C2.69824 26.3939 3.98885 29.4862 6.25995 31.7877C8.53084 34.0892 11.6055 35.4208 14.8377 35.5026C14.8377 35.5026 15.7525 35.5858 16.7838 35.5621C21.7972 35.5303 26.6972 34.0683 30.9083 31.3478C30.9682 31.3061 31.0281 31.3893 30.9882 31.45C28.9381 33.6586 26.4311 35.3936 23.6419 36.5343C20.8527 37.6751 17.8483 38.194 14.8381 38.055C12.8702 38.0907 10.9154 37.7274 9.09168 36.987C7.268 36.2465 5.61321 35.1443 4.22717 33.7468C2.841 32.3493 1.75226 30.6855 1.02661 28.8557C0.300961 27.0259 -0.0465619 25.0681 0.00500247 23.1004C0.00594966 20.7545 0.554021 18.4411 1.60567 16.3441C2.65731 14.2471 4.18354 12.4242 6.06309 11.0204C8.58896 9.16025 11.6414 8.15252 14.7783 8.14319H19.4667C21.2981 8.14182 23.1092 7.75907 24.7845 7.0193C26.4599 6.27954 27.9629 5.19898 29.1977 3.84645C29.2238 3.81752 29.2584 3.79772 29.2966 3.78996C29.3347 3.7817 29.3745 3.78565 29.4103 3.80125C29.446 3.81684 29.4759 3.84329 29.4958 3.87685C29.5159 3.91053 29.5249 3.94959 29.5217 3.98878C29.3229 6.09609 28.6214 8.12494 27.476 9.90493C27.4591 9.93584 27.4514 9.97102 27.4541 10.0062C27.4568 10.0414 27.4696 10.075 27.4911 10.103C27.5125 10.1309 27.5415 10.152 27.5746 10.1638C27.6077 10.1756 27.6435 10.1776 27.6777 10.1694C29.842 9.68051 31.8612 8.6904 33.573 7.27876C35.2848 5.86712 36.6413 4.07337 37.5334 2.04185C37.556 2.00555 37.5872 1.9754 37.6244 1.95404C37.6618 1.93295 37.704 1.92188 37.7469 1.92188C37.7898 1.92188 37.832 1.93295 37.8694 1.95404C37.9066 1.97527 37.9379 2.00541 37.9604 2.04185C39.7978 5.56187 40.4176 9.5914 39.7227 13.5009ZM14.8256 19.3801C14.2864 19.38 13.7537 19.4995 13.2662 19.73C12.7787 19.9605 12.3483 20.2963 12.0062 20.7132C11.664 21.1301 11.4186 21.6176 11.2876 22.1408C11.1566 22.6639 11.1433 23.2096 11.2486 23.7385C11.3893 24.446 11.7366 25.0958 12.2466 25.6059C12.7566 26.116 13.4064 26.4634 14.1138 26.6042C14.6428 26.7094 15.1884 26.696 15.7115 26.5649C16.2346 26.4338 16.7221 26.1883 17.1389 25.8462C17.5557 25.504 17.8915 25.0737 18.122 24.5861C18.3524 24.0986 18.4719 23.566 18.4718 23.0267V19.6221C18.4685 19.557 18.4412 19.4954 18.3951 19.4493C18.349 19.4032 18.2874 19.3759 18.2223 19.3726L14.8256 19.3801Z" fill="#5C2D91"/>
<path d="M39.7227 13.5009C38.858 18.9219 36.0985 23.8602 31.935 27.4374C27.7716 31.0146 22.4743 32.9987 16.9856 33.0368C15.8738 33.0795 14.7605 33.0119 13.6621 32.835C11.3649 32.4447 9.27091 31.2786 7.72945 29.5311C6.18799 27.7837 5.29222 25.5606 5.19153 23.2326C5.21372 20.6361 6.25593 18.1524 8.09324 16.3175C9.93046 14.4828 12.4155 13.4441 15.0119 13.4258C17.6083 13.4075 20.1078 14.4109 21.9708 16.2195C23.8338 18.0282 24.9111 20.4969 24.97 23.0928C25.0115 24.7324 24.3013 26.1705 22.8417 26.2121C21.2822 26.2121 20.5511 25.0992 20.5511 23.5995V19.4321C20.5517 18.7582 20.2858 18.1114 19.8113 17.6328C19.3369 17.1541 18.6925 16.8825 18.0186 16.8772H14.5254C13.5093 16.8701 12.5076 17.1179 11.612 17.5978C10.7164 18.0777 9.95529 18.7745 9.39836 19.6244C8.84136 20.4742 8.5062 21.4501 8.42349 22.4629C8.34079 23.4756 8.51318 24.4929 8.92491 25.4219C9.33664 26.3509 9.97459 27.1619 10.7805 27.7808C11.5864 28.3997 12.5345 28.8068 13.5382 28.9649C14.542 29.1229 15.5693 29.0268 16.5263 28.6854C17.4833 28.344 18.3395 27.7682 19.0166 27.0106L19.1388 26.8285L19.2611 27.0307C19.6812 27.6015 20.2359 28.0597 20.8758 28.3644C21.5157 28.6692 22.221 28.8111 22.929 28.7775C24.1909 28.6858 25.367 28.1044 26.2061 27.1574C27.0453 26.2105 27.481 24.973 27.4202 23.7092C27.4325 22.6247 27.3109 21.5428 27.0583 20.4881C26.4105 17.5085 24.6827 14.8741 22.208 13.0931C19.7333 11.3121 16.6869 10.5103 13.6561 10.8423C10.6253 11.1743 7.82473 12.6166 5.79428 14.8911C3.76368 17.1657 2.64693 20.1115 2.65927 23.1607C2.69824 26.3939 3.98885 29.4862 6.25995 31.7877C8.53084 34.0892 11.6055 35.4208 14.8377 35.5026C14.8377 35.5026 15.7525 35.5858 16.7838 35.5621C21.7972 35.5303 26.6972 34.0683 30.9083 31.3478C30.9682 31.3061 31.0281 31.3893 30.9882 31.45C28.9381 33.6586 26.4311 35.3936 23.6419 36.5343C20.8527 37.6751 17.8483 38.194 14.8381 38.055C12.8702 38.0907 10.9154 37.7274 9.09168 36.987C7.268 36.2465 5.61321 35.1443 4.22717 33.7468C2.841 32.3493 1.75226 30.6855 1.02661 28.8557C0.300961 27.0259 -0.0465619 25.0681 0.00500247 23.1004C0.00594966 20.7545 0.554021 18.4411 1.60567 16.3441C2.65731 14.2471 4.18354 12.4242 6.06309 11.0204C8.58896 9.16025 11.6414 8.15252 14.7783 8.14319H19.4667C21.2981 8.14182 23.1092 7.75907 24.7845 7.0193C26.4599 6.27954 27.9629 5.19898 29.1977 3.84645C29.2238 3.81752 29.2584 3.79772 29.2966 3.78996C29.3347 3.7817 29.3745 3.78565 29.4103 3.80125C29.446 3.81684 29.4759 3.84329 29.4958 3.87685C29.5159 3.91053 29.5249 3.94959 29.5217 3.98878C29.3229 6.09609 28.6214 8.12494 27.476 9.90493C27.4591 9.93584 27.4514 9.97102 27.4541 10.0062C27.4568 10.0414 27.4696 10.075 27.4911 10.103C27.5125 10.1309 27.5415 10.152 27.5746 10.1638C27.6077 10.1756 27.6435 10.1776 27.6777 10.1694C29.842 9.68051 31.8612 8.6904 33.573 7.27876C35.2848 5.86712 36.6413 4.07337 37.5334 2.04185C37.556 2.00555 37.5872 1.9754 37.6244 1.95404C37.6618 1.93295 37.704 1.92188 37.7469 1.92188C37.7898 1.92188 37.832 1.93295 37.8694 1.95404C37.9066 1.97527 37.9379 2.00541 37.9604 2.04185C39.7978 5.56187 40.4176 9.5914 39.7227 13.5009ZM14.8256 19.3801C14.2864 19.38 13.7537 19.4995 13.2662 19.73C12.7787 19.9605 12.3483 20.2963 12.0062 20.7132C11.664 21.1301 11.4186 21.6176 11.2876 22.1408C11.1566 22.6639 11.1433 23.2096 11.2486 23.7385C11.3893 24.446 11.7366 25.0958 12.2466 25.6059C12.7566 26.116 13.4064 26.4634 14.1138 26.6042C14.6428 26.7094 15.1884 26.696 15.7115 26.5649C16.2346 26.4338 16.7221 26.1883 17.1389 25.8462C17.5557 25.504 17.8915 25.0737 18.122 24.5861C18.3524 24.0986 18.4719 23.566 18.4718 23.0267V19.6221C18.4685 19.557 18.4412 19.4954 18.3951 19.4493C18.349 19.4032 18.2874 19.3759 18.2223 19.3726L14.8256 19.3801Z" fill="#5C2D91"/>
</svg>
