<svg width="48" height="48" viewBox="0 0 48 48" fill="none" xmlns="http://www.w3.org/2000/svg">
<path fill-rule="evenodd" clip-rule="evenodd" d="M26.647 21.5553C26.1758 21.687 25.6981 21.8207 25.1451 21.971C24.875 22.0475 24.8135 22.0648 24.5621 21.7593C24.2606 21.3993 24.0395 21.1663 23.6172 20.9545C22.3507 20.298 21.1243 20.4887 19.9785 21.2722C18.6115 22.204 17.9078 23.5806 17.928 25.2959C17.948 26.9901 19.0537 28.3878 20.642 28.6208C22.009 28.8114 23.1548 28.303 24.0595 27.223C24.2403 26.9902 24.4013 26.7358 24.6023 26.4396H20.7223C20.3001 26.4396 20.1996 26.1642 20.3403 25.8042C20.6017 25.1477 21.0842 24.0464 21.3656 23.4958C21.426 23.3688 21.5667 23.1569 21.8682 23.1569H28.3376C28.6282 22.1869 29.0997 21.2704 29.7287 20.4032C31.1963 18.3702 32.9655 17.3113 35.3577 16.8665C37.4083 16.4854 39.3382 16.6972 41.0872 17.9465C42.6755 19.0902 43.6605 20.6362 43.9218 22.6692C44.2636 25.5282 43.4796 27.8577 41.61 29.8483C40.2831 31.2673 38.6547 32.1567 36.7851 32.559C36.4285 32.6287 36.0718 32.6617 35.7208 32.6942C35.5377 32.7111 35.3561 32.7279 35.1768 32.7497C33.3473 32.7073 31.6788 32.1567 30.2715 30.886C29.2818 29.9849 28.6002 28.8774 28.2613 27.5881C28.0262 28.0883 27.7451 28.5674 27.4168 29.0232C25.9693 31.0351 24.0796 32.2844 21.6873 32.6233C19.7171 32.8987 17.8877 32.4963 16.2794 31.2256C14.7917 30.0397 13.9474 28.4725 13.7263 26.5242C13.4649 24.2158 14.1082 22.1404 15.4351 20.3192C16.8625 18.3497 18.7522 17.1002 21.0641 16.6555C22.9538 16.2955 24.7631 16.5284 26.3916 17.6932C27.457 18.4344 28.221 19.4509 28.7236 20.6792C28.8442 20.8698 28.7637 20.9757 28.5225 21.0392C27.818 21.2277 27.2377 21.39 26.647 21.5553ZM39.9475 23.9674C39.9515 24.0385 39.9556 24.1135 39.9615 24.1939C39.861 26.0152 38.9965 27.3705 37.4083 28.2389C36.3428 28.8107 35.2371 28.8742 34.1315 28.3659C32.684 27.6883 31.92 26.0152 32.2818 24.3634C32.7242 22.3727 33.9303 21.1232 35.8 20.6785C37.7098 20.2125 39.5393 21.3985 39.9012 23.495C39.9296 23.645 39.938 23.7949 39.9475 23.9674Z" fill="#00ACD7"/>
<path d="M7.05551 21.3151C7.0153 21.3786 7.0354 21.421 7.11581 21.421L13.103 21.4421C13.1633 21.4421 13.2638 21.3786 13.304 21.3151L13.6458 20.7645C13.686 20.7009 13.6659 20.6374 13.5855 20.6374H7.69882C7.61841 20.6374 7.51788 20.6798 7.47768 20.7433L7.05551 21.3151Z" fill="#00ACD7"/>
<path d="M4.0201 23.2627C3.9799 23.3263 4 23.3687 4.08041 23.3687L12.2991 23.3475C12.3795 23.3475 12.4599 23.3051 12.48 23.2205L12.6409 22.7122C12.661 22.6486 12.6208 22.5851 12.5403 22.5851H4.66342C4.58301 22.5851 4.48249 22.6275 4.44228 22.691L4.0201 23.2627Z" fill="#00ACD7"/>
<path d="M8.88534 25.1904C8.84513 25.254 8.86523 25.3175 8.94565 25.3175L12.0379 25.3386C12.0982 25.3386 12.1786 25.2751 12.1786 25.1904L12.2188 24.6821C12.2188 24.5975 12.1786 24.5339 12.0982 24.5339H9.36783C9.2874 24.5339 9.20699 24.5975 9.16679 24.661L8.88534 25.1904Z" fill="#00ACD7"/>
</svg>
