<svg width="40" height="40" viewBox="0 0 40 40" fill="none" xmlns="http://www.w3.org/2000/svg">
<path fill-rule="evenodd" clip-rule="evenodd" d="M22.6472 16.9303C22.1761 17.0621 21.6984 17.1957 21.1454 17.3461C20.8752 17.4226 20.8137 17.4398 20.5624 17.1343C20.2609 16.7743 20.0397 16.5413 19.6175 16.3296C18.351 15.6731 17.1246 15.8637 15.9787 16.6472C14.6117 17.5791 13.9081 18.9556 13.9282 20.6709C13.9482 22.3651 15.054 23.7628 16.6422 23.9958C18.0092 24.1865 19.1551 23.6781 20.0597 22.5981C20.2406 22.3652 20.4016 22.1108 20.6026 21.8146H16.7226C16.3003 21.8146 16.1998 21.5392 16.3406 21.1792C16.602 20.5227 17.0845 19.4214 17.3658 18.8708C17.4262 18.7438 17.567 18.5319 17.8685 18.5319H24.3379C24.6285 17.5619 25.1 16.6454 25.729 15.7782C27.1966 13.7452 28.9657 12.6863 31.358 12.2416C33.4086 11.8604 35.3385 12.0722 37.0875 13.3216C38.6758 14.4652 39.6608 16.0112 39.9221 18.0442C40.2639 20.9032 39.4799 23.2327 37.6103 25.2233C36.2834 26.6423 34.655 27.5317 32.7854 27.9341C32.4288 28.0037 32.0721 28.0367 31.7211 28.0692C31.538 28.0861 31.3564 28.103 31.1771 28.1247C29.3476 28.0823 27.6791 27.5317 26.2717 26.2611C25.2821 25.36 24.6005 24.2525 24.2616 22.9631C24.0265 23.4633 23.7454 23.9425 23.4171 24.3982C21.9696 26.4101 20.0799 27.6595 17.6876 27.9983C15.7173 28.2737 13.888 27.8713 12.2797 26.6006C10.792 25.4147 9.94764 23.8476 9.7265 21.8992C9.46515 19.5908 10.1085 17.5154 11.4353 15.6942C12.8627 13.7247 14.7525 12.4752 17.0643 12.0305C18.9541 11.6705 20.7634 11.9034 22.3919 13.0682C23.4572 13.8094 24.2212 14.8259 24.7239 16.0542C24.8445 16.2448 24.764 16.3507 24.5227 16.4142C23.8182 16.6027 23.238 16.7651 22.6472 16.9303ZM35.9478 19.3424C35.9518 19.4136 35.9559 19.4886 35.9618 19.5689C35.8613 21.3902 34.9968 22.7456 33.4086 23.614C32.3431 24.1857 31.2374 24.2492 30.1318 23.741C28.6842 23.0633 27.9202 21.3902 28.2821 19.7384C28.7245 17.7477 29.9306 16.4982 31.8003 16.0536C33.7101 15.5876 35.5396 16.7736 35.9015 18.8701C35.9299 19.0201 35.9383 19.1699 35.9478 19.3424Z" fill="#00ACD7"/>
<path d="M3.05575 16.6904C3.01554 16.7539 3.03564 16.7963 3.11605 16.7963L9.10326 16.8174C9.16357 16.8174 9.26408 16.7539 9.30429 16.6904L9.64606 16.1398C9.68626 16.0762 9.66616 16.0127 9.58574 16.0127H3.69907C3.61865 16.0127 3.51813 16.0551 3.47793 16.1186L3.05575 16.6904Z" fill="#00ACD7"/>
<path d="M0.0201037 18.6386C-0.0201037 18.7022 9.31325e-09 18.7446 0.0804147 18.7446L8.29912 18.7233C8.37953 18.7233 8.45995 18.6809 8.48005 18.5963L8.64088 18.0881C8.66098 18.0244 8.62077 17.9609 8.54036 17.9609H0.66342C0.583006 17.9609 0.482487 18.0033 0.44228 18.0668L0.0201037 18.6386Z" fill="#00ACD7"/>
<path d="M4.88534 20.5657C4.84513 20.6293 4.86523 20.6928 4.94565 20.6928L8.03793 20.7139C8.09823 20.7139 8.17865 20.6504 8.17865 20.5657L8.21885 20.0574C8.21885 19.9728 8.17865 19.9092 8.09823 19.9092H5.36783C5.28741 19.9092 5.20699 19.9728 5.16679 20.0363L4.88534 20.5657Z" fill="#00ACD7"/>
</svg>
