<svg version="1.1" id="Layer_1" xmlns="http://www.w3.org/2000/svg" x="0" y="0" width="120" height="60" xml:space="preserve"><style>.st0{fill:#00acd7}</style><switch><g><path class="st0" d="M22.3 24.7c-.1 0-.2-.1-.1-.2l.7-1c.1-.1.2-.2.4-.2h12.6c.1 0 .2.1.1.2l-.6.9c-.1.1-.2.2-.4.2l-12.7.1zM17 27.9c-.1 0-.2-.1-.1-.2l.7-1c.1-.1.2-.2.4-.2h16.1c.1 0 .2.1.2.2l-.3 1c0 .1-.2.2-.3.2H17zm8.5 3.3c-.1 0-.2-.1-.1-.2l.5-.9c.1-.1.2-.2.4-.2h7c.1 0 .2.1.2.2l-.1.8c0 .1-.1.2-.2.2l-7.7.1zM62.1 24l-5.9 1.5c-.5.1-.6.2-1-.4-.5-.6-.9-1-1.7-1.3-2.2-1.1-4.4-.8-6.4.5-2.4 1.5-3.6 3.8-3.6 6.7 0 2.8 2 5.1 4.8 5.5 2.4.3 4.4-.5 6-2.3.3-.4.6-.8 1-1.3h-6.8c-.7 0-.9-.5-.7-1.1.5-1.1 1.3-2.9 1.8-3.8.1-.2.4-.6.9-.6h12.8c-.1 1-.1 1.9-.2 2.9-.4 2.5-1.3 4.9-2.9 6.9-2.5 3.3-5.8 5.4-10 6-3.5.5-6.7-.2-9.5-2.3-2.6-2-4.1-4.6-4.5-7.8-.5-3.8.7-7.3 3-10.3 2.5-3.3 5.8-5.4 9.9-6.1 3.3-.6 6.5-.2 9.3 1.7 1.9 1.2 3.2 2.9 4.1 5 .1.4 0 .5-.4.6z"/><path class="st0" d="M73.7 43.5c-3.2-.1-6.1-1-8.6-3.1-2.1-1.8-3.4-4.1-3.8-6.8-.6-4 .5-7.5 2.9-10.6 2.6-3.4 5.7-5.1 9.9-5.9 3.6-.6 7-.3 10 1.8 2.8 1.9 4.5 4.5 5 7.9.6 4.8-.8 8.6-4 11.9-2.3 2.4-5.2 3.8-8.4 4.5-1.1.2-2.1.2-3 .3zm8.4-14.2c0-.5 0-.8-.1-1.2-.6-3.5-3.8-5.5-7.2-4.7-3.3.7-5.4 2.8-6.2 6.1-.6 2.7.7 5.5 3.2 6.7 1.9.8 3.9.7 5.7-.2 2.9-1.4 4.4-3.7 4.6-6.7z"/></g></switch></svg>